<svg width="320" height="275" viewBox="0 0 320 275" fill="none" xmlns="http://www.w3.org/2000/svg">
<path d="M143.979 61.1649C144.125 60.9819 144.357 60.8879 144.588 60.9139L149.487 61.4799C149.781 61.5139 150.018 61.7309 150.077 62.0189C150.112 62.1879 150.082 62.3569 150 62.4989C149.941 62.5999 149.857 62.6869 149.751 62.7489L148.759 63.3209L315.058 159.334C314.96 159.804 314.87 160.274 314.775 160.744L147.396 64.1069L145.832 65.0099C145.656 65.1119 145.443 65.1299 145.251 65.0569C145.061 64.9859 144.912 64.8339 144.845 64.6419L143.865 61.8139C143.79 61.5939 143.835 61.3409 143.979 61.1649Z" fill="#FFFFF7"/>
<path d="M169.125 9.81499L177.127 10.192C178.528 10.258 180.187 11.138 181.651 12.591L197.93 28.742C198.948 29.752 200.072 30.496 201.146 30.872L215.56 35.909C216.849 36.359 218.201 37.337 219.352 38.651L237.966 59.902C239.128 61.228 240.494 62.211 241.792 62.656L260.121 68.933C261.261 69.323 262.458 70.131 263.525 71.23L277.63 85.752C278.95 87.111 280.457 88.013 281.801 88.249L296.622 90.849C298.293 91.142 300.191 92.459 301.664 94.346L315.059 111.519V159.991L147.642 63.333V0L157.097 1.7C158.343 1.924 159.73 2.719 160.98 3.925L164.715 7.53C166.153 8.917 167.762 9.75099 169.125 9.81499Z" fill="#151515"/>
<path d="M152.12 27.4139L159.645 35.4069C161.051 36.8999 162.685 37.8719 164.114 38.0649L187.498 41.2129C188.698 41.3749 190.053 42.0879 191.3 43.2159L205.935 56.4509C206.912 57.3339 207.96 57.9689 208.952 58.2779L227.506 64.0539C228.872 64.4789 230.327 65.5149 231.548 66.9329L250.168 88.5409C251.191 89.7289 252.385 90.6559 253.559 91.1739L268.009 97.5549C269.024 98.0029 270.058 98.7589 270.985 99.7299L287.255 116.777C288.485 118.065 289.889 118.961 291.179 119.281L304.926 122.688V130.033V165.84L137.509 69.1819V22.8069L147.89 24.7959C149.264 25.0589 150.796 26.0069 152.12 27.4139Z" fill="#6666C4"/>
<path d="M140.126 42.0809L148.396 49.5129C149.645 50.6349 150.998 51.3419 152.195 51.4959L160.462 52.5629C161.73 52.7269 163.17 53.5089 164.474 54.7419L175.711 65.3729C177.069 66.6579 178.573 67.4509 179.874 67.5689L193.441 68.7989C194.987 68.9389 196.802 70.0289 198.312 71.7249L223.149 99.6219C224.639 101.296 226.428 102.381 227.963 102.542L237.925 103.589C239.378 103.742 241.063 104.723 242.509 106.258L260.41 125.26C261.905 126.847 263.653 127.839 265.133 127.941L275.673 128.666C276.935 128.753 278.4 129.487 279.744 130.706L293.401 143.091V172.493L125.984 75.8349V37.3379L136.907 40.2119C137.955 40.4889 139.08 41.1409 140.126 42.0809Z" fill="#7ADEFF"/>
<path d="M129.385 70.64L137.642 78.061C138.916 79.206 140.297 79.917 141.511 80.053L149.343 80.927C150.785 81.088 152.452 82.06 153.886 83.576L160.629 90.706C162.267 92.438 164.194 93.445 165.737 93.375L182.799 92.602C184.442 92.528 186.512 93.674 188.201 95.594L207.669 117.726C209.231 119.502 211.128 120.626 212.716 120.716L227.235 121.542C228.672 121.624 230.373 122.554 231.852 124.069L249.989 142.631C251.318 143.991 252.832 144.887 254.178 145.109L265.113 146.916C266.287 147.11 267.595 147.818 268.8 148.911L282.688 161.506V178.677L115.272 82.021V65.782L126.219 68.786C127.252 69.069 128.357 69.716 129.385 70.64Z" fill="#FFFFF7"/>
<path d="M119.375 91.5361L125.143 95.6731C126.897 96.9311 128.681 97.8761 130.404 98.4591L136.446 100.503C138.646 101.247 140.939 102.579 143.136 104.388L148.175 108.539C150.317 110.304 152.553 111.616 154.705 112.37L170.658 117.96C172.621 118.648 174.656 119.8 176.628 121.341L194.785 135.527C197.121 137.352 199.539 138.628 201.816 139.236L212.94 142.21C215.379 142.862 217.976 144.278 220.459 146.309L236.625 159.537C238.998 161.479 241.478 162.86 243.826 163.547L250.003 165.356C253.007 166.235 256.209 168.245 259.112 171.073L270.863 182.521V185.508L103.446 88.8501V86.2371L112.743 88.3621C114.869 88.8471 117.143 89.9361 119.375 91.5361Z" fill="#817DEC"/>
<path d="M263.286 189.36L314.281 159.92V74.026C314.281 73.651 314.586 73.344 314.962 73.344C315.339 73.344 315.644 73.65 315.644 74.026V160.314C315.644 160.556 315.513 160.783 315.303 160.905L263.967 190.542C263.859 190.603 263.742 190.633 263.626 190.633C263.392 190.633 263.161 190.511 263.036 190.292C262.848 189.967 262.96 189.549 263.286 189.36Z" fill="#FFFFF7"/>
<path d="M312.543 73.193L314.502 70.93C314.655 70.754 314.896 70.667 315.121 70.704C315.353 70.739 315.55 70.893 315.643 71.106L317.602 75.632C317.719 75.903 317.65 76.218 317.43 76.412C317.301 76.527 317.14 76.585 316.976 76.585C316.859 76.585 316.742 76.556 316.635 76.495L312.716 74.232C312.54 74.131 312.418 73.955 312.384 73.753C312.352 73.552 312.41 73.347 312.543 73.193Z" fill="#FFFFF7"/>
<path d="M260.694 191.237L261.259 188.298C261.304 188.069 261.468 187.873 261.682 187.793C261.9 187.707 262.148 187.742 262.335 187.88L266.295 190.82C266.532 190.997 266.629 191.303 266.536 191.581C266.481 191.745 266.371 191.876 266.229 191.958C266.128 192.017 266.012 192.05 265.889 192.05H261.364C261.161 192.05 260.967 191.959 260.837 191.801C260.709 191.644 260.656 191.437 260.694 191.237Z" fill="#FFFFF7"/>
<path opacity="0.6" d="M249.749 192.761L94.1753 102.94C90.1913 100.64 83.7683 100.64 79.8113 102.94L3.23727 147.44C-0.700732 149.729 -0.67973 153.449 3.30327 155.749L158.878 245.57C162.862 247.87 169.285 247.87 173.223 245.581L249.797 201.081C253.753 198.781 253.732 195.061 249.749 192.761Z" fill="#B28A7C"/>
<path d="M0.298214 140.256L0.283215 145.413C0.279215 146.928 1.28021 148.447 3.28721 149.606L158.861 239.427C162.845 241.727 169.268 241.727 173.206 239.438L249.78 194.938C251.746 193.795 252.73 192.302 252.734 190.807L252.749 185.65L0.298214 140.256Z" fill="url(#paint0_linear_1_19541)"/>
<path d="M249.749 181.461C253.733 183.761 253.753 187.481 249.796 189.781L173.222 234.281C169.284 236.57 162.861 236.57 158.877 234.27L3.30231 144.449C-0.681689 142.149 -0.702691 138.429 3.23631 136.14L79.8093 91.6398C83.7673 89.3398 90.1903 89.3398 94.1743 91.6398L249.749 181.461Z" fill="#2E2E70"/>
<path opacity="0.3" d="M87.9973 89.9707C85.0703 89.8007 82.0473 90.3387 79.8103 91.6397L3.23727 136.14C-0.700732 138.429 -0.67973 142.149 3.30327 144.449L87.9973 193.347V89.9707Z" fill="#181019"/>
<path d="M22.1082 125.173H36.4992L67.5822 107.227V98.7458L22.1082 125.173Z" fill="#181019"/>
<path d="M218.159 212.362L208.841 217.742C208.108 218.165 207.513 217.914 207.513 217.181V216.572C207.513 215.838 208.108 214.9 208.841 214.477L218.159 209.097C218.893 208.674 219.487 208.925 219.487 209.658V210.267C219.487 211 218.893 211.938 218.159 212.362Z" fill="#666673"/>
<path d="M218.736 211.884L216.034 210.324L208.841 214.477C208.108 214.9 207.513 215.838 207.513 216.572V217.181C207.513 217.915 208.108 218.166 208.841 217.742L218.159 212.363C218.369 212.241 218.56 212.072 218.736 211.884Z" fill="#777784"/>
<path d="M37.1351 165.53C37.0291 165.29 36.8841 165.061 36.7131 164.867C36.5681 164.703 36.4061 164.563 36.2341 164.464L25.4551 158.241C25.1501 158.065 24.8751 158.048 24.6761 158.164L23.8071 158.671C24.0061 158.555 24.2811 158.572 24.5861 158.748L35.3651 164.971C35.5371 165.071 35.7001 165.21 35.8441 165.374C36.0151 165.568 36.1601 165.797 36.2661 166.037C36.3861 166.309 36.4561 166.594 36.4551 166.859L36.4511 168.25C36.4501 168.596 36.3291 168.838 36.1331 168.952L37.0021 168.445C37.1981 168.331 37.3201 168.088 37.3201 167.743L37.3241 166.352C37.3251 166.088 37.2551 165.802 37.1351 165.53Z" fill="#FFFFF7"/>
<path d="M35.3651 164.971L24.5861 158.748C23.9811 158.399 23.4911 158.678 23.4891 159.373L23.4851 160.764C23.4831 161.46 23.9701 162.302 24.5751 162.652L35.3541 168.875C35.9591 169.225 36.4491 168.946 36.4511 168.25L36.4551 166.859C36.4571 166.163 35.9701 165.32 35.3651 164.971Z" fill="#D1CCBF"/>
<path d="M55.1481 175.93C55.0421 175.69 54.8971 175.461 54.7261 175.267C54.5811 175.103 54.4191 174.963 54.2471 174.864L43.4681 168.641C43.1631 168.465 42.8881 168.449 42.6891 168.564L41.8201 169.071C42.0191 168.955 42.2941 168.972 42.5991 169.148L53.3781 175.371C53.5501 175.471 53.7131 175.61 53.8571 175.774C54.0281 175.968 54.1731 176.197 54.2791 176.437C54.3991 176.709 54.4691 176.994 54.4681 177.259L54.4641 178.65C54.4631 178.996 54.3421 179.238 54.1461 179.352L55.0151 178.845C55.2111 178.731 55.3331 178.488 55.3331 178.143L55.3371 176.752C55.3381 176.487 55.2681 176.201 55.1481 175.93Z" fill="#FFFFF7"/>
<path d="M53.3781 175.37L42.5991 169.147C41.9941 168.798 41.5041 169.077 41.5021 169.772L41.4981 171.163C41.4961 171.858 41.9831 172.701 42.5881 173.051L53.3671 179.274C53.9721 179.624 54.4621 179.345 54.4641 178.649L54.4681 177.258C54.4691 176.563 53.9831 175.72 53.3781 175.37Z" fill="#D1CCBF"/>
<mask id="mask0_1_19541" style="mask-type:luminance" maskUnits="userSpaceOnUse" x="0" y="89" width="253" height="147">
<path d="M249.749 181.461C253.733 183.761 253.753 187.481 249.796 189.781L173.222 234.281C169.284 236.57 162.861 236.57 158.877 234.27L3.30231 144.449C-0.681689 142.149 -0.702691 138.429 3.23631 136.14L79.8093 91.6398C83.7673 89.3398 90.1903 89.3398 94.1743 91.6398L249.749 181.461Z" fill="white"/>
</mask>
<g mask="url(#mask0_1_19541)">
<g opacity="0.3">
<path d="M102.539 182.646C102.082 183.856 100.737 184.592 100.314 183.875C97.7754 179.57 96.3014 149.997 92.5684 145.76C92.2634 145.414 91.5374 145.781 91.1694 146.472C89.2074 150.155 86.7434 162.063 84.9164 171.084C84.6864 172.223 82.8544 173.246 82.6794 172.332C81.5904 166.635 78.1024 156.031 76.4954 156.959C73.0634 158.94 69.1924 206.816 67.2814 212.907C66.9034 214.113 65.4744 214.871 65.0494 214.149C63.7574 211.955 60.5384 176.127 56.4654 178.479C53.6464 180.107 51.0554 199.178 49.6504 204.903C49.3594 206.087 47.6384 207.052 47.4184 206.145C44.9144 195.823 42.8594 173.791 40.0374 175.936C38.3784 176.467 36.8444 190.772 36.5704 192.902C35.3854 202.116 34.1824 217.599 32.0194 223.348C31.5614 224.565 30.2124 225.312 29.7874 224.59C28.4954 222.396 28.0254 215.268 25.0004 196.508C24.1284 191.103 23.7724 186.649 22.1074 185.938V153.178L110.562 102.108V126.539C108.905 127.07 104.706 176.909 102.539 182.646Z" fill="#262654"/>
</g>
</g>
<mask id="mask1_1_19541" style="mask-type:luminance" maskUnits="userSpaceOnUse" x="0" y="89" width="253" height="147">
<path d="M249.749 181.461C253.733 183.761 253.753 187.481 249.796 189.781L173.222 234.281C169.284 236.57 162.861 236.57 158.877 234.27L3.30231 144.449C-0.681689 142.149 -0.702691 138.429 3.23631 136.14L79.8093 91.6398C83.7673 89.3398 90.1903 89.3398 94.1743 91.6398L249.749 181.461Z" fill="white"/>
</mask>
<g mask="url(#mask1_1_19541)">
<g opacity="0.3">
<path d="M216.392 177.034V237.329C216.369 238.801 217.33 240.278 219.276 241.401C223.121 243.621 229.356 243.621 233.201 241.401C235.101 240.304 236.062 238.871 236.085 237.434V177.139L216.392 177.034Z" fill="#151515"/>
<path d="M233.155 172.994C231.618 172.106 229.884 171.597 227.742 171.399C223.459 171.007 219.435 172.196 217.481 174.433C215.524 176.671 216.247 179.257 219.321 181.033C221.629 182.365 224.594 182.924 227.806 182.628C231.015 182.333 233.529 181.273 234.996 179.594C236.953 177.357 236.231 174.77 233.155 172.994Z" fill="#8A18ED"/>
<path d="M198.464 187.13V238.921C198.441 240.393 199.402 241.87 201.348 242.993C205.193 245.213 211.428 245.213 215.273 242.993C217.173 241.896 218.134 240.463 218.157 239.026V187.235L198.464 187.13Z" fill="#151515"/>
<path d="M215.226 183.09C213.689 182.202 211.955 181.693 209.813 181.495C205.53 181.103 201.506 182.291 199.552 184.529C197.595 186.767 198.318 189.353 201.392 191.129C203.699 192.461 206.665 193.02 209.877 192.724C213.086 192.429 215.6 191.369 217.067 189.69C219.025 187.453 218.302 184.867 215.226 183.09Z" fill="#FFD03B"/>
<path d="M180.535 196.475V240.045C180.512 241.517 181.473 242.994 183.419 244.117C187.264 246.337 193.499 246.337 197.344 244.117C199.244 243.02 200.205 241.587 200.228 240.149V196.579L180.535 196.475Z" fill="#262654"/>
<path d="M197.298 192.435C195.761 191.547 194.027 191.038 191.885 190.84C187.602 190.448 183.578 191.637 181.624 193.874C179.667 196.112 180.39 198.698 183.464 200.474C185.772 201.806 188.737 202.365 191.949 202.069C195.158 201.774 197.672 200.714 199.139 199.035C201.096 196.798 200.374 194.211 197.298 192.435Z" fill="#8A18ED"/>
<path d="M162.327 207.503V240.045C162.304 241.517 163.265 242.994 165.211 244.117C169.056 246.337 175.291 246.337 179.136 244.117C181.036 243.02 181.997 241.587 182.02 240.149V207.607L162.327 207.503Z" fill="#262654"/>
<path d="M179.09 203.463C177.553 202.575 175.819 202.066 173.677 201.868C169.394 201.476 165.37 202.665 163.416 204.902C161.459 207.14 162.182 209.726 165.256 211.502C167.563 212.834 170.529 213.393 173.741 213.098C176.95 212.803 179.464 211.743 180.931 210.064C182.889 207.826 182.166 205.239 179.09 203.463Z" fill="#E8A3D7"/>
<path d="M144.12 218.883V241.613C144.097 243.085 145.058 244.562 147.004 245.685C150.849 247.905 157.084 247.905 160.929 245.685C162.829 244.588 163.79 243.155 163.813 241.718V218.988L144.12 218.883Z" fill="#E4DED2"/>
<path d="M160.882 214.843C159.345 213.955 157.611 213.446 155.469 213.248C151.186 212.856 147.162 214.045 145.208 216.282C143.251 218.52 143.974 221.107 147.048 222.882C149.355 224.214 152.321 224.773 155.533 224.478C158.742 224.183 161.256 223.123 162.723 221.444C164.681 219.206 163.959 216.619 160.882 214.843Z" fill="#E467E8"/>
</g>
</g>
<g opacity="0.1">
<path d="M118.739 197.398L110.232 202.309L108.401 201.252L116.909 196.341L118.739 197.398Z" fill="#FFFFF7"/>
<path d="M126.734 192.782L121.199 195.977L119.369 194.92L124.904 191.725L126.734 192.782Z" fill="#FFFFF7"/>
<path d="M140.673 184.733L129.194 191.361L127.364 190.305L138.843 183.677L140.673 184.733Z" fill="#FFFFF7"/>
<path d="M156.253 175.738L143.133 183.313L141.303 182.256L154.423 174.682L156.253 175.738Z" fill="#FFFFF7"/>
<path d="M156.883 173.261L158.713 174.318L171.833 166.743L170.002 165.687L156.883 173.261Z" fill="#FFFFF7"/>
<path d="M179.759 162.167L174.293 165.323L172.462 164.266L177.929 161.11L179.759 162.167Z" fill="#FFFFF7"/>
<path d="M195.51 153.073L182.219 160.747L180.389 159.69L193.679 152.017L195.51 153.073Z" fill="#FFFFF7"/>
<path d="M128.423 197.544L115.201 205.178L113.371 204.122L126.593 196.488L128.423 197.544Z" fill="#FFFFF7"/>
<path d="M136.418 192.928L130.883 196.124L129.053 195.067L134.588 191.872L136.418 192.928Z" fill="#FFFFF7"/>
<path d="M145.643 187.602L138.878 191.508L137.048 190.451L143.812 186.546L145.643 187.602Z" fill="#FFFFF7"/>
<path d="M155.619 181.842L148.103 186.182L146.272 185.126L153.789 180.786L155.619 181.842Z" fill="#FFFFF7"/>
<path d="M156.249 179.365L158.079 180.422L170.174 173.439L168.344 172.382L156.249 179.365Z" fill="#FFFFF7"/>
<path d="M180.765 167.324L172.634 172.019L170.803 170.962L178.935 166.268L180.765 167.324Z" fill="#FFFFF7"/>
<path d="M200.479 155.942L183.225 165.904L181.395 164.847L198.649 154.886L200.479 155.942Z" fill="#FFFFF7"/>
<path d="M128.677 203.135L120.17 208.047L118.34 206.991L126.847 202.079L128.677 203.135Z" fill="#FFFFF7"/>
<path d="M136.672 198.52L131.137 201.715L129.307 200.659L134.842 197.463L136.672 198.52Z" fill="#FFFFF7"/>
<path d="M150.612 190.472L139.132 197.099L137.302 196.043L148.782 189.415L150.612 190.472Z" fill="#FFFFF7"/>
<path d="M166.192 181.476L153.072 189.051L151.242 187.994L164.361 180.42L166.192 181.476Z" fill="#FFFFF7"/>
<path d="M166.821 178.999L168.651 180.056L181.771 172.481L179.941 171.425L166.821 178.999Z" fill="#FFFFF7"/>
<path d="M189.698 167.905L184.231 171.061L182.401 170.005L187.867 166.848L189.698 167.905Z" fill="#FFFFF7"/>
<path d="M205.448 158.811L192.158 166.485L190.327 165.428L203.618 157.755L205.448 158.811Z" fill="#FFFFF7"/>
<path d="M138.362 203.282L125.139 210.916L123.309 209.86L136.531 202.226L138.362 203.282Z" fill="#FFFFF7"/>
<path d="M146.356 198.666L140.821 201.862L138.991 200.805L144.526 197.61L146.356 198.666Z" fill="#FFFFF7"/>
<path d="M155.581 193.341L148.816 197.246L146.986 196.19L153.751 192.284L155.581 193.341Z" fill="#FFFFF7"/>
<path d="M165.558 187.58L158.041 191.92L156.211 190.864L163.727 186.524L165.558 187.58Z" fill="#FFFFF7"/>
<path d="M166.187 185.104L168.017 186.16L180.112 179.177L178.282 178.121L166.187 185.104Z" fill="#FFFFF7"/>
<path d="M190.704 173.062L182.572 177.757L180.742 176.7L188.873 172.006L190.704 173.062Z" fill="#FFFFF7"/>
<path d="M210.417 161.68L193.164 171.642L191.333 170.585L208.587 160.624L210.417 161.68Z" fill="#FFFFF7"/>
<path d="M57.4051 161.986L48.8981 166.898L47.0671 165.841L55.5751 160.929L57.4051 161.986Z" fill="#FFFFF7"/>
<path d="M65.4002 157.37L59.8652 160.566L58.0352 159.509L63.5702 156.313L65.4002 157.37Z" fill="#FFFFF7"/>
<path d="M79.339 149.322L67.86 155.95L66.03 154.893L77.509 148.265L79.339 149.322Z" fill="#FFFFF7"/>
<path d="M94.9192 140.327L81.7992 147.902L79.9692 146.845L93.0892 139.27L94.9192 140.327Z" fill="#FFFFF7"/>
<path d="M95.5491 137.85L97.3791 138.906L110.499 131.332L108.668 130.275L95.5491 137.85Z" fill="#FFFFF7"/>
<path d="M118.425 126.755L112.959 129.911L111.128 128.855L116.595 125.699L118.425 126.755Z" fill="#FFFFF7"/>
<path d="M134.176 117.662L120.885 125.335L119.055 124.278L132.345 116.605L134.176 117.662Z" fill="#FFFFF7"/>
<path d="M67.0891 162.133L53.8671 169.767L52.0371 168.71L65.2591 161.076L67.0891 162.133Z" fill="#FFFFF7"/>
<path d="M75.0842 157.517L69.5492 160.712L67.7192 159.656L73.2542 156.46L75.0842 157.517Z" fill="#FFFFF7"/>
<path d="M84.3091 152.191L77.5441 156.097L75.7141 155.04L82.4781 151.134L84.3091 152.191Z" fill="#FFFFF7"/>
<path d="M94.2852 146.431L86.7692 150.77L84.9382 149.714L92.4552 145.374L94.2852 146.431Z" fill="#FFFFF7"/>
<path d="M94.915 143.954L96.745 145.01L108.84 138.027L107.01 136.971L94.915 143.954Z" fill="#FFFFF7"/>
<path d="M119.431 131.912L111.3 136.607L109.47 135.551L117.601 130.856L119.431 131.912Z" fill="#FFFFF7"/>
<path d="M139.145 120.531L121.891 130.492L120.061 129.436L137.315 119.474L139.145 120.531Z" fill="#FFFFF7"/>
<path d="M100.081 174.385L73.4421 171.949C74.3741 168.551 76.7961 165.806 81.0101 163.374L100.081 174.385Z" fill="#817DEC"/>
<path d="M100.081 174.385L87.8361 188.259C77.2181 185.136 71.5781 178.744 73.4421 171.949L100.081 174.385Z" fill="#FFFFF7"/>
<path d="M100.081 174.385L119.152 185.396C110.726 190.261 98.4542 191.383 87.8362 188.26L100.081 174.385Z" fill="#7ADEFF"/>
<path d="M100.081 174.385L126.72 171.949C128.118 177.045 125.472 181.747 119.152 185.396L100.081 174.385Z" fill="#6666C4"/>
<path d="M100.081 174.385L112.325 160.51C120.288 162.853 125.321 166.852 126.719 171.949L100.081 174.385Z" fill="#6666C4"/>
<path d="M100.081 174.385L81.01 163.374C89.436 158.509 101.708 157.387 112.326 160.51L100.081 174.385Z" fill="#151515"/>
<path d="M147.029 147.239L156.1 161.988C150.457 163.145 145.096 163.229 139.352 162.25L147.029 147.239Z" fill="#817DEC"/>
<path d="M147.029 147.239L173.028 151.671C170.484 156.645 164.566 160.252 156.101 161.988L147.029 147.239Z" fill="#FFFFF7"/>
<path d="M147.029 147.239L139.353 162.25C124.994 159.802 116.791 151.098 121.031 142.807C125.271 134.517 140.347 129.781 154.706 132.228C160.449 133.207 164.872 134.958 168.522 137.7L147.029 147.239Z" fill="#151515"/>
<path d="M147.029 147.239L168.521 137.7C173.996 141.812 175.572 146.697 173.028 151.671L147.029 147.239Z" fill="#7ADEFF"/>
</g>
<path d="M102.539 30.8179C102.082 30.1359 100.737 30.9529 100.314 32.1589C97.7752 39.3959 96.3012 70.6709 92.5682 79.2179C92.2632 79.9149 91.5372 80.3869 91.1692 80.1209C89.2072 78.7029 86.7432 69.6409 84.9162 62.7289C84.6862 61.8569 82.8542 62.9479 82.6792 64.0639C81.5902 71.0179 78.1022 85.6489 76.4952 86.5769C73.0632 88.5579 69.1922 45.1519 67.2812 41.2669C66.9032 40.4979 65.4742 41.3889 65.0492 42.6029C63.7572 46.2879 60.5382 85.8339 56.4652 88.1849C53.6462 89.8129 51.0552 73.7329 49.6502 69.6309C49.3592 68.7829 47.6382 69.8059 47.4182 70.9669C44.9142 84.1799 42.8592 108.585 40.0372 109.699C38.3782 111.083 36.8442 98.5499 36.5702 96.7358C35.3852 88.8898 34.1822 74.7969 32.0192 71.5449C31.5612 70.8559 30.2122 71.6669 29.7872 72.8809C28.4952 76.5659 28.0252 84.2369 25.0002 106.491C24.1282 112.903 23.7722 117.768 22.1072 120.401V153.161L110.562 102.091V77.6599C108.905 79.0439 104.706 34.0539 102.539 30.8179Z" fill="#7ADEFF"/>
<path d="M22.1082 53.6159V53.9249L110.563 2.85487V2.54688L22.1082 53.6159Z" fill="#FFFFF7"/>
<path d="M22.1082 62.2459L110.563 11.1769V10.8679L22.1082 61.9379V62.2459Z" fill="#FFFFF7"/>
<path d="M22.1082 144.654V144.963L110.563 93.893V93.585L22.1082 144.654Z" fill="#FFFFF7"/>
<path d="M22.1082 153.284L110.563 102.215V101.906L22.1082 152.976V153.284Z" fill="#FFFFF7"/>
<path d="M22.1082 70.5679L110.563 19.4979V19.1899L22.1082 70.2589V70.5679Z" fill="#FFFFF7"/>
<path d="M22.1082 78.889L110.563 27.82V27.511L22.1082 78.581V78.889Z" fill="#FFFFF7"/>
<path d="M22.1082 87.2108L110.563 36.1408V35.8328L22.1082 86.9028V87.2108Z" fill="#FFFFF7"/>
<path d="M22.1082 95.5318L110.563 44.4628V44.1548L22.1082 95.2238V95.5318Z" fill="#FFFFF7"/>
<path d="M22.1082 103.854L110.563 52.7838V52.4758L22.1082 103.546V103.854Z" fill="#FFFFF7"/>
<path d="M22.1082 112.175L110.563 61.1059V60.7979L22.1082 111.867V112.175Z" fill="#FFFFF7"/>
<path d="M22.1082 120.497L110.563 69.4269V69.1189L22.1082 120.189V120.497Z" fill="#FFFFF7"/>
<path d="M22.1082 128.819L110.563 77.7489V77.4409L22.1082 128.511V128.819Z" fill="#FFFFF7"/>
<path d="M22.1082 137.14L110.563 86.071V85.762L22.1082 136.832V137.14Z" fill="#FFFFF7"/>
<path d="M70.4832 50.8547C70.4832 51.4827 69.9742 52.2847 69.3462 52.6477C68.7182 53.0097 68.2102 52.7947 68.2102 52.1677C68.2102 51.5397 68.7192 50.7377 69.3462 50.3747C69.9742 50.0117 70.4832 50.2267 70.4832 50.8547Z" fill="#FFFFF7"/>
<path d="M48.2862 72.0967C48.2862 72.7247 47.7772 73.5267 47.1502 73.8897C46.5222 74.2517 46.0132 74.0367 46.0132 73.4097C46.0132 72.7817 46.5222 71.9797 47.1502 71.6167C47.7772 71.2537 48.2862 71.4687 48.2862 72.0967Z" fill="#FFFFF7"/>
<path d="M33.6463 72.1228C33.6463 72.7508 33.1373 73.5528 32.5103 73.9158C31.8823 74.2778 31.3743 74.0628 31.3743 73.4358C31.3743 72.8078 31.8833 72.0058 32.5103 71.6428C33.1373 71.2798 33.6463 71.4948 33.6463 72.1228Z" fill="#FFFFF7"/>
<path d="M87.0743 66.3457C87.0743 66.9737 86.5653 67.7757 85.9373 68.1387C85.3093 68.5007 84.8013 68.2857 84.8013 67.6587C84.8013 67.0307 85.3103 66.2287 85.9373 65.8657C86.5643 65.5027 87.0743 65.7177 87.0743 66.3457Z" fill="#FFFFF7"/>
<path d="M104.093 31.4497C104.093 32.0777 103.584 32.8797 102.957 33.2427C102.329 33.6047 101.82 33.3898 101.82 32.7628C101.82 32.1348 102.329 31.3328 102.957 30.9698C103.584 30.6078 104.093 30.8227 104.093 31.4497Z" fill="#FFFFF7"/>
<path d="M118.739 175.763L110.232 180.674L108.401 179.618L116.909 174.706L118.739 175.763Z" fill="#FFFFF7"/>
<path d="M126.734 171.147L121.199 174.342L119.369 173.286L124.904 170.09L126.734 171.147Z" fill="#FFFFF7"/>
<path d="M140.673 163.099L129.194 169.727L127.364 168.67L138.843 162.042L140.673 163.099Z" fill="#FFFFF7"/>
<path d="M156.253 154.104L143.133 161.678L141.303 160.622L154.423 153.047L156.253 154.104Z" fill="#FFFFF7"/>
<path d="M156.883 151.627L158.713 152.683L171.833 145.109L170.002 144.052L156.883 151.627Z" fill="#FFFFF7"/>
<path d="M179.759 140.532L174.293 143.688L172.462 142.632L177.929 139.475L179.759 140.532Z" fill="#FFFFF7"/>
<path d="M195.51 131.438L182.219 139.112L180.389 138.055L193.679 130.382L195.51 131.438Z" fill="#FFFFF7"/>
<path d="M128.423 175.91L115.201 183.544L113.371 182.487L126.593 174.853L128.423 175.91Z" fill="#FFFFF7"/>
<path d="M136.418 171.294L130.883 174.489L129.053 173.433L134.588 170.237L136.418 171.294Z" fill="#FFFFF7"/>
<path d="M145.643 165.968L138.878 169.873L137.048 168.817L143.812 164.911L145.643 165.968Z" fill="#FFFFF7"/>
<path d="M155.619 160.208L148.103 164.547L146.272 163.491L153.789 159.151L155.619 160.208Z" fill="#FFFFF7"/>
<path d="M156.249 157.731L158.079 158.787L170.174 151.804L168.344 150.748L156.249 157.731Z" fill="#FFFFF7"/>
<path d="M180.765 145.689L172.634 150.384L170.803 149.328L178.935 144.633L180.765 145.689Z" fill="#FFFFF7"/>
<path d="M200.479 134.307L183.225 144.269L181.395 143.212L198.649 133.251L200.479 134.307Z" fill="#FFFFF7"/>
<path d="M128.677 181.501L120.17 186.412L118.34 185.356L126.847 180.444L128.677 181.501Z" fill="#FFFFF7"/>
<path d="M136.672 176.885L131.137 180.08L129.307 179.024L134.842 175.828L136.672 176.885Z" fill="#FFFFF7"/>
<path d="M150.612 168.837L139.132 175.465L137.302 174.408L148.782 167.78L150.612 168.837Z" fill="#FFFFF7"/>
<path d="M166.192 159.842L153.072 167.416L151.242 166.36L164.361 158.785L166.192 159.842Z" fill="#FFFFF7"/>
<path d="M166.821 157.365L168.651 158.421L181.771 150.847L179.941 149.79L166.821 157.365Z" fill="#FFFFF7"/>
<path d="M189.698 146.27L184.231 149.426L182.401 148.37L187.867 145.213L189.698 146.27Z" fill="#FFFFF7"/>
<path d="M205.448 137.177L192.158 144.85L190.327 143.793L203.618 136.12L205.448 137.177Z" fill="#FFFFF7"/>
<path d="M138.362 181.648L125.139 189.282L123.309 188.225L136.531 180.591L138.362 181.648Z" fill="#FFFFF7"/>
<path d="M146.356 177.032L140.821 180.227L138.991 179.171L144.526 175.975L146.356 177.032Z" fill="#FFFFF7"/>
<path d="M155.581 171.706L148.816 175.611L146.986 174.555L153.751 170.649L155.581 171.706Z" fill="#FFFFF7"/>
<path d="M165.558 165.946L158.041 170.285L156.211 169.229L163.727 164.889L165.558 165.946Z" fill="#FFFFF7"/>
<path d="M166.187 163.469L168.017 164.526L180.112 157.542L178.282 156.486L166.187 163.469Z" fill="#FFFFF7"/>
<path d="M190.704 151.427L182.572 156.122L180.742 155.066L188.873 150.371L190.704 151.427Z" fill="#FFFFF7"/>
<path d="M210.417 140.046L193.164 150.007L191.333 148.95L208.587 138.989L210.417 140.046Z" fill="#FFFFF7"/>
<path d="M57.4051 140.351L48.8981 145.263L47.0671 144.206L55.5751 139.294L57.4051 140.351Z" fill="#FFFFF7"/>
<path d="M65.4002 135.735L59.8652 138.931L58.0352 137.874L63.5702 134.678L65.4002 135.735Z" fill="#FFFFF7"/>
<path d="M79.339 127.687L67.86 134.315L66.03 133.258L77.509 126.63L79.339 127.687Z" fill="#FFFFF7"/>
<path d="M94.9192 118.692L81.7992 126.267L79.9692 125.21L93.0892 117.635L94.9192 118.692Z" fill="#FFFFF7"/>
<path d="M95.5491 116.215L97.3791 117.272L110.499 109.697L108.668 108.64L95.5491 116.215Z" fill="#FFFFF7"/>
<path d="M118.425 105.121L112.959 108.277L111.128 107.22L116.595 104.064L118.425 105.121Z" fill="#FFFFF7"/>
<path d="M134.176 96.027L120.885 103.7L119.055 102.643L132.345 94.97L134.176 96.027Z" fill="#FFFFF7"/>
<path d="M67.0891 140.498L53.8671 148.132L52.0371 147.075L65.2591 139.441L67.0891 140.498Z" fill="#FFFFF7"/>
<path d="M75.0842 135.882L69.5492 139.078L67.7192 138.021L73.2542 134.825L75.0842 135.882Z" fill="#FFFFF7"/>
<path d="M84.3091 130.556L77.5441 134.462L75.7141 133.405L82.4781 129.499L84.3091 130.556Z" fill="#FFFFF7"/>
<path d="M94.2852 124.796L86.7692 129.136L84.9382 128.079L92.4552 123.739L94.2852 124.796Z" fill="#FFFFF7"/>
<path d="M94.915 122.319L96.745 123.376L108.84 116.393L107.01 115.336L94.915 122.319Z" fill="#FFFFF7"/>
<path d="M119.431 110.278L111.3 114.973L109.47 113.916L117.601 109.221L119.431 110.278Z" fill="#FFFFF7"/>
<path d="M139.145 98.8959L121.891 108.857L120.061 107.801L137.315 97.8389L139.145 98.8959Z" fill="#FFFFF7"/>
<path d="M100.081 152.75L73.4421 150.314C74.3741 146.916 76.7961 144.172 81.0101 141.739L100.081 152.75Z" fill="#817DEC"/>
<path d="M100.081 152.75L87.8361 166.624C77.2181 163.501 71.5781 157.109 73.4421 150.314L100.081 152.75Z" fill="#FFFFF7"/>
<path d="M100.081 152.75L119.152 163.761C110.726 168.626 98.4542 169.748 87.8362 166.625L100.081 152.75Z" fill="#7ADEFF"/>
<path d="M100.081 152.75L126.72 150.314C128.118 155.41 125.472 160.112 119.152 163.761L100.081 152.75Z" fill="#6666C4"/>
<path d="M100.081 152.75L112.325 138.875C120.288 141.218 125.321 145.217 126.719 150.314L100.081 152.75Z" fill="#6666C4"/>
<path d="M100.081 152.75L81.01 141.739C89.436 136.874 101.708 135.752 112.326 138.875L100.081 152.75Z" fill="#151515"/>
<path d="M147.029 125.604L156.1 140.353C150.457 141.51 145.096 141.594 139.352 140.615L147.029 125.604Z" fill="#817DEC"/>
<path d="M147.029 125.604L173.028 130.036C170.484 135.01 164.566 138.617 156.101 140.353L147.029 125.604Z" fill="#FFFFF7"/>
<path d="M147.029 125.604L139.353 140.615C124.994 138.167 116.791 129.463 121.031 121.172C125.271 112.881 140.347 108.146 154.706 110.593C160.449 111.572 164.872 113.324 168.522 116.065L147.029 125.604Z" fill="#151515"/>
<path d="M147.029 125.604L168.521 116.065C173.996 120.177 175.572 125.062 173.028 130.036L147.029 125.604Z" fill="#7ADEFF"/>
<path d="M216.392 117.183V177.478C216.369 178.95 217.33 180.427 219.276 181.55C223.121 183.77 229.356 183.77 233.201 181.55C235.101 180.453 236.062 179.02 236.085 177.583V117.288L216.392 117.183Z" fill="#151515"/>
<path d="M233.155 113.143C231.618 112.255 229.884 111.746 227.742 111.548C223.459 111.156 219.435 112.345 217.481 114.582C215.524 116.82 216.247 119.406 219.321 121.182C221.629 122.514 224.594 123.073 227.806 122.777C231.015 122.482 233.529 121.422 234.996 119.743C236.953 117.506 236.231 114.919 233.155 113.143Z" fill="#817DEC"/>
<path d="M198.464 136.039V187.83C198.441 189.302 199.402 190.779 201.348 191.902C205.193 194.122 211.428 194.122 215.273 191.902C217.173 190.805 218.134 189.372 218.157 187.935V136.144L198.464 136.039Z" fill="#151515"/>
<path d="M215.226 131.999C213.689 131.111 211.955 130.602 209.813 130.404C205.53 130.012 201.506 131.2 199.552 133.438C197.595 135.676 198.318 138.262 201.392 140.038C203.699 141.37 206.665 141.929 209.877 141.633C213.086 141.338 215.6 140.278 217.067 138.599C219.025 136.362 218.302 133.775 215.226 131.999Z" fill="#817DEC"/>
<path d="M180.535 154.611V198.181C180.512 199.653 181.473 201.13 183.419 202.253C187.264 204.473 193.499 204.473 197.344 202.253C199.244 201.156 200.205 199.723 200.228 198.286V154.716L180.535 154.611Z" fill="#6666C4"/>
<path d="M197.298 150.571C195.761 149.683 194.027 149.174 191.885 148.976C187.602 148.584 183.578 149.773 181.624 152.01C179.667 154.248 180.39 156.835 183.464 158.61C185.772 159.942 188.737 160.501 191.949 160.206C195.158 159.911 197.672 158.851 199.139 157.172C201.096 154.934 200.374 152.347 197.298 150.571Z" fill="#7ADEFF"/>
<path d="M162.327 176.151V208.693C162.304 210.165 163.265 211.642 165.211 212.765C169.056 214.985 175.291 214.985 179.136 212.765C181.036 211.668 181.997 210.235 182.02 208.798V176.256L162.327 176.151Z" fill="#6666C4"/>
<path d="M179.09 172.111C177.553 171.223 175.819 170.714 173.677 170.516C169.394 170.124 165.37 171.313 163.416 173.55C161.459 175.788 162.182 178.375 165.256 180.15C167.563 181.482 170.529 182.041 173.741 181.745C176.95 181.45 179.464 180.39 180.931 178.711C182.889 176.474 182.166 173.887 179.09 172.111Z" fill="#7ADEFF"/>
<path d="M144.12 196.475V219.205C144.097 220.677 145.058 222.154 147.004 223.277C150.849 225.497 157.084 225.497 160.929 223.277C162.829 222.18 163.79 220.747 163.813 219.31V196.58L144.12 196.475Z" fill="#E4DED2"/>
<path d="M160.882 192.435C159.345 191.547 157.611 191.038 155.469 190.84C151.186 190.448 147.162 191.637 145.208 193.874C143.251 196.112 143.974 198.698 147.048 200.474C149.355 201.806 152.321 202.365 155.533 202.069C158.742 201.774 161.256 200.714 162.723 199.035C164.681 196.798 163.959 194.211 160.882 192.435Z" fill="#FFFFF7"/>
<path opacity="0.6" d="M87.3813 224.882C86.8703 224.449 86.1633 224.358 85.5003 224.262C82.4913 223.825 78.9643 223.043 76.9613 221.151C74.8793 220.546 72.9213 219.255 71.3483 217.62C69.3353 215.53 67.2543 212.107 67.4413 208.978C67.4623 208.622 60.3653 208.063 59.7393 207.974C58.8153 207.844 54.4303 207.678 53.1673 207.76C52.2723 207.818 48.2093 207.538 43.8983 207.637L46.1623 196.004C45.4663 196.004 43.1973 196.004 36.6883 196.004C24.4183 196.004 11.9883 212.088 22.7313 212.088C26.6133 212.088 29.7533 212.088 32.3023 212.088C32.5563 213.253 33.6193 214.711 35.7953 216.539C43.1253 222.696 55.4463 222.461 55.4463 222.461C55.4463 222.461 71.6043 230.849 74.9103 233.187C76.2243 234.117 79.6723 235.082 80.8443 233.187C81.4103 232.273 80.6203 230.868 80.1773 229.888L83.3623 229.496C84.6573 229.337 86.9783 229.144 87.9753 228.302C88.9723 227.459 88.3763 225.726 87.3813 224.882Z" fill="#3D3D3D"/>
<path opacity="0.6" d="M192.676 274.193C200.986 274.193 201.824 274.193 201.824 274.193L203.234 266.945C202.92 266.945 201.898 266.945 198.965 266.945C193.437 266.945 187.835 274.193 192.676 274.193Z" fill="#151515"/>
<path opacity="0.6" d="M293.04 236.044C306.12 236.044 307.44 236.044 307.44 236.044L309.66 224.635C309.166 224.635 307.557 224.635 302.94 224.635C294.237 224.636 285.42 236.044 293.04 236.044Z" fill="#151515"/>
<path d="M39.4751 21.7759L37.0791 23.1599V24.1909L39.4751 22.8069V21.7759Z" fill="#FFFFF7"/>
<path d="M43.9781 19.177L40.8601 20.977V22.007L43.9781 20.207V19.177Z" fill="#FFFFF7"/>
<path d="M53.927 14.4629V13.4319L45.364 18.3759V19.4069L53.927 14.4629Z" fill="#FFFFF7"/>
<path d="M42.1301 23.042L37.0791 25.959V26.99L42.1301 24.073V23.042Z" fill="#FFFFF7"/>
<path d="M43.5161 23.2729L46.6341 21.4729V20.4419L43.5161 22.2419V23.2729Z" fill="#FFFFF7"/>
<path d="M50.666 19.1448V18.1138L48.019 19.6418V20.6728L50.666 19.1448Z" fill="#FFFFF7"/>
<path d="M52.052 18.345L53.822 17.323V16.292L52.052 17.314V18.345Z" fill="#FFFFF7"/>
<path d="M39.4751 27.3738L37.0791 28.7578V29.7888L39.4751 28.4048V27.3738Z" fill="#FFFFF7"/>
<path d="M40.8601 27.6049L43.9781 25.8049V24.7739L40.8601 26.5739V27.6049Z" fill="#FFFFF7"/>
<path d="M45.364 25.0048L52.052 21.1438V20.1128L45.364 23.9748V25.0048Z" fill="#FFFFF7"/>
<path d="M42.1301 28.6399L37.0791 31.5569V32.5869L42.1301 29.6709V28.6399Z" fill="#FFFFF7"/>
<path d="M46.6341 26.0398L43.5161 27.8398V28.8708L46.6341 27.0708V26.0398Z" fill="#FFFFF7"/>
<path d="M48.019 25.2399V26.2709L50.666 24.7429V23.7119L48.019 25.2399Z" fill="#FFFFF7"/>
<path d="M39.4751 32.9719L37.0791 34.3559V35.3859L39.4751 34.0029V32.9719Z" fill="#FFFFF7"/>
<path d="M40.8601 33.2028L43.9781 31.4028V30.3728L40.8601 32.1718V33.2028Z" fill="#FFFFF7"/>
<path d="M51.471 27.0769V26.0459L45.364 29.5719V30.6029L51.471 27.0769Z" fill="#FFFFF7"/>
<path d="M230.489 132.01C230.405 132.01 230.323 131.966 230.277 131.888C230.21 131.771 230.25 131.621 230.367 131.554L268.155 109.738C268.268 109.67 268.42 109.709 268.489 109.827C268.556 109.944 268.516 110.093 268.399 110.16L230.611 131.977C230.572 131.999 230.53 132.01 230.489 132.01Z" fill="#FFFFF7"/>
<path d="M229.444 132.369C229.444 133.035 229.912 133.306 230.489 132.972C231.066 132.639 231.534 131.828 231.534 131.162C231.534 130.496 231.066 130.225 230.489 130.559C229.912 130.892 229.444 131.702 229.444 132.369Z" fill="#FFFFF7"/>
<path d="M20.7212 44.923L22.7342 43.76V15.751L20.7212 16.914V44.923Z" fill="#5D5DBF"/>
<path d="M22.7341 43.76L24.7471 42.598V20.697L22.7341 21.859V43.76Z" fill="#5D5DBF"/>
<path d="M24.7471 42.5979L26.7601 41.4359V21.6809L24.7471 22.8429V42.5979Z" fill="#FFFFF7"/>
<path d="M26.7603 41.4359L28.7733 40.2739V29.6599L26.7603 30.8219V41.4359Z" fill="#FFFFF7"/>
<path d="M28.7732 40.2741L30.7862 39.1121V24.1001L28.7732 25.2631V40.2741Z" fill="#FFFFF7"/>
<path d="M30.7861 39.112L32.7991 37.949V30.26L30.7861 31.422V39.112Z" fill="#FFFFF7"/>
<path d="M32.7993 37.9489L34.8113 36.7869V35.3569L32.7993 36.5189V37.9489Z" fill="#FFFFF7"/>
<path d="M250.067 71.0588C250.067 71.7248 250.535 71.9958 251.112 71.6618C251.689 71.3288 252.157 70.5188 252.157 69.8518C252.157 69.1858 251.689 68.9158 251.112 69.2488C250.535 69.5828 250.067 70.3928 250.067 71.0588Z" fill="#FFFFF7"/>
<path d="M207.49 74.133C207.406 74.133 207.324 74.09 207.278 74.011C207.211 73.894 207.251 73.745 207.368 73.678L250.989 48.493C251.065 48.449 251.157 48.449 251.233 48.493C251.309 48.537 251.355 48.617 251.355 48.704V70.456C251.355 70.591 251.246 70.7 251.111 70.7C250.976 70.7 250.867 70.591 250.867 70.456V49.127L207.612 74.1C207.574 74.123 207.532 74.133 207.49 74.133Z" fill="#FFFFF7"/>
<path d="M232.822 51.6599L235.218 50.2759V51.3069L232.822 52.6899V51.6599Z" fill="#FFFFF7"/>
<path d="M228.319 54.259L231.437 52.46V53.49L228.319 55.29V54.259Z" fill="#FFFFF7"/>
<path d="M219.998 60.0938V59.0629L226.933 55.0588V56.0898L219.998 60.0938Z" fill="#FFFFF7"/>
<path d="M230.166 55.9919L235.218 53.075V54.106L230.166 57.0229V55.9919Z" fill="#FFFFF7"/>
<path d="M228.781 57.823L225.663 59.623V58.592L228.781 56.792V57.823Z" fill="#FFFFF7"/>
<path d="M221.63 61.9509V60.9198L224.278 59.3918V60.4229L221.63 61.9509Z" fill="#FFFFF7"/>
<path d="M237.129 53.0668L239.142 51.9048V49.6948L237.129 50.8568V53.0668Z" fill="#5D5DBF"/>
<path d="M239.142 51.9049L241.155 50.7419V42.2639L239.142 43.4269V51.9049Z" fill="#5D5DBF"/>
<path d="M241.155 50.742L243.168 49.58V39.75L241.155 40.912V50.742Z" fill="#FFFFF7"/>
<path d="M243.168 49.5799L245.181 48.4179V33.8169L243.168 34.9799V49.5799Z" fill="#FFFFF7"/>
<path d="M245.181 48.4178L247.194 47.2558V34.7678L245.181 35.9298V48.4178Z" fill="#FFFFF7"/>
<path d="M247.194 47.2558L249.207 46.0938V38.4038L247.194 39.5658V47.2558Z" fill="#FFFFF7"/>
<path d="M249.208 46.0938L251.221 44.9318V34.7678L249.208 35.9298V46.0938Z" fill="#FFFFF7"/>
<path d="M54.1862 192.343L40.8522 192.272L28.5552 192.207V202.86C28.4772 207.815 34.6092 210.801 39.9252 211.705C39.9262 211.728 40.8522 211.867 40.8522 211.867C45.4102 212.458 50.3262 211.908 54.1862 210.168C55.0942 209.766 55.9072 209.325 56.7312 208.745C59.0862 207.085 60.2802 205.059 60.3122 203.029V192.376L54.1862 192.343Z" fill="#656565"/>
<path d="M55.6302 185.694C47.0942 180.765 32.5282 182.92 29.1572 189.609C28.1722 191.56 28.2692 193.382 29.4552 195.301C30.2972 196.66 31.5612 197.825 33.1952 198.768C35.0192 199.821 37.3042 200.597 39.9732 201.053C45.0332 201.918 49.9962 201.382 54.1622 199.521C56.9432 198.281 58.7132 196.778 59.6982 194.827C61.3882 191.473 59.6312 188.004 55.6302 185.694Z" fill="#7ADEFF"/>
<path d="M315.353 222.039L305.895 221.989L297.172 221.942V229.499C297.116 233.013 301.466 235.132 305.238 235.773C305.238 235.79 305.895 235.888 305.895 235.888C309.128 236.307 312.615 235.917 315.353 234.683C315.997 234.398 316.574 234.085 317.158 233.673C318.828 232.495 319.675 231.059 319.698 229.618V222.062L315.353 222.039Z" fill="#656565"/>
<path d="M316.377 217.323C310.322 213.827 299.99 215.355 297.599 220.1C296.9 221.484 296.969 222.776 297.81 224.137C298.407 225.101 299.304 225.928 300.463 226.597C301.757 227.344 303.377 227.894 305.271 228.218C308.86 228.832 312.381 228.452 315.336 227.131C317.309 226.252 318.564 225.185 319.263 223.801C320.461 221.422 319.215 218.961 316.377 217.323Z" fill="#7ADEFF"/>
<path opacity="0.6" d="M277.637 265.143C273.509 265.534 257.925 265.5 251.915 264.498C238.717 262.297 224.466 250.353 238.438 247.604C247.777 245.766 266.203 245.848 266.203 245.848L266.028 247.604C265.872 247.91 262.162 249.922 260.902 252.527C260.164 254.053 265.534 257.389 268.634 257.389C269.428 257.389 277.043 257.552 277.043 257.552C277.043 257.552 278.052 265.103 277.637 265.143Z" fill="#3D3D3D"/>
<path d="M245.903 199.645C251.747 196.92 256.365 195.377 256.365 195.377C256.365 195.377 258.472 189.069 259.993 185.707C260.677 186.36 264.158 190.112 264.206 190.136C262.91 193.74 260.958 197.046 259.998 198.564C259.626 199.152 259.071 199.597 258.409 199.811C255.261 200.826 247.676 202.595 246.27 202.957C244.383 203.443 244.194 200.442 245.903 199.645Z" fill="#FCBE9F"/>
<path d="M255.797 192.504C255.603 193.408 263.02 196.692 263.661 194.731C264.695 191.563 267.514 182.369 262.29 182.16C259.295 182.04 256.423 189.591 255.797 192.504Z" fill="#FFF8EF"/>
<path d="M256.952 249.934C257.599 249.287 258.828 248.424 260.103 247.632C260.909 247.666 261.922 247.532 262.772 247.431C264.508 247.226 266.532 246.867 267.966 245.765C268.02 246.094 268.044 246.446 268.044 246.792C268.044 247.486 268.092 247.856 267.325 248.399C263.465 251.134 262.917 251.493 262.212 251.904C261.414 252.369 260.356 253.039 258.144 252.568C256.832 252.154 256.744 251.635 256.767 251.232C256.779 251.018 256.691 250.195 256.952 249.934Z" fill="#E4DED2"/>
<path d="M257.142 249.459C257.812 248.837 259.818 247.273 260.9 246.341C261.479 245.843 261.958 245.405 262.264 244.705C262.286 244.654 262.306 244.605 262.321 244.562C262.714 243.453 265.757 243.021 267.182 243.644C267.851 243.937 268.044 245.038 268.044 246.072C268.044 246.766 268.008 247.052 267.241 247.595C263.381 250.33 262.339 250.928 261.613 251.302C260.914 251.663 260.18 252.006 258.581 251.771C258.038 251.691 257.509 251.469 257.112 251.09C256.763 250.756 256.571 249.989 257.142 249.459Z" fill="#FFFBF3"/>
<path d="M279.684 266.529C278.163 267.725 274.575 268.084 273.716 266.035C273.316 265.082 274.893 258.854 275.051 257.049C275.096 256.533 275.174 255.626 275.174 255.626C275.319 255.455 275.859 255.351 276.065 255.265C276.948 254.899 278.495 255.351 279.451 255.351C279.938 255.351 280.175 258.62 280.197 258.945C280.334 260.929 280.868 265.598 279.684 266.529Z" fill="#E4DED2"/>
<path d="M279.767 265.459C278.246 266.655 274.658 267.014 273.799 264.965C273.4 264.012 274.838 257.791 274.996 255.986C275.041 255.47 275.119 254.563 275.119 254.563C275.264 254.392 275.942 254.281 276.149 254.195C277.032 253.829 278.579 254.281 279.535 254.281C280.022 254.281 280.259 257.55 280.282 257.875C280.417 259.859 280.951 264.527 279.767 265.459Z" fill="#FFFBF3"/>
<path d="M274.39 209.401C278.205 211.059 276.971 224.14 276.964 229.833C276.963 230.912 276.965 231.993 277.08 233.066C277.282 234.948 277.829 236.771 278.507 238.532C279.796 241.884 280.536 251.706 280.437 255.285C280.288 257.471 274.443 256.994 274.473 255.742C273.126 246.879 271.976 245.322 270.84 240.228C270.646 239.359 270.503 238.478 270.241 237.627C269.999 236.839 269.658 236.084 269.409 235.298C268.907 233.714 268.697 232.246 268.454 230.602C267.935 227.088 267.749 224.687 267.565 221.722L267.082 230.918C267.35 232.02 267.593 233.592 267.769 234.713C268.088 236.745 267.712 239.153 267.817 241.207C267.902 242.872 268.114 244.24 268.096 244.49C267.999 245.85 262.722 246.765 261.862 244.907C261.516 240.234 261.172 239.428 260.319 234.153C260.174 233.256 259.984 231.78 259.954 230.872C259.904 229.336 259.129 227.948 258.848 226.451C258.052 222.202 257.694 208.692 259.874 208.147C263.502 207.241 271.076 207.961 274.39 209.401Z" fill="#333372"/>
<path d="M258.659 210.262C258.997 206.178 260.129 202.464 259.699 196.32C259.445 192.678 257.626 185.553 260.728 183.134C262.835 181.491 264.352 182.443 266.441 182.832C271.738 183.818 276.001 185.842 276.78 187.219C278.557 190.36 276.496 196.857 275.587 204.267C275.5 204.976 275.489 205.69 275.539 206.403C275.635 207.765 275.851 210.113 276.297 212.121C276.972 215.158 258.2 215.822 258.659 210.262Z" fill="#FFF8EF"/>
<path d="M264.27 182.13C266.526 181.849 268.897 180.833 270.872 179.953C270.152 181.494 270.372 183.493 270.401 184.394C270.44 185.579 269.037 187.098 266.972 187.098C264.505 187.098 263.695 186.104 263.968 184.911C264.177 184.001 264.231 183.067 264.27 182.13Z" fill="#F1A782"/>
<path d="M253.018 205.182C253.277 205.118 253.646 205.135 253.797 205.123C254.341 205.079 258.23 204.853 257.953 204.577C257.396 204.439 256.326 204.055 256.168 203.445C256.132 203.306 256.125 203.135 256.235 203.042C256.37 202.928 256.573 203.009 256.735 203.081C257.969 203.622 259.456 203.264 260.687 203.812C261.043 203.971 261.339 204.111 261.658 204.175C264.815 203.451 272.152 201.991 272.152 201.991C272.152 201.991 272.071 192.054 272.442 189.36C272.942 185.729 275.944 186.106 276.428 186.77C279.891 191.522 277.688 201.558 277.017 204.077C276.346 206.596 263.43 207.137 261.801 207.403C261.559 207.442 261.247 207.701 261.018 207.808C260.78 207.919 260.537 208.021 260.287 208.104C259.883 208.238 258.107 208.502 257.77 208.331C256.976 207.926 256.07 206.118 256.07 206.118C255.864 206.032 253.671 205.991 253.307 205.894C253.117 205.843 252.914 205.772 252.81 205.605C252.654 205.355 252.794 205.238 253.018 205.182Z" fill="#FCBE9F"/>
<path d="M252.151 208.244L246.27 198.792C246.178 198.643 245.987 198.449 245.781 198.284C245.674 198.198 245.563 198.12 245.459 198.06L237.229 193.309C237.036 193.202 236.923 193.179 236.888 193.221L236.666 193.486C236.702 193.443 236.815 193.466 236.985 193.561C237.008 193.574 245.237 198.325 245.237 198.325C245.341 198.385 245.452 198.463 245.559 198.549C245.765 198.714 245.955 198.909 246.048 199.057L251.929 208.509C251.985 208.599 251.997 208.66 251.973 208.689L252.195 208.424C252.219 208.395 252.207 208.334 252.151 208.244Z" fill="#FFF8EF"/>
<path d="M237.007 193.574L245.236 198.325C245.54 198.5 245.906 198.832 246.047 199.058L251.928 208.51C252.069 208.736 251.934 208.778 251.63 208.602L243.4 203.851C243.096 203.676 242.73 203.345 242.589 203.119L236.708 193.667C236.569 193.441 236.704 193.399 237.007 193.574Z" fill="#EEE8DE"/>
<path d="M240.191 201.383C240.466 202.304 241.061 203.126 241.851 203.675C242.641 204.223 243.619 204.494 244.578 204.43C244.619 204.427 244.663 204.423 244.696 204.398C244.738 204.367 244.753 204.311 244.761 204.259C244.811 203.928 244.701 203.596 244.575 203.286C244.194 202.353 243.644 201.48 242.91 200.79C242.305 200.221 241.573 199.779 240.773 199.548C240.634 199.508 240.363 199.388 240.235 199.474C240.119 199.551 240.086 199.927 240.068 200.052C240.004 200.496 240.063 200.955 240.191 201.383Z" fill="#FCBE9F"/>
<path d="M271.253 198.183C271.404 199.095 279.509 199.43 279.385 197.371C279.185 194.044 278.437 184.458 273.499 186.179C270.67 187.165 270.767 195.243 271.253 198.183Z" fill="#FFF8EF"/>
<path d="M261.511 177.276C261.491 176.517 261.592 175.693 262.231 175.269C263.221 174.611 265.507 173.446 269.468 175.604C270.04 175.915 270.404 176.504 270.794 177.025C271.241 177.623 271.248 177.979 271.177 178.663C271.042 179.95 271.241 180.496 269.41 182.595C267.871 184.359 265.677 185.763 265.185 186.02C264.552 186.35 263.923 186.43 263.301 186.256C262.72 186.094 262.129 185.52 261.97 184.139C261.849 183.083 261.585 180.08 261.511 177.276Z" fill="#FCBE9F"/>
<path d="M268.591 179.61C268.392 179.99 267.598 180.128 267.382 179.237C267.119 178.152 266.092 177.911 265.31 177.881C264.041 177.833 262.915 177.591 261.997 177.076C261.808 176.97 261.66 176.845 261.527 176.675C261.527 176.675 261.082 176.182 261.476 174.987C261.684 174.355 262.644 171.882 265.286 171.234C266.534 170.928 267.877 171.011 269.097 171.415C273.762 172.957 272.295 178.812 271.669 179.889C271.224 180.656 270.357 181.719 269.83 182.112C270.103 181.242 271.157 179.475 270.233 178.878C269.883 178.652 269.454 178.646 269.116 178.893C268.852 179.084 268.741 179.325 268.591 179.61Z" fill="#333372"/>
<path d="M70.544 225.754C70.364 225.985 70.07 227.142 70.433 227.491C71.299 228.408 71.762 228.71 72.73 229.764C73.39 230.483 74.304 231.89 75.141 232.436C75.986 232.988 77.39 233.894 78.4 234.068C79.726 234.296 80.85 233.985 81.299 232.621C81.567 231.807 81.023 231.014 80.959 230.94C80.404 230.3 77.779 229.494 76.557 228.488C75.263 227.423 73.94 226.402 72.715 225.295C72.166 224.8 70.624 225.588 70.544 225.754Z" fill="#EEE8DE"/>
<path d="M70.868 226.493C70.273 225.644 70.979 225.01 71.299 224.251C71.487 223.805 71.625 223.046 72.092 222.795C72.735 222.449 73.775 223.107 74.387 223.304C74.847 223.452 75.687 223.619 76.035 223.965C76.41 224.337 76.27 225.04 76.489 225.497C77.08 226.732 78.252 227.499 79.215 228.445C80.023 229.239 81.0221 230.246 81.3021 231.407C81.5351 232.371 80.639 233.262 79.65 233.183C78.067 233.056 76.426 232.032 75.294 230.965C74.534 230.249 73.861 229.453 73.168 228.673C72.467 227.881 71.487 227.375 70.868 226.493Z" fill="#44448B"/>
<path d="M78.7141 226.44C79.0651 227.06 79.7861 227.575 80.2791 227.65C83.1421 228.086 86.8441 228.383 88.4721 227.03C89.9201 225.826 90.6601 224.065 90.1231 223.078C89.9671 222.792 89.6541 222.546 89.3341 222.355C88.6751 221.962 87.8631 221.93 87.1521 222.216C86.3291 222.547 85.3141 223.03 84.3751 223.102C82.7911 223.223 81.3291 224.134 79.8401 224.616C79.1731 224.833 78.6151 226.296 78.7141 226.44Z" fill="#EEE8DE"/>
<path d="M79.94 227.14C78.483 226.717 78.736 226.241 78.186 225.817C77.454 225.253 76.713 224.622 76.642 224.172C76.613 223.987 76.641 223.789 76.673 223.612C76.775 223.048 77.148 222.63 77.527 222.211C78.095 221.581 78.668 221.192 79.487 220.931C80.043 220.754 80.213 221.227 81.171 221.472C82.297 221.76 87.031 221.407 88.989 222.179C89.613 222.425 89.83 223.219 89.631 223.86C89.393 224.629 88.888 225.537 88.325 226.118C86.536 227.964 80.481 227.297 79.94 227.14Z" fill="#44448B"/>
<path d="M81.5271 204.273C80.2291 203.136 65.1982 203.872 64.0562 204.959C63.5062 205.575 62.9821 210.882 62.4521 211.515C64.1851 213.057 63.2542 211.311 64.9762 212.852L74.6512 212.275C74.3332 212.826 72.6982 217.496 71.5562 223.25C71.1002 224.688 75.9812 226.592 76.7112 225.29C78.5272 221.828 84.4291 206.816 81.5271 204.273Z" fill="#333372"/>
<path d="M80.6471 221.125C79.4331 220.147 69.5132 212.041 68.5842 211.59C67.5522 211.088 62.9721 207.889 61.7421 207.868C62.1151 205.871 62.7502 202.287 62.2862 200.068C58.1442 200.166 52.4672 204.676 52.4672 204.676C52.0052 207.446 52.1351 209.34 52.6551 211.567C53.3841 214.691 56.0281 217.009 59.2211 217.322C62.1571 217.61 65.3201 218.262 65.3201 218.262C65.6331 218.241 71.7202 222.834 77.6702 225.477C78.8182 226.155 81.6211 221.94 80.6471 221.125Z" fill="#333372"/>
<path d="M63.456 182.176C63.431 182.705 63.457 183.24 63.515 183.767C63.843 186.768 64.799 191.891 65.889 194.706C67.804 194.982 69.345 194.485 70.017 192.191C69.407 188.912 69.003 184.093 67.795 181.111C66.365 181.523 64.915 181.864 63.456 182.176Z" fill="#FCBE9F"/>
<path d="M63.2392 189.974C63.2392 189.974 66.4082 191.712 70.2052 188.928C70.0912 186.103 68.2622 178.082 65.1132 178.759C61.0972 179.623 62.0402 184.639 63.2392 189.974Z" fill="#FFF8EF"/>
<path d="M67.9302 188.157C67.9122 187.206 68.3102 183.628 67.4372 181.141C66.9202 179.668 65.3392 178.848 63.8002 179.106C61.6112 179.471 60.0762 179.882 57.6212 181.353C56.2812 182.225 51.3812 185.56 51.2022 186.718C51.0782 187.524 50.6502 188.251 50.6992 189.065C50.8782 192.06 51.9772 198.509 52.1482 207.531C53.5512 209.781 59.0372 209.966 61.6962 209.321C65.6582 208.36 66.9942 206.719 67.2812 204.152C67.2872 204.093 67.9962 191.623 67.9302 188.157Z" fill="#FFF8EF"/>
<path d="M81.1481 199.713L80.8701 200.05L71.8911 206.092L70.6232 206.571C70.6232 206.571 65.0252 206.898 65.0042 206.85L65.1122 207.107C65.1322 207.156 65.2111 207.18 65.3481 207.172L70.7311 206.829C71.0711 206.807 71.6391 206.591 71.9991 206.35L80.9781 200.308C81.1911 200.164 81.2861 200.042 81.2561 199.971L81.1481 199.713Z" fill="#FFF8EF"/>
<path d="M80.9113 199.649L75.5283 199.992C75.1913 200.014 74.6203 200.23 74.2603 200.471L65.2813 206.513C64.9223 206.755 64.9033 206.936 65.2403 206.914L70.6233 206.571C70.9633 206.549 71.5323 206.333 71.8913 206.092L80.8703 200.05C81.2293 199.809 81.2513 199.627 80.9113 199.649Z" fill="#44448B"/>
<path d="M68.0282 206.999C67.5612 207.03 67.1022 206.863 66.7632 206.539C66.5312 206.317 66.3182 206.102 66.3452 206.084C66.5942 205.918 66.9392 205.853 67.2182 205.758C67.4052 205.694 68.6362 205.335 68.3322 204.955C68.2442 204.845 67.9931 204.899 67.8781 204.911C67.5851 204.943 67.2942 204.993 67.0002 205.014C66.6782 205.037 66.3612 205.092 66.0452 205.157C65.3512 205.3 64.3242 205.517 64.2072 205.569L57.6632 201.424C57.2012 201.132 56.9022 200.645 56.8582 200.101C56.5892 196.739 56.6422 188.365 55.8162 186.919C54.8162 185.167 49.9832 185.144 50.7102 189.82C51.2102 193.036 52.3652 199.222 53.2752 203.02C53.3932 203.511 53.7132 203.924 54.1602 204.158C56.1062 205.175 61.2831 207.513 63.5591 208.27C64.0571 208.525 64.7291 208.803 65.1731 208.979C65.4811 209.101 65.8242 209.084 66.1212 208.935C66.2882 208.851 66.4582 208.771 66.6392 208.728C66.8312 208.682 67.0322 208.679 67.2202 208.62C67.6492 208.485 67.8322 208.296 68.1252 207.981C68.2802 207.814 68.5512 207.7 68.7522 207.585C68.9602 207.466 69.3942 207.057 69.5802 206.895L68.0282 206.999Z" fill="#FCBE9F"/>
<path d="M78.6011 199.232C78.8521 199.021 78.8511 198.827 78.7861 198.636C78.7551 198.545 78.4951 197.261 77.8901 196.974C77.6821 196.875 74.5831 197.147 74.5831 197.147C74.5831 197.147 70.1291 192.501 70.0161 192.192L67.7781 194.199L67.7241 195.424C67.9771 195.558 73.2841 199.541 73.3391 199.571C73.6231 199.721 73.7651 200.207 73.8191 200.525C73.8851 200.906 73.7791 201.384 74.2141 201.355C74.4901 201.336 74.6741 201.072 74.7531 200.831C74.8831 200.433 74.7271 200.029 74.8211 199.629C74.8351 199.568 74.8541 199.508 74.8851 199.454C75.0531 199.162 75.3691 199.254 75.6321 199.32C75.7711 199.355 76.0721 199.381 76.1811 199.487C76.4491 199.747 76.5561 200.701 76.8471 200.905C76.9871 201.003 77.3231 200.993 77.3281 200.709C77.4281 200.989 77.5251 201.274 77.5331 201.287C77.7341 201.583 78.1681 201.376 78.2241 201.071C78.4461 201.157 78.7061 201.007 78.8151 200.795C78.9751 200.483 78.8661 200.201 78.8041 199.89C78.7661 199.696 78.6011 199.232 78.6011 199.232Z" fill="#FCBE9F"/>
<path d="M50.4571 195.648C50.4571 195.648 53.3201 197.855 57.5011 195.692C57.8251 192.884 57.2591 184.676 54.0421 184.858C49.9421 185.091 50.0971 190.192 50.4571 195.648Z" fill="#FFF8EF"/>
<path d="M63.2692 179.567C62.2382 179.622 60.2432 179.927 58.7702 180.822C57.0032 181.895 55.9702 182.578 56.3402 183.13C57.7632 185.249 60.2862 187.387 62.6882 186.284L62.7472 186.257C64.4612 185.464 65.3112 183.474 64.6282 181.713C64.2632 180.769 63.7732 180.33 63.2692 179.567Z" fill="#FCBE9F"/>
<path d="M59.9842 177.657L57.5852 182.438C57.5852 182.438 57.6082 183.106 58.5212 184.164C59.9292 185.796 61.2802 185.887 62.1162 185.719C62.6632 185.609 63.0922 185.187 63.2292 184.646L63.3642 184.115L59.9842 177.657Z" fill="#F1A782"/>
<path d="M61.0251 171.737C59.0691 172.651 57.6811 174.177 58.4071 177.993C58.9651 180.928 61.6541 183.757 63.9771 185.218C64.5521 185.579 66.2651 185.895 66.7231 184.582C67.1111 183.469 67.9881 180.229 67.8301 177.47C67.7031 175.251 67.4961 173.356 65.7131 172.104C64.4921 171.246 63.0731 170.78 61.0251 171.737Z" fill="#FCBE9F"/>
<path d="M61.8721 179.169C62.1311 178.593 62.1141 178.134 62.7151 177.778C63.7071 177.191 66.7371 176.024 67.6781 176.273C67.7451 176.271 67.7581 176.253 67.7691 176.237C67.9251 176.007 68.1581 175.668 68.0901 175.371C68.0321 175.118 67.8101 174.926 67.7991 174.644C67.7911 174.442 67.9191 174.256 67.9231 174.055C67.9291 173.714 67.5951 173.471 67.4671 173.155C67.3031 172.748 67.4881 172.234 67.2311 171.878C67.0081 171.57 66.5531 171.531 66.2781 171.268C65.8261 170.835 66.0691 170.814 65.2491 170.831C64.8751 170.839 64.7631 170.577 64.4631 170.438C64.1751 170.305 63.8411 170.391 63.5391 170.324C63.2281 170.255 62.9581 170.027 62.6401 170.02C62.2851 170.012 61.9891 170.277 61.6531 170.392C61.2131 170.542 60.6971 170.435 60.2991 170.674C59.9641 170.875 59.7811 171.287 59.4201 171.437C59.2701 171.5 59.1001 171.511 58.9571 171.587C58.5791 171.788 58.5531 172.312 58.3351 172.68C58.1291 173.027 57.7341 173.251 57.6021 173.632C57.4341 174.115 57.7521 174.661 57.6021 175.15C57.5481 175.326 57.4361 175.482 57.4021 175.662C57.3321 176.036 57.6101 176.38 57.6851 176.753C57.8451 177.54 57.4131 177.757 58.3041 179.195C58.4311 179.399 59.1391 180.642 59.4451 180.551C59.7821 180.45 59.4451 179.235 59.4771 178.886C59.5301 178.309 60.1361 177.962 60.5831 178.383C60.9221 178.703 60.8941 179.325 61.4091 179.443C61.6451 179.496 61.7811 179.371 61.8721 179.169Z" fill="#30307A"/>
<defs>
<linearGradient id="paint0_linear_1_19541" x1="0.284015" y1="190.704" x2="252.75" y2="190.704" gradientUnits="userSpaceOnUse">
<stop stop-color="#CBC6B9"/>
<stop offset="1" stop-color="#E4DED2"/>
</linearGradient>
</defs>
</svg>
