<svg width="393" height="280" viewBox="0 0 393 280" fill="none" xmlns="http://www.w3.org/2000/svg">
<path d="M93.6942 253.264C149.328 282.38 239.529 282.38 295.163 253.265C350.796 224.149 350.796 176.944 295.163 147.828C239.529 118.712 149.328 118.712 93.6935 147.827C38.0604 176.942 38.0604 224.149 93.6942 253.264Z" fill="#232323"/>
<path d="M119.43 220.152L167.792 248.123C168.544 248.558 169.763 248.558 170.514 248.123L243.381 205.898C244.133 205.464 244.133 204.758 243.381 204.323L195.019 176.352C194.267 175.917 193.049 175.917 192.297 176.352L119.43 218.576C118.678 219.012 118.678 219.716 119.43 220.152Z" fill="#7ADEFF"/>
<path d="M86.1301 181.934C98.6801 187.927 119.028 187.927 131.578 181.934C144.128 175.942 144.128 166.226 131.578 160.234C119.028 154.242 98.6809 154.242 86.1301 160.234C73.58 166.226 73.58 175.942 86.1301 181.934Z" fill="#656565"/>
<path d="M259.142 213.131C271.538 219.05 291.636 219.05 304.032 213.131C316.428 207.212 316.428 197.616 304.032 191.697C291.636 185.779 271.539 185.779 259.142 191.697C246.746 197.616 246.746 207.212 259.142 213.131Z" fill="#656565"/>
<path d="M23.1166 145.861C26.7628 143.666 27.2124 110.428 39.342 103.63C51.4715 96.8313 47.2326 127.242 59.6231 120.053C71.4123 113.212 67.8046 77.7241 79.9066 70.7824C92.0087 63.8406 87.8767 98.5305 100.189 91.8982C110.895 86.1297 109.989 72.3202 117.002 66.2178C124.015 60.1154 125.62 73.5249 134.455 68.6973C143.29 63.8698 135.776 37.2571 154.554 26.3972V77.0785L23.115 153.598L23.1166 145.861Z" fill="url(#paint0_linear_1_4159)"/>
<path d="M23.1173 146.452C22.9177 146.452 22.7219 146.35 22.6119 146.166C22.4445 145.887 22.5349 145.524 22.8139 145.356C23.8758 144.717 24.8394 139.679 25.8604 134.345C28.0164 123.078 30.9687 107.648 39.055 103.116C41.0098 102.02 42.6808 101.764 44.1625 102.331C47.084 103.449 48.5169 107.634 49.9026 111.679C51.2113 115.5 52.5632 119.449 55.0108 120.366C56.1953 120.809 57.6093 120.541 59.3283 119.544C64.9506 116.281 67.0225 105.749 69.0268 95.5636C71.1215 84.914 73.2877 73.9013 79.6142 70.2722C81.4094 69.2423 83.0294 69.0076 84.4284 69.5738C87.5811 70.8509 89.01 75.7895 90.5231 81.0179C91.9112 85.8132 93.3456 90.7715 96.0518 91.91C97.1381 92.3659 98.4004 92.1935 99.9111 91.3801C105.871 88.1691 108.122 82.373 110.3 76.7667C111.957 72.4982 113.523 68.4659 116.617 65.7738C120.483 62.4108 122.976 64.4871 125.388 66.4974C127.804 68.5123 130.086 70.4147 134.174 68.1816C137.52 66.3533 138.399 60.81 139.416 54.3918C140.965 44.6217 142.892 32.4634 154.261 25.8878C154.541 25.7256 154.903 25.8209 155.065 26.1036C155.228 26.3862 155.131 26.7469 154.85 26.9099C143.969 33.2036 142.09 45.054 140.581 54.5761C139.515 61.3021 138.594 67.1108 134.74 69.2171C129.948 71.836 127.001 69.3785 124.634 67.4045C122.234 65.4029 120.5 63.958 117.39 66.6651C114.517 69.1659 113.002 73.0659 111.399 77.195C109.145 82.9998 106.814 89.0037 100.47 92.4203C98.6527 93.3998 97.0131 93.5951 95.5967 92.9982C92.3718 91.6415 90.8571 86.4077 89.392 81.3462C88.0236 76.6194 86.6088 71.7312 83.9875 70.6682C82.9272 70.2391 81.6877 70.4438 80.2013 71.2966C74.3417 74.658 72.2282 85.4014 70.1846 95.7912C68.0356 106.716 66.0054 117.035 59.9202 120.565C57.8766 121.75 56.1364 122.048 54.5982 121.472C51.6295 120.36 50.1848 116.142 48.7881 112.062C47.4904 108.273 46.1487 104.356 43.7427 103.434C42.6062 102.997 41.2621 103.232 39.632 104.146C32.025 108.409 29.1318 123.528 27.0198 134.567C25.6506 141.724 24.8685 145.498 23.4223 146.368C23.3248 146.424 23.2211 146.452 23.1173 146.452Z" fill="#7ADEFF"/>
<path d="M79.9058 71.5305C79.7683 71.5305 79.6575 71.4187 79.6575 71.2817V70.7833C79.6575 70.6455 79.7691 70.5344 79.9058 70.5344C80.0434 70.5344 80.1542 70.6462 80.1542 70.7833V71.2817C80.155 71.4187 80.0434 71.5305 79.9058 71.5305Z" fill="#FAFAFA"/>
<path d="M79.9058 119.535C79.7683 119.535 79.6575 119.424 79.6575 119.287V118.287C79.6575 118.149 79.7691 118.038 79.9058 118.038C80.0434 118.038 80.1542 118.15 80.1542 118.287V119.287C80.155 119.424 80.0434 119.535 79.9058 119.535ZM79.9058 117.535C79.7683 117.535 79.6575 117.424 79.6575 117.287V116.287C79.6575 116.149 79.7691 116.038 79.9058 116.038C80.0434 116.038 80.1542 116.15 80.1542 116.287V117.287C80.155 117.424 80.0434 117.535 79.9058 117.535ZM79.9058 115.535C79.7683 115.535 79.6575 115.424 79.6575 115.287V114.286C79.6575 114.148 79.7691 114.037 79.9058 114.037C80.0434 114.037 80.1542 114.149 80.1542 114.286V115.287C80.155 115.424 80.0434 115.535 79.9058 115.535ZM79.9058 113.535C79.7683 113.535 79.6575 113.423 79.6575 113.286V112.286C79.6575 112.148 79.7691 112.037 79.9058 112.037C80.0434 112.037 80.1542 112.149 80.1542 112.286V113.286C80.155 113.424 80.0434 113.535 79.9058 113.535ZM79.9058 111.535C79.7683 111.535 79.6575 111.423 79.6575 111.286V110.286C79.6575 110.148 79.7691 110.037 79.9058 110.037C80.0434 110.037 80.1542 110.149 80.1542 110.286V111.286C80.155 111.423 80.0434 111.535 79.9058 111.535ZM79.9058 109.535C79.7683 109.535 79.6575 109.423 79.6575 109.286V108.286C79.6575 108.148 79.7691 108.037 79.9058 108.037C80.0434 108.037 80.1542 108.149 80.1542 108.286V109.286C80.155 109.423 80.0434 109.535 79.9058 109.535ZM79.9058 107.535C79.7683 107.535 79.6575 107.423 79.6575 107.286V106.286C79.6575 106.148 79.7691 106.037 79.9058 106.037C80.0434 106.037 80.1542 106.149 80.1542 106.286V107.286C80.155 107.423 80.0434 107.535 79.9058 107.535ZM79.9058 105.534C79.7683 105.534 79.6575 105.422 79.6575 105.285V104.285C79.6575 104.147 79.7691 104.036 79.9058 104.036C80.0434 104.036 80.1542 104.148 80.1542 104.285V105.285C80.155 105.423 80.0434 105.534 79.9058 105.534ZM79.9058 103.534C79.7683 103.534 79.6575 103.422 79.6575 103.285V102.285C79.6575 102.147 79.7691 102.036 79.9058 102.036C80.0434 102.036 80.1542 102.148 80.1542 102.285V103.285C80.155 103.422 80.0434 103.534 79.9058 103.534ZM79.9058 101.534C79.7683 101.534 79.6575 101.422 79.6575 101.285V100.285C79.6575 100.147 79.7691 100.036 79.9058 100.036C80.0434 100.036 80.1542 100.148 80.1542 100.285V101.285C80.155 101.422 80.0434 101.534 79.9058 101.534ZM79.9058 99.5337C79.7683 99.5337 79.6575 99.4219 79.6575 99.2849V98.2849C79.6575 98.1471 79.7691 98.0361 79.9058 98.0361C80.0434 98.0361 80.1542 98.1479 80.1542 98.2849V99.2849C80.155 99.4219 80.0434 99.5337 79.9058 99.5337ZM79.9058 97.5329C79.7683 97.5329 79.6575 97.4211 79.6575 97.2841V96.2833C79.6575 96.1455 79.7691 96.0345 79.9058 96.0345C80.0434 96.0345 80.1542 96.1463 80.1542 96.2833V97.2841C80.155 97.4219 80.0434 97.5329 79.9058 97.5329ZM79.9058 95.5329C79.7683 95.5329 79.6575 95.4211 79.6575 95.2841V94.2841C79.6575 94.1463 79.7691 94.0353 79.9058 94.0353C80.0434 94.0353 80.1542 94.1471 80.1542 94.2841V95.2841C80.155 95.4211 80.0434 95.5329 79.9058 95.5329ZM79.9058 93.5329C79.7683 93.5329 79.6575 93.4211 79.6575 93.2841V92.2833C79.6575 92.1455 79.7691 92.0345 79.9058 92.0345C80.0434 92.0345 80.1542 92.1463 80.1542 92.2833V93.2841C80.155 93.4211 80.0434 93.5329 79.9058 93.5329ZM79.9058 91.5321C79.7683 91.5321 79.6575 91.4203 79.6575 91.2833V90.2833C79.6575 90.1455 79.7691 90.0345 79.9058 90.0345C80.0434 90.0345 80.1542 90.1463 80.1542 90.2833V91.2833C80.155 91.4211 80.0434 91.5321 79.9058 91.5321ZM79.9058 89.5321C79.7683 89.5321 79.6575 89.4203 79.6575 89.2833V88.2833C79.6575 88.1455 79.7691 88.0345 79.9058 88.0345C80.0434 88.0345 80.1542 88.1463 80.1542 88.2833V89.2833C80.155 89.4211 80.0434 89.5321 79.9058 89.5321ZM79.9058 87.5321C79.7683 87.5321 79.6575 87.4203 79.6575 87.2833V86.2833C79.6575 86.1455 79.7691 86.0345 79.9058 86.0345C80.0434 86.0345 80.1542 86.1463 80.1542 86.2833V87.2833C80.155 87.4203 80.0434 87.5321 79.9058 87.5321ZM79.9058 85.5321C79.7683 85.5321 79.6575 85.4203 79.6575 85.2833V84.2833C79.6575 84.1455 79.7691 84.0344 79.9058 84.0344C80.0434 84.0344 80.1542 84.1463 80.1542 84.2833V85.2833C80.155 85.4203 80.0434 85.5321 79.9058 85.5321ZM79.9058 83.5313C79.7683 83.5313 79.6575 83.4195 79.6575 83.2825V82.2825C79.6575 82.1447 79.7691 82.0337 79.9058 82.0337C80.0434 82.0337 80.1542 82.1455 80.1542 82.2825V83.2825C80.155 83.4203 80.0434 83.5313 79.9058 83.5313ZM79.9058 81.5313C79.7683 81.5313 79.6575 81.4195 79.6575 81.2825V80.2825C79.6575 80.1447 79.7691 80.0337 79.9058 80.0337C80.0434 80.0337 80.1542 80.1455 80.1542 80.2825V81.2825C80.155 81.4203 80.0434 81.5313 79.9058 81.5313ZM79.9058 79.5313C79.7683 79.5313 79.6575 79.4195 79.6575 79.2825V78.2825C79.6575 78.1447 79.7691 78.0336 79.9058 78.0336C80.0434 78.0336 80.1542 78.1455 80.1542 78.2825V79.2825C80.155 79.4203 80.0434 79.5313 79.9058 79.5313ZM79.9058 77.5313C79.7683 77.5313 79.6575 77.4195 79.6575 77.2825V76.2825C79.6575 76.1447 79.7691 76.0336 79.9058 76.0336C80.0434 76.0336 80.1542 76.1454 80.1542 76.2825V77.2825C80.155 77.4195 80.0434 77.5313 79.9058 77.5313ZM79.9058 75.5313C79.7683 75.5313 79.6575 75.4195 79.6575 75.2825V74.2825C79.6575 74.1447 79.7691 74.0336 79.9058 74.0336C80.0434 74.0336 80.1542 74.1454 80.1542 74.2825V75.2825C80.155 75.4195 80.0434 75.5313 79.9058 75.5313ZM79.9058 73.5305C79.7683 73.5305 79.6575 73.4187 79.6575 73.2817V72.2817C79.6575 72.1439 79.7691 72.0328 79.9058 72.0328C80.0434 72.0328 80.1542 72.1447 80.1542 72.2817V73.2817C80.155 73.4187 80.0434 73.5305 79.9058 73.5305Z" fill="#FAFAFA"/>
<path d="M79.9058 121.035C79.7683 121.035 79.6575 120.923 79.6575 120.786V120.287C79.6575 120.149 79.7691 120.038 79.9058 120.038C80.0434 120.038 80.1542 120.15 80.1542 120.287V120.786C80.155 120.923 80.0434 121.035 79.9058 121.035Z" fill="#FAFAFA"/>
<path d="M119.413 65.6494C119.276 65.6494 119.165 65.5376 119.165 65.4006V64.9021C119.165 64.7643 119.277 64.6533 119.413 64.6533C119.551 64.6533 119.662 64.7651 119.662 64.9021V65.4006C119.663 65.5384 119.551 65.6494 119.413 65.6494Z" fill="#FAFAFA"/>
<path d="M119.413 96.266C119.276 96.266 119.165 96.1542 119.165 96.0172V94.9967C119.165 94.8589 119.277 94.7479 119.413 94.7479C119.551 94.7479 119.662 94.8597 119.662 94.9967V96.0172C119.663 96.1542 119.551 96.266 119.413 96.266ZM119.413 94.2251C119.276 94.2251 119.165 94.1133 119.165 93.9763V92.9558C119.165 92.818 119.277 92.707 119.413 92.707C119.551 92.707 119.662 92.8188 119.662 92.9558V93.9763C119.663 94.1133 119.551 94.2251 119.413 94.2251ZM119.413 92.1841C119.276 92.1841 119.165 92.0723 119.165 91.9353V90.9148C119.165 90.777 119.277 90.666 119.413 90.666C119.551 90.666 119.662 90.7778 119.662 90.9148V91.9353C119.663 92.0723 119.551 92.1841 119.413 92.1841ZM119.413 90.1424C119.276 90.1424 119.165 90.0306 119.165 89.8936V88.8731C119.165 88.7353 119.277 88.6243 119.413 88.6243C119.551 88.6243 119.662 88.7361 119.662 88.8731V89.8936C119.663 90.0314 119.551 90.1424 119.413 90.1424ZM119.413 88.1014C119.276 88.1014 119.165 87.9896 119.165 87.8526V86.8321C119.165 86.6943 119.277 86.5833 119.413 86.5833C119.551 86.5833 119.662 86.6951 119.662 86.8321V87.8526C119.663 87.9896 119.551 88.1014 119.413 88.1014ZM119.413 86.0605C119.276 86.0605 119.165 85.9487 119.165 85.8117V84.7912C119.165 84.6534 119.277 84.5424 119.413 84.5424C119.551 84.5424 119.662 84.6542 119.662 84.7912V85.8117C119.663 85.9487 119.551 86.0605 119.413 86.0605ZM119.413 84.0195C119.276 84.0195 119.165 83.9077 119.165 83.7707V82.7502C119.165 82.6124 119.277 82.5014 119.413 82.5014C119.551 82.5014 119.662 82.6132 119.662 82.7502V83.7707C119.663 83.9077 119.551 84.0195 119.413 84.0195ZM119.413 81.9786C119.276 81.9786 119.165 81.8668 119.165 81.7298V80.7093C119.165 80.5715 119.277 80.4605 119.413 80.4605C119.551 80.4605 119.662 80.5723 119.662 80.7093V81.7298C119.663 81.8668 119.551 81.9786 119.413 81.9786ZM119.413 79.9368C119.276 79.9368 119.165 79.825 119.165 79.688V78.6676C119.165 78.5298 119.277 78.4187 119.413 78.4187C119.551 78.4187 119.662 78.5305 119.662 78.6676V79.688C119.663 79.8258 119.551 79.9368 119.413 79.9368ZM119.413 77.8959C119.276 77.8959 119.165 77.7841 119.165 77.6471V76.6266C119.165 76.4888 119.277 76.3778 119.413 76.3778C119.551 76.3778 119.662 76.4896 119.662 76.6266V77.6471C119.663 77.7841 119.551 77.8959 119.413 77.8959ZM119.413 75.8549C119.276 75.8549 119.165 75.7431 119.165 75.6061V74.5856C119.165 74.4479 119.277 74.3368 119.413 74.3368C119.551 74.3368 119.662 74.4486 119.662 74.5856V75.6061C119.663 75.7439 119.551 75.8549 119.413 75.8549ZM119.413 73.814C119.276 73.814 119.165 73.7022 119.165 73.5652V72.5447C119.165 72.4069 119.277 72.2959 119.413 72.2959C119.551 72.2959 119.662 72.4077 119.662 72.5447V73.5652C119.663 73.7022 119.551 73.814 119.413 73.814ZM119.413 71.773C119.276 71.773 119.165 71.6612 119.165 71.5242V70.5037C119.165 70.3659 119.277 70.2549 119.413 70.2549C119.551 70.2549 119.662 70.3667 119.662 70.5037V71.5242C119.663 71.6612 119.551 71.773 119.413 71.773ZM119.413 69.7313C119.276 69.7313 119.165 69.6195 119.165 69.4825V68.462C119.165 68.3242 119.277 68.2132 119.413 68.2132C119.551 68.2132 119.662 68.325 119.662 68.462V69.4825C119.663 69.6203 119.551 69.7313 119.413 69.7313ZM119.413 67.6904C119.276 67.6904 119.165 67.5785 119.165 67.4415V66.4211C119.165 66.2833 119.277 66.1722 119.413 66.1722C119.551 66.1722 119.662 66.284 119.662 66.4211V67.4415C119.663 67.5793 119.551 67.6904 119.413 67.6904Z" fill="#FAFAFA"/>
<path d="M119.413 97.7849C119.276 97.7849 119.165 97.6731 119.165 97.5361V97.0376C119.165 96.8998 119.277 96.7888 119.413 96.7888C119.551 96.7888 119.662 96.9006 119.662 97.0376V97.5361C119.663 97.6739 119.551 97.7849 119.413 97.7849Z" fill="#FAFAFA"/>
<path d="M41.2708 104.085C41.1333 104.085 41.0225 103.973 41.0225 103.836V103.338C41.0225 103.2 41.1341 103.089 41.2708 103.089C41.4084 103.089 41.5192 103.201 41.5192 103.338V103.836C41.52 103.973 41.4084 104.085 41.2708 104.085Z" fill="#FAFAFA"/>
<path d="M41.2708 136.935C41.1333 136.935 41.0225 136.823 41.0225 136.686V135.659C41.0225 135.521 41.1341 135.409 41.2708 135.409C41.4084 135.409 41.5192 135.521 41.5192 135.659V136.686C41.52 136.823 41.4084 136.935 41.2708 136.935ZM41.2708 134.881C41.1333 134.881 41.0225 134.769 41.0225 134.632V133.605C41.0225 133.468 41.1341 133.357 41.2708 133.357C41.4084 133.357 41.5192 133.468 41.5192 133.605V134.632C41.52 134.769 41.4084 134.881 41.2708 134.881ZM41.2708 132.828C41.1333 132.828 41.0225 132.717 41.0225 132.579V131.553C41.0225 131.415 41.1341 131.304 41.2708 131.304C41.4084 131.304 41.5192 131.416 41.5192 131.553V132.579C41.52 132.717 41.4084 132.828 41.2708 132.828ZM41.2708 130.775C41.1333 130.775 41.0225 130.663 41.0225 130.526V129.499C41.0225 129.361 41.1341 129.25 41.2708 129.25C41.4084 129.25 41.5192 129.362 41.5192 129.499V130.526C41.52 130.664 41.4084 130.775 41.2708 130.775ZM41.2708 128.722C41.1333 128.722 41.0225 128.61 41.0225 128.473V127.446C41.0225 127.309 41.1341 127.198 41.2708 127.198C41.4084 127.198 41.5192 127.309 41.5192 127.446V128.473C41.52 128.61 41.4084 128.722 41.2708 128.722ZM41.2708 126.669C41.1333 126.669 41.0225 126.557 41.0225 126.42V125.394C41.0225 125.256 41.1341 125.145 41.2708 125.145C41.4084 125.145 41.5192 125.257 41.5192 125.394V126.42C41.52 126.557 41.4084 126.669 41.2708 126.669ZM41.2708 124.616C41.1333 124.616 41.0225 124.504 41.0225 124.367V123.34C41.0225 123.202 41.1341 123.091 41.2708 123.091C41.4084 123.091 41.5192 123.203 41.5192 123.34V124.367C41.52 124.504 41.4084 124.616 41.2708 124.616ZM41.2708 122.563C41.1333 122.563 41.0225 122.451 41.0225 122.314V121.287C41.0225 121.15 41.1341 121.039 41.2708 121.039C41.4084 121.039 41.5192 121.15 41.5192 121.287V122.314C41.52 122.451 41.4084 122.563 41.2708 122.563ZM41.2708 120.509C41.1333 120.509 41.0225 120.398 41.0225 120.261V119.234C41.0225 119.096 41.1341 118.985 41.2708 118.985C41.4084 118.985 41.5192 119.097 41.5192 119.234V120.261C41.52 120.398 41.4084 120.509 41.2708 120.509ZM41.2708 118.457C41.1333 118.457 41.0225 118.345 41.0225 118.208V117.181C41.0225 117.043 41.1341 116.932 41.2708 116.932C41.4084 116.932 41.5192 117.044 41.5192 117.181V118.208C41.52 118.345 41.4084 118.457 41.2708 118.457ZM41.2708 116.403C41.1333 116.403 41.0225 116.291 41.0225 116.154V115.127C41.0225 114.99 41.1341 114.879 41.2708 114.879C41.4084 114.879 41.5192 114.99 41.5192 115.127V116.154C41.52 116.292 41.4084 116.403 41.2708 116.403ZM41.2708 114.35C41.1333 114.35 41.0225 114.239 41.0225 114.101V113.075C41.0225 112.937 41.1341 112.826 41.2708 112.826C41.4084 112.826 41.5192 112.938 41.5192 113.075V114.101C41.52 114.239 41.4084 114.35 41.2708 114.35ZM41.2708 112.297C41.1333 112.297 41.0225 112.185 41.0225 112.048V111.021C41.0225 110.883 41.1341 110.772 41.2708 110.772C41.4084 110.772 41.5192 110.884 41.5192 111.021V112.048C41.52 112.186 41.4084 112.297 41.2708 112.297ZM41.2708 110.244C41.1333 110.244 41.0225 110.132 41.0225 109.995V108.968C41.0225 108.831 41.1341 108.72 41.2708 108.72C41.4084 108.72 41.5192 108.831 41.5192 108.968V109.995C41.52 110.132 41.4084 110.244 41.2708 110.244ZM41.2708 108.191C41.1333 108.191 41.0225 108.079 41.0225 107.942V106.916C41.0225 106.778 41.1341 106.667 41.2708 106.667C41.4084 106.667 41.5192 106.779 41.5192 106.916V107.942C41.52 108.079 41.4084 108.191 41.2708 108.191ZM41.2708 106.138C41.1333 106.138 41.0225 106.026 41.0225 105.889V104.862C41.0225 104.724 41.1341 104.613 41.2708 104.613C41.4084 104.613 41.5192 104.725 41.5192 104.862V105.889C41.52 106.027 41.4084 106.138 41.2708 106.138Z" fill="#FAFAFA"/>
<path d="M41.2708 138.459C41.1333 138.459 41.0225 138.347 41.0225 138.21V137.712C41.0225 137.574 41.1341 137.463 41.2708 137.463C41.4084 137.463 41.5192 137.575 41.5192 137.712V138.21C41.52 138.347 41.4084 138.459 41.2708 138.459Z" fill="#FAFAFA"/>
<path d="M366.709 156.334C364.022 154.716 363.691 130.22 354.751 125.21C345.811 120.2 348.936 142.612 339.805 137.314C331.116 132.272 333.775 106.119 324.856 101.002C315.937 95.8862 318.983 121.452 309.909 116.564C302.018 112.313 302.686 102.136 297.518 97.6382C292.35 93.1406 291.166 103.023 284.655 99.4658C278.144 95.9083 283.681 76.2949 269.843 68.2909V105.643L366.712 162.038L366.709 156.334Z" fill="url(#paint1_linear_1_4159)"/>
<path d="M366.709 156.923C366.606 156.923 366.5 156.897 366.406 156.839C365.281 156.163 364.728 153.505 363.682 148.039C362.131 139.933 360.006 128.832 354.464 125.725C353.305 125.075 352.357 124.906 351.565 125.21C349.858 125.863 348.882 128.715 347.937 131.474C346.897 134.515 345.82 137.658 343.563 138.504C342.386 138.945 341.059 138.723 339.51 137.825C334.965 135.187 333.462 127.549 331.871 119.462C330.371 111.839 328.82 103.957 324.563 101.515C323.513 100.912 322.645 100.763 321.908 101.062C320.046 101.816 319.013 105.382 318.016 108.83C316.876 112.769 315.8 116.489 313.354 117.518C312.267 117.977 311.013 117.83 309.629 117.086C304.904 114.54 303.097 109.888 301.504 105.784C300.329 102.76 299.22 99.902 297.13 98.0847C294.939 96.1768 293.767 97.1524 291.993 98.6319C290.212 100.117 287.996 101.967 284.372 99.9847C281.465 98.3957 280.78 94.08 279.988 89.0823C278.881 82.0973 277.503 73.4043 269.547 68.8035C269.266 68.6405 269.169 68.2791 269.332 67.9972C269.494 67.7145 269.855 67.6177 270.137 67.7815C278.579 72.6642 280.007 81.665 281.153 88.8981C281.896 93.5878 282.538 97.6382 284.937 98.9493C287.859 100.546 289.501 99.1745 291.239 97.7256C292.982 96.2737 294.955 94.628 297.905 97.1941C300.212 99.2036 301.374 102.193 302.603 105.357C304.197 109.462 305.846 113.708 310.188 116.047C311.256 116.623 312.141 116.748 312.898 116.431C314.824 115.621 315.871 112.003 316.883 108.504C318.01 104.613 319.072 100.939 321.466 99.969C322.544 99.5319 323.783 99.7091 325.149 100.493C329.873 103.202 331.476 111.353 333.026 119.237C334.496 126.709 336.016 134.437 340.099 136.805C341.325 137.516 342.321 137.711 343.149 137.401C344.884 136.752 345.869 133.875 346.821 131.094C347.854 128.078 348.922 124.96 351.143 124.11C352.267 123.68 353.575 123.878 355.038 124.698C361.061 128.074 363.245 139.487 364.84 147.82C365.519 151.371 366.289 155.396 367.012 155.831C367.291 155.999 367.382 156.362 367.214 156.641C367.104 156.821 366.909 156.923 366.709 156.923Z" fill="#7ADEFF"/>
<path d="M324.857 101.749C324.719 101.749 324.608 101.637 324.608 101.5V101.002C324.608 100.864 324.72 100.753 324.857 100.753C324.994 100.753 325.105 100.865 325.105 101.002V101.5C325.105 101.637 324.994 101.749 324.857 101.749Z" fill="#FAFAFA"/>
<path d="M324.857 136.578C324.719 136.578 324.608 136.467 324.608 136.33V135.305C324.608 135.167 324.72 135.056 324.857 135.056C324.994 135.056 325.105 135.168 325.105 135.305V136.33C325.105 136.467 324.994 136.578 324.857 136.578ZM324.857 134.53C324.719 134.53 324.608 134.419 324.608 134.282V133.257C324.608 133.119 324.72 133.008 324.857 133.008C324.994 133.008 325.105 133.12 325.105 133.257V134.282C325.105 134.419 324.994 134.53 324.857 134.53ZM324.857 132.482C324.719 132.482 324.608 132.37 324.608 132.233V131.208C324.608 131.07 324.72 130.959 324.857 130.959C324.994 130.959 325.105 131.071 325.105 131.208V132.233C325.105 132.371 324.994 132.482 324.857 132.482ZM324.857 130.433C324.719 130.433 324.608 130.321 324.608 130.184V129.16C324.608 129.022 324.72 128.911 324.857 128.911C324.994 128.911 325.105 129.023 325.105 129.16V130.184C325.105 130.321 324.994 130.433 324.857 130.433ZM324.857 128.384C324.719 128.384 324.608 128.272 324.608 128.135V127.111C324.608 126.973 324.72 126.862 324.857 126.862C324.994 126.862 325.105 126.974 325.105 127.111V128.135C325.105 128.273 324.994 128.384 324.857 128.384ZM324.857 126.335C324.719 126.335 324.608 126.223 324.608 126.086V125.062C324.608 124.924 324.72 124.813 324.857 124.813C324.994 124.813 325.105 124.925 325.105 125.062V126.086C325.105 126.224 324.994 126.335 324.857 126.335ZM324.857 124.286C324.719 124.286 324.608 124.174 324.608 124.037V123.013C324.608 122.875 324.72 122.764 324.857 122.764C324.994 122.764 325.105 122.876 325.105 123.013V124.037C325.105 124.174 324.994 124.286 324.857 124.286ZM324.857 122.237C324.719 122.237 324.608 122.126 324.608 121.989V120.964C324.608 120.826 324.72 120.715 324.857 120.715C324.994 120.715 325.105 120.827 325.105 120.964V121.989C325.105 122.126 324.994 122.237 324.857 122.237ZM324.857 120.189C324.719 120.189 324.608 120.077 324.608 119.94V118.915C324.608 118.778 324.72 118.667 324.857 118.667C324.994 118.667 325.105 118.778 325.105 118.915V119.94C325.105 120.077 324.994 120.189 324.857 120.189ZM324.857 118.14C324.719 118.14 324.608 118.028 324.608 117.891V116.867C324.608 116.729 324.72 116.618 324.857 116.618C324.994 116.618 325.105 116.73 325.105 116.867V117.891C325.105 118.028 324.994 118.14 324.857 118.14ZM324.857 116.091C324.719 116.091 324.608 115.979 324.608 115.842V114.818C324.608 114.68 324.72 114.569 324.857 114.569C324.994 114.569 325.105 114.681 325.105 114.818V115.842C325.105 115.979 324.994 116.091 324.857 116.091ZM324.857 114.042C324.719 114.042 324.608 113.93 324.608 113.793V112.769C324.608 112.631 324.72 112.52 324.857 112.52C324.994 112.52 325.105 112.632 325.105 112.769V113.793C325.105 113.931 324.994 114.042 324.857 114.042ZM324.857 111.993C324.719 111.993 324.608 111.882 324.608 111.745V110.72C324.608 110.582 324.72 110.471 324.857 110.471C324.994 110.471 325.105 110.583 325.105 110.72V111.745C325.105 111.882 324.994 111.993 324.857 111.993ZM324.857 109.945C324.719 109.945 324.608 109.833 324.608 109.696V108.671C324.608 108.533 324.72 108.422 324.857 108.422C324.994 108.422 325.105 108.534 325.105 108.671V109.696C325.105 109.833 324.994 109.945 324.857 109.945ZM324.857 107.896C324.719 107.896 324.608 107.784 324.608 107.647V106.622C324.608 106.485 324.72 106.374 324.857 106.374C324.994 106.374 325.105 106.485 325.105 106.622V107.647C325.105 107.785 324.994 107.896 324.857 107.896ZM324.857 105.847C324.719 105.847 324.608 105.735 324.608 105.598V104.574C324.608 104.436 324.72 104.325 324.857 104.325C324.994 104.325 325.105 104.437 325.105 104.574V105.598C325.105 105.736 324.994 105.847 324.857 105.847ZM324.857 103.798C324.719 103.798 324.608 103.686 324.608 103.549V102.525C324.608 102.387 324.72 102.276 324.857 102.276C324.994 102.276 325.105 102.388 325.105 102.525V103.549C325.105 103.686 324.994 103.798 324.857 103.798Z" fill="#FAFAFA"/>
<path d="M324.857 138.102C324.719 138.102 324.608 137.99 324.608 137.853V137.355C324.608 137.217 324.72 137.106 324.857 137.106C324.994 137.106 325.105 137.218 325.105 137.355V137.853C325.105 137.99 324.994 138.102 324.857 138.102Z" fill="#FAFAFA"/>
<path d="M295.739 97.4154C295.602 97.4154 295.491 97.3036 295.491 97.1665V96.6681C295.491 96.5303 295.602 96.4193 295.739 96.4193C295.877 96.4193 295.987 96.5311 295.987 96.6681V97.1665C295.987 97.3036 295.877 97.4154 295.739 97.4154Z" fill="#FAFAFA"/>
<path d="M295.739 119.467C295.602 119.467 295.491 119.355 295.491 119.218V118.215C295.491 118.078 295.602 117.967 295.739 117.967C295.877 117.967 295.987 118.078 295.987 118.215V119.218C295.987 119.355 295.877 119.467 295.739 119.467ZM295.739 117.462C295.602 117.462 295.491 117.35 295.491 117.213V116.211C295.491 116.073 295.602 115.962 295.739 115.962C295.877 115.962 295.987 116.074 295.987 116.211V117.213C295.987 117.351 295.877 117.462 295.739 117.462ZM295.739 115.457C295.602 115.457 295.491 115.345 295.491 115.208V114.206C295.491 114.068 295.602 113.957 295.739 113.957C295.877 113.957 295.987 114.069 295.987 114.206V115.208C295.987 115.346 295.877 115.457 295.739 115.457ZM295.739 113.452C295.602 113.452 295.491 113.341 295.491 113.204V112.201C295.491 112.063 295.602 111.952 295.739 111.952C295.877 111.952 295.987 112.064 295.987 112.201V113.204C295.987 113.341 295.877 113.452 295.739 113.452ZM295.739 111.448C295.602 111.448 295.491 111.336 295.491 111.199V110.196C295.491 110.059 295.602 109.948 295.739 109.948C295.877 109.948 295.987 110.059 295.987 110.196V111.199C295.987 111.337 295.877 111.448 295.739 111.448ZM295.739 109.443C295.602 109.443 295.491 109.331 295.491 109.194V108.192C295.491 108.054 295.602 107.943 295.739 107.943C295.877 107.943 295.987 108.055 295.987 108.192V109.194C295.987 109.331 295.877 109.443 295.739 109.443ZM295.739 107.438C295.602 107.438 295.491 107.326 295.491 107.189V106.187C295.491 106.049 295.602 105.938 295.739 105.938C295.877 105.938 295.987 106.05 295.987 106.187V107.189C295.987 107.326 295.877 107.438 295.739 107.438ZM295.739 105.433C295.602 105.433 295.491 105.322 295.491 105.185V104.182C295.491 104.044 295.602 103.933 295.739 103.933C295.877 103.933 295.987 104.045 295.987 104.182V105.185C295.987 105.322 295.877 105.433 295.739 105.433ZM295.739 103.429C295.602 103.429 295.491 103.317 295.491 103.18V102.178C295.491 102.04 295.602 101.929 295.739 101.929C295.877 101.929 295.987 102.041 295.987 102.178V103.18C295.987 103.318 295.877 103.429 295.739 103.429ZM295.739 101.424C295.602 101.424 295.491 101.312 295.491 101.175V100.173C295.491 100.035 295.602 99.924 295.739 99.924C295.877 99.924 295.987 100.036 295.987 100.173V101.175C295.987 101.313 295.877 101.424 295.739 101.424ZM295.739 99.4201C295.602 99.4201 295.491 99.3082 295.491 99.1712V98.1689C295.491 98.0311 295.602 97.92 295.739 97.92C295.877 97.92 295.987 98.0319 295.987 98.1689V99.1712C295.987 99.3082 295.877 99.4201 295.739 99.4201Z" fill="#FAFAFA"/>
<path d="M295.739 120.967C295.602 120.967 295.491 120.856 295.491 120.719V120.22C295.491 120.082 295.602 119.971 295.739 119.971C295.877 119.971 295.987 120.083 295.987 120.22V120.719C295.987 120.856 295.877 120.967 295.739 120.967Z" fill="#FAFAFA"/>
<path d="M353.329 125.741C353.192 125.741 353.081 125.63 353.081 125.493V124.994C353.081 124.856 353.193 124.745 353.329 124.745C353.466 124.745 353.578 124.857 353.578 124.994V125.493C353.579 125.63 353.467 125.741 353.329 125.741Z" fill="#FAFAFA"/>
<path d="M353.329 149.457C353.192 149.457 353.081 149.345 353.081 149.208V148.22C353.081 148.082 353.193 147.971 353.329 147.971C353.466 147.971 353.578 148.083 353.578 148.22V149.208C353.579 149.345 353.467 149.457 353.329 149.457ZM353.329 147.481C353.192 147.481 353.081 147.369 353.081 147.232V146.244C353.081 146.106 353.193 145.995 353.329 145.995C353.466 145.995 353.578 146.107 353.578 146.244V147.232C353.579 147.37 353.467 147.481 353.329 147.481ZM353.329 145.504C353.192 145.504 353.081 145.393 353.081 145.256V144.267C353.081 144.13 353.193 144.019 353.329 144.019C353.466 144.019 353.578 144.13 353.578 144.267V145.256C353.579 145.393 353.467 145.504 353.329 145.504ZM353.329 143.529C353.192 143.529 353.081 143.417 353.081 143.28V142.292C353.081 142.154 353.193 142.043 353.329 142.043C353.466 142.043 353.578 142.155 353.578 142.292V143.28C353.579 143.417 353.467 143.529 353.329 143.529ZM353.329 141.552C353.192 141.552 353.081 141.441 353.081 141.304V140.315C353.081 140.178 353.193 140.067 353.329 140.067C353.466 140.067 353.578 140.178 353.578 140.315V141.304C353.579 141.441 353.467 141.552 353.329 141.552ZM353.329 139.576C353.192 139.576 353.081 139.464 353.081 139.327V138.338C353.081 138.2 353.193 138.089 353.329 138.089C353.466 138.089 353.578 138.201 353.578 138.338V139.327C353.579 139.464 353.467 139.576 353.329 139.576ZM353.329 137.599C353.192 137.599 353.081 137.487 353.081 137.35V136.362C353.081 136.224 353.193 136.113 353.329 136.113C353.466 136.113 353.578 136.225 353.578 136.362V137.35C353.579 137.488 353.467 137.599 353.329 137.599ZM353.329 135.623C353.192 135.623 353.081 135.511 353.081 135.374V134.386C353.081 134.248 353.193 134.137 353.329 134.137C353.466 134.137 353.578 134.249 353.578 134.386V135.374C353.579 135.511 353.467 135.623 353.329 135.623ZM353.329 133.647C353.192 133.647 353.081 133.535 353.081 133.398V132.41C353.081 132.272 353.193 132.161 353.329 132.161C353.466 132.161 353.578 132.273 353.578 132.41V133.398C353.579 133.535 353.467 133.647 353.329 133.647ZM353.329 131.671C353.192 131.671 353.081 131.559 353.081 131.422V130.434C353.081 130.296 353.193 130.185 353.329 130.185C353.466 130.185 353.578 130.297 353.578 130.434V131.422C353.579 131.559 353.467 131.671 353.329 131.671ZM353.329 129.694C353.192 129.694 353.081 129.582 353.081 129.445V128.457C353.081 128.319 353.193 128.208 353.329 128.208C353.466 128.208 353.578 128.32 353.578 128.457V129.445C353.579 129.583 353.467 129.694 353.329 129.694ZM353.329 127.718C353.192 127.718 353.081 127.606 353.081 127.469V126.481C353.081 126.343 353.193 126.232 353.329 126.232C353.466 126.232 353.578 126.344 353.578 126.481V127.469C353.579 127.607 353.467 127.718 353.329 127.718Z" fill="#FAFAFA"/>
<path d="M353.329 150.945C353.192 150.945 353.081 150.833 353.081 150.696V150.197C353.081 150.059 353.193 149.948 353.329 149.948C353.466 149.948 353.578 150.06 353.578 150.197V150.696C353.579 150.833 353.467 150.945 353.329 150.945Z" fill="#FAFAFA"/>
<path d="M314.102 61.4933V53.35L307.17 52.0137C306.871 51.9563 306.609 52.0248 306.394 52.1594L306.39 52.1515L302.933 54.1507L307.433 55.0633L314.102 61.4933Z" fill="#3D3D3D"/>
<path d="M361.361 107.43L361.88 107.13C362.709 106.65 363.381 105.484 363.381 104.526V63.213C363.381 62.254 362.709 61.0886 361.88 60.6091L315.604 33.8437C314.775 33.3641 313.432 33.3641 312.603 33.8437L312.085 34.1437C311.256 34.6232 310.583 35.7893 310.583 36.7476V78.0603C310.583 79.0194 311.256 80.1855 312.085 80.6643L358.361 107.43C359.189 107.908 360.533 107.908 361.361 107.43Z" fill="#3D3D3D"/>
<path d="M363.381 89.9777V63.2122C363.381 62.7327 363.213 62.2012 362.941 61.7303L356.341 65.5477V106.261L358.36 107.429C359.189 107.908 360.532 107.908 361.361 107.429L361.881 107.128C362.71 106.649 363.381 105.483 363.381 104.525V89.9777Z" fill="#7ADEFF"/>
<path d="M312.084 35.8791L358.361 62.6445C359.19 63.124 359.862 64.2902 359.862 65.2484V106.561C359.862 107.52 359.19 107.908 358.361 107.429L312.085 80.6634C311.256 80.1839 310.583 79.0178 310.583 78.0595V36.7468C310.583 35.7885 311.255 35.3995 312.084 35.8791Z" fill="#151515"/>
<path d="M310.583 63.5295L302.685 55.9161C301.9 55.1594 302.58 53.8437 303.65 54.05L310.583 55.3862L310.583 63.5295Z" fill="#151515"/>
<path d="M334.36 70.5579C334.551 70.7327 334.545 71.0319 334.545 71.0319C334.545 77.4972 339.165 85.2634 344.681 88.6201C350.42 92.1123 354.977 89.5012 354.817 82.7571C354.672 76.6571 350.767 69.2846 345.613 65.7571L345.92 65.5799V65.0634C351.359 68.9224 355.598 76.7295 355.598 83.2083C355.598 90.1713 350.701 93.0036 344.681 89.5225C338.662 86.0414 333.715 77.5146 333.764 70.5807C333.818 70.3201 334.172 70.3862 334.36 70.5579Z" fill="#3D3D3D"/>
<path d="M332.679 70.013C332.679 62.428 338.014 59.3421 344.572 63.1351C347.448 64.7981 350.223 67.6067 352.388 71.0437L350.592 72.3855C348.925 69.739 346.787 67.5752 344.572 66.2941C339.521 63.3721 335.412 65.75 335.412 71.5933C335.412 77.4367 339.522 84.5674 344.572 87.4895C349.624 90.4107 353.733 88.0343 353.733 82.191L356.464 83.7706C356.464 91.3556 351.129 94.4406 344.572 90.6485C338.014 86.854 332.679 77.5981 332.679 70.013Z" fill="#7ADEFF"/>
<path d="M344.564 68.8941C348.384 71.1035 351.481 76.4768 351.481 80.8957C351.481 85.3146 348.384 87.1059 344.564 84.8965C340.744 82.687 337.647 77.3138 337.647 72.8949C337.646 68.476 340.743 66.6846 344.564 68.8941Z" fill="#3D3D3D"/>
<path d="M317.262 48.1815L329.09 55.0225C329.712 55.3823 330.215 56.18 330.215 56.8052C330.215 57.4304 329.712 57.6453 329.09 57.2863L317.261 50.4453C316.64 50.0854 316.136 49.287 316.136 48.6626C316.137 48.0374 316.64 47.8217 317.262 48.1815Z" fill="#7ADEFF"/>
<path d="M317.262 54.0382L329.09 60.8792C329.712 61.239 330.215 62.0366 330.215 62.6618C330.215 63.287 329.712 63.502 329.09 63.1429L317.261 56.302C316.64 55.9421 316.136 55.1437 316.136 54.5193C316.137 53.8941 316.64 53.6783 317.262 54.0382Z" fill="#7ADEFF"/>
<path d="M317.262 59.8957L329.09 66.7366C329.712 67.0965 330.215 67.8941 330.215 68.5193C330.215 69.1445 329.712 69.3595 329.09 69.0004L317.261 62.1594C316.64 61.7996 316.136 61.0012 316.136 60.3768C316.137 59.7508 316.64 59.5358 317.262 59.8957Z" fill="#7ADEFF"/>
<path d="M317.262 65.7524L329.09 72.5934C329.712 72.9532 330.215 73.7509 330.215 74.3761C330.215 75.0013 329.712 75.2162 329.09 74.8572L317.261 68.0162C316.64 67.6564 316.136 66.8579 316.136 66.2335C316.137 65.6083 316.64 65.3926 317.262 65.7524Z" fill="#7ADEFF"/>
<path d="M317.262 71.6092L329.09 78.4501C329.712 78.81 330.215 79.6076 330.215 80.2328C330.215 80.858 329.712 81.073 329.09 80.7139L317.261 73.8729C316.64 73.5131 316.136 72.7147 316.136 72.0895C316.137 71.4651 316.64 71.2501 317.262 71.6092Z" fill="#7ADEFF"/>
<path d="M81.8025 34.7618L81.8033 26.6184L88.7358 25.2814C89.0345 25.224 89.297 25.2925 89.5116 25.4271L89.5155 25.4192L92.9723 27.4184L88.4725 28.331L81.8025 34.7618Z" fill="#3D3D3D"/>
<path d="M34.5435 80.6974L34.0247 80.3974C33.1955 79.9179 32.5234 78.7517 32.5234 77.7934V36.4807C32.5234 35.5217 33.1955 34.3555 34.0247 33.8768L80.3012 7.11136C81.1305 6.63183 82.4737 6.63183 83.303 7.11136L83.8209 7.41136C84.6502 7.89089 85.3222 9.05703 85.3222 10.0153V51.328C85.3222 52.2871 84.6502 53.4524 83.8209 53.932L37.5452 80.6974C36.7167 81.1769 35.3727 81.1769 34.5435 80.6974Z" fill="#3D3D3D"/>
<path d="M32.5242 63.2461V36.4807C32.5242 36.0011 32.6924 35.4704 32.9636 34.9988L39.5636 38.8161V79.5296L37.5444 80.6973C36.7152 81.1769 35.3719 81.1769 34.5435 80.6973L34.0231 80.3965C33.1947 79.917 32.5234 78.7517 32.5234 77.7934V63.2461H32.5242Z" fill="#7ADEFF"/>
<path d="M83.8217 9.14765L37.5459 35.9131C36.7167 36.3926 36.0447 37.5587 36.0447 38.517V79.8297C36.0447 80.7888 36.7167 81.177 37.5459 80.6974L83.8217 53.932C84.6509 53.4525 85.3229 52.2863 85.3229 51.3281V10.0154C85.3222 9.0563 84.6501 8.66812 83.8217 9.14765Z" fill="#151515"/>
<path d="M85.3223 36.798L93.2208 29.1838C94.006 28.4271 93.3253 27.1114 92.2556 27.3177L85.3231 28.6547L85.3223 36.798Z" fill="#151515"/>
<path d="M41.271 66.3871V52.6745C41.271 50.0516 42.6677 47.628 44.9353 46.3162C46.8917 45.1847 49.3581 46.4839 49.5358 48.7398C49.6757 50.5107 51.6226 51.5193 53.1459 50.6099C54.8381 49.5997 55.9142 47.8091 56.014 45.839L56.6216 33.8154C56.7269 31.7366 57.8705 29.8508 59.6642 28.8004C61.8901 27.4957 64.7079 29.0012 64.8659 31.5807L65.277 38.2768C65.3713 39.8114 67.0432 40.7107 68.3723 39.9422C70.1801 38.8965 71.3882 37.0555 71.6295 34.9776L71.9093 32.5689C72.1608 30.4043 73.4208 28.487 75.3064 27.4004C77.4215 26.1815 80.0601 27.7114 80.0601 30.1555V43.9532L41.271 66.3871Z" fill="#7ADEFF"/>
<path d="M45.4974 46.8855C45.3598 46.8855 45.249 46.7737 45.249 46.6367V46.1382C45.249 46.0004 45.3606 45.8894 45.4974 45.8894C45.6342 45.8894 45.7458 46.0012 45.7458 46.1382V46.6367C45.7466 46.7737 45.6349 46.8855 45.4974 46.8855Z" fill="#FAFAFA"/>
<path d="M45.4974 62.7044C45.3598 62.7044 45.249 62.5926 45.249 62.4555V61.4666C45.249 61.3288 45.3606 61.2177 45.4974 61.2177C45.6342 61.2177 45.7458 61.3296 45.7458 61.4666V62.4555C45.7466 62.5926 45.6349 62.7044 45.4974 62.7044ZM45.4974 60.7272C45.3598 60.7272 45.249 60.6154 45.249 60.4784V59.4894C45.249 59.3516 45.3606 59.2406 45.4974 59.2406C45.6342 59.2406 45.7458 59.3524 45.7458 59.4894V60.4784C45.7466 60.6154 45.6349 60.7272 45.4974 60.7272ZM45.4974 58.7492C45.3598 58.7492 45.249 58.6374 45.249 58.5004V57.5122C45.249 57.3744 45.3606 57.2634 45.4974 57.2634C45.6342 57.2634 45.7458 57.3752 45.7458 57.5122V58.5004C45.7466 58.6382 45.6349 58.7492 45.4974 58.7492ZM45.4974 56.7721C45.3598 56.7721 45.249 56.6603 45.249 56.5232V55.5351C45.249 55.3973 45.3606 55.2862 45.4974 55.2862C45.6342 55.2862 45.7458 55.398 45.7458 55.5351V56.5232C45.7466 56.6603 45.6349 56.7721 45.4974 56.7721ZM45.4974 54.7949C45.3598 54.7949 45.249 54.6831 45.249 54.5461V53.5571C45.249 53.4193 45.3606 53.3083 45.4974 53.3083C45.6342 53.3083 45.7458 53.4201 45.7458 53.5571V54.5461C45.7466 54.6831 45.6349 54.7949 45.4974 54.7949ZM45.4974 52.8169C45.3598 52.8169 45.249 52.7051 45.249 52.5681V51.5791C45.249 51.4413 45.3606 51.3303 45.4974 51.3303C45.6342 51.3303 45.7458 51.4421 45.7458 51.5791V52.5681C45.7466 52.7059 45.6349 52.8169 45.4974 52.8169ZM45.4974 50.8398C45.3598 50.8398 45.249 50.728 45.249 50.591V49.602C45.249 49.4642 45.3606 49.3531 45.4974 49.3531C45.6342 49.3531 45.7458 49.465 45.7458 49.602V50.591C45.7466 50.7287 45.6349 50.8398 45.4974 50.8398ZM45.4974 48.8626C45.3598 48.8626 45.249 48.7508 45.249 48.6138V47.6248C45.249 47.487 45.3606 47.376 45.4974 47.376C45.6342 47.376 45.7458 47.4878 45.7458 47.6248V48.6138C45.7466 48.7508 45.6349 48.8626 45.4974 48.8626Z" fill="#FAFAFA"/>
<path d="M45.4974 64.1919C45.3598 64.1919 45.249 64.08 45.249 63.943V63.4446C45.249 63.3068 45.3606 63.1958 45.4974 63.1958C45.6342 63.1958 45.7458 63.3076 45.7458 63.4446V63.943C45.7466 64.08 45.6349 64.1919 45.4974 64.1919Z" fill="#FAFAFA"/>
<path d="M45.4974 45.2871C45.091 45.5217 44.7625 46.0926 44.7625 46.5627C44.7625 47.0328 45.0918 47.2225 45.4974 46.9879C45.9037 46.7533 46.2323 46.1816 46.2323 45.7123C46.2331 45.2422 45.9037 45.0525 45.4974 45.2871Z" fill="#3D3D3D"/>
<path d="M60.6656 29.0799C60.5281 29.0799 60.4172 28.9681 60.4172 28.8311V28.3327C60.4172 28.1949 60.5288 28.0839 60.6656 28.0839C60.8032 28.0839 60.914 28.1957 60.914 28.3327V28.8311C60.9148 28.9681 60.8032 29.0799 60.6656 29.0799Z" fill="#FAFAFA"/>
<path d="M60.6656 53.8863C60.5281 53.8863 60.4172 53.7745 60.4172 53.6375V52.6036C60.4172 52.4658 60.5288 52.3548 60.6656 52.3548C60.8032 52.3548 60.914 52.4666 60.914 52.6036V53.6375C60.9148 53.7753 60.8032 53.8863 60.6656 53.8863ZM60.6656 51.8194C60.5281 51.8194 60.4172 51.7075 60.4172 51.5705V50.5367C60.4172 50.3989 60.5288 50.2879 60.6656 50.2879C60.8032 50.2879 60.914 50.3997 60.914 50.5367V51.5705C60.9148 51.7075 60.8032 51.8194 60.6656 51.8194ZM60.6656 49.7516C60.5281 49.7516 60.4172 49.6398 60.4172 49.5028V48.469C60.4172 48.3312 60.5288 48.2201 60.6656 48.2201C60.8032 48.2201 60.914 48.3319 60.914 48.469V49.5028C60.9148 49.6406 60.8032 49.7516 60.6656 49.7516ZM60.6656 47.6847C60.5281 47.6847 60.4172 47.5729 60.4172 47.4359V46.402C60.4172 46.2642 60.5288 46.1532 60.6656 46.1532C60.8032 46.1532 60.914 46.265 60.914 46.402V47.4359C60.9148 47.5729 60.8032 47.6847 60.6656 47.6847ZM60.6656 45.6178C60.5281 45.6178 60.4172 45.506 60.4172 45.3689V44.3351C60.4172 44.1973 60.5288 44.0863 60.6656 44.0863C60.8032 44.0863 60.914 44.1981 60.914 44.3351V45.3689C60.9148 45.506 60.8032 45.6178 60.6656 45.6178ZM60.6656 43.55C60.5281 43.55 60.4172 43.4382 60.4172 43.3012V42.2674C60.4172 42.1296 60.5288 42.0185 60.6656 42.0185C60.8032 42.0185 60.914 42.1303 60.914 42.2674V43.3012C60.9148 43.439 60.8032 43.55 60.6656 43.55ZM60.6656 41.4831C60.5281 41.4831 60.4172 41.3713 60.4172 41.2343V40.2004C60.4172 40.0626 60.5288 39.9516 60.6656 39.9516C60.8032 39.9516 60.914 40.0634 60.914 40.2004V41.2343C60.9148 41.3713 60.8032 41.4831 60.6656 41.4831ZM60.6656 39.4154C60.5281 39.4154 60.4172 39.3036 60.4172 39.1666V38.1327C60.4172 37.9949 60.5288 37.8839 60.6656 37.8839C60.8032 37.8839 60.914 37.9957 60.914 38.1327V39.1666C60.9148 39.3044 60.8032 39.4154 60.6656 39.4154ZM60.6656 37.3484C60.5281 37.3484 60.4172 37.2366 60.4172 37.0996V36.0658C60.4172 35.928 60.5288 35.817 60.6656 35.817C60.8032 35.817 60.914 35.9288 60.914 36.0658V37.0996C60.9148 37.2374 60.8032 37.3484 60.6656 37.3484ZM60.6656 35.2815C60.5281 35.2815 60.4172 35.1697 60.4172 35.0327V33.9988C60.4172 33.861 60.5288 33.75 60.6656 33.75C60.8032 33.75 60.914 33.8618 60.914 33.9988V35.0327C60.9148 35.1697 60.8032 35.2815 60.6656 35.2815ZM60.6656 33.2138C60.5281 33.2138 60.4172 33.102 60.4172 32.965V31.9311C60.4172 31.7933 60.5288 31.6823 60.6656 31.6823C60.8032 31.6823 60.914 31.7941 60.914 31.9311V32.965C60.9148 33.1028 60.8032 33.2138 60.6656 33.2138ZM60.6656 31.1469C60.5281 31.1469 60.4172 31.035 60.4172 30.898V29.8642C60.4172 29.7264 60.5288 29.6154 60.6656 29.6154C60.8032 29.6154 60.914 29.7272 60.914 29.8642V30.898C60.9148 31.035 60.8032 31.1469 60.6656 31.1469Z" fill="#FAFAFA"/>
<path d="M60.6656 55.4186C60.5281 55.4186 60.4172 55.3067 60.4172 55.1697V54.6713C60.4172 54.5335 60.5288 54.4225 60.6656 54.4225C60.8032 54.4225 60.914 54.5343 60.914 54.6713V55.1697C60.9148 55.3075 60.8032 55.4186 60.6656 55.4186Z" fill="#FAFAFA"/>
<path d="M60.6656 27.4815C60.2592 27.7162 59.9307 28.2878 59.9307 28.7571C59.9307 29.2272 60.26 29.417 60.6656 29.1823C61.0719 28.9477 61.4005 28.376 61.4005 27.9067C61.4013 27.4374 61.0719 27.2469 60.6656 27.4815Z" fill="#3D3D3D"/>
<path d="M75.8534 27.9138C75.7158 27.9138 75.605 27.802 75.605 27.665V27.1665C75.605 27.0288 75.7166 26.9177 75.8534 26.9177C75.9909 26.9177 76.1017 27.0295 76.1017 27.1665V27.665C76.1017 27.8028 75.9901 27.9138 75.8534 27.9138Z" fill="#FAFAFA"/>
<path d="M75.8534 45.1769C75.7158 45.1769 75.605 45.0651 75.605 44.928V43.969C75.605 43.8312 75.7166 43.7202 75.8534 43.7202C75.9909 43.7202 76.1017 43.832 76.1017 43.969V44.928C76.1017 45.0658 75.9901 45.1769 75.8534 45.1769ZM75.8534 43.2587C75.7158 43.2587 75.605 43.1469 75.605 43.0099V42.0509C75.605 41.9131 75.7166 41.8021 75.8534 41.8021C75.9909 41.8021 76.1017 41.9139 76.1017 42.0509V43.0099C76.1017 43.1477 75.9901 43.2587 75.8534 43.2587ZM75.8534 41.3406C75.7158 41.3406 75.605 41.2288 75.605 41.0918V40.1327C75.605 39.995 75.7166 39.8839 75.8534 39.8839C75.9909 39.8839 76.1017 39.9957 76.1017 40.1327V41.0918C76.1017 41.2296 75.9901 41.3406 75.8534 41.3406ZM75.8534 39.4225C75.7158 39.4225 75.605 39.3107 75.605 39.1737V38.2146C75.605 38.0768 75.7166 37.9658 75.8534 37.9658C75.9909 37.9658 76.1017 38.0776 76.1017 38.2146V39.1737C76.1017 39.3115 75.9901 39.4225 75.8534 39.4225ZM75.8534 37.5044C75.7158 37.5044 75.605 37.3926 75.605 37.2556V36.2965C75.605 36.1587 75.7166 36.0477 75.8534 36.0477C75.9909 36.0477 76.1017 36.1595 76.1017 36.2965V37.2556C76.1017 37.3934 75.9901 37.5044 75.8534 37.5044ZM75.8534 35.5863C75.7158 35.5863 75.605 35.4745 75.605 35.3375V34.3784C75.605 34.2406 75.7166 34.1296 75.8534 34.1296C75.9909 34.1296 76.1017 34.2414 76.1017 34.3784V35.3375C76.1017 35.4745 75.9901 35.5863 75.8534 35.5863ZM75.8534 33.6682C75.7158 33.6682 75.605 33.5564 75.605 33.4193V32.4603C75.605 32.3225 75.7166 32.2115 75.8534 32.2115C75.9909 32.2115 76.1017 32.3233 76.1017 32.4603V33.4193C76.1017 33.5564 75.9901 33.6682 75.8534 33.6682ZM75.8534 31.7501C75.7158 31.7501 75.605 31.6382 75.605 31.5012V30.5422C75.605 30.4044 75.7166 30.2934 75.8534 30.2934C75.9909 30.2934 76.1017 30.4052 76.1017 30.5422V31.5012C76.1017 31.639 75.9901 31.7501 75.8534 31.7501ZM75.8534 29.8319C75.7158 29.8319 75.605 29.7201 75.605 29.5831V28.6241C75.605 28.4863 75.7166 28.3752 75.8534 28.3752C75.9909 28.3752 76.1017 28.4871 76.1017 28.6241V29.5831C76.1017 29.7201 75.9901 29.8319 75.8534 29.8319Z" fill="#FAFAFA"/>
<path d="M75.8534 46.6344C75.7158 46.6344 75.605 46.5226 75.605 46.3856V45.8871C75.605 45.7493 75.7166 45.6383 75.8534 45.6383C75.9909 45.6383 76.1017 45.7501 76.1017 45.8871V46.3856C76.1017 46.5234 75.9901 46.6344 75.8534 46.6344Z" fill="#FAFAFA"/>
<path d="M75.8526 26.3161C75.447 26.5508 75.1177 27.1224 75.1177 27.5917C75.1177 28.0618 75.447 28.2516 75.8534 28.0169C76.2597 27.7823 76.5883 27.2106 76.5883 26.7413C76.5883 26.2713 76.259 26.0807 75.8526 26.3161Z" fill="#3D3D3D"/>
<path d="M41.2717 72.1659C41.1357 72.1659 41.0037 72.0958 40.9306 71.969C40.8221 71.7808 40.8866 71.5399 41.0744 71.4312L79.8635 48.9965C80.0498 48.8871 80.2911 48.9516 80.4004 49.1406C80.5088 49.3288 80.4444 49.5698 80.2565 49.6784L41.4674 72.1131C41.4061 72.1493 41.3385 72.1659 41.2717 72.1659Z" fill="#3D3D3D"/>
<path d="M166.642 185.522L120.366 212.287C119.537 212.767 118.865 213.933 118.865 214.891V215.491C118.865 216.45 119.537 217.616 120.366 218.095L166.643 244.86C167.472 245.339 168.816 245.339 169.645 244.86L215.921 218.095C216.75 217.615 217.422 216.449 217.422 215.491V214.891C217.422 213.932 216.75 212.767 215.921 212.287L169.645 185.522C168.816 185.042 167.471 185.042 166.642 185.522Z" fill="#7ADEFF"/>
<path opacity="0.7" d="M166.642 185.522L120.366 212.287C119.537 212.767 118.865 213.933 118.865 214.891V215.491C118.865 216.45 119.537 217.616 120.366 218.095L166.643 244.86C167.472 245.339 168.816 245.339 169.645 244.86L215.921 218.095C216.75 217.615 217.422 216.449 217.422 215.491V214.891C217.422 213.932 216.75 212.767 215.921 212.287L169.645 185.522C168.816 185.042 167.471 185.042 166.642 185.522Z" fill="#FAFAFA"/>
<path d="M122.386 211.12L120.366 212.287C119.537 212.767 118.866 213.933 118.866 214.891V215.491C118.866 216.45 119.538 217.615 120.366 218.095L166.643 244.86C167.058 245.099 167.601 245.22 168.143 245.22V237.585L122.386 211.12Z" fill="#7ADEFF"/>
<path opacity="0.6" d="M122.386 211.12L120.366 212.287C119.537 212.767 118.866 213.933 118.866 214.891V215.491C118.866 216.45 119.538 217.615 120.366 218.095L166.643 244.86C167.058 245.099 167.601 245.22 168.143 245.22V237.585L122.386 211.12Z" fill="#FAFAFA"/>
<path d="M166.642 185.522L120.367 212.287C119.537 212.767 119.537 213.544 120.367 214.024L166.643 240.789C167.472 241.269 168.816 241.269 169.645 240.789L215.921 214.024C216.75 213.544 216.75 212.767 215.921 212.287L169.644 185.522C168.816 185.042 167.472 185.042 166.642 185.522Z" fill="#7ADEFF"/>
<path opacity="0.8" d="M166.642 185.522L120.367 212.287C119.537 212.767 119.537 213.544 120.367 214.024L166.643 240.789C167.472 241.269 168.816 241.269 169.645 240.789L215.921 214.024C216.75 213.544 216.75 212.767 215.921 212.287L169.644 185.522C168.816 185.042 167.472 185.042 166.642 185.522Z" fill="#FAFAFA"/>
<path fill-rule="evenodd" clip-rule="evenodd" d="M165.979 213.36L144.266 215.349C142.179 207.724 151.172 200.565 164.356 199.357C172.265 198.632 179.562 200.003 185.225 203.279L170.012 212.077C168.976 212.676 167.17 213.251 165.979 213.36Z" fill="#3D3D3D"/>
<path d="M144.266 216.137C143.916 216.137 143.603 215.902 143.509 215.558C142.763 212.835 143.293 210.061 145.041 207.535C148.369 202.722 155.563 199.372 164.284 198.573C172.4 197.831 179.78 199.221 185.618 202.597C185.861 202.738 186.011 202.998 186.011 203.279C186.011 203.56 185.861 203.82 185.618 203.961L170.405 212.76C169.268 213.417 167.356 214.025 166.05 214.145L144.338 216.134C144.314 216.136 144.29 216.137 144.266 216.137ZM168.482 199.952C167.156 199.952 165.803 200.015 164.427 200.141C156.288 200.886 149.353 204.062 146.333 208.43C144.997 210.361 144.501 212.447 144.879 214.502L165.907 212.576C166.983 212.477 168.684 211.937 169.62 211.395L183.617 203.3C179.281 201.088 174.127 199.952 168.482 199.952Z" fill="#FAFAFA"/>
<path fill-rule="evenodd" clip-rule="evenodd" d="M169.569 214.79L179.107 225.617C167.215 229.122 152.662 226.387 146.602 219.509C145.39 218.133 144.684 216.874 144.266 215.35L165.978 213.361C167.17 213.251 168.778 213.891 169.569 214.79Z" fill="#7ADEFF"/>
<path d="M168.222 227.917C159.178 227.917 150.42 225.03 146.014 220.029C144.729 218.571 143.956 217.191 143.509 215.557C143.448 215.332 143.488 215.091 143.621 214.9C143.754 214.709 143.964 214.586 144.195 214.564L165.907 212.575C167.336 212.443 169.208 213.187 170.16 214.267L179.698 225.095C179.875 225.297 179.938 225.575 179.864 225.834C179.789 226.092 179.588 226.295 179.33 226.371C175.773 227.421 171.971 227.917 168.222 227.917ZM145.322 216.043C145.721 217.066 146.31 217.986 147.192 218.987C152.859 225.418 166.314 228.096 177.685 225.191L168.98 215.31C168.357 214.602 166.987 214.053 166.051 214.144L145.322 216.043Z" fill="#FAFAFA"/>
<path fill-rule="evenodd" clip-rule="evenodd" d="M170.293 212.965L192.006 210.976C193.676 217.076 188.622 222.813 179.107 225.617L169.569 214.789C168.778 213.891 169.102 213.074 170.293 212.965Z" fill="#3D3D3D"/>
<path d="M179.108 226.404C178.887 226.404 178.67 226.309 178.519 226.138L168.981 215.31C168.401 214.651 168.21 213.915 168.458 213.29C168.706 212.665 169.349 212.26 170.222 212.18L191.935 210.191C192.315 210.154 192.664 210.4 192.765 210.767C194.557 217.313 189.284 223.439 179.331 226.372C179.257 226.394 179.182 226.404 179.108 226.404ZM170.366 213.749C170.064 213.776 169.932 213.86 169.91 213.886C169.92 213.891 169.959 214.041 170.159 214.268L179.363 224.717C187.773 222.107 192.4 217.127 191.395 211.822L170.366 213.749Z" fill="#FAFAFA"/>
<path fill-rule="evenodd" clip-rule="evenodd" d="M170.012 212.077L185.225 203.279C189 205.462 191.17 207.926 192.006 210.976L170.293 212.965C169.102 213.074 168.976 212.676 170.012 212.077Z" fill="#3D3D3D"/>
<path d="M169.939 213.772C169.447 213.772 168.77 213.662 168.569 213.025C168.295 212.161 169.292 211.585 169.62 211.396L184.833 202.597C185.075 202.457 185.375 202.457 185.619 202.597C189.597 204.898 191.868 207.495 192.765 210.768C192.826 210.992 192.785 211.233 192.653 211.424C192.52 211.616 192.31 211.739 192.079 211.761L170.366 213.75C170.266 213.758 170.114 213.772 169.939 213.772ZM185.221 204.19L171.628 212.052L190.951 210.281C190.049 207.943 188.201 205.983 185.221 204.19Z" fill="#FAFAFA"/>
<path opacity="0.1" d="M132.959 205.013L182.239 233.513L215.938 214.022C216.764 213.543 216.763 212.767 215.936 212.288L172.65 187.252L169.66 185.522C168.83 185.042 167.486 185.042 166.658 185.522L132.959 205.013Z" fill="#161616"/>
<path d="M180.722 161.093L134.446 187.858C133.617 188.338 132.945 189.504 132.945 190.462V191.061C132.945 192.02 133.617 193.186 134.446 193.665L180.723 220.431C181.552 220.91 182.895 220.91 183.724 220.431L230 193.665C230.829 193.186 231.501 192.02 231.501 191.061V190.462C231.501 189.503 230.829 188.338 230.001 187.858L183.724 161.093C182.894 160.613 181.55 160.613 180.722 161.093Z" fill="#7ADEFF"/>
<path opacity="0.7" d="M180.722 161.093L134.446 187.858C133.617 188.338 132.945 189.504 132.945 190.462V191.061C132.945 192.02 133.617 193.186 134.446 193.665L180.723 220.431C181.552 220.91 182.895 220.91 183.724 220.431L230 193.665C230.829 193.186 231.501 192.02 231.501 191.061V190.462C231.501 189.503 230.829 188.338 230.001 187.858L183.724 161.093C182.894 160.613 181.55 160.613 180.722 161.093Z" fill="#FAFAFA"/>
<path d="M136.465 186.691L134.445 187.858C133.616 188.338 132.945 189.504 132.945 190.462V191.061C132.945 192.02 133.617 193.186 134.445 193.665L180.722 220.431C181.136 220.67 181.68 220.791 182.222 220.791V213.156L136.465 186.691Z" fill="#7ADEFF"/>
<path opacity="0.6" d="M136.465 186.691L134.445 187.858C133.616 188.338 132.945 189.504 132.945 190.462V191.061C132.945 192.02 133.617 193.186 134.445 193.665L180.722 220.431C181.136 220.67 181.68 220.791 182.222 220.791V213.156L136.465 186.691Z" fill="#FAFAFA"/>
<path d="M180.722 161.093L134.446 187.858C133.617 188.338 133.617 189.115 134.446 189.594L180.723 216.36C181.552 216.839 182.895 216.839 183.724 216.36L230 189.594C230.829 189.115 230.829 188.338 230 187.858L183.724 161.093C182.894 160.613 181.55 160.613 180.722 161.093Z" fill="#7ADEFF"/>
<path opacity="0.8" d="M180.722 161.093L134.446 187.858C133.617 188.338 133.617 189.115 134.446 189.594L180.723 216.36C181.552 216.839 182.895 216.839 183.724 216.36L230 189.594C230.829 189.115 230.829 188.338 230 187.858L183.724 161.093C182.894 160.613 181.55 160.613 180.722 161.093Z" fill="#FAFAFA"/>
<path d="M161.103 180.567L170.599 178.736C171.186 178.623 171.662 179.017 171.662 179.616V181.518C171.662 182.117 172.144 182.547 172.738 182.479L188.186 180.692C188.78 180.623 189.103 181.027 188.907 181.593L186.097 189.721C185.901 190.287 186.227 190.746 186.825 190.746H198.739C199.337 190.746 199.663 191.205 199.467 191.772L196.302 200.925L182.222 209.068L147.024 188.71L161.103 180.567Z" fill="#3D3D3D"/>
<path d="M182.222 209.068L192.781 202.961L195.947 193.807C196.142 193.243 195.822 192.874 195.238 192.986L176.246 196.648C175.661 196.761 175.342 196.391 175.537 195.827L178.347 187.699C178.542 187.135 178.218 186.73 177.626 186.798L162.179 188.585C161.587 188.653 161.346 188.286 161.644 187.77L164.081 183.542C164.379 183.025 164.144 182.694 163.559 182.807L154.063 184.638L147.024 188.709L182.222 209.068Z" fill="#7ADEFF"/>
<path opacity="0.1" d="M147.023 180.583L196.303 209.084L230.002 189.593C230.828 189.113 230.827 188.338 230 187.859L186.713 162.823L183.723 161.093C182.894 160.613 181.55 160.613 180.721 161.093L147.023 180.583Z" fill="#161616"/>
<path d="M194.801 136.663L148.525 163.428C147.696 163.908 147.024 165.074 147.024 166.032V166.631C147.024 167.59 147.696 168.756 148.525 169.235L194.801 196.001C195.631 196.48 196.974 196.48 197.803 196.001L244.079 169.235C244.908 168.756 245.58 167.59 245.58 166.631V166.032C245.58 165.073 244.908 163.908 244.08 163.428L197.804 136.663C196.973 136.183 195.629 136.183 194.801 136.663Z" fill="#7ADEFF"/>
<path opacity="0.7" d="M194.801 136.663L148.525 163.428C147.696 163.908 147.024 165.074 147.024 166.032V166.631C147.024 167.59 147.696 168.756 148.525 169.235L194.801 196.001C195.631 196.48 196.974 196.48 197.803 196.001L244.079 169.235C244.908 168.756 245.58 167.59 245.58 166.631V166.032C245.58 165.073 244.908 163.908 244.08 163.428L197.804 136.663C196.973 136.183 195.629 136.183 194.801 136.663Z" fill="#FAFAFA"/>
<path d="M150.543 162.26L148.524 163.428C147.696 163.908 147.024 165.074 147.024 166.032V166.631C147.024 167.59 147.696 168.756 148.524 169.235L194.801 196.001C195.215 196.24 195.759 196.361 196.301 196.361V188.726L150.543 162.26Z" fill="#7ADEFF"/>
<path opacity="0.6" d="M150.543 162.26L148.524 163.428C147.696 163.908 147.024 165.074 147.024 166.032V166.631C147.024 167.59 147.696 168.756 148.524 169.235L194.801 196.001C195.215 196.24 195.759 196.361 196.301 196.361V188.726L150.543 162.26Z" fill="#FAFAFA"/>
<path d="M194.801 136.663L148.525 163.428C147.696 163.908 147.696 164.685 148.525 165.164L194.802 191.93C195.631 192.409 196.974 192.409 197.803 191.93L244.079 165.164C244.908 164.685 244.908 163.908 244.079 163.428L197.803 136.663C196.973 136.183 195.629 136.183 194.801 136.663Z" fill="#7ADEFF"/>
<path opacity="0.8" d="M194.801 136.663L148.525 163.428C147.696 163.908 147.696 164.685 148.525 165.164L194.802 191.93C195.631 192.409 196.974 192.409 197.803 191.93L244.079 165.164C244.908 164.685 244.908 163.908 244.079 163.428L197.803 136.663C196.973 136.183 195.629 136.183 194.801 136.663Z" fill="#FAFAFA"/>
<path d="M164.51 161.327L187.666 147.945C188.08 147.706 188.752 147.706 189.167 147.946L192.914 150.115C193.328 150.354 193.328 150.743 192.914 150.982L169.758 164.364C169.344 164.603 168.672 164.603 168.257 164.363L164.51 162.195C164.095 161.955 164.095 161.566 164.51 161.327Z" fill="#7ADEFF"/>
<path d="M175.069 167.434L191.168 158.123C191.582 157.883 192.254 157.883 192.668 158.123L196.415 160.291C196.829 160.531 196.829 160.919 196.415 161.16L180.316 170.47C179.902 170.709 179.23 170.709 178.816 170.47L175.069 168.302C174.655 168.062 174.655 167.673 175.069 167.434Z" fill="#3D3D3D"/>
<path d="M185.628 173.541L212.286 158.123C212.7 157.883 213.372 157.883 213.786 158.123L217.533 160.291C217.948 160.531 217.948 160.919 217.533 161.16L190.875 176.578C190.461 176.818 189.789 176.817 189.375 176.578L185.628 174.409C185.214 174.169 185.214 173.78 185.628 173.541Z" fill="#3D3D3D"/>
<path d="M196.188 179.648L208.766 172.372C209.181 172.133 209.853 172.133 210.267 172.372L214.014 174.541C214.428 174.781 214.428 175.169 214.014 175.409L201.435 182.684C201.021 182.923 200.349 182.923 199.935 182.684L196.188 180.516C195.773 180.276 195.773 179.888 196.188 179.648Z" fill="#3D3D3D"/>
<path d="M294.993 177.954C294.935 177.768 296.488 157.152 306.588 147.171C316.686 137.19 325.72 140.214 327.673 143.591C329.626 146.968 328.189 148.852 320.564 153.941C313.645 158.559 305.054 164.983 300.938 178.546L294.993 177.954Z" fill="#7ADEFF"/>
<path opacity="0.2" d="M294.993 177.954C294.935 177.768 296.488 157.152 306.588 147.171C316.686 137.19 325.72 140.214 327.673 143.591C329.626 146.968 328.189 148.852 320.564 153.941C313.645 158.559 305.054 164.983 300.938 178.546L294.993 177.954Z" fill="#161616"/>
<path d="M297.479 178.596C297.46 178.596 297.44 178.594 297.421 178.592C297.207 178.56 297.058 178.36 297.089 178.145C300.407 155.389 316.062 143.829 323.315 142.955C323.528 142.921 323.726 143.082 323.752 143.298C323.778 143.514 323.625 143.71 323.409 143.736C316.357 144.586 301.124 155.919 297.867 178.26C297.838 178.455 297.671 178.596 297.479 178.596Z" fill="#FAFAFA"/>
<path d="M299.191 198.771C301.053 197.542 303.764 196.453 306.885 198.332C310.006 200.212 314.471 200.371 316.997 198.771C319.523 197.17 320.424 193.326 320.194 190.634C319.965 187.943 320.888 185.342 323.765 185.342C326.642 185.342 332.057 185.543 334.052 182.32C336.047 179.098 331.543 175.635 330.556 174.488C328.821 172.469 330.803 169.845 333.321 167.596C336.086 165.127 336.843 159.871 331.835 159.089C326.827 158.305 319.174 162.854 315.261 164.394C309.351 166.719 309.689 163.545 306.034 163.331C301.613 163.073 300.256 166.183 299.918 170.144C299.537 174.615 297.521 175.893 297.521 175.893L299.191 198.771Z" fill="#7ADEFF"/>
<path d="M298.534 190.168C298.489 190.168 298.442 190.16 298.398 190.143C298.194 190.067 298.09 189.841 298.166 189.637C301.09 181.756 319.781 165.569 330.422 161.701C330.628 161.626 330.852 161.732 330.926 161.937C331.001 162.141 330.895 162.367 330.691 162.441C320.425 166.172 301.71 182.346 298.903 189.912C298.843 190.07 298.694 190.168 298.534 190.168Z" fill="#FAFAFA"/>
<path d="M325.662 178.638C325.592 178.638 325.522 178.62 325.458 178.582C321.81 176.37 313.304 175.484 309.49 176.916C309.289 176.995 309.061 176.89 308.984 176.686C308.907 176.482 309.01 176.256 309.214 176.18C313.274 174.652 321.989 175.558 325.865 177.908C326.051 178.021 326.11 178.263 325.998 178.449C325.924 178.571 325.794 178.638 325.662 178.638Z" fill="#FAFAFA"/>
<path d="M307.131 179.051C306.918 179.051 306.743 178.88 306.738 178.666C306.581 171.275 304.624 167.911 304.603 167.878C304.492 167.691 304.553 167.449 304.738 167.338C304.923 167.228 305.164 167.286 305.277 167.472C305.362 167.613 307.362 171.022 307.524 178.649C307.529 178.867 307.357 179.047 307.14 179.052C307.136 179.051 307.133 179.051 307.131 179.051Z" fill="#FAFAFA"/>
<path d="M100.931 143.704C100.55 138.963 96.9026 130.877 91.4989 125.117C86.0951 119.357 77.4499 116.583 72.1169 118.904C67.1502 121.066 68.2419 127.734 74.7956 131.683C81.3493 135.632 91.113 140.469 94.455 147.939L100.93 156.912V143.704H100.931Z" fill="#7ADEFF"/>
<path opacity="0.2" d="M100.931 143.704C100.55 138.963 96.9026 130.877 91.4989 125.117C86.0951 119.357 77.4499 116.583 72.1169 118.904C67.1502 121.066 68.2419 127.734 74.7956 131.683C81.3493 135.632 91.113 140.469 94.455 147.939L100.93 156.912V143.704H100.931Z" fill="#161616"/>
<path d="M100.929 152.195C100.951 152.195 100.974 152.194 100.996 152.19C101.267 152.155 101.457 151.905 101.42 151.634C98.9281 133.117 79.9776 121.738 74.298 120.653C74.0308 120.602 73.7722 120.778 73.7195 121.047C73.6684 121.315 73.8445 121.575 74.1125 121.626C79.6224 122.678 98.0148 133.743 100.44 151.766C100.473 152.015 100.686 152.195 100.929 152.195Z" fill="#FAFAFA"/>
<path d="M102.595 159.445C102.595 159.445 99.5162 162.998 93.7068 164.714C87.8983 166.43 84.9107 163.931 84.9107 163.931C84.9107 163.931 86.5204 158.053 89.6849 156.049C89.6849 156.049 84.1263 157.961 79.9416 161.624C79.9416 161.624 76.3268 162.153 74.1645 156.804C74.1645 156.804 75.8764 153.191 82.8412 150.45C82.8412 150.45 78.3177 149.919 72.2152 152.356C71.7664 152.606 68.8166 145.71 67.7767 142.487C66.736 139.264 68.0659 139.126 70.5466 138.102C73.0272 137.078 81.7243 135.503 83.5179 136.708C85.3116 137.915 86.7594 142.65 86.7594 142.65C86.7594 142.65 87.9415 139.708 87.2546 137.311C87.2546 137.311 89.7218 136.096 92.74 136.727C95.7591 137.358 96.3729 139.323 97.0544 141.333C97.7351 143.343 98.6437 147.449 97.7115 149.46C97.7115 149.46 99.8879 146.859 98.2813 140.615C98.2813 140.615 101.333 141.744 103.274 144.415C105.218 147.086 105.8 154.662 102.595 159.445Z" fill="#7ADEFF"/>
<path d="M102.595 159.838C102.467 159.838 102.341 159.775 102.266 159.66C96.1913 150.336 76.917 141.099 70.3901 140.69C70.1739 140.676 70.0089 140.49 70.0222 140.273C70.0356 140.056 70.2242 139.883 70.4388 139.904C77.0915 140.32 96.736 149.73 102.924 159.229C103.043 159.411 102.991 159.655 102.809 159.774C102.743 159.818 102.669 159.838 102.595 159.838Z" fill="#FAFAFA"/>
<path d="M287.663 48.3932C288.802 43.818 286.023 39.1839 281.456 38.0428C276.889 36.9017 272.263 39.6857 271.124 44.2609C269.985 48.8362 272.764 53.4702 277.331 54.6113C281.898 55.7524 286.524 52.9685 287.663 48.3932Z" fill="#3D3D3D"/>
<path d="M299.79 190.796H293.786V201.091H299.79V190.796Z" fill="#FFBC96"/>
<path d="M278.975 190.247L272.975 190.454L272.674 179.558L278.975 179.351V190.247Z" fill="#FFBC96"/>
<path d="M299.396 102.555C299.396 108.298 300.137 149.729 300.137 149.729C300.277 151.382 301.824 154.428 301.489 160.776C301.034 169.398 300.047 195.944 300.047 195.944C300.047 195.944 297.132 197.651 293.363 196.076C293.363 196.076 288.065 160.806 286.99 152.261C286.051 144.805 284.458 124.546 284.458 124.546L281.204 148.891C281.204 148.891 282.311 153.338 281.948 158.448C281.668 162.4 279.356 186.872 279.356 186.872C279.356 186.872 276.531 188.792 272.424 187.403C272.424 187.403 269.39 152.516 269.321 148.89C269.242 144.756 271.318 102.554 271.318 102.554H299.396V102.555Z" fill="#3D3D3D"/>
<path d="M272.142 67.6005C268.622 70.4998 262.264 76.3817 262.264 76.3817L272.185 81.851L278.485 64.9013C278.485 64.9013 276.012 64.4116 272.142 67.6005Z" fill="#7ADEFF"/>
<path opacity="0.2" d="M272.142 67.6005C268.622 70.4998 262.264 76.3817 262.264 76.3817L272.185 81.851L278.485 64.9013C278.485 64.9013 276.012 64.4116 272.142 67.6005Z" fill="#161616"/>
<path d="M297.354 69.0336C297.354 69.0336 299.6 71.2864 299.6 76.7431V88.5266L299.772 110.777C291.155 115.327 280.274 115.591 271.081 108.866C271.081 108.866 271.521 80.2659 271.521 75.5809C271.521 70.8966 274.128 64.8069 281.301 64.3895L290.563 66.5446L297.354 69.0336Z" fill="#7ADEFF"/>
<path d="M294.112 52.3965C294.112 52.3965 292.731 58.8965 292.177 59.965C291.623 61.0327 290.479 61.3367 290.479 61.3367L290.575 56.7642L294.112 52.3965Z" fill="#3D3D3D"/>
<path d="M292.379 43.0847C292.379 43.0847 293.866 42.8296 295.027 44.017C296.163 45.1816 295.528 48.8264 294.112 52.3965L291.511 52.6957L292.379 43.0847Z" fill="#3D3D3D"/>
<path d="M290.731 52.6982C291.253 53.01 291.996 52.0068 292.64 51.332C293.283 50.658 295.383 49.7367 296.431 51.9478C297.498 54.2013 295.506 57.1793 293.853 57.699C291.004 58.595 290.576 56.7643 290.576 56.7643L290.358 67.0604L280.483 73.5833C280.483 73.5833 279.844 70.0014 281.088 66.788L281.096 63.6541C281.096 63.6541 278.515 64.047 277.255 63.8517C275.16 63.5273 273.841 61.8706 273.206 59.599C272.185 55.9494 271.797 53.0029 272.663 45.8249C273.613 37.958 282.747 37.8761 287.679 40.9863C292.612 44.0958 290.731 52.6982 290.731 52.6982Z" fill="#FFBC96"/>
<path d="M280.484 73.5832L290.391 65.5021L290.419 64.2061C290.419 64.2061 292.72 64.6651 293.017 67.8895L287.003 77.0659L284.459 72.284L280.484 73.5832Z" fill="#7ADEFF"/>
<path d="M281.096 63.6541C281.096 63.6541 278.955 63.9391 278.014 65.5013C277.074 67.0635 275.362 73.5824 275.362 73.5824L278.564 71.1068L280.482 73.5824C280.281 71.595 280.467 69.3399 281.088 66.7871L281.096 63.6541Z" fill="#7ADEFF"/>
<g opacity="0.2">
<path d="M280.484 73.5832L290.391 65.5021L290.419 64.2061C290.419 64.2061 292.72 64.6651 293.017 67.8895L287.003 77.0659L284.459 72.284L280.484 73.5832Z" fill="#161616"/>
<path d="M281.096 63.6541C281.096 63.6541 278.955 63.9391 278.014 65.5013C277.074 67.0635 275.362 73.5824 275.362 73.5824L278.564 71.1068L280.482 73.5824C280.281 71.595 280.467 69.3399 281.088 66.7871L281.096 63.6541Z" fill="#161616"/>
</g>
<path d="M290.731 53.5777C290.994 53.5824 291.991 51.9241 292.64 51.332C293.54 50.5115 292.379 43.0847 292.379 43.0847C292.379 43.0847 293.244 41.239 291.511 39.328C290.278 37.969 288.218 37.8178 284.701 37.2642C282.855 36.9737 280.058 36.4564 278.216 36.113C276.015 35.7036 274.194 35.2697 272.64 36.6217C271.431 37.6745 270.91 39.5343 271.561 41.0005C271.714 41.3446 271.935 41.6548 272.186 41.9351C272.632 42.4312 273.136 42.8217 273.77 43.028C273.77 43.028 274.73 43.8808 278.067 44.2879C281.404 44.6949 286.604 44.2099 287.314 44.1123C288.282 43.9792 288.489 44.9194 289.01 47.4863C289.469 49.7406 289.849 53.5603 290.731 53.5777Z" fill="#3D3D3D"/>
<path d="M292.375 43.6626L295.529 41.9665C295.082 41.061 294.013 40.7067 293.141 41.1752C292.27 41.6437 291.927 42.7571 292.375 43.6626Z" fill="#3D3D3D"/>
<path d="M281.096 63.6541C281.096 63.6541 285.774 62.71 287.409 61.8391C288.504 61.2564 289.404 60.2462 289.669 59.5981C289.669 59.5981 289.363 60.9887 288.385 62.2407C287.189 63.7722 281.095 64.9005 281.095 64.9005L281.096 63.6541Z" fill="#FFBC96"/>
<path d="M282.22 51.5265C282.22 52.0651 282.64 52.5013 283.158 52.4998C283.676 52.4982 284.096 52.0604 284.096 51.5218C284.096 50.9832 283.676 50.5478 283.158 50.5486C282.64 50.5502 282.22 50.988 282.22 51.5265Z" fill="#3D3D3D"/>
<path d="M283.215 47.9816L285.22 49.0903C285.515 48.5131 285.306 47.7966 284.753 47.491C284.199 47.1847 283.51 47.4044 283.215 47.9816Z" fill="#3D3D3D"/>
<path d="M281.52 58.0132L279.38 58.8171C279.591 59.4313 280.242 59.7494 280.833 59.5274C281.425 59.3061 281.732 58.6274 281.52 58.0132Z" fill="#FFBC96"/>
<path d="M273.862 48.7635L275.69 47.3525C275.318 46.8281 274.605 46.7186 274.101 47.1084C273.596 47.4974 273.489 48.2383 273.862 48.7635Z" fill="#3D3D3D"/>
<path d="M274.425 51.2596C274.425 51.7982 274.845 52.2344 275.362 52.2328C275.88 52.2312 276.299 51.7934 276.299 51.2549C276.299 50.7163 275.88 50.28 275.362 50.2816C274.845 50.2824 274.425 50.7202 274.425 51.2596Z" fill="#3D3D3D"/>
<path d="M279.2 50.369L278.892 56.0163L275.949 55.0108L279.2 50.369Z" fill="#FFBC96"/>
<path d="M293.786 198.124V197.264C293.212 197.514 291.877 202.616 289.496 204.792C287.602 206.522 285.018 208.521 284.361 210.45C283.678 212.456 287.959 213.563 289.728 213.25C291.784 212.885 295.347 211.435 296.241 210.091C297.135 208.747 297.554 206.763 298.281 205.778C299.008 204.793 300.683 203.693 301.076 202.553C301.292 201.926 301.036 200.554 300.732 199.395C300.454 198.332 300.152 197.163 299.79 197.262C299.789 197.392 299.79 197.918 299.79 197.918C299.354 198.402 298.148 198.882 296.788 198.935C295.91 198.969 293.779 198.795 293.786 198.124Z" fill="#3D3D3D"/>
<path d="M272.912 188.599C272.6 188.61 272.346 189.05 271.659 189.796C270.828 190.697 269.469 191.669 268.127 192.342C265.879 193.469 261.509 195.203 259.531 196.096C258.295 196.654 258.353 198.149 259.631 199C260.908 199.851 263.991 200.464 267.695 199.635C269.712 199.183 272.338 197.317 274 197.417C275.663 197.518 278.772 197.495 279.999 196.647C281.226 195.8 280.735 193.991 280.388 192.436C280.01 190.739 279.536 188.094 278.976 188.209V188.795C278.254 189.89 274.529 190.335 272.944 189.529L272.912 188.599Z" fill="#3D3D3D"/>
<path d="M284.457 124.546C284.457 124.546 279.659 123.192 276.097 119.745C276.097 119.745 277.71 122.771 282.507 125.587L281.482 146.808L284.457 124.546Z" fill="#3D3D3D"/>
<path d="M277.163 142.057L277.682 141.757C278.511 141.278 279.182 140.112 279.182 139.153V85.6234C279.182 84.6644 278.51 83.4982 277.682 83.0195L231.405 56.2541C230.576 55.7745 229.233 55.7745 228.404 56.2541L227.886 56.5541C227.056 57.0336 226.385 58.1997 226.385 59.158V112.689C226.385 113.648 227.057 114.813 227.886 115.293L274.161 142.058C274.991 142.537 276.335 142.537 277.163 142.057Z" fill="#7ADEFF"/>
<path opacity="0.7" d="M277.163 142.057L277.682 141.757C278.511 141.278 279.182 140.112 279.182 139.153V85.6234C279.182 84.6644 278.51 83.4982 277.682 83.0195L231.405 56.2541C230.576 55.7745 229.233 55.7745 228.404 56.2541L227.886 56.5541C227.056 57.0336 226.385 58.1997 226.385 59.158V112.689C226.385 113.648 227.057 114.813 227.886 115.293L274.161 142.058C274.991 142.537 276.335 142.537 277.163 142.057Z" fill="#FAFAFA"/>
<path d="M279.183 112.388V85.6226C279.183 85.1431 279.015 84.6116 278.743 84.1407L272.143 87.9581V140.89L274.163 142.057C274.992 142.537 276.335 142.537 277.163 142.057L277.684 141.757C278.512 141.277 279.184 140.112 279.184 139.153V112.388H279.183Z" fill="#7ADEFF"/>
<path opacity="0.6" d="M279.183 112.388V85.6226C279.183 85.1431 279.015 84.6116 278.743 84.1407L272.143 87.9581V140.89L274.163 142.057C274.992 142.537 276.335 142.537 277.163 142.057L277.684 141.757C278.512 141.277 279.184 140.112 279.184 139.153V112.388H279.183Z" fill="#FAFAFA"/>
<path d="M227.886 58.2895L274.162 85.0549C274.991 85.5344 275.663 86.7006 275.663 87.6589V141.19C275.663 142.149 274.991 142.537 274.162 142.057L227.886 115.292C227.057 114.812 226.386 113.646 226.386 112.688V59.1572C226.384 58.1981 227.056 57.81 227.886 58.2895Z" fill="#7ADEFF"/>
<path opacity="0.8" d="M227.886 58.2895L274.162 85.0549C274.991 85.5344 275.663 86.7006 275.663 87.6589V141.19C275.663 142.149 274.991 142.537 274.162 142.057L227.886 115.292C227.057 114.812 226.386 113.646 226.386 112.688V59.1572C226.384 58.1981 227.056 57.81 227.886 58.2895Z" fill="#FAFAFA"/>
<path opacity="0.5" d="M231.664 107.146C233.106 107.98 235.313 108.145 236.979 104.072C238.645 99.9983 240.135 96.714 242.174 98.0872C243.596 99.0455 243.406 100.349 244.682 101.086C246.681 102.243 248.247 97.2644 248.953 92.6164C249.955 86.0187 250.926 84.2911 252.719 85.2848C255.386 86.7628 255.158 91.1518 255.158 95.1856C255.158 98.799 255.158 100.68 257.116 101.483C258.41 102.015 259.669 98.8809 260.187 96.466C260.704 94.051 261.832 92.888 262.989 93.5573C264.146 94.2266 265.392 95.8219 265.453 102.214C265.507 107.876 265.599 115.992 265.695 117.768C265.925 122.037 268.402 124.164 270.382 125.31V131.727L231.665 109.333L231.664 107.146Z" fill="#FAFAFA"/>
<path d="M270.186 125.652C267.131 123.885 265.488 121.24 265.302 117.79C265.201 115.924 265.107 107.233 265.059 102.219C264.999 95.9715 263.815 94.4904 262.791 93.8991C262.527 93.7456 262.279 93.7235 262.031 93.833C261.423 94.1038 260.877 95.1188 260.571 96.5487C260.139 98.5652 259.207 101.145 258.002 101.782C257.658 101.963 257.301 101.986 256.966 101.848C254.764 100.944 254.764 98.8983 254.764 95.1857L254.766 94.2959C254.782 90.6534 254.797 86.8873 252.528 85.6298C251.999 85.3361 251.726 85.4101 251.564 85.488C250.479 86.0235 249.806 89.6101 249.34 92.6755C249.065 94.4896 248.003 100.487 245.906 101.498C245.44 101.72 244.949 101.696 244.484 101.427C243.755 101.006 243.444 100.428 243.144 99.8692C242.859 99.3408 242.59 98.8424 241.953 98.4133C241.599 98.1739 241.283 98.107 240.964 98.2062C239.634 98.6117 238.308 101.853 237.341 104.22C236.526 106.214 235.491 107.438 234.264 107.857C233.376 108.161 232.409 108.031 231.466 107.487L231.859 106.805C232.375 107.104 233.169 107.401 234.01 107.113C235.012 106.77 235.888 105.696 236.614 103.923C237.993 100.549 239.172 97.9298 240.735 97.4534C241.282 97.2881 241.84 97.3896 242.392 97.7605C243.19 98.2975 243.533 98.9345 243.835 99.496C244.107 100.001 244.342 100.435 244.877 100.746C245.117 100.886 245.337 100.899 245.565 100.788C246.692 100.245 247.898 96.9377 248.563 92.5574C249.327 87.5266 250.071 85.3471 251.217 84.7825C251.718 84.5353 252.27 84.588 252.907 84.9416C255.583 86.4243 255.567 90.4282 255.551 94.2999L255.548 95.1865C255.548 98.7778 255.548 100.416 257.263 101.12C257.344 101.153 257.458 101.179 257.634 101.086C258.379 100.691 259.311 98.6708 259.801 96.3834C260.171 94.6581 260.849 93.4967 261.712 93.1133C262.19 92.9007 262.699 92.9361 263.184 93.2164C264.463 93.9558 265.78 95.603 265.844 102.21C265.892 107.218 265.986 115.897 266.085 117.747C266.259 120.959 267.728 123.321 270.578 124.969L270.186 125.652Z" fill="#3D3D3D"/>
<path opacity="0.4" d="M231.664 98.0864C231.679 99.4691 234.391 106.771 240.536 107.145C246.681 107.519 248.947 100.662 251.924 102.302C254.901 103.942 254.343 108.865 257.116 110.542C259.888 112.218 262.865 102.821 266.214 104.313C269.563 105.805 268.396 116.082 270.382 117.96V131.727L231.665 109.333L231.664 98.0864Z" fill="#FAFAFA"/>
<path d="M270.113 118.247C269.16 117.347 268.889 115.027 268.575 112.341C268.197 109.105 267.768 105.438 266.055 104.674C264.618 104.033 263.106 105.992 261.644 107.887C260.131 109.85 258.562 111.879 256.912 110.879C255.438 109.988 254.842 108.294 254.267 106.657C253.681 104.99 253.127 103.415 251.734 102.647C250.649 102.05 249.676 102.816 248.051 104.222C246.235 105.793 243.978 107.755 240.512 107.538C234.307 107.161 231.29 99.8495 231.271 98.0904L232.057 98.0818C232.07 99.2448 234.568 106.387 240.559 106.752C243.692 106.936 245.828 105.104 247.537 103.626C249.126 102.253 250.496 101.068 252.113 101.957C253.768 102.869 254.398 104.661 255.008 106.395C255.562 107.971 256.086 109.46 257.318 110.205C258.364 110.839 259.657 109.172 261.022 107.405C262.594 105.37 264.377 103.065 266.374 103.953C268.497 104.9 268.933 108.635 269.356 112.249C269.627 114.57 269.908 116.97 270.651 117.674L270.113 118.247Z" fill="#7ADEFF"/>
<path d="M234.698 67.1541C235.401 67.5604 235.971 68.5502 235.971 69.3636C235.971 70.177 235.401 70.5069 234.698 70.0998C233.994 69.6927 233.425 68.7037 233.425 67.8904C233.425 67.077 233.994 66.7471 234.698 67.1541Z" fill="#7ADEFF"/>
<path d="M236.944 69.6447C236.944 70.2069 237.364 70.9053 237.882 71.2053L246.566 76.2282C247.084 76.5282 247.503 76.3148 247.503 75.7526C247.503 75.1904 247.083 74.492 246.565 74.192L237.882 69.1699C237.364 68.8699 236.944 69.0825 236.944 69.6447Z" fill="#7ADEFF"/>
<path d="M234.698 73.2612C235.401 73.6675 235.971 74.6573 235.971 75.4707C235.971 76.2841 235.401 76.614 234.698 76.2069C233.994 75.7998 233.425 74.8108 233.425 73.9974C233.425 73.184 233.994 72.8549 234.698 73.2612Z" fill="#3D3D3D"/>
<path d="M236.944 75.7518C236.944 76.314 237.364 77.0124 237.882 77.3124L246.566 82.3352C247.084 82.6345 247.503 82.4219 247.503 81.8596C247.503 81.2974 247.083 80.599 246.565 80.299L237.882 75.277C237.364 74.977 236.944 75.1895 236.944 75.7518Z" fill="#7ADEFF"/>
<path d="M306.989 104.245C310.068 102.102 309.032 100.157 308.047 96.5093C301.341 71.6714 300.285 70.2872 297.354 69.0328L295.006 78.8053L301.274 99.155C296.581 102.491 291.755 104.756 287.252 105.742C286.455 105.917 284.836 105.813 284.125 105.413C282.216 104.338 281.137 104.338 279.182 103.812V107.016C279.182 107.016 276.906 107.398 273.919 106.841C269.87 106.085 268.094 106.926 270.573 111.569C272.127 114.479 275.143 115.439 282.701 114.132C284.879 113.756 288.189 112.907 290.842 112.007C297.749 109.664 303.657 106.564 306.989 104.245Z" fill="#FFBC96"/>
<path d="M297.354 69.0336C297.354 69.0336 294.473 70.8454 293.853 75.4013C293.234 79.9572 298.221 91.8691 298.221 91.8691C298.221 91.8691 303.45 91.9998 306.381 88.5131C306.381 88.5131 302.712 76.2698 301.962 73.7076C301.211 71.1454 298.467 69.4414 297.354 69.0336Z" fill="#7ADEFF"/>
<path opacity="0.2" d="M297.354 69.0336C297.354 69.0336 294.473 70.8454 293.853 75.4013C293.234 79.9572 298.221 91.8691 298.221 91.8691C298.221 91.8691 303.45 91.9998 306.381 88.5131C306.381 88.5131 302.712 76.2698 301.962 73.7076C301.211 71.1454 298.467 69.4414 297.354 69.0336Z" fill="#161616"/>
<path d="M226.385 74.1635L226.385 77.7792C226.385 77.7792 228.339 80.7564 230.436 81.8501C232.532 82.9438 232.518 87.3399 229.905 87.958C227.292 88.5761 223.707 85.3501 223.403 83.5745C223.099 81.7997 223.762 73.9721 226.385 74.1635Z" fill="#FFBC96"/>
<path d="M117.983 34.5011L137.303 33.998C137.982 33.4153 141.835 28.8105 141.835 28.8105C141.835 28.8105 152.416 27.4515 152.479 27.8365C152.543 28.2208 142.071 39.4397 141.036 40.5712C140.463 41.198 139.938 41.6988 138.565 41.7814C135.826 41.946 120.742 42.8956 120.742 42.8956L117.983 34.5011Z" fill="#FFBC96"/>
<path d="M136.602 90.8776L136.083 90.5776C135.255 90.0981 134.583 88.932 134.583 87.9737V34.4436C134.583 33.4846 135.255 32.3184 136.084 31.8397L182.361 5.07425C183.189 4.59472 184.533 4.59472 185.362 5.07425L185.88 5.37424C186.71 5.85377 187.382 7.01992 187.382 7.97819V61.5091C187.382 62.4681 186.71 63.6342 185.88 64.113L139.605 90.8784C138.775 91.3572 137.431 91.3572 136.602 90.8776Z" fill="#7ADEFF"/>
<path opacity="0.7" d="M136.602 90.8776L136.083 90.5776C135.255 90.0981 134.583 88.932 134.583 87.9737V34.4436C134.583 33.4846 135.255 32.3184 136.084 31.8397L182.361 5.07425C183.189 4.59472 184.533 4.59472 185.362 5.07425L185.88 5.37424C186.71 5.85377 187.382 7.01992 187.382 7.97819V61.5091C187.382 62.4681 186.71 63.6342 185.88 64.113L139.605 90.8784C138.775 91.3572 137.431 91.3572 136.602 90.8776Z" fill="#FAFAFA"/>
<path d="M134.583 61.2083V34.4428C134.583 33.9633 134.751 33.4318 135.022 32.9609L141.622 36.7783V89.7099L139.603 90.8776C138.774 91.3571 137.43 91.3571 136.602 90.8776L136.082 90.5768C135.253 90.0973 134.582 88.932 134.582 87.9737L134.583 61.2083Z" fill="#7ADEFF"/>
<path opacity="0.6" d="M134.583 61.2083V34.4428C134.583 33.9633 134.751 33.4318 135.022 32.9609L141.622 36.7783V89.7099L139.603 90.8776C138.774 91.3571 137.43 91.3571 136.602 90.8776L136.082 90.5768C135.253 90.0973 134.582 88.932 134.582 87.9737L134.583 61.2083Z" fill="#FAFAFA"/>
<path d="M185.88 7.10966L139.604 33.8751C138.775 34.3546 138.103 35.5208 138.103 36.479V90.0099C138.103 90.9689 138.775 91.3571 139.604 90.8776L185.88 64.1122C186.709 63.6327 187.38 62.4665 187.381 61.5082V7.97738C187.381 7.01911 186.709 6.63013 185.88 7.10966Z" fill="#7ADEFF"/>
<path opacity="0.8" d="M185.88 7.10966L139.604 33.8751C138.775 34.3546 138.103 35.5208 138.103 36.479V90.0099C138.103 90.9689 138.775 91.3571 139.604 90.8776L185.88 64.1122C186.709 63.6327 187.38 62.4665 187.381 61.5082V7.97738C187.381 7.01911 186.709 6.63013 185.88 7.10966Z" fill="#FAFAFA"/>
<path d="M154.513 57.7877C154.513 51.7168 158.197 44.6648 162.742 42.0357V35.3971C158.66 37.7585 155.053 42.142 152.484 47.8656C147.896 58.0861 148.77 68.683 154.435 71.5342L157.563 64.5641C155.703 63.6247 154.513 61.2365 154.513 57.7877Z" fill="#7ADEFF"/>
<path d="M162.742 35.3971V42.0357C167.287 39.4074 170.972 42.1971 170.972 48.268C170.972 54.3389 167.287 61.3909 162.742 64.02C160.78 65.1555 158.978 65.2783 157.564 64.5641L154.436 71.5342C156.928 72.7885 159.535 72.5137 162.742 70.6586C170.032 66.4421 175.942 55.1302 175.942 45.3932C175.942 35.6562 170.032 31.1806 162.742 35.3971Z" fill="#3D3D3D"/>
<path d="M162.742 70.6586C170.032 66.4421 175.942 55.1302 175.942 45.3932L170.969 48.3239C170.946 54.3822 167.273 61.3987 162.742 64.02C160.78 65.1555 158.978 65.2783 157.564 64.5641L154.436 71.5342C156.928 72.7885 159.535 72.5137 162.742 70.6586Z" fill="#3D3D3D"/>
<path d="M141.623 37.3326C140.919 37.7397 140.35 38.7287 140.35 39.5421C140.35 40.3555 140.919 40.6854 141.623 40.2783C142.326 39.8712 142.896 38.8822 142.896 38.0689C142.896 37.2555 142.326 36.9263 141.623 37.3326Z" fill="#7ADEFF"/>
<path d="M154.436 31.505C154.436 32.0673 154.016 32.7657 153.498 33.0657L144.814 38.0885C144.296 38.3878 143.876 38.1751 143.876 37.6129C143.876 37.0507 144.297 36.3523 144.815 36.0523L153.498 31.0302C154.015 30.7302 154.436 30.9428 154.436 31.505Z" fill="#7ADEFF"/>
<path d="M156.451 28.7199C155.747 29.127 155.177 30.116 155.177 30.9294C155.177 31.7428 155.747 32.0727 156.451 31.6656C157.154 31.2585 157.724 30.2695 157.724 29.4562C157.724 28.6428 157.153 28.3128 156.451 28.7199Z" fill="#3D3D3D"/>
<path d="M169.262 22.8924C169.262 23.4546 168.843 24.153 168.325 24.453L159.641 29.4759C159.123 29.7751 158.703 29.5625 158.703 29.0003C158.703 28.4381 159.124 27.7396 159.642 27.4396L168.325 22.4176C168.843 22.1176 169.262 22.3302 169.262 22.8924Z" fill="#7ADEFF"/>
<path d="M171.278 20.1067C170.574 20.5137 170.005 21.5027 170.005 22.3161C170.005 23.1295 170.574 23.4594 171.278 23.0523C171.981 22.6452 172.551 21.6563 172.551 20.8429C172.551 20.0303 171.981 19.7004 171.278 20.1067Z" fill="#3D3D3D"/>
<path d="M184.091 14.2798C184.091 14.842 183.671 15.5405 183.153 15.8405L174.469 20.8633C173.951 21.1633 173.531 20.9499 173.531 20.3877C173.531 19.8255 173.952 19.1271 174.47 18.8271L183.153 13.805C183.67 13.5042 184.091 13.7176 184.091 14.2798Z" fill="#7ADEFF"/>
<path d="M125.312 32.9137H111.552C103.952 32.9137 97.791 26.742 97.791 19.1286V16.9759C97.791 9.36246 103.952 3.1908 111.552 3.1908C119.151 3.1908 125.312 9.36246 125.312 16.9759V32.9137Z" fill="#3D3D3D"/>
<path d="M100.887 8.62226L97.5559 6.83092C98.0283 5.87502 99.157 5.50021 100.077 5.99548C100.998 6.48997 101.36 7.66635 100.887 8.62226Z" fill="#3D3D3D"/>
<path d="M101.095 9.0011L97.5538 10.3279C97.1482 9.34126 97.6119 8.24441 98.5897 7.87826C99.5675 7.51133 100.689 8.01449 101.095 9.0011Z" fill="#3D3D3D"/>
<path d="M152.918 19.5751C151.347 20.7972 149.544 21.5617 149.543 22.1696C149.542 23.12 151.046 23.1846 151.474 22.9373L153.715 21.6413C153.715 21.6413 154.435 21.7846 156.651 23.2271C157.925 24.057 158.591 27.3633 160.241 27.2074C161.959 27.0452 163.43 26.2452 163.669 25.1098C163.983 23.6192 163.231 20.2964 161.449 19.0893C157.523 16.4302 154.564 18.2948 152.918 19.5751Z" fill="#FFBC96"/>
<path d="M113.67 156.538C113.638 157.123 113.7 157.558 114.152 158.446C114.699 159.518 116.162 161.354 117.296 162.575C118.978 164.384 121.492 166.522 123.292 168.098C124.294 168.974 124.332 170.298 122.899 170.763C121.466 171.228 118.296 171.427 115.015 169.661C113.228 168.698 110.677 164.249 109.187 163.575C107.476 162.801 106.515 162.412 105.937 161.623C105.072 160.442 104.849 159.557 105.588 158.179C106.394 156.675 107.607 154.355 108.106 154.613L107.951 155.093C108.343 156.32 111.682 157.748 113.394 157.407L113.67 156.538Z" fill="#3D3D3D"/>
<path d="M115.177 150.618C114.356 153.28 113.797 155.397 113.673 156.561C113.713 157.569 113.713 157.569 114.151 158.448C114.699 159.515 116.164 161.352 117.299 162.58C118.117 163.458 119.133 164.416 120.169 165.345C120.269 165.504 120.318 165.654 120.318 165.784C120.318 166.722 118.036 166.971 116.702 166.582C115.068 166.104 113.683 164.866 112.577 163.408C111.81 162.38 110.076 160.404 108.98 158.927C108.512 158.308 108.153 157.779 108.024 157.44C107.635 156.471 107.744 155.783 107.884 155.314L107.954 155.094C108.545 153.252 108.909 151.349 109.04 149.419" fill="#FFBC96"/>
<path d="M99.3464 158.587C99.6318 160.313 99.774 162.06 99.774 163.809V167.679H105.503V161.082C105.533 161.071 105.563 161.062 105.583 161.042C105.583 161.042 105.678 159.744 105.837 157.715" fill="#FFBC96"/>
<path d="M115.177 150.618C118.338 140.366 125.381 122.019 126.346 118.803C127.372 115.37 126.134 85.3807 125.297 75.7689L95.4597 74.1681C93.1882 83.9098 95.4 97.0445 96.1774 105.248C96.9343 113.234 97.8712 122.566 97.8712 122.566C97.8712 122.566 95.5399 130.701 96.1577 137.178C96.5507 141.256 98.4772 153.323 99.3473 158.588C101.511 159.207 103.674 158.916 105.837 157.716C106.2 153.09 106.894 144.663 107.546 139.154C108.532 130.88 108.861 124.841 109.708 120.011C110.774 113.982 111.143 90.3571 111.143 90.3571L114.58 117.156C114.58 117.156 112.767 120.22 111.501 125.121C110.518 128.93 109.462 143.232 109.041 149.418C110.548 150.467 112.611 150.846 115.177 150.618Z" fill="#3D3D3D"/>
<path d="M111.142 90.3571C111.142 90.3571 116.595 88.4414 119.699 85.5854C119.699 85.5854 117.585 89.2422 113.305 91.1863L113.26 106.876L111.142 90.3571Z" fill="#3D3D3D"/>
<path d="M106.799 34.7562C106.799 34.7562 99.9148 35.3538 98.9449 35.79C103.885 41.2081 96.3723 43.457 96.3723 43.457L102.087 62.5531C98.8466 66.709 96.0697 69.9728 95.2947 74.9263C98.7672 81.0555 118.275 81.9075 125.424 77.3389C124.803 68.7838 123.415 62.6586 123.877 60.0901C127.283 49.5853 126.222 47.383 125.903 44.9837C125.279 40.2971 120.636 36.2121 117.983 34.5002C117.983 34.5002 115.996 34.5002 115.507 34.5002L106.799 34.7562Z" fill="#4169E1"/>
<path d="M100.536 57.3689L104.307 63.2067L102.087 62.5532L100.536 57.3689Z" fill="#7ADEFF"/>
<path opacity="0.2" d="M100.536 57.3689L104.307 63.2067L102.087 62.5532L100.536 57.3689Z" fill="#161616"/>
<path d="M105.506 164.85V164.029C105.669 165.28 107.328 169.136 109.601 171.213C111.408 172.864 113.873 174.772 114.501 176.613C115.153 178.527 111.588 179.285 109.252 179.051C106.517 178.777 104.384 177.131 103.372 175.969C101.885 174.261 101.912 173.095 101.218 172.155C100.525 171.215 98.926 170.165 98.551 169.077C98.3451 168.479 98.5895 167.17 98.8788 166.064C99.1445 165.049 99.4321 163.934 99.778 164.029C99.7788 164.153 99.778 164.655 99.778 164.655C100.194 165.116 101.344 165.575 102.642 165.625C103.479 165.657 105.513 165.491 105.506 164.85Z" fill="#3D3D3D"/>
<path d="M99.7773 164.655C100.193 165.116 101.344 165.575 102.642 165.625C103.479 165.657 105.513 165.49 105.506 164.85V164.029C105.669 165.28 107.328 169.136 109.601 171.213C110.034 171.608 110.504 172.019 110.978 172.439C111.938 173.512 111.666 174.448 109.407 174.642C107.148 174.838 105.163 173.472 103.45 171.365C101.736 169.26 99.7773 164.655 99.7773 164.655Z" fill="#FFBC96"/>
<path d="M120.792 9.93958C122.245 10.8002 124.042 14.4624 123.864 22.1396C123.714 28.6467 121.608 30.2538 120.551 30.7176C119.494 31.1806 117.455 30.8987 115.473 30.568V34.4727C115.473 34.4727 118.212 37.6601 118.04 39.4507C117.868 41.2412 114.085 41.6641 111.521 39.9152C108.958 38.1656 106.799 34.7562 106.799 34.7562L106.843 25.7774C106.843 25.7774 105.677 26.9129 103.699 25.1798C102.067 23.7499 101.517 21.338 102.789 20.0435C104.062 18.7498 106.413 19.1018 107.315 20.9467C107.315 20.9467 108.417 17.8821 112.982 16.3876C117.108 15.0372 119.349 13.4821 120.792 9.93958Z" fill="#FFBC96"/>
<path d="M116.613 20.505C116.636 20.9735 116.29 21.3711 115.839 21.3932C115.389 21.4144 115.004 21.0514 114.981 20.5829C114.957 20.1144 115.303 19.7168 115.754 19.6955C116.205 19.6735 116.589 20.0365 116.613 20.505Z" fill="#3D3D3D"/>
<path d="M116.83 26.0208L118.728 26.6271C118.571 27.1712 118.018 27.4759 117.494 27.3089C116.97 27.1412 116.673 26.5648 116.83 26.0208Z" fill="#FFBC96"/>
<path d="M123.309 17.9924L121.656 16.8451C121.958 16.3719 122.572 16.2459 123.029 16.5632C123.485 16.8798 123.611 17.5199 123.309 17.9924Z" fill="#3D3D3D"/>
<path d="M114.236 18.5978L115.889 17.4506C115.587 16.9774 114.973 16.8514 114.516 17.1687C114.06 17.4852 113.934 18.1254 114.236 18.5978Z" fill="#3D3D3D"/>
<path d="M122.928 19.9136C122.952 20.3821 122.606 20.7798 122.155 20.801C121.704 20.8223 121.32 20.4601 121.296 19.9908C121.273 19.5223 121.619 19.1246 122.07 19.1034C122.521 19.0813 122.905 19.4443 122.928 19.9136Z" fill="#3D3D3D"/>
<path d="M119.075 19.4451L119.205 24.3703L121.793 23.5671L119.075 19.4451Z" fill="#FFBC96"/>
<path d="M115.474 30.568C113.384 30.2932 109.087 29.057 108.418 27.3546C108.418 27.3546 108.641 28.4239 109.924 29.5263C111.208 30.6286 115.474 31.8704 115.474 31.8704V30.568Z" fill="#FFBC96"/>
<path d="M103.455 38.8208C104.996 41.0979 114.469 60.2649 114.469 60.2649C114.469 60.2649 125.302 59.4429 130.895 58.8476C132.657 58.6602 132.263 56.7681 132.971 54.8948C133.678 53.0216 134.583 53.4649 134.583 53.4649V55.8484C134.548 56.8539 136.681 58.6216 138.103 58.5948C141.786 58.5248 145.5 54.8602 145.647 57.9051C145.741 59.8476 144.894 62.7941 143.189 63.5838C138.422 65.7933 135.879 65.0964 132.707 65.3208C130.261 65.4933 116.218 67.6004 112.881 67.7421C111.117 67.8169 109.842 67.4736 108.315 65.3208C106.789 63.1681 97.7029 45.9224 97.7029 45.9224C94.2052 40.9413 96.2118 36.7499 98.8064 35.8593C100.433 35.3019 101.913 36.5436 103.455 38.8208Z" fill="#FFBC96"/>
<defs>
<linearGradient id="paint0_linear_1_4159" x1="78.7243" y1="74.417" x2="100.853" y2="108.4" gradientUnits="userSpaceOnUse">
<stop stop-color="#E6E6E6"/>
<stop offset="1" stop-color="white" stop-opacity="0"/>
</linearGradient>
<linearGradient id="paint1_linear_1_4159" x1="325.728" y1="103.68" x2="309.419" y2="128.725" gradientUnits="userSpaceOnUse">
<stop stop-color="#E6E6E6"/>
<stop offset="1" stop-color="white" stop-opacity="0"/>
</linearGradient>
</defs>
</svg>
