<svg width="322" height="280" viewBox="0 0 322 280" fill="none" xmlns="http://www.w3.org/2000/svg">
<path d="M47.605 240.694C110.231 273.502 211.77 273.503 274.395 240.695C337.022 207.886 337.022 154.693 274.395 121.886C211.768 89.0767 110.231 89.0767 47.6043 121.885C-15.0219 154.693 -15.0219 207.886 47.605 240.694Z" fill="#222222"/>
<path d="M55.4161 183.532C49.1343 186.534 38.9507 186.534 32.6689 183.532C26.3871 180.531 26.3871 175.662 32.6689 172.66C38.9507 169.659 49.1343 169.659 55.4161 172.66C61.6979 175.662 61.6979 180.53 55.4161 183.532Z" fill="#EBEBEB"/>
<path d="M242.796 193.039C234.412 197.047 220.818 197.047 212.433 193.039C204.048 189.033 204.048 182.535 212.433 178.527C220.818 174.52 234.412 174.52 242.796 178.527C251.181 182.535 251.181 189.033 242.796 193.039Z" fill="#EBEBEB"/>
<path d="M291.797 143.559C291.797 143.559 293.45 138.421 298.848 132.946C301.23 130.529 302.788 128.847 302.285 127.41C301.839 126.136 300.324 125.475 298.165 126.503C295.091 127.966 293.017 130.671 291.796 136.116V143.559H291.797Z" fill="url(#paint0_linear_1_19063)"/>
<path opacity="0.1" d="M291.797 143.559C291.797 143.559 293.45 138.421 298.848 132.946C301.23 130.529 302.788 128.847 302.285 127.41C301.839 126.136 300.324 125.475 298.165 126.503C295.091 127.966 293.017 130.671 291.796 136.116V143.559H291.797Z" fill="black"/>
<path d="M291.455 140.331C291.433 140.331 291.411 140.328 291.389 140.322C291.248 140.286 291.164 140.143 291.201 140.002C293.127 132.549 298.101 127.931 300.21 126.862C300.338 126.796 300.497 126.848 300.563 126.977C300.628 127.107 300.576 127.266 300.446 127.331C298.408 128.365 293.589 132.855 291.709 140.134C291.679 140.252 291.572 140.331 291.455 140.331Z" fill="white"/>
<path d="M291.798 149.945C291.798 149.945 294.099 145.411 296.879 143.01C299.66 140.608 303.228 138.142 300.201 136.262C297.091 134.331 292.202 138.072 291.798 141.714V149.945Z" fill="url(#paint1_linear_1_19063)"/>
<path d="M291.455 146.717C291.435 146.717 291.415 146.715 291.395 146.71C291.254 146.677 291.166 146.535 291.199 146.393C292.508 140.782 297.203 137.606 298.766 137.084C298.902 137.037 299.052 137.113 299.098 137.25C299.144 137.388 299.07 137.537 298.932 137.584C297.504 138.061 292.954 141.186 291.712 146.513C291.682 146.635 291.575 146.717 291.455 146.717Z" fill="white"/>
<path d="M87.0718 195.45C87.0718 195.45 86.0057 193.076 81.5656 192.073C77.2417 191.095 75.092 192.035 72.1709 191.571C69.2127 191.1 70.0107 185.595 77.8689 186.162C85.0558 186.679 87.0718 192.353 87.0718 192.353V195.45Z" fill="url(#paint2_linear_1_19063)"/>
<path d="M87.5031 194.146C87.3995 194.146 87.3015 194.084 87.2602 193.983C86.5777 192.304 83.9744 189.566 80.3225 188.733C75.7984 187.702 73.3897 188.748 73.3659 188.759C73.2336 188.818 73.0782 188.759 73.0187 188.626C72.9592 188.493 73.0187 188.338 73.151 188.279C73.2553 188.232 75.7466 187.15 80.4387 188.22C84.4903 189.143 87.0712 192.123 87.746 193.784C87.8006 193.918 87.7362 194.073 87.6018 194.127C87.5696 194.14 87.536 194.146 87.5031 194.146Z" fill="white"/>
<path d="M87.0717 192.747C87.0717 192.747 86.1393 190.829 83.7138 188.484C79.4949 184.403 73.9347 183.115 71.0836 180.885C68.0064 178.476 71.7361 175.693 75.6974 175.873C77.9675 175.976 80.3594 177.479 81.6789 178.562C86.3101 182.36 87.0717 188.484 87.0717 188.484V192.747Z" fill="url(#paint3_linear_1_19063)"/>
<path opacity="0.5" d="M87.0717 192.747C87.0717 192.747 86.1393 190.829 83.7138 188.484C79.4949 184.403 73.9347 183.115 71.0836 180.885C68.0064 178.476 71.7361 175.693 75.6974 175.873C77.9675 175.976 80.3594 177.479 81.6789 178.562C86.3101 182.36 87.0717 188.484 87.0717 188.484V192.747Z" fill="white"/>
<path d="M87.502 192.336C87.3718 192.336 87.2591 192.239 87.2416 192.107C87.2367 192.065 86.6662 187.91 83.3755 184.154C80.0715 180.384 74.4204 178.365 74.3637 178.346C74.2272 178.298 74.1551 178.148 74.2027 178.011C74.251 177.874 74.3994 177.799 74.5373 177.849C74.7739 177.932 80.376 179.934 83.7696 183.808C87.1702 187.689 87.7393 191.865 87.7624 192.04C87.7806 192.184 87.679 192.316 87.5356 192.335C87.5251 192.336 87.5132 192.336 87.502 192.336Z" fill="white"/>
<path d="M183.144 236.372C183.144 236.372 184.334 234.058 188.822 233.295C193.192 232.55 195.288 233.605 198.229 233.298C201.208 232.987 200.705 227.447 192.829 227.591C185.624 227.723 183.308 233.28 183.308 233.28L183.144 236.372Z" fill="url(#paint4_linear_1_19063)"/>
<path opacity="0.1" d="M183.144 236.372C183.144 236.372 184.334 234.058 188.822 233.295C193.192 232.55 195.288 233.605 198.229 233.298C201.208 232.987 200.705 227.447 192.829 227.591C185.624 227.723 183.308 233.28 183.308 233.28L183.144 236.372Z" fill="black"/>
<path d="M182.796 235.262C182.745 235.262 182.692 235.247 182.646 235.215C182.527 235.132 182.498 234.968 182.581 234.849C184.252 232.45 187.3 230.651 190.736 230.037C195.152 229.246 197.741 230.647 197.849 230.707C197.975 230.778 198.021 230.937 197.951 231.064C197.881 231.191 197.723 231.238 197.594 231.168C197.569 231.154 195.052 229.8 190.828 230.555C187.526 231.145 184.603 232.864 183.011 235.151C182.96 235.223 182.879 235.262 182.796 235.262Z" fill="white"/>
<path d="M183.457 233.127C183.457 233.127 184.332 231.863 186.88 229.651C191.311 225.802 196.921 225.176 199.886 223.101C203.088 220.862 199.513 217.882 195.547 217.849C193.275 217.831 190.807 219.203 189.431 220.213C184.603 223.758 183.145 228.965 183.145 228.965L183.457 233.127Z" fill="url(#paint5_linear_1_19063)"/>
<path opacity="0.5" d="M183.457 233.127C183.457 233.127 184.332 231.863 186.88 229.651C191.311 225.802 196.921 225.176 199.886 223.101C203.088 220.862 199.513 217.882 195.547 217.849C193.275 217.831 190.807 219.203 189.431 220.213C184.603 223.758 183.145 228.965 183.145 228.965L183.457 233.127Z" fill="white"/>
<path d="M182.797 233.071C182.771 233.071 182.743 233.067 182.717 233.059C182.58 233.014 182.503 232.867 182.547 232.728C182.56 232.685 183.963 228.34 187.599 224.702C191.808 220.491 196.447 219.898 196.642 219.875C196.783 219.857 196.916 219.961 196.933 220.105C196.95 220.249 196.848 220.381 196.703 220.397C196.658 220.403 192.044 220.998 187.97 225.075C184.428 228.619 183.06 232.845 183.047 232.887C183.011 233 182.908 233.071 182.797 233.071Z" fill="white"/>
<path d="M115.504 196.042C115.504 196.041 115.504 196.039 115.504 196.037V143.004H87.0703V196.046C87.0731 198.15 88.4612 200.255 91.2346 201.86C96.7863 205.074 105.788 205.074 111.34 201.86C114.113 200.255 115.501 198.15 115.504 196.046L115.504 196.042Z" fill="#161616"/>
<path d="M91.2356 149.18C85.6839 145.966 85.6839 140.754 91.2356 137.539C96.788 134.325 105.789 134.325 111.342 137.539C116.894 140.754 116.894 145.966 111.342 149.18C105.789 152.394 96.788 152.394 91.2356 149.18Z" fill="#7ADEFF"/>
<path d="M149.625 215.797C149.625 215.795 149.625 215.794 149.625 215.792V177.197H121.191V215.799H121.192C121.194 217.904 122.582 220.008 125.356 221.614C130.908 224.828 139.909 224.828 145.462 221.614C148.235 220.008 149.623 217.904 149.625 215.799V215.797Z" fill="#161616"/>
<path d="M125.356 183.373C119.804 180.159 119.804 174.947 125.356 171.732C130.909 168.518 139.91 168.518 145.462 171.732C151.014 174.947 151.014 180.159 145.462 183.373C139.911 186.588 130.909 186.588 125.356 183.373Z" fill="#4169E1"/>
<path d="M183.748 235.553C183.748 235.55 183.748 235.549 183.748 235.547V205.561H155.314V235.555C155.317 237.66 156.704 239.764 159.478 241.369C165.03 244.584 174.031 244.584 179.584 241.369C182.357 239.764 183.744 237.66 183.747 235.555H183.747V235.553H183.748Z" fill="#161616"/>
<path d="M169.531 214.148C177.383 214.148 183.748 210.463 183.748 205.917C183.748 201.371 177.383 197.686 169.531 197.686C161.68 197.686 155.314 201.371 155.314 205.917C155.314 210.463 161.68 214.148 169.531 214.148Z" fill="#7ADEFF"/>
<path d="M85.2523 214.742L78.5407 210.856L82.2598 206.027C82.7323 205.413 82.5083 205.072 81.76 205.265L72.8546 207.563L66.1429 203.677C65.1384 203.096 63.5096 203.096 62.505 203.677L51.9252 209.803C50.9207 210.385 50.9207 211.328 51.9252 211.909L71.0352 222.974C72.0397 223.555 73.668 223.555 74.6725 222.974L85.2523 216.848C86.2568 216.266 86.2568 215.324 85.2523 214.742Z" fill="url(#paint6_linear_1_19063)"/>
<path d="M74.5131 212.361C74.6377 212.352 74.7476 212.353 74.8449 212.364C74.9429 212.376 75.0458 212.413 75.1536 212.475L76.1077 213.028C76.1938 213.077 76.24 213.13 76.2477 213.183C76.2568 213.238 76.2246 213.285 76.1546 213.325C76.1385 213.334 76.1161 213.343 76.0853 213.352C76.0531 213.361 76.0188 213.367 75.9803 213.372L62.6586 214.424C62.5347 214.433 62.4234 214.432 62.3275 214.42C62.2295 214.408 62.1273 214.372 62.0188 214.309L61.064 213.756C60.9793 213.707 60.9324 213.654 60.924 213.601C60.9163 213.547 60.9478 213.499 61.0185 213.459C61.0332 213.45 61.057 213.442 61.0885 213.433C61.1193 213.424 61.1543 213.417 61.1928 213.413L74.5131 212.361ZM70.2284 211.471C69.9407 211.664 69.646 211.835 69.3429 211.983C69.0951 212.109 68.8347 212.207 68.5631 212.279C68.2908 212.352 68.0045 212.387 67.7007 212.387C67.3983 212.387 67.0924 212.347 66.7816 212.265C66.4715 212.185 66.1642 212.057 65.8625 211.881C65.5587 211.706 65.3375 211.528 65.1982 211.349C65.0589 211.169 64.9903 210.992 64.9945 210.819C64.9987 210.647 65.0603 210.48 65.1814 210.32C65.3011 210.161 65.4705 210.009 65.6875 209.866C65.8275 209.766 65.9647 209.678 66.1012 209.599C66.237 209.521 66.3938 209.438 66.573 209.353C66.8222 209.226 67.084 209.13 67.3591 209.059C67.6349 208.99 67.9226 208.954 68.2208 208.952C68.5197 208.949 68.8242 208.989 69.1343 209.07C69.4444 209.151 69.7517 209.279 70.0548 209.455C70.3572 209.629 70.5784 209.807 70.7177 209.987C70.8584 210.167 70.9256 210.343 70.9214 210.516C70.9172 210.689 70.8556 210.856 70.7352 211.015C70.6148 211.175 70.4454 211.327 70.2284 211.471ZM71.5556 216.959C71.2693 217.152 70.9739 217.324 70.6708 217.471C70.4223 217.597 70.1626 217.696 69.891 217.768C69.618 217.84 69.3324 217.875 69.0286 217.875C68.7255 217.875 68.4196 217.835 68.1095 217.754C67.7987 217.673 67.4921 217.545 67.1897 217.369C66.8873 217.194 66.6654 217.016 66.5261 216.836C66.3861 216.657 66.3182 216.481 66.3224 216.307C66.3266 216.135 66.3882 215.968 66.5086 215.808C66.6297 215.649 66.7977 215.497 67.0161 215.353C67.1554 215.254 67.2933 215.166 67.4291 215.086C67.5649 215.009 67.7224 214.926 67.9009 214.84C68.1487 214.714 68.4112 214.617 68.687 214.547C68.9628 214.477 69.2505 214.442 69.5487 214.439C69.8476 214.437 70.1507 214.476 70.4629 214.557C70.7723 214.638 71.0803 214.766 71.382 214.942C71.6851 215.117 71.9056 215.294 72.0456 215.475C72.1849 215.654 72.2535 215.831 72.2493 216.004C72.2451 216.177 72.1835 216.343 72.0631 216.502C71.9413 216.663 71.7733 216.815 71.5556 216.959ZM67.0959 210.615C66.9097 210.741 66.7991 210.852 66.7641 210.949C66.7291 211.046 66.797 211.143 66.9685 211.243C67.1386 211.342 67.3073 211.38 67.4746 211.36C67.6412 211.34 67.8337 211.276 68.0514 211.168C68.3307 211.034 68.5869 210.886 68.82 210.723C69.0062 210.597 69.1168 210.486 69.1518 210.39C69.1868 210.293 69.1189 210.195 68.9488 210.096C68.7773 209.997 68.6086 209.958 68.4413 209.978C68.2747 209.998 68.0822 210.063 67.8652 210.17C67.5852 210.305 67.329 210.453 67.0959 210.615ZM68.4238 216.102C68.2369 216.229 68.1263 216.339 68.0906 216.436C68.0563 216.533 68.1249 216.631 68.295 216.73C68.4658 216.829 68.6345 216.868 68.8018 216.848C68.9691 216.828 69.1609 216.763 69.3786 216.656C69.6572 216.521 69.9141 216.373 70.1472 216.211C70.3334 216.085 70.444 215.974 70.479 215.877C70.5147 215.78 70.4461 215.683 70.2753 215.583C70.1052 215.484 69.9358 215.446 69.7678 215.466C69.6019 215.486 69.4094 215.55 69.1924 215.657C68.9124 215.793 68.6569 215.941 68.4238 216.102Z" fill="white"/>
<path d="M122.23 236.136L115.518 232.25L119.237 227.42C119.71 226.806 119.486 226.466 118.737 226.659L109.832 228.958L103.12 225.072C102.116 224.49 100.488 224.49 99.4831 225.072L88.9033 231.198C87.8988 231.779 87.8988 232.722 88.9033 233.304L108.013 244.368C109.018 244.949 110.646 244.949 111.65 244.368L122.23 238.243C123.234 237.66 123.234 236.717 122.23 236.136Z" fill="url(#paint7_linear_1_19063)"/>
<path d="M111.49 233.754C111.615 233.745 111.725 233.747 111.822 233.758C111.92 233.77 112.023 233.806 112.131 233.869L113.085 234.422C113.171 234.471 113.217 234.524 113.225 234.577C113.234 234.631 113.202 234.679 113.132 234.718C113.116 234.728 113.093 234.736 113.062 234.746C113.03 234.755 112.996 234.762 112.957 234.766L99.6356 235.817C99.5117 235.827 99.4004 235.825 99.3045 235.814C99.2065 235.802 99.1043 235.765 98.9958 235.702L98.041 235.15C97.9563 235.101 97.9087 235.048 97.901 234.995C97.8933 234.941 97.9248 234.894 97.9955 234.853C98.0102 234.844 98.034 234.835 98.0655 234.826C98.0963 234.817 98.1313 234.81 98.1698 234.807L111.49 233.754ZM107.205 232.865C106.918 233.058 106.623 233.229 106.32 233.377C106.072 233.503 105.812 233.601 105.54 233.674C105.268 233.746 104.982 233.782 104.678 233.782C104.375 233.782 104.069 233.741 103.759 233.66C103.449 233.58 103.141 233.451 102.839 233.276C102.535 233.1 102.314 232.923 102.175 232.743C102.035 232.563 101.967 232.386 101.971 232.214C101.975 232.041 102.037 231.875 102.158 231.714C102.277 231.555 102.447 231.403 102.664 231.26C102.804 231.161 102.941 231.072 103.078 230.994C103.213 230.915 103.37 230.833 103.549 230.747C103.799 230.621 104.06 230.524 104.335 230.454C104.611 230.384 104.899 230.348 105.197 230.346C105.496 230.344 105.801 230.384 106.111 230.464C106.421 230.545 106.728 230.673 107.031 230.849C107.334 231.024 107.555 231.201 107.694 231.381C107.835 231.561 107.902 231.738 107.898 231.91C107.894 232.084 107.832 232.25 107.712 232.409C107.592 232.569 107.422 232.721 107.205 232.865ZM108.532 238.352C108.246 238.546 107.95 238.717 107.647 238.865C107.399 238.99 107.139 239.089 106.867 239.162C106.594 239.233 106.309 239.269 106.006 239.269C105.703 239.269 105.397 239.228 105.086 239.148C104.775 239.067 104.468 238.938 104.166 238.763C103.864 238.588 103.642 238.41 103.502 238.23C103.362 238.05 103.295 237.874 103.299 237.701C103.303 237.528 103.365 237.362 103.485 237.202C103.606 237.043 103.774 236.891 103.992 236.748C104.132 236.649 104.27 236.559 104.405 236.481C104.541 236.403 104.699 236.32 104.877 236.234C105.126 236.109 105.388 236.011 105.663 235.941C105.938 235.871 106.227 235.836 106.525 235.834C106.824 235.831 107.127 235.871 107.439 235.951C107.749 236.032 108.057 236.161 108.359 236.336C108.662 236.512 108.883 236.689 109.023 236.869C109.162 237.049 109.231 237.226 109.226 237.398C109.222 237.571 109.161 237.737 109.04 237.897C108.918 238.057 108.75 238.209 108.532 238.352ZM104.072 232.009C103.886 232.135 103.775 232.246 103.74 232.343C103.705 232.44 103.773 232.536 103.945 232.636C104.115 232.735 104.284 232.774 104.451 232.754C104.618 232.734 104.81 232.67 105.028 232.562C105.306 232.428 105.563 232.28 105.796 232.117C105.983 231.991 106.093 231.879 106.128 231.783C106.163 231.686 106.095 231.589 105.925 231.49C105.754 231.39 105.585 231.352 105.418 231.372C105.251 231.392 105.059 231.456 104.842 231.564C104.562 231.699 104.305 231.847 104.072 232.009ZM105.401 237.496C105.214 237.622 105.103 237.733 105.068 237.83C105.033 237.927 105.102 238.024 105.272 238.123C105.443 238.222 105.612 238.262 105.779 238.241C105.946 238.222 106.138 238.157 106.356 238.05C106.634 237.915 106.891 237.767 107.124 237.605C107.31 237.478 107.421 237.367 107.456 237.27C107.492 237.174 107.423 237.077 107.252 236.977C107.082 236.878 106.913 236.839 106.745 236.859C106.579 236.879 106.386 236.943 106.169 237.051C105.889 237.186 105.634 237.335 105.401 237.496Z" fill="white"/>
<path d="M159.173 257.538L152.462 253.653L156.181 248.823C156.653 248.209 156.429 247.869 155.681 248.062L146.776 250.36L140.064 246.474C139.06 245.893 137.431 245.893 136.427 246.474L125.847 252.599C124.843 253.181 124.843 254.124 125.847 254.705L144.957 265.77C145.962 266.351 147.59 266.351 148.594 265.77L159.174 259.644C160.178 259.063 160.178 258.119 159.173 257.538Z" fill="url(#paint8_linear_1_19063)"/>
<path d="M148.434 255.157C148.559 255.148 148.669 255.149 148.766 255.161C148.864 255.173 148.967 255.209 149.075 255.272L150.029 255.825C150.115 255.874 150.161 255.926 150.169 255.98C150.178 256.034 150.146 256.082 150.076 256.121C150.061 256.131 150.037 256.139 150.007 256.148C149.974 256.157 149.94 256.164 149.902 256.169L136.58 257.22C136.456 257.229 136.345 257.228 136.249 257.217C136.151 257.205 136.049 257.168 135.94 257.105L134.985 256.553C134.901 256.504 134.853 256.451 134.845 256.398C134.838 256.343 134.869 256.296 134.94 256.256C134.955 256.247 134.978 256.238 135.01 256.229C135.041 256.22 135.076 256.214 135.114 256.209L148.434 255.157ZM144.15 254.267C143.862 254.46 143.567 254.631 143.264 254.779C143.016 254.905 142.755 255.003 142.484 255.076C142.212 255.148 141.926 255.184 141.623 255.184C141.32 255.184 141.014 255.143 140.704 255.062C140.394 254.982 140.086 254.853 139.784 254.678C139.48 254.502 139.259 254.325 139.12 254.145C138.98 253.965 138.912 253.788 138.916 253.616C138.92 253.443 138.982 253.277 139.103 253.117C139.222 252.957 139.392 252.806 139.609 252.662C139.749 252.563 139.886 252.474 140.023 252.396C140.158 252.317 140.315 252.234 140.494 252.149C140.743 252.023 141.005 251.926 141.28 251.856C141.556 251.786 141.844 251.751 142.143 251.748C142.442 251.746 142.746 251.786 143.056 251.866C143.366 251.947 143.674 252.076 143.977 252.251C144.279 252.426 144.5 252.603 144.64 252.783C144.78 252.964 144.848 253.14 144.843 253.312C144.839 253.486 144.778 253.652 144.657 253.811C144.536 253.972 144.367 254.123 144.15 254.267ZM145.477 259.755C145.191 259.949 144.895 260.12 144.592 260.267C144.344 260.393 144.084 260.492 143.812 260.564C143.539 260.636 143.254 260.672 142.951 260.672C142.648 260.672 142.342 260.631 142.032 260.55C141.721 260.47 141.414 260.341 141.112 260.166C140.809 259.991 140.587 259.813 140.448 259.633C140.308 259.453 140.24 259.277 140.244 259.104C140.249 258.931 140.31 258.765 140.431 258.604C140.552 258.445 140.72 258.294 140.938 258.15C141.077 258.051 141.215 257.962 141.351 257.884C141.487 257.806 141.644 257.723 141.823 257.637C142.071 257.512 142.334 257.414 142.609 257.344C142.885 257.274 143.173 257.239 143.471 257.236C143.77 257.234 144.073 257.274 144.386 257.354C144.695 257.435 145.003 257.563 145.305 257.739C145.609 257.914 145.829 258.091 145.969 258.272C146.108 258.451 146.177 258.628 146.173 258.801C146.169 258.974 146.107 259.14 145.987 259.299C145.863 259.459 145.695 259.611 145.477 259.755ZM141.017 253.411C140.831 253.537 140.72 253.648 140.685 253.745C140.65 253.842 140.718 253.939 140.89 254.038C141.06 254.137 141.229 254.176 141.396 254.156C141.563 254.136 141.755 254.072 141.973 253.964C142.251 253.83 142.508 253.682 142.741 253.519C142.928 253.393 143.038 253.282 143.073 253.185C143.108 253.088 143.04 252.991 142.87 252.892C142.699 252.792 142.53 252.754 142.363 252.774C142.196 252.794 142.004 252.858 141.787 252.966C141.507 253.101 141.25 253.249 141.017 253.411ZM142.345 258.899C142.158 259.025 142.048 259.136 142.012 259.233C141.978 259.33 142.046 259.427 142.216 259.526C142.387 259.625 142.556 259.664 142.723 259.644C142.89 259.624 143.082 259.56 143.3 259.452C143.579 259.318 143.835 259.17 144.069 259.007C144.255 258.881 144.365 258.77 144.4 258.673C144.436 258.576 144.367 258.48 144.197 258.38C144.027 258.281 143.857 258.242 143.689 258.262C143.523 258.282 143.331 258.346 143.114 258.454C142.834 258.588 142.578 258.737 142.345 258.899Z" fill="white"/>
<path d="M254.834 141.714L243.46 135.129L243.459 102.203L254.833 108.788L254.834 141.714Z" fill="#161616"/>
<path d="M254.833 141.714L266.207 135.129V102.203L254.833 108.788V141.714Z" fill="#656565"/>
<path d="M243.459 102.203L254.833 108.788L266.207 102.203L254.834 95.6182L243.459 102.203Z" fill="#656565"/>
<path d="M229.242 126.897L217.869 120.312L217.868 54.4624L229.242 61.0475L229.242 126.897Z" fill="#161616"/>
<path d="M229.242 126.897L240.616 120.312V54.4624L229.242 61.0475V126.897Z" fill="#656565"/>
<path d="M217.868 54.4623L229.242 61.0474L240.616 54.4623L229.242 47.8772L217.868 54.4623Z" fill="#656565"/>
<path d="M203.651 112.081L192.278 105.496L192.277 82.4482L203.65 89.0333L203.651 112.081Z" fill="#161616"/>
<path d="M203.65 112.081L215.025 105.496V82.4482L203.65 89.0333V112.081Z" fill="#656565"/>
<path d="M192.277 82.4482L203.65 89.0333L215.025 82.4482L203.65 75.8638L192.277 82.4482Z" fill="#656565"/>
<path d="M280.423 156.53L269.05 149.945V87.3872L280.423 93.9723L280.423 156.53Z" fill="#161616"/>
<path d="M280.423 156.53L291.798 149.945V87.3872L280.423 93.9723V156.53Z" fill="#656565"/>
<path d="M269.05 87.3871L280.423 93.9722L291.798 87.3871L280.423 80.802L269.05 87.3871Z" fill="#656565"/>
<g opacity="0.5">
<path d="M200.907 151.754L200.789 78.8336C200.787 78.0579 200.244 77.1166 199.573 76.7298L113.773 27.2444C113.103 26.8576 112.56 27.1728 112.562 27.9485L112.679 100.868C112.681 101.643 113.224 102.585 113.895 102.972L199.696 152.458C200.367 152.845 200.909 152.53 200.907 151.754Z" fill="white"/>
</g>
<path d="M200.24 152.973C200.011 152.974 199.764 152.903 199.521 152.762L113.72 103.277C112.941 102.827 112.329 101.77 112.328 100.869L112.21 27.9492C112.21 27.4508 112.402 27.0528 112.739 26.8577C113.075 26.6611 113.515 26.692 113.946 26.9405L199.747 76.4259C200.525 76.8752 201.137 77.9324 201.138 78.8337L201.257 151.754C201.257 152.26 201.07 152.648 200.729 152.846C200.582 152.931 200.417 152.973 200.24 152.973ZM113.232 27.4305C113.178 27.4305 113.13 27.4417 113.09 27.4649C112.976 27.5309 112.91 27.7078 112.911 27.9485L113.029 100.868C113.029 101.52 113.506 102.344 114.069 102.668L199.87 152.154C200.079 152.274 200.263 152.305 200.378 152.238C200.492 152.172 200.557 151.996 200.557 151.755L200.439 78.8344C200.438 78.183 199.962 77.3589 199.398 77.0345L113.598 27.5491C113.461 27.4705 113.335 27.4305 113.232 27.4305Z" fill="url(#paint9_linear_1_19063)"/>
<path d="M192.752 135.665C190.478 134.042 189.148 132.574 188.242 121.301L188.164 120.34C187.317 109.751 186.757 102.755 181.949 99.8707C179.641 98.4864 177.794 99.8988 175.838 101.395C174.071 102.745 172.245 104.139 170.201 102.963C166.592 100.883 165.983 96.6908 164.877 89.0802C164.741 88.1431 164.597 87.154 164.44 86.1109C164.195 84.4936 163.984 82.9808 163.788 81.5664C162.678 73.5732 162.008 68.7486 157.936 66.2833C156.945 65.6831 156.035 65.5413 155.156 65.8502C152.07 66.9333 149.654 73.4854 147.094 80.4229C146.903 80.9409 146.709 81.4765 146.511 82.0227C144.655 87.14 142.551 92.9403 139.647 94.0171C138.822 94.3224 137.98 94.2375 137.139 93.7615C134.242 92.1239 133.726 87.625 133.229 83.2743C132.738 78.9839 132.23 74.5482 129.513 72.9161C129.001 72.608 128.486 72.563 127.936 72.7792C124.549 74.1031 121.547 84.151 121.518 84.2521L120.847 84.0527C120.973 83.6252 123.979 73.5718 127.682 72.125C128.437 71.8295 129.174 71.8934 129.874 72.3138C132.887 74.1235 133.414 78.7347 133.925 83.1942C134.424 87.5618 134.897 91.688 137.483 93.1501C138.146 93.525 138.774 93.5924 139.405 93.3586C142.005 92.3941 144.138 86.5103 145.853 81.7826C146.051 81.2358 146.246 80.6988 146.438 80.1793C149.169 72.775 151.527 66.3802 154.925 65.1875C155.998 64.8106 157.134 64.9769 158.298 65.6824C162.655 68.3211 163.342 73.2706 164.481 81.4702C164.677 82.8812 164.887 84.3918 165.131 86.0056C165.289 87.0501 165.432 88.0406 165.569 88.9791C166.644 96.3721 167.235 100.444 170.549 102.354C172.191 103.3 173.683 102.158 175.414 100.837C177.373 99.3386 179.595 97.642 182.309 99.2684C187.426 102.338 187.997 109.477 188.861 120.283L188.938 121.244C189.863 132.741 191.245 133.728 193.158 135.093L192.752 135.665Z" fill="url(#paint10_linear_1_19063)"/>
<g opacity="0.4">
<path d="M192.752 135.665C190.478 134.042 189.148 132.574 188.242 121.301L188.164 120.34C187.317 109.751 186.757 102.755 181.949 99.8707C179.641 98.4864 177.794 99.8988 175.838 101.395C174.071 102.745 172.245 104.139 170.201 102.963C166.592 100.883 165.983 96.6908 164.877 89.0802C164.741 88.1431 164.597 87.154 164.44 86.1109C164.195 84.4936 163.984 82.9808 163.788 81.5664C162.678 73.5732 162.008 68.7486 157.936 66.2833C156.945 65.6831 156.035 65.5413 155.156 65.8502C152.07 66.9333 149.654 73.4854 147.094 80.4229C146.903 80.9409 146.709 81.4765 146.511 82.0227C144.655 87.14 142.551 92.9403 139.647 94.0171C138.822 94.3224 137.98 94.2375 137.139 93.7615C134.242 92.1239 133.726 87.625 133.229 83.2743C132.738 78.9839 132.23 74.5482 129.513 72.9161C129.001 72.608 128.486 72.563 127.936 72.7792C124.549 74.1031 121.547 84.151 121.518 84.2521L120.847 84.0527C120.973 83.6252 123.979 73.5718 127.682 72.125C128.437 71.8295 129.174 71.8934 129.874 72.3138C132.887 74.1235 133.414 78.7347 133.925 83.1942C134.424 87.5618 134.897 91.688 137.483 93.1501C138.146 93.525 138.774 93.5924 139.405 93.3586C142.005 92.3941 144.138 86.5103 145.853 81.7826C146.051 81.2358 146.246 80.6988 146.438 80.1793C149.169 72.775 151.527 66.3802 154.925 65.1875C155.998 64.8106 157.134 64.9769 158.298 65.6824C162.655 68.3211 163.342 73.2706 164.481 81.4702C164.677 82.8812 164.887 84.3918 165.131 86.0056C165.289 87.0501 165.432 88.0406 165.569 88.9791C166.644 96.3721 167.235 100.444 170.549 102.354C172.191 103.3 173.683 102.158 175.414 100.837C177.373 99.3386 179.595 97.642 182.309 99.2684C187.426 102.338 187.997 109.477 188.861 120.283L188.938 121.244C189.863 132.741 191.245 133.728 193.158 135.093L192.752 135.665Z" fill="black"/>
</g>
<path d="M180.915 96.7968C181.905 97.3682 182.709 98.7602 182.711 99.9051C182.713 101.051 181.912 101.516 180.922 100.945C179.931 100.374 179.127 98.9827 179.125 97.8371C179.123 96.6915 179.924 96.2254 180.915 96.7968Z" fill="url(#paint11_linear_1_19063)"/>
<g opacity="0.2">
<path d="M180.915 96.7968C181.905 97.3682 182.709 98.7602 182.711 99.9051C182.713 101.051 181.912 101.516 180.922 100.945C179.931 100.374 179.127 98.9827 179.125 97.8371C179.123 96.6915 179.924 96.2254 180.915 96.7968Z" fill="black"/>
</g>
<path d="M158.114 63.9093C159.104 64.4806 159.908 65.8719 159.91 67.0175C159.912 68.1631 159.11 68.6292 158.12 68.0578C157.129 67.4864 156.325 66.0952 156.324 64.9496C156.322 63.8033 157.123 63.3379 158.114 63.9093Z" fill="url(#paint12_linear_1_19063)"/>
<g opacity="0.5">
<path d="M158.114 63.9093C159.104 64.4806 159.908 65.8719 159.91 67.0175C159.912 68.1631 159.11 68.6292 158.12 68.0578C157.129 67.4864 156.325 66.0952 156.324 64.9496C156.322 63.8033 157.123 63.3379 158.114 63.9093Z" fill="white"/>
</g>
<path d="M129.691 70.5399C130.681 71.1113 131.486 72.5026 131.487 73.6482C131.49 74.7938 130.688 75.2599 129.698 74.6885C128.707 74.1171 127.903 72.7258 127.901 71.5802C127.899 70.4346 128.701 69.9692 129.691 70.5399Z" fill="url(#paint13_linear_1_19063)"/>
<path d="M155.312 148.541V75.6209C155.312 74.8452 154.769 73.9025 154.099 73.515L79.7522 30.4701C79.083 30.0826 78.5398 30.3971 78.5398 31.1721L78.5391 104.092C78.5391 104.867 79.0816 105.81 79.7515 106.198L154.099 149.243C154.769 149.631 155.312 149.316 155.312 148.541Z" fill="white"/>
<path d="M154.643 149.759C154.414 149.759 154.168 149.688 153.924 149.546L79.5773 106.501C78.7989 106.051 78.1899 104.993 78.1899 104.092L78.1906 31.172C78.1906 30.6736 78.3838 30.2763 78.7205 30.0811C79.0579 29.8853 79.4968 29.9169 79.928 30.1661L154.275 73.211C155.053 73.6617 155.662 74.7202 155.662 75.6208V148.541C155.662 149.04 155.469 149.437 155.132 149.633C154.986 149.718 154.82 149.759 154.643 149.759ZM79.2126 30.6546C79.158 30.6546 79.1104 30.6659 79.0705 30.6883C78.9557 30.755 78.8906 30.9312 78.8906 31.1713L78.8899 104.091C78.8899 104.742 79.3652 105.568 79.9273 105.893L154.274 148.939C154.482 149.059 154.666 149.089 154.782 149.023C154.897 148.957 154.962 148.781 154.962 148.54V75.6208C154.962 74.9694 154.486 74.1446 153.924 73.8189L79.5773 30.774C79.4415 30.6954 79.3155 30.6546 79.2126 30.6546Z" fill="url(#paint14_linear_1_19063)"/>
<path d="M142.517 131.964V83.9804C142.517 83.5922 142.246 83.1212 141.911 82.9274L134.593 78.6904C134.257 78.4966 133.986 78.6539 133.986 79.0413V127.025C133.986 127.413 134.258 127.884 134.593 128.078L141.911 132.315C142.246 132.51 142.517 132.352 142.517 131.964Z" fill="url(#paint15_linear_1_19063)"/>
<g opacity="0.3">
<path d="M142.517 131.964V83.9804C142.517 83.5922 142.246 83.1212 141.911 82.9274L134.593 78.6904C134.257 78.4966 133.986 78.6539 133.986 79.0413V127.025C133.986 127.413 134.258 127.884 134.593 128.078L141.911 132.315C142.246 132.51 142.517 132.352 142.517 131.964Z" fill="black"/>
</g>
<path d="M128.3 123.733V98.7975C128.3 98.41 128.028 97.9383 127.694 97.7446L120.375 93.5075C120.041 93.3138 119.769 93.471 119.769 93.8585V118.794C119.769 119.182 120.041 119.653 120.375 119.847L127.694 124.084C128.028 124.278 128.3 124.121 128.3 123.733Z" fill="url(#paint16_linear_1_19063)"/>
<g opacity="0.2">
<path d="M128.3 123.733V98.7975C128.3 98.41 128.028 97.9383 127.694 97.7446L120.375 93.5075C120.041 93.3138 119.769 93.471 119.769 93.8585V118.794C119.769 119.182 120.041 119.653 120.375 119.847L127.694 124.084C128.028 124.278 128.3 124.121 128.3 123.733Z" fill="white"/>
</g>
<path d="M114.083 115.502V77.3961C114.083 77.0086 113.812 76.5369 113.477 76.3432L106.158 72.1061C105.824 71.9124 105.552 72.0696 105.552 72.4571V110.563C105.552 110.951 105.824 111.422 106.158 111.616L113.477 115.853C113.812 116.047 114.083 115.89 114.083 115.502Z" fill="url(#paint17_linear_1_19063)"/>
<g opacity="0.2">
<path d="M114.083 115.502V77.3961C114.083 77.0086 113.812 76.5369 113.477 76.3432L106.158 72.1061C105.824 71.9124 105.552 72.0696 105.552 72.4571V110.563C105.552 110.951 105.824 111.422 106.158 111.616L113.477 115.853C113.812 116.047 114.083 115.89 114.083 115.502Z" fill="black"/>
</g>
<path d="M99.8654 107.27V52.7018C99.8654 52.3143 99.5938 51.8426 99.2592 51.6488L91.9407 47.4118C91.6054 47.2181 91.3345 47.3753 91.3345 47.7628V102.331C91.3345 102.719 91.6061 103.19 91.9407 103.384L99.2592 107.621C99.5938 107.815 99.8654 107.658 99.8654 107.27Z" fill="url(#paint18_linear_1_19063)"/>
<path d="M251.041 116.021C250.945 115.498 248.373 109.502 247.315 107.142L241.961 109.657L244.011 114.367L249.559 118.667C251.26 118.13 251.135 116.543 251.041 116.021Z" fill="#FFA8A7"/>
<path d="M240.376 178.817H236.244V184.852H240.376V178.817Z" fill="#FFA8A7"/>
<path d="M225.834 171.349L221.704 171.491L221.911 177.524L226.042 177.381L225.834 171.349Z" fill="#FFA8A7"/>
<path d="M226.857 92.3577C224.301 92.5612 221.751 93.266 219.466 96.6691C217.181 100.072 213.182 105.895 213.182 105.895L220.712 108.291L226.857 92.3577Z" fill="url(#paint19_linear_1_19063)"/>
<g opacity="0.7">
<path d="M226.857 92.3577C224.301 92.5612 221.751 93.266 219.466 96.6691C217.181 100.072 213.182 105.895 213.182 105.895L220.712 108.291L226.857 92.3577Z" fill="white"/>
</g>
<path d="M240.106 119.896C240.106 123.853 240.616 149.456 240.616 149.456C240.713 150.595 241.777 152.695 241.547 157.069C241.234 163.011 240.721 179.517 240.721 179.517C240.721 179.517 238.783 181.443 236.047 179.517C236.047 179.517 232.304 157.089 231.564 151.201C230.918 146.062 229.822 132.101 229.822 132.101L225.992 148.534C225.992 148.534 226.666 152.397 226.814 155.123C226.962 157.851 226.112 173.598 226.112 173.598C226.112 173.598 224.012 175.053 221.615 173.77C221.615 173.77 218.295 150.761 217.868 148.298C217.442 145.836 220.774 119.896 220.774 119.896H240.106Z" fill="url(#paint20_linear_1_19063)"/>
<path opacity="0.2" d="M240.106 119.896C240.106 123.853 240.616 149.456 240.616 149.456C240.713 150.595 241.777 152.695 241.547 157.069C241.234 163.011 240.721 179.517 240.721 179.517C240.721 179.517 238.783 181.443 236.047 179.517C236.047 179.517 232.304 157.089 231.564 151.201C230.918 146.062 229.822 132.101 229.822 132.101L225.992 148.534C225.992 148.534 226.666 152.397 226.814 155.123C226.962 157.851 226.112 173.598 226.112 173.598C226.112 173.598 224.012 175.053 221.615 173.77C221.615 173.77 218.295 150.761 217.868 148.298C217.442 145.836 220.774 119.896 220.774 119.896H240.106Z" fill="black"/>
<path d="M233.884 92.4848C237.59 93.3791 242.292 94.8799 243.938 98.3047C245.585 101.73 248.125 107.281 248.125 107.281L241.989 110.918L240.105 107.631V119.896C237.206 123.057 227.103 124.531 220.774 119.896C220.774 119.896 220.774 102.92 220.774 99.6918C220.774 96.4635 222.563 92.5852 227.501 92.2974L233.884 92.4848Z" fill="url(#paint21_linear_1_19063)"/>
<path opacity="0.7" d="M233.884 92.4848C237.59 93.3791 242.292 94.8799 243.938 98.3047C245.585 101.73 248.125 107.281 248.125 107.281L241.989 110.918L240.105 107.631V119.896C237.206 123.057 227.103 124.531 220.774 119.896C220.774 119.896 220.774 102.92 220.774 99.6918C220.774 96.4635 222.563 92.5852 227.501 92.2974L233.884 92.4848Z" fill="white"/>
<path d="M235.275 75.9628C235.275 75.9628 236.299 75.7873 237.097 76.6058C237.879 77.4089 237.717 78.8942 237.095 82.3086L234.677 82.5872L235.275 75.9628Z" fill="black"/>
<path d="M221.171 74.9752C221.171 74.9752 220.194 74.9759 219.658 74.667C218.915 74.2396 218.721 75.0854 219.129 75.8211C219.535 76.556 220.295 77.5142 221.935 77.6953C221.957 77.59 222.629 75.8007 222.629 75.8007L221.171 74.9752Z" fill="black"/>
<path d="M234.14 82.5879C234.499 82.8034 235.011 82.1113 235.455 81.6466C235.897 81.1819 237.343 80.5473 238.064 82.0706C238.8 83.6233 237.131 85.6885 236.152 86.3715C234.988 87.1823 234.141 86.5463 234.141 86.5463L233.884 92.4849C233.884 92.4849 232.6 95.636 229.122 96.1091C225.643 96.5822 226.36 93.707 227.503 92.2975L227.508 90.1382C227.508 90.1382 225.712 90.5011 224.864 90.2744C224.411 90.153 223.328 88.841 222.631 87.3739C221.847 85.7257 220.542 82.7999 221.703 77.8518C222.95 72.5359 228.645 72.3737 232.041 74.5168C235.435 76.6599 234.14 82.5879 234.14 82.5879Z" fill="#FFA8A7"/>
<path d="M234.14 83.1937C234.321 83.1972 235.007 82.0544 235.455 81.6458C236.074 81.0808 235.275 75.9621 235.275 75.9621C235.275 75.9621 235.902 74.0204 234.677 72.733C233.453 71.4457 231.08 71.6633 229.346 71.6001C227.541 71.5348 225.609 71.4253 223.145 70.3527C220.681 69.2794 220.497 69.1524 220.191 70.2376C219.885 71.3221 219.77 73.807 221.241 75.4728L222.463 75.9235C222.463 75.9235 223.124 76.511 225.422 76.7918C227.72 77.0726 231.299 76.7377 231.789 76.671C232.455 76.5798 232.597 77.227 232.956 78.9966C233.271 80.5494 233.533 83.1817 234.14 83.1937Z" fill="black"/>
<path d="M235.271 76.3608L237.443 75.1913C237.135 74.5673 236.399 74.3237 235.799 74.6466C235.2 74.9695 234.963 75.7367 235.271 76.3608Z" fill="black"/>
<path d="M227.508 90.1382C227.508 90.1382 230.729 89.4875 231.854 88.8873C232.607 88.4858 233.228 87.7895 233.41 87.343C233.41 87.343 233.2 88.3012 232.526 89.1646C231.702 90.2197 227.508 90.9974 227.508 90.9974V90.1382Z" fill="#F28F8F"/>
<path d="M228.281 81.7799C228.281 82.1512 228.57 82.4517 228.927 82.451C229.283 82.4496 229.572 82.1477 229.572 81.7771C229.572 81.4057 229.283 81.1053 228.927 81.1067C228.57 81.1067 228.281 81.4092 228.281 81.7799Z" fill="black"/>
<path d="M228.966 79.3371L230.347 80.1015C230.55 79.7035 230.406 79.21 230.025 78.9994C229.644 78.7881 229.17 78.9398 228.966 79.3371Z" fill="black"/>
<path d="M228.329 86.168L226.856 86.7225C227.002 87.1458 227.451 87.3655 227.857 87.2118C228.264 87.0595 228.476 86.5913 228.329 86.168Z" fill="#F28F8F"/>
<path d="M222.527 79.8763L223.785 78.9041C223.529 78.5426 223.039 78.4675 222.691 78.7356C222.344 79.0038 222.27 79.5148 222.527 79.8763Z" fill="black"/>
<path d="M222.914 81.596C222.914 81.9673 223.203 82.2678 223.559 82.2664C223.916 82.2657 224.205 81.9638 224.205 81.5925C224.205 81.2212 223.916 80.9207 223.559 80.9221C223.203 80.9228 222.914 81.2247 222.914 81.596Z" fill="black"/>
<path d="M226.201 80.9824L225.99 84.8741L223.963 84.1813L226.201 80.9824Z" fill="#F28F8F"/>
<path d="M209.338 104.429L225.847 108.789L230.721 129.334L215.024 124.762L209.338 104.429Z" fill="url(#paint22_linear_1_19063)"/>
<path d="M216.536 118.022C216.383 118.442 215.48 119.607 213.558 119.516L213.32 118.665L216.536 118.022Z" fill="url(#paint23_linear_1_19063)"/>
<path d="M220.225 118.666C220.297 119.213 221.42 120.228 223.318 120.861C225.477 121.583 228.791 121.201 228.791 121.201L228.494 120.179L220.225 118.666Z" fill="url(#paint24_linear_1_19063)"/>
<path opacity="0.43" d="M214.171 107.404C214.171 107.404 214.11 107.121 214.035 106.772C213.96 106.424 214.929 106.409 216.2 106.739L218.632 107.371C219.902 107.702 220.993 108.252 221.068 108.6L221.204 109.232L214.171 107.404Z" fill="#656565"/>
<path d="M213.027 105.022C212.979 104.804 213.372 104.747 213.904 104.894L214.867 105.161C214.867 105.161 214.58 103.796 216.717 104.273C218.855 104.75 219.323 106.301 219.323 106.301C219.323 106.301 219.783 106.432 220.351 106.594C220.919 106.755 221.434 107.062 221.501 107.279L221.623 107.672L213.119 105.427C213.118 105.427 213.075 105.239 213.027 105.022Z" fill="#161616"/>
<path d="M214.198 105.704C214.978 105.892 215.301 105.996 215.418 106.533C215.551 107.147 215.605 107.598 215.605 107.598L219.369 108.596C219.369 108.596 219.187 107.819 219.129 107.515C219.07 107.212 219.199 107.03 219.798 107.189L219.848 106.948L213.951 105.442L214.198 105.704Z" fill="#161616"/>
<path d="M214.069 107.462C214.069 107.462 214.008 107.18 213.933 106.831C213.858 106.483 214.827 106.468 216.098 106.798L218.53 107.431C219.8 107.762 220.891 108.312 220.966 108.661L221.102 109.292L214.069 107.462Z" fill="#161616"/>
<path d="M249.558 118.666L244.01 114.366C244.01 114.366 232.394 116.559 231.081 116.663C229.767 116.767 228.74 115.468 228.239 114.175C227.738 112.882 226.734 113.049 226.734 113.049C226.734 113.049 227.123 114.688 227.247 115.211C227.371 115.735 224.345 116.158 222.599 115.564C220.854 114.971 218.327 115.832 219.892 118.216C221.458 120.6 224.502 120.875 226.617 120.876C227.202 120.877 228.24 120.832 229.261 120.699C229.945 120.61 230.626 120.541 231.314 120.492C235.643 120.183 247.591 119.286 249.558 118.666Z" fill="#FFA8A7"/>
<path d="M211.018 110.435C211.018 110.435 211.609 112.55 211.75 113.055C211.891 113.56 213.811 114.477 215.025 114.811C216.238 115.145 217.565 115.541 216.991 117.242C216.462 118.811 214.465 119.17 213.449 119.125C212.432 119.081 211.041 118.106 210.492 116.535C209.793 114.532 210.169 112.392 209.892 111.222C209.613 110.052 210.41 109.737 211.018 110.435Z" fill="#F28F8F"/>
<path d="M236.243 182.806V182.213C235.848 182.386 234.929 185.902 233.289 187.401C231.985 188.594 230.207 189.971 229.754 191.301C229.284 192.683 232.231 193.447 233.449 193.23C234.864 192.979 237.317 191.98 237.933 191.053C238.549 190.127 238.836 188.76 239.337 188.081C239.837 187.403 240.99 186.645 241.261 185.859C241.41 185.428 241.233 184.482 241.024 183.683C240.833 182.95 240.625 182.145 240.376 182.213C240.375 182.303 240.376 182.665 240.376 182.665C240.075 182.999 239.246 183.33 238.309 183.366C237.706 183.389 236.239 183.269 236.243 182.806Z" fill="#161616"/>
<path d="M221.873 176.243C221.658 176.251 221.483 176.554 221.01 177.068C220.438 177.69 219.502 178.359 218.578 178.823C217.031 179.599 214.022 180.794 212.661 181.409C211.809 181.793 211.85 182.824 212.729 183.411C213.608 183.997 215.732 184.42 218.281 183.848C219.67 183.536 221.477 182.25 222.622 182.319C223.766 182.389 225.907 182.372 226.752 181.788C227.596 181.204 227.258 179.958 227.02 178.886C226.759 177.717 226.386 175.927 226.001 176.007L226.013 176.375C225.516 177.129 222.987 177.438 221.895 176.882L221.873 176.243Z" fill="#161616"/>
<path d="M42.9136 173.723L45.4987 177.326C45.4987 177.326 44.301 178.03 41.7439 178.127C39.4304 178.216 38.7948 177.454 38.7094 177.271C38.3188 176.431 38.9285 174.916 39.0958 173.613L42.9136 173.723Z" fill="#161616"/>
<path d="M38.709 170.104C38.709 170.104 39.101 173.376 39.1311 174.078C39.1612 174.78 42.3154 175.006 42.9132 173.723L43.0112 169.723L38.709 170.104Z" fill="#F28F8F"/>
<path d="M38.7101 105.656C36.5513 109.024 34.4989 111.991 34.0614 115.777C33.1374 123.772 36.1705 132.913 36.8138 138.825C36.8138 138.825 34.7768 141.48 34.7789 144.601C34.7803 147.044 38.7094 170.104 38.7094 170.104C38.7094 170.104 41.5675 170.977 43.0116 169.723L45.7122 127.301L44.2898 122.137L38.7101 105.656Z" fill="url(#paint25_linear_1_19063)"/>
<path opacity="0.5" d="M38.7101 105.656C36.5513 109.024 34.4989 111.991 34.0614 115.777C33.1374 123.772 36.1705 132.913 36.8138 138.825C36.8138 138.825 34.7768 141.48 34.7789 144.601C34.7803 147.044 38.7094 170.104 38.7094 170.104C38.7094 170.104 41.5675 170.977 43.0116 169.723L45.7122 127.301L44.2898 122.137L38.7101 105.656Z" fill="white"/>
<path d="M58.6361 89.8516L72.8531 96.6964L64.3236 115.936L51.0684 108.269L58.6361 89.8516Z" fill="url(#paint26_linear_1_19063)"/>
<path d="M71.1842 97.0487L63.8167 113.444L53.6128 107.551L59.4004 91.4084L71.1842 97.0487Z" fill="url(#paint27_linear_1_19063)"/>
<path d="M59.4004 91.4084L71.1842 97.0487L63.2301 113.625L52.0889 107.243L59.4004 91.4084Z" fill="white"/>
<path d="M61.9604 93.7852C61.9604 93.7852 62.0851 93.5213 62.2384 93.1949C62.3917 92.8692 63.3668 93.0075 64.4154 93.5044L66.4229 94.4556C67.4715 94.9526 68.1968 95.6202 68.0428 95.9459L67.7648 96.5362L61.9604 93.7852Z" fill="#E0E0E0"/>
<path d="M33.8883 96.7335C32.8481 99.6965 30.7999 104.399 31.4607 105.343C32.1215 106.287 36.0646 106.089 38.2647 106.006C41.0549 105.9 43.3831 105.789 43.3831 105.789L42.9169 100.885H38.9437L40.6944 95.915L33.8883 96.7335Z" fill="#F28F8F"/>
<path d="M37.872 86.2378C36.423 88.6273 33.4956 97.0487 33.4956 97.0487C33.4956 97.0487 34.5351 98.3979 36.5805 98.9103C38.6259 99.4227 39.7998 99.0324 39.7998 99.0324L43.0331 90.9634L37.872 86.2378Z" fill="url(#paint28_linear_1_19063)"/>
<path opacity="0.4" d="M37.872 86.2378C36.423 88.6273 33.4956 97.0487 33.4956 97.0487C33.4956 97.0487 34.5351 98.3979 36.5805 98.9103C38.6259 99.4227 39.7998 99.0324 39.7998 99.0324L43.0331 90.9634L37.872 86.2378Z" fill="black"/>
<path d="M52.3389 87.74C54.8792 88.5044 56.4262 88.6427 59.2332 92.9731C62.0402 97.3028 68.189 105.893 68.798 106.925C69.645 108.36 70.0097 110.069 69.2789 111.388C68.5964 112.62 66.6084 112.08 63.8231 109.63C61.1295 107.26 55.792 100.556 55.792 100.556C55.792 100.556 50.3138 94.3721 52.3389 87.74Z" fill="#FFA8A7"/>
<path d="M50.3094 82.1222L49.6192 88.2138L43.6328 88.906L44.4966 80.8257L50.3094 82.1222Z" fill="#FFA8A7"/>
<path d="M37.4917 73.2311C37.9859 67.6077 41.0253 65.2919 43.3766 64.736C48.1191 63.6149 52.3478 65.3411 54.2644 68.6726C54.7698 69.5507 55.614 72.8352 53.9256 74.7747C52.2358 76.7149 37.4917 73.2311 37.4917 73.2311Z" fill="black"/>
<path d="M54.7349 75.2078C54.7349 75.2078 55.976 77.3473 55.7863 77.5551C55.5959 77.7629 54.7188 77.9454 54.7188 77.9454L54.7349 75.2078Z" fill="#F28F8F"/>
<path d="M50.9551 68.4375C52.2375 69.1984 54.4488 70.5953 54.7568 75.5119C55.0718 80.5583 54.1086 82.1124 53.389 82.7308C52.9039 83.1471 50.4259 83.0081 49.21 82.5511C47.6889 81.9797 44.2757 80.4095 42.8505 77.7322C41.174 74.5825 41.0249 70.5041 43.2523 69.037C46.3869 66.9718 49.8694 67.7931 50.9551 68.4375Z" fill="#FFA8A7"/>
<path d="M51.3338 68.6692C51.3338 68.6692 52.2228 73.3078 50.6772 76.1177C50.6772 76.1177 49.9716 74.287 48.4134 74.711C46.844 75.1378 46.8671 77.2043 48.0179 78.3261C49.1701 79.4478 50.3762 78.9719 50.3762 78.9719C50.3762 78.9719 50.0934 81.3094 48.4575 82.7933C48.4575 82.7933 43.3405 84.2808 39.5178 79.6781C36.0486 75.5021 36.9327 68.4298 42.4858 66.9255C48.0382 65.4212 51.3338 68.6692 51.3338 68.6692Z" fill="black"/>
<path d="M45.3529 175.596C45.3529 175.596 48.4854 175.396 50.6512 175.122C52.8177 174.848 54.5313 175.908 54.021 176.803C53.5114 177.697 52.32 178.441 50.4643 179.067C48.8739 179.604 46.9678 179.994 45.3074 180.492C43.6057 181.003 42.5165 181.587 41.5526 181.255C40.4781 180.884 40.0168 180.453 40.1085 179.668C40.1995 178.883 40.9786 176.356 40.9786 176.356L45.3529 175.596Z" fill="#161616"/>
<path d="M41.8902 172.117L40.7618 177.081C40.7618 177.081 40.6554 177.686 43.2342 178.071C45.813 178.457 49.8555 176.719 50.5436 176.365C51.2317 176.012 51.3144 175.309 48.7817 175.449C46.2498 175.59 45.3524 175.595 45.3524 175.595L46.1742 173.395L41.8902 172.117Z" fill="#FFA8A7"/>
<path d="M45.7121 127.301L44.2897 122.137C44.2897 122.137 40.3459 121.181 36.5806 119.071C36.5806 119.071 38.0401 121.728 42.2198 123.185L44.3968 129.825L44.5844 145.018L45.7121 127.301Z" fill="url(#paint29_linear_1_19063)"/>
<path d="M38.7098 105.656C37.5548 107.546 34.794 110.778 35.3806 113.885C36.0925 117.649 38.1113 120.294 44.2895 122.136L50.0834 143.177C50.0834 143.177 47.0657 146.008 46.1438 148.702C45.2226 151.395 41.8899 172.116 41.8899 172.116C41.8899 172.116 42.9203 173.803 46.1746 173.395C46.1746 173.395 57.5216 147.405 58.3231 145.732C59.1246 144.058 59.644 142.807 59.2835 140.082C58.9223 137.357 55.0569 107.545 55.0569 107.545L38.7098 105.656Z" fill="url(#paint30_linear_1_19063)"/>
<path opacity="0.5" d="M38.7098 105.656C37.5548 107.546 34.794 110.778 35.3806 113.885C36.0925 117.649 38.1113 120.294 44.2895 122.136L50.0834 143.177C50.0834 143.177 47.0657 146.008 46.1438 148.702C45.2226 151.395 41.8899 172.116 41.8899 172.116C41.8899 172.116 42.9203 173.803 46.1746 173.395C46.1746 173.395 57.5216 147.405 58.3231 145.732C59.1246 144.058 59.644 142.807 59.2835 140.082C58.9223 137.357 55.0569 107.545 55.0569 107.545L38.7098 105.656Z" fill="white"/>
<path d="M37.6562 86.6744C38.1084 85.4783 39.5378 84.4836 40.8209 84.8339C44.8606 85.9367 51.1438 87.3869 52.3373 87.74L52.3387 87.7393C52.3387 87.7393 51.8032 96.8339 56.4561 99.587C56.237 101.325 55.0568 107.545 55.0568 107.545C55.0568 107.545 49.4638 110.263 44.8592 108.924C40.2539 107.584 38.7097 105.655 38.7097 105.655L41.0134 101.889C40.5192 100.666 38.6201 96.5124 37.3909 92.6509C36.8092 90.8272 37.2047 87.8706 37.6562 86.6744Z" fill="url(#paint31_linear_1_19063)"/>
<path opacity="0.2" d="M37.6562 86.6744C38.1084 85.4783 39.5378 84.4836 40.8209 84.8339C44.8606 85.9367 51.1438 87.3869 52.3373 87.74L52.3387 87.7393C52.3387 87.7393 51.8032 96.8339 56.4561 99.587C56.237 101.325 55.0568 107.545 55.0568 107.545C55.0568 107.545 49.4638 110.263 44.8592 108.924C40.2539 107.584 38.7097 105.655 38.7097 105.655L41.0134 101.889C40.5192 100.666 38.6201 96.5124 37.3909 92.6509C36.8092 90.8272 37.2047 87.8706 37.6562 86.6744Z" fill="black"/>
<path opacity="0.25" d="M40.3853 100.41C40.4441 100.546 45.0207 103.006 46.3801 103.382C44.236 103.275 42.4552 102.77 41.0139 101.89L40.3853 100.41Z" fill="url(#paint32_linear_1_19063)"/>
<path d="M41.575 65.9855C41.575 65.9855 39.6514 62.7067 34.9607 63.5553C30.27 64.404 28.3576 69.4048 28.4283 72.5706C28.4997 75.7358 29.5546 77.9462 26.7245 81.6905C24.4061 84.7574 25.2244 89.2983 28.7356 91.2603C32.5107 93.3704 33.4263 89.6971 32.5499 86.5684C31.5447 82.9793 35.289 82.3588 36.2858 79.638C37.2826 76.9179 35.3212 71.2025 36.5805 69.2777C37.9511 67.1831 39.8698 67.4681 40.7938 68.1805L41.575 65.9855Z" fill="black"/>
<path d="M52.339 87.74C52.339 87.74 54.6042 88.2152 56.0119 88.9059C57.5568 89.6648 63.56 99.1223 63.56 99.1223C63.56 99.1223 63.1302 102.678 58.2183 104.091L55.2629 100.41C55.2629 100.41 51.0335 94.0148 52.339 87.74Z" fill="url(#paint33_linear_1_19063)"/>
<path opacity="0.1" d="M52.339 87.74C52.339 87.74 54.6042 88.2152 56.0119 88.9059C57.5568 89.6648 63.56 99.1223 63.56 99.1223C63.56 99.1223 63.1302 102.678 58.2183 104.091L55.2629 100.41C55.2629 100.41 51.0335 94.0148 52.339 87.74Z" fill="black"/>
<path d="M56.1542 101.52C56.1542 101.52 54.1445 99.3021 53.2891 96.3665C53.2891 96.3665 53.28 100.45 55.9722 102.566L56.1542 101.52Z" fill="url(#paint34_linear_1_19063)"/>
<path opacity="0.4" d="M56.1542 101.52C56.1542 101.52 54.1445 99.3021 53.2891 96.3665C53.2891 96.3665 53.28 100.45 55.9722 102.566L56.1542 101.52Z" fill="black"/>
<path d="M62.4715 91.2463C62.5667 91.0427 62.9951 91.0525 63.4284 91.2687L64.2131 91.6604C64.2131 91.6604 64.8221 90.3857 66.6372 91.1508C68.453 91.9159 67.9021 93.3865 67.9021 93.3865C67.9021 93.3865 68.2745 93.5768 68.7344 93.8119C69.1936 94.0464 69.5051 94.4037 69.4302 94.6101L69.2937 94.9828L62.2993 91.6148C62.2993 91.6148 62.3763 91.4498 62.4715 91.2463Z" fill="#656565"/>
<path d="M63.1901 92.0445C63.8432 92.3365 64.0973 92.4811 63.8614 92.983C63.5912 93.5572 63.3497 93.9714 63.3497 93.9714L66.4444 95.4609C66.4444 95.4609 66.7727 94.7323 66.9134 94.4501C67.0541 94.1679 67.3012 94.024 67.794 94.2606L68.0019 94.0521L63.1152 91.77L63.1901 92.0445Z" fill="#656565"/>
<path d="M61.9087 93.609C61.9087 93.609 62.0333 93.345 62.1866 93.0186C62.3406 92.6929 63.315 92.8312 64.3636 93.3282L66.3712 94.28C67.4198 94.777 68.145 95.4439 67.9917 95.7696L67.7138 96.36L61.9087 93.609Z" fill="#656565"/>
<defs>
<linearGradient id="paint0_linear_1_19063" x1="297.088" y1="125.998" x2="297.088" y2="143.559" gradientUnits="userSpaceOnUse">
<stop stop-color="#7ADEFF"/>
<stop offset="1" stop-color="#4169E1"/>
</linearGradient>
<linearGradient id="paint1_linear_1_19063" x1="296.577" y1="135.736" x2="296.577" y2="149.945" gradientUnits="userSpaceOnUse">
<stop stop-color="#7ADEFF"/>
<stop offset="1" stop-color="#4169E1"/>
</linearGradient>
<linearGradient id="paint2_linear_1_19063" x1="78.8289" y1="186.121" x2="78.8289" y2="195.45" gradientUnits="userSpaceOnUse">
<stop stop-color="#7ADEFF"/>
<stop offset="1" stop-color="#4169E1"/>
</linearGradient>
<linearGradient id="paint3_linear_1_19063" x1="78.5099" y1="175.865" x2="78.5099" y2="192.747" gradientUnits="userSpaceOnUse">
<stop stop-color="#7ADEFF"/>
<stop offset="1" stop-color="#4169E1"/>
</linearGradient>
<linearGradient id="paint4_linear_1_19063" x1="191.527" y1="227.588" x2="191.527" y2="236.372" gradientUnits="userSpaceOnUse">
<stop stop-color="#7ADEFF"/>
<stop offset="1" stop-color="#4169E1"/>
</linearGradient>
<linearGradient id="paint5_linear_1_19063" x1="192.134" y1="217.849" x2="192.134" y2="233.127" gradientUnits="userSpaceOnUse">
<stop stop-color="#7ADEFF"/>
<stop offset="1" stop-color="#4169E1"/>
</linearGradient>
<linearGradient id="paint6_linear_1_19063" x1="68.5888" y1="203.241" x2="68.5888" y2="223.41" gradientUnits="userSpaceOnUse">
<stop stop-color="#7ADEFF"/>
<stop offset="1" stop-color="#4169E1"/>
</linearGradient>
<linearGradient id="paint7_linear_1_19063" x1="105.566" y1="224.636" x2="105.566" y2="244.804" gradientUnits="userSpaceOnUse">
<stop stop-color="#7ADEFF"/>
<stop offset="1" stop-color="#4169E1"/>
</linearGradient>
<linearGradient id="paint8_linear_1_19063" x1="142.51" y1="246.038" x2="142.51" y2="266.206" gradientUnits="userSpaceOnUse">
<stop stop-color="#7ADEFF"/>
<stop offset="1" stop-color="#4169E1"/>
</linearGradient>
<linearGradient id="paint9_linear_1_19063" x1="156.734" y1="26.7295" x2="156.734" y2="152.973" gradientUnits="userSpaceOnUse">
<stop stop-color="#7ADEFF"/>
<stop offset="1" stop-color="#4169E1"/>
</linearGradient>
<linearGradient id="paint10_linear_1_19063" x1="157.003" y1="64.9912" x2="157.003" y2="135.665" gradientUnits="userSpaceOnUse">
<stop stop-color="#7ADEFF"/>
<stop offset="1" stop-color="#4169E1"/>
</linearGradient>
<linearGradient id="paint11_linear_1_19063" x1="180.918" y1="96.5527" x2="180.918" y2="101.189" gradientUnits="userSpaceOnUse">
<stop stop-color="#7ADEFF"/>
<stop offset="1" stop-color="#4169E1"/>
</linearGradient>
<linearGradient id="paint12_linear_1_19063" x1="158.117" y1="63.665" x2="158.117" y2="68.3019" gradientUnits="userSpaceOnUse">
<stop stop-color="#7ADEFF"/>
<stop offset="1" stop-color="#4169E1"/>
</linearGradient>
<linearGradient id="paint13_linear_1_19063" x1="129.694" y1="70.2961" x2="129.694" y2="74.9326" gradientUnits="userSpaceOnUse">
<stop stop-color="#7ADEFF"/>
<stop offset="1" stop-color="#4169E1"/>
</linearGradient>
<linearGradient id="paint14_linear_1_19063" x1="116.926" y1="29.9539" x2="116.926" y2="149.759" gradientUnits="userSpaceOnUse">
<stop stop-color="#7ADEFF"/>
<stop offset="1" stop-color="#4169E1"/>
</linearGradient>
<linearGradient id="paint15_linear_1_19063" x1="138.252" y1="78.6074" x2="138.252" y2="132.399" gradientUnits="userSpaceOnUse">
<stop stop-color="#7ADEFF"/>
<stop offset="1" stop-color="#4169E1"/>
</linearGradient>
<linearGradient id="paint16_linear_1_19063" x1="124.034" y1="93.4246" x2="124.034" y2="124.167" gradientUnits="userSpaceOnUse">
<stop stop-color="#7ADEFF"/>
<stop offset="1" stop-color="#4169E1"/>
</linearGradient>
<linearGradient id="paint17_linear_1_19063" x1="109.818" y1="72.0232" x2="109.818" y2="115.936" gradientUnits="userSpaceOnUse">
<stop stop-color="#7ADEFF"/>
<stop offset="1" stop-color="#4169E1"/>
</linearGradient>
<linearGradient id="paint18_linear_1_19063" x1="95.5999" y1="47.3289" x2="95.5999" y2="107.704" gradientUnits="userSpaceOnUse">
<stop stop-color="#7ADEFF"/>
<stop offset="1" stop-color="#4169E1"/>
</linearGradient>
<linearGradient id="paint19_linear_1_19063" x1="220.019" y1="92.3577" x2="220.019" y2="108.291" gradientUnits="userSpaceOnUse">
<stop stop-color="#7ADEFF"/>
<stop offset="1" stop-color="#4169E1"/>
</linearGradient>
<linearGradient id="paint20_linear_1_19063" x1="229.705" y1="119.896" x2="229.705" y2="180.373" gradientUnits="userSpaceOnUse">
<stop stop-color="#7ADEFF"/>
<stop offset="1" stop-color="#4169E1"/>
</linearGradient>
<linearGradient id="paint21_linear_1_19063" x1="234.45" y1="92.2974" x2="234.45" y2="122.845" gradientUnits="userSpaceOnUse">
<stop stop-color="#7ADEFF"/>
<stop offset="1" stop-color="#4169E1"/>
</linearGradient>
<linearGradient id="paint22_linear_1_19063" x1="220.029" y1="104.429" x2="220.029" y2="129.334" gradientUnits="userSpaceOnUse">
<stop stop-color="#7ADEFF"/>
<stop offset="1" stop-color="#4169E1"/>
</linearGradient>
<linearGradient id="paint23_linear_1_19063" x1="214.928" y1="118.022" x2="214.928" y2="119.521" gradientUnits="userSpaceOnUse">
<stop stop-color="#7ADEFF"/>
<stop offset="1" stop-color="#4169E1"/>
</linearGradient>
<linearGradient id="paint24_linear_1_19063" x1="224.508" y1="118.666" x2="224.508" y2="121.302" gradientUnits="userSpaceOnUse">
<stop stop-color="#7ADEFF"/>
<stop offset="1" stop-color="#4169E1"/>
</linearGradient>
<linearGradient id="paint25_linear_1_19063" x1="39.7999" y1="105.656" x2="39.7999" y2="170.4" gradientUnits="userSpaceOnUse">
<stop stop-color="#7ADEFF"/>
<stop offset="1" stop-color="#4169E1"/>
</linearGradient>
<linearGradient id="paint26_linear_1_19063" x1="61.9607" y1="89.8516" x2="61.9607" y2="115.936" gradientUnits="userSpaceOnUse">
<stop stop-color="#7ADEFF"/>
<stop offset="1" stop-color="#4169E1"/>
</linearGradient>
<linearGradient id="paint27_linear_1_19063" x1="62.3985" y1="91.4084" x2="62.3985" y2="113.444" gradientUnits="userSpaceOnUse">
<stop stop-color="#7ADEFF"/>
<stop offset="1" stop-color="#4169E1"/>
</linearGradient>
<linearGradient id="paint28_linear_1_19063" x1="38.2644" y1="86.2378" x2="38.2644" y2="99.1747" gradientUnits="userSpaceOnUse">
<stop stop-color="#7ADEFF"/>
<stop offset="1" stop-color="#4169E1"/>
</linearGradient>
<linearGradient id="paint29_linear_1_19063" x1="41.1463" y1="119.071" x2="41.1463" y2="145.018" gradientUnits="userSpaceOnUse">
<stop stop-color="#7ADEFF"/>
<stop offset="1" stop-color="#4169E1"/>
</linearGradient>
<linearGradient id="paint30_linear_1_19063" x1="47.3499" y1="105.656" x2="47.3499" y2="173.459" gradientUnits="userSpaceOnUse">
<stop stop-color="#7ADEFF"/>
<stop offset="1" stop-color="#4169E1"/>
</linearGradient>
<linearGradient id="paint31_linear_1_19063" x1="46.7779" y1="84.7627" x2="46.7779" y2="109.295" gradientUnits="userSpaceOnUse">
<stop stop-color="#7ADEFF"/>
<stop offset="1" stop-color="#4169E1"/>
</linearGradient>
<linearGradient id="paint32_linear_1_19063" x1="43.3827" y1="100.41" x2="43.3827" y2="103.382" gradientUnits="userSpaceOnUse">
<stop stop-color="#7ADEFF"/>
<stop offset="1" stop-color="#4169E1"/>
</linearGradient>
<linearGradient id="paint33_linear_1_19063" x1="57.8244" y1="87.74" x2="57.8244" y2="104.091" gradientUnits="userSpaceOnUse">
<stop stop-color="#7ADEFF"/>
<stop offset="1" stop-color="#4169E1"/>
</linearGradient>
<linearGradient id="paint34_linear_1_19063" x1="54.7216" y1="96.3665" x2="54.7216" y2="102.566" gradientUnits="userSpaceOnUse">
<stop stop-color="#7ADEFF"/>
<stop offset="1" stop-color="#4169E1"/>
</linearGradient>
</defs>
</svg>
