<svg width="231" height="201" viewBox="0 0 231 201" fill="none" xmlns="http://www.w3.org/2000/svg">
<g clip-path="url(#clip0_1_4782)">
<path d="M34.4201 172.174C79.1531 195.609 151.681 195.609 196.413 172.175C241.147 148.74 241.147 110.745 196.413 87.3111C151.68 63.8762 79.1526 63.8762 34.4196 87.3106C-10.3134 110.745 -10.3134 148.74 34.4201 172.174Z" fill="#3D3D3D"/>
<path d="M39.9995 131.344C35.5125 133.489 28.2385 133.489 23.7515 131.344C19.2645 129.2 19.2645 125.723 23.7515 123.579C28.2385 121.435 35.5125 121.435 39.9995 123.579C44.4865 125.723 44.4865 129.2 39.9995 131.344Z" fill="#EBEBEB"/>
<path d="M173.843 138.135C167.854 140.998 158.144 140.998 152.155 138.135C146.166 135.273 146.166 130.632 152.155 127.769C158.144 124.907 167.854 124.907 173.843 127.769C179.832 130.632 179.832 135.274 173.843 138.135Z" fill="#EBEBEB"/>
<path d="M208.843 102.792C208.843 102.792 210.024 99.122 213.88 95.2116C215.581 93.4853 216.694 92.2834 216.335 91.2571C216.016 90.347 214.934 89.8752 213.392 90.6093C211.196 91.6542 209.715 93.5861 208.843 97.4759V102.792H208.843Z" fill="url(#paint0_linear_1_4782)"/>
<path opacity="0.1" d="M208.843 102.792C208.843 102.792 210.024 99.122 213.88 95.2116C215.581 93.4853 216.694 92.2834 216.335 91.2571C216.016 90.347 214.934 89.8752 213.392 90.6093C211.196 91.6542 209.715 93.5861 208.843 97.4759V102.792H208.843Z" fill="black"/>
<path d="M208.598 100.486C208.583 100.486 208.567 100.484 208.551 100.48C208.451 100.454 208.391 100.352 208.417 100.251C209.792 94.9278 213.346 91.6291 214.852 90.8654C214.943 90.8183 215.057 90.8554 215.104 90.9482C215.15 91.0409 215.113 91.1542 215.021 91.2009C213.565 91.9394 210.123 95.1464 208.78 100.346C208.758 100.43 208.682 100.486 208.598 100.486Z" fill="white"/>
<path d="M208.843 107.354C208.843 107.354 210.487 104.115 212.473 102.4C214.459 100.684 217.008 98.923 214.846 97.5802C212.624 96.2009 209.132 98.8729 208.843 101.474V107.354Z" fill="url(#paint1_linear_1_4782)"/>
<path d="M208.598 105.048C208.584 105.048 208.57 105.046 208.556 105.043C208.455 105.019 208.392 104.918 208.416 104.816C209.35 100.809 212.704 98.5399 213.821 98.1669C213.918 98.1338 214.025 98.1874 214.058 98.2857C214.09 98.3845 214.038 98.4908 213.939 98.5239C212.919 98.8648 209.669 101.097 208.782 104.902C208.761 104.989 208.684 105.048 208.598 105.048Z" fill="white"/>
<path d="M62.6103 139.857C62.6103 139.857 61.8488 138.161 58.6773 137.445C55.5888 136.747 54.0533 137.418 51.9668 137.086C49.8538 136.75 50.4238 132.818 56.0368 133.223C61.1703 133.592 62.6103 137.645 62.6103 137.645V139.857Z" fill="url(#paint2_linear_1_4782)"/>
<path d="M62.9184 138.926C62.8444 138.926 62.7744 138.882 62.7449 138.809C62.2574 137.609 60.3979 135.654 57.7894 135.059C54.5579 134.323 52.8374 135.07 52.8204 135.077C52.7259 135.12 52.6149 135.078 52.5724 134.983C52.5299 134.888 52.5724 134.777 52.6669 134.734C52.7414 134.701 54.5209 133.928 57.8724 134.692C60.7664 135.352 62.6099 137.481 63.0919 138.667C63.1309 138.763 63.0849 138.873 62.9889 138.912C62.9659 138.921 62.9419 138.926 62.9184 138.926Z" fill="white"/>
<path d="M62.6104 137.926C62.6104 137.926 61.9444 136.557 60.2119 134.881C57.1984 131.966 53.2269 131.047 51.1904 129.453C48.9924 127.733 51.6564 125.745 54.4859 125.874C56.1074 125.947 57.8159 127.021 58.7584 127.794C62.0664 130.507 62.6104 134.881 62.6104 134.881V137.926Z" fill="url(#paint3_linear_1_4782)"/>
<path opacity="0.5" d="M62.6104 137.926C62.6104 137.926 61.9444 136.557 60.2119 134.881C57.1984 131.966 53.2269 131.047 51.1904 129.453C48.9924 127.733 51.6564 125.745 54.4859 125.874C56.1074 125.947 57.8159 127.021 58.7584 127.794C62.0664 130.507 62.6104 134.881 62.6104 134.881V137.926Z" fill="white"/>
<path d="M62.9179 137.633C62.8249 137.633 62.7444 137.564 62.7319 137.469C62.7284 137.44 62.3209 134.471 59.9704 131.789C57.6104 129.096 53.5739 127.654 53.5334 127.64C53.4359 127.606 53.3844 127.498 53.4184 127.4C53.4529 127.303 53.5589 127.25 53.6574 127.285C53.8264 127.344 57.8279 128.774 60.2519 131.541C62.6809 134.314 63.0874 137.296 63.1039 137.421C63.1169 137.524 63.0444 137.619 62.9419 137.632C62.9344 137.633 62.9259 137.633 62.9179 137.633Z" fill="white"/>
<path d="M131.233 169.087C131.233 169.087 132.084 167.434 135.289 166.889C138.411 166.357 139.908 167.11 142.009 166.891C144.136 166.669 143.777 162.712 138.151 162.815C133.005 162.909 131.351 166.878 131.351 166.878L131.233 169.087Z" fill="url(#paint4_linear_1_4782)"/>
<path opacity="0.1" d="M131.233 169.087C131.233 169.087 132.084 167.434 135.289 166.889C138.411 166.357 139.908 167.11 142.009 166.891C144.136 166.669 143.777 162.712 138.151 162.815C133.005 162.909 131.351 166.878 131.351 166.878L131.233 169.087Z" fill="black"/>
<path d="M130.986 168.294C130.949 168.294 130.911 168.284 130.878 168.261C130.793 168.201 130.772 168.084 130.831 167.999C132.025 166.286 134.202 165 136.657 164.562C139.811 163.997 141.66 164.998 141.737 165.041C141.828 165.091 141.86 165.205 141.81 165.296C141.76 165.387 141.647 165.42 141.555 165.369C141.538 165.359 139.74 164.393 136.722 164.932C134.364 165.353 132.276 166.581 131.139 168.214C131.103 168.266 131.045 168.294 130.986 168.294Z" fill="white"/>
<path d="M131.457 166.769C131.457 166.769 132.082 165.866 133.902 164.286C137.067 161.537 141.074 161.09 143.192 159.608C145.479 158.008 142.925 155.88 140.093 155.856C138.47 155.843 136.707 156.824 135.724 157.545C132.276 160.077 131.234 163.796 131.234 163.796L131.457 166.769Z" fill="url(#paint5_linear_1_4782)"/>
<path opacity="0.5" d="M131.457 166.769C131.457 166.769 132.082 165.866 133.902 164.286C137.067 161.537 141.074 161.09 143.192 159.608C145.479 158.008 142.925 155.88 140.093 155.856C138.47 155.843 136.707 156.824 135.724 157.545C132.276 160.077 131.234 163.796 131.234 163.796L131.457 166.769Z" fill="white"/>
<path d="M130.985 166.729C130.967 166.729 130.947 166.726 130.929 166.72C130.83 166.689 130.775 166.583 130.807 166.484C130.816 166.454 131.818 163.35 134.416 160.751C137.422 157.743 140.735 157.32 140.875 157.303C140.975 157.29 141.071 157.365 141.083 157.468C141.095 157.571 141.022 157.664 140.919 157.677C140.886 157.681 137.591 158.105 134.68 161.017C132.151 163.549 131.174 166.568 131.164 166.598C131.138 166.678 131.065 166.729 130.985 166.729Z" fill="white"/>
<path d="M82.9194 140.28C82.9194 140.279 82.9194 140.278 82.9194 140.277V102.396H62.6094V140.283C62.6114 141.786 63.6029 143.289 65.5839 144.436C69.5494 146.732 75.9794 146.732 79.9449 144.436C81.9259 143.289 82.9169 141.786 82.9189 140.283L82.9194 140.28Z" fill="#161616"/>
<path d="M65.5845 106.807C61.619 104.511 61.619 100.788 65.5845 98.4924C69.5505 96.1965 75.98 96.1965 79.946 98.4924C83.912 100.788 83.912 104.511 79.946 106.807C75.98 109.103 69.5505 109.103 65.5845 106.807Z" fill="#7ADEFF"/>
<path d="M107.292 154.391C107.292 154.39 107.292 154.389 107.292 154.387V126.819H86.9819V154.393H86.9824C86.9839 155.896 87.9754 157.399 89.9564 158.546C93.9224 160.842 100.352 160.842 104.318 158.546C106.299 157.399 107.29 155.896 107.292 154.393V154.391Z" fill="#161616"/>
<path d="M89.9569 131.231C85.9909 128.935 85.9909 125.213 89.9569 122.916C93.9229 120.62 100.352 120.62 104.318 122.916C108.284 125.213 108.284 128.935 104.318 131.231C100.353 133.527 93.9229 133.527 89.9569 131.231Z" fill="#4169E1"/>
<path d="M131.665 168.502C131.665 168.5 131.665 168.499 131.665 168.498V147.08H111.355V168.503C111.357 170.007 112.348 171.51 114.329 172.657C118.295 174.953 124.724 174.953 128.69 172.657C130.671 171.51 131.662 170.007 131.664 168.503H131.664V168.502H131.665Z" fill="#161616"/>
<path d="M121.51 153.213C127.119 153.213 131.665 150.581 131.665 147.334C131.665 144.087 127.119 141.454 121.51 141.454C115.902 141.454 111.355 144.087 111.355 147.334C111.355 150.581 115.902 153.213 121.51 153.213Z" fill="#7ADEFF"/>
<path d="M61.3109 153.637L56.5169 150.862L59.1734 147.412C59.5109 146.973 59.3509 146.73 58.8164 146.868L52.4554 148.51L47.6614 145.734C46.9439 145.319 45.7804 145.319 45.0629 145.734L37.5059 150.11C36.7884 150.525 36.7884 151.199 37.5059 151.614L51.1559 159.517C51.8734 159.932 53.0364 159.932 53.7539 159.517L61.3109 155.142C62.0284 154.725 62.0284 154.053 61.3109 153.637Z" fill="url(#paint6_linear_1_4782)"/>
<path d="M53.6399 151.936C53.7289 151.93 53.8074 151.931 53.8769 151.939C53.9469 151.947 54.0204 151.973 54.0974 152.018L54.7789 152.413C54.8404 152.448 54.8734 152.486 54.8789 152.524C54.8854 152.562 54.8624 152.597 54.8124 152.625C54.8009 152.632 54.7849 152.638 54.7629 152.644C54.7399 152.651 54.7154 152.655 54.6879 152.659L45.1724 153.41C45.0839 153.416 45.0044 153.415 44.9359 153.407C44.8659 153.399 44.7929 153.373 44.7154 153.328L44.0334 152.933C43.9729 152.898 43.9394 152.86 43.9334 152.822C43.9279 152.784 43.9504 152.75 44.0009 152.721C44.0114 152.714 44.0284 152.708 44.0509 152.702C44.0729 152.695 44.0979 152.691 44.1254 152.688L53.6399 151.936ZM50.5794 151.3C50.3739 151.438 50.1634 151.561 49.9469 151.666C49.7699 151.756 49.5839 151.826 49.3899 151.878C49.1954 151.93 48.9909 151.955 48.7739 151.955C48.5579 151.955 48.3394 151.926 48.1174 151.868C47.8959 151.811 47.6764 151.719 47.4609 151.594C47.2439 151.468 47.0859 151.342 46.9864 151.213C46.8869 151.085 46.8379 150.959 46.8409 150.835C46.8439 150.712 46.8879 150.593 46.9744 150.479C47.0599 150.365 47.1809 150.257 47.3359 150.154C47.4359 150.083 47.5339 150.02 47.6314 149.964C47.7284 149.908 47.8404 149.848 47.9684 149.788C48.1464 149.697 48.3334 149.628 48.5299 149.578C48.7269 149.529 48.9324 149.503 49.1454 149.501C49.3589 149.499 49.5764 149.528 49.7979 149.586C50.0194 149.643 50.2389 149.735 50.4554 149.86C50.6714 149.985 50.8294 150.112 50.9289 150.241C51.0294 150.369 51.0774 150.495 51.0744 150.619C51.0714 150.742 51.0274 150.861 50.9414 150.975C50.8554 151.089 50.7344 151.198 50.5794 151.3ZM51.5274 155.22C51.3229 155.359 51.1119 155.481 50.8954 155.586C50.7179 155.676 50.5324 155.747 50.3384 155.799C50.1434 155.85 49.9394 155.875 49.7224 155.875C49.5059 155.875 49.2874 155.846 49.0659 155.789C48.8439 155.731 48.6249 155.639 48.4089 155.514C48.1929 155.389 48.0344 155.262 47.9349 155.133C47.8349 155.005 47.7864 154.879 47.7894 154.755C47.7924 154.632 47.8364 154.513 47.9224 154.399C48.0089 154.285 48.1289 154.176 48.2849 154.074C48.3844 154.003 48.4829 153.94 48.5799 153.883C48.6769 153.828 48.7894 153.768 48.9169 153.707C49.0939 153.617 49.2814 153.548 49.4784 153.498C49.6754 153.448 49.8809 153.423 50.0939 153.421C50.3074 153.419 50.5239 153.447 50.7469 153.505C50.9679 153.563 51.1879 153.655 51.4034 153.78C51.6199 153.905 51.7774 154.032 51.8774 154.16C51.9769 154.289 52.0259 154.415 52.0229 154.539C52.0199 154.662 51.9759 154.781 51.8899 154.895C51.8029 155.009 51.6829 155.118 51.5274 155.22ZM48.3419 150.689C48.2089 150.78 48.1299 150.859 48.1049 150.928C48.0799 150.997 48.1284 151.066 48.2509 151.138C48.3724 151.208 48.4929 151.236 48.6124 151.222C48.7314 151.207 48.8689 151.162 49.0244 151.084C49.2239 150.989 49.4069 150.883 49.5734 150.766C49.7064 150.677 49.7854 150.597 49.8104 150.528C49.8354 150.459 49.7869 150.389 49.6654 150.319C49.5429 150.248 49.4224 150.22 49.3029 150.234C49.1839 150.249 49.0464 150.295 48.8914 150.371C48.6914 150.468 48.5084 150.573 48.3419 150.689ZM49.2904 154.609C49.1569 154.699 49.0779 154.778 49.0524 154.847C49.0279 154.917 49.0769 154.986 49.1984 155.057C49.3204 155.128 49.4409 155.156 49.5604 155.141C49.6799 155.127 49.8169 155.081 49.9724 155.004C50.1714 154.908 50.3549 154.802 50.5214 154.686C50.6544 154.596 50.7334 154.517 50.7584 154.448C50.7839 154.379 50.7349 154.309 50.6129 154.238C50.4914 154.167 50.3704 154.14 50.2504 154.154C50.1319 154.168 49.9944 154.214 49.8394 154.291C49.6394 154.388 49.4569 154.494 49.2904 154.609Z" fill="white"/>
<path d="M87.7235 168.919L82.9295 166.143L85.586 162.693C85.9235 162.254 85.7635 162.011 85.229 162.149L78.868 163.791L74.074 161.015C73.3565 160.6 72.1935 160.6 71.476 161.015L63.919 165.391C63.2015 165.806 63.2015 166.48 63.919 166.895L77.569 174.798C78.2865 175.214 79.4495 175.214 80.167 174.798L87.724 170.423C88.441 170.007 88.441 169.334 87.7235 168.919Z" fill="url(#paint7_linear_1_4782)"/>
<path d="M80.0523 167.217C80.1413 167.211 80.2198 167.212 80.2893 167.22C80.3593 167.228 80.4328 167.254 80.5098 167.299L81.1913 167.694C81.2528 167.729 81.2858 167.767 81.2913 167.805C81.2978 167.844 81.2748 167.878 81.2248 167.906C81.2133 167.913 81.1973 167.919 81.1753 167.925C81.1523 167.932 81.1278 167.937 81.1003 167.94L71.5848 168.691C71.4963 168.697 71.4168 168.696 71.3483 168.688C71.2783 168.68 71.2053 168.654 71.1278 168.609L70.4458 168.214C70.3853 168.179 70.3513 168.141 70.3458 168.103C70.3403 168.065 70.3628 168.031 70.4133 168.002C70.4238 167.996 70.4408 167.99 70.4633 167.983C70.4853 167.976 70.5103 167.971 70.5378 167.969L80.0523 167.217ZM76.9918 166.582C76.7863 166.72 76.5758 166.842 76.3593 166.948C76.1823 167.038 75.9963 167.108 75.8023 167.16C75.6078 167.211 75.4033 167.237 75.1863 167.237C74.9703 167.237 74.7518 167.208 74.5298 167.15C74.3083 167.093 74.0888 167.001 73.8728 166.875C73.6558 166.75 73.4978 166.623 73.3983 166.495C73.2988 166.366 73.2498 166.24 73.2528 166.117C73.2558 165.993 73.2998 165.875 73.3863 165.76C73.4718 165.646 73.5928 165.538 73.7478 165.436C73.8478 165.365 73.9458 165.302 74.0433 165.245C74.1403 165.189 74.2523 165.131 74.3803 165.069C74.5583 164.979 74.7453 164.91 74.9418 164.86C75.1383 164.81 75.3443 164.785 75.5573 164.783C75.7708 164.781 75.9883 164.81 76.2098 164.867C76.4313 164.925 76.6508 165.017 76.8673 165.142C77.0833 165.267 77.2413 165.394 77.3408 165.522C77.4413 165.651 77.4893 165.777 77.4863 165.9C77.4833 166.024 77.4393 166.143 77.3533 166.257C77.2678 166.371 77.1463 166.479 76.9918 166.582ZM77.9393 170.502C77.7348 170.64 77.5238 170.762 77.3073 170.868C77.1303 170.957 76.9443 171.028 76.7503 171.08C76.5553 171.131 76.3513 171.156 76.1348 171.156C75.9183 171.156 75.6998 171.127 75.4778 171.07C75.2558 171.012 75.0368 170.92 74.8208 170.795C74.6048 170.67 74.4463 170.543 74.3468 170.414C74.2468 170.286 74.1983 170.16 74.2013 170.036C74.2043 169.913 74.2483 169.794 74.3343 169.68C74.4208 169.566 74.5408 169.458 74.6968 169.355C74.7963 169.285 74.8948 169.221 74.9918 169.165C75.0888 169.109 75.2013 169.05 75.3288 168.989C75.5063 168.899 75.6938 168.829 75.8903 168.779C76.0868 168.73 76.2928 168.705 76.5058 168.702C76.7193 168.701 76.9358 168.729 77.1588 168.787C77.3798 168.844 77.5998 168.936 77.8158 169.062C78.0323 169.187 78.1898 169.313 78.2898 169.442C78.3893 169.57 78.4383 169.697 78.4353 169.82C78.4323 169.943 78.3883 170.062 78.3023 170.176C78.2153 170.29 78.0953 170.399 77.9393 170.502ZM74.7538 165.97C74.6208 166.061 74.5418 166.14 74.5168 166.209C74.4918 166.278 74.5403 166.347 74.6628 166.419C74.7843 166.489 74.9048 166.517 75.0243 166.503C75.1433 166.488 75.2808 166.443 75.4363 166.365C75.6353 166.27 75.8188 166.164 75.9853 166.048C76.1183 165.958 76.1973 165.878 76.2223 165.809C76.2473 165.74 76.1988 165.671 76.0773 165.6C75.9548 165.529 75.8343 165.501 75.7148 165.516C75.5958 165.53 75.4583 165.576 75.3033 165.652C75.1033 165.749 74.9203 165.855 74.7538 165.97ZM75.7028 169.89C75.5693 169.98 75.4903 170.059 75.4648 170.128C75.4403 170.198 75.4893 170.267 75.6108 170.338C75.7328 170.409 75.8533 170.437 75.9728 170.422C76.0923 170.408 76.2293 170.362 76.3848 170.285C76.5838 170.189 76.7673 170.083 76.9338 169.968C77.0668 169.877 77.1458 169.798 77.1708 169.729C77.1963 169.66 77.1473 169.59 77.0253 169.519C76.9038 169.449 76.7828 169.421 76.6628 169.435C76.5443 169.45 76.4068 169.495 76.2518 169.572C76.0518 169.669 75.8693 169.775 75.7028 169.89Z" fill="white"/>
<path d="M114.112 184.206L109.318 181.431L111.974 177.98C112.312 177.542 112.152 177.299 111.617 177.437L105.256 179.078L100.462 176.303C99.7454 175.888 98.5819 175.888 97.8644 176.303L90.3074 180.678C89.5899 181.094 89.5899 181.767 90.3074 182.182L103.957 190.086C104.675 190.501 105.838 190.501 106.555 190.086L114.112 185.71C114.829 185.295 114.829 184.621 114.112 184.206Z" fill="url(#paint8_linear_1_4782)"/>
<path d="M106.441 182.505C106.53 182.499 106.608 182.5 106.678 182.508C106.748 182.516 106.821 182.542 106.898 182.587L107.58 182.982C107.641 183.017 107.674 183.055 107.68 183.093C107.686 183.131 107.663 183.165 107.613 183.193C107.602 183.201 107.586 183.207 107.564 183.213C107.541 183.22 107.516 183.224 107.489 183.228L97.9735 183.979C97.885 183.985 97.8055 183.984 97.737 183.976C97.667 183.968 97.594 183.942 97.5165 183.896L96.8345 183.502C96.774 183.467 96.74 183.429 96.7345 183.391C96.729 183.352 96.7515 183.318 96.802 183.29C96.8125 183.283 96.8295 183.277 96.852 183.271C96.874 183.264 96.899 183.26 96.9265 183.257L106.441 182.505ZM103.38 181.869C103.175 182.007 102.964 182.13 102.748 182.235C102.571 182.325 102.384 182.395 102.191 182.447C101.996 182.499 101.792 182.524 101.575 182.524C101.359 182.524 101.141 182.495 100.919 182.437C100.697 182.38 100.478 182.288 100.262 182.163C100.045 182.037 99.887 181.91 99.7875 181.782C99.688 181.654 99.639 181.527 99.642 181.404C99.645 181.281 99.689 181.162 99.7755 181.048C99.861 180.934 99.9819 180.825 100.137 180.723C100.237 180.652 100.335 180.589 100.432 180.533C100.529 180.476 100.641 180.417 100.769 180.357C100.947 180.266 101.134 180.197 101.331 180.147C101.528 180.097 101.733 180.072 101.947 180.07C102.16 180.068 102.378 180.097 102.599 180.155C102.821 180.212 103.04 180.304 103.257 180.429C103.473 180.554 103.631 180.681 103.73 180.809C103.831 180.938 103.879 181.064 103.876 181.187C103.873 181.311 103.829 181.43 103.743 181.544C103.656 181.658 103.535 181.767 103.38 181.869ZM104.328 185.789C104.124 185.928 103.913 186.05 103.696 186.155C103.519 186.245 103.333 186.316 103.139 186.367C102.944 186.419 102.74 186.444 102.524 186.444C102.307 186.444 102.089 186.415 101.867 186.357C101.645 186.3 101.426 186.208 101.21 186.083C100.994 185.958 100.836 185.83 100.736 185.702C100.636 185.574 100.588 185.448 100.591 185.324C100.594 185.201 100.638 185.082 100.724 184.967C100.81 184.854 100.93 184.745 101.086 184.643C101.186 184.572 101.284 184.509 101.381 184.453C101.478 184.397 101.591 184.338 101.718 184.277C101.896 184.187 102.083 184.117 102.28 184.067C102.477 184.017 102.682 183.992 102.896 183.99C103.109 183.989 103.326 184.017 103.549 184.074C103.77 184.132 103.99 184.224 104.206 184.349C104.422 184.475 104.58 184.601 104.68 184.73C104.779 184.858 104.828 184.985 104.825 185.108C104.822 185.231 104.778 185.35 104.692 185.464C104.604 185.578 104.484 185.686 104.328 185.789ZM101.143 181.258C101.01 181.348 100.931 181.427 100.906 181.496C100.881 181.565 100.929 181.635 101.052 181.706C101.173 181.777 101.294 181.804 101.413 181.79C101.532 181.776 101.67 181.73 101.825 181.653C102.024 181.557 102.208 181.451 102.374 181.335C102.507 181.245 102.586 181.165 102.611 181.097C102.636 181.027 102.588 180.958 102.466 180.887C102.344 180.816 102.223 180.788 102.104 180.803C101.985 180.817 101.847 180.863 101.692 180.94C101.492 181.036 101.309 181.142 101.143 181.258ZM102.091 185.178C101.958 185.268 101.879 185.347 101.853 185.416C101.829 185.485 101.878 185.555 101.999 185.626C102.121 185.696 102.242 185.725 102.361 185.71C102.481 185.696 102.618 185.65 102.773 185.573C102.972 185.477 103.156 185.371 103.322 185.255C103.455 185.165 103.534 185.086 103.559 185.017C103.585 184.947 103.536 184.878 103.414 184.807C103.292 184.736 103.171 184.709 103.051 184.723C102.933 184.737 102.795 184.783 102.64 184.86C102.44 184.956 102.258 185.062 102.091 185.178Z" fill="white"/>
<path d="M182.44 101.474L174.316 96.7705L174.316 73.2523L182.44 77.956L182.44 101.474Z" fill="#161616"/>
<path d="M182.44 101.474L190.564 96.7705V73.2523L182.44 77.956V101.474Z" fill="#656565"/>
<path d="M174.316 73.2523L182.44 77.956L190.564 73.2523L182.44 68.5487L174.316 73.2523Z" fill="#656565"/>
<path d="M164.161 90.8906L156.037 86.187L156.036 39.1516L164.16 43.8553L164.161 90.8906Z" fill="#161616"/>
<path d="M164.16 90.8906L172.285 86.187V39.1516L164.16 43.8553V90.8906Z" fill="#656565"/>
<path d="M156.036 39.1516L164.16 43.8553L172.285 39.1516L164.16 34.448L156.036 39.1516Z" fill="#656565"/>
<path d="M145.881 80.3076L137.757 75.604L137.757 59.1415L145.881 63.8451L145.881 80.3076Z" fill="#161616"/>
<path d="M145.881 80.3076L154.005 75.604V59.1415L145.881 63.8451V80.3076Z" fill="#656565"/>
<path d="M137.757 59.1415L145.881 63.8451L154.005 59.1415L145.881 54.4384L137.757 59.1415Z" fill="#656565"/>
<path d="M200.719 112.057L192.595 107.354V62.6693L200.718 67.3729L200.719 112.057Z" fill="#161616"/>
<path d="M200.719 112.057L208.844 107.354V62.6693L200.719 67.3729V112.057Z" fill="#656565"/>
<path d="M192.595 62.6693L200.718 67.373L208.843 62.6693L200.719 57.9657L192.595 62.6693Z" fill="#656565"/>
<g opacity="0.5">
<path d="M143.922 108.646L143.837 56.5598C143.836 56.0057 143.448 55.3333 142.969 55.0571L81.6826 19.7103C81.2041 19.4341 80.8166 19.6592 80.8176 20.2132L80.9016 72.2987C80.9026 72.8523 81.2911 73.5252 81.7701 73.8014L143.057 109.149C143.536 109.425 143.923 109.2 143.922 108.646Z" fill="white"/>
</g>
<path d="M143.446 109.517C143.282 109.517 143.106 109.467 142.932 109.366L81.6451 74.0191C81.0886 73.6982 80.6521 72.9426 80.6511 72.2993L80.5671 20.2138C80.5666 19.8578 80.7041 19.5735 80.9446 19.4341C81.1846 19.2937 81.4991 19.3158 81.8071 19.4933L143.093 54.84C143.649 55.1609 144.086 55.916 144.087 56.5598L144.172 108.646C144.172 109.007 144.038 109.284 143.795 109.426C143.69 109.487 143.572 109.517 143.446 109.517ZM81.2971 19.8432C81.2581 19.8432 81.2241 19.8513 81.1956 19.8678C81.1141 19.9149 81.0671 20.0413 81.0676 20.2133L81.1516 72.2988C81.1521 72.7641 81.4926 73.3527 81.8946 73.5844L143.181 108.932C143.33 109.017 143.462 109.039 143.544 108.992C143.626 108.945 143.672 108.819 143.672 108.646L143.588 56.5603C143.587 56.095 143.247 55.5064 142.844 55.2747L81.5581 19.928C81.4606 19.8718 81.3706 19.8432 81.2971 19.8432Z" fill="url(#paint9_linear_1_4782)"/>
<path d="M138.097 97.1537C136.473 95.9945 135.522 94.946 134.875 86.8936L134.82 86.2071C134.215 78.6435 133.815 73.6465 130.38 71.5863C128.732 70.5975 127.413 71.6064 126.015 72.6748C124.753 73.6395 123.449 74.6353 121.989 73.795C119.411 72.3093 118.976 69.315 118.186 63.8788C118.089 63.2094 117.986 62.5029 117.874 61.7578C117.699 60.6026 117.548 59.5221 117.408 58.5118C116.615 52.8023 116.137 49.3562 113.228 47.5953C112.521 47.1666 111.871 47.0653 111.243 47.2859C109.038 48.0596 107.312 52.7396 105.484 57.695C105.348 58.065 105.209 58.4476 105.067 58.8377C103.742 62.4929 102.239 66.636 100.165 67.4051C99.5756 67.6232 98.9736 67.5626 98.3731 67.2226C96.3036 66.0528 95.9356 62.8394 95.5801 59.7317C95.2296 56.6671 94.8666 53.4988 92.9261 52.333C92.5606 52.1129 92.1921 52.0808 91.7996 52.2352C89.3801 53.1809 87.2361 60.3579 87.2151 60.4301L86.7361 60.2877C86.8261 59.9824 88.9731 52.8013 91.6181 51.7679C92.1571 51.5568 92.6836 51.6025 93.1836 51.9028C95.3361 53.1954 95.7126 56.4891 96.0771 59.6745C96.4341 62.7942 96.7716 65.7415 98.6191 66.7859C99.0921 67.0536 99.5411 67.1018 99.9916 66.9348C101.849 66.2459 103.373 62.0431 104.598 58.6662C104.739 58.2756 104.878 57.892 105.015 57.521C106.966 52.2322 108.651 47.6645 111.078 46.8126C111.844 46.5433 112.655 46.6622 113.487 47.1661C116.599 49.0508 117.09 52.5862 117.903 58.4431C118.043 59.4509 118.193 60.5299 118.367 61.6826C118.48 62.4287 118.583 63.1362 118.681 63.8066C119.448 69.0873 119.871 71.9959 122.238 73.3602C123.411 74.0361 124.476 73.2204 125.712 72.2762C127.112 71.2062 128.699 69.9943 130.637 71.1561C134.293 73.3487 134.7 78.448 135.318 86.1665L135.373 86.8529C136.033 95.0654 137.02 95.7698 138.387 96.7451L138.097 97.1537Z" fill="url(#paint10_linear_1_4782)"/>
<g opacity="0.4">
<path d="M138.097 97.1537C136.473 95.9945 135.522 94.946 134.875 86.8936L134.82 86.2071C134.215 78.6435 133.815 73.6465 130.38 71.5863C128.732 70.5975 127.413 71.6064 126.015 72.6748C124.753 73.6395 123.449 74.6353 121.989 73.795C119.411 72.3093 118.976 69.315 118.186 63.8788C118.089 63.2094 117.986 62.5029 117.874 61.7578C117.699 60.6026 117.548 59.5221 117.408 58.5118C116.615 52.8023 116.137 49.3562 113.228 47.5953C112.521 47.1666 111.871 47.0653 111.243 47.2859C109.038 48.0596 107.312 52.7396 105.484 57.695C105.348 58.065 105.209 58.4476 105.067 58.8377C103.742 62.4929 102.239 66.636 100.165 67.4051C99.5756 67.6232 98.9736 67.5626 98.3731 67.2226C96.3036 66.0528 95.9356 62.8394 95.5801 59.7317C95.2296 56.6671 94.8666 53.4988 92.9261 52.333C92.5606 52.1129 92.1921 52.0808 91.7996 52.2352C89.3801 53.1809 87.2361 60.3579 87.2151 60.4301L86.7361 60.2877C86.8261 59.9824 88.9731 52.8013 91.6181 51.7679C92.1571 51.5568 92.6836 51.6025 93.1836 51.9028C95.3361 53.1954 95.7126 56.4891 96.0771 59.6745C96.4341 62.7942 96.7716 65.7415 98.6191 66.7859C99.0921 67.0536 99.5411 67.1018 99.9916 66.9348C101.849 66.2459 103.373 62.0431 104.598 58.6662C104.739 58.2756 104.878 57.892 105.015 57.521C106.966 52.2322 108.651 47.6645 111.078 46.8126C111.844 46.5433 112.655 46.6622 113.487 47.1661C116.599 49.0508 117.09 52.5862 117.903 58.4431C118.043 59.4509 118.193 60.5299 118.367 61.6826C118.48 62.4287 118.583 63.1362 118.681 63.8066C119.448 69.0873 119.871 71.9959 122.238 73.3602C123.411 74.0361 124.476 73.2204 125.712 72.2762C127.112 71.2062 128.699 69.9943 130.637 71.1561C134.293 73.3487 134.7 78.448 135.318 86.1665L135.373 86.8529C136.033 95.0654 137.02 95.7698 138.387 96.7451L138.097 97.1537Z" fill="black"/>
</g>
<path d="M129.642 69.3907C130.349 69.7988 130.923 70.7931 130.925 71.6109C130.926 72.4291 130.354 72.7616 129.647 72.3539C128.939 71.9458 128.365 70.952 128.363 70.1337C128.362 69.3154 128.934 68.9825 129.642 69.3907Z" fill="url(#paint11_linear_1_4782)"/>
<g opacity="0.2">
<path d="M129.642 69.3907C130.349 69.7988 130.923 70.7931 130.925 71.6109C130.926 72.4291 130.354 72.7616 129.647 72.3539C128.939 71.9458 128.365 70.952 128.363 70.1337C128.362 69.3154 128.934 68.9825 129.642 69.3907Z" fill="black"/>
</g>
<path d="M113.355 45.8995C114.063 46.3077 114.637 47.3014 114.638 48.1197C114.64 48.938 114.067 49.271 113.36 48.8628C112.652 48.4547 112.078 47.4609 112.077 46.6426C112.076 45.8238 112.648 45.4914 113.355 45.8995Z" fill="url(#paint12_linear_1_4782)"/>
<g opacity="0.5">
<path d="M113.355 45.8995C114.063 46.3077 114.637 47.3014 114.638 48.1197C114.64 48.938 114.067 49.271 113.36 48.8628C112.652 48.4547 112.078 47.4609 112.077 46.6426C112.076 45.8238 112.648 45.4914 113.355 45.8995Z" fill="white"/>
</g>
<path d="M93.0532 50.6358C93.7602 51.0439 94.3352 52.0377 94.3362 52.856C94.3377 53.6743 93.7652 54.0072 93.0577 53.5991C92.3502 53.1909 91.7757 52.1972 91.7747 51.3789C91.7732 50.5606 92.3457 50.2282 93.0532 50.6358Z" fill="url(#paint13_linear_1_4782)"/>
<path d="M111.354 106.351V54.2648C111.354 53.7108 110.966 53.0374 110.488 52.7606L57.3826 22.0142C56.9046 21.7375 56.5166 21.9621 56.5166 22.5156L56.5161 74.6011C56.5161 75.1552 56.9036 75.8286 57.3821 76.1053L110.488 106.852C110.966 107.13 111.354 106.904 111.354 106.351Z" fill="white"/>
<path d="M110.876 107.221C110.712 107.221 110.537 107.17 110.363 107.069L57.2576 76.3225C56.7016 76.0006 56.2666 75.245 56.2666 74.6012L56.2671 22.5157C56.2671 22.1597 56.4051 21.8759 56.6456 21.7365C56.8866 21.5967 57.2001 21.6192 57.5081 21.7972L110.613 52.5436C111.169 52.8655 111.604 53.6216 111.604 54.2649V106.351C111.604 106.707 111.466 106.991 111.225 107.131C111.121 107.191 111.002 107.221 110.876 107.221ZM56.9971 22.1462C56.9581 22.1462 56.9241 22.1542 56.8956 22.1703C56.8136 22.2179 56.7671 22.3437 56.7671 22.5152L56.7666 74.6007C56.7666 75.066 57.1061 75.6556 57.5076 75.8878L110.613 106.635C110.761 106.72 110.893 106.742 110.975 106.695C111.057 106.648 111.104 106.522 111.104 106.35V54.2649C111.104 53.7996 110.764 53.2105 110.363 52.9778L57.2576 22.2314C57.1606 22.1753 57.0706 22.1462 56.9971 22.1462Z" fill="url(#paint14_linear_1_4782)"/>
<path d="M102.215 94.5104V60.2361C102.215 59.9588 102.021 59.6224 101.782 59.484L96.5541 56.4576C96.3146 56.3192 96.1211 56.4315 96.1211 56.7083V90.9825C96.1211 91.2593 96.3151 91.5962 96.5541 91.7346L101.782 94.7611C102.021 94.8999 102.215 94.7871 102.215 94.5104Z" fill="url(#paint15_linear_1_4782)"/>
<g opacity="0.3">
<path d="M102.215 94.5104V60.2361C102.215 59.9588 102.021 59.6224 101.782 59.484L96.5541 56.4576C96.3146 56.3192 96.1211 56.4315 96.1211 56.7083V90.9825C96.1211 91.2593 96.3151 91.5962 96.5541 91.7346L101.782 94.7611C102.021 94.8999 102.215 94.7871 102.215 94.5104Z" fill="black"/>
</g>
<path d="M92.0596 88.6309V70.8196C92.0596 70.5428 91.8656 70.2059 91.6266 70.0675L86.3991 67.0411C86.1601 66.9027 85.9661 67.015 85.9661 67.2918V85.103C85.9661 85.3798 86.1601 85.7167 86.3991 85.8551L91.6266 88.8816C91.8656 89.02 92.0596 88.9076 92.0596 88.6309Z" fill="url(#paint16_linear_1_4782)"/>
<g opacity="0.2">
<path d="M92.0596 88.6309V70.8196C92.0596 70.5428 91.8656 70.2059 91.6266 70.0675L86.3991 67.0411C86.1601 66.9027 85.9661 67.015 85.9661 67.2918V85.103C85.9661 85.3798 86.1601 85.7167 86.3991 85.8551L91.6266 88.8816C91.8656 89.02 92.0596 88.9076 92.0596 88.6309Z" fill="white"/>
</g>
<path d="M81.9045 82.7515V55.533C81.9045 55.2562 81.7105 54.9193 81.4715 54.7809L76.244 51.7544C76.005 51.6161 75.811 51.7284 75.811 52.0051V79.2237C75.811 79.5004 76.005 79.8374 76.244 79.9758L81.4715 83.0022C81.7105 83.1406 81.9045 83.0283 81.9045 82.7515Z" fill="url(#paint17_linear_1_4782)"/>
<g opacity="0.2">
<path d="M81.9045 82.7515V55.533C81.9045 55.2562 81.7105 54.9193 81.4715 54.7809L76.244 51.7544C76.005 51.6161 75.811 51.7284 75.811 52.0051V79.2237C75.811 79.5004 76.005 79.8374 76.244 79.9758L81.4715 83.0022C81.7105 83.1406 81.9045 83.0283 81.9045 82.7515Z" fill="black"/>
</g>
<path d="M71.749 76.8716V37.8942C71.749 37.6174 71.555 37.2805 71.316 37.1421L66.0885 34.1156C65.849 33.9773 65.6555 34.0896 65.6555 34.3663V73.3437C65.6555 73.6205 65.8495 73.9574 66.0885 74.0958L71.316 77.1223C71.555 77.2607 71.749 77.1488 71.749 76.8716Z" fill="url(#paint18_linear_1_4782)"/>
<path d="M179.731 83.122C179.663 82.7484 177.826 78.466 177.07 76.7803L173.246 78.5763L174.71 81.9407L178.673 85.0123C179.888 84.6287 179.799 83.495 179.731 83.122Z" fill="#FFA8A7"/>
<path d="M172.114 127.976H169.162V132.287H172.114V127.976Z" fill="#FFA8A7"/>
<path d="M161.727 122.642L158.776 122.744L158.924 127.053L161.875 126.951L161.727 122.642Z" fill="#FFA8A7"/>
<path d="M162.457 66.2198C160.631 66.3653 158.81 66.8687 157.178 69.2994C155.546 71.7297 152.689 75.8894 152.689 75.8894L158.068 77.6006L162.457 66.2198Z" fill="url(#paint19_linear_1_4782)"/>
<g opacity="0.7">
<path d="M162.457 66.2198C160.631 66.3653 158.81 66.8687 157.178 69.2994C155.546 71.7297 152.689 75.8894 152.689 75.8894L158.068 77.6006L162.457 66.2198Z" fill="white"/>
</g>
<path d="M171.921 85.8896C171.921 88.7165 172.285 107.004 172.285 107.004C172.354 107.818 173.114 109.318 172.95 112.442C172.726 116.686 172.36 128.476 172.36 128.476C172.36 128.476 170.976 129.852 169.021 128.476C169.021 128.476 166.348 112.456 165.819 108.251C165.358 104.58 164.575 94.608 164.575 94.608L161.839 106.346C161.839 106.346 162.321 109.105 162.426 111.052C162.532 113 161.925 124.248 161.925 124.248C161.925 124.248 160.425 125.288 158.713 124.371C158.713 124.371 156.341 107.937 156.036 106.177C155.732 104.418 158.112 85.8896 158.112 85.8896H171.921Z" fill="url(#paint20_linear_1_4782)"/>
<path opacity="0.2" d="M171.921 85.8896C171.921 88.7165 172.285 107.004 172.285 107.004C172.354 107.818 173.114 109.318 172.95 112.442C172.726 116.686 172.36 128.476 172.36 128.476C172.36 128.476 170.976 129.852 169.021 128.476C169.021 128.476 166.348 112.456 165.819 108.251C165.358 104.58 164.575 94.608 164.575 94.608L161.839 106.346C161.839 106.346 162.321 109.105 162.426 111.052C162.532 113 161.925 124.248 161.925 124.248C161.925 124.248 160.425 125.288 158.713 124.371C158.713 124.371 156.341 107.937 156.036 106.177C155.732 104.418 158.112 85.8896 158.112 85.8896H171.921Z" fill="black"/>
<path d="M167.476 66.3106C170.123 66.9494 173.482 68.0214 174.658 70.4677C175.834 72.9141 177.648 76.8797 177.648 76.8797L173.265 79.4774L171.92 77.1294V85.8898C169.849 88.1481 162.633 89.2006 158.112 85.8898C158.112 85.8898 158.112 73.7645 158.112 71.4585C158.112 69.1526 159.39 66.3823 162.917 66.1768L167.476 66.3106Z" fill="url(#paint21_linear_1_4782)"/>
<path opacity="0.7" d="M167.476 66.3106C170.123 66.9494 173.482 68.0214 174.658 70.4677C175.834 72.9141 177.648 76.8797 177.648 76.8797L173.265 79.4774L171.92 77.1294V85.8898C169.849 88.1481 162.633 89.2006 158.112 85.8898C158.112 85.8898 158.112 73.7645 158.112 71.4585C158.112 69.1526 159.39 66.3823 162.917 66.1768L167.476 66.3106Z" fill="white"/>
<path d="M168.47 54.5091C168.47 54.5091 169.201 54.3837 169.771 54.9684C170.33 55.542 170.214 56.6029 169.77 59.0418L168.043 59.2408L168.47 54.5091Z" fill="black"/>
<path d="M158.396 53.8037C158.396 53.8037 157.698 53.8042 157.315 53.5836C156.784 53.2782 156.646 53.8824 156.937 54.4079C157.227 54.9328 157.77 55.6172 158.941 55.7466C158.957 55.6714 159.437 54.3933 159.437 54.3933L158.396 53.8037Z" fill="black"/>
<path d="M167.659 59.2413C167.916 59.3953 168.282 58.9009 168.598 58.5689C168.914 58.237 169.947 57.7838 170.462 58.8718C170.988 59.9809 169.796 61.456 169.096 61.9439C168.265 62.523 167.66 62.0687 167.66 62.0687L167.477 66.3106C167.477 66.3106 166.559 68.5614 164.075 68.8993C161.59 69.2373 162.102 67.1835 162.918 66.1767L162.922 64.6344C162.922 64.6344 161.639 64.8936 161.034 64.7317C160.71 64.6449 159.937 63.7078 159.438 62.6599C158.878 61.4826 157.947 59.3928 158.776 55.8584C159.667 52.0613 163.734 51.9454 166.16 53.4762C168.584 55.007 167.659 59.2413 167.659 59.2413Z" fill="#FFA8A7"/>
<path d="M167.659 59.6741C167.788 59.6766 168.279 58.8603 168.598 58.5685C169.041 58.1649 168.47 54.5087 168.47 54.5087C168.47 54.5087 168.918 53.1218 168.043 52.2022C167.168 51.2826 165.473 51.4381 164.235 51.393C162.945 51.3463 161.565 51.2681 159.805 50.502C158.045 49.7353 157.914 49.6446 157.696 50.4197C157.477 51.1944 157.395 52.9694 158.445 54.1592L159.319 54.4811C159.319 54.4811 159.79 54.9008 161.432 55.1013C163.073 55.3019 165.63 55.0627 165.98 55.0151C166.455 54.9499 166.557 55.4122 166.814 56.6762C167.039 57.7853 167.226 59.6656 167.659 59.6741Z" fill="black"/>
<path d="M168.467 54.7935L170.018 53.9582C169.798 53.5124 169.273 53.3384 168.844 53.5691C168.416 53.7997 168.247 54.3478 168.467 54.7935Z" fill="black"/>
<path d="M162.922 64.6344C162.922 64.6344 165.222 64.1696 166.026 63.7409C166.564 63.4541 167.007 62.9567 167.138 62.6378C167.138 62.6378 166.987 63.3222 166.506 63.939C165.918 64.6926 162.922 65.2481 162.922 65.2481V64.6344Z" fill="#F28F8F"/>
<path d="M163.474 58.6643C163.474 58.9296 163.681 59.1442 163.935 59.1437C164.19 59.1427 164.396 58.9271 164.396 58.6623C164.396 58.3971 164.19 58.1825 163.935 58.1835C163.681 58.1835 163.474 58.3996 163.474 58.6643Z" fill="black"/>
<path d="M163.963 56.9194L164.95 57.4654C165.095 57.1811 164.992 56.8287 164.72 56.6782C164.448 56.5273 164.109 56.6356 163.963 56.9194Z" fill="black"/>
<path d="M163.509 61.7985L162.457 62.1946C162.561 62.4969 162.881 62.6539 163.172 62.544C163.462 62.4352 163.613 62.1008 163.509 61.7985Z" fill="#F28F8F"/>
<path d="M159.364 57.3044L160.263 56.61C160.08 56.3518 159.73 56.2981 159.481 56.4896C159.233 56.6812 159.18 57.0462 159.364 57.3044Z" fill="black"/>
<path d="M159.641 58.5329C159.641 58.7981 159.847 59.0127 160.102 59.0117C160.356 59.0112 160.563 58.7956 160.563 58.5304C160.563 58.2651 160.356 58.0505 160.102 58.0515C159.847 58.052 159.641 58.2676 159.641 58.5329Z" fill="black"/>
<path d="M161.989 58.0947L161.838 60.8745L160.39 60.3796L161.989 58.0947Z" fill="#F28F8F"/>
<path d="M149.944 74.8419L161.736 77.9561L165.217 92.6316L154.005 89.366L149.944 74.8419Z" fill="url(#paint22_linear_1_4782)"/>
<path d="M155.085 84.5518C154.976 84.8516 154.331 85.6834 152.958 85.6182L152.788 85.011L155.085 84.5518Z" fill="url(#paint23_linear_1_4782)"/>
<path d="M157.72 85.0114C157.772 85.4024 158.574 86.127 159.929 86.5797C161.472 87.0952 163.838 86.8224 163.838 86.8224L163.626 86.0924L157.72 85.0114Z" fill="url(#paint24_linear_1_4782)"/>
<path opacity="0.43" d="M153.396 76.9669C153.396 76.9669 153.352 76.7648 153.299 76.5161C153.245 76.2669 153.937 76.2564 154.845 76.492L156.582 76.9438C157.489 77.18 158.269 77.5731 158.322 77.8218L158.419 78.273L153.396 76.9669Z" fill="#656565"/>
<path d="M152.578 75.2656C152.544 75.1097 152.825 75.0691 153.205 75.1744L153.893 75.3649C153.893 75.3649 153.688 74.3897 155.214 74.7306C156.741 75.0716 157.075 76.1792 157.075 76.1792C157.075 76.1792 157.404 76.273 157.81 76.3883C158.216 76.5036 158.583 76.7232 158.631 76.8782L158.718 77.1589L152.644 75.555C152.643 75.555 152.613 75.4211 152.578 75.2656Z" fill="#161616"/>
<path d="M153.415 75.7524C153.972 75.8873 154.203 75.961 154.286 76.3451C154.381 76.7838 154.42 77.1057 154.42 77.1057L157.108 77.8182C157.108 77.8182 156.978 77.2632 156.937 77.0466C156.895 76.83 156.987 76.7001 157.415 76.8134L157.451 76.6414L153.238 75.5659L153.415 75.7524Z" fill="#161616"/>
<path d="M153.323 77.009C153.323 77.009 153.279 76.8075 153.226 76.5583C153.172 76.3091 153.864 76.2985 154.772 76.5347L156.509 76.9865C157.416 77.2226 158.196 77.6157 158.249 77.8649L158.346 78.3157L153.323 77.009Z" fill="#161616"/>
<path d="M178.672 85.0113L174.709 81.9397C174.709 81.9397 166.412 83.5066 165.474 83.5808C164.535 83.655 163.802 82.7269 163.444 81.8033C163.086 80.8798 162.369 80.9996 162.369 80.9996C162.369 80.9996 162.647 82.1704 162.735 82.5439C162.824 82.918 160.663 83.2198 159.416 82.7961C158.169 82.3724 156.364 82.9871 157.482 84.6899C158.6 86.3927 160.775 86.5892 162.286 86.5902C162.703 86.5907 163.445 86.5586 164.174 86.4639C164.663 86.4002 165.149 86.3505 165.641 86.3159C168.733 86.0948 177.267 85.454 178.672 85.0113Z" fill="#FFA8A7"/>
<path d="M151.143 79.1319C151.143 79.1319 151.566 80.6427 151.667 81.0037C151.767 81.3642 153.138 82.019 154.006 82.2577C154.872 82.4963 155.82 82.7796 155.41 83.9945C155.032 85.1152 153.606 85.3714 152.88 85.3393C152.154 85.3077 151.16 84.6118 150.768 83.4896C150.268 82.0586 150.537 80.5298 150.339 79.694C150.14 78.8587 150.709 78.6335 151.143 79.1319Z" fill="#F28F8F"/>
<path d="M169.162 130.826V130.402C168.879 130.526 168.223 133.037 167.051 134.108C166.12 134.96 164.85 135.944 164.527 136.893C164.191 137.881 166.296 138.427 167.166 138.272C168.176 138.092 169.928 137.379 170.368 136.716C170.808 136.055 171.014 135.079 171.371 134.594C171.729 134.109 172.552 133.568 172.746 133.006C172.852 132.699 172.726 132.023 172.577 131.452C172.44 130.929 172.292 130.354 172.113 130.402C172.113 130.466 172.113 130.725 172.113 130.725C171.899 130.964 171.306 131.2 170.637 131.225C170.206 131.242 169.158 131.157 169.162 130.826Z" fill="#161616"/>
<path d="M158.897 126.138C158.743 126.143 158.618 126.36 158.281 126.727C157.872 127.171 157.204 127.649 156.544 127.98C155.438 128.535 153.289 129.389 152.317 129.828C151.709 130.102 151.738 130.838 152.366 131.258C152.994 131.676 154.51 131.979 156.331 131.57C157.323 131.347 158.614 130.429 159.432 130.478C160.249 130.527 161.778 130.515 162.382 130.099C162.985 129.682 162.744 128.791 162.573 128.026C162.387 127.191 162.121 125.912 161.845 125.969L161.854 126.232C161.499 126.771 159.693 126.991 158.913 126.594L158.897 126.138Z" fill="#161616"/>
<path d="M31.0691 124.338L32.9156 126.911C32.9156 126.911 32.0601 127.414 30.2336 127.484C28.5811 127.547 28.1271 127.003 28.0661 126.872C27.7871 126.272 28.2226 125.19 28.3421 124.259L31.0691 124.338Z" fill="#161616"/>
<path d="M28.0659 121.753C28.0659 121.753 28.3459 124.09 28.3674 124.592C28.3889 125.093 30.6419 125.254 31.0689 124.338L31.1389 121.48L28.0659 121.753Z" fill="#F28F8F"/>
<path d="M28.0664 75.7181C26.5244 78.1244 25.0584 80.2438 24.7459 82.9478C24.0859 88.6588 26.2524 95.1875 26.7119 99.4103C26.7119 99.4103 25.2569 101.307 25.2584 103.536C25.2594 105.281 28.0659 121.753 28.0659 121.753C28.0659 121.753 30.1074 122.376 31.1389 121.48L33.0679 91.1793L32.0519 87.4905L28.0664 75.7181Z" fill="url(#paint25_linear_1_4782)"/>
<path opacity="0.5" d="M28.0664 75.7181C26.5244 78.1244 25.0584 80.2438 24.7459 82.9478C24.0859 88.6588 26.2524 95.1875 26.7119 99.4103C26.7119 99.4103 25.2569 101.307 25.2584 103.536C25.2594 105.281 28.0659 121.753 28.0659 121.753C28.0659 121.753 30.1074 122.376 31.1389 121.48L33.0679 91.1793L32.0519 87.4905L28.0664 75.7181Z" fill="white"/>
<path d="M42.2995 64.4296L52.4545 69.3187L46.362 83.0611L36.894 77.5848L42.2995 64.4296Z" fill="url(#paint26_linear_1_4782)"/>
<path d="M51.2624 69.5704L45.9999 81.2816L38.7114 77.0723L42.8454 65.5416L51.2624 69.5704Z" fill="url(#paint27_linear_1_4782)"/>
<path d="M42.8455 65.5416L51.2625 69.5704L45.581 81.4105L37.623 76.8522L42.8455 65.5416Z" fill="white"/>
<path d="M44.6738 67.2394C44.6738 67.2394 44.7628 67.0509 44.8723 66.8177C44.9818 66.5851 45.6783 66.6838 46.4273 67.0388L47.8613 67.7182C48.6103 68.0732 49.1283 68.5501 49.0183 68.7827L48.8198 69.2044L44.6738 67.2394Z" fill="#E0E0E0"/>
<path d="M24.6225 69.3453C23.8795 71.4617 22.4165 74.8205 22.8885 75.4949C23.3605 76.1693 26.177 76.0279 27.7485 75.9683C29.7415 75.893 31.4045 75.8133 31.4045 75.8133L31.0715 72.3105H28.2335L29.484 68.7606L24.6225 69.3453Z" fill="#F28F8F"/>
<path d="M27.468 61.8484C26.433 63.5552 24.342 69.5705 24.342 69.5705C24.342 69.5705 25.0845 70.5342 26.5455 70.9002C28.0065 71.2662 28.845 70.9874 28.845 70.9874L31.1545 65.2238L27.468 61.8484Z" fill="url(#paint28_linear_1_4782)"/>
<path opacity="0.4" d="M27.468 61.8484C26.433 63.5552 24.342 69.5705 24.342 69.5705C24.342 69.5705 25.0845 70.5342 26.5455 70.9002C28.0065 71.2662 28.845 70.9874 28.845 70.9874L31.1545 65.2238L27.468 61.8484Z" fill="black"/>
<path d="M37.8013 62.9214C39.6158 63.4674 40.7208 63.5662 42.7258 66.6593C44.7308 69.752 49.1228 75.8876 49.5578 76.6247C50.1628 77.65 50.4233 78.8709 49.9013 79.8131C49.4138 80.6925 47.9938 80.3074 46.0043 78.5571C44.0803 76.8643 40.2678 72.076 40.2678 72.076C40.2678 72.076 36.3548 67.6586 37.8013 62.9214Z" fill="#FFA8A7"/>
<path d="M36.352 58.9086L35.859 63.2598L31.583 63.7542L32.2 57.9825L36.352 58.9086Z" fill="#FFA8A7"/>
<path d="M27.1965 52.5579C27.5495 48.5412 29.7205 46.887 31.4 46.4899C34.7875 45.6892 37.808 46.9221 39.177 49.3018C39.538 49.929 40.141 52.2751 38.935 53.6605C37.728 55.0463 27.1965 52.5579 27.1965 52.5579Z" fill="black"/>
<path d="M39.513 53.9698C39.513 53.9698 40.3995 55.4981 40.264 55.6465C40.128 55.795 39.5015 55.9253 39.5015 55.9253L39.513 53.9698Z" fill="#F28F8F"/>
<path d="M36.8129 49.1339C37.7289 49.6774 39.3084 50.6752 39.5284 54.187C39.7534 57.7915 39.0654 58.9016 38.5514 59.3434C38.2049 59.6407 36.4349 59.5414 35.5664 59.215C34.4799 58.8069 32.0419 57.6852 31.0239 55.7729C29.8264 53.5231 29.7199 50.61 31.3109 49.562C33.5499 48.0869 36.0374 48.6736 36.8129 49.1339Z" fill="#FFA8A7"/>
<path d="M37.0834 49.2993C37.0834 49.2993 37.7184 52.6126 36.6144 54.6197C36.6144 54.6197 36.1104 53.312 34.9974 53.6149C33.8764 53.9197 33.8929 55.3958 34.7149 56.1971C35.5379 56.9983 36.3994 56.6584 36.3994 56.6584C36.3994 56.6584 36.1974 58.328 35.0289 59.388C35.0289 59.388 31.3739 60.4505 28.6434 57.1628C26.1654 54.18 26.7969 49.1283 30.7634 48.0538C34.7294 46.9793 37.0834 49.2993 37.0834 49.2993Z" fill="black"/>
<path d="M32.8115 125.676C32.8115 125.676 35.049 125.533 36.596 125.337C38.1435 125.141 39.3675 125.899 39.003 126.538C38.639 127.176 37.788 127.708 36.4625 128.155C35.3265 128.539 33.965 128.817 32.779 129.173C31.5635 129.537 30.7855 129.955 30.097 129.718C29.3295 129.453 29 129.145 29.0655 128.584C29.1305 128.024 29.687 126.219 29.687 126.219L32.8115 125.676Z" fill="#161616"/>
<path d="M30.3379 123.191L29.5319 126.736C29.5319 126.736 29.4559 127.168 31.2979 127.444C33.1399 127.719 36.0274 126.477 36.5189 126.225C37.0104 125.972 37.0694 125.471 35.2604 125.571C33.4519 125.672 32.8109 125.675 32.8109 125.675L33.3979 124.103L30.3379 123.191Z" fill="#FFA8A7"/>
<path d="M33.0679 91.1793L32.0519 87.4905C32.0519 87.4905 29.2349 86.8076 26.5454 85.3004C26.5454 85.3004 27.5879 87.1987 30.5734 88.2396L32.1284 92.9819L32.2624 103.834L33.0679 91.1793Z" fill="url(#paint29_linear_1_4782)"/>
<path d="M28.0663 75.7181C27.2413 77.0684 25.2693 79.3774 25.6883 81.5961C26.1968 84.2846 27.6388 86.1739 32.0518 87.49L36.1903 102.52C36.1903 102.52 34.0348 104.542 33.3763 106.466C32.7183 108.389 30.3378 123.19 30.3378 123.19C30.3378 123.19 31.0738 124.395 33.3983 124.103C33.3983 124.103 41.5033 105.539 42.0758 104.344C42.6483 103.149 43.0193 102.255 42.7618 100.308C42.5038 98.3619 39.7428 77.0674 39.7428 77.0674L28.0663 75.7181Z" fill="url(#paint30_linear_1_4782)"/>
<path opacity="0.5" d="M28.0663 75.7181C27.2413 77.0684 25.2693 79.3774 25.6883 81.5961C26.1968 84.2846 27.6388 86.1739 32.0518 87.49L36.1903 102.52C36.1903 102.52 34.0348 104.542 33.3763 106.466C32.7183 108.389 30.3378 123.19 30.3378 123.19C30.3378 123.19 31.0738 124.395 33.3983 124.103C33.3983 124.103 41.5033 105.539 42.0758 104.344C42.6483 103.149 43.0193 102.255 42.7618 100.308C42.5038 98.3619 39.7428 77.0674 39.7428 77.0674L28.0663 75.7181Z" fill="white"/>
<path d="M27.3141 62.1602C27.6371 61.3058 28.6581 60.5953 29.5746 60.8455C32.4601 61.6332 36.9481 62.6691 37.8006 62.9213L37.8016 62.9208C37.8016 62.9208 37.4191 69.417 40.7426 71.3835C40.5861 72.6249 39.7431 77.0678 39.7431 77.0678C39.7431 77.0678 35.7481 79.0093 32.4591 78.0526C29.1696 77.0959 28.0666 75.7176 28.0666 75.7176L29.7121 73.0281C29.3591 72.1541 28.0026 69.1873 27.1246 66.4291C26.7091 65.1265 26.9916 63.0146 27.3141 62.1602Z" fill="url(#paint31_linear_1_4782)"/>
<path opacity="0.2" d="M27.3141 62.1602C27.6371 61.3058 28.6581 60.5953 29.5746 60.8455C32.4601 61.6332 36.9481 62.6691 37.8006 62.9213L37.8016 62.9208C37.8016 62.9208 37.4191 69.417 40.7426 71.3835C40.5861 72.6249 39.7431 77.0678 39.7431 77.0678C39.7431 77.0678 35.7481 79.0093 32.4591 78.0526C29.1696 77.0959 28.0666 75.7176 28.0666 75.7176L29.7121 73.0281C29.3591 72.1541 28.0026 69.1873 27.1246 66.4291C26.7091 65.1265 26.9916 63.0146 27.3141 62.1602Z" fill="black"/>
<path opacity="0.25" d="M29.2629 71.9717C29.3049 72.0684 32.5739 73.8254 33.5449 74.0941C32.0134 74.0179 30.7414 73.6569 29.7119 73.0286L29.2629 71.9717Z" fill="url(#paint32_linear_1_4782)"/>
<path d="M30.1129 47.3824C30.1129 47.3824 28.739 45.0404 25.3885 45.6466C22.038 46.2528 20.672 49.8248 20.7225 52.0861C20.7735 54.3469 21.527 55.9258 19.5055 58.6003C17.8495 60.7909 18.434 64.0345 20.942 65.4359C23.6385 66.9431 24.2925 64.3193 23.6665 62.0845C22.9485 59.5209 25.6229 59.0776 26.3349 57.1342C27.0469 55.1913 25.646 51.1089 26.5455 49.734C27.5245 48.2378 28.895 48.4414 29.555 48.9503L30.1129 47.3824Z" fill="black"/>
<path d="M37.8015 62.9214C37.8015 62.9214 39.4195 63.2608 40.425 63.7542C41.5285 64.2962 45.8165 71.0516 45.8165 71.0516C45.8165 71.0516 45.5095 73.5912 42.001 74.601L39.89 71.9717C39.89 71.9717 36.869 67.4034 37.8015 62.9214Z" fill="url(#paint33_linear_1_4782)"/>
<path opacity="0.1" d="M37.8015 62.9214C37.8015 62.9214 39.4195 63.2608 40.425 63.7542C41.5285 64.2962 45.8165 71.0516 45.8165 71.0516C45.8165 71.0516 45.5095 73.5912 42.001 74.601L39.89 71.9717C39.89 71.9717 36.869 67.4034 37.8015 62.9214Z" fill="black"/>
<path d="M40.5265 72.7638C40.5265 72.7638 39.091 71.1799 38.48 69.083C38.48 69.083 38.4735 71.9997 40.3965 73.5114L40.5265 72.7638Z" fill="url(#paint34_linear_1_4782)"/>
<path opacity="0.4" d="M40.5265 72.7638C40.5265 72.7638 39.091 71.1799 38.48 69.083C38.48 69.083 38.4735 71.9997 40.3965 73.5114L40.5265 72.7638Z" fill="black"/>
<path d="M45.039 65.4258C45.107 65.2804 45.413 65.2875 45.7225 65.4419L46.283 65.7217C46.283 65.7217 46.718 64.8111 48.0145 65.3577C49.3115 65.9042 48.918 66.9546 48.918 66.9546C48.918 66.9546 49.184 67.0905 49.5125 67.2585C49.8405 67.4259 50.063 67.6811 50.0095 67.8286L49.912 68.0948L44.916 65.6891C44.916 65.6891 44.971 65.5713 45.039 65.4258Z" fill="#656565"/>
<path d="M45.5525 65.996C46.019 66.2046 46.2005 66.3078 46.032 66.6663C45.839 67.0765 45.6665 67.3723 45.6665 67.3723L47.877 68.4363C47.877 68.4363 48.1115 67.9158 48.212 67.7143C48.3125 67.5127 48.489 67.4099 48.841 67.5789L48.9895 67.43L45.499 65.7999L45.5525 65.996Z" fill="#656565"/>
<path d="M44.637 67.1135C44.637 67.1135 44.726 66.925 44.8355 66.6919C44.9455 66.4592 45.6415 66.558 46.3905 66.913L47.8245 67.5929C48.5735 67.9479 49.0915 68.4242 48.982 68.6569L48.7835 69.0785L44.637 67.1135Z" fill="#656565"/>
</g>
<defs>
<linearGradient id="paint0_linear_1_4782" x1="212.622" y1="90.2485" x2="212.622" y2="102.792" gradientUnits="userSpaceOnUse">
<stop stop-color="#7ADEFF"/>
<stop offset="1" stop-color="#4169E1"/>
</linearGradient>
<linearGradient id="paint1_linear_1_4782" x1="212.257" y1="97.2045" x2="212.257" y2="107.354" gradientUnits="userSpaceOnUse">
<stop stop-color="#7ADEFF"/>
<stop offset="1" stop-color="#4169E1"/>
</linearGradient>
<linearGradient id="paint2_linear_1_4782" x1="56.7225" y1="133.193" x2="56.7225" y2="139.857" gradientUnits="userSpaceOnUse">
<stop stop-color="#7ADEFF"/>
<stop offset="1" stop-color="#4169E1"/>
</linearGradient>
<linearGradient id="paint3_linear_1_4782" x1="56.4949" y1="125.868" x2="56.4949" y2="137.926" gradientUnits="userSpaceOnUse">
<stop stop-color="#7ADEFF"/>
<stop offset="1" stop-color="#4169E1"/>
</linearGradient>
<linearGradient id="paint4_linear_1_4782" x1="137.222" y1="162.813" x2="137.222" y2="169.087" gradientUnits="userSpaceOnUse">
<stop stop-color="#7ADEFF"/>
<stop offset="1" stop-color="#4169E1"/>
</linearGradient>
<linearGradient id="paint5_linear_1_4782" x1="137.655" y1="155.856" x2="137.655" y2="166.769" gradientUnits="userSpaceOnUse">
<stop stop-color="#7ADEFF"/>
<stop offset="1" stop-color="#4169E1"/>
</linearGradient>
<linearGradient id="paint6_linear_1_4782" x1="49.4084" y1="145.422" x2="49.4084" y2="159.828" gradientUnits="userSpaceOnUse">
<stop stop-color="#7ADEFF"/>
<stop offset="1" stop-color="#4169E1"/>
</linearGradient>
<linearGradient id="paint7_linear_1_4782" x1="75.8213" y1="160.704" x2="75.8213" y2="175.11" gradientUnits="userSpaceOnUse">
<stop stop-color="#7ADEFF"/>
<stop offset="1" stop-color="#4169E1"/>
</linearGradient>
<linearGradient id="paint8_linear_1_4782" x1="102.21" y1="175.991" x2="102.21" y2="190.397" gradientUnits="userSpaceOnUse">
<stop stop-color="#7ADEFF"/>
<stop offset="1" stop-color="#4169E1"/>
</linearGradient>
<linearGradient id="paint9_linear_1_4782" x1="112.369" y1="19.3425" x2="112.369" y2="109.517" gradientUnits="userSpaceOnUse">
<stop stop-color="#7ADEFF"/>
<stop offset="1" stop-color="#4169E1"/>
</linearGradient>
<linearGradient id="paint10_linear_1_4782" x1="112.561" y1="46.6724" x2="112.561" y2="97.1537" gradientUnits="userSpaceOnUse">
<stop stop-color="#7ADEFF"/>
<stop offset="1" stop-color="#4169E1"/>
</linearGradient>
<linearGradient id="paint11_linear_1_4782" x1="129.644" y1="69.2163" x2="129.644" y2="72.5281" gradientUnits="userSpaceOnUse">
<stop stop-color="#7ADEFF"/>
<stop offset="1" stop-color="#4169E1"/>
</linearGradient>
<linearGradient id="paint12_linear_1_4782" x1="113.357" y1="45.7251" x2="113.357" y2="49.0372" gradientUnits="userSpaceOnUse">
<stop stop-color="#7ADEFF"/>
<stop offset="1" stop-color="#4169E1"/>
</linearGradient>
<linearGradient id="paint13_linear_1_4782" x1="93.0554" y1="50.4617" x2="93.0554" y2="53.7734" gradientUnits="userSpaceOnUse">
<stop stop-color="#7ADEFF"/>
<stop offset="1" stop-color="#4169E1"/>
</linearGradient>
<linearGradient id="paint14_linear_1_4782" x1="83.9354" y1="21.6456" x2="83.9354" y2="107.221" gradientUnits="userSpaceOnUse">
<stop stop-color="#7ADEFF"/>
<stop offset="1" stop-color="#4169E1"/>
</linearGradient>
<linearGradient id="paint15_linear_1_4782" x1="99.1678" y1="56.3983" x2="99.1678" y2="94.8205" gradientUnits="userSpaceOnUse">
<stop stop-color="#7ADEFF"/>
<stop offset="1" stop-color="#4169E1"/>
</linearGradient>
<linearGradient id="paint16_linear_1_4782" x1="89.0128" y1="66.9818" x2="89.0128" y2="88.9408" gradientUnits="userSpaceOnUse">
<stop stop-color="#7ADEFF"/>
<stop offset="1" stop-color="#4169E1"/>
</linearGradient>
<linearGradient id="paint17_linear_1_4782" x1="78.8578" y1="51.6952" x2="78.8578" y2="83.0615" gradientUnits="userSpaceOnUse">
<stop stop-color="#7ADEFF"/>
<stop offset="1" stop-color="#4169E1"/>
</linearGradient>
<linearGradient id="paint18_linear_1_4782" x1="68.7023" y1="34.0564" x2="68.7023" y2="77.1816" gradientUnits="userSpaceOnUse">
<stop stop-color="#7ADEFF"/>
<stop offset="1" stop-color="#4169E1"/>
</linearGradient>
<linearGradient id="paint19_linear_1_4782" x1="157.573" y1="66.2198" x2="157.573" y2="77.6006" gradientUnits="userSpaceOnUse">
<stop stop-color="#7ADEFF"/>
<stop offset="1" stop-color="#4169E1"/>
</linearGradient>
<linearGradient id="paint20_linear_1_4782" x1="164.491" y1="85.8896" x2="164.491" y2="129.088" gradientUnits="userSpaceOnUse">
<stop stop-color="#7ADEFF"/>
<stop offset="1" stop-color="#4169E1"/>
</linearGradient>
<linearGradient id="paint21_linear_1_4782" x1="167.88" y1="66.1768" x2="167.88" y2="87.9965" gradientUnits="userSpaceOnUse">
<stop stop-color="#7ADEFF"/>
<stop offset="1" stop-color="#4169E1"/>
</linearGradient>
<linearGradient id="paint22_linear_1_4782" x1="157.58" y1="74.8419" x2="157.58" y2="92.6316" gradientUnits="userSpaceOnUse">
<stop stop-color="#7ADEFF"/>
<stop offset="1" stop-color="#4169E1"/>
</linearGradient>
<linearGradient id="paint23_linear_1_4782" x1="153.936" y1="84.5518" x2="153.936" y2="85.6219" gradientUnits="userSpaceOnUse">
<stop stop-color="#7ADEFF"/>
<stop offset="1" stop-color="#4169E1"/>
</linearGradient>
<linearGradient id="paint24_linear_1_4782" x1="160.779" y1="85.0114" x2="160.779" y2="86.8945" gradientUnits="userSpaceOnUse">
<stop stop-color="#7ADEFF"/>
<stop offset="1" stop-color="#4169E1"/>
</linearGradient>
<linearGradient id="paint25_linear_1_4782" x1="28.8449" y1="75.7181" x2="28.8449" y2="121.964" gradientUnits="userSpaceOnUse">
<stop stop-color="#7ADEFF"/>
<stop offset="1" stop-color="#4169E1"/>
</linearGradient>
<linearGradient id="paint26_linear_1_4782" x1="44.6743" y1="64.4296" x2="44.6743" y2="83.0611" gradientUnits="userSpaceOnUse">
<stop stop-color="#7ADEFF"/>
<stop offset="1" stop-color="#4169E1"/>
</linearGradient>
<linearGradient id="paint27_linear_1_4782" x1="44.9869" y1="65.5416" x2="44.9869" y2="81.2816" gradientUnits="userSpaceOnUse">
<stop stop-color="#7ADEFF"/>
<stop offset="1" stop-color="#4169E1"/>
</linearGradient>
<linearGradient id="paint28_linear_1_4782" x1="27.7483" y1="61.8484" x2="27.7483" y2="71.089" gradientUnits="userSpaceOnUse">
<stop stop-color="#7ADEFF"/>
<stop offset="1" stop-color="#4169E1"/>
</linearGradient>
<linearGradient id="paint29_linear_1_4782" x1="29.8067" y1="85.3004" x2="29.8067" y2="103.834" gradientUnits="userSpaceOnUse">
<stop stop-color="#7ADEFF"/>
<stop offset="1" stop-color="#4169E1"/>
</linearGradient>
<linearGradient id="paint30_linear_1_4782" x1="34.2378" y1="75.7181" x2="34.2378" y2="124.149" gradientUnits="userSpaceOnUse">
<stop stop-color="#7ADEFF"/>
<stop offset="1" stop-color="#4169E1"/>
</linearGradient>
<linearGradient id="paint31_linear_1_4782" x1="33.8295" y1="60.7947" x2="33.8295" y2="78.3176" gradientUnits="userSpaceOnUse">
<stop stop-color="#7ADEFF"/>
<stop offset="1" stop-color="#4169E1"/>
</linearGradient>
<linearGradient id="paint32_linear_1_4782" x1="31.4039" y1="71.9717" x2="31.4039" y2="74.0941" gradientUnits="userSpaceOnUse">
<stop stop-color="#7ADEFF"/>
<stop offset="1" stop-color="#4169E1"/>
</linearGradient>
<linearGradient id="paint33_linear_1_4782" x1="41.7196" y1="62.9214" x2="41.7196" y2="74.601" gradientUnits="userSpaceOnUse">
<stop stop-color="#7ADEFF"/>
<stop offset="1" stop-color="#4169E1"/>
</linearGradient>
<linearGradient id="paint34_linear_1_4782" x1="39.5032" y1="69.083" x2="39.5032" y2="73.5114" gradientUnits="userSpaceOnUse">
<stop stop-color="#7ADEFF"/>
<stop offset="1" stop-color="#4169E1"/>
</linearGradient>
<clipPath id="clip0_1_4782">
<rect width="230" height="200" fill="white" transform="translate(0.416504 0.25)"/>
</clipPath>
</defs>
</svg>
