<svg width="237" height="201" viewBox="0 0 237 201" fill="none" xmlns="http://www.w3.org/2000/svg">
<path d="M186.129 39.4814C184.648 33.029 177.438 28.3041 170.651 28.3041C162.66 28.3041 155.94 33.7326 153.97 41.1018C150.8 39.7766 146.665 40.6137 145.248 42.702C143.41 45.4104 144.234 48.8958 147.508 48.8958H153.705H160.424H177.448H187.598H189.136C196.595 48.8964 195.308 37.8919 186.129 39.4814Z" fill="#656565"/>
<path d="M79.4067 35.5072C77.9249 29.0547 70.715 24.3298 63.9287 24.3298C55.9377 24.3298 49.2176 29.7583 47.2471 37.1276C44.077 35.8023 39.9423 36.6394 38.525 38.7278C36.6869 41.4362 37.5117 44.9216 40.7851 44.9216H46.9823H53.7012H70.7256H80.8756H82.4141C89.8726 44.9216 88.586 33.9176 79.4067 35.5072Z" fill="#656565"/>
<path d="M218.741 98.6417C217.93 95.1097 213.984 92.5237 210.269 92.5237C205.896 92.5237 202.217 95.4952 201.138 99.5288C199.403 98.8033 197.14 99.2617 196.364 100.405C195.358 101.887 195.81 103.795 197.601 103.795H200.993H204.671H213.989H219.545H220.387C224.47 103.795 223.765 97.7721 218.741 98.6417Z" fill="#656565"/>
<path d="M40.6916 72.2476C39.5924 67.4622 34.2447 63.9576 29.2118 63.9576C23.2851 63.9576 18.301 67.984 16.8394 73.4495C14.4879 72.4665 11.4215 73.0876 10.3701 74.6362C9.00663 76.6449 9.61821 79.2303 12.046 79.2303H16.6424H21.626H34.2526H41.7806H42.9213C48.4536 79.2303 47.4992 71.0688 40.6916 72.2476Z" fill="#656565"/>
<path d="M127.498 159.416C127.718 159.354 127.94 159.294 128.159 159.23C128.159 159.23 103.437 139.403 90.2035 133.983C78.7631 129.297 55.6526 152.926 49.5996 159.416H127.498Z" fill="#3D3D3D"/>
<path d="M77.6655 141.544C79.3768 141.098 80.8996 140.08 82.3321 139.087C82.579 138.915 82.9588 139.039 83.0996 139.288C85.4579 143.462 91.035 140.228 93.9274 138.339C94.1395 138.2 94.4324 138.263 94.6075 138.426C96.7143 140.389 99.8143 141.164 102.313 140.591C97.9223 137.811 93.6688 135.403 90.2035 133.983C85.399 132.016 78.5358 135.042 71.7422 139.696C72.7673 141.403 75.7702 142.038 77.6655 141.544Z" fill="#3D3D3D"/>
<path d="M78.1476 159.416C78.3681 159.354 78.5903 159.294 78.8091 159.23C78.8091 159.23 54.0866 139.403 40.8535 133.983C29.413 129.297 6.30248 152.926 0.249512 159.416H78.1476Z" fill="#3D3D3D"/>
<path d="M31.072 140.409C31.2319 140.034 31.8266 140.024 32.041 140.409C34.9328 145.604 42.3015 145.122 46.0282 141.138C46.2992 140.847 46.7021 140.977 46.9097 141.251C48.9778 143.985 52.8712 143.82 55.3265 142.114C50.1174 138.702 44.938 135.656 40.8534 133.983C34.9839 131.579 26.0436 136.628 17.9106 142.991C18.2608 144.665 28.7508 145.851 31.072 140.409Z" fill="#F5F5F5"/>
<path d="M109.35 159.416C109.129 159.354 108.907 159.294 108.688 159.23C108.688 159.23 133.411 139.403 146.644 133.983C158.085 129.297 181.195 152.926 187.248 159.416H109.35Z" fill="#3D3D3D"/>
<path d="M159.183 141.544C157.471 141.098 155.949 140.08 154.516 139.087C154.269 138.916 153.889 139.039 153.749 139.288C151.39 143.462 145.813 140.228 142.921 138.339C142.709 138.2 142.416 138.263 142.241 138.426C140.134 140.389 137.034 141.164 134.535 140.591C138.926 137.811 143.179 135.403 146.645 133.984C151.449 132.016 158.312 135.042 165.106 139.696C164.08 141.403 161.077 142.038 159.183 141.544Z" fill="#3D3D3D"/>
<path d="M158.7 159.416C158.48 159.354 158.258 159.294 158.039 159.23C158.039 159.23 182.761 139.403 195.994 133.983C207.435 129.297 230.545 152.927 236.598 159.416H158.7Z" fill="#3D3D3D"/>
<path d="M205.776 140.409C205.616 140.034 205.021 140.024 204.807 140.409C201.915 145.604 194.546 145.123 190.819 141.138C190.548 140.848 190.145 140.977 189.938 141.251C187.87 143.985 183.976 143.82 181.521 142.114C186.73 138.703 191.909 135.656 195.994 133.983C201.864 131.579 210.804 136.628 218.937 142.991C218.587 144.665 208.097 145.851 205.776 140.409Z" fill="#F5F5F5"/>
<path d="M119.003 64.0408H115.181C113.999 64.0408 113.04 63.0825 113.04 61.9003V57.9688H121.143V61.9003C121.143 63.0825 120.185 64.0408 119.003 64.0408Z" fill="#4169E1"/>
<path d="M121.143 57.9688H113.04V60.9257H121.143V57.9688Z" fill="#4169E1"/>
<path d="M138.087 21.2766C138.087 9.66386 128.673 0.25 117.061 0.25C105.448 0.25 96.0339 9.66386 96.0339 21.2766C96.0339 26.971 98.8893 31.9069 101.779 36.6133C102.634 38.0048 108.409 49.7566 109.508 51.5527H124.613C126.339 47.6756 128.08 43.7138 130.151 40.014C133.689 33.6917 138.087 28.6049 138.087 21.2766Z" fill="#656565"/>
<path d="M123.209 59.0498H110.976L109.508 51.5526H124.676L123.209 59.0498Z" fill="#4169E1"/>
<path d="M115.258 53.9432L109.508 27.7743C109.508 27.7743 108.047 21.4453 104.915 22.743C100.817 24.442 105.252 37.4316 117.092 37.4316C128.933 37.4316 132.311 26.6067 130.863 24.056C129.416 21.5053 125.806 22.6336 124.676 27.7743C123.547 32.9149 118.927 53.9427 118.927 53.9427" stroke="#4169E1" stroke-width="1.6223" stroke-miterlimit="10"/>
<path d="M110.942 13.1784C109.526 15.6309 106.741 16.674 104.721 15.508C102.701 14.3421 102.212 11.4082 103.628 8.95571C105.044 6.50321 107.83 5.46016 109.849 6.62609C111.869 7.79202 112.358 10.7254 110.942 13.1784Z" fill="#FEFEFE"/>
<path d="M36.0372 200.25C51.2258 200.25 63.5387 198.351 63.5387 196.008C63.5387 193.665 51.2258 191.765 36.0372 191.765C20.8485 191.765 8.53564 193.665 8.53564 196.008C8.53564 198.351 20.8485 200.25 36.0372 200.25Z" fill="#3D3D3D"/>
<path d="M190.054 200.25C205.242 200.25 217.555 198.351 217.555 196.008C217.555 193.665 205.242 191.765 190.054 191.765C174.865 191.765 162.552 193.665 162.552 196.008C162.552 198.351 174.865 200.25 190.054 200.25Z" fill="#3D3D3D"/>
<path d="M139.849 187.917C155.038 187.917 167.35 186.018 167.35 183.675C167.35 181.332 155.038 179.432 139.849 179.432C124.66 179.432 112.347 181.332 112.347 183.675C112.347 186.018 124.66 187.917 139.849 187.917Z" fill="#3D3D3D"/>
<path d="M145.552 123.862C144.98 133.333 144.148 142.819 143.238 152.292C142.778 157.03 142.327 161.768 141.763 166.504C141.205 171.24 140.619 175.974 139.849 180.712L136.463 180.665C135.831 175.89 135.45 171.113 135.124 166.338C134.798 161.564 134.623 156.792 134.454 152.021C134.137 142.476 133.972 132.947 134.145 123.405L145.552 123.862Z" fill="#161616"/>
<path d="M150.756 120.105C150.737 120.118 150.726 120.303 150.711 120.411L150.674 120.821L150.612 121.687C150.575 122.275 150.553 122.877 150.535 123.485C150.501 124.702 150.482 125.938 150.492 127.183C150.499 129.673 150.602 132.187 150.752 134.712C151.024 139.767 151.576 144.844 152.253 149.923L152.789 153.732C152.973 154.959 153.176 156.192 153.43 157.428C153.917 159.9 154.498 162.392 155.115 164.892C156.382 169.883 157.804 174.898 159.232 179.912L155.406 181.225C153.472 176.426 151.349 171.691 149.294 166.855C148.253 164.441 147.235 161.997 146.29 159.484C145.815 158.231 145.362 156.954 144.912 155.667L143.651 151.907C141.999 146.877 140.496 141.781 139.121 136.593C138.426 134.001 137.819 131.376 137.223 128.714C136.925 127.384 136.653 126.039 136.397 124.672C136.267 123.988 136.152 123.297 136.032 122.591L135.862 121.514L135.782 120.953C135.758 120.737 135.732 120.598 135.709 120.286L150.756 120.105Z" fill="#161616"/>
<path d="M131.073 183.56L139.945 183.674C140.364 183.68 140.709 183.347 140.716 182.928L140.744 181.341C140.732 180.673 140.287 180.012 139.648 179.879C139.648 179.879 135.152 180.368 133.374 180.796C131.469 181.255 130.39 181.647 130.296 181.914C129.976 182.817 130.496 183.446 131.073 183.56Z" fill="black"/>
<path d="M150.185 183.56L159.056 183.674C159.475 183.68 159.82 183.347 159.827 182.928L159.855 181.341C159.844 180.673 159.399 180.012 158.759 179.879C158.759 179.879 154.264 180.368 152.486 180.796C150.58 181.255 149.501 181.647 149.407 181.914C149.087 182.817 149.607 183.446 150.185 183.56Z" fill="black"/>
<path d="M134.614 105.633L122.618 119.131L122.504 119.258C121.64 120.231 120.15 120.319 119.178 119.454C119.125 119.407 119.071 119.354 119.023 119.303L108.799 108.385L108.795 108.382C107.975 107.506 108.02 106.131 108.896 105.311C109.756 104.506 111.099 104.537 111.924 105.367L122.467 115.994L118.873 116.166L129.255 101.391C130.342 99.8444 132.476 99.4713 134.023 100.558C135.57 101.645 135.943 103.779 134.856 105.326C134.781 105.434 134.698 105.537 134.614 105.633Z" fill="#E3A5A2"/>
<path d="M130.114 100.067L123.915 108.546L128.642 112.889L137.426 102.596L136.644 96.7261L133.565 97.1895C132.442 97.5408 130.902 99.0439 130.114 100.067Z" fill="#7ADEFF"/>
<path d="M107.544 104.475C107.572 104.547 107.574 104.545 107.579 104.553C107.586 104.564 107.59 104.568 107.59 104.568C107.59 104.568 107.6 104.573 107.596 104.563C107.593 104.55 107.591 104.534 107.578 104.51C107.563 104.468 107.529 104.411 107.493 104.356C107.422 104.244 107.325 104.122 107.221 104.001C107.01 103.76 106.759 103.519 106.491 103.288C105.954 102.825 105.346 102.397 104.721 101.991L104.712 101.986C104.4 101.783 104.312 101.365 104.514 101.054C104.689 100.784 105.024 100.681 105.314 100.789C106.054 101.064 106.791 101.367 107.521 101.755C107.886 101.951 108.25 102.167 108.612 102.428C108.793 102.561 108.974 102.701 109.156 102.875C109.247 102.963 109.337 103.052 109.432 103.165C109.477 103.217 109.527 103.282 109.575 103.349C109.597 103.379 109.627 103.429 109.652 103.468C109.664 103.486 109.68 103.513 109.696 103.546C109.711 103.576 109.724 103.595 109.761 103.689C109.978 104.301 109.657 104.973 109.045 105.19C108.433 105.408 107.761 105.087 107.544 104.475Z" fill="#E3A5A2"/>
<path d="M109.162 104.127C109.191 104.225 109.191 104.21 109.199 104.229C109.208 104.247 109.211 104.249 109.211 104.249C109.216 104.254 109.223 104.259 109.22 104.25C109.223 104.243 109.217 104.224 109.208 104.201C109.19 104.157 109.164 104.102 109.127 104.042C109.06 103.925 108.962 103.794 108.861 103.666C108.654 103.407 108.405 103.149 108.146 102.896C107.617 102.392 107.028 101.914 106.42 101.455L106.413 101.45C106.117 101.226 106.058 100.804 106.282 100.506C106.476 100.249 106.819 100.171 107.1 100.3C107.827 100.633 108.548 100.993 109.261 101.424C109.616 101.644 109.971 101.877 110.322 102.157C110.498 102.301 110.673 102.448 110.85 102.632C110.938 102.721 111.027 102.822 111.118 102.939C111.163 102.997 111.209 103.06 111.258 103.138C111.28 103.172 111.307 103.22 111.333 103.269C111.345 103.293 111.358 103.315 111.375 103.356C111.391 103.398 111.401 103.405 111.437 103.527C111.602 104.155 111.228 104.798 110.599 104.964C109.971 105.13 109.328 104.754 109.162 104.127Z" fill="#E3A5A2"/>
<path d="M107.54 106.295C107.554 106.296 107.483 106.187 107.444 106.127C107.393 106.055 107.341 105.979 107.283 105.905C107.169 105.755 107.038 105.607 106.904 105.46C106.632 105.167 106.326 104.89 106.005 104.624C105.683 104.358 105.338 104.111 104.982 103.875C104.625 103.639 104.252 103.422 103.871 103.213L103.855 103.204C103.53 103.025 103.412 102.616 103.591 102.291C103.749 102.003 104.088 101.878 104.388 101.976C104.835 102.122 105.282 102.279 105.722 102.463C106.162 102.648 106.599 102.85 107.026 103.085C107.453 103.319 107.874 103.577 108.282 103.876C108.485 104.027 108.687 104.183 108.884 104.359C108.984 104.444 109.081 104.538 109.18 104.634C109.286 104.745 109.36 104.811 109.502 104.996C109.861 105.538 109.712 106.268 109.171 106.626C108.629 106.985 107.899 106.837 107.54 106.295Z" fill="#E3A5A2"/>
<path d="M107.641 107.854C107.346 107.548 106.992 107.215 106.651 106.903C106.305 106.589 105.952 106.279 105.591 105.977C104.87 105.372 104.122 104.794 103.352 104.243L103.348 104.24C103.046 104.024 102.976 103.605 103.192 103.302C103.385 103.032 103.74 102.948 104.029 103.086C104.917 103.51 105.79 103.968 106.647 104.462C107.075 104.708 107.499 104.965 107.92 105.23C108.345 105.5 108.747 105.761 109.185 106.078C109.713 106.46 109.832 107.198 109.449 107.727C109.067 108.256 108.329 108.374 107.8 107.992C107.744 107.951 107.688 107.902 107.641 107.854Z" fill="#E3A5A2"/>
<path d="M109.256 109.11C110.569 109.663 113 108.219 113 108.219C113.312 105.679 112.588 104.346 111.951 103.593L108.752 102.736C108.752 102.736 107.754 103.873 107.753 103.875C107.318 104.37 106.901 104.945 106.804 105.614C106.671 106.523 108.017 108.588 109.256 109.11Z" fill="#E3A5A2"/>
<path d="M110.469 101.066C110.949 101.296 111.29 101.541 111.648 101.874C111.992 102.201 112.294 102.604 112.51 103.065C112.725 103.524 112.865 104.043 112.882 104.553C112.92 105.07 112.842 105.563 112.738 106.043C112.601 106.682 111.971 107.088 111.332 106.95C110.693 106.813 110.287 106.183 110.425 105.544C110.442 105.467 110.465 105.393 110.496 105.323L110.51 105.292C110.624 105.033 110.735 104.769 110.771 104.511C110.828 104.249 110.814 103.993 110.762 103.731C110.708 103.47 110.596 103.205 110.427 102.954C110.27 102.712 110.014 102.453 109.824 102.297L109.733 102.223C109.438 101.981 109.395 101.545 109.637 101.25C109.843 100.999 110.189 100.931 110.469 101.066Z" fill="#E3A5A2"/>
<path d="M133.62 129.374C134.634 119.525 131.165 100.157 131.165 100.157C130.994 98.4208 132.727 96.6607 137.019 96.6978L145.155 96.4453C147.098 96.3914 148.274 97.2313 149.347 100.188C149.347 100.188 151.755 111.141 150.739 130.344C145.411 130.907 140.353 130.74 133.62 129.374Z" fill="#70EAE2"/>
<path d="M142.816 97.179C142.816 97.179 142.539 98.8645 140.465 98.9223C138.39 98.9801 138.02 97.3126 138.02 97.3126C138.02 97.3126 138.622 94.5913 137.666 91.8022C138.192 90.5223 141.626 90.143 142.666 91.8033C142.292 94.2737 142.816 97.179 142.816 97.179Z" fill="#E3A5A2"/>
<path d="M133.917 82.4105C133.917 82.4105 131.599 87.6583 134.503 90.5412L135.458 90.2662L133.917 82.4105Z" fill="black"/>
<path d="M132.708 88.6196C133.248 90.1861 134.393 91.2129 135.266 90.9121C136.14 90.6114 136.411 89.0976 135.871 87.531C135.332 85.9645 134.187 84.9377 133.313 85.2385C132.44 85.5386 132.169 87.0524 132.708 88.6196Z" fill="#FFB9B6"/>
<path d="M146.032 80.5821C144.555 78.8068 142.415 77.7357 140.086 77.8524C140.008 77.8563 139.927 77.8653 139.848 77.8726C139.767 77.8732 139.686 77.8721 139.609 77.876C137.28 77.9927 136.384 77.9018 135.026 79.7702C133.275 82.1795 134.218 86.639 134.29 88.0754C134.493 92.1466 135.055 95.0429 138.838 94.8347C142.797 94.6165 146.66 91.7112 146.684 87.4711C146.693 86.0324 146.953 81.6891 146.032 80.5821Z" fill="#FFB9B6"/>
<path d="M133.96 84.2063C129.767 82.6336 133.328 77.402 136.844 76.226C142.548 74.3177 146.669 74.9349 147.323 78.4445C147.323 78.4445 150.2 80.8207 148.459 84.4806C148.459 84.4806 149.788 91.6569 144.639 91.9144C144.639 91.9144 145.808 91.0414 146.718 88.1406C146.718 88.1406 143.515 86.2812 145.29 81.8082C145.29 81.8082 138.154 85.779 133.96 84.2063Z" fill="black"/>
<path d="M149.103 87.7997C148.723 89.4122 147.686 90.5479 146.787 90.3358C145.888 90.1237 145.467 88.6447 145.847 87.0315C146.228 85.419 147.265 84.2834 148.164 84.4954C149.063 84.7075 149.483 86.1866 149.103 87.7997Z" fill="#FFB9B6"/>
<path d="M43.98 111.461C46.6238 110.818 47.6209 110.684 49.2609 108.908C49.6385 107.694 48.922 105.267 47.9945 104.224C43.2758 98.9154 47.9945 92.564 47.9945 92.564L34.363 96.0556C34.363 96.0556 34.882 101.907 32.2416 105.606C31.2322 107.02 32.0216 109.244 33.5567 110.058C37.0119 111.889 42.4134 111.842 43.98 111.461Z" fill="black"/>
<path d="M41.9471 145.24C41.3097 150.157 45.2183 166.789 46.5845 172.283C45.1212 177.094 45.0578 180.104 45.1212 183.391C45.1212 183.391 46.1468 190.887 46.1446 192.174L50.6484 192.678C50.7556 191.402 52.5275 174.958 53.7927 168.914C54.9441 163.412 52.753 149.978 50.8106 140.399C46.3309 139.588 42.3943 141.788 41.9471 145.24Z" fill="#4169E1"/>
<path d="M48.8351 192.086L51.7914 193.052C53.3782 193.409 54.5823 193.768 55.4581 194.058C56.0243 194.245 56.3861 194.72 56.0938 195.153C55.9861 195.313 55.8239 195.418 55.6141 195.45L46.7131 195.437C46.3399 195.438 46.0375 195.189 46.037 194.882L46.0353 194.402L46.0325 194.403V192.087L48.8351 192.086Z" fill="black"/>
<path d="M34.9672 138.502C33.7121 140.222 34.2827 144.717 35.6394 148.573C37.285 153.25 37.4719 161.373 37.0516 166.454C32.4794 167.308 29.7587 170.648 27.7696 173.266C27.7696 173.266 22.395 180.283 21.5955 181.292L24.4705 184.245C25.3457 183.311 39.0238 174.412 42.8128 169.535C46.7023 164.528 47.9944 149.141 49.0543 140.233C44.5746 139.422 39.4682 139.194 34.9672 138.502Z" fill="#4169E1"/>
<path d="M23.9998 182.784L25.6084 185.287C26.6324 186.551 27.3539 187.579 27.8611 188.35C28.1888 188.847 28.1782 189.445 27.6805 189.604C27.497 189.662 27.3045 189.644 27.1205 189.539L20.1457 184.009C19.8528 183.778 19.7698 183.396 19.9594 183.155L20.2557 182.777L20.2534 182.776L21.6898 180.959L23.9998 182.784Z" fill="black"/>
<path d="M53.2887 112.325L64.1563 122.159L60.8258 122.59L60.828 122.588C61.5367 121.736 62.2683 120.807 62.9736 119.895C63.6828 118.976 64.383 118.047 65.0737 117.11C66.454 115.235 67.7983 113.328 69.1057 111.395L69.1079 111.392C69.6168 110.639 70.6391 110.441 71.3915 110.95C72.0957 111.426 72.3106 112.359 71.9184 113.093C70.79 115.188 69.6196 117.261 68.4054 119.314C67.7978 120.34 67.1783 121.36 66.546 122.375C65.9081 123.396 65.2796 124.387 64.5817 125.423L64.5788 125.427C63.8298 126.43 62.4282 126.658 61.4026 125.962L61.2483 125.857L49.1277 117.616C47.587 116.568 47.1875 114.47 48.235 112.929C49.2826 111.388 51.381 110.988 52.9218 112.036C53.0475 112.122 53.1787 112.227 53.2887 112.325Z" fill="#E3A5A2"/>
<path d="M58.0382 115.996L52.8173 110.955C51.8808 110.096 49.7975 108.259 47.772 108.276L45.9182 108.812L46.1466 114.64L53.9243 121.095C55.2625 119.378 56.7039 117.733 58.0382 115.996Z" fill="#4169E1"/>
<path d="M70.703 109.088C70.7378 108.894 70.7597 108.87 70.7883 108.785C70.8152 108.717 70.8438 108.653 70.8725 108.598C70.9297 108.479 70.9903 108.381 71.0526 108.282C71.1766 108.087 71.3084 107.917 71.4436 107.753C71.7146 107.43 72.0002 107.142 72.2942 106.873C72.8823 106.336 73.5028 105.87 74.1335 105.429C74.3512 105.277 74.6508 105.331 74.8029 105.548C74.9398 105.745 74.91 106.008 74.7434 106.169L74.7394 106.173C74.2092 106.687 73.6998 107.218 73.2576 107.777C73.0371 108.056 72.8346 108.342 72.6651 108.628C72.5815 108.77 72.5047 108.914 72.4485 109.048C72.4205 109.115 72.3936 109.183 72.3795 109.238C72.3694 109.269 72.3655 109.292 72.3616 109.314C72.3605 109.317 72.3554 109.384 72.3745 109.282C72.3206 109.744 71.9032 110.075 71.4414 110.021C70.9802 109.967 70.6491 109.55 70.703 109.088Z" fill="#E3A5A2"/>
<path d="M69.0605 109.275C69.0667 109.182 69.0723 109.171 69.0779 109.137L69.0953 109.06C69.1071 109.016 69.1194 108.971 69.1318 108.938C69.1565 108.863 69.1828 108.799 69.2098 108.739C69.2642 108.618 69.3203 108.509 69.3798 108.41C69.4965 108.206 69.6227 108.031 69.7507 107.859C70.0082 107.52 70.2826 107.218 70.562 106.927C71.1253 106.353 71.7178 105.837 72.3227 105.344C72.5286 105.177 72.8316 105.207 72.9993 105.413C73.1508 105.599 73.1402 105.864 72.9853 106.038L72.9819 106.041C72.4792 106.603 71.9978 107.18 71.5747 107.775C71.3677 108.074 71.1708 108.376 71.0103 108.677C70.9323 108.827 70.8577 108.978 70.8066 109.118C70.778 109.188 70.7584 109.256 70.7443 109.313C70.737 109.343 70.7314 109.369 70.7309 109.386C70.7281 109.399 70.732 109.403 70.732 109.403C70.732 109.403 70.7325 109.408 70.7359 109.396C70.7376 109.385 70.7393 109.399 70.7438 109.329C70.7286 109.794 70.3398 110.158 69.8752 110.143C69.4101 110.129 69.0454 109.74 69.0605 109.275Z" fill="#E3A5A2"/>
<path d="M71.2215 110.361C71.3673 110.047 71.4885 109.874 71.6344 109.657C71.7752 109.45 71.9251 109.26 72.0782 109.072C72.3863 108.701 72.7184 108.361 73.0618 108.042C73.4058 107.721 73.7677 107.428 74.1363 107.149C74.506 106.872 74.8887 106.617 75.2753 106.372C75.4992 106.23 75.796 106.297 75.9379 106.521C76.0681 106.726 76.0232 106.993 75.842 107.145L75.833 107.152C75.5031 107.431 75.1805 107.716 74.8775 108.016C74.5751 108.317 74.2844 108.626 74.019 108.952C73.7542 109.276 73.5062 109.611 73.2919 109.957C73.1864 110.13 73.0843 110.304 72.9979 110.479C72.9148 110.641 72.8205 110.858 72.7964 110.954C72.6842 111.408 72.2247 111.685 71.7708 111.572C71.3168 111.46 71.0397 111.001 71.1519 110.547C71.1648 110.495 71.1827 110.444 71.2041 110.397L71.2215 110.361Z" fill="#E3A5A2"/>
<path d="M71.7238 111.405C72.0559 111.01 72.3763 110.664 72.7124 110.308C73.0468 109.957 73.3863 109.612 73.733 109.276C74.426 108.603 75.1436 107.959 75.8831 107.344C76.0873 107.175 76.3903 107.203 76.5597 107.407C76.7163 107.595 76.7028 107.869 76.5401 108.043C75.9022 108.728 75.2917 109.436 74.711 110.164C74.4203 110.528 74.1387 110.899 73.8637 111.272C73.5927 111.643 73.3172 112.033 73.0833 112.397L73.0793 112.404C72.8274 112.796 72.3056 112.91 71.914 112.658C71.5218 112.406 71.4084 111.885 71.6598 111.492C71.6789 111.463 71.7024 111.431 71.7238 111.405Z" fill="#E3A5A2"/>
<path d="M72.0833 114.142C70.9443 114.962 68.2932 114.11 68.2932 114.11C67.4358 111.74 67.8376 110.301 68.2842 109.437L71.1665 107.912C71.1665 107.912 72.3745 108.784 72.3767 108.786C72.9025 109.166 73.4288 109.626 73.6695 110.246C73.9971 111.091 73.1583 113.369 72.0833 114.142Z" fill="#E3A5A2"/>
<path d="M69.9007 107.587C69.7166 107.797 69.5163 108.103 69.3946 108.388C69.2672 108.68 69.1971 108.983 69.1875 109.277C69.1797 109.571 69.2139 109.858 69.3233 110.132C69.4125 110.408 69.5803 110.668 69.752 110.921L69.7755 110.956C70.0376 111.342 69.9366 111.868 69.5505 112.13C69.1645 112.392 68.6388 112.291 68.3767 111.905C68.3549 111.873 68.3335 111.835 68.3167 111.802C68.117 111.393 67.9363 110.968 67.8572 110.499C67.759 110.04 67.7708 109.55 67.8611 109.093C67.952 108.633 68.1321 108.204 68.37 107.829C68.6169 107.449 68.8795 107.139 69.2532 106.832C69.4647 106.658 69.7772 106.688 69.9511 106.9C70.1077 107.09 70.0987 107.362 69.941 107.541L69.9007 107.587Z" fill="#E3A5A2"/>
<path d="M36.6157 113.373C37.4719 109.686 39.5698 108.253 43.0356 108.247C44.4624 108.244 45.8892 108.235 47.3161 108.229C47.444 108.229 47.5736 108.236 47.6993 108.26C49.5397 108.6 50.7118 110.044 50.6989 111.635C50.6977 111.778 50.7039 111.918 50.728 112.058C50.829 112.641 51.2021 114.313 52.5201 117.63C52.9179 118.631 53.5755 121.31 51.4541 123.197C50.9873 123.612 50.6955 124.186 50.6815 124.81C50.5771 129.46 50.6843 134.784 51.4356 138.82C51.6533 139.99 50.8694 141.109 49.7024 141.34C44.7121 142.327 39.7858 142.575 35.4413 141.798C34.2754 141.589 33.2121 140.428 33.6627 139.333C37.4713 130.071 36.0147 115.959 36.6157 113.373Z" fill="#64C1F2"/>
<path d="M41.8186 108.903C41.8186 108.903 45.1234 111.985 45.9184 111.491C46.3684 111.211 46.544 108.869 46.544 108.869C46.544 108.869 45.8578 106.211 46.7028 103.433C46.1401 102.191 42.7478 101.936 41.781 103.606C42.2332 106.025 41.8186 108.903 41.8186 108.903Z" fill="#E3A5A2"/>
<path d="M38.8822 103.878C38.8822 103.878 39.1987 104.252 38.7908 104.997C38.7908 104.997 39.7076 104.543 39.5056 103.793L38.8822 103.878Z" fill="black"/>
<path d="M37.2014 101.544C37.2014 101.544 36.7244 103.202 39.8895 104.304L37.5818 99.8323L37.2014 101.544Z" fill="black"/>
<path d="M38.3152 103.205C38.3152 103.205 38.3927 104.048 37.105 104.13C37.105 104.13 38.0723 104.494 38.7215 103.791L38.3152 103.205Z" fill="black"/>
<path d="M49.4052 93.8378C49.4052 93.8378 52.1523 98.7759 49.5646 101.866L48.6023 101.682L49.4052 93.8378Z" fill="black"/>
<path d="M50.8474 99.2303C50.5989 100.246 49.9385 100.958 49.3718 100.82C48.8051 100.681 48.5475 99.7454 48.7955 98.7292C49.0441 97.7131 49.7045 97.0017 50.2712 97.1397C50.8379 97.2783 51.096 98.2142 50.8474 99.2303Z" fill="#E3A5A2"/>
<path d="M50.0019 96.0564C50.0019 96.0564 50.9659 97.5797 50.1433 99.621C49.3208 101.662 50.5759 102.017 50.5759 102.017C50.5759 102.017 48.9673 102.169 48.5981 99.9223C48.2283 97.6751 50.0019 96.0564 50.0019 96.0564Z" fill="black"/>
<path d="M37.3569 93.1382C38.6458 91.2637 40.6483 90.0197 42.9425 89.9238C43.0188 89.9204 43.0985 89.9221 43.1776 89.9227C43.2562 89.9159 43.3359 89.9075 43.4122 89.9042C45.707 89.8082 46.5778 89.6382 48.0781 91.3484C50.0133 93.5529 49.4909 98.0124 49.5499 99.4274C49.7176 103.439 49.4281 106.33 45.6991 106.467C41.7957 106.611 37.7452 104.11 37.3384 99.9537C37.201 98.5437 36.5529 94.307 37.3569 93.1382Z" fill="#FFB9B6"/>
<path d="M46.0037 87.9481C45.2597 87.6984 44.4108 87.6171 43.7863 87.5778C41.5924 87.4398 39.1826 87.4925 37.3607 88.8139C33.7793 91.4106 33.1936 96.6051 36.2908 100.378C37.1285 101.085 47.2184 98.9858 49.8218 93.5769C50.5905 91.9795 47.7335 91.6833 47.6589 89.7587C47.6207 88.778 46.8863 88.2444 46.0037 87.9481Z" fill="black"/>
<path d="M45.9558 90.742C45.9558 90.742 45.7864 96.4342 50.5393 97.1188C50.5393 97.1188 52.6759 90.7269 46.1735 88.0101L45.9558 90.742Z" fill="black"/>
<path d="M36.2907 100.379C36.6829 101.549 37.5296 102.32 38.1816 102.101C38.8336 101.883 39.0445 100.757 38.6523 99.5871C38.2601 98.4173 37.4135 97.6458 36.7615 97.8646C36.1095 98.0829 35.8985 99.209 36.2907 100.379Z" fill="#FFB9B6"/>
<path d="M40.0364 98.5432C39.9949 98.6537 40.8146 99.2777 40.2042 100.877C39.5937 102.476 41.0205 103.024 41.0205 103.024C41.0205 103.024 37.966 103.543 38.3885 98.7665L40.0364 98.5432Z" fill="black"/>
<path d="M43.8294 113.008L58.5101 118.504L56.0795 119.143L62.8956 112.681L66.3182 109.46C67.4768 108.379 68.5777 107.337 69.8283 106.225C70.5785 105.558 71.7276 105.625 72.3947 106.375C73.0327 107.093 72.999 108.175 72.3386 108.851L72.2859 108.905C71.2681 109.944 70.1717 111.126 69.118 112.253L65.9333 115.687L59.5841 122.583C59.0185 123.198 58.1954 123.434 57.4329 123.281L57.1534 123.223L41.7955 120.081C39.7986 119.672 38.5109 117.722 38.9193 115.725C39.3278 113.728 41.2781 112.44 43.275 112.849C43.4602 112.887 43.6577 112.945 43.8294 113.008Z" fill="#FFB9B6"/>
<path d="M75.8309 104.293C75.7484 104.95 75.6368 105.579 75.4247 106.245C75.308 106.58 75.1946 106.915 74.9466 107.287C74.8148 107.473 74.6683 107.67 74.3956 107.864C74.2952 107.958 74.0646 108.047 73.8862 108.111C73.6926 108.174 73.4295 108.179 73.2011 108.164C72.5772 108.04 72.1726 107.433 72.2972 106.809C72.4217 106.185 73.0283 105.781 73.6522 105.905C73.5759 105.884 73.471 105.922 73.4244 105.945C73.3862 105.948 73.32 106.026 73.3391 106.019C73.3341 106.059 73.4087 106.039 73.4839 105.999C73.6466 105.912 73.8374 105.707 74.0135 105.504C74.3681 105.08 74.6986 104.557 74.9831 104.043L74.9954 104.021C75.1149 103.805 75.3871 103.726 75.6031 103.846C75.768 103.937 75.8528 104.117 75.8309 104.293Z" fill="#FFB9B6"/>
<path d="M73.9773 108.148C73.506 108.465 72.9685 108.802 72.2144 108.878C71.6617 108.933 70.245 108.068 70.0273 107.476C69.501 106.045 69.8926 104.707 70.3393 103.76C70.7477 102.894 71.6286 102.189 72.5859 102.649C72.8743 102.788 73.993 103.359 74.2309 103.562C74.6546 103.924 74.8083 104.504 74.6372 105.035C74.2377 106.275 73.9773 108.148 73.9773 108.148Z" fill="#FFB9B6"/>
<path d="M73.1811 104.623C73.1755 104.311 73.2047 104.118 73.2372 103.881C73.2698 103.655 73.3169 103.436 73.3691 103.221C73.4751 102.791 73.616 102.378 73.7759 101.976C73.938 101.575 74.1243 101.189 74.3274 100.814C74.53 100.44 74.7555 100.081 74.9878 99.7299C75.1382 99.5032 75.4434 99.4415 75.6695 99.5918C75.881 99.7321 75.9489 100.008 75.8345 100.228L75.8272 100.242C75.6454 100.588 75.472 100.938 75.3233 101.296C75.1741 101.653 75.0434 102.015 74.9367 102.382C74.8329 102.747 74.7482 103.117 74.6966 103.483C74.6719 103.666 74.6517 103.849 74.645 104.027C74.636 104.193 74.6388 104.406 74.6534 104.5C74.7174 104.904 74.4413 105.283 74.0368 105.347C73.6328 105.411 73.2529 105.135 73.1895 104.731C73.1845 104.698 73.1817 104.665 73.1806 104.633L73.1811 104.623Z" fill="#FFB9B6"/>
<path d="M72.5424 104.119C72.6036 103.623 72.6923 103.189 72.8 102.733C72.9088 102.283 73.0401 101.837 73.1967 101.398C73.517 100.525 73.9429 99.6606 74.6039 98.9284C74.7857 98.7264 75.0965 98.7107 75.2985 98.8925C75.4881 99.0636 75.5134 99.3486 75.3647 99.5495L75.3529 99.5652C74.8855 100.193 74.5803 100.965 74.3716 101.766C74.27 102.168 74.1898 102.578 74.1298 102.991C74.0714 103.399 74.0276 103.836 74.0175 104.217L74.017 104.23C74.0058 104.638 73.6657 104.961 73.2573 104.949C72.8488 104.938 72.5262 104.598 72.5374 104.19C72.5374 104.166 72.5396 104.142 72.5424 104.119Z" fill="#FFB9B6"/>
<path d="M71.6576 103.043C71.7962 102.516 71.9617 102.129 72.1469 101.699C72.332 101.282 72.5368 100.88 72.7528 100.487C73.1877 99.7033 73.6719 98.9559 74.1937 98.2422C74.3542 98.0228 74.6622 97.9746 74.8816 98.1351C75.0881 98.2854 75.1408 98.5693 75.014 98.7848C74.5808 99.5142 74.1914 100.266 73.857 101.031C73.6921 101.415 73.5389 101.802 73.4087 102.192C73.2836 102.568 73.1596 103.001 73.1102 103.318L73.1057 103.345C73.0429 103.749 72.6642 104.026 72.2602 103.963C71.8562 103.9 71.5796 103.521 71.6424 103.117C71.6464 103.093 71.6514 103.068 71.6576 103.043Z" fill="#FFB9B6"/>
<path d="M70.3985 103.831C70.4328 103.476 70.4928 103.262 70.5629 102.999C70.6314 102.749 70.7161 102.509 70.8031 102.272C70.9826 101.801 71.1969 101.355 71.4298 100.922C71.6593 100.487 71.9213 100.076 72.1884 99.671C72.4594 99.2693 72.7478 98.8827 73.0446 98.5045C73.2124 98.2907 73.5215 98.2531 73.7353 98.4203C73.9373 98.5786 73.9822 98.8625 73.8458 99.074L73.8397 99.0835C73.5905 99.4668 73.3515 99.8539 73.1321 100.25C72.9178 100.648 72.7091 101.048 72.5368 101.46C72.3612 101.869 72.2058 102.285 72.0879 102.702C72.0318 102.911 71.978 103.119 71.9415 103.325C71.9034 103.517 71.8736 103.765 71.8759 103.876V103.886C71.8848 104.295 71.5605 104.633 71.1515 104.642C70.7425 104.651 70.4041 104.327 70.3952 103.918C70.3946 103.89 70.3957 103.858 70.3985 103.831Z" fill="#FFB9B6"/>
<path d="M48.7153 122.523L52.3449 115.894L43.5303 112.151L36.9611 112.725C36.9611 112.725 34.8161 120.6 48.7153 122.523Z" fill="#64C1F2"/>
<path d="M44.2375 112.451C45.6835 112.802 47.0592 113.318 48.4159 113.879C49.0926 114.164 49.762 114.466 50.4184 114.797C51.076 115.127 51.7235 115.48 52.3452 115.894C51.6152 115.735 50.9116 115.514 50.2181 115.27C49.5235 115.027 48.8412 114.756 48.1668 114.466C46.8208 113.88 45.4938 113.249 44.2375 112.451Z" fill="#258FB8"/>
<path d="M48.7152 122.523C46.5163 122.506 44.327 121.937 42.3273 120.983C41.3274 120.501 40.3916 119.88 39.5494 119.157C38.7016 118.435 38.0171 117.539 37.4717 116.593C38.2022 117.415 38.967 118.171 39.8333 118.807C40.7041 119.431 41.6119 119.999 42.5837 120.455C43.551 120.916 44.5526 121.31 45.576 121.651C46.6033 121.981 47.6447 122.288 48.7152 122.523Z" fill="#258FB8"/>
<path d="M136.933 132.127H73.5835V195.477H136.933V132.127Z" fill="black"/>
<path d="M136.933 132.127H73.5835L88.873 122.522H152.223L136.933 132.127Z" fill="#3D3D3D"/>
<path d="M152.222 122.522V185.872L136.932 195.477V132.127L152.222 122.522Z" fill="#656565"/>
<path d="M105.199 165.637C106.761 165.637 108.027 164.37 108.027 162.808C108.027 161.246 106.761 159.98 105.199 159.98C103.636 159.98 102.37 161.246 102.37 162.808C102.37 164.37 103.636 165.637 105.199 165.637Z" fill="#4169E1"/>
<path d="M115.256 164.457C116.164 158.899 112.393 153.657 106.835 152.75C101.276 151.842 96.0344 155.613 95.1271 161.171C94.2197 166.73 97.9902 171.972 103.549 172.879C109.107 173.786 114.349 170.016 115.256 164.457Z" stroke="#4169E1" stroke-width="6.9794" stroke-miterlimit="10"/>
<path d="M105.199 180.99C115.24 180.99 123.38 172.849 123.38 162.808C123.38 152.767 115.24 144.627 105.199 144.627C95.1574 144.627 87.0173 152.767 87.0173 162.808C87.0173 172.849 95.1574 180.99 105.199 180.99Z" stroke="#4169E1" stroke-width="6.9794" stroke-miterlimit="10"/>
<path d="M111.292 161.23L106.273 162.286L107.594 157.531L111.292 161.23Z" fill="#4169E1"/>
<path d="M127.054 141.77L108.783 159.98" stroke="#4169E1" stroke-width="1.7449" stroke-miterlimit="10"/>
<path d="M130.634 140.19L132.923 140.222L134.514 138.631L130.734 138.114V134.117L128.883 135.968L128.694 138.441L128.028 136.823L126.41 138.441V142.411H130.734L132.158 140.986L130.634 140.19Z" fill="#4169E1"/>
<path d="M184.26 138.777C184.347 138.769 184.282 138.769 184.274 138.771C184.25 138.774 184.224 138.777 184.191 138.785C184.131 138.796 184.059 138.819 183.989 138.842C183.847 138.889 183.695 138.956 183.545 139.03C183.243 139.179 182.94 139.361 182.643 139.559C182.048 139.959 181.478 140.426 180.923 140.915L180.92 140.919C180.742 141.076 180.469 141.059 180.312 140.881C180.169 140.719 180.17 140.478 180.307 140.317C180.804 139.733 181.325 139.161 181.911 138.63C182.205 138.364 182.515 138.109 182.859 137.872C183.032 137.754 183.211 137.64 183.413 137.537C183.515 137.486 183.617 137.435 183.736 137.39C183.792 137.367 183.857 137.345 183.924 137.325C184.007 137.305 184.034 137.286 184.216 137.27C184.632 137.258 184.979 137.586 184.991 138.002C185.004 138.418 184.676 138.765 184.26 138.777Z" fill="#E09399"/>
<path d="M184.456 137.155C184.517 137.157 184.504 137.154 184.513 137.154C184.521 137.152 184.518 137.152 184.515 137.152C184.511 137.15 184.507 137.149 184.493 137.15C184.472 137.15 184.443 137.154 184.412 137.16C184.349 137.171 184.279 137.186 184.204 137.21C184.057 137.253 183.898 137.317 183.741 137.383C183.425 137.522 183.106 137.696 182.791 137.88C182.161 138.257 181.547 138.693 180.948 139.151L180.945 139.153C180.756 139.297 180.486 139.261 180.342 139.072C180.21 138.899 180.229 138.659 180.378 138.508C180.924 137.954 181.492 137.414 182.113 136.91C182.428 136.661 182.752 136.418 183.109 136.195C183.29 136.085 183.474 135.978 183.684 135.882C183.786 135.832 183.897 135.788 184.019 135.746C184.079 135.725 184.143 135.706 184.217 135.688C184.249 135.679 184.293 135.671 184.335 135.664L184.409 135.654C184.442 135.652 184.452 135.647 184.537 135.65C184.953 135.672 185.272 136.028 185.249 136.443C185.226 136.859 184.871 137.178 184.456 137.155Z" fill="#E09399"/>
<path d="M185.867 139.345C185.757 139.366 185.536 139.443 185.364 139.515C185.181 139.588 184.997 139.678 184.814 139.77C184.45 139.959 184.094 140.181 183.747 140.42C183.4 140.661 183.067 140.927 182.742 141.206C182.417 141.486 182.107 141.786 181.802 142.093L181.796 142.1C181.628 142.269 181.356 142.27 181.187 142.103C181.031 141.948 181.019 141.703 181.15 141.534C181.429 141.173 181.717 140.817 182.027 140.477C182.338 140.137 182.661 139.806 183.01 139.495C183.358 139.184 183.725 138.888 184.12 138.617C184.318 138.483 184.521 138.352 184.736 138.233C184.962 138.109 185.148 138.006 185.461 137.892L185.47 137.889C185.863 137.747 186.297 137.951 186.439 138.344C186.581 138.737 186.376 139.17 185.984 139.312C185.947 139.328 185.905 139.338 185.867 139.345Z" fill="#E09399"/>
<path d="M187.259 139.766C186.873 139.972 186.463 140.216 186.071 140.457C185.676 140.701 185.283 140.953 184.897 141.214C184.123 141.735 183.367 142.288 182.633 142.87C182.448 143.018 182.177 142.988 182.028 142.803C181.89 142.631 181.908 142.383 182.06 142.23C182.74 141.551 183.447 140.899 184.18 140.273C184.545 139.959 184.919 139.654 185.299 139.355C185.683 139.054 186.058 138.767 186.478 138.476C186.821 138.238 187.291 138.323 187.529 138.666C187.767 139.008 187.682 139.479 187.34 139.717C187.316 139.733 187.291 139.748 187.266 139.762L187.259 139.766Z" fill="#E09399"/>
<path d="M189.134 138.977C190.049 137.913 189.43 135.198 189.43 135.198C187.144 134.139 185.675 134.414 184.776 134.783L183.007 137.523C183.007 137.523 183.77 138.802 183.772 138.804C184.105 139.361 184.518 139.925 185.115 140.219C185.928 140.619 188.271 139.981 189.134 138.977Z" fill="#E09399"/>
<path d="M182.01 135.46C182.362 135.093 182.695 134.852 183.107 134.626C183.511 134.409 183.971 134.256 184.456 134.197C184.938 134.14 185.452 134.167 185.922 134.305C186.405 134.425 186.831 134.646 187.239 134.885C187.735 135.176 187.901 135.814 187.61 136.31C187.319 136.806 186.681 136.973 186.185 136.681C186.132 136.65 186.084 136.616 186.039 136.578L186.007 136.55C185.787 136.362 185.562 136.175 185.317 136.064C185.074 135.931 184.816 135.869 184.541 135.844C184.267 135.82 183.975 135.852 183.683 135.942C183.402 136.024 183.08 136.191 182.869 136.335L182.793 136.387C182.515 136.576 182.136 136.504 181.946 136.226C181.781 135.983 181.815 135.664 182.01 135.46Z" fill="#E09399"/>
<path d="M182.995 136.815H142.602V177.208H182.995V136.815Z" fill="black"/>
<path d="M162.787 159.414L172.928 148.327C172.697 148.231 172.445 148.176 172.179 148.176H153.419C153.022 148.176 152.672 148.324 152.363 148.528L162.787 159.414Z" fill="#656565"/>
<path d="M174.009 149.49L167.842 156.229L174.139 162.599V150.137C174.139 149.907 174.082 149.695 174.009 149.49Z" fill="#656565"/>
<path d="M157.57 156.256L151.502 149.918C151.493 149.993 151.458 150.06 151.458 150.137V162.775L157.57 156.256Z" fill="#656565"/>
<path d="M166.774 157.399L162.811 161.73L158.667 157.401L151.72 164.81C152.053 165.419 152.677 165.847 153.419 165.847H172.179C172.979 165.847 173.663 165.364 173.968 164.676L166.774 157.399Z" fill="#656565"/>
<path d="M182.995 136.815H142.602L152.351 130.691H192.744L182.995 136.815Z" fill="#26202F"/>
<path d="M192.744 130.691V171.084L182.995 177.208V136.816L192.744 130.691Z" fill="#161616"/>
<path d="M207.878 147.544C204.798 148.71 201.046 149.52 197.524 149.387C197.822 156.178 197.804 162.896 198.937 169.844C200.214 177.671 203.857 184.791 205.228 192.603L208.758 192.467C206.373 182.313 208.785 172.477 204.895 165.706C206.302 161.242 207.351 154.61 207.878 147.544Z" fill="#FFA7AE"/>
<path d="M205.072 191.765L202.596 192.823C200.858 193.214 199.539 193.607 198.58 193.925C197.96 194.13 197.564 194.65 197.884 195.125C198.001 195.3 198.179 195.415 198.409 195.449L208.158 195.436C208.567 195.436 208.898 195.164 208.899 194.828L208.901 194.302L208.904 194.303V191.766H205.072V191.765Z" fill="black"/>
<path d="M203.158 139.383C200.865 151.41 195.278 161.442 190.437 164.953C191.648 172.477 188.341 177.089 183.929 191.995L180.632 192.29C180.823 189.93 181.15 185.375 181.404 183.051C183.084 167.693 185.96 152.614 190.599 137.867C190.968 136.727 191.324 135.626 191.733 134.442L203.158 139.383Z" fill="#FFA7AE"/>
<path d="M180.632 191.765L178.299 192.824C176.561 193.214 175.242 193.607 174.283 193.925C173.663 194.13 173.267 194.65 173.587 195.125C173.704 195.3 173.882 195.415 174.112 195.449L183.861 195.436C184.27 195.437 184.601 195.164 184.602 194.828L184.603 194.303L184.606 194.303V191.767H180.632V191.765Z" fill="black"/>
<path d="M189.006 137.177C189.006 137.177 184.172 142.919 184.606 157.304C188.634 160.779 199.504 162.103 206.557 159.287C208.695 153.895 211.899 144.061 206.344 138.024L189.006 137.177Z" fill="#4169E1"/>
<path d="M196.929 111.681L207.015 125.13L207.086 125.226C207.958 126.389 207.723 128.038 206.56 128.91C206.481 128.969 206.397 129.025 206.314 129.073L191.576 137.725C190.322 138.461 188.708 138.042 187.972 136.788C187.236 135.534 187.655 133.92 188.909 133.184L203.647 124.532L202.947 128.475L191.701 115.98C190.45 114.59 190.563 112.448 191.953 111.196C193.344 109.945 195.485 110.058 196.737 111.448C196.803 111.522 196.87 111.603 196.929 111.681Z" fill="#E09399"/>
<path d="M192.74 110.09C192.74 110.09 198.53 108.882 204.777 119.103L197.855 124.097L192.74 110.09Z" fill="#4169E1"/>
<path d="M185.569 112.233C181.574 113.887 180.907 115.135 182.03 118.678C182.03 118.678 182.808 123.068 184.578 127.348C185.284 129.055 188.458 130.842 188.27 132.178C187.711 136.152 186.399 139.772 186.673 141.764C186.673 141.764 200.289 150.308 208.947 142.256C206.694 135.328 205.243 127.305 203.157 121.848C200.426 114.704 197.369 112.496 197.369 112.496C194.804 107.233 185.569 112.233 185.569 112.233Z" fill="#4169E1"/>
<path d="M164.57 149.108L162.342 146.223C162.14 145.963 162.189 145.589 162.449 145.387L165.309 143.178C165.57 142.976 167.365 142.153 167.566 142.414L169.197 145.133L165.406 149.216C165.146 149.417 164.772 149.369 164.57 149.108Z" fill="#FFA7AE"/>
<path d="M185.777 123.333C185.808 123.266 185.789 123.3 185.784 123.307C185.778 123.313 185.767 123.333 185.756 123.356L185.686 123.493C185.636 123.594 185.584 123.704 185.532 123.822C185.429 124.052 185.324 124.3 185.223 124.553C185.017 125.057 184.82 125.589 184.628 126.124C184.245 127.198 183.882 128.302 183.535 129.419C183.19 130.537 182.859 131.666 182.54 132.802L182.068 134.511L181.583 136.334C181.522 136.555 181.439 136.793 181.369 136.93C181.295 137.088 181.211 137.257 181.141 137.364C180.987 137.624 180.845 137.807 180.699 137.999C180.417 138.34 180.141 138.631 179.875 138.881C179.339 139.39 178.815 139.807 178.289 140.203C177.237 140.987 176.18 141.669 175.106 142.318C172.948 143.598 170.778 144.748 168.381 145.694L166.966 142.505C168.935 141.472 170.895 140.155 172.723 138.78C173.633 138.086 174.521 137.363 175.317 136.621C175.712 136.251 176.086 135.872 176.382 135.518C176.535 135.34 176.649 135.175 176.735 135.042C176.76 134.988 176.793 134.929 176.783 134.925C176.794 134.906 176.766 134.936 176.755 134.959C176.755 134.959 176.705 135.053 176.687 135.131L176.935 133.435L177.219 131.631C177.415 130.427 177.625 129.221 177.853 128.012C178.083 126.803 178.334 125.59 178.62 124.364C178.766 123.75 178.916 123.135 179.093 122.503C179.18 122.188 179.273 121.87 179.378 121.538C179.428 121.375 179.484 121.205 179.546 121.028L179.647 120.75L179.708 120.593C179.734 120.531 179.745 120.498 179.809 120.363L185.777 123.333Z" fill="#FFA7AE"/>
<path d="M186.295 123.7C186.871 128.754 184.886 133.308 184.886 133.308L176.469 126.571C178.331 119.629 180.082 113.816 185.29 112.714C185.261 112.715 186.269 123.471 186.295 123.7Z" fill="#4169E1"/>
<path d="M162.244 141.611C162.694 141.524 163.053 141.514 163.478 141.556C163.89 141.605 164.326 141.725 164.731 141.973C165.117 142.202 165.399 142.435 165.679 142.677C165.952 142.917 166.206 143.167 166.44 143.392C166.855 143.791 166.868 144.45 166.47 144.865C166.071 145.279 165.412 145.292 164.997 144.894C164.947 144.845 164.899 144.788 164.86 144.732C164.67 144.454 164.5 144.201 164.321 143.964C164.146 143.733 163.955 143.501 163.796 143.361C163.656 143.237 163.457 143.139 163.222 143.076C162.998 143.014 162.692 142.991 162.491 142.998L162.404 143.001C162.017 143.016 161.691 142.713 161.676 142.326C161.663 141.976 161.91 141.675 162.244 141.611Z" fill="#FFA7AE"/>
<path d="M159.054 146.632C159.282 146.673 159.657 146.667 159.964 146.611C160.286 146.556 160.605 146.455 160.915 146.329C161.225 146.208 161.523 146.039 161.815 145.868C162.105 145.689 162.382 145.487 162.653 145.276L162.661 145.27C162.99 145.014 163.465 145.073 163.722 145.403C163.979 145.732 163.92 146.207 163.59 146.464C163.561 146.487 163.528 146.508 163.497 146.526C163.149 146.723 162.794 146.907 162.423 147.065C162.048 147.216 161.67 147.36 161.27 147.452C160.873 147.548 160.465 147.613 160.048 147.62C159.62 147.618 159.238 147.6 158.754 147.425C158.537 147.346 158.425 147.105 158.504 146.887C158.574 146.692 158.775 146.582 158.972 146.618L159.054 146.632Z" fill="#FFA7AE"/>
<path d="M160.223 147.164C160.394 147.25 160.699 147.337 160.956 147.346C161.226 147.363 161.5 147.328 161.767 147.259C162.035 147.196 162.297 147.075 162.551 146.949C162.677 146.881 162.8 146.801 162.924 146.73L163.283 146.476L163.317 146.452C163.659 146.21 164.132 146.291 164.373 146.633C164.615 146.975 164.534 147.448 164.192 147.69C164.158 147.714 164.118 147.737 164.082 147.755L163.583 147.993C163.408 148.06 163.238 148.131 163.061 148.191C162.7 148.3 162.334 148.397 161.948 148.422C161.565 148.453 161.173 148.435 160.791 148.344C160.402 148.244 160.064 148.119 159.694 147.826C159.513 147.682 159.482 147.419 159.626 147.237C159.751 147.079 159.968 147.035 160.142 147.123L160.223 147.164Z" fill="#FFA7AE"/>
<path d="M160.403 147.597C160.655 147.696 160.972 147.783 161.263 147.83C161.561 147.879 161.858 147.894 162.143 147.876C162.429 147.862 162.7 147.796 162.951 147.705C163.205 147.622 163.423 147.469 163.632 147.322L163.67 147.296C164.012 147.055 164.485 147.138 164.725 147.481C164.965 147.823 164.882 148.295 164.54 148.536C164.51 148.557 164.475 148.578 164.443 148.594C164.074 148.778 163.691 148.94 163.29 149.004C162.893 149.076 162.493 149.097 162.11 149.053C161.727 149.014 161.358 148.929 161.008 148.81C160.652 148.685 160.335 148.546 159.993 148.338C159.793 148.217 159.729 147.957 159.851 147.757C159.959 147.578 160.178 147.509 160.366 147.583L160.403 147.597Z" fill="#FFA7AE"/>
<path d="M161.077 148.281C161.377 148.412 161.74 148.522 162.078 148.589C162.42 148.656 162.763 148.683 163.086 148.663C163.408 148.634 163.704 148.55 163.958 148.421C164.215 148.296 164.411 148.088 164.595 147.875L164.629 147.836C164.902 147.519 165.379 147.484 165.696 147.758C166.012 148.031 166.047 148.508 165.774 148.824C165.755 148.847 165.731 148.87 165.71 148.89C165.348 149.219 164.936 149.512 164.467 149.664C164.004 149.819 163.527 149.868 163.077 149.84C162.627 149.804 162.204 149.703 161.804 149.563C161.4 149.418 161.037 149.252 160.657 149.016C160.459 148.893 160.398 148.632 160.521 148.433C160.633 148.253 160.86 148.186 161.05 148.268L161.077 148.281Z" fill="#FFA7AE"/>
<path d="M178.514 102.051L177.757 105.093C177.654 105.508 177.944 105.918 178.371 105.958L179.772 106.088L178.514 102.051Z" fill="#FFA7AE"/>
<path d="M188.44 108.156L189.103 111.631C189.103 111.631 188.98 112.638 187.186 112.98C186.059 113.195 185.066 112.947 184.916 112.43L184.244 108.957L188.44 108.156Z" fill="#FFA7AE"/>
<path d="M184.689 111.141L184.462 109.955L188.658 109.154L188.884 110.34C188.884 110.34 188.343 110.858 186.862 111.141C185.382 111.423 184.689 111.141 184.689 111.141Z" fill="#D68C92"/>
<path d="M188.939 94.115L190.888 103.887C189.07 106.478 186.703 108.299 184.146 110.288C183.961 110.432 182.821 110.609 182.525 110.607C181.856 110.601 180.99 110.663 180.56 110.216C178.874 108.464 178.822 105.295 178.349 103.01C177.892 100.806 177.437 98.6009 176.953 96.402C176.919 92.7387 188.939 94.115 188.939 94.115Z" fill="#FFA7AE"/>
<path d="M179.526 100.849C179.526 100.849 182.541 103.541 180.092 104.435C180.277 107.233 182.122 109.753 184.463 109.954C186.9 109.964 188.352 109.537 190.491 108.429C193.391 106.927 194.271 104.357 193.961 100.636C193.76 98.2344 192.774 95.8403 191.668 93.7721C189.366 89.4669 184.454 88.797 179.937 91.5558C175.996 93.9629 176.059 97.8259 176.059 97.8259C176.059 97.8259 176.581 101.458 179.526 100.849Z" fill="black"/>
<path d="M179.135 102.703C178.94 101.682 179.263 100.763 179.856 100.649C180.448 100.536 181.087 101.272 181.281 102.293C181.476 103.314 181.153 104.233 180.561 104.347C179.968 104.46 179.33 103.724 179.135 102.703Z" fill="#FFA7AE"/>
<path d="M188.068 93.8367C190.982 93.8367 193.344 91.8035 193.344 89.2953C193.344 86.7872 190.982 84.7539 188.068 84.7539C185.155 84.7539 182.793 86.7872 182.793 89.2953C182.793 91.8035 185.155 93.8367 188.068 93.8367Z" fill="black"/>
<path d="M110.204 87.0035H67.7893V129.419H110.204V87.0035Z" fill="#5CB4FF"/>
<path d="M110.204 87.0039H67.7893L78.0263 80.5728H120.441L110.204 87.0039Z" fill="#8FCCFF"/>
<path d="M120.442 80.5725V122.988L110.205 129.419V87.0036L120.442 80.5725Z" fill="#4169E1"/>
<path d="M79.0908 113.628L96.9428 95.7183L102.644 94.2275L101.241 99.8294L83.2989 117.828L79.0908 113.628Z" fill="#5CB4FF"/>
<path d="M102.256 94.6187L100.987 99.6858L83.2984 117.431L79.487 113.627L97.0876 95.9704L102.256 94.6187ZM103.031 93.8365L96.7981 95.4665L78.6936 113.629L83.299 118.225L101.493 99.9731L103.031 93.8365Z" fill="#B0DBFF"/>
<path d="M96.7979 95.4663L78.3354 113.987L82.9408 118.584L101.404 100.062C101.049 99.7597 99.5988 100.039 99.2341 99.712C98.7909 99.3159 99.2504 98.1258 98.8324 97.7179C98.4312 97.3269 97.2165 97.8801 96.8512 97.4761C96.4556 97.039 97.0684 95.8535 96.7979 95.4663Z" fill="#B0DBFF"/>
<path d="M99.9031 94.6686L103.031 93.8365L102.281 96.886L99.9031 94.6686Z" fill="#B0DBFF"/>
<path d="M78.456 121.53C77.5324 120.608 75.893 118.972 75.2348 118.315C74.5767 117.658 75.3212 117.008 75.3212 117.008L76.5405 115.786L81.1458 120.383L79.8368 121.694C79.8368 121.694 79.3795 122.452 78.456 121.53Z" fill="#B0DBFF"/>
<path d="M78.5078 113.818L76.3477 115.983L80.9532 120.579L83.1133 118.415L78.5078 113.818Z" fill="#B0DBFF"/>
<path d="M78.1406 114.197L77.7485 114.589L82.3541 119.186L82.7461 118.794L78.1406 114.197Z" fill="#5CB4FF"/>
<path d="M77.2131 115.115L76.7993 115.529L81.4049 120.126L81.8187 119.711L77.2131 115.115Z" fill="#5CB4FF"/>
<path d="M146.372 108.215L136.729 120.875L136.593 121.054C136.071 121.739 135.242 122.071 134.443 122.01L124.964 121.222L120.228 120.846L117.867 120.669L116.697 120.589L115.583 120.526L115.486 120.52C114.198 120.447 113.214 119.343 113.288 118.056C113.36 116.788 114.433 115.816 115.695 115.855L116.348 115.877L116.958 115.905L118.164 115.968L120.553 116.107L125.314 116.406L134.824 117.039L132.538 118.174L140.093 104.166C141.075 102.345 143.348 101.664 145.17 102.647C146.992 103.629 147.672 105.902 146.689 107.724C146.599 107.891 146.484 108.067 146.372 108.215Z" fill="#FFB9B6"/>
<path d="M111.099 113.72C111.485 113.691 111.799 113.719 112.152 113.808C112.495 113.896 112.84 114.047 113.151 114.269C113.458 114.49 113.75 114.767 113.965 115.086C114.196 115.402 114.357 115.744 114.499 116.094L114.533 116.181C114.782 116.8 114.483 117.504 113.863 117.754C113.244 118.003 112.54 117.703 112.291 117.084C112.222 116.912 112.195 116.728 112.206 116.554C112.218 116.359 112.228 116.156 112.197 115.973C112.177 115.78 112.114 115.61 112.027 115.433C111.939 115.259 111.806 115.098 111.638 114.955C111.479 114.813 111.242 114.692 111.068 114.617L110.958 114.569C110.733 114.472 110.629 114.212 110.726 113.987C110.793 113.831 110.941 113.733 111.099 113.72Z" fill="#FFB9B6"/>
<path d="M113.805 115.149C114.366 115.282 114.987 115.452 115.563 115.963C115.984 116.337 116.313 117.99 116.021 118.56C115.314 119.938 114.045 120.565 113.032 120.883C112.215 121.139 111.075 121.217 110.59 121.312C110.361 121.357 110.303 121.044 110.307 120.811L110.17 117.098C111.25 116.92 113.805 115.149 113.805 115.149Z" fill="#FFB9B6"/>
<path d="M111.275 118.293C111.159 118.318 111.145 118.315 111.097 118.32L110.984 118.326C110.913 118.329 110.85 118.327 110.787 118.325C110.664 118.32 110.547 118.312 110.434 118.298C110.207 118.274 109.993 118.235 109.78 118.196C109.358 118.113 108.953 118.008 108.551 117.897C107.751 117.668 106.977 117.4 106.211 117.115C105.952 117.018 105.82 116.731 105.917 116.473C106.006 116.231 106.263 116.1 106.507 116.162L106.513 116.163C107.285 116.363 108.059 116.543 108.831 116.679C109.216 116.744 109.601 116.801 109.977 116.835C110.163 116.85 110.35 116.863 110.525 116.863C110.613 116.865 110.698 116.861 110.776 116.856C110.814 116.854 110.852 116.85 110.881 116.845C110.899 116.843 110.91 116.841 110.919 116.838C110.919 116.838 110.956 116.827 110.891 116.842C111.291 116.736 111.702 116.975 111.807 117.375C111.915 117.777 111.676 118.187 111.275 118.293Z" fill="#FFB9B6"/>
<path d="M111.768 119.004C111.588 119.124 111.544 119.127 111.449 119.168C111.369 119.197 111.29 119.223 111.218 119.238C111.067 119.278 110.931 119.296 110.795 119.31C110.523 119.34 110.272 119.331 110.024 119.315C109.532 119.277 109.071 119.182 108.623 119.067C107.731 118.827 106.898 118.491 106.088 118.122C105.838 118.008 105.727 117.712 105.841 117.461C105.948 117.225 106.216 117.113 106.456 117.195L106.464 117.198C107.267 117.474 108.081 117.712 108.888 117.846C109.289 117.909 109.69 117.949 110.066 117.94C110.253 117.934 110.437 117.922 110.596 117.886C110.674 117.87 110.753 117.851 110.81 117.827C110.845 117.816 110.866 117.804 110.888 117.793C110.893 117.793 110.948 117.75 110.859 117.81C111.189 117.559 111.659 117.623 111.911 117.952C112.161 118.282 112.097 118.753 111.768 119.004Z" fill="#FFB9B6"/>
<path d="M111.505 120.437C111.398 120.481 111.395 120.475 111.351 120.489C111.31 120.5 111.293 120.501 111.264 120.507C111.209 120.518 111.162 120.523 111.12 120.526C111.029 120.537 110.956 120.535 110.878 120.535C110.729 120.532 110.591 120.521 110.461 120.503C110.196 120.469 109.955 120.413 109.716 120.354C109.244 120.23 108.802 120.068 108.366 119.9C107.501 119.555 106.679 119.153 105.873 118.73C105.628 118.603 105.534 118.3 105.662 118.056C105.783 117.826 106.057 117.729 106.292 117.825L106.298 117.828C107.117 118.164 107.943 118.475 108.772 118.719C109.186 118.835 109.602 118.944 110.006 119.01C110.206 119.04 110.407 119.067 110.589 119.071C110.682 119.076 110.767 119.073 110.843 119.067C110.876 119.063 110.916 119.06 110.935 119.053C110.95 119.051 110.958 119.046 110.958 119.046C110.958 119.046 110.967 119.044 110.953 119.046C110.935 119.052 110.959 119.04 110.879 119.073C111.256 118.9 111.701 119.066 111.873 119.442C112.047 119.819 111.881 120.264 111.505 120.437Z" fill="#FFB9B6"/>
<path d="M113.041 120.792C112.913 120.892 112.856 120.92 112.772 120.97C112.692 121.017 112.617 121.049 112.539 121.087C112.385 121.154 112.231 121.212 112.078 121.256C111.771 121.35 111.464 121.397 111.16 121.426C110.553 121.477 109.962 121.417 109.402 121.297C108.837 121.186 108.308 120.995 107.789 120.792L107.037 120.445L106.314 120.057C106.071 119.927 105.98 119.625 106.11 119.382C106.234 119.152 106.513 119.058 106.748 119.161L106.779 119.174L107.476 119.479L108.182 119.739C108.658 119.882 109.135 120.013 109.612 120.065C110.087 120.129 110.56 120.135 111 120.061C111.217 120.021 111.431 119.971 111.621 119.893C111.719 119.857 111.808 119.813 111.893 119.768C111.931 119.743 111.976 119.721 112.007 119.697C112.034 119.68 112.089 119.636 112.064 119.653C112.378 119.383 112.852 119.419 113.122 119.734C113.392 120.049 113.355 120.523 113.041 120.792Z" fill="#FFB9B6"/>
<path d="M142.712 114.704L135.509 112.059L139.749 103.31L147.975 98.4209C147.975 98.4209 152.056 103.95 142.712 114.704Z" fill="#70EAE2"/>
<path d="M139.409 104.012C138.981 105.461 138.388 106.83 137.75 108.177C137.427 108.849 137.087 109.512 136.718 110.161C136.351 110.812 135.96 111.45 135.509 112.059C135.707 111.328 135.966 110.625 136.249 109.934C136.53 109.242 136.84 108.564 137.168 107.895C137.831 106.559 138.538 105.246 139.409 104.012Z" fill="#7ADEFF"/>
<path d="M142.712 114.704C144.03 112.809 145.287 110.913 146.39 108.928C146.934 107.932 147.421 106.91 147.857 105.864C148.266 104.807 148.598 103.724 148.843 102.592C148.861 103.749 148.656 104.91 148.327 106.029C147.978 107.141 147.505 108.211 146.959 109.238C146.398 110.257 145.764 111.231 145.056 112.149C144.349 113.066 143.582 113.939 142.712 114.704Z" fill="#7ADEFF"/>
<path d="M90.3668 169.701H59.8186V200.249H90.3668V169.701Z" fill="black"/>
<path d="M90.3674 169.701H59.8186L67.1918 165.07H97.74L90.3674 169.701Z" fill="#161616"/>
<path d="M97.7401 165.07V195.618L90.3674 200.25V169.702L97.7401 165.07Z" fill="#161616"/>
<path d="M86.447 180.213L86.4632 180.206C86.4486 180.163 86.4211 180.126 86.4043 180.083C86.3875 180.041 86.3813 179.995 86.3622 179.954L86.346 179.961C86.052 179.33 85.4998 178.829 84.8142 178.678C83.9148 178.481 83.0799 178.809 82.5536 179.414C82.2815 179.727 81.639 180.099 81.1801 180.34C80.9079 180.484 80.5735 180.358 80.4591 180.072L79.1994 176.928C78.9256 176.245 78.1491 175.912 77.4651 176.187L74.1514 177.515C73.8282 177.644 73.6705 178.011 73.799 178.335C74.0498 178.965 74.3909 179.575 74.9027 180.021C75.5075 180.547 75.8357 181.382 75.6382 182.281C75.4879 182.967 74.9863 183.519 74.3562 183.813L74.3629 183.829C74.3214 183.849 74.2759 183.854 74.2333 183.871C74.1912 183.888 74.1536 183.916 74.1104 183.93L74.1037 183.914C73.4444 184.135 72.7004 184.081 72.1191 183.687C71.3835 183.19 71.0435 182.4 71.0879 181.628C71.1165 181.137 70.754 180.023 70.5408 179.416C70.46 179.187 70.2064 179.077 69.9814 179.168L66.6794 180.51C65.9994 180.786 65.6706 181.56 65.9433 182.241L70.2631 193.021C70.5369 193.705 71.3134 194.037 71.9974 193.763L82.7769 189.443C83.4609 189.169 83.793 188.393 83.5187 187.709L82.1081 184.188C81.9936 183.902 82.1485 183.58 82.4453 183.496C82.9441 183.356 83.6634 183.183 84.0753 183.222C84.8737 183.298 85.7046 182.961 86.2203 182.198C86.6136 181.616 86.668 180.872 86.447 180.213Z" fill="#7ADEFF"/>
</svg>
