<svg width="916" height="440" viewBox="0 0 916 440" fill="none" xmlns="http://www.w3.org/2000/svg">
<path d="M807.687 428.471C807.687 428.471 761.359 400.207 783.273 372.434C805.595 344.144 834.236 361.692 825.141 325.734C816.046 289.778 830.488 277.287 857.918 274.737C885.349 272.184 868.622 229.184 894.625 232.548C920.628 235.914 919.387 259.915 904.399 285.056C889.408 310.197 919.015 312.098 905.961 338.654C888.196 374.796 865.072 361.977 874.807 400.459C884.639 439.332 840.962 450.178 807.687 428.471Z" fill="#3D3D3D"/>
<path d="M731.335 65.8701L569.374 37.9124L549.265 154.402L711.226 182.36L731.335 65.8701Z" fill="#D5E5FC"/>
<path d="M571.036 39.7444L639.47 114.979L729.169 67.0468" stroke="white" stroke-width="0.60377" stroke-miterlimit="10"/>
<path d="M634.15 109.132L551.423 153.335" stroke="white" stroke-width="0.60377" stroke-miterlimit="10"/>
<path d="M709.559 180.64L646.376 111.18" stroke="white" stroke-width="0.60377" stroke-miterlimit="10"/>
<path d="M320.091 227.819C320.091 227.819 252.619 203.695 235.1 115.356C281.957 143.731 310.668 190.342 310.668 190.342C310.668 190.342 273.702 145.825 287.196 67.1003C343.264 128.137 336.405 192.486 320.091 227.819Z" fill="#4B5FA4"/>
<path d="M782.18 192.726C796.047 170.985 826.878 115.905 842.791 34.6106C794.398 80.1324 756.247 194.887 756.247 194.887C756.247 194.887 771.03 130.663 746.814 65.0116C711.276 153.8 745.468 248.449 745.468 248.449C745.468 248.449 839.28 210.653 872.171 123.068C832.351 128.651 796.794 172.345 782.18 192.726Z" fill="#4B5FA4"/>
<path d="M113.807 433.842C113.807 433.842 71.0358 454.372 41.6274 413.734C12.219 373.098 61.5059 360.725 19.515 329.807C-22.476 298.89 22.1088 282.564 6.71022 247.729C-8.69073 212.894 10.6951 208.636 22.7294 210.565C34.7638 212.495 41.8979 252.303 68.4058 253.351C94.9137 254.399 117.178 288.556 106.267 316.684C95.3556 344.81 139.255 331.348 153.066 368.644C169.771 413.753 113.807 433.842 113.807 433.842Z" fill="#3D3D3D"/>
<path d="M364.071 129.173C361.373 108.249 346.559 54.6339 370.2 0C400.309 47.0602 382.519 139.799 382.519 139.799C382.519 139.799 393.931 87.1022 434.712 46.9249C430.116 125.031 371.854 183.205 371.854 183.205C371.854 183.205 310.13 110.787 316.267 34.4921C343.803 52.4917 360.347 108.997 364.071 129.173Z" fill="#4169E1"/>
<path d="M80.293 253.556L123.962 228.193C114.708 222.73 105.074 218.598 102.618 202.929L75.5594 219.781L80.293 253.556Z" fill="#656565"/>
<path d="M75.3769 218.475L102.414 201.637C102.148 199.519 102.003 197.203 102.003 194.655C102.003 183.205 100.784 172.632 98.3056 163.626L69.9816 179.981L75.3769 218.475Z" fill="#656565"/>
<path d="M106.154 438.076C151.5 431.792 182.877 395.073 153.473 360.472L99.6772 391.851L106.154 438.076Z" fill="#656565"/>
<path d="M86.5773 298.392L143.068 265.465C143.015 263.272 142.919 261.024 142.728 258.643C141.272 240.667 133.512 233.994 125.149 228.903L80.4745 254.849L86.5773 298.392Z" fill="#656565"/>
<path d="M99.4956 390.559L152.664 359.547C151.71 358.465 150.722 357.383 149.645 356.306C134.814 341.475 130.744 332.022 131.218 323.035L93.3564 346.773L99.4956 390.559Z" fill="#656565"/>
<path d="M17.8932 391.411C14.6764 438.182 88.3869 438.964 88.3869 438.964C94.0503 439.193 99.5929 438.921 104.957 438.244L101.73 415.214L17.8932 391.411Z" fill="#656565"/>
<path d="M93.1743 345.465L131.357 321.524C132.794 308.236 143.447 295.342 143.092 266.847L86.7574 299.682L93.1743 345.465Z" fill="#656565"/>
<path d="M95.0178 367.338L33.8801 351.589C27.188 360.395 20.3533 371.591 18.1266 388.562C18.0541 389.12 18.0445 389.637 17.9937 390.182L101.546 413.906L95.0178 367.338Z" fill="#656565"/>
<path d="M66.019 160.44L39.9917 152.869C39.115 163.324 46.0777 176.44 48.1522 189.001L70.9505 195.643L66.019 160.44Z" fill="#656565"/>
<path d="M71.1384 196.954L48.369 190.322C49.6442 199.625 47.9585 208.556 38.0518 215.784C35.2189 217.852 32.5793 219.941 30.1352 222.059L76.5723 235.728L71.1384 196.954Z" fill="#656565"/>
<path d="M62.4138 134.722C59.1752 135.314 55.7409 136.35 52.0845 137.935C44.2452 141.33 40.9752 146.085 40.1516 151.655L65.8336 159.127L62.4138 134.722Z" fill="#656565"/>
<path d="M97.9588 162.428C92.4283 143.497 81.1353 131.897 63.6043 134.508L69.7965 178.689L97.9588 162.428Z" fill="#656565"/>
<path d="M76.7555 237.04L29.0697 223.001C17.6633 233.171 10.9446 244 10.732 256.196L82.1072 275.205L76.7555 237.04Z" fill="#656565"/>
<path d="M88.8648 323.437L43.4275 310.946C55.94 328.156 45.7629 336.227 34.6753 350.548L94.8373 366.046L88.8648 323.437Z" fill="#656565"/>
<path d="M82.2879 276.505L10.7509 257.452C10.9948 270.337 18.4236 284.742 35.1697 301.491C38.0026 304.324 40.2897 306.918 42.1928 309.35L88.683 322.13L82.2879 276.505Z" fill="#656565"/>
<path d="M153.472 360.472C153.209 360.163 152.936 359.856 152.663 359.547L99.4952 390.559L93.3585 346.774L131.22 323.036C131.246 322.531 131.304 322.026 131.357 321.524L93.175 345.465L86.7581 299.685L143.092 266.849C143.087 266.393 143.078 265.931 143.068 265.468L86.577 298.395L80.4741 254.853L125.148 228.908C124.755 228.669 124.358 228.432 123.962 228.198L80.293 253.561L75.5594 219.787L102.618 202.934C102.55 202.502 102.468 202.091 102.413 201.64L75.3758 218.478L69.9806 179.984L98.3046 163.629C98.1935 163.225 98.0776 162.829 97.9617 162.433L69.7994 178.696L63.6072 134.515C63.216 134.573 62.8126 134.655 62.4141 134.727L65.8339 159.134L40.1519 151.662C40.0916 152.065 40.0264 152.464 39.9901 152.874L66.0174 160.446L70.9514 195.648L48.1531 189.006C48.2256 189.446 48.3076 189.89 48.368 190.327L71.1374 196.959L76.5713 235.733L30.1342 222.064C29.7719 222.378 29.4217 222.694 29.0691 223.008L76.7549 237.047L82.1043 275.213L10.7291 256.203C10.7218 256.619 10.7387 257.039 10.7484 257.459L82.2854 276.512L88.6805 322.14L42.1903 309.359C42.6081 309.893 43.0525 310.436 43.4268 310.953L88.8641 323.444L94.8366 366.051L34.6745 350.553C34.4089 350.896 34.1456 351.246 33.88 351.597L95.0177 367.345L101.546 413.913L17.9936 390.19C17.955 390.603 17.9212 391.011 17.8922 391.416L101.727 415.222L104.953 438.252C105.354 438.201 105.753 438.139 106.151 438.083L99.6716 391.856L153.472 360.472Z" fill="#C0D4F9"/>
<path d="M835.171 160.163C826.073 158.873 816.068 165.051 810.327 190.264L827.298 204.127L835.171 160.163Z" fill="#656565"/>
<path d="M852.594 180.256C852.677 174.892 852.056 170.612 849.662 168.219C846.235 164.792 841.483 161.471 836.36 160.38L831.52 187.4L852.594 180.256Z" fill="#656565"/>
<path d="M824.768 225.109L851.578 216.021C849.986 204.187 852.235 191.274 852.561 181.541L831.279 188.757L824.768 225.109Z" fill="#656565"/>
<path d="M873.309 250.38L816.813 269.534L810.568 304.406L879.296 281.105C880.235 270.218 878.229 259.294 873.309 250.38Z" fill="#656565"/>
<path d="M817.056 268.177L872.709 249.308C870.233 245.108 867.094 241.386 863.273 238.384C856.243 232.861 853.05 225.338 851.765 217.231L824.523 226.466L817.056 268.177Z" fill="#656565"/>
<path d="M819.641 246.895L788.643 221.576C778.703 228.604 768.431 233.984 764.608 245.398L812.852 284.807L819.641 246.895Z" fill="#656565"/>
<path d="M827.055 205.486L810.026 191.575C810.004 191.679 809.98 191.771 809.956 191.875C806.804 206.643 798.458 214.504 789.665 220.851L819.882 245.535L827.055 205.486Z" fill="#656565"/>
<path d="M790.083 418.788L786.929 436.399C798.953 439.196 851.377 448.499 864.409 401.738C865.247 398.734 865.769 395.864 866.068 393.104L790.107 418.858L790.083 418.788Z" fill="#656565"/>
<path d="M805.97 323.224L770.524 294.267C771.299 308.656 764.643 315.309 756.596 321.75L799.901 357.124L805.97 323.224Z" fill="#656565"/>
<path d="M790.311 417.514L866.18 391.793C867.253 378.643 862.792 368.178 857.848 359.383L797.029 380.002L790.311 417.514Z" fill="#656565"/>
<path d="M812.606 286.169L764.246 246.666C762.237 253.764 762.597 263.1 766.85 276.388C768.869 282.696 769.953 287.99 770.364 292.579L806.213 321.864L812.606 286.169Z" fill="#656565"/>
<path d="M793.193 394.575L734.728 346.817C732.497 352.581 731.115 359.699 731.115 368.84C731.115 374.761 731.712 380.145 732.733 385.091L786.957 429.386L793.193 394.575Z" fill="#656565"/>
<path d="M733.151 386.991C742.862 428.222 784.433 435.769 784.433 435.769C784.433 435.769 784.918 435.906 785.751 436.114L786.712 430.745L733.151 386.991Z" fill="#656565"/>
<path d="M799.656 358.489L755.631 322.526C748.29 328.322 740.035 334.227 735.221 345.66L793.437 393.215L799.656 358.489Z" fill="#656565"/>
<path d="M797.271 378.643L857.235 358.313C850.158 345.986 842.638 336.915 849.328 328.115L803.538 343.639L797.271 378.643Z" fill="#656565"/>
<path d="M803.785 342.279L850.917 326.301C852.229 324.98 853.847 323.659 855.9 322.331C869.753 313.368 877.474 298.03 879.162 282.424L810.322 305.763L803.785 342.279Z" fill="#656565"/>
<path d="M816.812 269.534L873.307 250.38C873.109 250.023 872.916 249.661 872.711 249.308L817.058 268.177L824.528 226.469L851.77 217.234C851.707 216.83 851.637 216.429 851.582 216.024L824.772 225.111L831.283 188.757L852.564 181.541C852.579 181.106 852.591 180.676 852.598 180.254L831.527 187.398L836.367 160.378C835.973 160.293 835.577 160.216 835.178 160.16L827.305 204.124L810.334 190.262C810.233 190.701 810.129 191.124 810.032 191.576L827.061 205.487L819.888 245.536L789.671 220.851C789.33 221.098 788.99 221.334 788.647 221.576L819.645 246.896L812.856 284.807L764.612 245.398C764.474 245.804 764.373 246.243 764.252 246.666L812.612 286.17L806.219 321.864L770.37 292.579C770.42 293.139 770.5 293.731 770.529 294.27L805.975 323.226L799.904 357.129L756.599 321.756C756.278 322.014 755.961 322.272 755.635 322.528L799.66 358.491L793.441 393.218L735.225 345.663C735.061 346.049 734.89 346.421 734.733 346.822L793.197 394.58L786.964 429.391L732.74 385.096C732.873 385.736 733.011 386.371 733.158 386.997L786.722 430.753L785.761 436.122C786.094 436.206 786.483 436.298 786.937 436.404L790.091 418.794L790.115 418.861L866.077 393.107C866.125 392.665 866.154 392.23 866.19 391.793L790.321 417.514L797.039 380L857.858 359.38C857.655 359.02 857.453 358.668 857.247 358.313L797.283 378.643L803.553 343.636L849.343 328.112C849.802 327.508 850.33 326.902 850.929 326.298L803.797 342.277L810.337 305.761L879.176 282.421C879.224 281.982 879.268 281.542 879.307 281.103L810.578 304.403L816.812 269.534Z" fill="#93C7F6"/>
<path d="M746.03 125.789H310.425V439.1H746.03V125.789Z" fill="#3D3D3D"/>
<path d="M315.573 129.692L528.226 295.318L740.878 129.692" stroke="white" stroke-width="0.60377" stroke-miterlimit="10"/>
<path d="M511.697 282.446L315.573 435.197" stroke="white" stroke-width="0.60377" stroke-miterlimit="10"/>
<path d="M740.877 435.197L544.545 282.283" stroke="white" stroke-width="0.60377" stroke-miterlimit="10"/>
<path d="M713.786 237.627H811.744C816.379 237.627 820.134 241.385 820.134 246.017V430.654C820.134 435.289 816.376 439.044 811.744 439.044H713.786C709.152 439.044 705.396 435.287 705.396 430.654V246.017C705.396 241.385 709.152 237.627 713.786 237.627Z" fill="white"/>
<path d="M816.319 253.373H709.21V423.298H816.319V253.373Z" fill="#4B5FA4"/>
<path d="M266.551 264.564V224.609L247.491 219.477V250.873H174.51V219.477L155.45 224.609V264.564C155.45 264.564 86.1713 322.48 86.1713 377.832C86.1713 412.655 86.1713 422.552 86.1713 422.552H211.002H335.832C335.832 422.552 335.832 412.655 335.832 377.832C335.83 322.48 266.551 264.564 266.551 264.564Z" fill="#6896EA"/>
<path d="M263.484 349.006C272.258 320.028 255.88 289.425 226.903 280.651C197.926 271.877 167.322 288.255 158.548 317.232C149.774 346.209 166.152 376.813 195.129 385.587C224.107 394.361 254.71 377.983 263.484 349.006Z" fill="#C0D4F9"/>
<path d="M210.999 199.051C22.1959 199.051 44.1514 262.403 44.1514 262.403H122.557C122.557 222.259 210.999 222.259 210.999 222.259C210.999 222.259 299.442 222.259 299.442 262.403H377.848C377.848 262.403 399.803 199.051 210.999 199.051Z" fill="#79A1F6"/>
<path d="M44.0316 283.627H122.84C125.775 283.627 128.156 281.248 128.156 278.311V262.55C128.156 259.614 125.777 257.235 122.84 257.235H44.0316C41.0973 257.235 38.716 259.614 38.716 262.55V278.311C38.716 281.245 41.0949 283.627 44.0316 283.627Z" fill="#4576CE"/>
<path d="M299.155 283.627H377.964C380.898 283.627 383.279 281.248 383.279 278.311V262.55C383.279 259.614 380.9 257.235 377.964 257.235H299.155C296.221 257.235 293.839 259.614 293.839 262.55V278.311C293.839 281.245 296.221 283.627 299.155 283.627Z" fill="#4576CE"/>
<path d="M210.998 362.885C227.441 362.885 240.771 349.555 240.771 333.112C240.771 316.668 227.441 303.339 210.998 303.339C194.555 303.339 181.225 316.668 181.225 333.112C181.225 349.555 194.555 362.885 210.998 362.885Z" fill="#4B5FA4"/>
<path d="M169.823 339.914C173.581 339.914 176.627 336.868 176.627 333.111C176.627 329.354 173.581 326.308 169.823 326.308C166.066 326.308 163.02 329.354 163.02 333.111C163.02 336.868 166.066 339.914 169.823 339.914Z" fill="white"/>
<path d="M175.084 354.364C172.206 356.779 171.831 361.071 174.246 363.95C176.661 366.828 180.953 367.203 183.832 364.788C186.711 362.373 187.085 358.081 184.67 355.202C182.255 352.326 177.963 351.949 175.084 354.364Z" fill="#4B5FA4"/>
<path d="M197.148 372.477C196.495 376.177 198.966 379.705 202.666 380.36C206.366 381.012 209.894 378.541 210.549 374.841C211.201 371.141 208.73 367.613 205.03 366.959C201.328 366.306 197.8 368.777 197.148 372.477Z" fill="#4B5FA4"/>
<path d="M225.694 372.171C227.573 375.426 231.734 376.54 234.988 374.661C238.241 372.782 239.356 368.621 237.477 365.368C235.599 362.112 231.437 360.999 228.184 362.878C224.929 364.754 223.815 368.915 225.694 372.171Z" fill="#4B5FA4"/>
<path d="M247.361 353.587C250.892 354.871 254.797 353.05 256.082 349.519C257.367 345.989 255.546 342.083 252.015 340.799C248.484 339.514 244.579 341.335 243.294 344.866C242.009 348.396 243.83 352.302 247.361 353.587Z" fill="white"/>
<path d="M252.015 325.421C255.546 324.137 257.367 320.231 256.082 316.701C254.797 313.17 250.892 311.349 247.361 312.634C243.83 313.918 242.009 317.824 243.294 321.354C244.579 324.885 248.484 326.706 252.015 325.421Z" fill="white"/>
<path d="M175.084 354.364C172.206 356.779 171.831 361.071 174.246 363.95C176.661 366.828 180.953 367.203 183.832 364.788C186.711 362.373 187.085 358.081 184.67 355.202C182.255 352.326 177.963 351.949 175.084 354.364Z" fill="white"/>
<path d="M237.477 300.856C239.356 297.603 238.24 293.442 234.987 291.563C231.731 289.684 227.57 290.8 225.694 294.053C223.815 297.306 224.931 301.467 228.184 303.346C231.437 305.225 235.598 304.109 237.477 300.856Z" fill="white"/>
<path d="M197.148 372.477C196.495 376.177 198.966 379.705 202.666 380.36C206.366 381.012 209.894 378.541 210.549 374.841C211.201 371.141 208.73 367.613 205.03 366.959C201.328 366.306 197.8 368.777 197.148 372.477Z" fill="white"/>
<path d="M210.549 291.381C209.897 287.681 206.368 285.211 202.666 285.863C198.966 286.515 196.495 290.043 197.148 293.746C197.8 297.446 201.328 299.916 205.03 299.264C208.73 298.61 211.201 295.081 210.549 291.381Z" fill="white"/>
<path d="M225.694 372.171C227.573 375.426 231.734 376.54 234.988 374.661C238.241 372.782 239.356 368.621 237.477 365.368C235.599 362.112 231.437 360.999 228.184 362.878C224.929 364.754 223.815 368.915 225.694 372.171Z" fill="white"/>
<path d="M183.832 301.433C180.953 299.018 176.661 299.392 174.246 302.271C171.831 305.149 172.206 309.441 175.084 311.856C177.963 314.271 182.255 313.897 184.67 311.018C187.085 308.139 186.711 303.848 183.832 301.433Z" fill="white"/>
<path d="M85.9012 439.046H336.096C337.458 439.046 338.562 437.942 338.562 436.58V408.52C338.562 407.157 337.458 406.054 336.096 406.054H85.9012C84.5391 406.054 83.4355 407.157 83.4355 408.52V436.58C83.4355 437.942 84.5391 439.046 85.9012 439.046Z" fill="#4576CE"/>
<path d="M763.381 325.504C763.381 325.504 749.434 326.654 746.355 340.287C743.275 353.918 745.364 362.948 745.364 362.948H781.393C781.393 362.948 785.609 325.504 763.381 325.504Z" fill="#D54066"/>
<path d="M771.506 371.84H763.642H762.906H755.042C755.042 371.84 727.163 373.852 727.163 423.3C749.683 423.3 760.225 423.3 762.906 423.3C763.384 423.3 763.642 423.3 763.642 423.3C766.326 423.3 776.865 423.3 799.386 423.3C799.388 373.852 771.506 371.84 771.506 371.84Z" fill="#E87D91"/>
<path d="M744.675 394.242L733.981 388.765C733.981 388.765 737.268 372.895 750.778 372.895C750.778 372.895 751.57 384.877 744.675 394.242Z" fill="#6896EA"/>
<path d="M781.989 394.242L792.683 388.765C792.683 388.765 789.396 372.895 775.886 372.895C775.886 372.895 775.092 384.877 781.989 394.242Z" fill="#6896EA"/>
<path d="M776.191 374.197L775.863 372.897L771.96 371.376L774.01 395.082C768.48 394.034 757.752 393.885 752.806 395.527L754.675 371.376L750.773 372.897L749.005 379.906C747.391 384.748 745.962 389.533 743.945 394.244C742.844 396.816 741.431 399.256 740.501 401.903C738.465 407.701 740.417 416.321 744.095 421.513C744.537 422.136 745.01 422.776 745.571 423.3C745.571 423.3 781.232 423.3 781.253 423.3C781.683 423.3 784.011 419.455 784.217 419.062C790.851 406.308 784.931 400.736 781.268 391.015C779.203 385.528 777.626 379.875 776.191 374.197Z" fill="#C0D4F9"/>
<path d="M763.318 380.481C768.09 380.481 771.959 376.612 771.959 371.84V357.438H754.677V371.84C754.677 376.612 758.543 380.481 763.318 380.481Z" fill="#E87D91"/>
<path d="M749.418 344.153C749.418 344.153 744.706 343.668 744.706 348.464C744.706 353.261 750.775 353.746 750.775 353.746L749.418 344.153Z" fill="#E87D91"/>
<path d="M777.219 344.153C777.219 344.153 781.931 343.668 781.931 348.464C781.931 353.261 775.859 353.746 775.859 353.746L777.219 344.153Z" fill="#E87D91"/>
<path d="M763.318 366.049C771.056 366.049 777.388 359.716 777.388 351.978V344.151C777.388 336.413 771.056 330.081 763.318 330.081C755.58 330.081 749.248 336.413 749.248 344.151V351.978C749.245 359.716 755.577 366.049 763.318 366.049Z" fill="#F990A1"/>
<path d="M759.528 356.99C759.528 356.99 761.61 355.681 763.315 357.26C765.08 355.623 767.027 357.093 767.027 357.093C767.027 357.093 766.08 359.32 763.402 359.32C760.088 359.318 759.528 356.99 759.528 356.99Z" fill="#D54066"/>
<path d="M757.351 350.174C757.954 350.174 758.443 349.364 758.443 348.365C758.443 347.366 757.954 346.557 757.351 346.557C756.748 346.557 756.259 347.366 756.259 348.365C756.259 349.364 756.748 350.174 757.351 350.174Z" fill="#31193B"/>
<path d="M768.198 348.401C768.198 349.401 768.688 350.21 769.289 350.21C769.893 350.21 770.381 349.401 770.381 348.401C770.381 347.402 769.893 346.593 769.289 346.593C768.688 346.593 768.198 347.402 768.198 348.401Z" fill="#31193B"/>
<path d="M758.512 356.367C758.512 356.367 759.835 357.898 763.313 357.898C766.79 357.898 768.322 356.367 768.322 356.367" stroke="#31193B" stroke-width="0.462004" stroke-miterlimit="10"/>
<path d="M763.312 348.208C763.312 348.208 759.489 355.016 763.312 355.016C767.138 355.019 763.312 348.208 763.312 348.208Z" fill="#E87D91"/>
<path d="M755.714 345.165C755.714 345.165 756.859 343.842 758.984 344.18" stroke="#31193B" stroke-width="0.462004" stroke-miterlimit="10"/>
<path d="M770.956 345.185C770.956 345.185 769.809 343.861 767.686 344.199" stroke="#31193B" stroke-width="0.462004" stroke-miterlimit="10"/>
<path d="M750.018 353.743C750.018 356.038 751.878 357.897 754.172 357.897C756.467 357.897 758.326 356.038 758.326 353.743C758.326 351.449 756.467 349.589 754.172 349.589C751.878 349.589 750.018 351.449 750.018 353.743Z" fill="#E87D91"/>
<path d="M768.502 353.743C768.502 356.038 770.361 357.897 772.656 357.897C774.95 357.897 776.81 356.038 776.81 353.743C776.81 351.449 774.95 349.589 772.656 349.589C770.361 349.589 768.502 351.449 768.502 353.743Z" fill="#E87D91"/>
<path d="M746.356 346.788C746.356 346.788 748.452 346.827 748.452 349.764C747.269 350.947 748.452 351.613 748.452 351.613" stroke="#31193B" stroke-width="0.462004" stroke-miterlimit="10"/>
<path d="M780.195 346.788C780.195 346.788 778.099 346.827 778.099 349.764C779.282 350.947 778.099 351.613 778.099 351.613" stroke="#31193B" stroke-width="0.462004" stroke-miterlimit="10"/>
<path d="M761.823 354.248C761.823 354.248 762.34 355.018 763.311 355.018C764.284 355.018 764.798 354.248 764.798 354.248" stroke="#31193B" stroke-width="0.462004" stroke-miterlimit="10"/>
<path d="M747.111 345.387C747.111 345.387 746.597 326.881 763.326 326.881C780.058 326.881 779.345 345.494 779.345 345.494H781.355C781.355 345.494 783.074 324.603 763.273 324.603C743.472 324.603 745.416 345.387 745.416 345.387H747.111Z" fill="black"/>
<path d="M747.655 353.512C747.655 353.512 743.984 353.536 743.984 348.839C743.984 344.144 747.548 344.1 747.548 344.1L747.655 353.512Z" fill="black"/>
<path d="M778.896 353.512C778.896 353.512 782.567 353.536 782.567 348.839C782.567 344.144 779.003 344.1 779.003 344.1L778.896 353.512Z" fill="black"/>
<path d="M772.514 360.216C772.376 360.078 772.376 359.856 772.514 359.719L780.131 352.101C780.269 351.964 780.493 351.964 780.628 352.101C780.766 352.239 780.766 352.461 780.628 352.599L773.011 360.216C772.876 360.354 772.651 360.354 772.514 360.216Z" fill="black"/>
<path d="M773.593 360.491L772.511 361.573C772.193 361.892 771.673 361.892 771.355 361.573L771.161 361.38C770.843 361.061 770.843 360.539 771.161 360.223L772.243 359.141C772.562 358.822 773.081 358.822 773.4 359.141L773.593 359.334C773.91 359.651 773.91 360.172 773.593 360.491Z" fill="black"/>
<path d="M748.887 344.143C748.887 344.143 758.139 344.8 763.276 333.116C768.502 344.977 778.099 344.226 778.099 344.226C778.099 344.226 777.788 327.629 763.276 327.629C748.764 327.627 748.887 344.143 748.887 344.143Z" fill="#D54066"/>
<path d="M783.619 401.458H768.86V410.179H783.619V401.458Z" fill="white"/>
<path d="M776.239 402.666C776.447 402.666 776.619 402.494 776.619 402.287V400.63C776.619 400.422 776.447 400.251 776.239 400.251C776.032 400.251 775.86 400.422 775.86 400.63V402.287C775.86 402.494 776.032 402.666 776.239 402.666Z" fill="#4B5FA4"/>
<path d="M168.049 182.575C168.049 182.575 172.234 177.522 197.899 184.164C210.479 184.164 223.212 184.164 223.212 184.164C223.212 184.164 243.863 175.303 252.084 182.449C211.687 198.454 209.472 198.959 209.472 198.959L168.049 182.575Z" fill="#4C60A5"/>
<path d="M204.628 136.422C204.628 136.422 188.595 140.968 179.065 155.927C169.535 170.886 180.999 179.638 193.717 185.956C194.468 182.632 194.135 182.963 194.135 182.963C194.135 182.963 182.39 171.33 183.276 165.679C183.276 165.679 204.628 147.167 204.628 136.422Z" fill="#F990A1"/>
<path d="M216.091 136.422C216.091 136.422 232.125 140.968 241.655 155.927C251.185 170.886 239.72 179.638 227.002 185.956C226.251 182.632 226.585 182.963 226.585 182.963C226.585 182.963 238.329 171.33 237.443 165.679C237.443 165.679 216.091 147.167 216.091 136.422Z" fill="#F990A1"/>
<path d="M182.922 150.77C182.922 150.77 183.269 156.132 190.085 159.199C199.052 154.791 205.28 143.107 205.28 135.761C197.127 134.973 184.008 146.976 182.922 150.77Z" fill="#7ADEFF"/>
<path d="M237.629 150.77C237.629 150.77 237.281 156.132 230.466 159.199C221.499 154.791 215.27 143.107 215.27 135.761C223.424 134.973 236.542 146.976 237.629 150.77Z" fill="#7ADEFF"/>
<path d="M228.584 153.154C232.724 145.687 223.322 140.036 219.182 137.751C216.724 136.394 213.934 135.756 211.125 135.756H209.425C206.616 135.756 203.829 136.394 201.369 137.751C197.229 140.033 187.808 145.697 191.969 153.154C196.212 160.764 196.601 174.97 195.205 184.178H224.297C222.884 175.573 223.483 162.363 228.584 153.154Z" fill="#7ADEFF"/>
<path d="M224.297 184.178H195.205C194.497 188.856 193.336 192.269 191.969 192.822L208.256 201.243H209.425H211.125H212.294L228.582 192.822C226.78 192.994 225.164 189.446 224.297 184.178Z" fill="#4C60A5"/>
<path d="M210.277 141.637C213.037 141.637 215.273 139.4 215.273 136.64V128.313H205.28V136.64C205.28 139.4 207.516 141.637 210.277 141.637Z" fill="#E87D91"/>
<path d="M202.238 120.63C202.238 120.63 199.513 120.35 199.513 123.123C199.513 125.895 203.022 126.175 203.022 126.175L202.238 120.63Z" fill="#E87D91"/>
<path d="M218.314 120.63C218.314 120.63 221.039 120.35 221.039 123.123C221.039 125.895 217.53 126.175 217.53 126.175L218.314 120.63Z" fill="#E87D91"/>
<path d="M210.277 133.293C214.752 133.293 218.414 129.631 218.414 125.156V120.63C218.414 116.155 214.752 112.494 210.277 112.494C205.802 112.494 202.141 116.155 202.141 120.63V125.156C202.138 129.629 205.802 133.293 210.277 133.293Z" fill="#F990A1"/>
<path d="M228.95 168.502H190.084V192.506H228.95V168.502Z" fill="black"/>
<path d="M225.796 206.86C225.796 206.86 176.56 171.977 167.421 183.103C156.317 196.625 223.429 212.053 223.429 212.053L225.796 206.86Z" fill="#4C60A5"/>
<path d="M194.52 206.861C194.52 206.861 242.965 172.675 252.895 183.104C265.133 195.957 196.723 212.053 196.723 212.053L194.52 206.861Z" fill="#4C60A5"/>
<path d="M194.522 206.86C194.522 206.86 185.811 205.684 185.811 209.329C185.811 212.973 196.724 212.053 196.724 212.053L194.522 206.86Z" fill="black"/>
<path d="M225.631 206.86C225.631 206.86 234.342 205.684 234.342 209.329C234.342 212.973 223.428 212.053 223.428 212.053L225.631 206.86Z" fill="black"/>
<path d="M206.19 122.975C206.19 123.569 206.482 124.052 206.842 124.052C207.202 124.052 207.494 123.569 207.494 122.975C207.494 122.381 207.202 121.898 206.842 121.898C206.482 121.898 206.19 122.381 206.19 122.975Z" fill="#31193B"/>
<path d="M213.077 122.975C213.077 123.569 213.369 124.052 213.729 124.052C214.089 124.052 214.381 123.569 214.381 122.975C214.381 122.381 214.089 121.898 213.729 121.898C213.369 121.898 213.077 122.381 213.077 122.975Z" fill="#31193B"/>
<path d="M207.494 127.692C207.494 127.692 208.26 128.578 210.272 128.578C212.281 128.578 213.167 127.692 213.167 127.692" stroke="#31193B" stroke-width="0.267108" stroke-miterlimit="10"/>
<path d="M210.272 126.912V122.976C210.272 122.976 207.233 126.912 210.272 126.912Z" fill="#E87D91"/>
<path d="M205.879 121.215C205.879 121.215 206.541 120.449 207.77 120.645" stroke="#31193B" stroke-width="0.267108" stroke-miterlimit="10"/>
<path d="M214.692 121.227C214.692 121.227 214.03 120.462 212.801 120.657" stroke="#31193B" stroke-width="0.267108" stroke-miterlimit="10"/>
<path d="M202.584 126.176C202.584 127.502 203.659 128.579 204.987 128.579C206.313 128.579 207.39 127.504 207.39 126.176C207.39 124.85 206.315 123.773 204.987 123.773C203.661 123.775 202.584 124.85 202.584 126.176Z" fill="#E87D91"/>
<path d="M215.674 128.579C217.001 128.579 218.077 127.503 218.077 126.176C218.077 124.849 217.001 123.773 215.674 123.773C214.346 123.773 213.271 124.849 213.271 126.176C213.271 127.503 214.346 128.579 215.674 128.579Z" fill="#E87D91"/>
<path d="M210.273 109.504C210.273 109.504 203.566 109.311 201.305 115.585C199.045 121.86 202.585 124.052 202.585 124.052C202.585 124.052 203.066 119.348 206.824 117.128C207.925 120.024 210.63 120.623 210.63 120.623C210.63 120.623 214.506 119.686 215.463 115.873C217.047 119.3 218.786 123.398 218.786 123.398C218.786 123.398 220.283 121.932 219.655 117.901C219.025 113.871 216.576 109.504 210.273 109.504Z" fill="#1E1E1E"/>
<path d="M200.995 121.174C200.995 121.174 200.701 110.574 210.281 110.574C219.864 110.574 219.456 121.234 219.456 121.234H220.608C220.608 121.234 221.594 109.27 210.252 109.27C198.911 109.27 200.024 121.171 200.024 121.171H200.995V121.174Z" fill="black"/>
<path d="M201.306 125.825C201.306 125.825 199.202 125.837 199.202 123.149C199.202 120.459 201.243 120.437 201.243 120.437L201.306 125.825Z" fill="black"/>
<path d="M219.2 125.825C219.2 125.825 221.301 125.837 221.301 123.149C221.301 120.459 219.26 120.437 219.26 120.437L219.2 125.825Z" fill="black"/>
<path d="M215.543 129.665C215.466 129.586 215.466 129.458 215.543 129.38L219.907 125.019C219.987 124.939 220.115 124.939 220.192 125.019C220.272 125.096 220.272 125.226 220.192 125.304L215.83 129.665C215.751 129.745 215.623 129.745 215.543 129.665Z" fill="black"/>
<path d="M216.16 129.822L215.539 130.443C215.356 130.626 215.059 130.626 214.875 130.443L214.764 130.332C214.581 130.151 214.581 129.851 214.764 129.67L215.385 129.049C215.568 128.868 215.865 128.868 216.047 129.049L216.158 129.161C216.341 129.342 216.341 129.641 216.16 129.822Z" fill="black"/>
<path d="M671.774 39.5974C671.774 39.5974 665.309 39.7785 663.461 44.5507C661.616 49.3253 662.396 52.6871 660.488 57.283C659.124 60.5724 659.363 65.0402 665.171 66.5714C670.979 68.1026 680.978 67.3829 682.96 62.8329C684.941 58.2853 680.528 55.1771 680.799 51.5738C681.069 47.9753 680.222 39.5974 671.774 39.5974Z" fill="black"/>
<path d="M685.256 111.787C685.109 110.956 684.988 110.186 684.899 109.507L639.519 108.118C625.85 108.118 647.436 152.09 652.747 162.868C652.747 162.868 651.718 175.327 654.792 174.18C659.707 172.347 660.12 159.402 657.787 152.705C657.524 151.954 657.265 151.191 657.106 150.411C655.263 141.379 653.577 133.001 651.723 126.118C656.657 127.296 662.542 127.639 668.003 127.639C681.554 127.637 687.004 121.734 685.256 111.787Z" fill="#637ABE"/>
<path d="M688.916 80.3671C692.802 73.3537 683.972 68.0454 680.086 65.9008C677.775 64.6256 675.157 64.0291 672.52 64.0291H670.924C668.286 64.0291 665.666 64.628 663.357 65.9008C659.471 68.0454 650.623 73.3633 654.528 80.3671C658.515 87.5133 658.88 100.857 657.568 109.505H684.892C683.562 101.424 684.125 89.0154 688.916 80.3671Z" fill="#7ADEFF"/>
<path d="M645.203 81.6974C636.253 95.7459 647.019 100.364 658.964 106.295C659.669 103.172 659.358 103.484 659.358 103.484C659.358 103.484 651.658 95.4416 649.159 90.8554C649.159 90.8554 651.183 89.0997 653.943 86.3851L647.348 78.6858C646.606 79.6397 645.882 80.6324 645.203 81.6974Z" fill="#F3A9B8"/>
<path d="M669.213 63.3816C669.213 63.3816 656.36 67.0452 647.345 78.6859L653.94 86.3852C659.874 80.5504 669.213 70.2694 669.213 63.3816Z" fill="#7ADEFF"/>
<path d="M700.13 89.0565C699.082 86.284 697.773 83.7892 696.343 81.5383L689.187 89.6675C692.003 94.0799 694.389 97.2147 694.389 97.2147C691.933 101.388 681.826 107.496 681.826 107.496C681.826 107.496 681.584 107.126 681.638 110.326C694.541 106.959 706.023 104.639 700.13 89.0565Z" fill="#F3A9B8"/>
<path d="M680.364 66.2241C679.096 72.3005 684.69 82.6177 689.187 89.6673L696.343 81.5381C689.732 71.1387 680.364 66.2241 680.364 66.2241Z" fill="#7ADEFF"/>
<path d="M671.718 69.5498C674.31 69.5498 676.411 67.4487 676.411 64.8573V57.0349H667.026V64.8573C667.026 67.4487 669.127 69.5498 671.718 69.5498Z" fill="#E87D91"/>
<path d="M664.172 49.8182C664.172 49.8182 661.612 49.555 661.612 52.1585C661.612 54.7619 664.908 55.0276 664.908 55.0276L664.172 49.8182Z" fill="#E87D91"/>
<path d="M679.27 49.8182C679.27 49.8182 681.83 49.555 681.83 52.1585C681.83 54.7619 678.534 55.0276 678.534 55.0276L679.27 49.8182Z" fill="#E87D91"/>
<path d="M671.719 61.7101C675.921 61.7101 679.36 58.2711 679.36 54.0688V49.8183C679.36 45.6161 675.921 42.177 671.719 42.177C667.517 42.177 664.078 45.6161 664.078 49.8183V54.0688C664.078 58.2735 667.517 61.7101 671.719 61.7101Z" fill="#F3A9B8"/>
<path d="M682.332 88.0081H645.828V110.55H682.332V88.0081Z" fill="black"/>
<path d="M669.663 56.791C669.663 56.791 670.793 56.0809 671.718 56.9383C672.677 56.0495 673.734 56.8489 673.734 56.8489C673.734 56.8489 673.22 58.0564 671.766 58.0564C669.967 58.0564 669.663 56.791 669.663 56.791Z" fill="black"/>
<path d="M667.882 52.0234C667.882 52.5813 668.155 53.0353 668.493 53.0353C668.831 53.0353 669.104 52.5813 669.104 52.0234C669.104 51.4631 668.831 51.0115 668.493 51.0115C668.157 51.0091 667.882 51.4631 667.882 52.0234Z" fill="black"/>
<path d="M674.962 53.0353C675.3 53.0353 675.573 52.5822 675.573 52.0234C675.573 51.4645 675.3 51.0115 674.962 51.0115C674.625 51.0115 674.351 51.4645 674.351 52.0234C674.351 52.5822 674.625 53.0353 674.962 53.0353Z" fill="black"/>
<path d="M669.108 56.4524C669.108 56.4524 669.828 57.2832 671.717 57.2832C673.605 57.2832 674.436 56.4524 674.436 56.4524" stroke="#31193B" stroke-width="0.250927" stroke-miterlimit="10"/>
<path d="M671.717 55.7207V52.0232C671.717 52.0232 668.862 55.7207 671.717 55.7207Z" fill="#E87D91"/>
<path d="M652.624 166.186C652.624 166.186 652.511 168.696 654.177 168.976C658.683 169.734 655.57 156.903 658.819 157.161C660.13 167.79 657.268 173.123 654.858 174.465C652.445 175.808 651.858 172.56 652.624 166.186Z" fill="#2E3154"/>
<path d="M651.944 160.24L659.148 157.299L657.735 151.993L649.418 155.227L651.944 160.24Z" fill="#2C417C"/>
<path d="M667.589 50.3689C667.589 50.3689 668.212 49.6492 669.364 49.8351" stroke="#31193B" stroke-width="0.250927" stroke-miterlimit="10"/>
<path d="M675.869 50.3781C675.869 50.3781 675.246 49.6585 674.094 49.8444" stroke="#31193B" stroke-width="0.250927" stroke-miterlimit="10"/>
<path d="M664.498 55.0276C664.498 56.2738 665.508 57.2833 666.754 57.2833C668 57.2833 669.009 56.2738 669.009 55.0276C669.009 53.7815 668 52.772 666.754 52.772C665.508 52.772 664.498 53.7815 664.498 55.0276Z" fill="#E87D91"/>
<path d="M674.536 55.0276C674.536 56.2738 675.545 57.2833 676.791 57.2833C678.038 57.2833 679.047 56.2738 679.047 55.0276C679.047 53.7815 678.038 52.772 676.791 52.772C675.545 52.772 674.536 53.7815 674.536 55.0276Z" fill="#E87D91"/>
<path d="M685.256 111.787C680.355 109.104 669.867 108.002 662.863 107.674C659.837 107.531 656.932 109.058 655.47 111.712C648.399 124.558 645.489 161.837 645.489 161.837C645.489 161.837 638.104 172.367 641.407 172.683C646.998 173.219 652.84 161.53 655.4 153.891C658.847 144.067 662.08 135.015 664.095 127.562C679.892 130.368 686.852 125.277 685.256 111.787Z" fill="#4C60A5"/>
<path d="M643.789 164.491C643.789 164.491 642.47 166.626 643.789 167.684C647.356 170.538 650.986 157.876 653.698 159.683C649.672 169.606 644.475 172.811 641.714 172.811C638.954 172.811 640.019 169.688 643.789 164.491Z" fill="#2E3154"/>
<path d="M662.918 50.4729C662.918 50.4729 662.638 40.4189 671.726 40.4189C680.814 40.4189 680.427 50.5308 680.427 50.5308H681.519C681.519 50.5308 682.454 39.1848 671.697 39.1848C660.94 39.1848 661.998 50.4729 661.998 50.4729H662.918Z" fill="black"/>
<path d="M663.212 54.8852C663.212 54.8852 661.217 54.8973 661.217 52.347C661.217 49.7966 663.154 49.7749 663.154 49.7749L663.212 54.8852Z" fill="black"/>
<path d="M680.182 54.8852C680.182 54.8852 682.176 54.8973 682.176 52.347C682.176 49.7966 680.24 49.7749 680.24 49.7749L680.182 54.8852Z" fill="black"/>
<path d="M676.717 58.5293C676.642 58.4545 676.642 58.3337 676.717 58.2588L680.854 54.1218C680.928 54.047 681.049 54.047 681.124 54.1218C681.199 54.1967 681.199 54.3174 681.124 54.3923L676.987 58.5293C676.912 58.6018 676.789 58.6018 676.717 58.5293Z" fill="black"/>
<path d="M677.301 58.6767L676.714 59.2636C676.54 59.4374 676.257 59.4374 676.086 59.2636L675.979 59.1573C675.806 58.9834 675.806 58.7008 675.979 58.5294L676.566 57.9401C676.74 57.7687 677.023 57.7687 677.194 57.9401L677.301 58.0464C677.474 58.2203 677.474 58.5052 677.301 58.6767Z" fill="black"/>
<path d="M663.627 49.8354C663.627 49.8354 670.218 50.8111 675.869 44.2831C677.917 49.5528 679.376 49.8885 679.808 49.8885C680.241 49.8885 679.207 41.1387 671.604 41.1387C664.002 41.1387 663.627 49.8354 663.627 49.8354Z" fill="black"/>
<path d="M645.264 160.794L652.908 162.248L654.613 157.026L645.873 155.212L645.264 160.794Z" fill="#2C417C"/>
<path d="M645.854 45.8328L652.175 52.1531V43.4419" fill="#649DF6"/>
<path d="M649.443 46.4296H631.678C627.355 46.4296 623.819 42.8939 623.819 38.5709V32.4221C623.819 28.0991 627.355 24.5635 631.678 24.5635H649.443C653.766 24.5635 657.302 28.0991 657.302 32.4221V38.5709C657.299 42.8939 653.764 46.4296 649.443 46.4296Z" fill="#649DF6"/>
<path d="M631.126 35.5784C631.126 36.5299 631.899 37.3028 632.85 37.3028C633.802 37.3028 634.574 36.5299 634.574 35.5784C634.574 34.6268 633.802 33.854 632.85 33.854C631.896 33.854 631.126 34.6268 631.126 35.5784Z" fill="white"/>
<path d="M646.548 35.5784C646.548 36.5299 647.321 37.3028 648.272 37.3028C649.224 37.3028 649.997 36.5299 649.997 35.5784C649.997 34.6268 649.224 33.854 648.272 33.854C647.318 33.854 646.548 34.6268 646.548 35.5784Z" fill="white"/>
<path d="M638.838 35.5784C638.838 36.5299 639.611 37.3028 640.562 37.3028C641.514 37.3028 642.287 36.5299 642.287 35.5784C642.287 34.6268 641.514 33.854 640.562 33.854C639.608 33.854 638.838 34.6268 638.838 35.5784Z" fill="white"/>
<path d="M425.035 276.323C425.035 276.323 439.113 273.345 448.362 296.115C456.76 283.877 459.32 278.61 459.32 278.61L462.524 280.349C462.524 280.349 457.612 305.647 450.21 305.647C442.81 305.647 431.711 294.547 431.711 294.547L425.035 276.323Z" fill="#637ABE"/>
<path d="M414.702 276.441C414.702 276.441 398.17 275.454 390.768 309.506C383.366 343.556 384.093 352.439 384.093 352.439H388.054C388.054 352.439 410.825 295.608 414.702 276.441Z" fill="#637ABE"/>
<path d="M439.622 296.675C439.622 272.988 426.544 276.442 414.7 276.442C402.857 276.442 403.35 296.675 403.35 296.675L401.036 337.082H439.622V296.675Z" fill="#637ABE"/>
<path d="M401.037 337.082L395.456 434.605H404.249L420.623 352.932L430.247 434.605H439.05L439.623 337.082H401.037Z" fill="black"/>
<path d="M439.623 434.605C439.623 434.605 444.68 433.989 449.74 439.046C435.182 439.046 430.494 439.046 430.494 439.046L430.247 434.605H439.623Z" fill="black"/>
<path d="M394.874 434.605C394.874 434.605 389.814 433.989 384.757 439.046C399.315 439.046 404.003 439.046 404.003 439.046L404.249 434.605H394.874Z" fill="black"/>
<path d="M416.471 275L421.48 282.687C421.48 282.687 417.365 285.706 414.725 281.709C412.085 277.714 416.471 275 416.471 275Z" fill="#4B5FA4"/>
<path d="M426.461 275L421.481 282.687C421.481 282.687 425.565 285.706 428.205 281.709C430.844 277.714 426.461 275 426.461 275Z" fill="#4B5FA4"/>
<path d="M413.477 259.823C413.477 259.823 410.833 259.543 410.833 262.316C410.833 265.088 414.24 265.368 414.24 265.368L413.477 259.823Z" fill="#F990A1"/>
<path d="M429.487 259.823C429.487 259.823 432.134 259.543 432.134 262.316C432.134 265.088 428.726 265.368 428.726 265.368L429.487 259.823Z" fill="#F990A1"/>
<path d="M421.48 282.687C418.72 282.687 416.483 280.451 416.483 277.69V269.363H426.477V277.69C426.477 280.451 424.241 282.687 421.48 282.687Z" fill="#E87D91"/>
<path d="M421.481 273.017C417.006 273.017 413.344 269.356 413.344 264.881V258.461C413.344 253.986 417.006 250.325 421.481 250.325C425.956 250.325 429.617 253.986 429.617 258.461V264.881C429.617 269.356 425.956 273.017 421.481 273.017Z" fill="#F990A1"/>
<path d="M413.344 263.936C413.344 263.936 415.025 260.055 415.025 253.904C420.121 257.116 428.129 253.928 428.129 253.928C428.129 253.928 427.779 260.676 429.617 263.936C432.448 257.964 431.354 248.183 421.481 248.183C411.608 248.18 410.649 257.908 413.344 263.936Z" fill="#4C60A5"/>
<path d="M388.148 351.727C388.148 351.727 389.496 359.124 388.363 359.866C387.406 360.431 386.926 355.796 386.926 355.796C386.926 355.796 385.97 360.083 385.75 362.259C385.532 364.435 382.873 364.087 382.224 359.909C381.572 355.731 384.533 351.773 384.533 351.773L388.148 351.727Z" fill="#F990A1"/>
<path d="M459.184 278.982C459.184 278.982 460.828 271.645 462.159 271.406C463.26 271.259 461.893 275.712 461.893 275.712C461.893 275.712 464.446 272.14 465.497 270.22C466.545 268.303 468.858 269.66 467.827 273.761C466.796 277.862 462.526 280.354 462.526 280.354L459.184 278.982Z" fill="#F990A1"/>
<path d="M417.371 261.906C417.371 262.5 417.663 262.983 418.023 262.983C418.383 262.983 418.675 262.5 418.675 261.906C418.675 261.311 418.383 260.828 418.023 260.828C417.663 260.828 417.371 261.309 417.371 261.906Z" fill="#31193B"/>
<path d="M424.257 261.906C424.257 262.5 424.549 262.983 424.909 262.983C425.269 262.983 425.561 262.5 425.561 261.906C425.561 261.311 425.269 260.828 424.909 260.828C424.549 260.828 424.257 261.309 424.257 261.906Z" fill="#31193B"/>
<path d="M418.674 266.622C418.674 266.622 419.44 267.508 421.452 267.508C423.461 267.508 424.347 266.622 424.347 266.622" stroke="#31193B" stroke-width="0.267108" stroke-miterlimit="10"/>
<path d="M421.452 265.842V261.905C421.452 261.905 418.413 265.842 421.452 265.842Z" fill="#E87D91"/>
<path d="M417.058 260.145C417.058 260.145 417.72 259.379 418.949 259.575" stroke="#31193B" stroke-width="0.267108" stroke-miterlimit="10"/>
<path d="M425.872 260.157C425.872 260.157 425.21 259.391 423.981 259.587" stroke="#31193B" stroke-width="0.267108" stroke-miterlimit="10"/>
<path d="M413.764 265.105C413.764 266.431 414.839 267.508 416.167 267.508C417.495 267.508 418.57 266.433 418.57 265.105C418.57 263.779 417.495 262.702 416.167 262.702C414.839 262.702 413.764 263.779 413.764 265.105Z" fill="#E87D91"/>
<path d="M424.452 265.105C424.452 266.431 425.527 267.508 426.855 267.508C428.181 267.508 429.258 266.433 429.258 265.105C429.258 263.779 428.184 262.702 426.855 262.702C425.527 262.705 424.452 263.779 424.452 265.105Z" fill="#E87D91"/>
<path d="M401.192 334.413H439.624V337.171H401.038L401.192 334.413Z" fill="#4B5FA4"/>
<path d="M412.223 260.454C412.223 260.454 411.928 249.854 421.509 249.854C431.092 249.854 430.684 260.514 430.684 260.514H431.836C431.836 260.514 432.821 248.55 421.48 248.55C410.138 248.55 411.252 260.454 411.252 260.454H412.223Z" fill="black"/>
<path d="M412.535 265.106C412.535 265.106 410.432 265.118 410.432 262.43C410.432 259.739 412.473 259.718 412.473 259.718L412.535 265.106Z" fill="black"/>
<path d="M430.427 265.106C430.427 265.106 432.528 265.118 432.528 262.43C432.528 259.739 430.487 259.718 430.487 259.718L430.427 265.106Z" fill="black"/>
<path d="M426.773 268.948C426.695 268.868 426.695 268.74 426.773 268.663L431.137 264.299C431.216 264.222 431.344 264.222 431.422 264.299C431.499 264.379 431.499 264.507 431.422 264.584L427.058 268.948C426.978 269.025 426.85 269.025 426.773 268.948Z" fill="black"/>
<path d="M427.387 269.103L426.767 269.723C426.583 269.904 426.286 269.904 426.105 269.723L425.994 269.612C425.81 269.429 425.81 269.132 425.994 268.95L426.614 268.33C426.796 268.146 427.095 268.146 427.276 268.33L427.387 268.441C427.571 268.622 427.571 268.921 427.387 269.103Z" fill="black"/>
<path d="M446.049 245.101L439.726 251.422V242.71" fill="#649DF6"/>
<path d="M442.46 245.698H460.225C464.546 245.698 468.084 242.162 468.084 237.839V231.69C468.084 227.37 464.548 223.832 460.225 223.832H442.46C438.139 223.832 434.601 227.367 434.601 231.69V237.839C434.601 242.162 438.139 245.698 442.46 245.698Z" fill="#649DF6"/>
<path d="M460.778 234.846C460.778 235.798 460.006 236.571 459.054 236.571C458.102 236.571 457.33 235.798 457.33 234.846C457.33 233.895 458.102 233.122 459.054 233.122C460.008 233.122 460.778 233.895 460.778 234.846Z" fill="white"/>
<path d="M445.356 234.846C445.356 235.798 444.584 236.571 443.632 236.571C442.68 236.571 441.908 235.798 441.908 234.846C441.908 233.895 442.68 233.122 443.632 233.122C444.584 233.122 445.356 233.895 445.356 234.846Z" fill="white"/>
<path d="M453.068 234.846C453.068 235.798 452.296 236.571 451.344 236.571C450.393 236.571 449.62 235.798 449.62 234.846C449.62 233.895 450.393 233.122 451.344 233.122C452.296 233.122 453.068 233.895 453.068 234.846Z" fill="white"/>
<path d="M421.481 282.687V334.072" stroke="#4B5FA4" stroke-width="0.60377" stroke-miterlimit="10"/>
<path d="M424.012 334.073H418.953V337.422H424.012V334.073Z" stroke="white" stroke-width="0.60377" stroke-miterlimit="10"/>
<path d="M781.847 306.057C789.972 295.709 788.169 280.735 777.821 272.611C767.474 264.486 752.499 266.289 744.375 276.637C736.25 286.984 738.053 301.959 748.401 310.083C758.748 318.207 773.723 316.405 781.847 306.057Z" fill="#649DF6"/>
<path d="M510.44 72.5898L412.693 90.6006L425.647 160.905L523.395 142.894L510.44 72.5898Z" fill="#A4AEE9"/>
<path d="M414.049 91.2921L468.615 119.667L509.488 73.708" stroke="white" stroke-width="0.60377" stroke-miterlimit="10"/>
<path d="M464.376 117.462L426.681 159.849" stroke="white" stroke-width="0.60377" stroke-miterlimit="10"/>
<path d="M522.118 142.265L471.74 116.066" stroke="white" stroke-width="0.60377" stroke-miterlimit="10"/>
<path d="M747.5 298.274V297.189L751.575 292.728C752.054 292.205 752.448 291.751 752.757 291.365C753.067 290.975 753.296 290.609 753.444 290.268C753.597 289.922 753.674 289.56 753.674 289.182C753.674 288.748 753.569 288.372 753.36 288.055C753.155 287.737 752.874 287.492 752.516 287.319C752.158 287.147 751.756 287.06 751.31 287.06C750.836 287.06 750.422 287.159 750.068 287.356C749.718 287.548 749.447 287.82 749.254 288.169C749.065 288.519 748.971 288.929 748.971 289.399H747.548C747.548 288.676 747.715 288.041 748.048 287.494C748.382 286.948 748.836 286.521 749.411 286.216C749.99 285.911 750.639 285.758 751.358 285.758C752.082 285.758 752.723 285.911 753.282 286.216C753.84 286.521 754.279 286.933 754.596 287.452C754.914 287.971 755.072 288.547 755.072 289.182C755.072 289.637 754.99 290.081 754.825 290.515C754.664 290.945 754.383 291.425 753.981 291.956C753.583 292.482 753.03 293.125 752.323 293.885L749.55 296.852V296.948H755.289V298.274H747.5ZM757.225 295.742V294.512L762.651 285.927H763.543V287.832H762.94L758.841 294.319V294.416H766.148V295.742H757.225ZM763.037 298.274V295.368V294.796V285.927H764.46V298.274H763.037ZM772.797 285.348L768.817 300.131H767.515L771.494 285.348H772.797ZM774.845 298.274L780.368 287.349V287.253H774.001V285.927H781.911V287.325L776.413 298.274H774.845Z" fill="#C9E1FB"/>
<path d="M382.132 335.746H384.661" stroke="white" stroke-width="0.60377" stroke-miterlimit="10"/>
<path d="M6.07318 439.047H909.931" stroke="#656565" stroke-width="1.81131" stroke-miterlimit="10"/>
</svg>
