<svg width="328" height="208" viewBox="0 0 328 208" fill="none" xmlns="http://www.w3.org/2000/svg">
<path d="M29.9321 163.592C29.9321 163.592 7.08063 119.483 29.3995 99.2878C38.9564 90.6402 47.864 80.8295 53.292 69.0081C59.4345 55.6289 57.9021 41.0244 62.3818 27.2376C65.5232 17.5693 71.5914 8.32732 80.7845 3.9895C91.8472 -1.23064 104.891 1.55519 116.621 5.02757C130.603 9.16649 143.862 12.1365 158.414 9.40942C168.429 7.53264 177.555 2.81172 187.603 1.10222C203.139 -1.54121 219.681 0.646149 234.141 6.85497C244.175 11.1639 252.169 17.3785 257.892 26.7153C263.378 35.6645 267.013 45.8031 273.996 53.7908C280.872 61.6558 290.419 66.4474 297.689 73.8692C305.642 81.9882 309.452 94.6354 311.764 105.504C313.958 115.811 314.639 126.731 312.337 137.084C311.217 142.125 309.378 147.024 306.635 151.414C305.09 153.888 299.488 162.515 296.186 162.529L29.9321 163.592Z" fill="#222222"/>
<path d="M132.086 44.9795C127.275 43.266 124.765 37.9769 126.479 33.167C128.192 28.3562 133.481 25.8458 138.291 27.5593C143.101 29.2728 145.612 34.5615 143.898 39.3718C142.185 44.1826 136.896 46.693 132.086 44.9795ZM140.581 21.1312C132.22 18.1531 123.028 22.5163 120.05 30.8769C117.072 39.2379 121.435 48.4292 129.796 51.4077C138.157 54.3857 147.348 50.0221 150.326 41.662C153.304 33.3014 148.941 24.1096 140.581 21.1312Z" fill="#656565"/>
<path d="M144.674 26.5181L134.003 22.7169L137.834 13.7338L147.385 17.1363L144.674 26.5181Z" fill="#656565"/>
<path d="M131.529 22.9298L122.901 30.271L117.037 22.4621L124.759 15.8911L131.529 22.9298Z" fill="#656565"/>
<path d="M121.848 32.5212L123.891 43.6632L114.197 44.8374L112.368 34.8639L121.848 32.5212Z" fill="#656565"/>
<path d="M125.314 45.7L135.985 49.5012L132.154 58.4834L122.603 55.0813L125.314 45.7Z" fill="#E2EEFA"/>
<path d="M138.459 49.3718L147.003 41.9336L152.955 49.6752L145.308 56.333L138.459 49.3718Z" fill="#E2EEFA"/>
<path d="M148.14 39.6973L146.096 28.5553L155.791 27.3811L157.62 37.3546L148.14 39.6973Z" fill="#656565"/>
<path d="M237.08 61.436L229.64 60.1524V58.7833C229.64 56.474 227.767 54.6007 225.457 54.6007H220.547V54.5963L217.68 54.6007H217.423V53.1297L236.094 56.3503L236.445 54.316L217.423 51.0349V49.0206L236.783 52.36L237.134 50.3257L217.423 46.9258V45.2337L237.417 48.6825L237.768 46.6482L217.292 43.1162C216.862 41.5539 215.432 40.406 213.733 40.406H201.58L199.272 40.0077L199.203 40.406H196.111L201.411 9.67825L244.72 17.1485L237.08 61.436ZM210.794 33.4327C212.279 36.3894 215.099 38.6275 218.611 39.2335C219.231 39.3403 219.848 39.3919 220.458 39.3919C223.275 39.3919 225.919 38.2849 227.883 36.4241C229.513 34.8775 230.676 32.8138 231.088 30.4275C232.101 24.5511 228.159 18.9648 222.282 17.9512C221.661 17.8439 221.044 17.7923 220.434 17.7923C215.276 17.7923 210.712 21.5014 209.805 26.7567C209.397 29.1247 209.79 31.4389 210.794 33.4327Z" fill="#E7F3FB"/>
<path d="M227.883 36.4248C226.398 33.4686 223.579 31.2305 220.067 30.6244C219.445 30.5172 218.827 30.4656 218.217 30.4656C215.4 30.4656 212.759 31.5709 210.794 33.4334C209.79 31.4396 209.397 29.1254 209.805 26.7574C210.712 21.5021 215.276 17.793 220.434 17.793C221.044 17.793 221.661 17.8446 222.282 17.9519C228.159 18.9654 232.101 24.5518 231.088 30.4282C230.676 32.8145 229.513 34.8782 227.883 36.4248ZM220.876 23.2592C219.307 23.2592 217.92 24.3872 217.644 25.9859C217.335 27.7732 218.535 29.4725 220.322 29.7808C220.511 29.8133 220.699 29.8289 220.884 29.8289C222.453 29.8289 223.841 28.7009 224.117 27.1022C224.425 25.3153 223.226 23.6161 221.439 23.3077C221.25 23.2752 221.062 23.2592 220.876 23.2592Z" fill="#F7FCFE"/>
<path d="M220.457 39.3921C219.848 39.3921 219.231 39.3405 218.611 39.2337C215.099 38.6277 212.279 36.3896 210.794 33.4329C212.758 31.5703 215.4 30.4651 218.217 30.4651C218.827 30.4651 219.445 30.5167 220.067 30.6239C223.579 31.2299 226.398 33.468 227.883 36.4243C225.919 38.2851 223.275 39.3921 220.457 39.3921Z" fill="#E7F3FB"/>
<path d="M220.884 29.8286C220.698 29.8286 220.51 29.813 220.321 29.7806C218.534 29.4722 217.335 27.7729 217.644 25.9856C217.919 24.3869 219.307 23.2589 220.876 23.2589C221.061 23.2589 221.249 23.275 221.438 23.3074C223.226 23.6158 224.425 25.315 224.117 27.102C223.84 28.7007 222.453 29.8286 220.884 29.8286Z" fill="#E7F3FB"/>
<path d="M237.417 48.6831L217.423 45.2343V44.0961C217.423 43.7571 217.377 43.4287 217.292 43.1168L237.768 46.6488L237.417 48.6831ZM201.58 40.4066H199.203L199.272 40.0084L201.58 40.4066Z" fill="#F7FCFE"/>
<path d="M236.783 52.3599L217.423 49.0205V46.9257L237.134 50.3256L236.783 52.3599Z" fill="#F7FCFE"/>
<path d="M236.094 56.3506L217.423 53.1301V51.0352L236.445 54.3163L236.094 56.3506Z" fill="#F7FCFE"/>
<path d="M69.3088 114.708L59.8198 59.8525L104.732 52.0832V54.6012H104.456L101.589 54.5967V54.6012H96.0262C94.1988 54.6012 92.6473 55.7741 92.0795 57.4079L63.4915 62.3531L64.2942 66.9952L91.8481 62.229V65.8273L64.8268 70.5014L65.3047 73.2641L91.8481 68.6723V70.5571L65.6215 75.0938L66.0994 77.8565L91.8481 73.4021V75.2864L66.4157 79.6856L66.8936 82.4483L91.8481 78.1314V80.2374L87.4943 80.9902L88.6289 87.5492C86.8985 87.8464 85.3581 89.0251 86.7241 90.9037C87.4258 91.8688 88.0198 93.3358 88.471 94.7053C88.3953 94.9238 88.3655 95.1614 88.3909 95.4061C88.4394 95.8649 88.6739 96.2591 89.012 96.5207C89.2861 97.5352 89.4347 98.2507 89.4347 98.2507C89.4459 98.2342 89.4574 98.2169 89.4685 98.2C89.5727 98.8153 89.7097 99.4182 89.8828 99.994L70.5302 103.341L70.8697 105.304L90.6414 101.883C90.8715 102.321 91.1318 102.724 91.4246 103.086L71.0944 106.603L71.4339 108.565L91.8481 105.034V106.372L71.6586 109.865L71.9981 111.827L87.0111 109.23C85.9214 109.935 84.878 110.883 84.0491 112.158L69.3088 114.708ZM84.1861 81.5629L67.311 84.4822L70.2298 101.357L87.105 98.438L84.1861 81.5629Z" fill="#E7F3FB"/>
<path d="M59.8197 59.853L59.2724 56.6903C59.2484 56.5519 59.2368 56.4145 59.2368 56.2792C59.2359 55.1286 60.0626 54.1096 61.2364 53.9063L104.732 46.3822V52.0838L59.8197 59.853ZM63.6409 55.4066C63.5693 55.4066 63.4968 55.4129 63.4238 55.4253C62.7346 55.5446 62.2723 56.2 62.3915 56.8892C62.4983 57.505 63.0331 57.9397 63.6378 57.9397C63.7094 57.9397 63.7824 57.9335 63.8554 57.9211C64.5446 57.8018 65.0065 57.1464 64.8872 56.4572C64.7804 55.8414 64.2456 55.4066 63.6409 55.4066ZM67.3095 54.7717C67.2379 54.7717 67.1654 54.7779 67.0924 54.7908C66.4032 54.9101 65.9409 55.565 66.0601 56.2543C66.1669 56.8705 66.7017 57.3052 67.3064 57.3052C67.3781 57.3052 67.451 57.299 67.524 57.2866C68.2132 57.1673 68.6751 56.5119 68.5558 55.8227C68.4495 55.2064 67.9142 54.7717 67.3095 54.7717ZM70.9786 54.1372C70.9065 54.1372 70.834 54.1434 70.761 54.1559C70.0718 54.2751 69.6099 54.9306 69.7292 55.6198C69.8355 56.236 70.3708 56.6703 70.975 56.6703C71.0467 56.6703 71.1196 56.6645 71.1926 56.6516C71.8818 56.5324 72.3437 55.8774 72.2249 55.1882C72.1181 54.5719 71.5833 54.1372 70.9786 54.1372Z" fill="#E0EDF7"/>
<path d="M63.6376 57.9385C63.0329 57.9385 62.4981 57.5038 62.3913 56.8879C62.2721 56.1987 62.7344 55.5433 63.4236 55.4241C63.4966 55.4116 63.5691 55.4054 63.6407 55.4054C64.2454 55.4054 64.7802 55.8401 64.887 56.4559C65.0063 57.1451 64.5444 57.8005 63.8552 57.9198C63.7822 57.9322 63.7092 57.9385 63.6376 57.9385Z" fill="#F7FCFE"/>
<path d="M67.3065 57.3047C66.7019 57.3047 66.167 56.87 66.0602 56.2537C65.941 55.5645 66.4033 54.9095 67.0925 54.7903C67.1655 54.7774 67.238 54.7711 67.3097 54.7711C67.9143 54.7711 68.4496 55.2059 68.556 55.8221C68.6752 56.5113 68.2133 57.1667 67.5241 57.286C67.4511 57.2985 67.3782 57.3047 67.3065 57.3047Z" fill="#F7FCFE"/>
<path d="M70.9751 56.6699C70.3708 56.6699 69.8355 56.2356 69.7292 55.6194C69.61 54.9302 70.0718 54.2748 70.761 54.1555C70.834 54.1431 70.9065 54.1368 70.9786 54.1368C71.5833 54.1368 72.1181 54.5715 72.2249 55.1878C72.3437 55.877 71.8819 56.532 71.1926 56.6512C71.1197 56.6641 71.0467 56.6699 70.9751 56.6699Z" fill="#F7FCFE"/>
<path d="M64.2939 66.9946L63.4912 62.3525L92.0792 57.4073C91.9292 57.838 91.8478 58.3012 91.8478 58.7831V62.2283L64.2939 66.9946Z" fill="#F7FCFE"/>
<path d="M65.3045 73.2646L64.8267 70.502L91.848 65.8278V68.6728L65.3045 73.2646Z" fill="#F7FCFE"/>
<path d="M66.099 77.8564L65.6211 75.0938L91.8477 70.5571V73.4021L66.099 77.8564Z" fill="#F7FCFE"/>
<path d="M66.8934 82.4482L66.4155 79.6856L91.8479 75.2863V78.1313L66.8934 82.4482Z" fill="#F7FCFE"/>
<path d="M70.8693 105.304L70.5298 103.341L89.8824 99.9941C90.0848 100.667 90.3362 101.304 90.641 101.883L70.8693 105.304Z" fill="#F7FCFE"/>
<path d="M71.4337 108.565L71.0942 106.603L91.4244 103.086C91.5588 103.253 91.6998 103.41 91.848 103.558V105.034L71.4337 108.565Z" fill="#F7FCFE"/>
<path d="M71.9977 111.827L71.6582 109.865L91.8478 106.373V107.381C90.5574 107.613 88.7264 108.12 87.0107 109.23L71.9977 111.827Z" fill="#F7FCFE"/>
<path d="M70.2299 101.356L67.311 84.4818L84.1862 81.5625L87.105 98.4376L70.2299 101.356Z" fill="#F7FCFE"/>
<path d="M88.6288 87.5483L87.4941 80.9893L91.848 80.2365V84.9334C90.4188 86.1134 89.7291 87.4803 89.7291 87.4803C89.6504 87.4763 89.5707 87.4745 89.4906 87.4745C89.2063 87.4745 88.9149 87.4994 88.6288 87.5483Z" fill="#F7FCFE"/>
<path d="M15.3412 150.032L15.3389 150.03C15.3247 150.018 15.2633 149.961 15.1592 149.864C13.0547 147.907 -6.50248 129.392 2.2347 125.919C11.4609 122.249 15.4453 149.404 15.3412 150.032Z" fill="#656565"/>
<path d="M15.3388 150.03C15.3246 150.018 15.2632 149.961 15.1591 149.864C13.9011 146.268 11.2931 141.437 9.06108 137.597C5.90417 132.166 2.79251 127.493 2.76172 127.446L2.86116 127.38C2.89191 127.427 6.00362 132.104 9.16275 137.536C11.4396 141.451 14.1044 146.4 15.3388 150.03Z" fill="#656565"/>
<path d="M15.4766 147.865L15.479 147.863C15.4931 147.856 15.5553 147.82 15.6608 147.758C17.7943 146.511 37.6809 134.654 31.0035 130.098C23.9528 125.285 15.5075 147.317 15.4766 147.865Z" fill="#656565"/>
<path d="M15.479 147.864C15.4931 147.857 15.5553 147.821 15.6608 147.759C17.3919 144.978 20.488 141.415 23.0821 138.613C26.751 134.65 30.2396 131.315 30.2742 131.281L30.2033 131.207C30.1685 131.24 26.6792 134.58 23.0083 138.543C20.3621 141.4 17.1967 145.051 15.479 147.864Z" fill="#656565"/>
<path d="M14.6332 148.941L14.6348 148.938C14.6449 148.924 14.6866 148.855 14.757 148.738C16.1805 146.382 29.3265 124.189 20.3665 123.286C10.904 122.332 14.3722 148.389 14.6332 148.941Z" fill="#656565"/>
<path d="M14.6348 148.938C14.6449 148.924 14.6866 148.855 14.7569 148.739C14.97 145.095 16.1024 139.961 17.1489 135.837C18.6285 130.005 20.2665 124.884 20.2823 124.832L20.1735 124.797C20.1575 124.849 18.5209 129.974 17.039 135.808C15.9712 140.012 14.8176 145.271 14.6348 148.938Z" fill="#656565"/>
<path d="M24.0456 145.892L24.0435 145.918L23.9323 147.596L22.9958 161.592L22.8636 163.583H9.17983L9.04737 161.592L8.11089 147.596L7.99983 145.918L7.99756 145.892H24.0456Z" fill="#455A64"/>
<path d="M22.9958 161.592L22.8636 163.583H9.17982L9.04736 161.592H22.9958Z" fill="black"/>
<path d="M24.0432 145.917L23.932 147.596H8.11057L7.99951 145.917H24.0432Z" fill="black"/>
<path d="M310.973 148.849L310.971 148.847C310.957 148.835 310.895 148.778 310.791 148.681C308.686 146.724 289.129 128.209 297.866 124.736C307.093 121.066 311.077 148.22 310.973 148.849Z" fill="#656565"/>
<path d="M310.97 148.847C310.957 148.835 310.895 148.779 310.791 148.682C309.533 145.085 306.925 140.254 304.692 136.414C301.536 130.983 298.424 126.311 298.393 126.263L298.493 126.197C298.523 126.245 301.635 130.922 304.794 136.353C307.071 140.269 309.736 145.218 310.97 148.847Z" fill="#656565"/>
<path d="M311.108 146.682L311.111 146.68C311.124 146.673 311.187 146.637 311.293 146.575C313.426 145.328 333.313 133.471 326.635 128.915C319.584 124.102 311.14 146.135 311.108 146.682Z" fill="#656565"/>
<path d="M311.111 146.681C311.125 146.674 311.187 146.638 311.293 146.576C313.024 143.795 316.12 140.232 318.714 137.43C322.383 133.467 325.872 130.132 325.906 130.098L325.835 130.024C325.801 130.057 322.311 133.397 318.64 137.359C315.994 140.216 312.829 143.868 311.111 146.681Z" fill="#656565"/>
<path d="M310.265 147.756L310.267 147.754C310.276 147.739 310.318 147.671 310.388 147.554C311.812 145.197 324.957 123.005 315.998 122.102C306.535 121.148 310.004 147.205 310.265 147.756Z" fill="#656565"/>
<path d="M310.267 147.755C310.276 147.74 310.318 147.672 310.388 147.555C310.602 143.912 311.734 138.778 312.78 134.654C314.26 128.822 315.898 123.701 315.913 123.649L315.805 123.614C315.789 123.666 314.152 128.791 312.671 134.624C311.603 138.829 310.449 144.088 310.267 147.755Z" fill="#656565"/>
<path d="M319.677 144.708L319.675 144.734L319.564 146.412L318.628 160.408L318.495 162.399H304.811L304.679 160.408L303.743 146.412L303.632 144.734L303.629 144.708H319.677Z" fill="#455A64"/>
<path d="M318.628 160.408L318.495 162.399H304.811L304.679 160.408H318.628Z" fill="black"/>
<path d="M319.675 144.734L319.564 146.413H303.743L303.632 144.734H319.675Z" fill="black"/>
<path d="M216.192 68.9504C216.192 71.1222 214.431 72.8828 212.26 72.8828C210.088 72.8828 208.327 71.1222 208.327 68.9504C208.327 66.7786 210.088 65.0179 212.26 65.0179C214.431 65.0179 216.192 66.7786 216.192 68.9504Z" fill="white"/>
<path d="M182.629 163.103H138.857C149.203 159.222 150.653 144.01 150.653 144.01C150.653 144.787 172.073 143.856 172.073 143.856C172.075 144.045 172.079 144.231 172.087 144.418C172.229 148.01 173.268 151.151 174.642 153.782C177.765 159.764 182.629 163.103 182.629 163.103Z" fill="#769BD7"/>
<mask id="mask0_1_25831" style="mask-type:luminance" maskUnits="userSpaceOnUse" x="151" y="146" width="15" height="5">
<path d="M165.45 150.004C159.74 148.315 153.471 147.077 151.213 146.652H165.45V150.004Z" fill="white"/>
</mask>
<g mask="url(#mask0_1_25831)">
<path d="M151.213 150.004H165.45V146.652H151.213V150.004Z" fill="#5070C0"/>
</g>
<path d="M229.64 58.7843V142.47C229.64 144.78 227.767 146.653 225.457 146.653H96.0262C93.7169 146.653 91.8481 144.78 91.8481 142.47V58.7843C91.8481 56.475 93.7169 54.6018 96.0262 54.6018H225.457C227.767 54.6018 229.64 56.475 229.64 58.7843Z" fill="#769BD7"/>
<path d="M97.1792 134.293H224.306V61.1981H97.1792V134.293Z" fill="#D0E4F6"/>
<path d="M160.743 144.216C158.571 144.216 156.811 142.455 156.811 140.283C156.811 138.112 158.571 136.351 160.743 136.351C162.914 136.351 164.675 138.112 164.675 140.283C164.675 142.455 162.914 144.216 160.743 144.216Z" fill="#5070C0"/>
<path d="M104.456 54.6011H101.589V54.5966L104.456 54.6011Z" fill="#D7EAF9"/>
<path d="M104.732 61.1982H101.85L101.589 54.601H104.456L104.732 54.6014V61.1982Z" fill="#5070C0"/>
<path d="M104.732 122.312C104.672 122.302 104.612 122.297 104.552 122.296L104.408 115.464C104.408 115.464 104.999 113.183 103.817 111.014L103.13 93.6075C106.154 87.7911 102.898 87.0026 102.898 87.0026C102.887 86.7926 102.871 86.5911 102.845 86.398L101.85 61.1983H104.732V122.312Z" fill="#B8D1EF"/>
<path d="M220.547 54.6011H217.68L220.547 54.5966V54.6011Z" fill="#D7EAF9"/>
<path d="M220.286 61.1982H217.423V54.6014L217.68 54.601H220.547L220.286 61.1982Z" fill="#5070C0"/>
<path d="M217.423 133.681V116.747L218.085 116.931L217.423 133.681ZM218.057 85.0206L217.423 84.8444V61.1985H220.286L219.365 84.5143C218.917 84.6949 218.481 84.8645 218.057 85.0206Z" fill="#B8D1EF"/>
<path d="M217.423 44.0955V134.307H104.732V44.0955C104.732 42.0581 106.384 40.406 108.424 40.406H213.733C215.771 40.406 217.423 42.0581 217.423 44.0955Z" fill="#C3D2EF"/>
<path d="M217.423 44.0966V49.0142H104.732V44.0966C104.732 42.0592 106.384 40.4071 108.424 40.4071H213.733C215.771 40.4071 217.423 42.0592 217.423 44.0966Z" fill="#9EB3E2"/>
<path d="M113.27 45.211C113.27 46.2828 112.401 47.1514 111.33 47.1514C110.258 47.1514 109.389 46.2828 109.389 45.211C109.389 44.1395 110.258 43.271 111.33 43.271C112.401 43.271 113.27 44.1395 113.27 45.211Z" fill="white"/>
<path d="M118.974 45.211C118.974 46.2828 118.105 47.1514 117.034 47.1514C115.962 47.1514 115.093 46.2828 115.093 45.211C115.093 44.1395 115.962 43.271 117.034 43.271C118.105 43.271 118.974 44.1395 118.974 45.211Z" fill="white"/>
<path d="M124.679 45.211C124.679 46.2828 123.81 47.1514 122.738 47.1514C121.667 47.1514 120.798 46.2828 120.798 45.211C120.798 44.1395 121.667 43.271 122.738 43.271C123.81 43.271 124.679 44.1395 124.679 45.211Z" fill="white"/>
<path d="M202.755 60.9663H109.622V53.7483H202.755V60.9663Z" fill="white"/>
<path d="M208.6 55.9733C208.3 55.9733 207.999 56.0907 207.775 56.3248C207.563 56.545 207.45 56.8347 207.456 57.1404C207.463 57.4456 207.588 57.7304 207.808 57.9422C208.029 58.1535 208.318 58.2639 208.624 58.2599C208.93 58.2536 209.214 58.1286 209.426 57.9079C209.637 57.6876 209.75 57.3975 209.743 57.0923C209.737 56.7871 209.612 56.5023 209.392 56.291C209.17 56.0787 208.885 55.9733 208.6 55.9733ZM208.599 58.7271C208.182 58.7271 207.787 58.5686 207.486 58.2785C207.175 57.9813 206.999 57.5804 206.99 57.1501C206.981 56.7199 207.14 56.3123 207.438 56.0017C207.735 55.6912 208.136 55.5154 208.566 55.5065C208.996 55.4981 209.404 55.656 209.714 55.9541C210.026 56.2518 210.201 56.6527 210.21 57.0825C210.219 57.5128 210.06 57.9204 209.763 58.2314C209.465 58.5415 209.064 58.7177 208.634 58.7266L208.599 58.7271Z" fill="#28346F"/>
<path d="M211.54 60.0771C211.482 60.0771 211.424 60.0558 211.379 60.0122L209.527 58.2364C209.434 58.1474 209.431 57.9997 209.52 57.9067C209.609 57.8137 209.757 57.8106 209.85 57.8996L211.701 59.6754C211.795 59.7648 211.798 59.9121 211.708 60.0055C211.663 60.0531 211.602 60.0771 211.54 60.0771Z" fill="#28346F"/>
<path d="M159.903 114.5H109.622V65.8551H159.903V114.5Z" fill="#2553A7"/>
<path d="M157.683 72.375H111.95V68.8822H157.683V72.375Z" fill="white"/>
<path d="M157.683 78.1689H111.95V74.6765H157.683V78.1689Z" fill="white"/>
<path d="M157.683 84.0679H111.95V80.575H157.683V84.0679Z" fill="white"/>
<path d="M157.683 90.9644H138.001V88.7507H157.683V90.9644Z" fill="white"/>
<path d="M157.683 94.7227H138.001V92.5095H157.683V94.7227Z" fill="white"/>
<path d="M157.683 98.481H138.001V96.2673H157.683V98.481Z" fill="white"/>
<path d="M157.683 102.24H138.001V100.027H157.683V102.24Z" fill="white"/>
<path d="M157.683 105.999H138.001V103.785H157.683V105.999Z" fill="white"/>
<path d="M157.683 109.757H138.001V107.544H157.683V109.757Z" fill="white"/>
<path d="M136.615 110.623H111.95V86.4734H136.615V110.623Z" fill="white"/>
<path d="M213.387 70.6934H162.475V66.3983H213.387V70.6934Z" fill="white"/>
<path d="M213.387 77.8335H162.475V73.5384H213.387V77.8335Z" fill="white"/>
<path d="M162.475 84.9741H213.387V80.6786H162.475V84.9741Z" fill="white"/>
<path d="M212.922 120.518H109.544V117.467H212.922V120.518Z" fill="white"/>
<path d="M212.922 125.588H109.544V122.537H212.922V125.588Z" fill="white"/>
<path d="M212.922 130.659H109.544V127.609H212.922V130.659Z" fill="white"/>
<path d="M189.328 93.4473H162.051V91.2336H189.328V93.4473Z" fill="white"/>
<path d="M189.328 97.2056H162.051V94.9924H189.328V97.2056Z" fill="white"/>
<path d="M189.328 100.964H162.051V98.7507H189.328V100.964Z" fill="white"/>
<path d="M189.328 104.723H162.051V102.509H189.328V104.723Z" fill="white"/>
<path d="M189.328 108.483H162.051V106.269H189.328V108.483Z" fill="white"/>
<path d="M189.328 112.24H162.051V110.027H189.328V112.24Z" fill="white"/>
<path d="M231.198 117.825C231.13 117.541 231.278 117.267 231.428 117.076C231.35 117.325 231.273 117.574 231.198 117.825ZM230.989 117.166C230.817 117.166 230.619 117.106 230.405 116.936C229.871 116.513 230.463 116.028 230.815 115.801C230.668 115.872 230.465 115.945 230.247 115.945C230.047 115.945 229.833 115.883 229.64 115.7V114.61C229.752 114.498 229.914 114.391 230.143 114.297C230.11 114.306 229.968 114.348 229.791 114.348C229.743 114.348 229.692 114.345 229.64 114.337V112.94C229.855 112.81 230.144 112.695 230.534 112.624C230.534 112.624 230.106 112.622 229.64 112.547V111.08V110.846C230.056 110.726 230.423 110.702 230.423 110.702C230.423 110.702 230.914 110.276 231.927 110.276C232.423 110.276 233.044 110.378 233.795 110.682C232.956 112.674 232.147 114.802 231.446 117.021C231.329 117.097 231.173 117.166 230.989 117.166Z" fill="#DFF1F9"/>
<path d="M229.64 115.699C229.597 115.659 229.555 115.613 229.515 115.56C229.515 115.56 229.196 115.051 229.64 114.61V115.699ZM229.64 114.337C229.409 114.302 229.158 114.176 229.017 113.825C229.017 113.825 229.02 113.315 229.64 112.94V114.337ZM229.64 112.547C229.511 112.526 229.38 112.5 229.254 112.467L229.64 111.08V112.547Z" fill="#5677C4"/>
<path d="M235.229 166.041L220.558 165.289L220.597 164.506L235.27 165.258L235.229 166.041Z" fill="#1E2A52"/>
<path d="M228.965 149.36L228.607 158.372C228.607 158.372 235.512 159.511 235.606 159.202C235.701 158.893 236.966 149.534 236.966 149.534L228.965 149.36Z" fill="#F2AB8C"/>
<path d="M228.157 158.314L227.886 161.215C227.886 161.215 220.733 160.848 220.598 164.506L235.27 165.258L235.986 158.785L228.157 158.314Z" fill="#274496"/>
<path d="M225.874 161.327C226.453 161.668 226.864 162.302 226.94 162.97C226.954 163.092 227.065 163.179 227.187 163.166C227.309 163.151 227.396 163.041 227.382 162.919C227.287 162.107 226.804 161.362 226.102 160.944C225.996 160.881 225.86 160.916 225.797 161.021C225.734 161.127 225.769 161.264 225.874 161.327Z" fill="white"/>
<path d="M224.527 161.398C225.106 161.74 225.517 162.373 225.593 163.041C225.607 163.163 225.717 163.251 225.839 163.237C225.962 163.223 226.049 163.112 226.035 162.99C225.94 162.178 225.457 161.433 224.755 161.015C224.649 160.952 224.512 160.987 224.45 161.093C224.387 161.198 224.422 161.335 224.527 161.398Z" fill="white"/>
<path d="M223.239 161.679C223.817 162.021 224.228 162.655 224.304 163.323C224.318 163.445 224.429 163.532 224.551 163.519C224.673 163.504 224.76 163.394 224.746 163.272C224.651 162.46 224.168 161.715 223.466 161.297C223.36 161.234 223.224 161.269 223.161 161.374C223.098 161.48 223.133 161.616 223.239 161.679Z" fill="white"/>
<path d="M256.546 99.4048C256.546 99.4048 250.486 111.685 246.228 126.564C246.183 126.711 246.143 126.863 246.099 127.014C245.791 128.104 245.471 129.154 245.142 130.182C242.352 138.907 238.926 145.648 237.026 155.028L227.558 154.338C227.558 154.338 227.295 138.565 229.725 124.055C231.429 113.892 236.679 104.531 239.06 99.7073L256.546 99.4048Z" fill="#274391"/>
<path d="M245.141 130.183C244.296 123.611 243.544 115.904 243.544 115.904L246.227 126.565C246.183 126.712 246.143 126.863 246.098 127.015C245.791 128.105 245.471 129.155 245.141 130.183Z" fill="#243068"/>
<path d="M264.062 166.482L249.583 168.969L249.45 168.196L263.929 165.71L264.062 166.482Z" fill="#1E2A52"/>
<path d="M254.289 151.583L255.918 160.454C255.918 160.454 262.904 160.05 262.929 159.728C262.953 159.405 262.133 149.997 262.133 149.997L254.289 151.583Z" fill="#F2AB8C"/>
<path d="M255.466 160.496L255.839 163.386C255.839 163.386 248.779 164.598 249.45 168.196L263.929 165.709L263.207 159.238L255.466 160.496Z" fill="#274496"/>
<path d="M253.9 163.935C254.539 164.142 255.08 164.67 255.3 165.305C255.341 165.421 255.468 165.482 255.584 165.442C255.7 165.401 255.761 165.274 255.72 165.158C255.449 164.387 254.814 163.766 254.038 163.512C253.921 163.474 253.795 163.538 253.758 163.655C253.719 163.772 253.783 163.897 253.9 163.935Z" fill="white"/>
<path d="M252.601 164.3C253.241 164.507 253.781 165.035 254.002 165.67C254.042 165.786 254.169 165.847 254.285 165.806C254.401 165.766 254.462 165.639 254.422 165.523C254.151 164.752 253.516 164.131 252.739 163.877C252.622 163.839 252.496 163.903 252.459 164.02C252.421 164.136 252.484 164.262 252.601 164.3Z" fill="white"/>
<path d="M251.406 164.858C252.046 165.065 252.586 165.593 252.807 166.228C252.847 166.344 252.974 166.405 253.09 166.364C253.206 166.324 253.267 166.197 253.227 166.081C252.955 165.31 252.32 164.689 251.544 164.435C251.427 164.397 251.302 164.461 251.263 164.578C251.225 164.695 251.29 164.82 251.406 164.858Z" fill="white"/>
<path d="M261.108 99.2522C261.108 99.2522 264.62 132.514 264.029 155.966L254.04 157.224C254.04 157.224 244.053 124.302 242.101 99.8604L261.108 99.2522Z" fill="#2553A7"/>
<path d="M237.964 75.0411C237.964 75.0411 223.705 83.371 216.295 85.618L219.163 91.563C219.163 91.563 236.103 84.4371 242.799 78.6568L237.964 75.0411Z" fill="#F2AB8C"/>
<path d="M251.851 74.5394C251.851 74.5394 245.697 68.8748 236.627 74.8932L241.181 81.0762L251.851 74.5394Z" fill="#23232A"/>
<path d="M261.832 82.9067C260.919 95.9081 261.147 99.441 261.147 99.441L239.06 99.708L239.091 98.3376L239.211 92.6645L239.518 78.1191C239.518 78.1191 237.235 69.3358 250.463 69.754C250.463 69.754 262.744 69.9053 261.832 82.9067Z" fill="#23232A"/>
<path d="M227.299 119.494L224.306 118.661V89.2692C225.328 88.7953 226.455 88.2623 227.64 87.6847L229.64 88.2409V110.846C229.174 110.98 228.647 111.235 228.501 111.711C228.377 112.116 228.777 112.341 229.254 112.467L227.299 119.494Z" fill="#5677C4"/>
<path d="M224.306 118.661L218.085 116.93L219.092 91.4178L219.163 91.5628C219.163 91.5628 221.276 90.6738 224.306 89.2687V118.661Z" fill="#BCD6F1"/>
<path d="M218.085 116.932L217.423 116.747V87.9579L219.092 91.4192L218.085 116.932ZM217.423 85.2495V84.845L218.057 85.0212C217.842 85.1009 217.631 85.177 217.423 85.2495Z" fill="#9EBCE6"/>
<path d="M217.423 116.747L197.692 111.258L204.999 84.9741H213.387V83.722L217.423 84.8442V85.2486C217.033 85.3852 216.655 85.5089 216.295 85.6184L217.423 87.9571V116.747Z" fill="#AABDE6"/>
<path d="M213.388 84.9741H204.999L205.924 81.6468L213.388 83.722V84.9741Z" fill="white"/>
<path d="M229.254 112.467C228.776 112.341 228.377 112.116 228.501 111.711C228.646 111.235 229.174 110.98 229.64 110.846V111.08L229.254 112.467Z" fill="#3E59B1"/>
<path d="M219.163 91.563L219.092 91.4179L217.423 87.9567L216.295 85.618C216.655 85.5086 217.033 85.3849 217.423 85.2483C217.631 85.1757 217.842 85.0997 218.057 85.02L227.64 87.6844C226.455 88.2619 225.328 88.795 224.306 89.2688C221.276 90.674 219.163 91.563 219.163 91.563Z" fill="#EA8D69"/>
<path d="M234.45 88.0097L232.274 95.8364L230.392 102.604L226.213 117.621L196.607 109.385L204.838 79.7737L234.45 88.0097Z" fill="#2553A7"/>
<path d="M221.893 100.841L213.158 91.9397L209.817 103.955L221.893 100.841Z" fill="white"/>
<path d="M226.524 101.755L226.095 101.636C224.746 106.489 220.335 109.668 215.534 109.668C214.561 109.668 213.572 109.538 212.589 109.265C207.736 107.916 204.556 103.505 204.556 98.7033C204.556 97.7307 204.687 96.742 204.96 95.7587C206.309 90.9052 210.719 87.726 215.521 87.726C216.493 87.726 217.482 87.8564 218.466 88.1296C223.319 89.4786 226.499 93.889 226.499 98.6904C226.499 99.6631 226.368 100.652 226.095 101.636L226.524 101.755L226.952 101.874C227.247 100.812 227.389 99.7427 227.389 98.6904C227.389 93.497 223.951 88.7325 218.704 87.2726C217.642 86.9771 216.573 86.8361 215.521 86.8361C210.327 86.8357 205.563 90.2733 204.103 95.5202C203.808 96.5818 203.667 97.6515 203.667 98.7033C203.666 103.897 207.104 108.662 212.351 110.122C213.412 110.417 214.481 110.558 215.534 110.558C220.727 110.559 225.492 107.121 226.952 101.874L226.524 101.755Z" fill="white"/>
<path d="M239.09 98.3374L239.21 92.6643C244.296 89.9902 249.391 86.7598 251.335 85.5006L250.721 84.6508L260.208 76.4904C260.208 76.4904 263.718 84.0812 255.22 90.8756L254.775 90.266C250.365 93.2739 243.847 96.304 239.09 98.3374Z" fill="#23232A"/>
<path d="M233.062 99.7038C233.062 99.7038 231.981 101.11 230.149 101.586C230.149 101.586 229.129 103.178 228.513 102.555C227.898 101.931 228.789 101.205 228.789 101.205C228.789 101.205 228.249 101.908 227.52 101.328C226.791 100.747 228.155 100.06 228.155 100.06C228.155 100.06 227.24 100.746 226.629 99.9516C226.629 99.9516 226.124 99.1467 227.264 98.6844C227.264 98.6844 226.439 98.9776 226.131 98.2176C226.131 98.2176 226.137 97.2886 227.648 97.0145C227.648 97.0145 225.341 97.0025 225.617 96.1006C225.893 95.1991 227.537 95.0936 227.537 95.0936C227.537 95.0936 228.787 94.0017 231.419 95.2948L233.062 99.7038Z" fill="#F2AB8C"/>
<path d="M252.237 83.8478C252.237 83.8478 238.481 92.9751 231.051 95.1526L233.062 99.7031C233.062 99.7031 250.289 93.2264 257.038 87.5084L252.237 83.8478Z" fill="#F2AB8C"/>
<path d="M260.281 75.3787C260.281 75.3787 263.794 82.9696 255.292 89.7666L250.796 83.5413L260.281 75.3787Z" fill="#23232A"/>
<path d="M241.881 54.4697C241.533 53.9821 241.181 53.4868 240.973 52.9249C240.766 52.3633 240.715 51.7168 240.972 51.1753C241.228 50.6338 241.839 50.2414 242.426 50.3593C241.97 49.6754 242.051 48.6827 242.611 48.0812C243.171 47.4796 244.156 47.3283 244.87 47.7337C244.914 46.9127 245.545 46.1572 246.346 45.9681C247.146 45.7794 248.048 46.1728 248.455 46.8878C248.912 46.155 249.862 45.7688 250.701 45.9752C251.539 46.1812 252.202 46.9643 252.267 47.8253C253.102 47.0929 254.44 47.0142 255.356 47.6424C256.271 48.2712 256.678 49.5486 256.295 50.5907C257.576 50.1457 259.146 51.0147 259.449 52.3358C259.752 53.6568 258.717 55.1234 257.371 55.2809C257.982 55.5341 258.217 56.3247 258.055 56.9655C257.893 57.6062 257.437 58.1259 256.985 58.6082C256.38 59.2543 255.735 59.8959 254.929 60.2625C254.047 60.6639 253.046 60.7017 252.077 60.6683C249.907 60.594 247.748 60.1927 245.694 59.4874C244.353 59.0273 242.184 58.1953 241.481 56.8689C241.078 56.1098 241.133 55.0019 241.881 54.4697Z" fill="#28346F"/>
<path d="M250.118 73.3931C248.506 73.3931 247.199 72.0863 247.199 70.4738V64.9146H253.037V70.4738C253.037 72.0863 251.73 73.3931 250.118 73.3931Z" fill="#F2AB8C"/>
<path d="M253.037 67.8151V64.9149H247.199V69.4521C248.097 69.5735 251.495 69.808 253.037 67.8151Z" fill="#EF7865"/>
<path d="M253.999 51.4471C250.742 47.8266 244.716 49.5013 243.684 54.2601C243.221 56.3949 242.938 59.0504 243.415 61.7005C244.49 67.6735 248.338 70.11 252.527 68.0286C256.716 65.9471 256.905 57.4214 255.418 53.7275C255.078 52.8812 254.595 52.1096 253.999 51.4471Z" fill="#F2AB8C"/>
<path d="M254.181 58.1212C253.545 57.5792 253.117 56.8375 252.728 56.0989C252.407 55.4897 252.091 54.8557 251.571 54.4045C250.995 53.9044 250.233 53.6864 249.496 53.487C248.527 53.2254 247.497 52.9722 246.535 53.2565C245.784 53.4786 245.159 54.0058 244.426 54.279C243.693 54.5527 242.693 54.4557 242.358 53.7487C242.108 53.2223 242.336 52.5958 242.635 52.0948C244.058 49.7041 246.982 48.4978 249.764 48.533C251.16 48.5508 252.58 48.8516 253.761 49.5951C255.22 50.5126 256.225 52.0659 256.638 53.7393C256.965 55.063 256.939 56.4557 256.665 57.7866C256.548 58.3583 256.545 58.7819 255.906 58.8175C255.292 58.8513 254.634 58.5069 254.181 58.1212Z" fill="#28346F"/>
<path d="M257.047 59.3608C256.958 60.2124 256.195 60.83 255.344 60.741C254.492 60.6515 253.874 59.8885 253.964 59.0373C254.053 58.1856 254.816 57.5676 255.667 57.657C256.519 57.746 257.137 58.5091 257.047 59.3608Z" fill="#F2AB8C"/>
<path d="M255.601 59.9448C255.189 59.9448 254.855 59.6107 254.855 59.1986C254.855 58.7866 255.189 58.4529 255.601 58.4529C256.013 58.4529 256.346 58.7866 256.346 59.1986C256.346 59.6107 256.013 59.9448 255.601 59.9448Z" fill="#E98862"/>
<path d="M111.703 204.091L125.234 198.763L124.949 198.04L111.418 203.369L111.703 204.091Z" fill="#1E2A52"/>
<path d="M112.326 186.463L115.501 194.807C115.501 194.807 109.381 198.051 109.195 197.791C109.009 197.53 104.873 189.148 104.873 189.148L112.326 186.463Z" fill="#F2AB8C"/>
<path d="M115.905 194.611L117.073 197.247C117.073 197.247 123.67 194.649 124.949 198.039L111.418 203.367L108.708 197.519L115.905 194.611Z" fill="#274496"/>
<path d="M118.66 196.43C118.249 196.908 118.026 197.532 118.026 198.159C118.026 198.336 118.044 198.514 118.081 198.688C118.106 198.808 118.224 198.885 118.344 198.86C118.465 198.834 118.542 198.716 118.516 198.596C118.486 198.453 118.471 198.306 118.471 198.159C118.47 197.638 118.659 197.112 118.998 196.72C119.078 196.627 119.068 196.487 118.975 196.406C118.881 196.326 118.741 196.336 118.66 196.43Z" fill="white"/>
<path d="M119.947 196.071C119.535 196.55 119.313 197.174 119.312 197.8C119.312 197.977 119.331 198.155 119.368 198.329C119.393 198.45 119.511 198.526 119.632 198.501C119.752 198.476 119.828 198.357 119.803 198.237C119.773 198.094 119.757 197.947 119.757 197.8C119.757 197.279 119.946 196.754 120.284 196.362C120.364 196.268 120.354 196.128 120.261 196.048C120.168 195.967 120.028 195.978 119.947 196.071Z" fill="white"/>
<path d="M121.245 195.932C120.834 196.41 120.611 197.034 120.611 197.661C120.611 197.838 120.629 198.015 120.666 198.19C120.691 198.31 120.809 198.387 120.929 198.361C121.05 198.336 121.127 198.218 121.101 198.098C121.07 197.954 121.056 197.807 121.056 197.661C121.055 197.14 121.244 196.614 121.583 196.222C121.663 196.129 121.652 195.988 121.559 195.908C121.466 195.828 121.325 195.838 121.245 195.932Z" fill="white"/>
<path d="M87.5508 136.536C87.5508 136.536 93.7218 175.519 105.462 193.58L114.944 190.569C114.944 190.569 110.579 148.427 104.86 136.837L87.5508 136.536Z" fill="#274391"/>
<path d="M96.6888 174.111L96.4663 173.473C96.4676 173.468 96.4685 173.463 96.4699 173.457C96.542 173.674 96.6158 173.895 96.6888 174.111Z" fill="white"/>
<path d="M97.284 175.818L96.6891 174.112C96.6162 173.895 96.5423 173.675 96.4702 173.458C97.7846 167.88 99.0905 161.619 100.089 155.269L100.172 155.314C99.6009 160.844 98.1713 173.965 97.284 175.818Z" fill="#243068"/>
<path d="M79.9155 204.495L94.2478 206.957L94.3795 206.192L80.0468 203.73L79.9155 204.495Z" fill="#1E2A52"/>
<path d="M89.5905 189.747L87.9771 198.528C87.9771 198.528 81.0621 198.128 81.0381 197.808C81.0141 197.49 81.8261 188.177 81.8261 188.177L89.5905 189.747Z" fill="#F2AB8C"/>
<path d="M88.4248 198.57L88.056 201.43C88.056 201.43 95.0439 202.63 94.3796 206.191L80.0469 203.73L80.7624 197.324L88.4248 198.57Z" fill="#274496"/>
<path d="M89.8377 201.554C89.0684 201.805 88.4396 202.421 88.1709 203.184C88.13 203.3 88.1914 203.427 88.3071 203.468C88.4232 203.509 88.55 203.447 88.5905 203.332C88.809 202.704 89.3429 202.181 89.9752 201.977C90.0922 201.939 90.1563 201.813 90.118 201.696C90.0802 201.58 89.9547 201.516 89.8377 201.554Z" fill="white"/>
<path d="M91.1236 201.914C90.3538 202.166 89.7251 202.781 89.4564 203.545C89.4159 203.661 89.4768 203.788 89.593 203.828C89.7091 203.869 89.8359 203.808 89.8764 203.692C90.0949 203.064 90.6288 202.542 91.2611 202.338C91.3781 202.3 91.4417 202.174 91.4039 202.057C91.3656 201.94 91.2402 201.877 91.1236 201.914Z" fill="white"/>
<path d="M92.3062 202.468C91.5368 202.72 90.9077 203.335 90.6389 204.099C90.5984 204.215 90.6598 204.342 90.7755 204.382C90.8917 204.422 91.0185 204.362 91.059 204.245C91.2774 203.617 91.8114 203.096 92.4436 202.891C92.5607 202.853 92.6243 202.728 92.5865 202.611C92.5487 202.494 92.4227 202.43 92.3062 202.468Z" fill="white"/>
<path d="M83.0352 136.386C83.0352 136.386 77.3158 169.798 79.5734 192.525L90.8618 194.03C90.8618 194.03 101.397 161.37 101.849 136.987L83.0352 136.386Z" fill="#2553A7"/>
<path d="M109.117 114.618C109.117 114.618 117.813 128.46 123.285 133.827L118.045 137.729C118.045 137.729 106.446 123.715 103.219 115.576L109.117 114.618Z" fill="#F2AB8C"/>
<path d="M97.1621 107.815C97.1621 107.815 105.158 105.665 110.358 115.101L103.53 118.439L97.1621 107.815Z" fill="#23232A"/>
<path d="M93.5714 107.187C93.5714 107.187 81.4177 107.337 82.3209 120.206C83.2237 133.074 82.9981 136.574 82.9981 136.574L104.86 136.837L104.408 115.465C104.408 115.465 106.666 106.773 93.5714 107.187Z" fill="#23232A"/>
<path d="M136.6 140.671L122.412 167.206L89.2646 149.482L103.452 122.947C103.773 122.348 104.518 122.122 105.119 122.443L136.094 139.005C136.694 139.326 136.92 140.071 136.6 140.671Z" fill="#C3D2EF"/>
<path d="M136.599 140.671L135.826 142.117L102.679 124.394L103.452 122.947C103.772 122.349 104.518 122.122 105.118 122.443L136.094 139.005C136.694 139.326 136.92 140.071 136.599 140.671Z" fill="#9EB3E2"/>
<path d="M105.788 124.618C105.62 124.933 105.228 125.053 104.912 124.884C104.597 124.715 104.478 124.323 104.647 124.008C104.815 123.693 105.207 123.574 105.523 123.743C105.838 123.911 105.956 124.303 105.788 124.618Z" fill="white"/>
<path d="M107.466 125.515C107.297 125.831 106.905 125.949 106.59 125.781C106.275 125.613 106.156 125.22 106.325 124.905C106.493 124.59 106.885 124.471 107.2 124.64C107.515 124.808 107.634 125.2 107.466 125.515Z" fill="white"/>
<path d="M109.144 126.412C108.975 126.727 108.583 126.846 108.268 126.677C107.953 126.509 107.834 126.117 108.002 125.801C108.171 125.486 108.563 125.367 108.878 125.536C109.193 125.705 109.312 126.097 109.144 126.412Z" fill="white"/>
<path d="M118.846 137.298L102.537 128.579L103.226 127.289L119.536 136.009L118.846 137.298Z" fill="white"/>
<path d="M117.447 139.916L101.138 131.195L101.827 129.906L118.137 138.626L117.447 139.916Z" fill="white"/>
<path d="M115.824 142.95L99.5151 134.23L100.204 132.94L116.514 141.66L115.824 142.95Z" fill="white"/>
<path d="M129.447 150.25L117.006 143.598L120.738 136.619L133.178 143.271L129.447 150.25Z" fill="white"/>
<path d="M117.852 144.054L123.524 140.499L123.797 146.009L127.845 143.638L128.22 149.594L117.852 144.054Z" fill="#E3EDF9"/>
<path d="M131.519 144.611C131.239 145.134 130.587 145.331 130.064 145.051C129.54 144.772 129.342 144.12 129.622 143.596C129.902 143.073 130.554 142.875 131.077 143.155C131.601 143.435 131.799 144.086 131.519 144.611Z" fill="#E3EDF9"/>
<path d="M106.203 151.329L93.8926 144.747L94.3642 143.865L106.675 150.447L106.203 151.329Z" fill="white"/>
<path d="M100.668 150.562L92.98 146.452L93.4516 145.57L101.139 149.68L100.668 150.562Z" fill="white"/>
<path d="M99.7552 152.27L92.0674 148.159L92.539 147.277L100.227 151.387L99.7552 152.27Z" fill="white"/>
<path d="M107.376 149.569L94.9351 142.918L98.6669 135.939L111.108 142.591L107.376 149.569Z" fill="white"/>
<path d="M95.7993 143.384L101.472 139.829L101.745 145.34L105.792 142.968L106.168 148.924L95.7993 143.384Z" fill="#E3EDF9"/>
<path d="M109.467 143.94C109.187 144.464 108.535 144.661 108.012 144.381C107.488 144.101 107.291 143.45 107.57 142.926C107.851 142.402 108.502 142.205 109.026 142.484C109.549 142.764 109.747 143.416 109.467 143.94Z" fill="#EDF8FE"/>
<path d="M123.65 160.656L111.34 154.074L111.811 153.192L124.122 159.774L123.65 160.656Z" fill="white"/>
<path d="M118.115 159.891L110.427 155.781L110.899 154.899L118.587 159.009L118.115 159.891Z" fill="white"/>
<path d="M117.202 161.598L109.515 157.488L109.986 156.605L117.674 160.716L117.202 161.598Z" fill="white"/>
<path d="M124.823 158.897L112.382 152.246L116.114 145.267L128.554 151.919L124.823 158.897Z" fill="white"/>
<path d="M113.247 152.712L118.92 149.157L119.192 154.667L123.24 152.296L123.616 158.252L113.247 152.712Z" fill="#E3EDF9"/>
<path d="M126.914 153.269C126.634 153.792 125.982 153.99 125.459 153.71C124.935 153.43 124.737 152.778 125.017 152.255C125.297 151.731 125.949 151.533 126.473 151.813C126.996 152.093 127.194 152.745 126.914 153.269Z" fill="#E3EDF9"/>
<path d="M108.359 147.731L108.874 146.769C109.049 147.113 109.119 147.515 108.629 147.674C108.532 147.705 108.442 147.723 108.359 147.731ZM109.473 146.82C109.268 146.82 109.086 146.747 108.936 146.652L110.517 143.695C111.401 144.429 111.139 145.138 111.139 145.138C110.936 145.358 110.719 145.43 110.523 145.43C110.154 145.43 109.856 145.177 109.856 145.177C110.802 146.051 110.01 146.654 110.01 146.654C109.818 146.773 109.638 146.82 109.473 146.82Z" fill="#AABDE6"/>
<path d="M96.0449 136.802L95.1875 136.774C95.1675 136.756 95.1475 136.738 95.1274 136.72L96.0823 136.731L96.0449 136.802Z" fill="#243068"/>
<path d="M95.7762 137.304C95.5808 137.129 95.3846 136.952 95.1875 136.774L96.0449 136.801L95.7762 137.304Z" fill="#263D80"/>
<path d="M96.0819 136.731L95.1271 136.72C91.9964 133.883 88.6548 130.629 86.2846 127.719L85.7075 128.172C79.4733 119.384 84.8879 113.12 84.8879 113.12L91.684 123.476L90.8489 124.132C92.0774 125.622 95.0038 129.105 98.3071 132.569L96.0819 136.731Z" fill="#7ADEFF"/>
<path d="M111.677 143.732C111.322 143.732 110.907 143.642 110.591 143.555L111.107 142.59L98.6667 135.939L97.2415 138.603C96.7641 138.185 96.2733 137.75 95.7759 137.304L96.0446 136.801L96.082 136.731L98.3072 132.569C98.7517 133.035 99.2038 133.502 99.6585 133.962L99.5152 134.23L100.396 134.701C102.698 136.981 105.048 139.063 107.035 140.321C107.304 140.295 107.555 140.283 107.791 140.283C110.23 140.283 110.914 141.558 110.914 141.558C110.914 141.558 112.486 142.268 112.424 143.253C112.401 143.618 112.077 143.732 111.677 143.732Z" fill="#AABDE6"/>
<path d="M100.396 134.702L99.5151 134.231L99.6584 133.963C99.9036 134.211 100.149 134.457 100.396 134.702Z" fill="white"/>
<path d="M106.987 148.56C106.527 148.56 106.222 147.845 106.07 147.37L105.793 142.967L103.826 144.12C103.822 144.108 103.818 144.097 103.814 144.088L103.803 144.101C103.803 144.101 102.952 143.43 101.595 142.308L101.472 139.829L99.8473 140.847C99.05 140.173 98.1699 139.417 97.2417 138.604L98.6669 135.939L111.108 142.591L110.592 143.555C110.302 143.476 110.097 143.399 110.097 143.399C110.26 143.497 110.399 143.596 110.517 143.695L108.936 146.651C108.82 146.577 108.722 146.489 108.647 146.41C108.72 146.509 108.805 146.635 108.874 146.769L108.359 147.731C108.327 147.734 108.296 147.736 108.267 147.736C107.867 147.736 107.64 147.48 107.526 147.289C107.655 147.611 107.805 148.232 107.202 148.509C107.127 148.544 107.055 148.56 106.987 148.56ZM108.52 142.358C108.136 142.358 107.764 142.564 107.57 142.927C107.291 143.451 107.488 144.102 108.012 144.382C108.173 144.468 108.347 144.509 108.518 144.509C108.902 144.509 109.273 144.303 109.467 143.941C109.747 143.417 109.549 142.765 109.026 142.485C108.864 142.399 108.691 142.358 108.52 142.358Z" fill="white"/>
<path d="M106.07 147.37C105.995 147.133 105.957 146.956 105.957 146.956C104.541 145.957 103.952 144.478 103.825 144.121L105.793 142.968L106.07 147.37ZM101.595 142.308C101.079 141.883 100.49 141.391 99.8472 140.847L101.472 139.829L101.595 142.308Z" fill="#D5E2F5"/>
<path d="M108.518 144.508C108.347 144.508 108.173 144.467 108.012 144.381C107.488 144.101 107.291 143.45 107.57 142.926C107.764 142.564 108.136 142.358 108.52 142.358C108.691 142.358 108.864 142.399 109.026 142.485C109.549 142.765 109.747 143.416 109.467 143.94C109.273 144.302 108.902 144.508 108.518 144.508Z" fill="#E1F4FC"/>
<path d="M90.1337 121.513C90.1337 121.513 100.464 134.359 106.939 138.459L103.707 142.239C103.707 142.239 89.428 130.968 84.5674 123.685L90.1337 121.513Z" fill="#F2AB8C"/>
<path d="M84.7922 111.258C84.7922 111.258 79.3776 117.521 85.6118 126.309L91.5883 121.613L84.7922 111.258Z" fill="#23232A"/>
<path d="M103.702 142.173C103.702 142.173 104.241 143.951 105.861 145.094C105.861 145.094 106.273 147.031 107.106 146.647C107.939 146.263 107.335 145.223 107.335 145.223C107.335 145.223 107.605 146.112 108.533 145.811C109.462 145.511 108.379 144.335 108.379 144.335C108.379 144.335 109.022 145.345 109.914 144.791C109.914 144.791 110.706 144.189 109.759 143.315C109.759 143.315 110.46 143.907 111.043 143.276C111.043 143.276 111.38 142.363 110.001 141.537C110.001 141.537 112.266 142.377 112.328 141.392C112.391 140.406 110.819 139.695 110.819 139.695C110.819 139.695 109.997 138.164 106.939 138.459L103.702 142.173Z" fill="#F2AB8C"/>
<path d="M95.6481 110.103C97.3366 110.103 98.7057 108.734 98.7057 107.045V101.223H92.5908V107.045C92.5908 108.734 93.9599 110.103 95.6481 110.103Z" fill="#F2AB8C"/>
<path d="M92.5908 104.26V101.223H98.7057V105.974C97.7642 106.102 94.2064 106.348 92.5908 104.26Z" fill="#EF7865"/>
<path d="M91.5838 87.1181C94.9939 83.3267 101.306 85.0803 102.386 90.0641C102.871 92.2996 103.168 95.0809 102.668 97.8565C101.542 104.112 97.5123 106.664 93.1251 104.484C88.7375 102.304 88.5395 93.3754 90.0973 89.5066C90.4546 88.6203 90.9591 87.8122 91.5838 87.1181Z" fill="#F2AB8C"/>
<path d="M89.4346 98.251C89.4346 98.251 88.3797 93.1808 86.724 90.904C85.0684 88.6272 87.6824 87.3782 89.7292 87.4814C89.7292 87.4814 92.1057 82.7716 97.1768 83.2896C102.248 83.807 102.795 85.0364 102.898 87.0031C102.898 87.0031 106.313 87.8307 102.898 94.0404C102.898 94.0404 103.002 90.8323 101.45 89.7974C100.769 89.344 98.9717 89.732 97.001 90.1195C94.4715 90.617 91.6567 91.1149 90.5515 89.8352C90.5515 89.8352 91.9935 94.4142 89.4346 98.251Z" fill="#28346F"/>
<path d="M95.1701 92.442C94.0289 92.1723 92.8809 92.8816 92.6112 94.0229C92.3416 95.1637 93.0509 96.3122 94.1922 96.5818C95.3334 96.851 96.4814 96.1422 96.7511 95.0009C97.0202 93.8596 96.3114 92.7116 95.1701 92.442ZM94.1085 96.9355C92.7719 96.6196 91.9416 95.2754 92.2575 93.9392C92.5734 92.6031 93.9172 91.7723 95.2538 92.0883C96.5904 92.4037 97.4203 93.7479 97.1048 95.0845C96.7889 96.4207 95.4447 97.251 94.1085 96.9355Z" fill="#23232A"/>
<path d="M92.3784 94.2589L92.3112 94.2514C90.8936 93.818 89.7025 94.4521 89.6905 94.4587C89.6024 94.5068 89.492 94.4743 89.444 94.3862C89.3959 94.2977 89.4289 94.1873 89.517 94.1393C89.5708 94.1099 90.8554 93.426 92.4171 93.9039C92.5132 93.9332 92.5675 94.0347 92.5382 94.1308C92.5155 94.2042 92.451 94.2532 92.3784 94.2589Z" fill="#23232A"/>
<path d="M100.714 92.3287C99.5723 92.059 98.4243 92.7683 98.1547 93.9096C97.8851 95.0509 98.5943 96.1988 99.7356 96.4685C100.877 96.7381 102.025 96.0289 102.294 94.8876C102.564 93.7463 101.855 92.5988 100.714 92.3287ZM99.6519 96.8222C98.3158 96.5067 97.485 95.1626 97.8009 93.8259C98.1169 92.4897 99.4611 91.659 100.797 91.9749C102.134 92.2909 102.964 93.635 102.648 94.9712C102.332 96.3079 100.989 97.1377 99.6519 96.8222Z" fill="#23232A"/>
<path d="M96.8483 94.0536L96.7714 93.9993C96.7073 93.9219 96.718 93.8076 96.795 93.7435C96.8181 93.7243 97.3698 93.2776 98.0577 93.6727C98.1445 93.723 98.1747 93.8342 98.1245 93.921C98.0746 94.0082 97.9638 94.0385 97.8766 93.9882C97.405 93.7168 97.0312 94.0198 97.0277 94.0229C96.9756 94.0661 96.9075 94.0754 96.8483 94.0536Z" fill="#23232A"/>
<path d="M88.3908 95.4061C88.4847 96.2978 89.2834 96.9452 90.1755 96.8513C91.0672 96.7579 91.7146 95.9592 91.6207 95.0671C91.5273 94.1754 90.7281 93.5284 89.8364 93.6219C88.9448 93.7153 88.2974 94.514 88.3908 95.4061Z" fill="#F2AB8C"/>
<path d="M89.9059 96.0186C89.4747 96.0186 89.125 95.6688 89.125 95.2372C89.125 94.8056 89.4747 94.4563 89.9059 94.4563C90.3375 94.4563 90.6872 94.8056 90.6872 95.2372C90.6872 95.6688 90.3375 96.0186 89.9059 96.0186Z" fill="#E98862"/>
<path d="M165.451 163.872V128.451C165.451 127.316 166.37 126.395 167.505 126.395H183.721C184.191 126.395 184.646 126.558 185.008 126.857L190.168 131.099C190.474 131.351 190.859 131.489 191.255 131.489H210.887C212.022 131.489 212.942 132.409 212.942 133.544V163.976L165.451 163.872Z" fill="#656565"/>
<path d="M210.126 145.668H168.266V135.997C168.266 134.566 169.425 133.407 170.856 133.407H207.536C208.967 133.407 210.126 134.566 210.126 135.997V145.668Z" fill="#1E2A52"/>
<path d="M209.377 145.668H169.017V136.82C169.017 135.472 170.109 134.38 171.457 134.38H206.936C208.284 134.38 209.377 135.472 209.377 136.82V145.668Z" fill="white"/>
<path d="M210.505 166.248H167.887C166.508 166.248 165.39 165.129 165.39 163.75V141.531C165.39 140.151 166.508 139.033 167.887 139.033H210.505C211.885 139.033 213.003 140.151 213.003 141.531V163.75C213.003 165.129 211.885 166.248 210.505 166.248Z" fill="#274391"/>
<path d="M52.6797 176.5L64.7663 173.589L64.611 172.944L52.5244 175.854L52.6797 176.5Z" fill="#1E2A52"/>
<path d="M55.2926 161.649L56.9931 169.09C56.9931 169.09 51.4277 171.113 51.3014 170.87C51.1746 170.627 48.665 163.041 48.665 163.041L55.2926 161.649Z" fill="#F2AB8C"/>
<path d="M57.3589 168.971L58.0361 171.341C58.0361 171.341 63.9285 169.922 64.6106 172.944L52.524 175.854L50.9209 170.582L57.3589 168.971Z" fill="#274496"/>
<path d="M59.4559 170.812C58.9664 171.244 58.6825 171.881 58.6816 172.531C58.6816 172.582 58.6834 172.632 58.687 172.683C58.6954 172.805 58.8018 172.898 58.9246 172.889C59.0469 172.881 59.1395 172.774 59.1306 172.652C59.1279 172.612 59.1266 172.571 59.1266 172.531C59.1257 172.013 59.3602 171.487 59.7495 171.147C59.8421 171.066 59.851 170.925 59.77 170.833C59.689 170.74 59.5484 170.731 59.4559 170.812Z" fill="white"/>
<path d="M60.5872 170.661C60.0982 171.092 59.8143 171.73 59.813 172.38C59.813 172.43 59.8148 172.481 59.8183 172.532C59.8272 172.654 59.9336 172.747 60.0559 172.738C60.1787 172.729 60.2708 172.623 60.2624 172.501C60.2597 172.46 60.2579 172.42 60.2579 172.38C60.257 171.861 60.492 171.336 60.8809 170.995C60.9734 170.914 60.9823 170.774 60.9013 170.682C60.8204 170.589 60.6797 170.58 60.5872 170.661Z" fill="white"/>
<path d="M61.7029 170.695C61.2135 171.126 60.9296 171.764 60.9287 172.414C60.9287 172.464 60.9305 172.515 60.9341 172.565C60.9425 172.688 61.0489 172.78 61.1712 172.772C61.294 172.763 61.3866 172.657 61.3777 172.534C61.375 172.494 61.3737 172.454 61.3737 172.414C61.3728 171.895 61.6073 171.37 61.9966 171.03C62.0887 170.948 62.098 170.808 62.0171 170.715C61.9361 170.623 61.7955 170.614 61.7029 170.695Z" fill="white"/>
<path d="M57.1812 165.497L48.5892 167.161C48.5892 167.161 40.9788 142.431 40.2622 139.994C40.2405 139.916 40.2014 139.812 40.1536 139.69C39.6628 138.504 37.9337 135.347 35.814 131.607C31.34 123.718 25.1284 113.241 25.1284 113.241L45.9266 113.597C45.9266 113.597 52.212 134.187 53.7884 139.208C55.3653 144.23 57.1812 165.497 57.1812 165.497Z" fill="#274391"/>
<path d="M40.1536 139.69C39.6628 138.504 37.9337 135.347 35.814 131.607L42.101 122.974C42.3844 123.468 42.832 123.831 43.3468 124.014C42.792 127.739 41.7352 133.957 40.1536 139.69Z" fill="#243068"/>
<path d="M16.0762 174.744L27.3066 180.077L27.5911 179.477L16.3607 174.145L16.0762 174.744Z" fill="#1E2A52"/>
<path d="M27.4417 164.836L24.0882 171.692C24.0882 171.692 18.4881 169.767 18.5424 169.499C18.5963 169.231 21.4124 161.753 21.4124 161.753L27.4417 164.836Z" fill="#F2AB8C"/>
<path d="M24.4476 171.83L23.4844 174.099C23.4844 174.099 28.9597 176.699 27.5913 179.477L16.3608 174.145L18.4273 169.036L24.4476 171.83Z" fill="#274496"/>
<path d="M24.9206 174.579C24.2186 174.61 23.5508 174.976 23.1471 175.551C23.0767 175.652 23.1013 175.79 23.202 175.861C23.3028 175.931 23.4415 175.907 23.5119 175.806C23.8303 175.348 24.3818 175.046 24.939 175.024C25.0617 175.019 25.1572 174.915 25.1521 174.792C25.1471 174.67 25.0433 174.574 24.9206 174.579Z" fill="white"/>
<path d="M25.8958 175.174C25.1935 175.203 24.5255 175.57 24.1221 176.145C24.0518 176.245 24.0764 176.384 24.1772 176.455C24.2779 176.525 24.4166 176.5 24.487 176.399C24.8052 175.941 25.3567 175.639 25.9139 175.618C26.0368 175.613 26.1322 175.51 26.1272 175.387C26.1221 175.264 26.0186 175.169 25.8958 175.174Z" fill="white"/>
<path d="M26.742 175.901C26.0396 175.931 25.3718 176.297 24.9684 176.873C24.898 176.974 24.9225 177.112 25.0233 177.183C25.1241 177.253 25.2628 177.228 25.3332 177.127C25.6515 176.67 26.2028 176.367 26.7604 176.346C26.8831 176.34 26.9785 176.237 26.9735 176.114C26.9683 175.992 26.8647 175.896 26.742 175.901Z" fill="white"/>
<path d="M25.1289 113.24L18.832 165.209L26.7766 168.748C26.7766 168.748 44.1348 130.166 45.2107 113.455C45.2752 112.457 25.1289 113.24 25.1289 113.24Z" fill="#2553A7"/>
<path d="M25.0939 113.349C25.0939 113.349 25.2154 111.433 24.9027 105.165C24.7982 103.163 24.6549 100.717 24.4466 97.7458C24.2553 95.0049 24.6853 92.8723 25.4629 91.2086C28.1821 85.4269 35.1711 85.3402 35.1711 85.3402C47.6508 84.9446 45.4964 93.2282 45.4964 93.2282L45.9267 113.596L25.0939 113.349Z" fill="#B0C3E9"/>
<path d="M48.9524 97.0075C48.9524 97.0075 49.0837 112.559 51.5225 119.444L47.9936 120.148C47.9936 120.148 42.8562 103.677 43.5014 95.3581L48.9524 97.0075Z" fill="#F2AB8C"/>
<path d="M41.5649 86.1772C41.5649 86.1772 49.3106 87.6834 49.813 97.9395H42.5692L41.5649 86.1772Z" fill="#B0C3E9"/>
<path d="M47.9933 120.149C47.9933 120.149 47.632 121.358 48.121 122.614C48.121 122.614 47.6271 123.866 48.2429 123.961C48.8591 124.056 48.9072 123.24 48.9072 123.24C48.9072 123.24 48.7265 123.845 49.365 124.023C50.0035 124.201 49.8318 123.129 49.8318 123.129C49.8318 123.129 49.8175 123.943 50.5304 123.964C50.5304 123.964 51.2049 123.919 50.9967 123.069C50.9967 123.069 51.1715 123.668 51.7384 123.529C51.7384 123.529 52.2719 123.138 51.8007 122.152C51.8007 122.152 52.7685 123.478 53.1738 122.944C53.5796 122.408 52.9553 121.416 52.9553 121.416C52.9553 121.416 53.0643 120.24 51.2214 119.259L47.9933 120.149Z" fill="#F2AB8C"/>
<path d="M55.5251 95.9697L62.5277 115.057C62.974 116.273 62.3511 117.621 61.135 118.068L44.9438 124.007C43.7277 124.454 42.3791 123.829 41.9328 122.612L33.8613 100.611C33.4151 99.3949 34.0405 98.048 35.2566 97.6017L48.6511 92.6882L48.6725 92.7104L55.5251 95.9697Z" fill="#23232A"/>
<path d="M48.6519 92.6871L50.4833 97.8174L55.525 95.9682L48.6519 92.6871Z" fill="#4169E1"/>
<path d="M55.7593 96.6094L55.5248 95.97L55.5239 95.9695L55.5248 95.9691L55.7598 96.6094H55.7593Z" fill="#E7F6FC"/>
<path d="M50.4834 97.8174L55.5242 95.9686L55.5251 95.9691L55.7596 96.6085L50.4834 97.8174Z" fill="black"/>
<path d="M61.2228 111.499L62.5278 115.057C62.9741 116.273 62.3512 117.621 61.1351 118.068L44.9439 124.007C43.7283 124.454 42.3792 123.829 41.9329 122.612L40.6279 119.055L61.2228 111.499Z" fill="#4169E1"/>
<path d="M50.8314 120.397C50.7215 120.51 50.434 120.705 50.0336 120.852C48.8812 121.275 48.0224 120.771 47.6745 119.821C47.2567 118.683 47.8373 117.757 48.8465 117.387C49.2371 117.244 49.5611 117.209 49.7221 117.235L49.7813 117.886C49.6096 117.876 49.3751 117.895 49.1032 117.995C48.5096 118.212 48.1773 118.744 48.4491 119.486C48.6943 120.154 49.2443 120.43 49.9121 120.184C50.1444 120.099 50.3753 119.963 50.5052 119.843L50.8314 120.397Z" fill="white"/>
<path d="M51.1054 119.516C51.3413 119.548 51.6963 119.536 52.0176 119.418C52.3642 119.291 52.4941 119.08 52.414 118.863C52.3379 118.655 52.1359 118.594 51.6848 118.603C51.0583 118.608 50.58 118.436 50.402 117.951C50.1933 117.382 50.515 116.775 51.2963 116.489C51.6772 116.349 51.9766 116.324 52.2089 116.346L52.2619 117.01C52.1097 116.993 51.8334 116.988 51.5117 117.106C51.1851 117.226 51.0836 117.438 51.145 117.606C51.2229 117.818 51.4405 117.845 51.9357 117.848C52.6045 117.85 52.9889 118.057 53.1611 118.527C53.3662 119.086 53.1148 119.717 52.2 120.052C51.8187 120.192 51.4049 120.226 51.1789 120.191L51.1054 119.516Z" fill="white"/>
<path d="M53.7778 118.535C54.0141 118.566 54.3687 118.554 54.6899 118.437C55.0366 118.31 55.1669 118.099 55.0868 117.881C55.0108 117.673 54.8087 117.613 54.3576 117.622C53.7311 117.627 53.2523 117.455 53.0743 116.97C52.8657 116.401 53.1874 115.794 53.9691 115.508C54.35 115.368 54.649 115.342 54.8817 115.364L54.9347 116.029C54.7825 116.012 54.5057 116.007 54.1845 116.125C53.8579 116.245 53.756 116.456 53.8174 116.624C53.8957 116.837 54.1128 116.864 54.6081 116.867C55.2768 116.869 55.6608 117.076 55.8335 117.546C56.0386 118.105 55.7876 118.736 54.8724 119.071C54.4915 119.211 54.0773 119.245 53.8512 119.21L53.7778 118.535Z" fill="white"/>
<path d="M41.8143 107.581C42.5129 107.289 42.4484 106.886 42.3438 106.569C42.2517 106.317 42.1169 106.048 41.9927 105.773C41.8575 105.502 41.7231 105.232 41.627 104.97C41.267 103.988 41.7262 103.334 42.6975 102.978L43.0633 102.844L43.3894 103.732L43.2012 103.801C42.7345 103.983 42.6673 104.316 42.8359 104.776C42.9049 104.964 42.9948 105.144 43.1065 105.352C43.2039 105.554 43.3236 105.782 43.4233 106.054C43.7214 106.834 43.5082 107.255 42.9694 107.596L42.977 107.616C43.6043 107.516 44.0395 107.701 44.3203 108.499C44.4199 108.77 44.4765 109.022 44.5361 109.249C44.5815 109.469 44.6335 109.676 44.6985 109.853C44.8671 110.313 45.1274 110.538 45.612 110.372L45.8002 110.302L46.1219 111.18L45.7459 111.318C44.8159 111.659 44.0302 111.521 43.6471 110.476C43.5514 110.215 43.4789 109.921 43.4068 109.628C43.3245 109.338 43.256 109.055 43.1603 108.794C43.0526 108.502 42.8381 108.142 42.1058 108.374L41.8143 107.581Z" fill="white"/>
<path d="M52.2582 104.651C51.5597 104.943 51.6282 105.357 51.7252 105.653C51.8208 105.914 51.9517 106.174 52.0869 106.445C52.2111 106.719 52.3459 106.989 52.4416 107.251C52.8247 108.295 52.3152 108.909 51.3852 109.25L51.0093 109.388L50.6871 108.51L50.8753 108.442C51.3519 108.255 51.4053 107.915 51.2366 107.455C51.1717 107.278 51.0778 107.087 50.9697 106.89C50.8687 106.678 50.749 106.449 50.6493 106.178C50.3476 105.388 50.5603 104.965 51.1036 104.636L51.0956 104.616C50.4646 104.704 50.0295 104.52 49.7527 103.733C49.6526 103.462 49.5961 103.21 49.54 102.993C49.4911 102.762 49.443 102.567 49.3741 102.378C49.2054 101.919 48.9385 101.708 48.4646 101.871L48.2764 101.94L47.9507 101.052L48.3169 100.918C49.2882 100.561 50.0615 100.763 50.4215 101.745C50.5176 102.006 50.5897 102.3 50.6724 102.59C50.7445 102.883 50.8166 103.177 50.9087 103.428C51.0235 103.741 51.2349 104.09 51.9672 103.857L52.2582 104.651Z" fill="white"/>
<path d="M31.0617 108.552C30.0818 108.552 29.0699 108.342 28.0474 107.846C26.5835 107.133 25.5801 106.195 24.9026 105.166C24.7982 103.163 24.6548 100.717 24.4466 97.7462C24.4158 97.3074 24.4012 96.8839 24.4014 96.4754C24.4019 94.3343 24.8098 92.6061 25.4628 91.209C27.7868 88.1985 30.8578 87.8118 30.8578 87.8118L30.1845 98.9974H29.7806C30.5825 101.493 31.9664 102.282 33.3961 102.282C33.7401 102.282 34.0868 102.237 34.4287 102.158L36.1392 106.82C34.658 107.8 32.9169 108.552 31.0617 108.552Z" fill="#94AADE"/>
<path d="M36.1391 106.821L34.4287 102.159C36.2525 101.739 37.94 100.383 38.3595 100.027C38.2596 97.9467 39.3238 97.4342 39.3238 97.4342C39.3238 97.4342 39.8182 96.4619 40.4544 96.4619C40.477 96.4619 40.4998 96.4633 40.5228 96.4655C41.1656 96.5354 40.6008 97.9294 40.553 98.0424C40.9383 97.4657 41.3236 97.3616 41.5519 97.3616C41.6818 97.3616 41.7605 97.395 41.7605 97.395C42.1387 97.7772 41.8126 98.1901 41.7561 98.2595C41.9732 98.0486 42.1614 97.9801 42.3141 97.9801C42.5948 97.9801 42.7554 98.2119 42.7554 98.2119C42.9944 98.6418 42.7336 98.9675 42.5468 99.1285C42.6887 99.0338 42.9072 98.9109 43.0914 98.9109C43.2298 98.9109 43.3486 98.9799 43.4028 99.1806C43.5243 99.6278 43.2636 99.8364 43.094 99.9232C43.1862 99.8907 43.3152 99.8556 43.4469 99.8556C43.6333 99.8556 43.8247 99.9259 43.9239 100.175C44.1584 100.753 42.8338 100.97 42.8338 100.97C42.0039 102.034 40.779 102.347 40.779 102.347C40.779 102.347 38.9147 104.985 36.1391 106.821Z" fill="#7ADEFF"/>
<path d="M23.9639 95.7594C23.9639 95.7594 21.2675 103.586 27.8541 106.785C34.4407 109.985 40.5882 101.286 40.5882 101.286L38.2715 98.8781C38.2715 98.8781 31.1629 105.285 29.3169 96.9452L23.9639 95.7594Z" fill="#F2AB8C"/>
<path d="M30.9977 86.1772C30.9977 86.1772 23.2519 87.6834 22.75 97.9395H29.9936L30.9977 86.1772Z" fill="#B0C3E9"/>
<path d="M40.5884 101.286C40.5884 101.286 41.8119 100.976 42.639 99.9126C42.639 99.9126 43.9672 99.6941 43.7327 99.1166C43.4987 98.5386 42.7734 98.9163 42.7734 98.9163C42.7734 98.9163 43.3852 98.761 43.2103 98.1212C43.0364 97.4818 42.2034 98.1795 42.2034 98.1795C42.2034 98.1795 42.9096 97.7746 42.562 97.1517C42.562 97.1517 42.1781 96.595 41.5547 97.21C41.5547 97.21 41.9787 96.753 41.5689 96.3379C41.5689 96.3379 40.9598 96.0802 40.3555 96.9901C40.3555 96.9901 40.9972 95.4791 40.3303 95.4052C39.6631 95.3318 39.1312 96.3766 39.1312 96.3766C39.1312 96.3766 38.0656 96.886 38.1692 98.9711L40.5884 101.286Z" fill="#F2AB8C"/>
<path d="M32.3051 63.2586C32.2596 63.5581 32.1925 63.8597 32.1026 64.1556C31.6964 65.5902 30.8289 66.9423 29.6594 67.8425C29.0163 68.335 28.0612 68.5384 27.0964 68.5588C26.8037 68.5651 26.5091 68.554 26.2213 68.529C25.6506 68.4823 25.1124 68.3791 24.67 68.238C23.4444 67.8581 22.3344 66.7937 22.3301 65.5069C22.3271 64.1939 23.4252 63.1452 24.5374 62.4493C26.0098 61.5202 27.6639 60.8875 29.378 60.5929C30.2227 60.4519 31.2002 60.4252 31.8141 61.0263C32.3788 61.5816 32.4257 62.4777 32.3051 63.2586Z" fill="#28346F"/>
<path d="M32.1025 64.1556C31.6963 65.5902 30.8288 66.9423 29.6593 67.8425C29.0162 68.335 28.0611 68.5384 27.0963 68.5588C26.8036 68.5651 26.509 68.554 26.2212 68.529C26.4456 67.4936 27.128 66.4097 27.7526 65.7708C28.7226 64.7817 30.0832 64.1819 31.4695 64.1343C31.6784 64.1258 31.8939 64.1334 32.1025 64.1556Z" fill="#23232A"/>
<path d="M30.5853 76.3252C28.4348 76.1521 26.705 74.1174 26.543 71.9665C26.3807 69.8151 27.5808 67.7043 29.3135 66.4193C31.0462 65.1338 33.2402 64.5932 35.3959 64.5114C37.7613 64.4219 40.4244 65.0337 41.6773 67.0418C43.2938 69.6345 41.5799 73.2573 38.9209 74.7616C36.2617 76.266 33.0365 76.2362 29.9823 76.1659L30.5853 76.3252Z" fill="#28346F"/>
<path d="M35.2652 88.4575C36.7131 88.4575 37.8866 87.2837 37.8866 85.8363V80.8449H32.644V85.8363C32.644 87.2837 33.8176 88.4575 35.2652 88.4575Z" fill="#F2AB8C"/>
<path d="M32.644 83.4488V80.845H37.8866V84.9185C37.0797 85.0275 34.0289 85.238 32.644 83.4488Z" fill="#EF7865"/>
<path d="M31.7807 68.7528C34.7047 65.5024 40.1157 67.0059 41.0419 71.2787C41.4579 73.1956 41.712 75.5801 41.2835 77.9597C40.3183 83.3226 36.8637 85.5104 33.1023 83.6412C29.3406 81.7724 29.171 74.1175 30.5065 70.8009C30.8126 70.0409 31.2454 69.3481 31.7807 68.7528Z" fill="#F2AB8C"/>
<path d="M37.8042 69.0809C36.5658 71.6296 34.3518 73.6893 31.7204 74.7402C30.9944 75.0304 30.1936 75.2475 29.4358 75.0548C28.4396 74.8008 27.7155 73.8401 27.5756 72.8216C27.4357 71.8031 27.8118 70.7611 28.4295 69.9393C29.047 69.1174 29.8893 68.4918 30.7665 67.9552C32.1356 67.1183 33.6449 66.4629 35.2393 66.2795C36.8336 66.0967 38.5229 66.4206 39.8089 67.3808C40.4142 67.8333 40.9117 68.4322 41.2476 69.109C41.4906 69.5993 41.9725 70.7112 41.6054 71.2296C40.8908 72.2383 38.3119 69.626 37.8042 69.0809Z" fill="#28346F"/>
<path d="M29.0433 75.8586C29.1238 76.6235 29.8086 77.1779 30.5734 77.0978C31.338 77.0172 31.8927 76.3325 31.8127 75.568C31.7322 74.8032 31.0473 74.2483 30.2828 74.3289C29.518 74.409 28.9632 75.0937 29.0433 75.8586Z" fill="#F2AB8C"/>
<path d="M30.3422 76.3823C29.9725 76.3823 29.6724 76.0829 29.6724 75.7127C29.6724 75.3429 29.9725 75.043 30.3422 75.043C30.7123 75.043 31.0121 75.3429 31.0121 75.7127C31.0121 76.0829 30.7123 76.3823 30.3422 76.3823Z" fill="#E98862"/>
<path d="M133.972 182.698V187.319C133.972 187.744 134.252 188.117 134.661 188.234C136.351 188.717 140.989 189.867 146.773 189.867C152.449 189.867 156.328 188.76 157.784 188.262C158.166 188.131 158.426 187.776 158.431 187.371L158.483 182.698H133.972Z" fill="#2553A7"/>
<path d="M158.483 182.697C158.483 183.687 152.996 184.49 146.227 184.49C139.459 184.49 133.972 183.687 133.972 182.697C133.972 181.708 139.459 180.905 146.227 180.905C152.996 180.905 158.483 181.708 158.483 182.697Z" fill="#295FB1"/>
<path d="M155.921 182.644C155.921 183.416 151.643 184.042 146.366 184.042C141.088 184.042 136.81 183.416 136.81 182.644C136.81 181.873 141.088 181.247 146.366 181.247C151.643 181.247 155.921 181.873 155.921 182.644Z" fill="#2553A7"/>
<path d="M155.868 183.843C149.512 184.837 143.034 184.811 136.467 183.813V179.329H155.851L155.868 183.843Z" fill="#274391"/>
<path d="M133.972 174.616V179.237C133.972 179.663 134.252 180.036 134.661 180.153C136.351 180.635 140.989 181.786 146.773 181.786C152.449 181.786 156.328 180.678 157.784 180.18C158.166 180.049 158.426 179.694 158.431 179.289L158.483 174.616H133.972Z" fill="#2553A7"/>
<path d="M158.483 174.616C158.483 175.606 152.996 176.408 146.227 176.408C139.459 176.408 133.972 175.606 133.972 174.616C133.972 173.626 139.459 172.823 146.227 172.823C152.996 172.823 158.483 173.626 158.483 174.616Z" fill="#295FB1"/>
<path d="M155.921 174.563C155.921 175.335 151.643 175.96 146.366 175.96C141.088 175.96 136.81 175.335 136.81 174.563C136.81 173.791 141.088 173.165 146.366 173.165C151.643 173.165 155.921 173.791 155.921 174.563Z" fill="#2553A7"/>
<path d="M155.868 175.745C149.512 176.74 143.034 176.713 136.467 175.716V171.231H155.851L155.868 175.745Z" fill="#274391"/>
<path d="M133.972 166.534V171.155C133.972 171.581 134.252 171.954 134.661 172.07C136.351 172.553 140.989 173.704 146.773 173.704C152.449 173.704 156.328 172.596 157.784 172.098C158.166 171.967 158.426 171.612 158.431 171.207L158.483 166.534H133.972Z" fill="#2553A7"/>
<path d="M158.483 166.534C158.483 167.524 152.996 168.327 146.227 168.327C139.459 168.327 133.972 167.524 133.972 166.534C133.972 165.544 139.459 164.742 146.227 164.742C152.996 164.742 158.483 165.544 158.483 166.534Z" fill="#295FB1"/>
<path d="M155.921 166.481C155.921 167.253 151.643 167.879 146.366 167.879C141.088 167.879 136.81 167.253 136.81 166.481C136.81 165.709 141.088 165.084 146.366 165.084C151.643 165.084 155.921 165.709 155.921 166.481Z" fill="#2553A7"/>
<path d="M155.868 167.646C149.512 168.641 143.034 168.614 136.467 167.617V163.132H155.851L155.868 167.646Z" fill="#274391"/>
<path d="M133.972 159.098V163.719C133.972 164.144 134.252 164.518 134.661 164.634C136.351 165.117 140.989 166.268 146.773 166.268C152.449 166.268 156.328 165.16 157.784 164.662C158.166 164.531 158.426 164.176 158.431 163.771L158.483 159.098H133.972Z" fill="#2553A7"/>
<path d="M158.483 159.098C158.483 160.088 152.996 160.891 146.227 160.891C139.459 160.891 133.972 160.088 133.972 159.098C133.972 158.109 139.459 157.306 146.227 157.306C152.996 157.306 158.483 158.109 158.483 159.098Z" fill="#295FB1"/>
<path d="M155.921 159.045C155.921 159.817 151.643 160.442 146.366 160.442C141.088 160.442 136.81 159.817 136.81 159.045C136.81 158.273 141.088 157.648 146.366 157.648C151.643 157.648 155.921 158.273 155.921 159.045Z" fill="#2553A7"/>
<path d="M312.594 190.679L303.591 201.749L303 201.268L312.003 190.199L312.594 190.679Z" fill="#1E2A52"/>
<path d="M295.926 186.027L302.786 191.474C302.786 191.474 307.638 186.715 307.449 186.464C307.261 186.213 300.651 179.855 300.651 179.855L295.926 186.027Z" fill="#F2AB8C"/>
<path d="M302.482 191.793L304.6 193.668C304.6 193.668 300.211 199.065 303.001 201.268L312.003 190.199L307.34 185.927L302.482 191.793Z" fill="#274496"/>
<path d="M303.537 195.316C303.798 195.204 304.084 195.148 304.371 195.148C304.741 195.148 305.112 195.242 305.43 195.423C305.537 195.483 305.673 195.446 305.734 195.339C305.794 195.232 305.757 195.096 305.65 195.036C305.26 194.814 304.815 194.704 304.371 194.703C304.026 194.703 303.682 194.77 303.362 194.907C303.249 194.955 303.197 195.085 303.245 195.199C303.293 195.311 303.424 195.364 303.537 195.316Z" fill="white"/>
<path d="M302.819 196.412C303.08 196.3 303.366 196.245 303.653 196.245C304.023 196.244 304.394 196.338 304.713 196.519C304.82 196.58 304.956 196.542 305.016 196.435C305.077 196.328 305.039 196.193 304.932 196.132C304.542 195.91 304.098 195.8 303.653 195.8C303.309 195.8 302.964 195.866 302.645 196.003C302.532 196.051 302.479 196.181 302.527 196.294C302.576 196.408 302.706 196.46 302.819 196.412Z" fill="white"/>
<path d="M302.303 197.584C302.564 197.473 302.85 197.417 303.136 197.417C303.506 197.417 303.877 197.51 304.196 197.691C304.303 197.751 304.439 197.714 304.499 197.607C304.56 197.5 304.522 197.365 304.415 197.304C304.025 197.082 303.581 196.972 303.136 196.972C302.792 196.972 302.447 197.039 302.128 197.175C302.015 197.223 301.963 197.354 302.011 197.467C302.059 197.58 302.19 197.632 302.303 197.584Z" fill="white"/>
<path d="M297.504 135.057C297.504 135.057 291.525 149.32 290.574 165.457C290.268 170.645 301.343 176.847 305.995 183.492L298.39 189.989C298.39 189.989 274.272 173.614 275.649 160.308C276.701 150.147 278.163 140.133 280.522 135.353L297.504 135.057Z" fill="#274391"/>
<path d="M299.449 202.224L285.183 202.426L285.172 201.665L299.438 201.463L299.449 202.224Z" fill="#1E2A52"/>
<path d="M292.32 186.456L292.546 195.212C292.546 195.212 299.309 195.878 299.381 195.572C299.452 195.267 300.085 186.118 300.085 186.118L292.32 186.456Z" fill="#F2AB8C"/>
<path d="M292.105 195.186L292.027 198.013C292.027 198.013 285.071 198.112 285.172 201.665L299.438 201.463L299.722 195.145L292.105 195.186Z" fill="#274496"/>
<path d="M290.081 198.254C290.662 198.548 291.099 199.135 291.215 199.774C291.237 199.895 291.353 199.976 291.473 199.953C291.594 199.931 291.674 199.815 291.652 199.695C291.508 198.912 290.992 198.219 290.283 197.857C290.174 197.802 290.04 197.845 289.984 197.955C289.928 198.065 289.972 198.198 290.081 198.254Z" fill="white"/>
<path d="M288.78 198.408C289.361 198.702 289.798 199.288 289.914 199.929C289.936 200.05 290.052 200.13 290.173 200.108C290.293 200.085 290.373 199.97 290.352 199.849C290.207 199.066 289.69 198.374 288.982 198.011C288.872 197.956 288.738 197.999 288.683 198.109C288.627 198.218 288.67 198.352 288.78 198.408Z" fill="white"/>
<path d="M287.549 198.764C288.13 199.058 288.567 199.644 288.683 200.285C288.705 200.405 288.821 200.486 288.942 200.464C289.063 200.441 289.143 200.326 289.12 200.205C288.976 199.422 288.46 198.729 287.751 198.368C287.641 198.312 287.508 198.356 287.452 198.465C287.396 198.574 287.44 198.708 287.549 198.764Z" fill="white"/>
<path d="M302.008 134.91C302.008 134.91 298.243 149.222 299.165 165.44C299.653 174.028 301.491 182.827 301.934 190.801H291.191C291.191 190.801 286.654 180.391 283.66 166.88C281.459 156.943 283.738 145.638 283.549 135.5L302.008 134.91Z" fill="#2553A7"/>
<path d="M274.087 111.744C274.087 111.744 268.892 126.846 264.611 133.028L268.672 135.206C268.672 135.206 278.343 120.016 279.947 111.577L274.087 111.744Z" fill="#F2AB8C"/>
<path d="M284.349 102.979C284.349 102.979 276.248 102.384 272.98 112.438L280.177 114.393L284.349 102.979Z" fill="#B0C3E9"/>
<path d="M287.684 102.424C287.684 102.424 303.536 100.851 302.967 118.519C302.561 131.145 302.007 134.91 302.007 134.91L280.522 135.354L278.012 114.459C278.012 114.459 274.468 102.645 287.684 102.424Z" fill="#B0C3E9"/>
<path d="M277.494 121.095L288.072 141.893C288.745 143.219 288.219 144.84 286.894 145.513L269.252 154.485C267.926 155.159 266.304 154.631 265.631 153.306L253.439 129.332C252.765 128.007 253.295 126.387 254.62 125.713L269.215 118.29L269.243 118.313L277.494 121.095Z" fill="#23232A"/>
<path d="M269.216 118.291L272.001 123.888L277.495 121.094L269.216 118.291Z" fill="#4169E1"/>
<path d="M277.849 121.792L277.495 121.095H277.494L277.495 121.094L277.849 121.792Z" fill="#E7F6FC"/>
<path d="M286.1 138.017L288.072 141.893C288.745 143.219 288.219 144.84 286.894 145.513L269.252 154.485C267.926 155.159 266.304 154.631 265.631 153.306L263.659 149.429L286.1 138.017Z" fill="#4169E1"/>
<path d="M269.931 147.822L270.642 149.218L271.995 148.53L271.285 147.133L272.105 146.716L273.952 150.351L273.133 150.768L272.36 149.247L271.006 149.935L271.78 151.456L270.96 151.873L269.112 148.238L269.931 147.822Z" fill="white"/>
<path d="M273.879 146.681L272.898 147.18L272.547 146.49L275.34 145.07L275.691 145.76L274.699 146.265L276.196 149.209L275.377 149.625L273.879 146.681Z" fill="white"/>
<path d="M279.97 145.539C279.732 145.11 279.446 144.59 279.178 144.062L279.167 144.067C279.284 144.591 279.396 145.186 279.473 145.683L279.752 147.326L279.11 147.652L278.009 146.447C277.671 146.076 277.289 145.619 276.956 145.192L276.945 145.197C277.179 145.696 277.442 146.268 277.651 146.731L278.283 148.148L277.523 148.534L275.907 144.782L277.001 144.226L277.974 145.258C278.306 145.618 278.644 146.016 278.942 146.401L278.964 146.39C278.847 145.92 278.727 145.377 278.645 144.909L278.414 143.507L279.493 142.959L281.534 146.494L280.737 146.9L279.97 145.539Z" fill="white"/>
<path d="M280.323 142.537L281.143 142.12L282.64 145.063L284.085 144.329L284.436 145.019L282.171 146.171L280.323 142.537Z" fill="white"/>
<path d="M261.674 138.229L265.858 132.906L266.472 134.113L263.249 138.03L263.26 138.052L268.324 137.756L268.938 138.962L262.171 139.208L261.674 138.229Z" fill="white"/>
<path d="M269.993 138.983L268.231 129.492L269.381 128.907L271.143 138.399L269.993 138.983Z" fill="white"/>
<path d="M278.203 131.098L274.001 136.386L273.387 135.18L276.701 131.216L276.69 131.194L271.535 131.537L270.921 130.33L277.67 130.05L278.203 131.098Z" fill="white"/>
<path d="M284.597 135.06L282.333 130.607C286.881 126.134 291.809 119.868 293.465 117.718L292.63 117.142L298.655 106.589C298.655 106.589 304.338 112.393 298.768 121.377L298.164 120.961C294.566 125.881 288.294 131.759 284.597 135.06Z" fill="#94AADE"/>
<path d="M278.295 141.986C277.746 141.705 277.889 141.114 278.013 140.804C277.902 140.992 277.679 141.243 277.285 141.243C277.179 141.243 277.06 141.225 276.929 141.183C276.259 140.966 276.653 140.287 276.911 139.939C276.742 140.117 276.457 140.342 276.098 140.342C275.936 140.342 275.758 140.296 275.57 140.179C275.57 140.179 274.791 139.586 275.722 138.726C275.722 138.726 275.428 138.974 275.065 138.974C274.872 138.974 274.659 138.904 274.459 138.688C274.459 138.688 274.128 137.79 275.485 136.977C275.485 136.977 274.6 137.305 273.93 137.305C273.537 137.305 273.218 137.192 273.195 136.833C273.17 136.438 273.412 136.088 273.708 135.811L274.001 136.387L275.606 134.367C276.082 134.12 276.774 133.911 277.754 133.911C277.985 133.911 278.233 133.923 278.497 133.948C279.68 133.092 280.99 131.928 282.333 130.608L284.597 135.06C283.024 136.465 281.917 137.402 281.682 137.601L281.682 137.603C281.682 137.603 281.151 139.352 279.557 140.477C279.557 140.477 279.429 141.081 279.171 141.541L278.295 141.986Z" fill="#274391"/>
<path d="M278.544 142.054C278.477 142.054 278.406 142.039 278.332 142.004C278.319 141.999 278.307 141.992 278.295 141.986L279.171 141.541C279.011 141.825 278.803 142.054 278.544 142.054Z" fill="#F1521B"/>
<path d="M274.001 136.386L273.708 135.81C274.137 135.409 274.68 135.164 274.68 135.164C274.68 135.164 274.915 134.725 275.606 134.366L274.001 136.386Z" fill="white"/>
<path d="M293.848 116.025C293.848 116.025 284.389 128.609 278.297 133.018L281.432 136.713C281.432 136.713 295.115 125.24 299.432 117.813L293.848 116.025Z" fill="#F2AB8C"/>
<path d="M298.456 105.659C298.456 105.659 304.139 111.464 298.569 120.448L292.431 116.213L298.456 105.659Z" fill="#B0C3E9"/>
<path d="M281.483 136.673C281.483 136.673 280.952 138.421 279.358 139.546C279.358 139.546 278.953 141.452 278.133 141.075C277.313 140.696 277.908 139.673 277.908 139.673C277.908 139.673 277.642 140.547 276.729 140.252C275.816 139.956 276.881 138.799 276.881 138.799C276.881 138.799 276.248 139.793 275.37 139.249C275.37 139.249 274.591 138.655 275.522 137.795C275.522 137.795 274.833 138.378 274.26 137.757C274.26 137.757 273.928 136.859 275.285 136.046C275.285 136.046 273.057 136.872 272.995 135.903C272.933 134.933 274.48 134.234 274.48 134.234C274.48 134.234 275.289 132.727 278.297 133.017L281.483 136.673Z" fill="#F2AB8C"/>
<path d="M287.722 106.33C286.061 106.33 284.714 104.982 284.714 103.321V97.5926H290.73V103.321C290.73 104.982 289.384 106.33 287.722 106.33Z" fill="#F2AB8C"/>
<path d="M290.73 100.582V97.5933H284.714V102.268C285.64 102.394 289.141 102.635 290.73 100.582Z" fill="#EF7865"/>
<path d="M291.722 83.7148C288.366 79.9844 282.156 81.7099 281.093 86.6137C280.616 88.8135 280.324 91.5499 280.815 94.281C281.924 100.436 285.888 102.946 290.205 100.802C294.522 98.6571 294.716 89.8716 293.184 86.0651C292.833 85.193 292.336 84.3978 291.722 83.7148Z" fill="#F2AB8C"/>
<path d="M293.835 94.668C293.835 94.668 294.042 90.3213 295.671 88.0809C297.3 85.8406 295.426 84.1258 293.412 84.2277C293.412 84.2277 288.746 76.0562 283.757 76.5652C283.707 76.5701 283.657 76.5755 283.608 76.5812C279.14 77.0849 276.47 81.8205 278.289 85.9323C278.831 87.1595 279.574 88.6816 280.588 90.525C280.588 90.525 280.487 87.3681 282.014 86.3496C282.683 85.9038 284.451 86.2856 286.391 86.6669C288.879 87.1568 291.649 87.6462 292.736 86.387C292.736 86.387 291.318 90.8926 293.835 94.668Z" fill="#28346F"/>
<path d="M294.862 91.8688C294.771 92.7467 293.985 93.3834 293.107 93.2909C292.229 93.1988 291.593 92.413 291.685 91.5355C291.777 90.6581 292.563 90.0214 293.44 90.113C294.318 90.2051 294.955 90.9914 294.862 91.8688Z" fill="#F2AB8C"/>
<path d="M293.372 92.4712C292.947 92.4712 292.604 92.1272 292.604 91.7028C292.604 91.2783 292.947 90.9339 293.372 90.9339C293.796 90.9339 294.14 91.2783 294.14 91.7028C294.14 92.1272 293.796 92.4712 293.372 92.4712Z" fill="#E98862"/>
<path d="M242.831 169.406L253.755 189.27L228.942 202.916L218.018 183.053C217.772 182.604 217.935 182.04 218.384 181.793L241.571 169.041C242.02 168.794 242.584 168.958 242.831 169.406Z" fill="#D3E1F4"/>
<path d="M242.831 169.406L243.426 170.489L218.613 184.135L218.018 183.052C217.772 182.604 217.935 182.04 218.384 181.793L241.571 169.041C242.02 168.794 242.584 168.958 242.831 169.406Z" fill="#C8D5E5"/>
<path d="M220.033 182.264C220.163 182.499 220.077 182.796 219.841 182.926C219.605 183.056 219.309 182.97 219.179 182.734C219.049 182.498 219.135 182.201 219.371 182.071C219.607 181.942 219.903 182.028 220.033 182.264Z" fill="white"/>
<path d="M221.289 181.575C221.419 181.81 221.333 182.107 221.097 182.236C220.861 182.366 220.564 182.28 220.435 182.045C220.305 181.809 220.391 181.512 220.627 181.382C220.863 181.252 221.159 181.339 221.289 181.575Z" fill="white"/>
<path d="M222.545 180.883C222.675 181.12 222.589 181.416 222.353 181.546C222.117 181.675 221.82 181.589 221.691 181.353C221.561 181.117 221.647 180.821 221.883 180.691C222.119 180.562 222.415 180.647 222.545 180.883Z" fill="white"/>
<path d="M244 173.602L221.138 186.175L220.263 184.586L243.126 172.012L244 173.602Z" fill="white"/>
<path d="M245.163 175.751L222.291 188.33L221.771 187.384L244.643 174.805L245.163 175.751Z" fill="white"/>
<path d="M246.028 177.324L223.155 189.903L222.635 188.957L245.507 176.378L246.028 177.324Z" fill="white"/>
<path d="M246.892 178.896L224.021 191.475L223.5 190.529L246.372 177.95L246.892 178.896Z" fill="white"/>
<path d="M251.094 186.778L228.332 199.296L227.962 198.624L250.724 186.107L251.094 186.778Z" fill="white"/>
<path d="M251.707 187.895L228.945 200.414L228.576 199.742L251.338 187.224L251.707 187.895Z" fill="white"/>
<path d="M252.322 189.012L229.56 201.53L229.19 200.858L251.953 188.34L252.322 189.012Z" fill="white"/>
<path d="M233.382 194.762L227.604 197.939L224.427 192.162L230.204 188.984L233.382 194.762Z" fill="white"/>
<path d="M243.742 189.066L234.514 194.141L231.337 188.363L240.564 183.289L243.742 189.066Z" fill="white"/>
<path d="M250.41 185.398L244.632 188.575L241.455 182.798L247.233 179.621L250.41 185.398Z" fill="white"/>
<path d="M240.025 169.502L251.283 189.973L225.711 204.037L214.454 183.566C214.199 183.104 214.368 182.522 214.83 182.268L238.727 169.126C239.19 168.871 239.771 169.04 240.025 169.502Z" fill="#E2EEFA"/>
<path d="M240.025 169.502L240.638 170.618L215.067 184.682L214.454 183.566C214.199 183.103 214.368 182.522 214.83 182.268L238.727 169.126C239.19 168.871 239.771 169.04 240.025 169.502Z" fill="#D6E3F3"/>
<path d="M216.53 182.753C216.664 182.996 216.575 183.302 216.331 183.436C216.089 183.57 215.783 183.481 215.649 183.238C215.515 182.995 215.604 182.689 215.848 182.555C216.091 182.421 216.396 182.51 216.53 182.753Z" fill="white"/>
<path d="M217.824 182.042C217.958 182.285 217.869 182.59 217.626 182.724C217.383 182.858 217.077 182.769 216.943 182.526C216.81 182.283 216.899 181.977 217.142 181.844C217.385 181.71 217.691 181.799 217.824 182.042Z" fill="white"/>
<path d="M219.118 181.33C219.252 181.573 219.164 181.879 218.92 182.013C218.677 182.147 218.372 182.058 218.238 181.815C218.104 181.571 218.193 181.266 218.436 181.132C218.679 180.999 218.985 181.087 219.118 181.33Z" fill="white"/>
<path d="M241.23 173.825L217.668 186.783L216.768 185.145L240.33 172.187L241.23 173.825Z" fill="white"/>
<path d="M242.429 176.042L218.857 189.005L218.321 188.03L241.893 175.067L242.429 176.042Z" fill="white"/>
<path d="M243.32 177.662L219.748 190.625L219.212 189.651L242.784 176.688L243.32 177.662Z" fill="white"/>
<path d="M244.211 179.282L220.639 192.246L220.103 191.271L243.675 178.308L244.211 179.282Z" fill="white"/>
<path d="M248.541 187.406L225.082 200.307L224.702 199.615L248.16 186.714L248.541 187.406Z" fill="white"/>
<path d="M249.174 188.557L225.715 201.458L225.334 200.765L248.793 187.864L249.174 188.557Z" fill="white"/>
<path d="M249.807 189.708L226.348 202.609L225.968 201.917L249.426 189.016L249.807 189.708Z" fill="white"/>
<path d="M230.287 195.634L224.333 198.909L221.059 192.954L227.012 189.68L230.287 195.634Z" fill="white"/>
<path d="M240.963 189.762L231.454 194.992L228.179 189.038L237.689 183.808L240.963 189.762Z" fill="white"/>
<path d="M247.836 185.983L241.882 189.258L238.607 183.304L244.562 180.029L247.836 185.983Z" fill="white"/>
<path d="M253.044 207.311H221.899V184.816H253.044V207.311Z" fill="black"/>
<path d="M222.13 207.311H213.143V184.816H222.13V207.311Z" fill="#7ADEFF"/>
<path d="M222.146 184.816L224.186 192.232H255.887L253.045 184.816H222.146Z" fill="#7ADEFF"/>
<path d="M222.13 184.815L219.782 192.192L210.575 192.2L213.17 184.815H222.13Z" fill="#23232A"/>
</svg>
