<svg width="236" height="201" viewBox="0 0 236 201" fill="none" xmlns="http://www.w3.org/2000/svg">
<g clip-path="url(#clip0_1_4987)">
<path d="M247.751 178H-6.24951V178.127H247.751V178Z" fill="white"/>
<path d="M114.154 155.304H16.0593C14.4607 155.304 13.1597 154.001 13.1597 152.399V14.2659C13.1597 12.6644 14.4607 11.3611 16.0593 11.3611H114.154C115.752 11.3611 117.053 12.6644 117.053 14.2659V152.399C117.053 154.001 115.752 155.304 114.154 155.304ZM16.0593 11.4888C14.5303 11.4888 13.2867 12.7346 13.2867 14.2664V152.4C13.2867 153.932 14.5303 155.177 16.0593 155.177H114.154C115.682 155.177 116.926 153.932 116.926 152.4V14.2659C116.926 12.7346 115.682 11.4883 114.154 11.4883L16.0593 11.4888Z" fill="white"/>
<path d="M224.032 155.304H125.938C124.34 155.304 123.039 154.001 123.039 152.399V14.2659C123.039 12.6644 124.34 11.3611 125.938 11.3611H224.032C225.631 11.3611 226.932 12.6644 226.932 14.2659V152.399C226.932 154.001 225.631 155.304 224.032 155.304ZM125.938 11.4888C124.41 11.4888 123.166 12.7346 123.166 14.2664V152.4C123.166 153.932 124.41 155.177 125.938 155.177H224.032C225.561 155.177 226.805 153.932 226.805 152.4V14.2659C226.805 12.7346 225.561 11.4883 224.032 11.4883L125.938 11.4888Z" fill="white"/>
<path d="M95.5715 182.847H82.365V182.974H95.5715V182.847Z" fill="white"/>
<path d="M47.883 181.466H20.3997V181.593H47.883V181.466Z" fill="white"/>
<path d="M81.8559 187.573H68.4868V187.7H81.8559V187.573Z" fill="white"/>
<path d="M144.656 186.718H124.93V186.845H144.656V186.718Z" fill="white"/>
<path d="M154.612 186.718H149.179V186.845H154.612V186.718Z" fill="white"/>
<path d="M222.301 184.569H194.586V184.696H222.301V184.569Z" fill="white"/>
<path d="M111.405 29.8339H34.322V109.519H111.405V29.8339Z" fill="#7ADEFF"/>
<path d="M116.734 109.519H39.6506V112.496H116.734V109.519Z" fill="#7ADEFF"/>
<path d="M106.927 105.033L106.927 34.3197L38.7999 34.3197L38.7999 105.033L106.927 105.033Z" fill="#3D3D3D"/>
<path d="M54.2656 105.033L80.5475 34.3193H92.9539L66.672 105.033H54.2656Z" fill="black"/>
<path d="M69.3369 105.033L95.6188 34.3193H100.456L74.1741 105.033H69.3369Z" fill="black"/>
<g opacity="0.6">
<path d="M36.9507 97.8893H27.4851L32.587 25.9132H42.052L36.9507 97.8893Z" fill="#7ADEFF"/>
<path d="M46.4157 97.8893H36.9507L42.052 25.9132H51.5171L46.4157 97.8893Z" fill="#7ADEFF"/>
<path d="M55.8808 97.8893H46.4158L51.5171 25.9132H60.9827L55.8808 97.8893Z" fill="#7ADEFF"/>
</g>
<g opacity="0.6">
<path d="M109.845 97.8893H115.194L112.311 25.9137H106.961L109.845 97.8893Z" fill="#7ADEFF"/>
<path d="M104.495 97.8893H109.845L106.961 25.9137H101.613L104.495 97.8893Z" fill="#7ADEFF"/>
<path d="M99.1463 97.8893H104.496L101.613 25.9137H96.2634L99.1463 97.8893Z" fill="#7ADEFF"/>
</g>
<path d="M214.451 25.9132H159.994V95.3387H214.451V25.9132Z" fill="#656565"/>
<path d="M167.056 28.7658L162.206 88.8518L207.39 92.5122L212.24 32.4262L167.056 28.7658Z" fill="black"/>
<path d="M217.323 121.271H188.211V178H217.323V121.271Z" fill="#656565"/>
<path d="M217.323 121.271H214.922V178H217.323V121.271Z" fill="#7ADEFF"/>
<path d="M126.651 125.526L217.323 125.526V121.272L126.651 121.272V125.526Z" fill="#7ADEFF"/>
<path d="M126.651 121.271H97.5383V178H126.651V121.271Z" fill="#656565"/>
<path d="M126.651 121.271H124.25V178H126.651V121.271Z" fill="#7ADEFF"/>
<path d="M159.42 121.271H153.139L154.667 109.025H160.948L159.42 121.271Z" fill="#7ADEFF"/>
<path d="M160.809 121.271H154.528L156.056 109.025H162.337L160.809 121.271Z" fill="#B5B5B5"/>
<path d="M161.573 115.148H155.292L156.056 109.025H162.337L161.573 115.148Z" fill="#7ADEFF"/>
<path d="M138.493 113.682H182.923C183.293 113.682 183.58 113.357 183.534 112.989L180.11 85.5473C180.072 85.2384 179.809 85.0068 179.499 85.0068H135.069C134.699 85.0068 134.412 85.332 134.458 85.7005L137.882 113.142C137.921 113.451 138.183 113.682 138.493 113.682Z" fill="#7ADEFF"/>
<path d="M139.154 113.682H183.583C183.954 113.682 184.241 113.357 184.195 112.989L180.771 85.5473C180.732 85.2384 180.47 85.0068 180.159 85.0068H135.73C135.359 85.0068 135.072 85.332 135.119 85.7005L138.543 113.142C138.581 113.451 138.843 113.682 139.154 113.682Z" fill="#B5B5B5"/>
<path d="M178.209 112.36L166.932 86.3304H157.043L168.321 112.36H178.209Z" fill="#656565"/>
<path d="M166.417 112.36L155.14 86.3304H151.576L162.854 112.36H166.417Z" fill="#656565"/>
<path d="M157.313 120.124H165.506C166.069 120.124 166.525 120.581 166.525 121.145V121.272H156.295V121.145C156.295 120.581 156.751 120.124 157.313 120.124Z" fill="#B5B5B5"/>
<path d="M151.558 120.124H156.46C157.023 120.124 157.478 120.581 157.478 121.145V121.272H150.539V121.145C150.539 120.581 150.995 120.124 151.558 120.124Z" fill="#7ADEFF"/>
<path d="M177.831 121.272H146.201L145.346 118.729H173.715L177.831 121.272Z" fill="#B5B5B5"/>
<path d="M149.681 121.272H144.456L143.749 118.729H148.974L149.681 121.272Z" fill="#7ADEFF"/>
<path d="M132.736 119.144H137.491C138.664 119.144 139.615 120.096 139.615 121.272H130.612C130.612 120.096 131.563 119.144 132.736 119.144Z" fill="#7ADEFF"/>
<path d="M39.0782 178H47.9016L47.9016 136.915H39.0782L39.0782 178Z" fill="#3D3D3D"/>
<path d="M80.1014 178H44.4271L40.0161 129.452H75.6904L80.1014 178Z" fill="#7ADEFF"/>
<path d="M49.3032 172.626L45.8687 134.826H70.813L74.2476 172.626H49.3032Z" fill="#3D3D3D"/>
<path d="M120.75 200.984C175.148 200.984 219.246 198.404 219.246 195.222C219.246 192.039 175.148 189.459 120.75 189.459C66.3529 189.459 22.2549 192.039 22.2549 195.222C22.2549 198.404 66.3529 200.984 120.75 200.984Z" fill="#656565"/>
<path d="M44.0876 73.4694L43.5793 73.4861L43.8008 80.2674L44.3091 80.2508L44.0876 73.4694Z" fill="#4169E1"/>
<path d="M43.8959 67.6201L43.3877 67.6367L43.4929 70.859L44.0012 70.8424L43.8959 67.6201Z" fill="#4169E1"/>
<path d="M50.7475 116.662H147.705C149.898 116.662 151.634 114.865 151.563 112.668L149.404 46.3911C149.332 44.1942 147.48 42.3967 145.287 42.3967H48.3284C46.1353 42.3967 44.3995 44.1942 44.4711 46.3911L46.6296 112.668C46.7013 114.865 48.5544 116.662 50.7475 116.662Z" fill="#4169E1"/>
<path d="M51.0583 116.662H148.016C150.209 116.662 151.945 114.865 151.873 112.668L149.714 46.3911C149.643 44.1942 147.79 42.3967 145.597 42.3967H48.6392C46.4461 42.3967 44.7103 44.1942 44.7819 46.3911L46.9404 112.668C47.012 114.865 48.8652 116.662 51.0583 116.662Z" fill="#4169E1"/>
<path opacity="0.5" d="M51.0583 116.662H148.016C150.209 116.662 151.945 114.865 151.873 112.668L149.714 46.3911C149.643 44.1942 147.79 42.3967 145.597 42.3967H48.6392C46.4461 42.3967 44.7103 44.1942 44.7819 46.3911L46.9404 112.668C47.012 114.865 48.8652 116.662 51.0583 116.662Z" fill="black"/>
<path opacity="0.5" d="M145.351 44.3937H48.3932C48.2835 44.3937 48.1753 44.3983 48.0681 44.4069C45.5815 44.6115 45.9396 48.3881 48.441 48.3881H145.564C148.066 48.3881 148.178 44.6115 145.678 44.4069C145.57 44.3983 145.461 44.3937 145.351 44.3937Z" fill="#4169E1"/>
<path d="M50.8398 46.3906C50.856 46.8965 50.4603 47.3061 49.9553 47.3061C49.4504 47.3061 49.0277 46.896 49.0115 46.3906C48.9952 45.8848 49.3909 45.4751 49.8959 45.4751C50.4009 45.4751 50.8235 45.8853 50.8398 46.3906Z" fill="#3D3D3D"/>
<path d="M53.9494 46.3906C53.9661 46.8965 53.5699 47.3061 53.065 47.3061C52.56 47.3061 52.1373 46.896 52.1211 46.3906C52.1048 45.8853 52.5006 45.4751 53.0055 45.4751C53.5105 45.4751 53.9331 45.8853 53.9494 46.3906Z" fill="#3D3D3D"/>
<path d="M57.0588 46.3906C57.075 46.8965 56.6793 47.3061 56.1743 47.3061C55.6694 47.3061 55.2467 46.896 55.2305 46.3906C55.2142 45.8848 55.6099 45.4751 56.1149 45.4751C56.6193 45.4751 57.042 45.8853 57.0588 46.3906Z" fill="#3D3D3D"/>
<path d="M52.9379 110.047H145.706C146.504 110.047 147.13 109.399 147.104 108.599L145.329 54.0949C145.303 53.2949 144.634 52.6471 143.836 52.6471H51.068C50.2699 52.6471 49.6436 53.2954 49.6695 54.0949L51.4449 108.599C51.4714 109.399 52.1394 110.047 52.9379 110.047Z" fill="black"/>
<g opacity="0.3">
<path d="M121.017 103.302H119.324V102.82H120.521L120.482 101.622L120.963 101.606L121.017 103.302Z" fill="#4169E1"/>
<path d="M116.627 103.302H113.929V102.82H116.627V103.302ZM111.232 103.302H108.534V102.82H111.232V103.302ZM105.837 103.302H103.14V102.82H105.837V103.302ZM100.442 103.302H97.7449V102.82H100.442V103.302ZM95.0479 103.302H92.3499V102.82H95.0479V103.302ZM89.653 103.302H86.9555V102.82H89.653V103.302ZM84.2585 103.302H81.561V102.82H84.2585V103.302Z" fill="#4169E1"/>
<path d="M78.8641 103.302H77.1857L77.1313 101.622L77.6124 101.606L77.652 102.82H78.8641V103.302Z" fill="#4169E1"/>
<path d="M77.0434 98.9198L76.9555 96.2176L77.4366 96.2018L77.5245 98.9041L77.0434 98.9198ZM76.8672 93.5153L76.7793 90.813L77.2603 90.7972L77.3482 93.4995L76.8672 93.5153ZM76.6914 88.1107L76.6035 85.4084L77.0846 85.3926L77.1725 88.0949L76.6914 88.1107ZM76.5156 82.7061L76.4272 80.0038L76.9083 79.988L76.9967 82.6903L76.5156 82.7061ZM76.3393 77.3015L76.251 74.5992L76.732 74.5835L76.8204 77.2857L76.3393 77.3015ZM76.1631 71.8969L76.0752 69.1946L76.5563 69.1789L76.6441 71.8812L76.1631 71.8969ZM75.9873 66.4924L75.8994 63.7901L76.3805 63.7743L76.4684 66.4766L75.9873 66.4924Z" fill="#4169E1"/>
<path d="M75.811 61.0878L75.7556 59.3921H77.4493V59.8745H76.2535L76.2921 61.0725L75.811 61.0878Z" fill="#4169E1"/>
<path d="M115.212 59.8745H112.515V59.3921H115.212V59.8745ZM109.818 59.8745H107.121V59.3921H109.818V59.8745ZM104.423 59.8745H101.725V59.3921H104.423V59.8745ZM99.0281 59.8745H96.3306V59.3921H99.0281V59.8745ZM93.6336 59.8745H90.9361V59.3921H93.6336V59.8745ZM88.2392 59.8745H85.5412V59.3921H88.2392V59.8745ZM82.8442 59.8745H80.1467V59.3921H82.8442V59.8745Z" fill="#4169E1"/>
<path d="M119.161 61.0878L119.122 59.8745H117.909V59.3921H119.588L119.642 61.0725L119.161 61.0878Z" fill="#4169E1"/>
<path d="M120.394 98.9198L120.306 96.2176L120.787 96.2018L120.875 98.9041L120.394 98.9198ZM120.217 93.5153L120.129 90.813L120.61 90.7972L120.698 93.4995L120.217 93.5153ZM120.041 88.1107L119.953 85.4084L120.434 85.3926L120.523 88.0949L120.041 88.1107ZM119.866 82.7061L119.777 80.0038L120.258 79.988L120.347 82.6903L119.866 82.7061ZM119.689 77.3015L119.602 74.5992L120.083 74.5835L120.171 77.2857L119.689 77.3015ZM119.513 71.8969L119.425 69.1946L119.906 69.1789L119.994 71.8812L119.513 71.8969ZM119.337 66.4924L119.25 63.7901L119.731 63.7743L119.818 66.4766L119.337 66.4924Z" fill="#4169E1"/>
</g>
<path d="M107.96 88.238H90.225C86.8356 88.238 83.9888 85.4762 83.8775 82.0807C83.777 78.9749 86.0015 76.3617 89.0139 75.9444C89.7856 72.95 92.509 70.8202 95.6535 70.8202C98.1976 70.8202 100.532 72.1525 101.863 74.3296C102.418 74.1586 102.995 74.0726 103.586 74.0726C106.702 74.0726 109.359 76.5123 109.681 79.5846C111.251 80.3327 112.317 81.9281 112.374 83.6675C112.413 84.8874 111.976 86.0349 111.14 86.8991C110.306 87.7627 109.176 88.238 107.96 88.238ZM95.654 72.007C92.9271 72.007 90.5831 73.9393 90.0807 76.6019L89.9954 77.0538L89.5372 77.0833C86.9428 77.2507 84.9769 79.4288 85.0612 82.0426C85.1516 84.8049 87.4676 87.0522 90.225 87.0522H107.96C108.853 87.0522 109.68 86.7052 110.289 86.0746C110.899 85.4436 111.219 84.6024 111.19 83.7067C111.144 82.3128 110.227 81.0416 108.908 80.5439L108.541 80.4054L108.525 80.0131C108.418 77.3917 106.202 75.2594 103.585 75.2594C102.972 75.2594 102.376 75.3759 101.817 75.6054L101.318 75.8105L101.068 75.3311C100.001 73.2802 97.9263 72.007 95.654 72.007Z" fill="#4169E1"/>
<path d="M102.849 82.4695L97.9579 77.724L93.3757 82.4695H96.057L96.217 87.3759H100.328L100.168 82.4695H102.849Z" fill="#4169E1"/>
<path d="M180.159 63.1931C180.629 63.8674 181.003 64.4379 181.392 65.07C181.778 65.6868 182.142 66.3127 182.496 66.9458C183.208 68.2094 183.87 69.5025 184.476 70.8354C185.08 72.1677 185.651 73.527 186.122 74.9478C186.616 76.3524 187.018 77.8287 187.318 79.3509L187.514 80.5117L187.538 80.6567L187.566 80.8425C187.586 81.0201 187.608 81.1733 187.616 81.3717C187.623 81.5677 187.631 81.7458 187.617 81.9712L187.593 82.2929L187.539 82.6471C187.505 82.872 187.425 83.1463 187.347 83.389C187.246 83.6537 187.143 83.9076 186.989 84.1631C186.704 84.6725 186.288 85.1259 185.868 85.4476C184.997 86.1122 184.212 86.3025 183.577 86.4231C182.934 86.5315 182.411 86.529 181.92 86.5066C181.434 86.4796 180.991 86.4267 180.572 86.3468C179.736 86.1895 178.977 85.9814 178.249 85.7499C176.798 85.2735 175.46 84.7046 174.165 84.0715C172.865 83.4343 171.636 82.7621 170.399 81.9661L171.86 78.7183C174.427 79.3504 177.08 80.044 179.522 80.3784C180.128 80.4654 180.717 80.5188 181.244 80.5244C181.751 80.5346 182.253 80.4796 182.335 80.4028C182.366 80.3789 182.251 80.3427 181.913 80.5672C181.761 80.6756 181.576 80.8654 181.451 81.071C181.392 81.1819 181.338 81.2689 181.305 81.3763C181.266 81.4521 181.247 81.5641 181.228 81.617L181.198 81.7809C181.197 81.8343 181.186 81.8415 181.186 81.8659C181.188 81.8924 181.174 81.8766 181.175 81.8842C181.178 81.901 181.164 81.8506 181.155 81.8165L181.126 81.7097L180.897 80.8542C180.217 78.5611 179.215 76.2216 178.044 73.9376C177.471 72.7901 176.841 71.6562 176.2 70.53C175.881 69.9661 175.547 69.4094 175.217 68.8547C174.891 68.3142 174.534 67.7229 174.237 67.2572L180.159 63.1931Z" fill="#FFB573"/>
<path d="M172.457 78.9738L170.255 76.7738L168.063 81.6664C168.063 81.6664 170.136 82.8186 171.984 81.9784L172.457 78.9738Z" fill="#FFB573"/>
<path d="M166.997 75.0211L165.374 79.1504L168.063 81.6664L170.255 76.7733L166.997 75.0211Z" fill="#FFB573"/>
<path d="M174.429 64.8304L132.135 57.3658L124.683 99.7353L166.978 107.2L174.429 64.8304Z" fill="#4169E1"/>
<path opacity="0.6" d="M174.429 64.8304L132.135 57.3658L124.683 99.7353L166.978 107.2L174.429 64.8304Z" fill="black"/>
<path d="M172.009 66.5291L133.831 59.7909L127.104 98.0372L165.283 104.775L172.009 66.5291Z" fill="black"/>
<path opacity="0.3" d="M151.804 79.3313C155.042 77.0599 155.828 72.5895 153.56 69.3464C151.293 66.1033 146.831 65.3157 143.593 67.5871C140.356 69.8586 139.57 74.329 141.837 77.572C144.105 80.8151 148.567 81.6028 151.804 79.3313Z" fill="#4169E1"/>
<path opacity="0.2" d="M156.647 83.895L143.851 92.8696L137.966 84.4528L128.31 91.2284L127.113 98.0395L165.287 104.776L166.485 97.9652L156.647 83.895Z" fill="#4169E1"/>
<path d="M158.746 47.7794C158.753 48.1179 158.58 48.3962 158.359 48.4008C158.138 48.4054 157.953 48.1347 157.946 47.7962C157.939 47.4578 158.112 47.1794 158.333 47.1749C158.554 47.1703 158.739 47.441 158.746 47.7794Z" fill="#263238"/>
<path d="M158.611 48.3956C158.611 48.3956 157.883 50.3651 157.057 51.3249C157.666 51.8715 158.678 51.5946 158.678 51.5946L158.611 48.3956Z" fill="#FF5652"/>
<path d="M159.935 45.8751C159.885 45.8837 159.833 45.8741 159.788 45.843C159.067 45.3448 158.399 45.6013 158.371 45.6135C158.271 45.6542 158.154 45.6048 158.113 45.5036C158.072 45.4018 158.12 45.2868 158.221 45.2456C158.257 45.2308 159.109 44.8919 160.013 45.5158C160.103 45.5784 160.126 45.702 160.064 45.7926C160.033 45.8379 159.986 45.8664 159.935 45.8751Z" fill="#263238"/>
<path d="M168.538 49.071C168.323 52.1937 168.569 58.5021 170.952 60.2675C170.952 60.2675 170.368 62.814 164.715 63.5255C158.5 64.3077 161.357 60.8084 161.357 60.8084C164.648 59.5698 164.244 57.0593 163.356 54.7657L168.538 49.071Z" fill="#FFB573"/>
<path d="M183.943 184.196C183.929 184.191 183.916 184.185 183.903 184.179C183.802 184.131 183.684 184.019 183.691 183.758C183.695 183.621 183.753 183.503 183.863 183.409C184.342 183.002 185.734 183.181 185.793 183.189C185.832 183.195 185.864 183.221 185.875 183.259C185.886 183.296 185.874 183.337 185.845 183.363C185.52 183.642 184.443 184.369 183.943 184.196ZM185.528 183.361C185.057 183.323 184.276 183.318 183.992 183.561C183.925 183.617 183.892 183.684 183.889 183.764C183.884 183.95 183.962 183.988 183.988 184C184.257 184.129 185.019 183.741 185.528 183.361Z" fill="#4169E1"/>
<path d="M185.078 183.232C184.589 183.063 184.073 182.777 183.986 182.481C183.962 182.398 183.95 182.239 184.149 182.104C184.277 182.017 184.423 181.991 184.583 182.025C185.196 182.155 185.838 183.191 185.865 183.235C185.884 183.266 185.884 183.305 185.866 183.336C185.848 183.368 185.814 183.387 185.778 183.386C185.603 183.382 185.345 183.325 185.078 183.232ZM184.61 182.239C184.587 182.231 184.564 182.224 184.541 182.219C184.435 182.196 184.343 182.213 184.26 182.269C184.152 182.341 184.169 182.4 184.176 182.424C184.256 182.695 185.048 183.069 185.58 183.165C185.388 182.889 184.986 182.369 184.61 182.239Z" fill="#4169E1"/>
<path d="M153.093 191.15C152.556 191.15 152.036 191.076 151.862 190.834C151.801 190.749 151.753 190.605 151.871 190.399C151.936 190.284 152.042 190.206 152.186 190.167C152.884 189.976 154.348 190.812 154.41 190.849C154.446 190.869 154.464 190.91 154.458 190.951C154.451 190.992 154.42 191.024 154.379 191.032C154.112 191.086 153.595 191.15 153.093 191.15ZM152.429 190.336C152.359 190.336 152.295 190.343 152.237 190.359C152.145 190.383 152.081 190.429 152.042 190.498C151.972 190.621 151.998 190.682 152.023 190.718C152.218 190.989 153.278 190.995 154.057 190.885C153.668 190.685 152.919 190.336 152.429 190.336Z" fill="#4169E1"/>
<path d="M154.36 191.034C154.346 191.034 154.332 191.031 154.319 191.025C153.813 190.798 152.811 189.89 152.888 189.415C152.906 189.304 152.985 189.165 153.257 189.137C153.46 189.118 153.646 189.174 153.808 189.308C154.341 189.746 154.454 190.878 154.458 190.925C154.462 190.961 154.446 190.995 154.417 191.016C154.4 191.028 154.38 191.034 154.36 191.034ZM153.337 189.332C153.318 189.332 153.298 189.333 153.278 189.336C153.099 189.354 153.088 189.424 153.084 189.447C153.038 189.732 153.719 190.446 154.235 190.756C154.182 190.426 154.032 189.749 153.682 189.461C153.577 189.375 153.463 189.332 153.337 189.332Z" fill="#4169E1"/>
<path d="M158.968 190.935H154.777L154.36 181.211H158.551L158.968 190.935Z" fill="#FFB573"/>
<path d="M190.306 182.068L186.42 183.139L181.444 174.022L185.331 172.952L190.306 182.068Z" fill="#FFB573"/>
<path d="M185.838 182.712L190.03 180.564C190.182 180.485 190.368 180.524 190.478 180.656L192.911 183.601C193.164 183.906 193.06 184.371 192.705 184.545C191.228 185.27 190.474 185.548 188.63 186.493C187.496 187.075 184.123 189.588 182.421 190.032C180.756 190.466 180.058 188.848 180.715 188.513C183.662 187.012 184.853 184.552 185.35 183.252C185.439 183.018 185.615 182.826 185.838 182.712Z" fill="#263238"/>
<path d="M154.805 190.449H159.382C159.553 190.449 159.701 190.568 159.739 190.736L160.567 194.467C160.653 194.854 160.36 195.221 159.964 195.214C158.313 195.186 155.928 195.089 153.852 195.089C151.426 195.089 149.33 195.221 146.485 195.221C144.764 195.221 144.287 193.479 145.007 193.321C148.286 192.602 150.963 192.525 153.796 190.775C154.103 190.586 154.443 190.449 154.805 190.449Z" fill="#263238"/>
<path d="M172.813 68.0404C173.25 69.1687 173.731 70.2684 174.216 71.2995C175.052 73.0832 175.884 74.6414 176.489 75.7183C177.029 76.6878 177.381 77.2618 177.381 77.2618L186.536 72.7132C186.536 72.7132 182.847 62.0908 178.997 60.9091C175.051 59.7081 170.836 62.9763 172.813 68.0404Z" fill="#263238"/>
<path opacity="0.2" d="M176.87 69.0903C176.072 69.6776 175.503 71.2583 175.098 73.1148C175.621 74.1372 176.101 75.0242 176.488 75.7173C177.028 76.6873 177.38 77.2623 177.38 77.2623L178.43 76.7397C178.359 74.2837 177.967 71.5168 176.87 69.0903Z" fill="black"/>
<path d="M153.455 74.814C153.455 76.2425 153.489 77.8145 153.569 79.5463C153.775 84.2557 154.288 90.1249 155.27 97.4176H177.685C177.839 93.9713 175.677 77.1514 178.997 60.9092C178.997 60.9092 175.152 60.1377 171.489 59.9606C168.625 59.8232 164.478 59.7321 161.962 59.9606C158.641 60.269 155.515 61.1265 155.515 61.1265C155.515 61.1265 153.45 63.4639 153.455 74.814Z" fill="#263238"/>
<path d="M159.221 68.1478C158.823 68.9834 158.482 69.5753 158.107 70.1865C157.737 70.787 157.365 71.3636 156.975 71.9229C156.205 73.047 155.395 74.1229 154.548 75.1743C152.849 77.2725 151.016 79.2725 148.892 81.1183C147.834 82.046 146.684 82.9193 145.385 83.7168L144.885 84.0089L144.755 84.0832L144.571 84.1753L144.201 84.3534C143.705 84.5682 143.202 84.7366 142.707 84.8359C141.718 85.0404 140.787 85.0532 139.931 84.9773C138.217 84.7962 136.783 84.2699 135.468 83.6399C134.815 83.3132 134.192 82.9656 133.601 82.5727C132.996 82.1814 132.468 81.7799 131.871 81.2735L133.671 78.2012C135.867 78.7778 138.35 79.2969 140.054 79.0532C140.47 79.0023 140.82 78.8984 141.061 78.7717C141.181 78.7061 141.275 78.646 141.352 78.5834C141.368 78.5656 141.386 78.5493 141.403 78.5341L141.429 78.5127L141.502 78.4608L141.81 78.2435C142.637 77.6338 143.465 76.8878 144.28 76.0883C145.903 74.4745 147.445 72.6303 148.898 70.7244C149.625 69.7702 150.329 68.7926 151.002 67.8145C151.334 67.3234 151.663 66.8343 151.968 66.3529C152.264 65.8817 152.575 65.3753 152.736 65.0638L159.221 68.1478Z" fill="#FFB573"/>
<path d="M134.578 78.6522L130.713 76.816L130.364 82.0094C130.364 82.0094 133.368 82.5305 134.958 81.355L134.578 78.6522Z" fill="#FFB573"/>
<path d="M125.84 77.6995L127.329 81.6583L130.364 82.0099L130.713 76.8165L125.84 77.6995Z" fill="#FFB573"/>
<path d="M161.991 65.3972C161.859 69.4089 153.611 78.6532 153.611 78.6532L144.895 72.9509C144.895 72.9509 147.658 67.7723 151.246 64.0242C156.659 58.3707 162.149 60.5819 161.991 65.3972Z" fill="#263238"/>
<path opacity="0.2" d="M154.361 181.214L154.575 186.226H158.768L158.554 181.214H154.361Z" fill="black"/>
<path opacity="0.2" d="M185.333 172.954L181.445 174.025L184.012 178.723L187.899 177.653L185.333 172.954Z" fill="black"/>
<path d="M170.004 46.8262C169.835 50.9896 169.948 53.4348 167.896 55.613C164.81 58.8893 159.647 57.0923 158.57 52.9621C157.601 49.2445 158.039 43.0603 162.067 41.3208C166.036 39.6069 170.172 42.6623 170.004 46.8262Z" fill="#FFB573"/>
<path d="M161.729 48.8104C160.234 47.7443 158.766 45.5387 158.879 43.899C157.496 43.8425 156.565 41.5524 157.327 39.8842C157.806 40.9585 159.457 40.1672 160.099 39.3188C159.753 38.499 159.81 37.1417 162.181 36.1804C161.983 36.873 162.087 38.0359 164.467 37.1982C167.359 36.1804 172.442 36.8588 170.952 40.3082C172.99 40.6756 175.629 44.8853 173.384 47.102C171.141 49.3188 170.675 52.8898 168.756 53.2573C166.837 53.6247 161.842 53.7499 161.729 48.8104Z" fill="#263238"/>
<path d="M169.601 40.1708C170.935 39.5596 173.085 39.8217 174.243 41.4777C172.666 40.8314 171.763 40.411 169.601 40.1708Z" fill="#263238"/>
<path d="M162.825 48.6328C162.794 49.6089 162.367 50.5382 161.841 51.1529C161.048 52.0776 160.18 51.5397 160.005 50.445C159.848 49.4598 160.07 47.7916 161.055 47.2669C162.026 46.7494 162.861 47.5168 162.825 48.6328Z" fill="#FFB573"/>
<path d="M163.219 97.4181C163.219 97.4181 161.241 129.189 164.99 140.903C170.927 159.459 181.51 178.413 181.51 178.413L189.08 176.132C189.08 176.132 180.756 156.124 178.018 140.493C175.559 126.452 177.683 108.887 177.683 97.4176C172.462 97.4181 163.219 97.4181 163.219 97.4181Z" fill="#4169E1"/>
<path opacity="0.2" d="M162.898 104.497C165.014 103.878 166.663 104.111 167.091 105.997C168.208 110.919 164.856 123.901 163.185 129.839C162.508 121.331 162.665 111.153 162.898 104.497Z" fill="black"/>
<path d="M179.374 176.239C179.342 176.249 181.349 178.587 181.349 178.587L189.62 176.095L188.569 173.291L179.374 176.239Z" fill="#263238"/>
<path d="M155.267 97.4181C155.267 97.4181 148.954 124.223 148.509 137.027C148.011 151.386 153.013 185.256 153.013 185.256H160.113C160.113 185.256 160.987 151.122 161.303 138.043C161.647 123.784 170.002 97.4181 170.002 97.4181H155.267Z" fill="#4169E1"/>
<path d="M151.647 182.423C151.614 182.423 152.047 185.375 152.047 185.375H160.684L160.918 182.74L151.647 182.423Z" fill="#263238"/>
<path d="M158.405 58.9769C159.366 58.6436 166.689 57.7112 172.004 57.9952C175.038 58.1576 176.749 58.4889 177.988 59.0894C179.228 59.6904 177.006 62.7158 175.982 63.0853C176.397 64.2456 174.085 65.726 172.767 66.4283C172.239 67.5199 167.047 68.527 163.996 66.1835C161.653 64.385 155.664 59.9285 158.405 58.9769Z" fill="#4169E1"/>
</g>
<defs>
<clipPath id="clip0_1_4987">
<rect width="235" height="200" fill="white" transform="translate(0.583496 0.25)"/>
</clipPath>
</defs>
</svg>
