<svg width="519" height="411" viewBox="0 0 519 411" fill="none" xmlns="http://www.w3.org/2000/svg">
<path opacity="0.4" d="M500.416 290.755C510.317 280.853 510.317 264.8 500.416 254.898C490.514 244.996 474.46 244.996 464.559 254.898C454.657 264.8 454.657 280.853 464.559 290.755C474.46 300.657 490.514 300.657 500.416 290.755Z" fill="#E5E5FF"/>
<path opacity="0.4" d="M92.6118 123.197C107.717 108.092 107.717 83.6004 92.6118 68.4947C77.5061 53.389 53.015 53.389 37.9093 68.4947C22.8037 83.6004 22.8037 108.092 37.9093 123.197C53.015 138.303 77.5061 138.303 92.6118 123.197Z" fill="#E5E5FF"/>
<path opacity="0.4" d="M199.055 58.6593C210.191 58.6593 219.219 49.6315 219.219 38.4952C219.219 27.3588 210.191 18.3311 199.055 18.3311C187.918 18.3311 178.891 27.3588 178.891 38.4952C178.891 49.6315 187.918 58.6593 199.055 58.6593Z" fill="#E5E5FF"/>
<path d="M170.186 48.464C168.939 48.464 167.679 48.3657 166.444 48.1717L166.563 47.4126C167.759 47.6004 168.979 47.6954 170.187 47.6954L170.328 47.695L170.333 48.4634L170.186 48.464ZM174.217 48.1241L174.089 47.3665C175.324 47.1569 176.555 46.8443 177.749 46.4374L177.997 47.1646C176.764 47.585 175.492 47.9077 174.217 48.1241ZM162.653 47.2602C161.419 46.8566 160.209 46.3504 159.056 45.7554L159.408 45.0725C160.525 45.6487 161.697 46.1389 162.891 46.5296L162.653 47.2602ZM181.575 45.618L181.215 44.9394C182.327 44.3493 183.398 43.6654 184.396 42.9072L184.861 43.5191C183.83 44.3026 182.724 45.0085 181.575 45.618ZM155.745 43.6971C154.701 42.925 153.712 42.0632 152.807 41.135L153.357 40.5984C154.233 41.4968 155.191 42.3315 156.202 43.079L155.745 43.6971ZM187.766 40.918L187.208 40.3888C188.072 39.4787 188.87 38.4903 189.579 37.4509L190.213 37.8836C189.482 38.9575 188.658 39.9782 187.766 40.918ZM150.319 38.1329C149.576 37.0719 148.913 35.9402 148.348 34.7693L149.04 34.4352C149.587 35.5693 150.229 36.6647 150.949 37.6921L150.319 38.1329ZM192.144 34.4969L191.449 34.1708C191.982 33.0318 192.428 31.8421 192.773 30.6345L193.511 30.8454C193.156 32.0926 192.695 33.321 192.144 34.4969ZM146.937 31.1349C146.564 29.8883 146.29 28.6054 146.123 27.3216L146.884 27.2223C147.047 28.4653 147.312 29.7076 147.673 30.9148L146.937 31.1349ZM194.278 27.0226L193.515 26.9325C193.622 26.0271 193.676 25.1066 193.676 24.1968C193.676 23.852 193.668 23.5028 193.653 23.1589L194.42 23.1248C194.436 23.4798 194.444 23.8406 194.444 24.1968C194.444 25.137 194.388 26.0876 194.278 27.0226ZM146.701 23.45L145.933 23.4251C145.975 22.1293 146.123 20.8255 146.373 19.5503L147.127 19.6985C146.885 20.9331 146.741 22.1951 146.701 23.45ZM193.18 19.4136C192.923 18.1888 192.564 16.9699 192.112 15.7912L192.829 15.5161C193.296 16.7329 193.667 17.9912 193.932 19.2559L193.18 19.4136ZM148.15 16.0635L147.429 15.797C147.879 14.5799 148.431 13.3902 149.069 12.2604L149.738 12.6381C149.12 13.7326 148.585 14.8848 148.15 16.0635ZM192.042 15.612C191.581 14.4379 191.024 13.2961 190.387 12.2186L191.048 11.8276C191.706 12.9402 192.281 14.1189 192.757 15.3311L192.042 15.612ZM151.852 9.51024L151.252 9.03017C152.063 8.01562 152.963 7.06069 153.925 6.19212L154.44 6.76225C153.508 7.60376 152.637 8.52827 151.852 9.51024ZM188.209 9.13559C187.404 8.17267 186.514 7.26722 185.563 6.44476L186.065 5.86357C187.048 6.71308 187.967 7.64803 188.799 8.64291L188.209 9.13559ZM157.437 4.4679L157.02 3.82186C158.108 3.12111 159.264 2.5015 160.457 1.98085L160.765 2.68498C159.609 3.18934 158.49 3.78928 157.437 4.4679ZM182.518 4.21342C181.448 3.55446 180.316 2.97666 179.155 2.49628L179.449 1.786C180.648 2.28205 181.816 2.87892 182.921 3.55908L182.518 4.21342ZM164.334 1.45191L164.142 0.707823C165.401 0.382343 166.694 0.157671 167.984 0.0399566L168.054 0.804938C166.805 0.919272 165.553 1.13688 164.334 1.45191ZM175.561 1.33634C174.338 1.04713 173.082 0.855343 171.829 0.76652L171.883 0C173.177 0.0918968 174.474 0.289831 175.739 0.588572L175.561 1.33634Z" fill="url(#paint0_linear_1_1438)"/>
<path d="M412.252 316.992L412.239 316.224C413.512 316.202 414.797 316.15 416.059 316.069L416.108 316.836C414.835 316.917 413.537 316.97 412.252 316.992ZM408.394 316.97C407.114 316.933 405.818 316.865 404.542 316.769L404.6 316.003C405.864 316.098 407.149 316.165 408.417 316.202L408.394 316.97ZM419.951 316.5L419.866 315.736C421.128 315.596 422.403 315.424 423.654 315.225L423.775 315.984C422.512 316.185 421.225 316.358 419.951 316.5ZM400.702 316.388C399.434 316.232 398.149 316.044 396.884 315.828L397.014 315.07C398.267 315.284 399.54 315.471 400.796 315.626L400.702 316.388ZM427.57 315.288L427.413 314.536C428.659 314.277 429.911 313.986 431.136 313.67L431.328 314.414C430.091 314.732 428.827 315.027 427.57 315.288ZM393.098 315.087C391.847 314.812 390.586 314.503 389.35 314.169L389.551 313.427C390.775 313.758 392.024 314.064 393.263 314.337L393.098 315.087ZM435.041 313.362L434.814 312.628C436.027 312.253 437.246 311.844 438.437 311.413L438.699 312.136C437.497 312.571 436.266 312.984 435.041 313.362ZM385.651 313.073C384.433 312.681 383.204 312.252 381.999 311.8L382.269 311.081C383.462 311.528 384.68 311.952 385.886 312.342L385.651 313.073ZM442.286 310.741L441.991 310.032C443.156 309.547 444.329 309.026 445.476 308.483L445.805 309.178C444.646 309.726 443.462 310.252 442.286 310.741ZM378.411 310.356C377.232 309.848 376.05 309.305 374.898 308.743L375.235 308.053C376.376 308.609 377.547 309.147 378.715 309.65L378.411 310.356ZM449.247 307.45L448.886 306.772C450.004 306.177 451.123 305.548 452.213 304.901L452.605 305.562C451.505 306.215 450.375 306.851 449.247 307.45ZM371.466 306.966C370.344 306.351 369.22 305.7 368.123 305.03L368.523 304.375C369.61 305.038 370.724 305.684 371.835 306.292L371.466 306.966ZM455.872 303.516L455.449 302.874C456.51 302.175 457.566 301.443 458.587 300.698L459.04 301.319C458.008 302.071 456.943 302.81 455.872 303.516ZM364.875 302.94C363.818 302.222 362.759 301.469 361.731 300.699L362.191 300.084C363.21 300.846 364.259 301.593 365.307 302.303L364.875 302.94ZM462.102 298.975L461.621 298.376C462.609 297.582 463.592 296.755 464.543 295.915L465.052 296.49C464.091 297.338 463.099 298.174 462.102 298.975ZM358.695 298.313C357.705 297.498 356.723 296.648 355.775 295.789L356.291 295.22C357.23 296.071 358.203 296.912 359.183 297.72L358.695 298.313ZM467.882 293.87L467.347 293.318C468.258 292.435 469.16 291.518 470.028 290.593L470.588 291.119C469.712 292.052 468.801 292.978 467.882 293.87ZM352.977 293.132C352.067 292.226 351.168 291.29 350.306 290.347L350.873 289.828C351.727 290.762 352.617 291.69 353.518 292.587L352.977 293.132ZM473.163 288.243L472.579 287.744C473.405 286.777 474.218 285.779 474.994 284.779L475.601 285.25C474.817 286.26 473.997 287.267 473.163 288.243ZM347.77 287.441C346.95 286.456 346.143 285.439 345.373 284.421L345.986 283.957C346.749 284.967 347.548 285.974 348.36 286.949L347.77 287.441ZM477.896 282.145L477.268 281.703C477.999 280.663 478.715 279.593 479.395 278.523L480.043 278.935C479.357 280.015 478.635 281.095 477.896 282.145ZM343.121 281.291C342.398 280.236 341.691 279.15 341.018 278.061L341.672 277.657C342.338 278.736 343.039 279.812 343.755 280.857L343.121 281.291ZM482.038 275.627L481.371 275.246C482 274.145 482.612 273.012 483.19 271.879L483.875 272.228C483.291 273.372 482.673 274.516 482.038 275.627ZM339.07 274.736C338.449 273.617 337.847 272.469 337.282 271.324L337.97 270.984C338.531 272.118 339.127 273.255 339.742 274.363L339.07 274.736ZM485.549 268.744L484.849 268.428C485.374 267.266 485.876 266.079 486.343 264.901L487.057 265.184C486.586 266.374 486.079 267.572 485.549 268.744ZM335.656 267.833C335.143 266.661 334.652 265.462 334.198 264.271L334.916 263.996C335.366 265.177 335.852 266.364 336.36 267.525L335.656 267.833ZM488.394 261.555L487.667 261.307C488.077 260.108 488.464 258.881 488.818 257.661L489.555 257.875C489.199 259.107 488.808 260.345 488.394 261.555ZM332.906 260.635C332.506 259.415 332.13 258.173 331.789 256.941L332.53 256.737C332.867 257.956 333.239 259.187 333.636 260.395L332.906 260.635ZM490.541 254.145L489.793 253.966C490.088 252.735 490.357 251.477 490.593 250.229L491.348 250.372C491.11 251.633 490.838 252.902 490.541 254.145ZM330.849 253.199C330.567 251.954 330.311 250.682 330.086 249.417L330.843 249.282C331.065 250.536 331.319 251.796 331.598 253.029L330.849 253.199ZM491.976 246.565L491.215 246.457C491.392 245.205 491.541 243.928 491.66 242.661L492.424 242.732C492.305 244.012 492.154 245.301 491.976 246.565ZM329.503 245.603C329.34 244.337 329.204 243.046 329.1 241.766L329.866 241.703C329.969 242.972 330.103 244.25 330.265 245.505L329.503 245.603ZM492.693 238.884L491.925 238.848C491.984 237.586 492.014 236.3 492.014 235.027H492.782C492.782 236.312 492.752 237.61 492.693 238.884ZM328.877 237.914C328.845 236.96 328.828 235.989 328.828 235.027C328.828 234.703 328.829 234.379 328.833 234.055L329.602 234.065C329.598 234.385 329.596 234.706 329.596 235.027C329.596 235.98 329.613 236.942 329.645 237.888L328.877 237.914ZM491.992 233.139C491.963 231.868 491.904 230.584 491.816 229.32L492.583 229.267C492.671 230.542 492.731 231.839 492.76 233.121L491.992 233.139ZM329.735 230.245L328.967 230.2C329.042 228.918 329.147 227.624 329.281 226.354L330.045 226.435C329.913 227.693 329.808 228.974 329.735 230.245ZM491.462 225.515C491.316 224.257 491.137 222.984 490.93 221.73L491.689 221.605C491.897 222.871 492.078 224.157 492.226 225.426L491.462 225.515ZM330.534 222.645L329.775 222.529C329.968 221.261 330.195 219.983 330.448 218.73L331.201 218.882C330.95 220.123 330.726 221.39 330.534 222.645ZM490.22 217.974C489.956 216.736 489.657 215.485 489.333 214.257L490.076 214.061C490.403 215.301 490.704 216.564 490.971 217.814L490.22 217.974ZM332.045 215.154L331.3 214.966C331.613 213.724 331.96 212.473 332.33 211.248L333.066 211.471C332.698 212.683 332.355 213.923 332.045 215.154ZM488.271 210.585C487.889 209.375 487.473 208.158 487.035 206.968L487.757 206.703C488.198 207.904 488.618 209.132 489.004 210.354L488.271 210.585ZM334.262 207.83L333.538 207.573C333.968 206.362 334.433 205.147 334.919 203.961L335.63 204.252C335.148 205.427 334.688 206.631 334.262 207.83ZM485.634 203.422C485.142 202.259 484.615 201.09 484.066 199.945L484.759 199.613C485.313 200.768 485.845 201.949 486.341 203.123L485.634 203.422ZM337.166 200.743L336.47 200.418C337.01 199.259 337.588 198.094 338.186 196.956L338.866 197.313C338.274 198.441 337.702 199.595 337.166 200.743ZM482.335 196.545C481.736 195.433 481.1 194.318 480.445 193.229L481.104 192.833C481.765 193.932 482.407 195.058 483.012 196.181L482.335 196.545ZM340.726 193.967L340.063 193.578C340.712 192.474 341.396 191.369 342.097 190.294L342.74 190.714C342.046 191.779 341.368 192.874 340.726 193.967ZM478.401 190.005C477.698 188.951 476.96 187.9 476.207 186.879L476.825 186.422C477.585 187.453 478.33 188.515 479.04 189.578L478.401 190.005ZM344.905 187.56L344.282 187.111C345.031 186.073 345.815 185.038 346.614 184.033L347.216 184.512C346.424 185.507 345.647 186.532 344.905 187.56ZM473.868 183.858C473.069 182.874 472.235 181.895 471.39 180.949L471.963 180.437C472.816 181.392 473.658 182.38 474.464 183.373L473.868 183.858ZM349.666 181.576L349.088 181.07C349.932 180.105 350.81 179.148 351.696 178.225L352.25 178.758C351.372 179.672 350.502 180.62 349.666 181.576ZM468.778 178.159C467.888 177.252 466.966 176.355 466.038 175.494L466.561 174.931C467.497 175.8 468.428 176.706 469.327 177.621L468.778 178.159ZM354.963 176.065L354.434 175.507C355.364 174.626 356.327 173.756 357.296 172.92L357.798 173.502C356.838 174.33 355.884 175.192 354.963 176.065ZM463.175 172.959C462.208 172.142 461.206 171.335 460.197 170.56L460.664 169.951C461.683 170.733 462.695 171.547 463.671 172.372L463.175 172.959ZM360.749 171.076L360.274 170.471C361.281 169.682 362.321 168.905 363.364 168.164L363.809 168.79C362.776 169.525 361.746 170.294 360.749 171.076ZM457.108 168.303C456.064 167.578 454.99 166.868 453.916 166.194L454.325 165.543C455.409 166.224 456.493 166.94 457.546 167.673L457.108 168.303ZM366.973 166.651L366.558 166.005C367.635 165.313 368.741 164.638 369.848 163.999L370.233 164.664C369.137 165.298 368.04 165.966 366.973 166.651ZM450.627 164.236C449.521 163.612 448.385 163.007 447.25 162.436L447.595 161.75C448.741 162.326 449.888 162.937 451.005 163.567L450.627 164.236ZM373.581 162.833L373.229 162.15C374.363 161.564 375.528 160.996 376.691 160.463L377.011 161.162C375.859 161.69 374.705 162.252 373.581 162.833ZM443.79 160.796C442.628 160.28 441.439 159.784 440.254 159.323L440.533 158.607C441.729 159.072 442.93 159.573 444.102 160.094L443.79 160.796ZM380.515 159.656L380.227 158.943C381.418 158.464 382.633 158.008 383.841 157.588L384.093 158.314C382.898 158.73 381.693 159.181 380.515 159.656ZM436.652 158.018C435.449 157.615 434.22 157.235 433 156.889L433.21 156.15C434.441 156.499 435.682 156.882 436.897 157.29L436.652 158.018ZM387.732 157.143L387.514 156.406C388.74 156.044 389.993 155.705 391.239 155.4L391.422 156.146C390.188 156.448 388.946 156.784 387.732 157.143ZM429.3 155.934C428.064 155.646 426.806 155.384 425.557 155.155L425.696 154.4C426.956 154.631 428.227 154.895 429.474 155.186L429.3 155.934ZM395.155 155.325L395.007 154.571C396.264 154.326 397.544 154.107 398.811 153.922L398.922 154.682C397.668 154.866 396.4 155.082 395.155 155.325ZM421.783 154.554C420.526 154.385 419.249 154.242 417.984 154.132L418.052 153.366C419.328 153.478 420.618 153.622 421.886 153.793L421.783 154.554ZM402.715 154.216L402.64 153.452C403.911 153.326 405.206 153.228 406.487 153.162L406.526 153.929C405.257 153.995 403.975 154.092 402.715 154.216ZM414.171 153.887C413.054 153.841 411.922 153.818 410.805 153.818C410.651 153.818 410.5 153.819 410.349 153.82L410.344 153.051C410.498 153.051 410.654 153.051 410.805 153.05C411.932 153.05 413.075 153.073 414.202 153.119L414.171 153.887Z" fill="url(#paint1_linear_1_1438)"/>
<path d="M78.2223 227.11C76.933 227.102 75.6333 227.049 74.3593 226.951L74.418 226.185C75.6738 226.281 76.9555 226.334 78.227 226.341L78.2223 227.11ZM82.0882 226.995L82.0384 226.229C83.3006 226.147 84.5767 226.018 85.831 225.846L85.9352 226.608C84.6631 226.782 83.3689 226.912 82.0882 226.995ZM70.5168 226.519C69.2438 226.329 67.9646 226.091 66.7147 225.811L66.8825 225.062C68.1146 225.337 69.3754 225.572 70.6299 225.759L70.5168 226.519ZM89.7451 225.945L89.5862 225.193C90.8239 224.932 92.0683 224.622 93.2851 224.272L93.4975 225.01C92.2632 225.365 91.0006 225.68 89.7451 225.945ZM62.9733 224.832C61.7418 224.462 60.5084 224.042 59.3073 223.584L59.5811 222.866C60.765 223.317 61.9809 223.731 63.1946 224.096L62.9733 224.832ZM97.1734 223.806L96.9081 223.085C98.0936 222.649 99.279 222.163 100.432 221.642L100.748 222.342C99.5787 222.871 98.376 223.364 97.1734 223.806ZM55.7421 222.074C54.5784 221.531 53.4188 220.938 52.2955 220.312L52.6698 219.64C53.7772 220.258 54.9199 220.842 56.0669 221.377L55.7421 222.074ZM104.209 220.625L103.844 219.95C104.954 219.348 106.059 218.697 107.126 218.015L107.54 218.663C106.457 219.355 105.336 220.015 104.209 220.625ZM48.985 218.307C47.9115 217.603 46.849 216.851 45.8273 216.071L46.2936 215.461C47.3011 216.229 48.3485 216.971 49.4067 217.664L48.985 218.307ZM110.722 216.468L110.263 215.851C111.279 215.096 112.28 214.294 113.238 213.468L113.74 214.05C112.768 214.888 111.752 215.701 110.722 216.468ZM42.8378 213.616C41.8761 212.767 40.9316 211.872 40.0311 210.955L40.5791 210.416C41.467 211.32 42.398 212.203 43.3461 213.04L42.8378 213.616ZM116.578 211.424L116.037 210.879C116.935 209.986 117.812 209.05 118.644 208.096L119.223 208.601C118.379 209.569 117.489 210.519 116.578 211.424ZM37.4211 208.101C36.5885 207.122 35.7811 206.102 35.0216 205.068L35.6409 204.613C36.3896 205.632 37.1854 206.638 38.0063 207.603L37.4211 208.101ZM121.661 205.597L121.047 205.135C121.81 204.123 122.545 203.071 123.233 202.009L123.878 202.426C123.18 203.504 122.434 204.571 121.661 205.597ZM32.8453 201.874C32.1612 200.788 31.5077 199.664 30.9032 198.532L31.5809 198.17C32.1765 199.285 32.821 200.394 33.4953 201.464L32.8453 201.874ZM125.862 199.104L125.189 198.734C125.8 197.623 126.377 196.476 126.906 195.326L127.604 195.647C127.068 196.814 126.482 197.977 125.862 199.104ZM29.2063 195.061C28.6848 193.888 28.1995 192.682 27.7639 191.477L28.4868 191.216C28.9159 192.404 29.3941 193.592 29.9083 194.748L29.2063 195.061ZM129.093 192.073L128.373 191.803C128.817 190.617 129.224 189.401 129.581 188.187L130.318 188.404C129.955 189.635 129.543 190.869 129.093 192.073ZM26.5822 187.795C26.2343 186.558 25.9272 185.294 25.6694 184.036L26.4221 183.882C26.6759 185.121 26.9787 186.367 27.3217 187.586L26.5822 187.795ZM131.275 184.657L130.524 184.494C130.793 183.258 131.02 181.996 131.199 180.742L131.96 180.851C131.778 182.123 131.547 183.404 131.275 184.657ZM25.0298 180.223C24.8632 178.951 24.7403 177.656 24.6647 176.373L25.4318 176.328C25.5065 177.593 25.6276 178.87 25.7917 180.123L25.0298 180.223ZM132.37 177.006L131.603 176.952C131.692 175.692 131.738 174.41 131.738 173.142H132.506C132.506 174.428 132.46 175.728 132.37 177.006ZM25.3411 172.516L24.5728 172.507C24.5875 171.221 24.6487 169.922 24.7538 168.645L25.5194 168.708C25.4158 169.967 25.3559 171.248 25.3411 172.516ZM131.677 170.583C131.617 169.315 131.511 168.037 131.362 166.784L132.125 166.693C132.276 167.965 132.384 169.261 132.445 170.547L131.677 170.583ZM25.9687 164.923L25.2093 164.805C25.4063 163.535 25.6519 162.257 25.9389 161.007L26.6876 161.179C26.4049 162.411 26.163 163.671 25.9687 164.923ZM130.775 163.018C130.536 161.775 130.248 160.525 129.92 159.303L130.662 159.104C130.995 160.344 131.287 161.612 131.53 162.873L130.775 163.018ZM27.6751 157.497L26.9406 157.272C27.3183 156.042 27.7458 154.811 28.2108 153.613L28.9269 153.892C28.4687 155.072 28.0473 156.285 27.6751 157.497ZM128.799 155.66C128.384 154.466 127.919 153.272 127.419 152.111L128.125 151.807C128.632 152.985 129.103 154.196 129.525 155.407L128.799 155.66ZM30.4363 150.386L29.742 150.057C30.2919 148.897 30.8915 147.741 31.5243 146.621L32.1934 146.999C31.5695 148.103 30.9782 149.242 30.4363 150.386ZM125.787 148.67C125.205 147.547 124.574 146.431 123.912 145.353L124.567 144.951C125.238 146.044 125.878 147.176 126.469 148.316L125.787 148.67ZM34.1884 143.748L33.5482 143.323C34.2585 142.253 35.017 141.195 35.8026 140.178L36.4108 140.648C35.6366 141.65 34.8886 142.694 34.1884 143.748ZM121.804 142.179C121.067 141.151 120.282 140.136 119.474 139.163L120.065 138.671C120.885 139.659 121.681 140.688 122.428 141.731L121.804 142.179ZM38.8484 137.715L38.2755 137.203C39.1309 136.245 40.0317 135.307 40.9531 134.412L41.4882 134.963C40.58 135.845 39.6918 136.771 38.8484 137.715ZM116.934 136.319C116.058 135.405 115.137 134.511 114.198 133.663L114.714 133.093C115.666 133.954 116.6 134.86 117.489 135.787L116.934 136.319ZM44.317 132.407L43.8225 131.819C44.8045 130.993 45.8292 130.192 46.8686 129.437L47.3201 130.059C46.2954 130.803 45.2852 131.593 44.317 132.407ZM111.28 131.208C110.281 130.428 109.243 129.674 108.193 128.967L108.622 128.33C109.687 129.046 110.741 129.811 111.753 130.603L111.28 131.208ZM50.4821 127.933L50.0764 127.28C51.1663 126.602 52.2942 125.955 53.4296 125.358L53.7876 126.038C52.6686 126.627 51.5563 127.264 50.4821 127.933ZM104.954 126.953C103.854 126.323 102.718 125.725 101.577 125.176L101.911 124.484C103.068 125.041 104.221 125.647 105.336 126.287L104.954 126.953ZM57.2192 124.386L56.9109 123.682C58.0856 123.168 59.2938 122.689 60.5029 122.261L60.7595 122.985C59.5679 123.407 58.3766 123.878 57.2192 124.386ZM98.081 123.646C96.9029 123.181 95.6923 122.752 94.4825 122.373L94.7124 121.639C95.9397 122.025 97.1678 122.459 98.3631 122.932L98.081 123.646ZM64.396 121.842L64.1923 121.101C65.4287 120.761 66.695 120.462 67.9557 120.211L68.1054 120.964C66.8631 121.211 65.615 121.507 64.396 121.842ZM90.8067 121.364C89.5754 121.073 88.3172 120.824 87.0675 120.622L87.1895 119.864C88.4573 120.068 89.7337 120.321 90.9828 120.616L90.8067 121.364ZM71.8686 120.356L71.773 119.594C73.0442 119.435 74.3402 119.32 75.6243 119.251L75.6652 120.018C74.3993 120.086 73.1219 120.199 71.8686 120.356ZM83.285 120.151C82.0264 120.04 80.7457 119.972 79.4785 119.95L79.4917 119.182C80.7773 119.204 82.0762 119.273 83.3529 119.386L83.285 120.151Z" fill="url(#paint2_linear_1_1438)"/>
<path d="M294.637 43.7679C287.487 43.7679 281.671 37.9516 281.671 30.8024C281.671 23.6532 287.487 17.8367 294.637 17.8367C301.786 17.8367 307.602 23.6529 307.602 30.8024C307.602 37.9516 301.786 43.7679 294.637 43.7679ZM294.637 18.4129C287.805 18.4129 282.247 23.9707 282.247 30.8024C282.247 37.6338 287.805 43.1916 294.637 43.1916C301.468 43.1916 307.026 37.6338 307.026 30.8024C307.026 23.9707 301.468 18.4129 294.637 18.4129Z" fill="url(#paint3_linear_1_1438)"/>
<path d="M429.533 90.3097V323.947C429.533 328.811 425.592 332.753 420.736 332.753H81.2093C76.3455 332.753 72.4038 328.811 72.4038 323.947V90.3097C72.4038 85.4459 76.3455 81.5042 81.2093 81.5042H420.736C425.592 81.5042 429.533 85.4459 429.533 90.3097Z" fill="#151515"/>
<path d="M420.736 333.137H81.2092C76.142 333.137 72.0195 329.015 72.0195 323.947V90.3098C72.0195 85.2426 76.142 81.1201 81.2092 81.1201H420.736C425.798 81.1201 429.918 85.2426 429.918 90.3098V323.947C429.918 329.015 425.798 333.137 420.736 333.137ZM81.2092 81.8885C76.5658 81.8885 72.7879 85.6664 72.7879 90.3098V323.947C72.7879 328.591 76.5658 332.369 81.2092 332.369H420.736C425.375 332.369 429.149 328.591 429.149 323.947V90.3098C429.149 85.6664 425.375 81.8885 420.736 81.8885H81.2092Z" fill="url(#paint4_linear_1_1438)"/>
<path d="M429.533 90.3097V104.171H72.4038V90.3097C72.4038 85.4459 76.3455 81.5042 81.2093 81.5042H420.736C425.592 81.5042 429.533 85.4459 429.533 90.3097Z" fill="#151515"/>
<path d="M429.918 104.555H72.0195V90.3098C72.0195 85.2426 76.142 81.1201 81.2092 81.1201H420.736C425.798 81.1201 429.918 85.2426 429.918 90.3098V104.555ZM72.7879 103.787H429.149V90.3098C429.149 85.6664 425.375 81.8885 420.736 81.8885H81.2092C76.5658 81.8885 72.7879 85.6664 72.7879 90.3098V103.787Z" fill="url(#paint5_linear_1_1438)"/>
<path d="M92.2326 96.9352C94.4958 96.9352 96.3305 95.1005 96.3305 92.8373C96.3305 90.5742 94.4958 88.7395 92.2326 88.7395C89.9694 88.7395 88.1348 90.5742 88.1348 92.8373C88.1348 95.1005 89.9694 96.9352 92.2326 96.9352Z" fill="url(#paint6_linear_1_1438)"/>
<path d="M107.856 88.7395C105.596 88.7395 103.758 90.5777 103.758 92.8373C103.758 95.097 105.596 96.9355 107.856 96.9355C110.116 96.9355 111.954 95.0973 111.954 92.8373C111.954 90.5777 110.116 88.7395 107.856 88.7395Z" fill="url(#paint7_linear_1_1438)"/>
<path d="M123.48 96.9352C121.22 96.9352 119.382 95.097 119.382 92.8373C119.382 90.5777 121.22 88.7395 123.48 88.7395C125.739 88.7395 127.578 90.5777 127.578 92.8373C127.578 95.097 125.74 96.9352 123.48 96.9352ZM123.48 89.5079C121.644 89.5079 120.15 91.0016 120.15 92.8373C120.15 94.6731 121.644 96.1668 123.48 96.1668C125.315 96.1668 126.809 94.6731 126.809 92.8373C126.809 91.0016 125.316 89.5079 123.48 89.5079Z" fill="url(#paint8_linear_1_1438)"/>
<path d="M224.312 97.3997H148.148C145.632 97.3997 143.585 95.353 143.585 92.8374C143.585 90.3218 145.632 88.2751 148.148 88.2751H224.312C226.828 88.2751 228.875 90.3218 228.875 92.8374C228.875 95.353 226.828 97.3997 224.312 97.3997ZM148.148 89.0435C146.056 89.0435 144.354 90.7456 144.354 92.8374C144.354 94.9292 146.056 96.6313 148.148 96.6313H224.312C226.404 96.6313 228.106 94.9292 228.106 92.8374C228.106 90.7456 226.404 89.0435 224.312 89.0435H148.148Z" fill="url(#paint9_linear_1_1438)"/>
<path d="M321.168 212.894C321.168 249.684 291.348 279.512 254.558 279.512C217.769 279.512 187.941 249.684 187.941 212.894C187.941 178.379 214.196 149.996 247.82 146.615L250.04 168.475C227.512 170.741 209.924 189.766 209.924 212.894C209.924 237.551 229.909 257.536 254.558 257.536C279.208 257.536 299.185 237.551 299.185 212.894C299.185 208.591 298.578 204.434 297.441 200.5L318.563 194.4C320.262 200.27 321.168 206.478 321.168 212.894Z" fill="url(#paint10_linear_1_1438)"/>
<path d="M254.556 266.678C284.261 266.678 308.342 242.598 308.342 212.893C308.342 183.188 284.261 159.107 254.556 159.107C224.851 159.107 200.771 183.188 200.771 212.893C200.771 242.598 224.851 266.678 254.556 266.678Z" fill="#151515"/>
<path opacity="0.5" d="M254.556 266.678C284.261 266.678 308.342 242.598 308.342 212.893C308.342 183.188 284.261 159.107 254.556 159.107C224.851 159.107 200.771 183.188 200.771 212.893C200.771 242.598 224.851 266.678 254.556 266.678Z" fill="#D1D1FF"/>
<path d="M254.556 250.999C275.596 250.999 292.653 233.939 292.653 212.893C292.653 191.847 275.596 174.787 254.556 174.787C233.516 174.787 216.459 191.847 216.459 212.893C216.459 233.939 233.516 250.999 254.556 250.999Z" fill="#151515"/>
<path d="M258.904 231.632V237.425H251.544V231.893C246.327 231.581 241.266 230.17 238.134 228.24L242.099 219.262C245.545 221.298 250.134 222.602 254.153 222.602C257.65 222.602 258.904 221.871 258.904 220.617C258.904 216.025 238.708 219.731 238.708 206.107C238.708 200.208 242.987 195.25 251.544 194.049V188.36H258.904V193.945C262.762 194.311 266.522 195.303 269.497 196.973L265.792 205.899C262.188 204.071 258.798 203.185 255.615 203.185C252.012 203.185 250.865 204.229 250.865 205.48C250.865 209.866 271.06 206.211 271.06 219.678C271.06 225.316 266.99 230.223 258.904 231.632Z" fill="url(#paint11_linear_1_1438)"/>
<path d="M491.691 35.927H346.773V124.539H491.691V35.927Z" fill="#151515"/>
<path d="M492.075 124.922H346.389V35.5425H492.075V124.922ZM347.157 124.154H491.307V36.3108H347.157V124.154Z" fill="url(#paint12_linear_1_1438)"/>
<path d="M373.357 96.333H365.017V111.65H373.357V96.333Z" fill="url(#paint13_linear_1_1438)"/>
<path d="M390.039 89.3337H381.698V111.65H390.039V89.3337Z" fill="url(#paint14_linear_1_1438)"/>
<path d="M406.721 95.0557H398.38V111.65H406.721V95.0557Z" fill="url(#paint15_linear_1_1438)"/>
<path d="M423.402 83.3792H415.062V111.65H423.402V83.3792Z" fill="url(#paint16_linear_1_1438)"/>
<path d="M440.084 75.9097H431.743V111.65H440.084V75.9097Z" fill="url(#paint17_linear_1_1438)"/>
<path d="M456.766 65.2427H448.425V111.65H456.766V65.2427Z" fill="url(#paint18_linear_1_1438)"/>
<path d="M473.447 48.8154H465.106V111.65H473.447V48.8154Z" fill="url(#paint19_linear_1_1438)"/>
<path d="M371.645 56.2715H365.017V63.7769H371.645V56.2715Z" fill="url(#paint20_linear_1_1438)"/>
<path d="M426.779 59.7444H381.888V61.6681H426.779V59.7444Z" fill="url(#paint21_linear_1_1438)"/>
<path d="M361.293 169.463L352.114 144.111C341.745 147.865 334.335 157.798 334.335 169.463C334.335 184.352 346.404 196.421 361.293 196.421C376.181 196.421 388.251 184.352 388.251 169.463C388.251 164.983 387.152 160.762 385.218 157.045L361.293 169.463Z" fill="#3D3D3D"/>
<path d="M388.803 147.44C384.311 138.803 375.287 132.901 364.878 132.901C361.655 132.901 358.565 133.469 355.7 134.506L364.878 159.859L388.803 147.44Z" fill="url(#paint22_linear_1_1438)"/>
<path d="M399.452 255.854H335.677V316.555H399.452V255.854Z" fill="#3D3D3D"/>
<path d="M381.395 271.989H345.666V274.553H381.395V271.989Z" fill="#151515"/>
<path d="M381.395 279.673H345.666V282.236H381.395V279.673Z" fill="#151515"/>
<path d="M156.014 139.83H100.557V233.571H156.014V139.83Z" fill="#3D3D3D"/>
<path d="M145.379 153.404H109.009V186.7H145.379V153.404Z" fill="#151515"/>
<path d="M109.281 153.128L108.762 153.695L145.132 186.993L145.651 186.426L109.281 153.128Z" fill="#EBEBFF"/>
<path d="M145.106 153.127L108.74 186.425L109.259 186.992L145.624 153.693L145.106 153.127Z" fill="#EBEBFF"/>
<path d="M127.213 178.116H0.366699V261.693H127.213V178.116Z" fill="#151515"/>
<path d="M127.579 262.06H0V177.75H127.579V262.06ZM0.73364 261.326H126.846V178.483H0.73364V261.326Z" fill="url(#paint23_linear_1_1438)"/>
<path d="M13.731 241.511L21.927 226.143L38.8311 242.023L50.1003 209.239L71.1025 232.29L84.9331 226.656L110.033 193.872" fill="#151515"/>
<path d="M39.0012 242.71L22.0298 226.767L14.0701 241.691L13.3921 241.33L21.8242 225.519L38.6609 241.336L49.948 208.501L71.2059 231.833L84.6914 226.339L109.728 193.638L110.338 194.105L85.1748 226.972L70.9991 232.747L70.8187 232.549L50.2531 209.977L39.0012 242.71Z" fill="url(#paint24_linear_1_1438)"/>
<path d="M21.9909 228.192C23.1579 228.192 24.104 227.246 24.104 226.079C24.104 224.912 23.1579 223.966 21.9909 223.966C20.824 223.966 19.8779 224.912 19.8779 226.079C19.8779 227.246 20.824 228.192 21.9909 228.192Z" fill="url(#paint25_linear_1_1438)"/>
<path d="M38.7029 243.752C39.8698 243.752 40.8159 242.806 40.8159 241.639C40.8159 240.472 39.8698 239.526 38.7029 239.526C37.5359 239.526 36.5898 240.472 36.5898 241.639C36.5898 242.806 37.5359 243.752 38.7029 243.752Z" fill="url(#paint26_linear_1_1438)"/>
<path d="M50.2287 211.48C51.3957 211.48 52.3417 210.534 52.3417 209.367C52.3417 208.2 51.3957 207.254 50.2287 207.254C49.0618 207.254 48.1157 208.2 48.1157 209.367C48.1157 210.534 49.0618 211.48 50.2287 211.48Z" fill="url(#paint27_linear_1_1438)"/>
<path d="M90.6827 191.438H36.897V192.207H90.6827V191.438Z" fill="url(#paint28_linear_1_1438)"/>
<path d="M301.955 380.137C299.681 365.236 302.806 349.57 310.623 336.682C318.44 323.795 330.889 313.784 345.154 308.914C337.076 314.568 332.145 323.707 328.705 332.947C325.265 342.187 323.008 351.886 318.762 360.785C314.517 369.684 307.825 377.999 298.544 381.328L301.955 380.137Z" fill="url(#paint29_linear_1_1438)"/>
<path d="M299.723 380.26C299.4 363.039 296.055 345.878 289.887 329.797C287.696 324.087 285.069 318.386 280.798 314.009C276.527 309.631 270.316 306.747 264.294 307.817C271.794 313.429 275.678 322.662 277.865 331.77C280.053 340.878 280.895 350.328 283.976 359.175C287.056 368.021 292.948 376.547 301.765 379.709L299.723 380.26Z" fill="url(#paint30_linear_1_1438)"/>
<path d="M298.547 381.389C294.26 369.844 289.599 358.007 280.978 349.212C272.356 340.417 258.697 335.383 247.406 340.302C256.55 342.376 264.929 347.67 270.728 355.037C274.981 360.44 277.841 366.846 282.215 372.151C286.588 377.457 293.26 381.73 300.019 380.465L298.547 381.389Z" fill="black"/>
<path d="M297.177 380.6C295.421 367.929 293.663 355.054 295.514 342.397C297.365 329.739 303.35 317.102 314.074 310.128C308.138 315.948 306.157 324.765 306.154 333.078C306.151 341.392 307.834 349.629 307.977 357.941C308.119 366.253 306.468 375.084 300.846 381.207L297.177 380.6Z" fill="black"/>
<path d="M303.11 378.754C307.22 368.283 311.601 357.411 319.971 349.894C325.344 345.068 332.19 341.903 339.348 340.934C334.329 344.939 331.187 350.806 328.58 356.673C325.974 362.54 323.724 368.651 319.951 373.845C316.178 379.039 310.508 383.312 304.094 383.586L303.11 378.754Z" fill="black"/>
<path d="M323.979 410.616H277.821L270.704 375.108H331.096L323.979 410.616Z" fill="#151515"/>
<path d="M324.294 411H277.506L270.236 374.724H331.565L324.294 411ZM278.136 410.232H323.664L330.627 375.492H271.173L278.136 410.232Z" fill="url(#paint31_linear_1_1438)"/>
<path d="M406.617 389.264V410.616H378.926L391.604 400.274L392.271 387.262L406.617 389.264Z" fill="#62626D"/>
<path d="M391.882 399.985L391.353 400.542L396.639 405.57L397.168 405.013L391.882 399.985Z" fill="#656565"/>
<path d="M403.933 394.929H394.457V395.698H403.933V394.929Z" fill="#656565"/>
<path d="M438.978 390.265L439.979 410.616H412.288L423.965 400.607V388.263L438.978 390.265Z" fill="#62626D"/>
<path d="M424.215 400.279L423.706 400.855L428.006 404.653L428.515 404.077L424.215 400.279Z" fill="#656565"/>
<path d="M436.461 395.313H427.112V396.082H436.461V395.313Z" fill="#656565"/>
<path d="M409.405 266.53C409.881 309.077 413.408 350.946 420.151 392.1H443.484C438.63 360.626 436.436 322.407 439.15 271.734L422.3 257.934L409.405 266.53Z" fill="#1E1E1E"/>
<path d="M390.959 272.16L380.401 319.115C377.865 330.398 377.688 342.084 379.884 353.438L387.3 391.792H410.634L403.572 341.442L420.458 264.688L390.959 272.16Z" fill="#1E1E1E"/>
<path d="M410.978 317.155C410.919 316.188 409.59 294.593 409.452 291.857L403.354 289.639L403.617 288.917L410.209 291.314V291.583C410.21 292.056 411.214 308.486 411.745 317.108L410.978 317.155Z" fill="#0B0B0B"/>
<path d="M461.497 166.148L462.745 163.17C462.745 163.17 458.231 153.661 459.672 152.413C461.113 151.164 463.418 154.718 463.418 154.718C463.418 154.718 462.745 143.192 464.955 143.096C466.818 143.015 466.683 146.362 466.876 151.356C466.876 151.356 468.028 149.819 470.148 151.407C471.102 149.819 473.118 150.876 473.695 151.837C474.367 151.068 477.152 151.26 476.768 154.526C476.281 158.667 474.367 166.34 474.367 166.34L468.22 171.43L461.497 166.148Z" fill="#FFBC96"/>
<path d="M412.129 205.911L421.476 205.837C437.87 204.374 450.676 191.056 450.676 191.056L461.497 166.148L474.367 166.34L466.812 195.614C465.727 199.818 463.39 203.593 460.11 206.438L433.259 229.731L412.129 205.911Z" fill="url(#paint32_linear_1_1438)"/>
<path d="M386.509 227.106L390.959 272.16L439.15 271.734L437.485 217.436L412.129 205.911L394.584 213.338L386.509 227.106Z" fill="url(#paint33_linear_1_1438)"/>
<path d="M356.667 231.482C355.879 230.782 354.891 230.357 353.841 230.27C348.514 229.826 331.861 228.541 332.022 229.832C332.214 231.369 344.892 237.132 344.892 237.132C347.603 240.183 350.315 243.234 353.026 246.285L360.476 234.862L356.667 231.482Z" fill="#FFBC96"/>
<path d="M392.99 210.246C389.557 210.846 386.607 213.027 385.027 216.133L370.825 244.047L360.476 234.862L353.026 246.285C353.933 247.305 354.839 248.325 355.745 249.345C359.769 253.873 364.46 259.956 370.742 261.275C373.943 261.947 376.923 260.618 379.217 258.416C380.899 256.801 382.403 254.807 383.602 252.807L389.266 243.47L407.322 207.741L392.99 210.246Z" fill="url(#paint34_linear_1_1438)"/>
<path d="M386.877 227.091L386.112 227.165L388.809 254.889L389.573 254.815L386.877 227.091Z" fill="black"/>
<path d="M437.775 225.696L433.259 229.73L438.063 237.702L437.775 225.696Z" fill="#656565"/>
<path d="M468.541 157.088C466.729 157.088 466.588 154.713 466.587 151.357H467.164C467.165 155.307 467.487 156.511 468.541 156.511C468.752 156.511 468.932 156.427 469.094 156.254C469.608 155.703 469.807 154.417 469.868 153.261C469.828 152.426 469.848 151.699 469.861 151.397L470.436 151.388C470.441 151.459 470.493 152.236 470.449 153.192C470.528 154.757 470.792 156.303 471.313 156.46C471.605 156.547 471.858 156.51 472.086 156.346C472.708 155.898 473.057 154.63 473.239 153.498C473.255 153.012 473.308 152.447 473.41 151.793L473.983 151.846C473.981 151.911 473.958 152.568 473.837 153.395C473.795 154.593 473.932 155.754 474.416 155.958C474.775 156.109 475.071 156.108 475.322 155.955C475.981 155.552 476.221 154.194 476.258 153.704L476.832 153.748C476.826 153.831 476.666 155.808 475.622 156.446C475.208 156.7 474.727 156.714 474.192 156.489C474.058 156.432 473.634 156.187 473.397 155.287C473.17 155.932 472.856 156.501 472.423 156.813C472.045 157.085 471.616 157.152 471.148 157.012C470.641 156.859 470.327 156.213 470.136 155.404C469.994 155.906 469.795 156.348 469.515 156.647C469.243 156.94 468.915 157.088 468.541 157.088Z" fill="#D28572"/>
<path d="M408.064 216.844C403.969 217.175 400.389 214.124 400.058 210.037L399.974 208.999L398.806 194.508L407.834 193.786L413.627 193.317L414.872 208.838C415.203 212.933 412.152 216.514 408.064 216.844Z" fill="#FFBC96"/>
<path d="M410.723 198.673C407.911 203.629 403.885 207.194 399.974 209L398.806 194.509L407.834 193.786L410.723 198.673Z" fill="#656565"/>
<path d="M413.667 183.498L411.877 198.611C411.877 198.611 406.114 204.121 397.662 203.859C394.581 203.767 392.768 200.847 391.707 197.136C391.269 195.584 390.962 193.901 390.747 192.219C390.04 186.656 390.363 181.192 390.363 181.192L403.425 176.844L413.667 183.498Z" fill="#FFBC96"/>
<path d="M411.681 189.711C410.321 184.863 407.878 182.424 404.574 181.899C394.073 187.598 387.254 184.205 382.291 177.866C394.457 180.235 399.771 162.946 411.425 174.472C420.069 177.097 419.91 185.357 415.012 192.08L411.681 189.711Z" fill="black"/>
<path d="M417.075 191.577C417.521 189.296 416.278 187.133 414.3 186.747C412.322 186.36 410.357 187.897 409.911 190.178C409.466 192.459 410.708 194.622 412.686 195.008C414.665 195.395 416.629 193.859 417.075 191.577Z" fill="#FFBC96"/>
<path d="M414.869 189.3C414.265 189.401 413.877 189.857 413.584 190.375C413.297 190.902 413.11 191.487 412.996 192.119L412.771 192.132C412.675 191.794 412.675 191.435 412.732 191.09C412.79 190.743 412.908 190.405 413.085 190.094C413.263 189.785 413.498 189.494 413.813 189.289C414.121 189.082 414.529 188.976 414.885 189.075L414.869 189.3Z" fill="#656565"/>
<path d="M393.496 190.319C393.496 190.974 393.181 191.504 392.792 191.504C392.403 191.504 392.087 190.973 392.087 190.319C392.087 189.665 392.403 189.135 392.792 189.135C393.181 189.135 393.496 189.665 393.496 190.319Z" fill="#656565"/>
<path d="M399.318 189.836C399.318 190.545 398.977 191.12 398.555 191.12C398.134 191.12 397.792 190.545 397.792 189.836C397.792 189.127 398.134 188.552 398.555 188.552C398.977 188.552 399.318 189.127 399.318 189.836Z" fill="#656565"/>
<path d="M395.096 191.281C395.099 191.509 395.008 191.732 394.898 191.924C394.783 192.114 394.644 192.278 394.507 192.428C394.235 192.727 393.981 192.998 393.922 193.281C393.845 193.571 393.959 193.857 394.181 194.143C394.405 194.426 394.707 194.681 394.999 194.964L394.875 195.152C394.499 194.993 394.128 194.795 393.807 194.484C393.647 194.328 393.504 194.136 393.411 193.902C393.32 193.666 393.299 193.396 393.363 193.149C393.426 192.9 393.557 192.682 393.705 192.514C393.853 192.344 394.011 192.203 394.164 192.076C394.463 191.815 394.749 191.591 394.874 191.247L395.096 191.281Z" fill="#656565"/>
<path d="M395.651 197.683C396.462 197.502 397.214 197.245 397.886 196.827C398.222 196.62 398.54 196.381 398.845 196.119C399.15 195.856 399.441 195.571 399.744 195.28L399.927 195.412C399.55 196.183 398.944 196.86 398.184 197.317C397.427 197.775 396.523 197.993 395.664 197.908L395.651 197.683Z" fill="#656565"/>
<path d="M397.629 186.656C397.465 187.523 400.189 187.802 400.679 187.888C401.083 187.959 401.658 188.005 401.743 187.393C401.849 186.633 401.023 186.553 400.556 186.452C400.109 186.355 397.785 185.836 397.629 186.656Z" fill="#656565"/>
<path d="M393.838 187.19C393.824 188.028 391.658 188.112 391.261 188.161C390.935 188.201 390.48 188.206 390.514 187.617C390.557 186.886 391.213 186.865 391.593 186.8C391.957 186.737 393.852 186.398 393.838 187.19Z" fill="#656565"/>
<path opacity="0.2" d="M404.014 195.202C405.553 195.202 406.8 193.955 406.8 192.417C406.8 190.878 405.553 189.631 404.014 189.631C402.476 189.631 401.229 190.878 401.229 192.417C401.229 193.955 402.476 195.202 404.014 195.202Z" fill="#FE5B52"/>
<path opacity="0.2" d="M392.829 194.915C392.829 195.83 392.391 196.636 391.707 197.136C391.269 195.584 390.962 193.901 390.747 192.218C391.945 192.533 392.829 193.624 392.829 194.915Z" fill="#FE5B52"/>
<path d="M194.301 284.666H140.848V288.264H194.301V284.666Z" fill="url(#paint35_linear_1_1438)"/>
<path d="M194.297 284.667H149.156L166.252 242.983H211.394L194.297 284.667Z" fill="#151515"/>
<path d="M194.555 285.052H148.583L165.994 242.6H211.966L194.555 285.052ZM149.729 284.284H194.04L210.821 243.368H166.51L149.729 284.284Z" fill="url(#paint36_linear_1_1438)"/>
<path d="M190.4 281.165H154.924L168.36 248.406H203.836L190.4 281.165Z" fill="#3D3D3D"/>
<path d="M176.326 289.416H175.558V410.811H176.326V289.416Z" fill="#656565"/>
<path d="M219.056 288.268H132.828V295.126H219.056V288.268Z" fill="#828283"/>
<path d="M63.2449 340.408H62.4766V410.811H63.2449V340.408Z" fill="#656565"/>
<path d="M83.9476 343.674H41.7734C42.6687 339.392 46.4436 336.325 50.8177 336.325H74.9033C79.2775 336.325 83.0523 339.392 83.9476 343.674Z" fill="#62626D"/>
<path d="M73.808 410.606H51.9126C51.9126 407.944 54.0708 405.786 56.733 405.786H68.9879C71.6498 405.786 73.808 407.944 73.808 410.606Z" fill="#62626D"/>
<path d="M95.3972 235.949C96.476 237.5 98.0222 239.695 98.1934 241.615C98.4418 244.404 93.9778 242.449 93.9253 242.69C93.925 242.689 95.3972 235.949 95.3972 235.949Z" fill="#D28572"/>
<path d="M88.5799 239.232H74.4653V259.917H88.5799V239.232Z" fill="#FFBC96"/>
<path d="M88.5796 242.78V257.548C84.132 254.754 80.2874 250.604 76.9644 245.815L88.5796 242.78Z" fill="#656565"/>
<path d="M96.513 237.206C96.0735 244.352 93.3243 252.434 85.8213 250.44C79.928 248.874 73.4414 243.912 73.4414 236.753C73.4414 229.594 78.3961 223.79 84.5084 223.79C88.3284 223.79 93.138 225.644 95.4017 229.225C96.7598 231.373 96.7048 234.09 96.513 237.206Z" fill="#FFBC96"/>
<path d="M84.0213 235.132C86.0194 229.833 90.5933 229.312 90.5933 229.312C90.5933 229.312 101.183 239.786 100.527 228.964C100.006 220.363 91.6005 221.176 91.6005 221.176C87.494 215.83 80.9082 217.922 78.5063 221.021C76.1043 224.121 76.9566 222.339 71.3005 224.353C65.6444 226.367 68.6662 234.968 67.6591 235.587C60.1435 235.587 61.5382 243.026 61.5382 243.026L79.3299 248.829L83.6156 237.13L84.0213 235.132Z" fill="black"/>
<path d="M85.8768 235.74C86.9768 237.645 86.6796 239.876 85.2123 240.723C83.7453 241.57 81.6643 240.712 80.564 238.807C79.464 236.901 79.7612 234.67 81.2285 233.823C82.6957 232.976 84.7768 233.834 85.8768 235.74Z" fill="#FFBC96"/>
<path d="M83.6048 238.035C83.3546 237.552 83.1444 237.083 82.8072 236.754C82.6422 236.588 82.4504 236.454 82.2325 236.336C82.0146 236.218 81.7721 236.12 81.5234 236.002L81.5616 235.802C81.8437 235.787 82.1298 235.82 82.4108 235.914C82.6911 236.006 82.9634 236.169 83.1773 236.39C83.3915 236.611 83.5467 236.877 83.6432 237.15C83.7419 237.423 83.7944 237.704 83.8024 237.985L83.6048 238.035Z" fill="#656565"/>
<path d="M76.9538 225.233C80.2526 225.076 82.7895 222.053 82.6203 218.479C82.4511 214.905 79.6397 212.135 76.341 212.291C73.0423 212.447 70.5053 215.471 70.6746 219.045C70.8438 222.618 73.6551 225.389 76.9538 225.233Z" fill="black"/>
<path opacity="0.2" d="M90.3758 243.945C91.8611 243.945 93.0651 242.741 93.0651 241.256C93.0651 239.771 91.8611 238.567 90.3758 238.567C88.8906 238.567 87.6865 239.771 87.6865 241.256C87.6865 242.741 88.8906 243.945 90.3758 243.945Z" fill="#FE5B52"/>
<path d="M100.941 310.793L55.7378 305.03L64.259 260.104C64.8583 256.961 66.9483 254.295 69.8604 252.973C72.2884 251.867 75.0622 251.798 77.5518 252.773L92.9575 259.62C95.9234 260.934 97.9673 263.723 98.3361 266.942L99.2044 281.618L100.196 298.253L100.941 310.793Z" fill="url(#paint37_linear_1_1438)"/>
<path d="M142.305 278.521L154.269 275.004C155.132 274.751 156.058 274.89 156.807 275.387C160.081 277.561 168.799 283.713 166.598 286.228C165.499 287.483 155.495 284.54 155.495 284.54L141.009 288.582L142.305 278.521Z" fill="#FFBC96"/>
<path d="M100.195 298.253C96.4305 293.458 94.1945 287.127 93.4492 279.29L99.2043 281.618L100.195 298.253Z" fill="#656565"/>
<path d="M91.5922 259.056L93.3933 259.832C97.1011 261.43 100.424 263.804 103.138 266.793L117.973 283.131L142.304 278.521L145.506 291.583L114.933 301.138C112.519 301.568 110.053 300.735 108.394 298.93L86.3418 274.935L91.5922 259.056Z" fill="url(#paint38_linear_1_1438)"/>
<path d="M117.69 283.391C117.618 283.313 110.38 275.432 104.111 268.404C97.9148 261.456 88.4672 258.078 88.3726 258.045L88.6274 257.32C88.7239 257.353 98.3533 260.793 104.685 267.892C110.95 274.916 118.183 282.793 118.256 282.871L117.69 283.391Z" fill="#656565"/>
<path d="M88.1502 277.47L87.5981 278.005L108.113 299.18L108.665 298.646L88.1502 277.47Z" fill="#656565"/>
<path d="M99.3023 378.746L89.5508 397.741L114.185 410.387L107.63 395.396L112.979 383.517L99.3023 378.746Z" fill="#62626D"/>
<path d="M107.529 395.023L100.53 397.084L100.747 397.821L107.746 395.76L107.529 395.023Z" fill="#656565"/>
<path d="M114.643 391.229L92.3267 382.902L107.609 335.35C110.236 328.308 118.329 324.825 125.684 327.57C133.039 330.314 136.872 338.247 134.245 345.288L114.643 391.229Z" fill="#1E1E1E"/>
<path d="M136.286 388.013L138.464 410.616H166.155L153.477 400.273L150.5 387.245L136.286 388.013Z" fill="#62626D"/>
<path d="M153.291 399.917L146.728 403.535L147.099 404.208L153.662 400.59L153.291 399.917Z" fill="#656565"/>
<path d="M156.263 390.703L132.06 394.545L115.486 345.807L112.466 336.917L71.305 337.248C61.1241 337.478 53.0255 328.757 54.0244 318.615L55.7378 305.03L96.4613 310.155L123.224 313.098C134.365 315.019 137.784 321.765 140.105 330.432L156.263 390.703Z" fill="#1E1E1E"/>
<path d="M115.486 345.807L112.466 336.917L118.037 336.725C118.552 340.075 117.223 343.817 115.486 345.807Z" fill="#0B0B0B"/>
<defs>
<linearGradient id="paint0_linear_1_1438" x1="170.188" y1="0" x2="170.188" y2="48.464" gradientUnits="userSpaceOnUse">
<stop stop-color="#4169E1"/>
<stop offset="1" stop-color="#7ADEFF"/>
</linearGradient>
<linearGradient id="paint1_linear_1_1438" x1="410.805" y1="153.05" x2="410.805" y2="316.992" gradientUnits="userSpaceOnUse">
<stop stop-color="#4169E1"/>
<stop offset="1" stop-color="#7ADEFF"/>
</linearGradient>
<linearGradient id="paint2_linear_1_1438" x1="78.5394" y1="119.182" x2="78.5394" y2="227.11" gradientUnits="userSpaceOnUse">
<stop stop-color="#4169E1"/>
<stop offset="1" stop-color="#7ADEFF"/>
</linearGradient>
<linearGradient id="paint3_linear_1_1438" x1="294.637" y1="17.8367" x2="294.637" y2="43.7679" gradientUnits="userSpaceOnUse">
<stop stop-color="#4169E1"/>
<stop offset="1" stop-color="#7ADEFF"/>
</linearGradient>
<linearGradient id="paint4_linear_1_1438" x1="250.969" y1="81.1201" x2="250.969" y2="333.137" gradientUnits="userSpaceOnUse">
<stop stop-color="#4169E1"/>
<stop offset="1" stop-color="#7ADEFF"/>
</linearGradient>
<linearGradient id="paint5_linear_1_1438" x1="250.969" y1="81.1201" x2="250.969" y2="104.555" gradientUnits="userSpaceOnUse">
<stop stop-color="#4169E1"/>
<stop offset="1" stop-color="#7ADEFF"/>
</linearGradient>
<linearGradient id="paint6_linear_1_1438" x1="92.2326" y1="88.7395" x2="92.2326" y2="96.9352" gradientUnits="userSpaceOnUse">
<stop stop-color="#4169E1"/>
<stop offset="1" stop-color="#7ADEFF"/>
</linearGradient>
<linearGradient id="paint7_linear_1_1438" x1="107.856" y1="88.7395" x2="107.856" y2="96.9355" gradientUnits="userSpaceOnUse">
<stop stop-color="#4169E1"/>
<stop offset="1" stop-color="#7ADEFF"/>
</linearGradient>
<linearGradient id="paint8_linear_1_1438" x1="123.48" y1="88.7395" x2="123.48" y2="96.9352" gradientUnits="userSpaceOnUse">
<stop stop-color="#4169E1"/>
<stop offset="1" stop-color="#7ADEFF"/>
</linearGradient>
<linearGradient id="paint9_linear_1_1438" x1="186.23" y1="88.2751" x2="186.23" y2="97.3997" gradientUnits="userSpaceOnUse">
<stop stop-color="#4169E1"/>
<stop offset="1" stop-color="#7ADEFF"/>
</linearGradient>
<linearGradient id="paint10_linear_1_1438" x1="254.555" y1="146.615" x2="254.555" y2="279.512" gradientUnits="userSpaceOnUse">
<stop stop-color="#4169E1"/>
<stop offset="1" stop-color="#7ADEFF"/>
</linearGradient>
<linearGradient id="paint11_linear_1_1438" x1="254.597" y1="188.36" x2="254.597" y2="237.425" gradientUnits="userSpaceOnUse">
<stop stop-color="#4169E1"/>
<stop offset="1" stop-color="#7ADEFF"/>
</linearGradient>
<linearGradient id="paint12_linear_1_1438" x1="419.232" y1="35.5425" x2="419.232" y2="124.922" gradientUnits="userSpaceOnUse">
<stop stop-color="#4169E1"/>
<stop offset="1" stop-color="#7ADEFF"/>
</linearGradient>
<linearGradient id="paint13_linear_1_1438" x1="369.187" y1="96.333" x2="369.187" y2="111.65" gradientUnits="userSpaceOnUse">
<stop stop-color="#4169E1"/>
<stop offset="1" stop-color="#7ADEFF"/>
</linearGradient>
<linearGradient id="paint14_linear_1_1438" x1="385.869" y1="89.3337" x2="385.869" y2="111.65" gradientUnits="userSpaceOnUse">
<stop stop-color="#4169E1"/>
<stop offset="1" stop-color="#7ADEFF"/>
</linearGradient>
<linearGradient id="paint15_linear_1_1438" x1="402.55" y1="95.0557" x2="402.55" y2="111.65" gradientUnits="userSpaceOnUse">
<stop stop-color="#4169E1"/>
<stop offset="1" stop-color="#7ADEFF"/>
</linearGradient>
<linearGradient id="paint16_linear_1_1438" x1="419.232" y1="83.3792" x2="419.232" y2="111.65" gradientUnits="userSpaceOnUse">
<stop stop-color="#4169E1"/>
<stop offset="1" stop-color="#7ADEFF"/>
</linearGradient>
<linearGradient id="paint17_linear_1_1438" x1="435.914" y1="75.9097" x2="435.914" y2="111.65" gradientUnits="userSpaceOnUse">
<stop stop-color="#4169E1"/>
<stop offset="1" stop-color="#7ADEFF"/>
</linearGradient>
<linearGradient id="paint18_linear_1_1438" x1="452.595" y1="65.2427" x2="452.595" y2="111.65" gradientUnits="userSpaceOnUse">
<stop stop-color="#4169E1"/>
<stop offset="1" stop-color="#7ADEFF"/>
</linearGradient>
<linearGradient id="paint19_linear_1_1438" x1="469.277" y1="48.8154" x2="469.277" y2="111.65" gradientUnits="userSpaceOnUse">
<stop stop-color="#4169E1"/>
<stop offset="1" stop-color="#7ADEFF"/>
</linearGradient>
<linearGradient id="paint20_linear_1_1438" x1="368.331" y1="56.2715" x2="368.331" y2="63.7769" gradientUnits="userSpaceOnUse">
<stop stop-color="#4169E1"/>
<stop offset="1" stop-color="#7ADEFF"/>
</linearGradient>
<linearGradient id="paint21_linear_1_1438" x1="404.334" y1="59.7444" x2="404.334" y2="61.6681" gradientUnits="userSpaceOnUse">
<stop stop-color="#4169E1"/>
<stop offset="1" stop-color="#7ADEFF"/>
</linearGradient>
<linearGradient id="paint22_linear_1_1438" x1="372.252" y1="132.901" x2="372.252" y2="159.859" gradientUnits="userSpaceOnUse">
<stop stop-color="#4169E1"/>
<stop offset="1" stop-color="#7ADEFF"/>
</linearGradient>
<linearGradient id="paint23_linear_1_1438" x1="63.7897" y1="177.75" x2="63.7897" y2="262.06" gradientUnits="userSpaceOnUse">
<stop stop-color="#4169E1"/>
<stop offset="1" stop-color="#7ADEFF"/>
</linearGradient>
<linearGradient id="paint24_linear_1_1438" x1="61.8652" y1="193.638" x2="61.8652" y2="242.71" gradientUnits="userSpaceOnUse">
<stop stop-color="#4169E1"/>
<stop offset="1" stop-color="#7ADEFF"/>
</linearGradient>
<linearGradient id="paint25_linear_1_1438" x1="21.9909" y1="223.966" x2="21.9909" y2="228.192" gradientUnits="userSpaceOnUse">
<stop stop-color="#4169E1"/>
<stop offset="1" stop-color="#7ADEFF"/>
</linearGradient>
<linearGradient id="paint26_linear_1_1438" x1="38.7029" y1="239.526" x2="38.7029" y2="243.752" gradientUnits="userSpaceOnUse">
<stop stop-color="#4169E1"/>
<stop offset="1" stop-color="#7ADEFF"/>
</linearGradient>
<linearGradient id="paint27_linear_1_1438" x1="50.2287" y1="207.254" x2="50.2287" y2="211.48" gradientUnits="userSpaceOnUse">
<stop stop-color="#4169E1"/>
<stop offset="1" stop-color="#7ADEFF"/>
</linearGradient>
<linearGradient id="paint28_linear_1_1438" x1="63.7898" y1="191.438" x2="63.7898" y2="192.207" gradientUnits="userSpaceOnUse">
<stop stop-color="#4169E1"/>
<stop offset="1" stop-color="#7ADEFF"/>
</linearGradient>
<linearGradient id="paint29_linear_1_1438" x1="321.849" y1="308.914" x2="321.849" y2="381.328" gradientUnits="userSpaceOnUse">
<stop stop-color="#4169E1"/>
<stop offset="1" stop-color="#7ADEFF"/>
</linearGradient>
<linearGradient id="paint30_linear_1_1438" x1="283.03" y1="307.593" x2="283.03" y2="380.26" gradientUnits="userSpaceOnUse">
<stop stop-color="#4169E1"/>
<stop offset="1" stop-color="#7ADEFF"/>
</linearGradient>
<linearGradient id="paint31_linear_1_1438" x1="300.9" y1="374.724" x2="300.9" y2="411" gradientUnits="userSpaceOnUse">
<stop stop-color="#4169E1"/>
<stop offset="1" stop-color="#7ADEFF"/>
</linearGradient>
<linearGradient id="paint32_linear_1_1438" x1="443.248" y1="166.148" x2="443.248" y2="229.731" gradientUnits="userSpaceOnUse">
<stop stop-color="#4169E1"/>
<stop offset="1" stop-color="#7ADEFF"/>
</linearGradient>
<linearGradient id="paint33_linear_1_1438" x1="412.83" y1="205.911" x2="412.83" y2="272.16" gradientUnits="userSpaceOnUse">
<stop stop-color="#4169E1"/>
<stop offset="1" stop-color="#7ADEFF"/>
</linearGradient>
<linearGradient id="paint34_linear_1_1438" x1="380.174" y1="207.741" x2="380.174" y2="261.45" gradientUnits="userSpaceOnUse">
<stop stop-color="#4169E1"/>
<stop offset="1" stop-color="#7ADEFF"/>
</linearGradient>
<linearGradient id="paint35_linear_1_1438" x1="167.574" y1="284.666" x2="167.574" y2="288.264" gradientUnits="userSpaceOnUse">
<stop stop-color="#4169E1"/>
<stop offset="1" stop-color="#7ADEFF"/>
</linearGradient>
<linearGradient id="paint36_linear_1_1438" x1="180.275" y1="242.6" x2="180.275" y2="285.052" gradientUnits="userSpaceOnUse">
<stop stop-color="#4169E1"/>
<stop offset="1" stop-color="#7ADEFF"/>
</linearGradient>
<linearGradient id="paint37_linear_1_1438" x1="78.3393" y1="252.089" x2="78.3393" y2="310.793" gradientUnits="userSpaceOnUse">
<stop stop-color="#4169E1"/>
<stop offset="1" stop-color="#7ADEFF"/>
</linearGradient>
<linearGradient id="paint38_linear_1_1438" x1="115.924" y1="259.056" x2="115.924" y2="301.249" gradientUnits="userSpaceOnUse">
<stop stop-color="#4169E1"/>
<stop offset="1" stop-color="#7ADEFF"/>
</linearGradient>
</defs>
</svg>
