<svg width="339" height="226" viewBox="0 0 339 226" fill="none" xmlns="http://www.w3.org/2000/svg">
<path d="M36.5715 204.916C36.5715 204.916 -8.29542 169.51 11.5793 142.052C31.454 114.595 43.8672 110.738 25.629 79.2127C7.39039 47.6875 37.0845 -20.9809 90.6121 17.755C144.14 56.4909 178.507 62.9167 201.734 36.1526C239.773 -7.67761 292.184 -15.2769 303.557 35.2793C314.929 85.8355 279.537 89.7277 284.908 110.671C290.28 131.615 358.947 149.098 309.06 204.916L36.5715 204.916Z" fill="#232323"/>
<path d="M167.989 212.217C254.373 212.217 324.4 209.636 324.4 206.452C324.4 203.268 254.373 200.687 167.989 200.687C81.606 200.687 11.5785 203.268 11.5785 206.452C11.5785 209.636 81.606 212.217 167.989 212.217Z" fill="#161616"/>
<path d="M275.198 197.482H60.781V73.8403C60.781 69.0861 64.6347 65.2324 69.3889 65.2324H266.589C271.344 65.2324 275.197 69.0866 275.197 73.8403L275.198 197.482Z" fill="black"/>
<path d="M299.459 197.48V204.376C299.459 204.558 299.447 204.74 299.412 204.916H36.5712C36.5361 204.74 36.5243 204.558 36.5243 204.376V197.48H299.459Z" fill="#999999"/>
<path d="M299.411 204.916C299.159 206.689 297.633 208.044 295.79 208.044H40.1923C38.3435 208.044 36.8234 206.689 36.5712 204.916H299.411Z" fill="#CBCACF"/>
<path d="M186.624 201.688H149.356C148.41 201.688 147.644 200.922 147.644 199.977V197.482H188.336V199.977C188.336 200.922 187.57 201.688 186.624 201.688Z" fill="#CCCCCC"/>
<path d="M275.199 191.222H60.7822V197.483H275.199V191.222Z" fill="#545356"/>
<path d="M266.59 74.623H69.3894V191.222H266.59V74.623Z" fill="#6A88DB"/>
<mask id="mask0_1_9438" style="mask-type:luminance" maskUnits="userSpaceOnUse" x="69" y="74" width="198" height="118">
<path d="M266.59 74.623H69.3894V191.222H266.59V74.623Z" fill="white"/>
</mask>
<g mask="url(#mask0_1_9438)">
<path d="M56.6262 74.5273H284.908" stroke="#B3C9F4" stroke-width="0.5944" stroke-miterlimit="10"/>
<path d="M56.6262 91.6343H284.908" stroke="#B3C9F4" stroke-width="0.5944" stroke-miterlimit="10"/>
<path d="M56.6262 108.741H284.908" stroke="#B3C9F4" stroke-width="0.5944" stroke-miterlimit="10"/>
<path d="M56.6262 125.848H284.908" stroke="#B3C9F4" stroke-width="0.5944" stroke-miterlimit="10"/>
<path d="M56.6262 142.954H284.908" stroke="#B3C9F4" stroke-width="0.5944" stroke-miterlimit="10"/>
<path d="M56.6262 160.06H284.908" stroke="#B3C9F4" stroke-width="0.5944" stroke-miterlimit="10"/>
<path d="M56.6262 177.167H284.908" stroke="#B3C9F4" stroke-width="0.5944" stroke-miterlimit="10"/>
<path d="M69.3894 65.2324V200.332" stroke="#B3C9F4" stroke-width="0.5944" stroke-miterlimit="10"/>
<path d="M86.401 65.2324V200.332" stroke="#B3C9F4" stroke-width="0.5944" stroke-miterlimit="10"/>
<path d="M103.411 65.2324V200.332" stroke="#B3C9F4" stroke-width="0.5944" stroke-miterlimit="10"/>
<path d="M120.422 65.2324V200.332" stroke="#B3C9F4" stroke-width="0.5944" stroke-miterlimit="10"/>
<path d="M137.434 65.2324V200.332" stroke="#B3C9F4" stroke-width="0.5944" stroke-miterlimit="10"/>
<path d="M154.446 65.2324V200.332" stroke="#B3C9F4" stroke-width="0.5944" stroke-miterlimit="10"/>
<path d="M171.457 65.2324V200.332" stroke="#B3C9F4" stroke-width="0.5944" stroke-miterlimit="10"/>
<path d="M188.468 65.2324V200.332" stroke="#B3C9F4" stroke-width="0.5944" stroke-miterlimit="10"/>
<path d="M205.478 65.2324V200.332" stroke="#B3C9F4" stroke-width="0.5944" stroke-miterlimit="10"/>
<path d="M222.49 65.2324V200.332" stroke="#B3C9F4" stroke-width="0.5944" stroke-miterlimit="10"/>
<path d="M239.501 65.2324V200.332" stroke="#B3C9F4" stroke-width="0.5944" stroke-miterlimit="10"/>
<path d="M256.512 65.2324V200.332" stroke="#B3C9F4" stroke-width="0.5944" stroke-miterlimit="10"/>
</g>
<path d="M79.4607 107.835V146.38" stroke="black" stroke-width="1.1888" stroke-miterlimit="10"/>
<path d="M95.0139 126.481V159.395" stroke="black" stroke-width="1.1888" stroke-miterlimit="10"/>
<path d="M110.567 98.7314V142.938" stroke="black" stroke-width="1.1888" stroke-miterlimit="10"/>
<path d="M141.674 102.077V146.284" stroke="black" stroke-width="1.1888" stroke-miterlimit="10"/>
<path d="M157.226 119.586V172.111" stroke="black" stroke-width="1.1888" stroke-miterlimit="10"/>
<path d="M172.779 114.399V157.047" stroke="black" stroke-width="1.1888" stroke-miterlimit="10"/>
<path d="M203.912 134.256V157.047" stroke="black" stroke-width="1.1888" stroke-miterlimit="10"/>
<path d="M234.991 106.635V150.2" stroke="black" stroke-width="1.1888" stroke-miterlimit="10"/>
<path d="M250.544 100.178V157.048" stroke="black" stroke-width="1.1888" stroke-miterlimit="10"/>
<path d="M188.331 109.215V148.636" stroke="black" stroke-width="1.1888" stroke-miterlimit="10"/>
<path d="M219.438 83.8564V142.939" stroke="black" stroke-width="1.1888" stroke-miterlimit="10"/>
<path d="M126.12 80.6527V128.632" stroke="black" stroke-width="1.1888" stroke-miterlimit="10"/>
<path d="M83.8634 113.616H75.0596V142.052H83.8634V113.616Z" fill="#26202F"/>
<path d="M99.4154 129.463H90.6121V153.918H99.4154V129.463Z" fill="#7ADEFF"/>
<path d="M114.969 101.751H106.165V138.525H114.969V101.751Z" fill="#26202F"/>
<path d="M130.522 85.0469H121.718V124.181H130.522V85.0469Z" fill="#7ADEFF"/>
<path d="M146.074 106.156H137.271V141.69H146.074V106.156Z" fill="#26202F"/>
<path d="M161.628 124.181H152.824V167.416H161.628V124.181Z" fill="#7ADEFF"/>
<path d="M177.182 118.337H168.378V153.917H177.182V118.337Z" fill="#26202F"/>
<path d="M192.733 112.052H183.93V145.754H192.733V112.052Z" fill="#7ADEFF"/>
<path d="M208.287 136.424H199.483V153.917H208.287V136.424Z" fill="#26202F"/>
<path d="M223.84 87.5331H215.036V139.699H223.84V87.5331Z" fill="#7ADEFF"/>
<path d="M239.394 109.288H230.59V146.38H239.394V109.288Z" fill="#26202F"/>
<path d="M254.946 101.751H246.143V153.918H254.946V101.751Z" fill="#7ADEFF"/>
<path d="M101.556 35.0888C101.328 35.4014 101.113 35.7198 100.912 36.0451C99.1305 38.9287 98.4398 42.3154 98.9612 45.7016C99.5417 49.4689 101.554 52.7864 104.629 55.0406C107.705 57.2947 111.473 58.2165 115.241 57.6364C119.009 57.0553 122.327 55.0426 124.58 51.9679C126.836 48.8858 127.755 45.1235 127.176 41.3557C126.595 37.5879 124.582 34.2708 121.508 32.0171C115.159 27.3627 106.209 28.7416 101.556 35.0888Z" fill="#3D3D3D"/>
<path d="M101.25 34.866C96.4659 41.3925 97.8783 50.5617 104.405 55.346C110.932 60.1303 120.101 58.7178 124.885 52.1913C129.67 45.6648 128.257 36.4956 121.731 31.7113C115.204 26.9266 106.034 28.3395 101.25 34.866ZM121.506 32.0164C124.581 34.2701 126.594 37.5877 127.174 41.355C127.755 45.1233 126.835 48.8851 124.579 51.9672C122.326 55.0419 119.008 57.0551 115.24 57.6357C111.472 58.2157 107.704 57.294 104.628 55.0399C101.553 52.7857 99.54 49.4687 98.96 45.7009C98.4386 42.3147 99.1293 38.9285 100.911 36.0444C101.111 35.7191 101.327 35.4006 101.555 35.0881C106.209 28.7418 115.159 27.363 121.506 32.0164Z" fill="#7ADEFF"/>
<path d="M101.251 34.8664C98.9363 38.0196 97.9909 41.89 98.5872 45.7586C99.1831 49.6266 101.249 53.031 104.406 55.3444C107.562 57.6588 111.43 58.6047 115.298 58.0093C119.166 57.4134 122.571 55.3469 124.885 52.1898C125.12 51.8699 125.341 51.543 125.547 51.2088C127.375 48.2497 128.085 44.7727 127.549 41.2976C126.954 37.4296 124.888 34.0252 121.73 31.7113C115.214 26.9349 106.028 28.3503 101.251 34.8664ZM121.295 32.3062C124.292 34.5035 126.254 37.7372 126.82 41.4097C127.385 45.0827 126.489 48.7503 124.29 51.7548C122.093 54.752 118.859 56.7144 115.186 57.2806C111.513 57.8459 107.84 56.9479 104.842 54.75C101.845 52.5531 99.8822 49.319 99.3164 45.6465C98.8084 42.3457 99.4813 39.0445 101.218 36.2334C101.414 35.9165 101.623 35.6059 101.847 35.3013C106.382 29.1145 115.106 27.7702 121.295 32.3062Z" fill="black"/>
<g opacity="0.4">
<path d="M107.388 41.5112L105.609 40.4128L106.59 38.8251L108.321 39.8939C109.387 38.3813 110.811 37.1767 112.033 36.725L113.431 38.795C112.353 39.226 111.218 40.1042 110.401 41.1785L113.052 42.8165C114.57 41.3192 116.373 39.7132 118.644 41.1163C120.327 42.1555 121.017 44.2709 119.753 46.9561L121.515 48.0451L120.534 49.6328L118.803 48.5635C117.972 49.6955 116.939 50.6582 115.844 51.1884L114.381 49.1875C115.341 48.6622 116.121 48.0037 116.707 47.2686L114.008 45.6009C112.506 47.1086 110.723 48.6825 108.484 47.2997C106.833 46.2797 106.15 44.1905 107.388 41.5112ZM115.386 44.2591L117.641 45.6518C117.97 44.6925 117.716 44.0749 117.192 43.7511C116.636 43.408 116.041 43.6978 115.386 44.2591ZM109.873 44.6264C110.429 44.9695 111.015 44.6955 111.675 44.1599L109.484 42.8062C109.168 43.7081 109.365 44.3124 109.873 44.6264Z" fill="#F5F5F5"/>
</g>
<path d="M107.131 41.1694L105.353 40.071L106.334 38.4833L108.064 39.5521C109.13 38.0395 110.555 36.8349 111.776 36.3832L113.174 38.4532C112.096 38.8842 110.961 39.7624 110.144 40.8367L112.795 42.4747C114.313 40.9774 116.116 39.3714 118.387 40.774C120.07 41.8137 120.76 43.9286 119.496 46.6138L121.258 47.7029L120.277 49.2905L118.546 48.2212C117.715 49.3532 116.682 50.3159 115.587 50.8461L114.124 48.8452C115.085 48.32 115.865 47.6614 116.45 46.9263L113.751 45.2586C112.249 46.7663 110.466 48.3402 108.227 46.9569C106.576 45.9384 105.893 43.8492 107.131 41.1694ZM115.13 43.9173L117.384 45.31C117.714 44.3507 117.459 43.7331 116.935 43.4093C116.379 43.0662 115.784 43.356 115.13 43.9173ZM109.616 44.2846C110.172 44.6277 110.758 44.3537 111.418 43.8181L109.227 42.4644C108.911 43.3663 109.108 43.9706 109.616 44.2846Z" fill="#F5F5F5"/>
<mask id="mask1_1_9438" style="mask-type:luminance" maskUnits="userSpaceOnUse" x="100" y="31" width="26" height="25">
<path d="M121.87 52.3309C126.731 47.4698 126.731 39.5883 121.87 34.7272C117.008 29.866 109.127 29.866 104.266 34.7272C99.4046 39.5883 99.4046 47.4698 104.266 52.3309C109.127 57.1921 117.008 57.1921 121.87 52.3309Z" fill="white"/>
</mask>
<g mask="url(#mask1_1_9438)">
<g opacity="0.2">
<path d="M112.885 24.898L109.71 25.3872L115.529 63.1449L118.703 62.6557L112.885 24.898Z" fill="white"/>
<path d="M108.538 27.2418L102.842 28.119L108.656 65.8767L114.352 64.9996L108.538 27.2418Z" fill="white"/>
<path d="M116.294 24.6761L114.707 24.9205L120.522 62.6782L122.109 62.4338L116.294 24.6761Z" fill="white"/>
</g>
</g>
<path d="M280.265 12.3757C279.97 12.2384 279.673 12.1135 279.372 12.0014C276.707 11.0067 273.807 10.9919 271.104 11.9743C268.098 13.0678 265.696 15.2677 264.343 18.1671C262.991 21.0675 262.848 24.3203 263.942 27.3274C265.036 30.3339 267.235 32.7357 270.135 34.0884C273.041 35.4416 276.288 35.5832 279.295 34.4897C282.302 33.3962 284.703 31.1964 286.056 28.297C288.849 22.3101 286.25 15.1684 280.265 12.3757Z" fill="#3D3D3D"/>
<path d="M280.399 12.0877C274.244 9.21643 266.927 11.8784 264.056 18.0331C261.185 24.1879 263.847 31.5048 270.001 34.376C276.156 37.2473 283.473 34.5854 286.344 28.4306C289.215 22.2758 286.554 14.959 280.399 12.0877ZM286.056 28.2968C284.704 31.1962 282.302 33.3961 279.296 34.4896C276.289 35.5831 273.041 35.4414 270.136 34.0882C267.236 32.7355 265.036 30.3337 263.942 27.3272C262.849 24.3202 262.991 21.0673 264.344 18.1669C265.697 15.267 268.099 13.0677 271.105 11.9741C273.808 10.9912 276.708 11.006 279.373 12.0013C279.674 12.1134 279.971 12.2383 280.265 12.3755C286.25 15.1688 288.849 22.3104 286.056 28.2968Z" fill="#7ADEFF"/>
<path d="M280.398 12.0887C277.424 10.6989 274.082 10.5533 270.996 11.6769C267.909 12.7996 265.444 15.0572 264.056 18.0341C262.667 21.0105 262.521 24.3498 263.643 27.4363C264.766 30.5228 267.024 32.9878 270.002 34.3765C270.303 34.5177 270.608 34.6456 270.917 34.7611C273.652 35.782 276.63 35.7978 279.404 34.7882C282.491 33.6656 284.955 31.408 286.344 28.4306C289.209 22.2857 286.543 14.955 280.398 12.0887ZM285.782 28.1694C284.464 30.9958 282.123 33.1403 279.192 34.2062C276.261 35.2721 273.096 35.1343 270.262 33.8152C267.436 32.4966 265.292 30.1555 264.225 27.2245C263.159 24.293 263.298 21.1221 264.617 18.2953C265.935 15.4684 268.276 13.3244 271.207 12.2585C273.841 11.3003 276.668 11.3151 279.266 12.2847C279.559 12.3938 279.849 12.5157 280.136 12.6495C285.971 15.3717 288.504 22.3336 285.782 28.1694Z" fill="black"/>
<g opacity="0.4">
<path d="M276.386 18.2456L277 16.6027L278.467 17.1507L277.87 18.7497C279.29 19.3806 280.514 20.3556 281.086 21.2877L279.61 22.7767C279.079 21.9601 278.171 21.1692 277.153 20.6721L276.238 23.1227C277.718 24.1269 279.335 25.3493 278.552 27.4479C277.971 29.003 276.343 29.9168 273.926 29.3155L273.318 30.9447L271.85 30.3967L272.448 28.7971C271.38 28.298 270.418 27.6049 269.803 26.7898L271.211 25.2589C271.801 25.9639 272.47 26.4981 273.171 26.8604L274.102 24.3658C272.616 23.376 271.028 22.165 271.801 20.096C272.37 18.5685 273.978 17.6646 276.386 18.2456ZM275.433 25.2792L274.655 27.363C275.498 27.4775 275.965 27.1665 276.145 26.6822C276.338 26.1688 276.001 25.7259 275.433 25.2792ZM274.229 20.8005C274.037 21.3139 274.358 21.7518 274.907 22.2075L275.663 20.1824C274.869 20.0698 274.404 20.331 274.229 20.8005Z" fill="#F5F5F5"/>
</g>
<path d="M276.171 17.9585L276.785 16.3156L278.252 16.8635L277.655 18.4626C279.075 19.093 280.299 20.0685 280.871 21.0006L279.395 22.4896C278.864 21.673 277.956 20.8821 276.938 20.385L276.023 22.8356C277.504 23.8398 279.12 25.0621 278.337 27.1608C277.756 28.7159 276.128 29.6297 273.711 29.0279L273.103 30.6571L271.635 30.1091L272.232 28.5095C271.164 28.0104 270.203 27.3173 269.588 26.5022L270.996 24.9713C271.585 25.6763 272.255 26.2105 272.956 26.5728L273.887 24.0782C272.4 23.0884 270.813 21.8774 271.585 19.8084C272.155 18.2814 273.763 17.3775 276.171 17.9585ZM275.217 24.992L274.439 27.0759C275.282 27.1899 275.749 26.8794 275.93 26.3951C276.122 25.8822 275.786 25.4388 275.217 24.992ZM274.013 20.5138C273.822 21.0273 274.143 21.4652 274.692 21.9208L275.448 19.8957C274.653 19.7832 274.188 20.0443 274.013 20.5138Z" fill="#F5F5F5"/>
<mask id="mask2_1_9438" style="mask-type:luminance" maskUnits="userSpaceOnUse" x="264" y="12" width="22" height="22">
<path d="M285.574 24.5544C286.302 18.8309 282.252 13.6008 276.529 12.8726C270.805 12.1445 265.575 16.1941 264.847 21.9176C264.119 27.6411 268.168 32.8712 273.892 33.5993C279.615 34.3274 284.845 30.2779 285.574 24.5544Z" fill="white"/>
</mask>
<g mask="url(#mask2_1_9438)">
<g opacity="0.2">
<path d="M290.505 20.027L289.584 17.494L259.453 28.4568L260.375 30.9898L290.505 20.027Z" fill="white"/>
<path d="M287.88 16.8323L286.227 12.2874L256.096 23.2501L257.75 27.7951L287.88 16.8323Z" fill="white"/>
<path d="M291.259 22.7968L290.798 21.5303L260.667 32.493L261.128 33.7596L291.259 22.7968Z" fill="white"/>
</g>
</g>
<path d="M259.74 175.057C259.438 175.177 259.143 175.307 258.855 175.448C256.299 176.696 254.292 178.79 253.145 181.427C251.869 184.361 251.812 187.617 252.984 190.594C254.157 193.572 256.419 195.914 259.353 197.19C262.288 198.465 265.544 198.522 268.521 197.35C271.503 196.173 273.84 193.914 275.117 190.98C276.392 188.046 276.45 184.79 275.277 181.814C272.856 175.667 265.886 172.637 259.74 175.057Z" fill="#3D3D3D"/>
<path d="M259.624 174.762C253.305 177.252 250.2 184.392 252.689 190.711C255.178 197.03 262.319 200.135 268.638 197.646C274.957 195.157 278.062 188.016 275.573 181.697C273.083 175.378 265.943 172.273 259.624 174.762ZM275.277 181.814C276.45 184.791 276.393 188.047 275.117 190.98C273.841 193.915 271.503 196.173 268.521 197.35C265.544 198.522 262.288 198.465 259.354 197.19C256.42 195.914 254.158 193.572 252.985 190.594C251.812 187.618 251.869 184.361 253.145 181.427C254.292 178.79 256.299 176.696 258.855 175.448C259.143 175.307 259.438 175.177 259.741 175.058C265.886 172.637 272.856 175.667 275.277 181.814Z" fill="#4169E1"/>
<path d="M259.623 174.763C256.568 175.964 254.163 178.288 252.853 181.3C251.544 184.312 251.485 187.654 252.689 190.71C253.892 193.766 256.214 196.17 259.226 197.48C262.238 198.79 265.58 198.849 268.637 197.644C268.947 197.522 269.25 197.389 269.546 197.244C272.169 195.963 274.23 193.813 275.407 191.106C276.716 188.094 276.775 184.752 275.571 181.696C273.086 175.388 265.932 172.278 259.623 174.763ZM274.995 181.924C276.138 184.826 276.083 188 274.84 190.86C273.595 193.721 271.317 195.922 268.41 197.069C265.508 198.212 262.334 198.156 259.474 196.913C256.613 195.669 254.408 193.386 253.265 190.484C252.122 187.582 252.177 184.408 253.421 181.547C254.539 178.977 256.495 176.936 258.987 175.718C259.268 175.581 259.556 175.455 259.85 175.338C265.842 172.979 272.635 175.933 274.995 181.924Z" fill="black"/>
<g opacity="0.4">
<path d="M261.188 182.157L260.418 180.581L261.825 179.893L262.575 181.427C264.009 180.831 265.56 180.614 266.629 180.841L266.694 182.937C265.736 182.76 264.537 182.875 263.475 183.271L264.623 185.622C266.371 185.239 268.371 184.907 269.354 186.92C270.083 188.411 269.625 190.221 267.525 191.561L268.288 193.123L266.881 193.811L266.131 192.277C265.034 192.708 263.87 192.929 262.855 192.814L262.713 190.739C263.63 190.797 264.479 190.679 265.224 190.419L264.055 188.027C262.314 188.424 260.343 188.742 259.374 186.758C258.658 185.293 259.11 183.504 261.188 182.157ZM265.635 187.69L266.611 189.688C267.275 189.155 267.37 188.602 267.143 188.138C266.903 187.646 266.35 187.585 265.635 187.69ZM261.557 185.481C261.797 185.974 262.336 186.042 263.045 185.957L262.096 184.015C261.468 184.513 261.337 185.031 261.557 185.481Z" fill="#F5F5F5"/>
</g>
<path d="M260.973 181.87L260.204 180.294L261.611 179.606L262.361 181.14C263.795 180.544 265.345 180.327 266.415 180.554L266.48 182.649C265.522 182.473 264.323 182.588 263.261 182.984L264.409 185.334C266.157 184.951 268.157 184.62 269.14 186.632C269.869 188.124 269.41 189.934 267.311 191.273L268.074 192.836L266.667 193.524L265.917 191.99C264.82 192.421 263.656 192.641 262.641 192.527L262.499 190.452C263.416 190.509 264.265 190.391 265.01 190.132L263.841 187.74C262.1 188.137 260.129 188.455 259.159 186.471C258.444 185.006 258.895 183.217 260.973 181.87ZM265.42 187.403L266.397 189.401C267.06 188.868 267.156 188.316 266.929 187.851C266.688 187.359 266.135 187.298 265.42 187.403ZM261.342 185.194C261.583 185.687 262.122 185.755 262.83 185.67L261.881 183.728C261.253 184.227 261.122 184.744 261.342 185.194Z" fill="#F5F5F5"/>
<mask id="mask3_1_9438" style="mask-type:luminance" maskUnits="userSpaceOnUse" x="253" y="175" width="22" height="22">
<path d="M268.04 195.892C273.387 193.725 275.964 187.633 273.797 182.286C271.629 176.94 265.537 174.363 260.191 176.53C254.844 178.698 252.267 184.789 254.434 190.136C256.602 195.483 262.694 198.06 268.04 195.892Z" fill="white"/>
</mask>
<g mask="url(#mask3_1_9438)">
<g opacity="0.2">
<path d="M272.364 172.9L269.892 171.826L257.108 201.232L259.58 202.307L272.364 172.9Z" fill="white"/>
<path d="M268.238 172.61L263.802 170.682L251.018 200.088L255.454 202.016L268.238 172.61Z" fill="white"/>
<path d="M274.873 174.293L273.637 173.755L260.85 203.161L262.086 203.699L274.873 174.293Z" fill="white"/>
</g>
</g>
<path d="M20.4401 95.4502C20.1498 95.3046 19.856 95.1708 19.5588 95.0503C16.9236 93.9785 14.0247 93.8798 11.2951 94.7837C8.25793 95.7899 5.79396 97.9186 4.35783 100.778C2.92121 103.638 2.68474 106.885 3.69086 109.923C4.69749 112.96 6.82625 115.424 9.68567 116.86C12.5515 118.297 15.793 118.533 18.8307 117.527C21.8678 116.521 24.3318 114.392 25.7679 111.532C28.7325 105.629 26.3426 98.4158 20.4401 95.4502Z" fill="#3D3D3D"/>
<path d="M20.5827 95.1663C14.5138 92.1178 7.1224 94.5665 4.0739 100.635C1.0254 106.704 3.47407 114.096 9.54293 117.144C15.6118 120.192 23.0032 117.743 26.0517 111.675C29.1007 105.606 26.6515 98.2148 20.5827 95.1663ZM25.7683 111.532C24.3322 114.391 21.8677 116.521 18.8311 117.527C15.7935 118.533 12.5519 118.297 9.6861 116.86C6.82668 115.424 4.69792 112.96 3.6913 109.923C2.68566 106.885 2.92214 103.638 4.35826 100.778C5.79439 97.9186 8.25886 95.7898 11.2955 94.7837C14.0251 93.8798 16.924 93.9785 19.5593 95.0503C19.8565 95.1713 20.1502 95.3045 20.4405 95.4502C26.343 98.4157 28.7329 105.629 25.7683 111.532Z" fill="#7ADEFF"/>
<path d="M20.5823 95.167C17.6498 93.6914 14.3145 93.4495 11.1964 94.4828C8.07829 95.5156 5.54915 97.7006 4.0755 100.636C2.60038 103.571 2.35749 106.904 3.39027 110.022C4.42306 113.141 6.60859 115.67 9.54453 117.144C9.84222 117.293 10.1434 117.431 10.4485 117.555C13.1529 118.655 16.1288 118.757 18.9304 117.828C22.0486 116.795 24.5777 114.61 26.0518 111.674C29.0949 105.616 26.6418 98.2106 20.5823 95.167ZM25.4984 111.397C24.0983 114.185 21.6961 116.26 18.7359 117.241C15.7748 118.221 12.6147 117.992 9.82149 116.591C7.03415 115.191 4.9592 112.789 3.97776 109.828C2.9973 106.867 3.22785 103.701 4.62843 100.914C6.02852 98.1267 8.43078 96.0517 11.3909 95.0708C14.0519 94.1895 16.8777 94.2858 19.4463 95.3304C19.7356 95.4484 20.0225 95.5783 20.3054 95.7205C26.0587 98.6105 28.3884 105.643 25.4984 111.397Z" fill="black"/>
<g opacity="0.4">
<path d="M16.4019 101.199L17.0629 99.5746L18.5139 100.165L17.8706 101.746C19.2717 102.417 20.4669 103.428 21.0109 104.376L19.4928 105.822C18.9858 104.99 18.1006 104.173 17.097 103.646L16.1116 106.069C17.5625 107.116 19.1433 108.385 18.2991 110.46C17.6736 111.998 16.0193 112.864 13.621 112.192L12.9658 113.803L11.5149 113.213L12.1582 111.631C11.1051 111.102 10.1642 110.381 9.57275 109.548L11.0242 108.059C11.5929 108.781 12.247 109.334 12.9372 109.716L13.9404 107.25C12.483 106.218 10.9319 104.961 11.7637 102.915C12.3784 101.406 14.0115 100.549 16.4019 101.199ZM15.2442 108.202L14.4064 110.262C15.2462 110.401 15.7216 110.104 15.9166 109.625C16.1229 109.118 15.8001 108.665 15.2442 108.202ZM14.1709 103.691C13.9646 104.199 14.2731 104.646 14.8088 105.117L15.6233 103.114C14.8325 102.979 14.3595 103.226 14.1709 103.691Z" fill="#F5F5F5"/>
</g>
<path d="M16.187 100.912L16.8481 99.2875L18.299 99.8774L17.6557 101.459C19.0568 102.13 20.252 103.141 20.7961 104.089L19.278 105.535C18.771 104.703 17.8858 103.886 16.8821 103.359L15.8967 105.782C17.3477 106.829 18.9285 108.098 18.0843 110.173C17.4588 111.711 15.8044 112.576 13.4061 111.905L12.751 113.516L11.3001 112.926L11.9433 111.344C10.8903 110.814 9.94934 110.094 9.35791 109.261L10.8093 107.772C11.3781 108.494 12.0322 109.047 12.7224 109.429L13.7255 106.963C12.2682 105.93 10.7165 104.674 11.5489 102.628C12.163 101.119 13.7966 100.262 16.187 100.912ZM15.0293 107.916L14.1911 109.976C15.0308 110.114 15.5062 109.818 15.7013 109.338C15.9081 108.831 15.5852 108.378 15.0293 107.916ZM13.9556 103.404C13.7492 103.912 14.0578 104.359 14.5934 104.83L15.408 102.827C14.6171 102.692 14.1447 102.94 13.9556 103.404Z" fill="#F5F5F5"/>
<mask id="mask4_1_9438" style="mask-type:luminance" maskUnits="userSpaceOnUse" x="4" y="95" width="22" height="22">
<path d="M24.1587 111.293C26.9962 106.269 25.224 99.8963 20.2003 97.0588C15.1767 94.2213 8.80393 95.9935 5.96641 101.017C3.12888 106.041 4.90109 112.414 9.92474 115.251C14.9484 118.089 21.3211 116.316 24.1587 111.293Z" fill="white"/>
</mask>
<g mask="url(#mask4_1_9438)">
<g opacity="0.2">
<path d="M30.4456 103.408L29.5979 100.849L-0.840702 110.934L0.00703752 113.493L30.4456 103.408Z" fill="white"/>
<path d="M27.9109 100.142L26.3898 95.5503L-4.04882 105.635L-2.52771 110.226L27.9109 100.142Z" fill="white"/>
<path d="M31.1134 106.204L30.6896 104.924L0.250973 115.009L0.674843 116.288L31.1134 106.204Z" fill="white"/>
</g>
</g>
<path d="M202.122 45.9064C201.832 45.7607 201.538 45.6274 201.241 45.5065C198.606 44.4347 195.707 44.336 192.977 45.2399C189.94 46.246 187.476 48.3748 186.04 51.2342C184.604 54.0941 184.367 57.3411 185.373 60.3787C186.379 63.4159 188.508 65.8803 191.368 67.3165C194.233 68.7531 197.475 68.9891 200.513 67.9829C203.55 66.9768 206.014 64.848 207.45 61.9886C210.415 56.0856 208.025 48.8719 202.122 45.9064Z" fill="#3D3D3D"/>
<path d="M202.265 45.6229C196.196 42.5744 188.804 45.023 185.756 51.0919C182.707 57.1607 185.156 64.5522 191.225 67.6002C197.294 70.6487 204.685 68.2 207.734 62.1311C210.782 56.0623 208.334 48.6713 202.265 45.6229ZM207.45 61.9895C206.014 64.8489 203.55 66.9776 200.513 67.9838C197.475 68.9899 194.234 68.7539 191.368 67.3173C188.509 65.8812 186.38 63.4167 185.373 60.3796C184.368 57.3419 184.604 54.095 186.04 51.235C187.476 48.3756 189.941 46.2469 192.978 45.2407C195.708 44.3368 198.606 44.4355 201.242 45.5073C201.539 45.6283 201.833 45.7616 202.123 45.9072C208.025 48.8723 210.415 56.086 207.45 61.9895Z" fill="#7ADEFF"/>
<path d="M202.265 45.6233C199.332 44.1477 195.997 43.9058 192.879 44.9391C189.761 45.9719 187.232 48.1569 185.758 51.0924C184.283 54.0273 184.04 57.3607 185.073 60.4788C186.106 63.5969 188.291 66.126 191.227 67.6002C191.525 67.7497 191.826 67.887 192.132 68.0109C194.836 69.1108 197.812 69.213 200.614 68.2844C203.732 67.2516 206.261 65.0666 207.735 62.1306C210.778 56.0721 208.324 48.6674 202.265 45.6233ZM207.181 61.8537C205.781 64.641 203.379 66.716 200.419 67.6969C197.457 68.6774 194.297 68.4478 191.504 67.0472C188.717 65.6471 186.642 63.2449 185.66 60.2843C184.68 57.3231 184.91 54.1576 186.311 51.3703C187.711 48.583 190.113 46.508 193.074 45.5271C195.734 44.6458 198.56 44.7421 201.129 45.7867C201.418 45.9047 201.705 46.0346 201.988 46.1768C207.741 49.0673 210.071 56.0993 207.181 61.8537Z" fill="black"/>
<g opacity="0.4">
<path d="M198.085 51.6552L198.746 50.0305L200.196 50.6205L199.553 52.2017C200.954 52.8731 202.149 53.8837 202.694 54.8321L201.175 56.2776C200.668 55.4457 199.783 54.6292 198.78 54.1024L197.794 56.5254C199.245 57.572 200.826 58.8408 199.982 60.9157C199.356 62.4536 197.702 63.3195 195.304 62.6481L194.648 64.259L193.198 63.669L193.841 62.0873C192.788 61.5575 191.847 60.8368 191.255 60.0044L192.707 58.5145C193.276 59.2362 193.93 59.7897 194.62 60.1718L195.623 57.7053C194.166 56.673 192.614 55.4161 193.446 53.3708C194.06 51.8621 195.694 51.0046 198.085 51.6552ZM196.927 58.6586L196.089 60.7193C196.928 60.858 197.404 60.5608 197.599 60.0819C197.806 59.5739 197.483 59.1212 196.927 58.6586ZM195.854 54.1469C195.647 54.6549 195.956 55.1016 196.491 55.5726L197.306 53.5702C196.515 53.435 196.042 53.6828 195.854 54.1469Z" fill="#F5F5F5"/>
</g>
<path d="M197.869 51.3693L198.53 49.7446L199.981 50.3346L199.338 51.9159C200.739 52.5873 201.934 53.5978 202.479 54.5457L200.961 55.9912C200.454 55.1594 199.568 54.3428 198.565 53.816L197.579 56.239C199.03 57.2856 200.611 58.5544 199.767 60.6294C199.141 62.1672 197.487 63.0331 195.089 62.3617L194.434 63.9726L192.983 63.3826L193.626 61.8009C192.573 61.2712 191.632 60.5504 191.041 59.718L192.492 58.2286C193.061 58.9503 193.715 59.5038 194.405 59.8859L195.408 57.4194C193.951 56.3871 192.399 55.1302 193.232 53.0844C193.846 51.5757 195.479 50.7187 197.869 51.3693ZM196.712 58.3722L195.874 60.4324C196.714 60.5711 197.189 60.2744 197.384 59.795C197.591 59.288 197.267 58.8353 196.712 58.3722ZM195.638 53.861C195.432 54.369 195.74 54.8157 196.276 55.2867L197.091 53.2843C196.3 53.1491 195.827 53.3964 195.638 53.861Z" fill="#F5F5F5"/>
<mask id="mask5_1_9438" style="mask-type:luminance" maskUnits="userSpaceOnUse" x="186" y="46" width="22" height="22">
<path d="M202.408 65.3887C207.252 62.2552 208.639 55.788 205.506 50.9438C202.372 46.0996 195.905 44.7129 191.061 47.8463C186.217 50.9798 184.83 57.447 187.963 62.2912C191.097 67.1354 197.564 68.5222 202.408 65.3887Z" fill="white"/>
</mask>
<g mask="url(#mask5_1_9438)">
<g opacity="0.2">
<path d="M212.135 53.8729L211.287 51.3141L180.849 61.3983L181.697 63.9571L212.135 53.8729Z" fill="white"/>
<path d="M209.597 50.6039L208.076 46.0125L177.637 56.0967L179.159 60.6881L209.597 50.6039Z" fill="white"/>
<path d="M212.804 56.6649L212.38 55.3855L181.941 65.4697L182.365 66.7491L212.804 56.6649Z" fill="white"/>
</g>
</g>
<path d="M257.533 28.0208H312.283C317.705 28.0208 322.101 32.416 322.101 37.8381V159.078C322.101 164.5 317.705 168.895 312.283 168.895H257.533C252.111 168.895 247.715 164.5 247.715 159.078V37.8377C247.716 32.416 252.111 28.0208 257.533 28.0208Z" fill="black"/>
<path d="M257.978 31.8734H311.839C315.446 31.8734 318.369 34.797 318.369 38.4029V158.512C318.369 162.119 315.445 165.042 311.839 165.042H257.978C254.371 165.042 251.448 162.118 251.448 158.512V38.4029C251.448 34.797 254.372 31.8734 257.978 31.8734Z" fill="#1E1E1E"/>
<path opacity="0.4" d="M302.684 36.1531H267.133C266.651 36.1531 266.26 35.7621 266.26 35.2798V35.2359C266.26 34.7535 266.651 34.3625 267.133 34.3625H302.684C303.166 34.3625 303.557 34.7535 303.557 35.2359V35.2798C303.557 35.7621 303.166 36.1531 302.684 36.1531Z" fill="black"/>
<path opacity="0.4" d="M302.684 160.699H267.133C266.651 160.699 266.26 160.308 266.26 159.826V159.782C266.26 159.3 266.651 158.909 267.133 158.909H302.684C303.166 158.909 303.557 159.3 303.557 159.782V159.826C303.557 160.308 303.166 160.699 302.684 160.699Z" fill="black"/>
<path d="M305.9 67.3714H298.293C297.989 67.3714 297.742 67.6182 297.742 67.9233V86.513C297.742 86.8176 297.495 87.0649 297.19 87.0649H272.626C272.322 87.0649 272.074 86.8181 272.074 86.513V67.9233C272.074 67.6187 271.827 67.3714 271.522 67.3714H263.916C263.406 67.3714 263.169 66.7404 263.552 66.4047L284.544 48.0066C284.752 47.824 285.063 47.824 285.271 48.0066L306.263 66.4047C306.646 66.7404 306.409 67.3714 305.9 67.3714Z" fill="#7ADEFF"/>
<path d="M265.145 126.516H271.06C271.621 126.516 272.075 126.062 272.075 125.502V107.837C272.075 107.277 272.529 106.823 273.089 106.823H296.728C297.288 106.823 297.742 107.277 297.742 107.837V125.502C297.742 126.062 298.197 126.516 298.757 126.516H304.672C305.608 126.516 306.044 127.676 305.34 128.294L285.578 145.614C285.195 145.95 284.623 145.95 284.241 145.614L264.478 128.294C263.773 127.676 264.209 126.516 265.145 126.516Z" fill="#4169E1"/>
<path d="M293.664 128.485H276.154C275.474 128.485 274.922 127.934 274.922 127.254V122.087C274.922 121.407 275.474 120.856 276.154 120.856H293.664C294.344 120.856 294.895 121.407 294.895 122.087V127.254C294.895 127.934 294.343 128.485 293.664 128.485Z" fill="#4169E1"/>
<path d="M253.44 103.362C253.579 103.177 253.722 102.97 253.716 102.739C253.707 102.406 253.399 102.16 253.298 101.843C253.175 101.453 253.393 101.028 253.689 100.747C253.986 100.466 254.359 100.277 254.672 100.015C255.221 99.5563 255.57 98.8671 255.616 98.1538C255.626 97.9958 255.903 96.9358 255.972 96.7937C256.041 96.6515 256.213 96.5429 256.358 96.6056C256.432 96.6377 256.484 96.7068 256.529 96.7744C256.891 97.3229 256.788 98.8879 256.742 99.5435C258.989 99.7893 261.237 100.035 263.484 100.281C264.293 100.369 265.149 100.476 265.79 100.977C266.053 101.182 266.277 101.47 266.299 101.803C266.332 102.278 265.952 102.68 265.557 102.945C262.966 104.686 258.725 103.929 256.125 105.657C255.587 106.014 255.139 106.489 254.71 106.97C254.225 107.515 254.163 107.374 253.553 107.775C252.943 108.175 252.162 108.388 251.473 108.148C251.052 108.001 250.582 107.58 250.503 107.119C250.409 106.567 249.702 105.899 250.07 105.55C250.942 104.723 252.72 104.32 253.44 103.362Z" fill="#D89C7E"/>
<path d="M265.917 101.308C265.91 101.308 265.904 101.308 265.896 101.306C264.824 101.185 264.075 101.099 263.326 101.012C262.574 100.924 261.821 100.836 260.744 100.715C260.641 100.704 260.568 100.611 260.58 100.509C260.591 100.406 260.673 100.321 260.786 100.345C261.864 100.466 262.616 100.553 263.369 100.641C264.117 100.728 264.866 100.815 265.938 100.936C266.04 100.947 266.114 101.04 266.102 101.142C266.092 101.238 266.011 101.308 265.917 101.308Z" fill="#4169E1"/>
<path d="M266.067 102.559C266.061 102.559 266.055 102.559 266.048 102.559C264.79 102.434 264.161 102.387 263.554 102.342C262.944 102.297 262.313 102.251 261.05 102.126C260.947 102.115 260.872 102.024 260.882 101.921C260.893 101.82 260.978 101.741 261.087 101.754C262.345 101.879 262.974 101.925 263.581 101.97C264.19 102.015 264.821 102.061 266.085 102.187C266.187 102.197 266.262 102.289 266.252 102.391C266.243 102.487 266.162 102.559 266.067 102.559Z" fill="#4169E1"/>
<path d="M264.855 103.567C264.849 103.567 264.843 103.567 264.836 103.567C264.442 103.529 264.014 103.48 263.576 103.43C262.754 103.337 261.903 103.241 261.168 103.204C261.065 103.199 260.986 103.11 260.991 103.007C260.996 102.904 261.08 102.814 261.187 102.831C261.934 102.869 262.789 102.966 263.617 103.06C264.053 103.109 264.48 103.157 264.872 103.195C264.975 103.205 265.05 103.296 265.04 103.399C265.031 103.495 264.95 103.567 264.855 103.567Z" fill="#4169E1"/>
<path d="M261.096 103.368H261.094C260.991 103.368 260.908 103.283 260.909 103.18C260.933 100.752 260.403 100.549 260.398 100.547C260.295 100.539 260.228 100.45 260.236 100.348C260.245 100.245 260.347 100.171 260.447 100.178C260.65 100.195 261.31 100.459 261.283 103.183C261.282 103.286 261.198 103.368 261.096 103.368Z" fill="#4169E1"/>
<path d="M256.437 102.279C256.376 102.279 256.316 102.249 256.28 102.192C256.225 102.105 256.25 101.99 256.337 101.935C256.495 101.833 256.602 101.622 256.654 101.305C256.744 100.754 256.676 100.164 256.463 99.6463C256.425 99.551 256.47 99.4419 256.565 99.4024C256.66 99.3639 256.769 99.4088 256.809 99.5046C257.051 100.094 257.125 100.737 257.022 101.365C256.952 101.791 256.789 102.089 256.538 102.25C256.507 102.269 256.472 102.279 256.437 102.279Z" fill="#4169E1"/>
<path d="M230.647 99.9514C230.647 99.9514 236.427 105.919 239.4 110.75C239.4 110.75 240.333 109.938 240.519 110.96L252.016 103.853C252.016 103.853 254.153 105.062 254.711 107.477C254.711 107.477 244.584 115.467 242.911 116.954C241.239 118.44 238.452 121.413 234.828 116.582C231.204 111.751 225.444 104.504 225.444 104.504C225.444 104.504 223.958 101.624 225.63 98.9295C227.303 96.2349 230.647 99.9514 230.647 99.9514Z" fill="#EFF2F9"/>
<path d="M238.464 112.836C238.432 112.836 238.4 112.826 238.373 112.805C238.309 112.755 238.297 112.661 238.347 112.597C238.927 111.856 239.681 111.245 240.527 110.832C240.6 110.797 240.69 110.828 240.725 110.901C240.761 110.974 240.73 111.063 240.657 111.099C239.851 111.493 239.133 112.074 238.581 112.78C238.551 112.817 238.508 112.836 238.464 112.836Z" fill="#F5F5F5"/>
<path d="M238.209 112.157C238.173 112.157 238.136 112.144 238.108 112.117C238.048 112.06 238.046 111.967 238.102 111.907L239.222 110.718C239.276 110.658 239.371 110.655 239.431 110.712C239.491 110.768 239.493 110.862 239.437 110.921L238.317 112.111C238.288 112.142 238.249 112.157 238.209 112.157Z" fill="#F5F5F5"/>
<path d="M253.112 108.38C253.055 108.38 253.001 108.348 252.977 108.293C252.966 108.271 251.93 106.017 250.587 105.21C250.517 105.168 250.495 105.077 250.536 105.007C250.579 104.936 250.67 104.914 250.739 104.956C252.162 105.809 253.203 108.074 253.246 108.17C253.28 108.245 253.247 108.333 253.173 108.366C253.153 108.376 253.132 108.38 253.112 108.38Z" fill="#F5F5F5"/>
<path d="M227.983 194.671C227.983 194.671 233.363 195.273 235.843 196.688C237.611 197.697 239.111 199.122 237.159 199.183C235.207 199.244 230.643 200.04 228.727 199.036C227.393 198.338 226.518 199.489 225.543 199.306C224.567 199.123 223.408 199.062 223.225 198.208C223.042 197.354 223.286 194.854 223.286 194.854L227.983 194.671Z" fill="#3D3D3D"/>
<path d="M215.28 195.006C215.28 195.189 215.524 194.651 215.829 196.725C216.134 198.799 220.729 198.998 218.749 200.353C216.88 201.631 208.872 201.5 209.726 198.815C210.58 196.132 211.254 194.518 211.254 194.518L215.28 195.006Z" fill="#3D3D3D"/>
<path d="M233.635 132.004L229.057 195.248C229.057 195.248 225.166 196.527 222.534 195.248L222.184 143.887L216.927 195.364C216.927 195.364 213.723 197.108 210.175 195.364L210.061 128.632C210.061 128.632 231.117 128.749 233.635 132.004Z" fill="black"/>
<path d="M221.574 144.342C221.535 144.342 221.498 144.327 221.47 144.299C221.438 144.266 221.422 144.221 221.427 144.177C221.437 144.1 222.347 136.584 222.317 135.38C222.315 135.297 222.38 135.23 222.462 135.228C222.525 135.228 222.612 135.29 222.614 135.372C222.642 136.504 221.89 142.815 221.744 144.023L222.87 143.876C223.201 142.561 224.327 135.605 224.345 135.265C224.34 135.198 224.38 135.135 224.446 135.113C224.527 135.087 224.608 135.129 224.634 135.207C224.701 135.408 223.38 143.178 223.13 144.051C223.114 144.108 223.065 144.149 223.006 144.157L221.593 144.341C221.587 144.342 221.581 144.342 221.574 144.342Z" fill="#3F4973"/>
<path d="M233.635 132.004L233.449 134.566C231.373 135.264 222.112 137.378 210.07 134.598L210.06 128.632C210.06 128.632 231.117 128.748 233.635 132.004Z" fill="#3D3D3D"/>
<path d="M231.011 133.3L230.85 136.424L230.142 136.392L229.917 133.075L231.011 133.3Z" fill="black"/>
<path d="M217.454 133.719L217.293 136.843L216.585 136.81L216.359 133.493L217.454 133.719Z" fill="black"/>
<path d="M228.08 133.686L227.919 136.81L227.211 136.778L226.985 133.461L228.08 133.686Z" fill="black"/>
<path d="M221.093 133.848L220.932 136.971L220.223 136.939L219.998 133.622L221.093 133.848Z" fill="black"/>
<path d="M232.56 133.85C231.268 134.202 229.803 134.2 228.523 134.339C226.677 134.539 224.823 134.677 222.968 134.742C218.614 134.896 214.111 134.733 209.904 133.504C209.84 133.485 209.778 130.966 209.748 130.753C209.544 129.3 209.534 127.833 209.607 126.369C209.756 123.408 210.249 120.465 210.162 117.493C210.062 114.024 209.175 110.649 208.741 107.219C208.528 105.545 208.361 103.781 208.577 102.098C208.765 100.625 209.831 99.4494 211.042 98.6166C215.598 95.4841 225.139 94.0599 228.698 97.9047C230.279 99.6123 232.237 101.131 233.042 103.344C233.928 105.785 234.435 107.975 234.454 110.598C234.48 114.274 234.062 117.931 233.854 121.597C233.667 124.901 233.414 128.574 234.426 131.76C234.514 132.034 234.609 132.326 234.533 132.604C234.45 132.904 234.184 133.115 233.918 133.279C233.502 133.536 233.043 133.718 232.56 133.85Z" fill="#EFF2F9"/>
<path d="M217.925 89.9626L218.216 97.7174C218.216 97.7174 217.915 100.861 222.709 100.788C222.709 100.788 225.754 100.393 225.708 97.3427L225.602 90.3699L217.925 89.9626Z" fill="#D89C7E"/>
<path d="M217.954 90.752L217.925 89.9626L225.565 90.3675C225.579 90.3857 225.59 90.404 225.603 90.4218L225.661 94.2355C223.959 95.0861 220.371 96.0364 217.954 90.752Z" fill="#3D3D3D"/>
<path d="M216.71 88.2626C217.346 90.2231 218.564 92.2289 220.302 93.3935C222.022 94.5458 224.468 94.6869 225.904 93.0104C226.728 92.0462 227.089 90.7607 227.204 89.4968C227.264 88.8407 227.265 88.1787 227.36 87.527C227.436 87.0018 227.575 86.4864 227.651 85.9611C227.75 85.2852 227.747 84.5985 227.706 83.9167C227.659 83.1298 227.558 82.3335 227.253 81.6063C226.173 79.0362 222.691 78.7795 220.416 79.6952C217.459 80.8855 215.905 83.9597 216.416 87.0743C216.421 87.1059 216.427 87.137 216.432 87.1686C216.492 87.5132 216.586 87.8815 216.71 88.2626Z" fill="#D89C7E"/>
<path d="M221.784 86.6039C222.075 86.6039 222.311 86.3681 222.311 86.0772C222.311 85.7863 222.075 85.5504 221.784 85.5504C221.493 85.5504 221.258 85.7863 221.258 86.0772C221.258 86.3681 221.493 86.6039 221.784 86.6039Z" fill="#232221"/>
<path d="M226.534 86.0772C226.534 86.368 226.298 86.6039 226.007 86.6039C225.717 86.6039 225.481 86.368 225.481 86.0772C225.481 85.7864 225.717 85.5504 226.007 85.5504C226.298 85.5504 226.534 85.7859 226.534 86.0772Z" fill="#232221"/>
<path d="M224.163 89.6879C224.094 89.6879 224.025 89.6829 223.961 89.678C223.904 89.6736 223.862 89.6242 223.865 89.5674C223.87 89.5107 223.922 89.4707 223.976 89.4721C224.102 89.4815 224.234 89.4914 224.351 89.4608C224.441 89.4376 224.549 89.3769 224.584 89.2757C224.611 89.1967 224.592 89.0955 224.574 89.0066L223.972 85.8875C223.961 85.8317 223.997 85.7779 224.053 85.767C224.108 85.7562 224.163 85.7927 224.174 85.8485L224.776 88.9681C224.797 89.0767 224.823 89.212 224.778 89.3433C224.726 89.4948 224.586 89.6138 224.403 89.6612C224.324 89.6815 224.242 89.6879 224.163 89.6879Z" fill="#AA6446"/>
<path d="M224.808 90.6813C224.808 90.6813 222.437 90.47 220.828 90.0316C220.828 90.0316 220.991 91.6074 222.55 91.916C224.11 92.2246 224.808 90.6813 224.808 90.6813Z" fill="#3D3D3D"/>
<path d="M221.167 90.9605C221.413 91.3623 221.833 91.7736 222.551 91.9158C223.028 92.0101 223.423 91.9306 223.743 91.7761C223.149 91.0099 221.767 90.9477 221.167 90.9605Z" fill="#3D3D3D"/>
<path d="M224.338 91.0387L224.454 90.6458C223.734 90.5692 222.06 90.3673 220.829 90.0316C220.829 90.0316 220.85 90.2232 220.941 90.4838C221.577 90.6956 223.198 91.1799 224.338 91.0387Z" fill="#F1F2F2"/>
<path d="M221.523 84.5146C221.856 84.4262 222.187 84.326 222.516 84.2257C222.598 84.2011 222.687 84.1714 222.734 84.0999C222.805 83.9917 222.744 83.8417 222.651 83.7513C222.269 83.3835 221.297 83.5548 220.863 83.7849C220.689 83.8772 220.358 84.209 220.403 84.4252C220.482 84.7925 221.278 84.5792 221.523 84.5146Z" fill="#202232"/>
<path d="M226.002 84.5146C225.668 84.4262 225.338 84.326 225.008 84.2257C224.926 84.2011 224.838 84.1714 224.791 84.0999C224.719 83.9917 224.781 83.8417 224.874 83.7513C225.256 83.3835 226.228 83.5548 226.662 83.7849C226.835 83.8772 227.168 84.209 227.121 84.4252C227.042 84.7925 226.246 84.5792 226.002 84.5146Z" fill="#202232"/>
<path d="M215.152 79.611C215.195 79.6752 215.267 79.7137 215.319 79.7778C215.387 79.8677 215.391 79.9877 215.396 80.0987C215.434 81.4682 215.319 82.8337 215.319 84.1993C215.396 85.6759 215.837 87.11 216.277 88.5225C216.372 88.8221 216.551 88.4711 216.616 88.3339C216.697 88.1542 216.744 87.9527 216.739 87.7518C216.739 87.7005 216.735 87.6447 216.765 87.6017C216.821 87.5247 216.945 87.546 217.018 87.6062C217.091 87.6664 217.138 87.7518 217.215 87.8076C217.356 87.9019 217.558 87.8589 217.681 87.7434C217.801 87.6235 217.857 87.4522 217.878 87.2853C217.896 87.1397 217.891 86.994 217.878 86.8444C217.844 86.3991 217.733 85.9454 217.912 85.5431C218.045 85.2479 218.31 85.0425 218.555 84.8327C218.923 84.5202 219.278 84.1608 219.471 83.7155C219.663 83.2702 219.672 82.7182 219.385 82.3287C219.223 82.1021 218.957 81.8962 218.987 81.6222C219 81.481 219.094 81.3566 219.201 81.2628C219.647 80.8649 220.289 80.822 220.884 80.7963C222.04 80.745 223.204 80.6936 224.364 80.7662C224.882 80.8003 225.396 80.8817 225.909 80.899C226.281 80.9118 226.675 81.1384 226.752 81.5151C226.783 81.6435 226.77 81.7847 226.821 81.9046C226.872 82.0162 226.971 82.1016 227.052 82.1959C227.262 82.4358 227.369 82.7523 227.459 83.0603C227.566 83.4415 227.66 83.8221 227.733 84.2116C227.733 84.2116 227.733 84.2072 227.737 84.2032C227.857 83.9677 227.866 83.7367 227.926 83.4884C227.964 83.3343 228.003 83.206 228.011 83.0559C228.341 81.8316 228.957 79.9097 229.848 78.6513C231.239 76.6908 229.39 72.8386 225.944 75.351C223.577 77.0804 221.171 77.8594 219.412 78.3304C219.254 78.3689 219.1 78.4118 218.95 78.4503C218.817 78.4888 218.685 78.5273 218.556 78.5658C218.205 78.6769 217.85 78.8013 217.482 78.8354C217.101 78.8739 216.716 78.8181 216.335 78.7455C216.288 78.7372 216.236 78.7283 216.189 78.7455C215.992 78.8354 216.206 79.2718 215.992 79.3064C215.808 79.2121 215.607 79.1178 215.406 79.1568C215.203 79.1953 215.036 79.4436 215.152 79.611Z" fill="#202232"/>
<path d="M215.512 87.2886C215.7 87.8904 216.145 88.3668 216.663 88.5331C216.771 88.5682 216.891 88.5889 216.993 88.5341C217.954 88.0177 217.438 85.77 216.742 85.2497C215.711 84.4785 215.23 86.3871 215.512 87.2886Z" fill="#D89C7E"/>
<path d="M216.799 87.8082C216.91 88.179 217.219 88.452 217.513 88.7033C217.824 88.9694 218.149 89.2424 218.544 89.351C218.773 89.4142 219.08 89.3786 219.162 89.155C219.244 88.9299 219.037 88.7117 218.851 88.5606C218.404 88.1977 217.958 87.8354 217.511 87.4725C217.43 87.4069 217.345 87.3358 217.313 87.2365C217.182 86.8248 217.324 86.5079 216.873 86.2358C216.561 86.0473 216.244 86.0764 215.999 86.3509C215.448 86.969 215.922 88.0452 216.799 87.8082Z" fill="#232221"/>
<path d="M216.241 87.1259C216.243 87.0331 216.245 86.9388 216.275 86.8514C216.306 86.764 216.372 86.6835 216.461 86.6594C216.55 86.6352 216.66 86.684 216.682 86.7744C216.695 86.8336 216.671 86.8948 216.65 86.9521C216.535 87.2617 216.597 87.5702 216.531 87.8704C216.214 87.8052 216.236 87.3683 216.241 87.1259Z" fill="#DADDE8"/>
<path d="M218.918 88.919L217.274 87.744C216.89 87.47 216.912 86.689 216.913 86.6559C216.914 86.6283 216.936 86.6061 216.964 86.6061C216.964 86.6061 216.965 86.6061 216.966 86.6061C216.995 86.6071 217.017 86.6308 217.016 86.6594C217.016 86.6668 216.995 87.4182 217.334 87.6601L218.979 88.8351L218.918 88.919Z" fill="#DADDE8"/>
<path d="M217.7 93.981L222.977 97.9788L223.883 100.218L225.749 94.6741L227.668 97.1262L227.348 100.218L225.909 98.4587C225.909 98.4587 225.322 100.431 224.15 100.964L223.297 101.07L221.858 101.017L220.685 101.603L216.954 97.499L217.7 93.981Z" fill="#EFF2F9"/>
<path d="M215.258 136.238L216.7 137.979C216.7 137.979 215.557 140.441 212.514 139.931L212.004 137.82L215.258 136.238Z" fill="#D89C7E"/>
<path d="M215.329 104.304C215.329 104.304 210.907 115.934 208.778 118.718L215.984 135.835C215.984 135.835 214.838 138.128 211.726 138.456C211.726 138.456 204.601 124.451 203.7 123.223C202.799 121.995 201.735 120.029 201.735 119.128C201.735 118.227 206.73 102.749 209.433 100.292C212.135 97.8352 213.773 98.5723 214.592 98.9821C215.411 99.3908 216.885 101.438 215.329 104.304Z" fill="#EFF2F9"/>
<path d="M215.639 135.301C215.581 135.301 215.526 135.268 215.502 135.211L208.641 118.776C208.624 118.736 208.626 118.692 208.644 118.654C208.698 118.541 214.105 107.31 214.404 106.243C214.451 106.075 214.535 105.859 214.641 105.587C215.251 104.013 216.388 101.084 213.967 98.8804C213.906 98.8251 213.901 98.7313 213.956 98.671C214.012 98.6098 214.105 98.6059 214.166 98.6607C216.737 101.002 215.508 104.171 214.917 105.694C214.818 105.948 214.733 106.169 214.689 106.323C214.392 107.386 209.414 117.738 208.939 118.723L215.775 135.097C215.807 135.172 215.772 135.259 215.696 135.291C215.678 135.298 215.658 135.301 215.639 135.301Z" fill="#F5F5F5"/>
<path d="M204.06 119.83C204.007 119.83 203.955 119.801 203.929 119.751C203.89 119.678 203.919 119.589 203.991 119.551C205.385 118.824 207.018 118.51 208.579 118.669C208.66 118.678 208.72 118.751 208.711 118.832C208.703 118.913 208.636 118.97 208.549 118.965C207.038 118.812 205.471 119.114 204.129 119.813C204.106 119.825 204.083 119.83 204.06 119.83Z" fill="#F5F5F5"/>
<path d="M207.821 118.485H205.637C205.556 118.485 205.489 118.419 205.489 118.337C205.489 118.255 205.556 118.189 205.637 118.189H207.821C207.903 118.189 207.969 118.255 207.969 118.337C207.969 118.419 207.903 118.485 207.821 118.485Z" fill="#F5F5F5"/>
<path d="M207.12 119.877C207.057 119.877 206.999 119.837 206.978 119.774C206.954 119.695 206.997 119.612 207.076 119.588C207.319 119.512 207.58 119.483 207.832 119.502C207.913 119.508 207.975 119.579 207.968 119.661C207.962 119.742 207.903 119.809 207.808 119.797C207.596 119.782 207.371 119.806 207.164 119.87C207.15 119.875 207.135 119.877 207.12 119.877Z" fill="#F5F5F5"/>
<path d="M215.416 106.155C215.388 106.155 215.359 106.148 215.334 106.131C215.266 106.085 215.247 105.994 215.292 105.925C215.458 105.675 215.572 105.392 215.671 105.123C216.32 103.34 216.516 101.405 216.237 99.5272C216.224 99.4463 216.281 99.3703 216.361 99.3589C216.448 99.3475 216.519 99.4028 216.53 99.4833C216.815 101.41 216.615 103.395 215.949 105.225C215.844 105.511 215.722 105.813 215.539 106.089C215.511 106.132 215.464 106.155 215.416 106.155Z" fill="#F5F5F5"/>
<path d="M223.764 100.796C223.716 100.796 223.669 100.773 223.641 100.73L222.321 98.7704L221.265 100.295C221.242 100.328 221.206 100.351 221.166 100.357C221.127 100.363 221.086 100.353 221.053 100.328C221.027 100.309 218.442 98.3271 217.133 96.4511C217.087 96.384 217.103 96.2916 217.17 96.2447C217.236 96.1988 217.329 96.2136 217.376 96.2813C218.497 97.8877 220.584 99.582 221.11 99.9967L222.2 98.4224C222.228 98.3819 222.273 98.3587 222.322 98.3587C222.384 98.3498 222.417 98.3829 222.445 98.4239L223.886 100.564C223.931 100.632 223.914 100.724 223.846 100.77C223.82 100.788 223.792 100.796 223.764 100.796Z" fill="#F5F5F5"/>
<path d="M224.287 100.927C224.269 100.927 224.25 100.924 224.232 100.916C224.156 100.885 224.119 100.799 224.15 100.723L224.98 98.6702C224.998 98.6238 225.039 98.5898 225.089 98.5804C225.138 98.5685 225.189 98.5868 225.223 98.6228L226.364 99.8023L227.291 97.0623C227.317 96.9848 227.401 96.9443 227.479 96.9695C227.557 96.9957 227.598 97.0796 227.572 97.1576L226.567 100.128C226.551 100.176 226.509 100.213 226.46 100.225C226.408 100.236 226.356 100.22 226.32 100.183L225.169 98.9931L224.424 100.835C224.401 100.892 224.346 100.927 224.287 100.927Z" fill="#F5F5F5"/>
<path d="M225.947 134.428C225.884 134.428 225.826 134.387 225.806 134.323C224.725 130.863 224.297 121.008 224.926 114.043C225.528 107.377 223.899 101.271 223.882 101.211C223.861 101.132 223.908 101.05 223.987 101.029C224.065 101.006 224.147 101.055 224.168 101.133C224.185 101.194 225.828 107.351 225.221 114.07C224.595 121.005 225.016 130.804 226.088 134.236C226.113 134.313 226.069 134.397 225.991 134.422C225.977 134.426 225.962 134.428 225.947 134.428Z" fill="#F5F5F5"/>
<path d="M216.643 109.352C216.604 109.352 216.567 109.337 216.539 109.309C216.511 109.282 216.495 109.244 216.495 109.204V108.032C216.495 107.951 216.561 107.885 216.642 107.884L222.457 107.835H222.458C222.535 107.835 222.6 107.894 222.606 107.971L222.703 109.144C222.707 109.185 222.693 109.225 222.665 109.256C222.637 109.286 222.598 109.304 222.557 109.304L216.644 109.352H216.643ZM216.792 108.179V109.055L222.395 109.009L222.322 108.133L216.792 108.179Z" fill="#F5F5F5"/>
<path d="M234.068 118.03C234.064 118.03 234.06 118.03 234.056 118.03C233.974 118.023 233.914 117.952 233.921 117.87C233.927 117.779 234.648 108.674 233.558 105.858L233.404 105.459C232.411 102.893 231.865 101.48 231.263 100.792C231.208 100.73 231.215 100.637 231.276 100.583C231.338 100.528 231.432 100.535 231.485 100.597C232.122 101.325 232.643 102.671 233.68 105.352L233.835 105.75C234.95 108.629 234.247 117.517 234.216 117.894C234.209 117.972 234.145 118.03 234.068 118.03Z" fill="#F5F5F5"/>
<path d="M210.786 136.293C210.722 136.293 210.662 136.25 210.643 136.185C210.621 136.106 210.668 136.024 210.746 136.002C213.658 135.19 214.578 134.037 214.586 134.025C214.637 133.963 214.73 133.951 214.794 133.998C214.859 134.048 214.871 134.142 214.822 134.206C214.783 134.256 213.847 135.444 210.826 136.288C210.813 136.291 210.8 136.293 210.786 136.293Z" fill="#F5F5F5"/>
<path d="M218.76 144.691C218.684 144.691 218.619 144.633 218.613 144.556C218.605 144.474 218.666 144.403 218.747 144.395C222.293 144.08 224.624 143.603 224.647 143.598C224.728 143.581 224.805 143.633 224.822 143.714C224.839 143.793 224.788 143.872 224.707 143.888C224.683 143.893 222.339 144.374 218.773 144.691C218.769 144.691 218.764 144.691 218.76 144.691Z" fill="#3F4973"/>
<path d="M212.835 140.188C212.075 140.188 211.236 140.001 210.324 139.536C210.251 139.499 210.222 139.41 210.259 139.337C210.297 139.264 210.388 139.237 210.459 139.273C212.287 140.204 214.017 140.095 215.598 138.954C216.787 138.095 217.44 136.949 217.446 136.937C217.486 136.866 217.577 136.84 217.648 136.881C217.72 136.921 217.745 137.011 217.705 137.082C217.683 137.122 215.914 140.188 212.835 140.188Z" fill="#3F4973"/>
<path d="M76.4855 160.68C75.9982 160.642 75.5129 160.622 75.0301 160.622C70.7488 160.622 66.6518 162.128 63.3594 164.936C59.6963 168.061 57.4678 172.426 57.0871 177.226C56.7065 182.027 58.2177 186.688 61.3422 190.352C64.4677 194.015 68.8329 196.243 73.6325 196.624C78.4419 197.002 83.0944 195.493 86.7585 192.368C90.4216 189.244 92.6496 184.879 93.0308 180.079C93.8167 170.168 86.3947 161.467 76.4855 160.68Z" fill="#3D3D3D"/>
<path d="M76.523 160.204C66.3343 159.396 57.4194 167 56.6107 177.189C55.8021 187.378 63.4063 196.293 73.5949 197.101C83.7836 197.91 92.6985 190.305 93.5072 180.117C94.3153 169.927 86.7111 161.012 76.523 160.204ZM93.0307 180.079C92.6501 184.879 90.4216 189.244 86.7585 192.368C83.0944 195.493 78.4419 197.002 73.6324 196.624C68.8323 196.243 64.4672 194.015 61.3422 190.352C58.2177 186.688 56.7065 182.027 57.0871 177.226C57.4678 172.426 59.6962 168.061 63.3594 164.936C66.6517 162.128 70.7488 160.622 75.0301 160.622C75.5129 160.622 75.9982 160.642 76.4854 160.68C86.3947 161.468 93.8167 170.169 93.0307 180.079Z" fill="#7ADEFF"/>
<path d="M76.5222 160.205C71.5977 159.811 66.811 161.364 63.0501 164.572C59.2892 167.78 57.0025 172.26 56.612 177.188C56.22 182.115 57.7711 186.9 60.9791 190.661C64.1866 194.422 68.6677 196.708 73.5962 197.099C74.0958 197.139 74.5934 197.159 75.0896 197.159C79.4828 197.159 83.69 195.614 87.0683 192.731C90.8292 189.524 93.1159 185.044 93.5064 180.115C94.3136 169.943 86.6951 161.012 76.5222 160.205ZM92.5783 180.043C92.2071 184.722 90.0348 188.977 86.464 192.022C82.8922 195.068 78.3572 196.539 73.6687 196.171C68.9896 195.799 64.7345 193.627 61.688 190.056C58.6425 186.485 57.1693 181.941 57.5406 177.261C57.9118 172.582 60.084 168.327 63.6549 165.281C66.8643 162.544 70.8582 161.077 75.0313 161.077C75.5018 161.077 75.9747 161.095 76.4501 161.133C86.1091 161.9 93.3445 170.382 92.5783 180.043Z" fill="black"/>
<g opacity="0.4">
<path d="M73.9768 171.138V168.499H76.3342V171.067C78.6678 171.209 80.9067 171.94 82.2036 172.953L80.9072 175.829C79.7288 174.957 78.0315 174.32 76.3347 174.155V178.092C78.9512 178.729 81.8738 179.601 81.8738 182.971C81.8738 185.469 80.059 187.614 76.3347 188.039V190.656H73.9773V188.086C72.2095 187.945 70.4885 187.473 69.1921 186.649L70.371 183.749C71.5731 184.433 72.7984 184.834 73.9773 184.975V180.968C71.3603 180.355 68.4851 179.483 68.4851 176.16C68.4846 173.707 70.2757 171.587 73.9768 171.138ZM76.3342 181.557V184.904C77.5832 184.621 78.0779 183.938 78.0779 183.159C78.0779 182.335 77.3709 181.887 76.3342 181.557ZM72.2796 175.876C72.2796 176.701 72.9633 177.149 73.9768 177.502V174.249C72.7979 174.509 72.2796 175.122 72.2796 175.876Z" fill="#F5F5F5"/>
</g>
<path d="M73.6524 170.706V168.067H76.0097V170.635C78.3434 170.777 80.5822 171.508 81.8791 172.521L80.5827 175.397C79.4043 174.525 77.707 173.888 76.0102 173.723V177.66C78.6267 178.296 81.5493 179.168 81.5493 182.539C81.5493 185.037 79.7346 187.183 76.0102 187.607V190.224H73.6529V187.655C71.885 187.514 70.164 187.042 68.8676 186.217L70.0465 183.317C71.2486 184.001 72.474 184.402 73.6529 184.543V180.536C71.0364 179.923 68.1606 179.051 68.1606 175.728C68.1606 173.275 69.9517 171.155 73.6524 170.706ZM76.0097 181.125V184.472C77.2587 184.189 77.7534 183.506 77.7534 182.728C77.7539 181.903 77.047 181.455 76.0097 181.125ZM71.9551 175.445C71.9551 176.27 72.6389 176.717 73.6524 177.071V173.818C72.474 174.077 71.9551 174.69 71.9551 175.445Z" fill="#F5F5F5"/>
<path d="M34.9991 64.1595C35.013 64.2017 35.0273 64.2438 35.0482 64.2824H34.8762L34.9991 64.1595Z" fill="#CDDEF9"/>
<path d="M34.8762 58.6801H35.0482C35.0273 58.7187 35.013 58.7608 34.9991 58.8029L34.8762 58.6801Z" fill="#CDDEF9"/>
<path d="M38.8396 54.724L38.9577 54.8386C38.9194 54.8523 38.8778 54.87 38.8396 54.8871V54.724Z" fill="#CDDEF9"/>
<path d="M38.8396 68.0737C38.8778 68.0909 38.9194 68.1085 38.9577 68.1222L38.8396 68.2403V68.0737Z" fill="#CDDEF9"/>
<path d="M44.3228 54.8385L44.4408 54.7205V54.887C44.4026 54.8699 44.3644 54.8527 44.3228 54.8385Z" fill="#CDDEF9"/>
<path d="M44.3184 68.1228C44.3605 68.1089 44.4026 68.0911 44.4412 68.0737V68.2462L44.3184 68.1228Z" fill="#CDDEF9"/>
<path d="M48.2787 64.1595L48.4016 64.2824H48.2291C48.2504 64.2438 48.2648 64.2017 48.2787 64.1595Z" fill="#CDDEF9"/>
<path d="M48.2794 58.8029C48.2655 58.7608 48.2512 58.7187 48.2303 58.6801H48.4028L48.2794 58.8029Z" fill="#CDDEF9"/>
<path d="M34.9991 64.1595C35.013 64.2017 35.0273 64.2438 35.0482 64.2824H34.8762L34.9991 64.1595Z" fill="#CDDEF9"/>
<path d="M34.8762 58.6801H35.0482C35.0273 58.7187 35.013 58.7608 34.9991 58.8029L34.8762 58.6801Z" fill="#CDDEF9"/>
<path d="M48.2787 64.1595L48.4016 64.2824H48.2291C48.2504 64.2438 48.2648 64.2017 48.2787 64.1595Z" fill="#CDDEF9"/>
<path d="M48.2794 58.8029C48.2655 58.7608 48.2512 58.7187 48.2303 58.6801H48.4028L48.2794 58.8029Z" fill="#CDDEF9"/>
<path d="M59.3846 64.282V58.6801H54.8926C54.5425 57.0169 53.8879 55.4663 52.9914 54.0899L56.1673 50.9145L52.2074 46.9546L49.032 50.13C47.6562 49.234 46.105 48.5789 44.4418 48.2288V43.7368H38.8399V48.2288C37.1767 48.5789 35.6261 49.234 34.2462 50.13L31.0709 46.9546L27.111 50.9145L30.2869 54.0899C29.3904 55.4658 28.7357 57.0169 28.3857 58.6801H23.8937V64.282H28.3857C28.7357 65.9452 29.3869 67.4958 30.2869 68.8722L27.111 72.0476L31.0709 76.0109L34.2462 72.8355C35.6256 73.7321 37.1767 74.3867 38.8399 74.7367V79.2287H44.4418V74.7367C46.105 74.3867 47.6557 73.7321 49.032 72.8355L52.2074 76.0109L56.1673 72.0476L52.9914 68.8722C53.8914 67.4963 54.5425 65.9452 54.8926 64.282H59.3846ZM48.4011 64.282H48.2293C47.508 65.9871 46.1425 67.3527 44.4408 68.0739V68.2458L44.3184 68.1233C43.4919 68.4595 42.589 68.6451 41.6401 68.6451C40.6913 68.6451 39.7878 68.4595 38.9584 68.1233L38.8395 68.2423V68.0744C37.1343 67.3532 35.7687 65.9876 35.0475 64.2825H34.8762L34.9986 64.16C34.6589 63.3336 34.4768 62.4306 34.4768 61.4818C34.4768 60.5329 34.6589 59.6295 34.9986 58.8036L34.8762 58.6811H35.0475C35.7687 56.9759 37.1343 55.6104 38.8395 54.8891V54.7247L38.9584 54.8403C39.7883 54.5041 40.6913 54.3184 41.6401 54.3184C42.589 54.3184 43.4959 54.5041 44.3223 54.8403L44.4413 54.7213V54.8891C46.143 55.6104 47.5085 56.9759 48.2298 58.6811H48.4016L48.2792 58.8036C48.6188 59.63 48.801 60.5329 48.801 61.4818C48.801 62.4306 48.6188 63.3341 48.2792 64.16L48.4011 64.282Z" fill="#7ADEFF"/>
<path d="M34.8762 58.6801H35.0482C35.0273 58.7187 35.013 58.7608 34.9991 58.8029L34.8762 58.6801Z" fill="#CDDEF9"/>
<path d="M38.8396 54.724L38.9577 54.8386C38.9194 54.8523 38.8778 54.87 38.8396 54.8871V54.724Z" fill="#CDDEF9"/>
<path d="M44.3184 68.1228C44.3605 68.1089 44.4026 68.0911 44.4412 68.0737V68.2462L44.3184 68.1228Z" fill="#CDDEF9"/>
<path d="M48.4016 64.2824H48.2291C48.2504 64.2438 48.2643 64.2017 48.2782 64.1595L48.4016 64.2824Z" fill="#CDDEF9"/>
<path d="M38.8396 54.724L38.9577 54.8386C38.9194 54.8523 38.8778 54.87 38.8396 54.8871V54.724Z" fill="#CDDEF9"/>
<path d="M38.8396 68.0737C38.8778 68.0909 38.9194 68.1085 38.9577 68.1222L38.8396 68.2403V68.0737Z" fill="#CDDEF9"/>
<path d="M44.4408 54.7205V54.887C44.4026 54.8694 44.3644 54.8522 44.3228 54.8385L44.4408 54.7205Z" fill="#CDDEF9"/>
<path d="M44.3184 68.1228C44.3605 68.1089 44.4026 68.0911 44.4412 68.0737V68.2462L44.3184 68.1228Z" fill="#CDDEF9"/>
<path d="M34.9991 64.1595C35.013 64.2017 35.0273 64.2438 35.0482 64.2824H34.8762L34.9991 64.1595Z" fill="#CDDEF9"/>
<path d="M38.8396 68.0737C38.8778 68.0909 38.9194 68.1085 38.9577 68.1222L38.8396 68.2403V68.0737Z" fill="#CDDEF9"/>
<path d="M44.3228 54.8385L44.4408 54.7205V54.887C44.4026 54.8699 44.3644 54.8527 44.3228 54.8385Z" fill="#CDDEF9"/>
<path d="M48.4023 58.6801L48.2794 58.8029C48.2655 58.7608 48.2512 58.7187 48.2303 58.6801H48.4023Z" fill="#CDDEF9"/>
<path d="M65.7775 48.3925C65.7854 48.4167 65.7938 48.441 65.8057 48.4633H65.7067L65.7775 48.3925Z" fill="#CDDEF9"/>
<path d="M65.7067 45.239H65.8057C65.7933 45.2613 65.7854 45.2856 65.7775 45.3098L65.7067 45.239Z" fill="#CDDEF9"/>
<path d="M67.988 42.9618L68.0569 43.0287C68.0346 43.0366 68.0103 43.047 67.988 43.0569V42.9618Z" fill="#CDDEF9"/>
<path d="M67.988 50.6459C68.0103 50.6558 68.0346 50.6662 68.0569 50.6741L67.988 50.743V50.6459Z" fill="#CDDEF9"/>
<path d="M71.1437 43.0278L71.2125 42.959V43.0561C71.1902 43.0462 71.1679 43.0362 71.1437 43.0278Z" fill="#CDDEF9"/>
<path d="M71.1417 50.6741C71.166 50.6662 71.1903 50.6558 71.2125 50.6459V50.7449L71.1417 50.6741Z" fill="#CDDEF9"/>
<path d="M73.4215 48.3925L73.4924 48.4633H73.3933C73.4052 48.441 73.4136 48.4167 73.4215 48.3925Z" fill="#CDDEF9"/>
<path d="M73.4215 45.3095C73.4136 45.2852 73.4052 45.2609 73.3933 45.2386H73.4924L73.4215 45.3095Z" fill="#CDDEF9"/>
<path d="M65.7775 48.3925C65.7854 48.4167 65.7938 48.441 65.8057 48.4633H65.7067L65.7775 48.3925Z" fill="#CDDEF9"/>
<path d="M65.7067 45.239H65.8057C65.7933 45.2613 65.7854 45.2856 65.7775 45.3098L65.7067 45.239Z" fill="#CDDEF9"/>
<path d="M73.4215 48.3925L73.4924 48.4633H73.3933C73.4052 48.441 73.4136 48.4167 73.4215 48.3925Z" fill="#CDDEF9"/>
<path d="M73.4215 45.3095C73.4136 45.2852 73.4052 45.2609 73.3933 45.2386H73.4924L73.4215 45.3095Z" fill="#CDDEF9"/>
<path d="M79.814 48.4632V45.2384H77.2281C77.0267 44.2812 76.6495 43.3881 76.1336 42.5962L77.9617 40.7681L75.6824 38.4888L73.8543 40.3169C73.0624 39.801 72.1693 39.4243 71.2121 39.2224V36.6365H67.9873V39.2224C67.0301 39.4238 66.1375 39.801 65.3432 40.3169L63.5151 38.4888L61.2357 40.7681L63.0638 42.5962C62.5479 43.3881 62.1713 44.2812 61.9693 45.2384H59.3834V48.4632H61.9693C62.1708 49.4204 62.546 50.313 63.0638 51.1054L61.2357 52.9335L63.5151 55.2148L65.3432 53.3867C66.137 53.9026 67.0301 54.2793 67.9873 54.4812V57.0671H71.2121V54.4812C72.1693 54.2797 73.0619 53.9026 73.8543 53.3867L75.6824 55.2148L77.9617 52.9335L76.1336 51.1054C76.6515 50.3135 77.0267 49.4204 77.2281 48.4632H79.814ZM73.4919 48.4632H73.3932C72.978 49.4446 72.192 50.2305 71.2126 50.6457V50.7445L71.142 50.6739C70.6661 50.8674 70.1462 50.974 69.6002 50.974C69.0542 50.974 68.5339 50.8674 68.0565 50.6739L67.9878 50.7425V50.6457C67.0064 50.2305 66.2204 49.4446 65.8053 48.4632H65.7065L65.7771 48.3926C65.5816 47.9171 65.477 47.3968 65.477 46.8508C65.477 46.3048 65.5816 45.7849 65.7771 45.309L65.7065 45.2384H65.8053C66.2204 44.257 67.0064 43.471 67.9878 43.0558V42.9611L68.0565 43.0277C68.5339 42.8342 69.0542 42.7275 69.6002 42.7275C70.1462 42.7275 70.6685 42.8342 71.144 43.0277L71.2126 42.9591V43.0558C72.192 43.471 72.978 44.257 73.3932 45.2384H73.4919L73.4213 45.309C73.6168 45.7849 73.7215 46.3048 73.7215 46.8508C73.7215 47.3968 73.6168 47.9171 73.4213 48.3926L73.4919 48.4632Z" fill="#7ADEFF"/>
<path d="M65.7067 45.239H65.8057C65.7933 45.2613 65.7854 45.2856 65.7775 45.3098L65.7067 45.239Z" fill="#CDDEF9"/>
<path d="M67.988 42.9618L68.0569 43.0287C68.0346 43.0366 68.0103 43.047 67.988 43.0569V42.9618Z" fill="#CDDEF9"/>
<path d="M71.1417 50.6741C71.166 50.6662 71.1903 50.6558 71.2125 50.6459V50.7449L71.1417 50.6741Z" fill="#CDDEF9"/>
<path d="M73.4924 48.4633H73.3933C73.4057 48.441 73.4136 48.4167 73.4215 48.3925L73.4924 48.4633Z" fill="#CDDEF9"/>
<path d="M67.988 42.9618L68.0569 43.0287C68.0346 43.0366 68.0103 43.047 67.988 43.0569V42.9618Z" fill="#CDDEF9"/>
<path d="M67.988 50.6459C68.0103 50.6558 68.0346 50.6662 68.0569 50.6741L67.988 50.743V50.6459Z" fill="#CDDEF9"/>
<path d="M71.2125 42.959V43.0561C71.1902 43.0462 71.1679 43.0358 71.1437 43.0278L71.2125 42.959Z" fill="#CDDEF9"/>
<path d="M71.1417 50.6741C71.166 50.6662 71.1903 50.6558 71.2125 50.6459V50.7449L71.1417 50.6741Z" fill="#CDDEF9"/>
<path d="M65.7775 48.3925C65.7854 48.4167 65.7938 48.441 65.8057 48.4633H65.7067L65.7775 48.3925Z" fill="#CDDEF9"/>
<path d="M67.988 50.6459C68.0103 50.6558 68.0346 50.6662 68.0569 50.6741L67.988 50.743V50.6459Z" fill="#CDDEF9"/>
<path d="M71.1437 43.0278L71.2125 42.959V43.0561C71.1902 43.0462 71.1679 43.0362 71.1437 43.0278Z" fill="#CDDEF9"/>
<path d="M73.4924 45.239L73.4215 45.3098C73.4136 45.2856 73.4052 45.2613 73.3933 45.239H73.4924Z" fill="#CDDEF9"/>
<path d="M68.7171 78.6444C68.7289 78.6797 68.7406 78.7145 68.7578 78.7468H68.6147L68.7171 78.6444Z" fill="#CDDEF9"/>
<path d="M68.6147 74.0402H68.7578C68.7402 74.072 68.7284 74.1073 68.7171 74.1425L68.6147 74.0402Z" fill="#CDDEF9"/>
<path d="M71.9452 70.7147L72.0446 70.8112C72.0128 70.823 71.9775 70.8377 71.9452 70.8519V70.7147Z" fill="#CDDEF9"/>
<path d="M71.9452 81.9343C71.977 81.949 72.0123 81.9637 72.0446 81.975L71.9452 82.0744V81.9343Z" fill="#CDDEF9"/>
<path d="M76.5535 70.8108L76.6529 70.7113V70.8514C76.6206 70.8372 76.5882 70.8225 76.5535 70.8108Z" fill="#CDDEF9"/>
<path d="M76.5503 81.975C76.5856 81.9632 76.6203 81.9485 76.6527 81.9343V82.0774L76.5503 81.975Z" fill="#CDDEF9"/>
<path d="M79.8778 78.6444L79.9802 78.7468H79.8372C79.8543 78.7145 79.8661 78.6797 79.8778 78.6444Z" fill="#CDDEF9"/>
<path d="M79.8778 74.1416C79.8661 74.1063 79.8543 74.0715 79.8372 74.0392H79.9802L79.8778 74.1416Z" fill="#CDDEF9"/>
<path d="M68.7171 78.6444C68.7289 78.6797 68.7406 78.7145 68.7578 78.7468H68.6147L68.7171 78.6444Z" fill="#CDDEF9"/>
<path d="M68.6147 74.0402H68.7578C68.7402 74.072 68.7284 74.1073 68.7171 74.1425L68.6147 74.0402Z" fill="#CDDEF9"/>
<path d="M79.8778 78.6444L79.9802 78.7468H79.8372C79.8543 78.7145 79.8661 78.6797 79.8778 78.6444Z" fill="#CDDEF9"/>
<path d="M79.8778 74.1416C79.8661 74.1063 79.8543 74.0715 79.8372 74.0392H79.9802L79.8778 74.1416Z" fill="#CDDEF9"/>
<path d="M89.2115 78.7478V74.04H85.4363C85.1421 72.6424 84.5916 71.3386 83.8388 70.1824L86.5076 67.5135L83.1797 64.1856L80.5109 66.8544C79.3547 66.1011 78.0508 65.5511 76.6532 65.2569V61.4817H71.9454V65.2569C70.5478 65.5511 69.2445 66.1016 68.0848 66.8544L65.416 64.1856L62.0881 67.5135L64.7569 70.1824C64.0036 71.3386 63.4536 72.6424 63.1594 74.04H59.3842V78.7478H63.1594C63.4536 80.1454 64.0011 81.4487 64.7569 82.6054L62.0881 85.2743L65.416 88.6052L68.0848 85.9363C69.244 86.6897 70.5478 87.2396 71.9454 87.5339V91.3091H76.6532V87.5339C78.0508 87.2396 79.3542 86.6897 80.5109 85.9363L83.1797 88.6052L86.5076 85.2743L83.8388 82.6054C84.5951 81.4492 85.1421 80.1454 85.4363 78.7478H89.2115ZM79.9811 78.7478H79.837C79.2307 80.1809 78.0834 81.3283 76.6532 81.9345V82.0787L76.55 81.9755C75.8554 82.2579 75.0966 82.4139 74.2988 82.4139C73.5015 82.4139 72.7423 82.2579 72.0447 81.9755L71.9445 82.0757V81.9345C70.5113 81.3283 69.364 80.1809 68.7577 78.7478H68.6136L68.7168 78.6446C68.4314 77.95 68.2784 77.1912 68.2784 76.3934C68.2784 75.5961 68.4314 74.8368 68.7168 74.1422L68.6136 74.039H68.7577C69.364 72.6059 70.5113 71.4585 71.9445 70.8523V70.7141L72.0447 70.8113C72.7423 70.5289 73.501 70.3729 74.2988 70.3729C75.0961 70.3729 75.8584 70.5289 76.5525 70.8113L76.6527 70.7111V70.8523C78.0829 71.4585 79.2302 72.6059 79.8365 74.039H79.9806L79.8775 74.1422C80.1628 74.8368 80.3158 75.5956 80.3158 76.3934C80.3158 77.1907 80.1628 77.95 79.8775 78.6446L79.9811 78.7478Z" fill="#7ADEFF"/>
<path d="M68.6147 74.0402H68.7578C68.7402 74.072 68.7284 74.1073 68.7171 74.1425L68.6147 74.0402Z" fill="#CDDEF9"/>
<path d="M71.9452 70.7147L72.0446 70.8112C72.0128 70.823 71.9775 70.8377 71.9452 70.8519V70.7147Z" fill="#CDDEF9"/>
<path d="M76.5503 81.975C76.5856 81.9632 76.6203 81.9485 76.6527 81.9343V82.0774L76.5503 81.975Z" fill="#CDDEF9"/>
<path d="M79.9802 78.7468H79.8372C79.8548 78.7145 79.8666 78.6797 79.8778 78.6444L79.9802 78.7468Z" fill="#CDDEF9"/>
<path d="M71.9452 70.7147L72.0446 70.8112C72.0128 70.823 71.9775 70.8377 71.9452 70.8519V70.7147Z" fill="#CDDEF9"/>
<path d="M71.9452 81.9343C71.977 81.949 72.0123 81.9637 72.0446 81.975L71.9452 82.0744V81.9343Z" fill="#CDDEF9"/>
<path d="M76.6529 70.7115V70.8517C76.6206 70.837 76.5887 70.8223 76.5535 70.811L76.6529 70.7115Z" fill="#CDDEF9"/>
<path d="M76.5503 81.975C76.5856 81.9632 76.6203 81.9485 76.6527 81.9343V82.0774L76.5503 81.975Z" fill="#CDDEF9"/>
<path d="M68.7171 78.6444C68.7289 78.6797 68.7406 78.7145 68.7578 78.7468H68.6147L68.7171 78.6444Z" fill="#CDDEF9"/>
<path d="M71.9452 81.9343C71.977 81.949 72.0123 81.9637 72.0446 81.975L71.9452 82.0744V81.9343Z" fill="#CDDEF9"/>
<path d="M76.5535 70.8108L76.6529 70.7113V70.8514C76.6206 70.8372 76.5882 70.8225 76.5535 70.8108Z" fill="#CDDEF9"/>
<path d="M79.9802 74.0402L79.8778 74.1425C79.8661 74.1073 79.8543 74.0725 79.8372 74.0402H79.9802Z" fill="#CDDEF9"/>
<path d="M199.484 7.36167C199.484 8.118 198.871 8.73164 198.114 8.73164C197.358 8.73164 196.744 8.11849 196.744 7.36167C196.744 6.60535 197.357 5.9917 198.114 5.9917C198.87 5.9917 199.484 6.60535 199.484 7.36167Z" fill="#DCE7F9"/>
<path d="M169.747 57.8055C169.747 58.5618 169.134 59.1755 168.377 59.1755C167.62 59.1755 167.007 58.5623 167.007 57.8055C167.007 57.0492 167.62 56.4355 168.377 56.4355C169.134 56.4355 169.747 57.0492 169.747 57.8055Z" fill="#DCE7F9"/>
<path d="M337.691 52.6647C337.691 53.421 337.078 54.0346 336.321 54.0346C335.564 54.0346 334.951 53.4215 334.951 52.6647C334.951 51.9083 335.564 51.2947 336.321 51.2947C337.078 51.2947 337.691 51.9083 337.691 52.6647Z" fill="#DCE7F9"/>
<path d="M229.429 130.959C229.429 131.716 228.816 132.329 228.059 132.329C227.302 132.329 226.689 131.716 226.689 130.959C226.689 130.203 227.302 129.589 228.059 129.589C228.816 129.589 229.429 130.202 229.429 130.959Z" fill="#DCE7F9"/>
<path d="M8.35142 196.04C9.10803 196.04 9.72139 195.427 9.72139 194.67C9.72139 193.914 9.10803 193.3 8.35142 193.3C7.5948 193.3 6.98145 193.914 6.98145 194.67C6.98145 195.427 7.5948 196.04 8.35142 196.04Z" fill="#DCE7F9"/>
<path d="M65.2595 25.3262C65.2595 26.0825 64.6463 26.6961 63.8895 26.6961C63.1332 26.6961 62.5195 26.083 62.5195 25.3262C62.5195 24.5698 63.1327 23.9562 63.8895 23.9562C64.6463 23.9562 65.2595 24.5698 65.2595 25.3262Z" fill="#DCE7F9"/>
<path d="M22.6943 5.48704C22.6943 6.24336 22.0811 6.85701 21.3243 6.85701C20.568 6.85701 19.9543 6.24386 19.9543 5.48704C19.9543 4.73072 20.5675 4.11707 21.3243 4.11707C22.0806 4.11707 22.6943 4.73072 22.6943 5.48704Z" fill="#DCE7F9"/>
<path d="M247.716 225.017C248.473 225.017 249.086 224.403 249.086 223.647C249.086 222.89 248.473 222.277 247.716 222.277C246.959 222.277 246.346 222.89 246.346 223.647C246.346 224.403 246.959 225.017 247.716 225.017Z" fill="#DCE7F9"/>
<path d="M313.413 4.50246V5.30222H311.962V6.75365H311.162V5.30222H309.711V4.50246H311.162V3.05103H311.962V4.50246H313.413Z" fill="#4169E1"/>
<path d="M103.455 4.50246V5.30222H102.003V6.75365H101.204V5.30222H99.7521V4.50246H101.204V3.05103H102.003V4.50246H103.455Z" fill="#4169E1"/>
<path d="M236.843 45.6181V46.4178H235.391V47.8693H234.591V46.4178H233.14V45.6181H234.591V44.1666H235.391V45.6181H236.843Z" fill="#4169E1"/>
<path d="M149.495 31.4735V32.2733H148.043V33.7247H147.244V32.2733H145.792V31.4735H147.244V30.0221H148.043V31.4735H149.495Z" fill="#4169E1"/>
<path d="M77.4735 199.933V200.733H76.0221V202.184H75.2228V200.733H73.7709V199.933H75.2228V198.481H76.0221V199.933H77.4735Z" fill="#4169E1"/>
<path d="M11.2535 136.209V137.009H9.8021V138.46H9.00233V137.009H7.5509V136.209H9.00233V134.758H9.8021V136.209H11.2535Z" fill="#4169E1"/>
<path d="M320.22 209.287V210.086H318.768V211.538H317.969V210.086H316.517V209.287H317.969V207.835H318.768V209.287H320.22Z" fill="#4169E1"/>
<path d="M338.172 98.1076V98.9073H336.72V100.359H335.92V98.9073H334.469V98.1076H335.92V96.6561H336.72V98.1076H338.172Z" fill="#4169E1"/>
<path d="M4.61413 50.4475V51.2473H3.1627V52.6987H2.36293V51.2473H0.911499V50.4475H2.36293V48.9961H3.1627V50.4475H4.61413Z" fill="#4169E1"/>
</svg>
