<svg width="329" height="119" viewBox="0 0 329 119" fill="none" xmlns="http://www.w3.org/2000/svg">
<path d="M11.3333 113C11.3333 115.946 8.94553 118.333 6 118.333C3.05447 118.333 0.666656 115.946 0.666656 113C0.666656 110.054 3.05447 107.667 6 107.667C8.94553 107.667 11.3333 110.054 11.3333 113ZM329 1V2H322.938V1V0H329V1ZM310.812 1V2H298.688V1V0H310.812V1ZM286.562 1V2H274.438V1V0H286.562V1ZM262.312 1V2H250.188V1V0H262.312V1ZM238.062 1V2H225.938V1V0H238.062V1ZM213.812 1V2H201.688V1V0H213.812V1ZM189.562 1V2H177.438V1V0H189.562V1ZM165.312 1V2H153.188V1V0H165.312V1ZM141.062 1V2H128.938V1V0H141.062V1ZM116.812 1V2H104.688V1V0H116.812V1ZM92.5625 1V2H80.4375V1V0H92.5625V1ZM68.3125 1V2H56.1875V1V0H68.3125V1ZM44.0625 1V2H38V1V0H44.0625V1ZM38 1V2C35.9284 2 33.9052 2.20307 31.9489 2.59008L31.7548 1.60909L31.5608 0.628102C33.6442 0.215938 35.7974 0 38 0V1ZM20.2203 6.38991L20.7766 7.22088C17.3956 9.48442 14.4844 12.3956 12.2209 15.7766L11.3899 15.2203L10.5589 14.664C12.9679 11.0657 16.0657 7.96792 19.664 5.55894L20.2203 6.38991ZM6.6091 26.7548L7.59009 26.9489C7.20306 28.9052 7 30.9284 7 33H6H5C5 30.7974 5.21594 28.6442 5.62811 26.5608L6.6091 26.7548ZM6 33H7V39.6667H6H5V33H6ZM6 53H7V66.3333H6H5V53H6ZM6 79.6667H7V93H6H5V79.6667H6ZM6 106.333H7V113H6H5V106.333H6Z" fill="#666666"/>
</svg>
