<svg width="327" height="119" viewBox="0 0 327 119" fill="none" xmlns="http://www.w3.org/2000/svg">
<path d="M315.667 113C315.667 115.946 318.054 118.333 321 118.333C323.945 118.333 326.333 115.946 326.333 113C326.333 110.054 323.945 107.667 321 107.667C318.054 107.667 315.667 110.054 315.667 113ZM0 1V2H6.02083V1V0H0V1ZM18.0625 1V2H30.1042V1V0H18.0625V1ZM42.1458 1V2H54.1875V1V0H42.1458V1ZM66.2292 1V2H78.2708V1V0H66.2292V1ZM90.3125 1V2H102.354V1V0H90.3125V1ZM114.396 1V2H126.437V1V0H114.396V1ZM138.479 1V2H150.521V1V0H138.479V1ZM162.562 1V2H174.604V1V0H162.562V1ZM186.646 1V2H198.688V1V0H186.646V1ZM210.729 1V2H222.771V1V0H210.729V1ZM234.813 1V2H246.854V1V0H234.813V1ZM258.896 1V2H270.938V1V0H258.896V1ZM282.979 1V2H289V1V0H282.979V1ZM289 1V2C291.072 2 293.095 2.20307 295.051 2.59008L295.245 1.60909L295.439 0.628102C293.356 0.215938 291.203 0 289 0V1ZM306.78 6.38991L306.223 7.22088C309.604 9.48442 312.516 12.3956 314.779 15.7766L315.61 15.2203L316.441 14.664C314.032 11.0657 310.934 7.96792 307.336 5.55894L306.78 6.38991ZM320.391 26.7548L319.41 26.9489C319.797 28.9052 320 30.9284 320 33H321H322C322 30.7974 321.784 28.6442 321.372 26.5608L320.391 26.7548ZM321 33H320V39.6667H321H322V33H321ZM321 53H320V66.3333H321H322V53H321ZM321 79.6667H320V93H321H322V79.6667H321ZM321 106.333H320V113H321H322V106.333H321Z" fill="#666666"/>
</svg>
