<svg width="319" height="46" viewBox="0 0 319 46" fill="none" xmlns="http://www.w3.org/2000/svg">
<path d="M11.3333 6C11.3333 3.05448 8.94553 0.666668 6 0.666668C3.05447 0.666668 0.666656 3.05448 0.666656 6C0.666656 8.94552 3.05447 11.3333 6 11.3333C8.94553 11.3333 11.3333 8.94552 11.3333 6ZM318.333 6C318.333 3.05448 315.946 0.666668 313 0.666668C310.054 0.666668 307.667 3.05448 307.667 6C307.667 8.94552 310.054 11.3333 313 11.3333C315.946 11.3333 318.333 8.94552 318.333 6ZM313 6H312V7.75H313H314V6H313ZM313 11.25H312V13H313H314V11.25H313ZM313 13H312C312 15.0716 311.797 17.0948 311.41 19.0511L312.391 19.2452L313.372 19.4393C313.784 17.3558 314 15.2026 314 13H313ZM307.61 30.7797L306.779 30.2234C304.516 33.6044 301.604 36.5156 298.223 38.7791L298.78 39.6101L299.336 40.4411C302.934 38.0321 306.032 34.9343 308.441 31.336L307.61 30.7797ZM287.245 44.3909L287.051 43.4099C285.095 43.7969 283.072 44 281 44V45V46C283.203 46 285.356 45.7841 287.439 45.3719L287.245 44.3909ZM281 45V44H274.925V45V46H281V45ZM262.775 45V44H250.625V45V46H262.775V45ZM238.475 45V44H226.325V45V46H238.475V45ZM214.175 45V44H202.025V45V46H214.175V45ZM189.875 45V44H177.725V45V46H189.875V45ZM165.575 45V44H153.425V45V46H165.575V45ZM141.275 45V44H129.125V45V46H141.275V45ZM116.975 45V44H104.825V45V46H116.975V45ZM92.675 45V44H80.525V45V46H92.675V45ZM68.375 45V44H56.225V45V46H68.375V45ZM44.075 45V44H38V45V46H44.075V45ZM38 45V44C35.9284 44 33.9052 43.7969 31.9489 43.4099L31.7548 44.3909L31.5608 45.3719C33.6442 45.7841 35.7974 46 38 46V45ZM20.2203 39.6101L20.7766 38.7791C17.3956 36.5156 14.4844 33.6044 12.2209 30.2234L11.3899 30.7797L10.5589 31.336C12.9679 34.9343 16.0657 38.0321 19.664 40.4411L20.2203 39.6101ZM6.6091 19.2452L7.59009 19.0511C7.20306 17.0948 7 15.0716 7 13H6H5C5 15.2026 5.21594 17.3558 5.62811 19.4393L6.6091 19.2452ZM6 13H7V11.25H6H5V13H6ZM6 7.75H7V6H6H5V7.75H6Z" fill="#666666"/>
</svg>
