<svg width="418" height="205" viewBox="0 0 418 205" fill="none" xmlns="http://www.w3.org/2000/svg">
<path d="M52.3806 204.59H0V177.134H11.9119V132.161L26.6224 128.758H36.4643V88.89H56.1552V96.1828H59.5581V56.8018H66.6084V101.538H73.1718H151.448V112.032H176.243V183.147H183.536V112.032H205.282V154.01H223.647V169.933H236.409V94.9342H252.818V130.696H269.956L284.541 99.2217H329.757L346.166 104.326V70.7801H365.699V101.538H378.254V130.696H395.028V155.685L418 159.513V204.59H52.3806Z" fill="#3D3D3D"/>
<path d="M44.0278 166.886C44.013 166.886 43.999 166.885 43.9835 166.884C42.7384 166.766 41.4807 166.553 40.244 166.246C39.9946 166.184 39.8421 165.932 39.9039 165.682C39.9651 165.432 40.2166 165.28 40.4682 165.342C41.6592 165.637 42.8719 165.844 44.0713 165.955C44.3278 165.98 44.5154 166.207 44.4915 166.463C44.469 166.705 44.266 166.886 44.0278 166.886ZM35.1077 164.363C35.0403 164.363 34.9721 164.348 34.9068 164.318C33.7882 163.782 32.6773 163.162 31.6036 162.475C31.3872 162.336 31.324 162.048 31.4624 161.831C31.6008 161.614 31.8889 161.55 32.106 161.69C33.1473 162.356 34.2252 162.957 35.3087 163.476C35.5405 163.587 35.6389 163.865 35.5279 164.098C35.4485 164.266 35.282 164.363 35.1077 164.363ZM27.4285 159.143C27.3161 159.143 27.2037 159.103 27.1144 159.021C26.1877 158.176 25.2967 157.269 24.4662 156.327C24.2962 156.133 24.3144 155.84 24.5076 155.669C24.7002 155.5 24.996 155.518 25.1653 155.71C25.9741 156.628 26.8404 157.51 27.7426 158.333C27.933 158.506 27.9464 158.801 27.7728 158.991C27.6808 159.093 27.555 159.143 27.4285 159.143ZM21.4512 152.028C21.2987 152.028 21.149 151.954 21.0598 151.816C20.393 150.787 19.7515 149.695 19.1521 148.569C19.0312 148.342 19.1177 148.06 19.3446 147.939C19.5716 147.817 19.854 147.905 19.9749 148.132C20.5616 149.234 21.1898 150.303 21.8418 151.309C21.9823 151.525 21.9205 151.814 21.7041 151.954C21.6254 152.004 21.5376 152.028 21.4512 152.028ZM17.2346 143.737C17.0491 143.737 16.8734 143.625 16.8011 143.441C16.3535 142.304 15.9305 141.113 15.544 139.901C15.466 139.656 15.6016 139.393 15.8469 139.315C16.0907 139.239 16.3542 139.374 16.4322 139.618C16.8123 140.81 17.2283 141.982 17.6681 143.101C17.7623 143.341 17.6442 143.611 17.4053 143.705C17.3491 143.727 17.2915 143.737 17.2346 143.737ZM14.5231 134.83C14.3109 134.83 14.1184 134.684 14.0692 134.467C13.9764 134.061 13.8879 133.655 13.8022 133.247C13.6314 132.432 13.4733 131.613 13.3307 130.789C13.2864 130.535 13.4565 130.294 13.7101 130.25C13.9652 130.201 14.2048 130.375 14.2491 130.629C14.3903 131.442 14.5463 132.252 14.7142 133.057C14.7985 133.458 14.8864 133.859 14.977 134.26C15.0346 134.511 14.8772 134.76 14.6264 134.818C14.5927 134.826 14.5575 134.83 14.5231 134.83ZM13.0785 125.631C12.8382 125.631 12.6344 125.446 12.614 125.202C12.5114 123.934 12.4531 122.671 12.4405 121.447C12.4376 121.19 12.6442 120.979 12.9014 120.976C12.9035 120.976 12.9049 120.976 12.9063 120.976C13.1614 120.976 13.3694 121.182 13.3722 121.437C13.3841 122.639 13.4417 123.88 13.5429 125.128C13.5633 125.383 13.3722 125.608 13.1164 125.629C13.1045 125.63 13.0918 125.631 13.0785 125.631ZM13.1846 116.328C13.167 116.328 13.1494 116.327 13.1312 116.325C12.8754 116.296 12.692 116.065 12.7215 115.809C12.8656 114.544 13.0665 113.292 13.3209 112.087C13.3743 111.834 13.6223 111.674 13.8724 111.727C14.124 111.78 14.2856 112.027 14.2322 112.278C13.9849 113.455 13.7874 114.678 13.6469 115.915C13.6195 116.152 13.4178 116.328 13.1846 116.328ZM47.0372 112.928C46.766 112.911 46.5243 112.919 46.2678 112.9C46.0113 112.881 45.8188 112.657 45.8378 112.401C45.856 112.144 46.076 111.95 46.3366 111.971C46.5706 111.988 46.813 111.967 47.0372 111.997C48.0174 111.997 48.9498 111.836 49.8084 111.52C50.0494 111.432 50.3171 111.555 50.4071 111.796C50.4956 112.038 50.3726 112.306 50.1309 112.395C49.1683 112.749 48.127 112.928 47.0372 112.928ZM41.0788 111.078C40.9902 111.078 40.901 111.053 40.8216 111.001C40.2707 110.636 39.755 110.225 39.2884 109.781C38.8345 109.348 38.4017 108.873 38.0019 108.368C37.8417 108.167 37.8761 107.874 38.0771 107.714C38.278 107.552 38.571 107.588 38.7312 107.79C39.1051 108.261 39.5084 108.704 39.9314 109.107C40.3579 109.514 40.8307 109.889 41.3366 110.225C41.5509 110.367 41.61 110.656 41.468 110.871C41.3781 111.005 41.2298 111.078 41.0788 111.078ZM54.051 108.796C53.9793 108.796 53.9069 108.78 53.8395 108.745C53.6104 108.628 53.5198 108.347 53.6364 108.118C54.1472 107.118 54.4508 105.974 54.5386 104.721C54.5562 104.464 54.7859 104.281 55.0361 104.288C55.2925 104.306 55.4865 104.529 55.4689 104.785C55.3726 106.165 55.0354 107.43 54.4669 108.543C54.384 108.703 54.221 108.796 54.051 108.796ZM15.3557 107.29C15.2995 107.29 15.2426 107.281 15.1871 107.259C14.9475 107.165 14.8287 106.896 14.9222 106.655C15.3782 105.481 15.9066 104.324 16.4919 103.216C16.6121 102.989 16.8924 102.902 17.1215 103.023C17.3491 103.143 17.4355 103.424 17.3154 103.652C16.747 104.727 16.234 105.851 15.79 106.992C15.7183 107.178 15.5419 107.29 15.3557 107.29ZM35.745 103.637C35.5518 103.637 35.3719 103.516 35.3052 103.323C34.911 102.189 34.5899 100.953 34.3517 99.6492C34.3053 99.3962 34.4725 99.1538 34.7262 99.1074C34.9791 99.0618 35.2222 99.229 35.2679 99.4819C35.4984 100.739 35.8068 101.929 36.1849 103.018C36.2692 103.261 36.1406 103.526 35.8975 103.611C35.8476 103.628 35.7956 103.637 35.745 103.637ZM54.1332 99.7391C53.9456 99.7391 53.7692 99.6253 53.6982 99.4398C53.2598 98.2959 52.6801 97.2377 51.9732 96.294C51.8194 96.0882 51.8615 95.7959 52.0667 95.6413C52.2726 95.4874 52.5656 95.5296 52.7194 95.7347C53.4776 96.7472 54.0994 97.8813 54.5681 99.106C54.6602 99.3463 54.54 99.6154 54.2997 99.7075C54.2456 99.7293 54.1887 99.7391 54.1332 99.7391ZM19.951 99.2227C19.8498 99.2227 19.7472 99.1896 19.6615 99.1215C19.4599 98.9613 19.4261 98.6683 19.5863 98.4666C20.381 97.466 21.2383 96.5231 22.1341 95.6645C22.3203 95.4853 22.6147 95.4923 22.7932 95.6778C22.9717 95.864 22.9653 96.1591 22.7791 96.3369C21.9128 97.1667 21.0844 98.0788 20.3157 99.0463C20.2243 99.1622 20.088 99.2227 19.951 99.2227ZM34.2919 94.4707C34.0369 94.4707 33.8289 94.2655 33.8261 94.0098L33.824 93.6149C33.824 92.4977 33.8774 91.3615 33.9821 90.2387C34.006 89.9822 34.2308 89.7911 34.4901 89.8185C34.7466 89.8424 34.9342 90.07 34.9103 90.3265C34.8077 91.4198 34.7557 92.5272 34.7557 93.617L34.7578 93.9999C34.7606 94.2578 34.554 94.4679 34.2969 94.4707C34.2948 94.4707 34.2934 94.4707 34.2919 94.4707ZM26.8847 93.0731C26.7259 93.0731 26.572 92.9923 26.4842 92.8462C26.3521 92.6255 26.4245 92.3396 26.6451 92.2075C27.359 91.781 28.1003 91.3896 28.8479 91.0446C29.2456 90.8612 29.6489 90.6905 30.0585 90.5331C30.2981 90.4403 30.5679 90.5598 30.6607 90.8001C30.7534 91.0397 30.634 91.3095 30.3937 91.4022C30.003 91.5533 29.618 91.7156 29.2385 91.8913C28.5211 92.2222 27.8094 92.5981 27.1229 93.0078C27.0484 93.0513 26.9662 93.0731 26.8847 93.0731ZM48.1853 92.7956C48.1024 92.7956 48.0181 92.7731 47.9422 92.7267C46.9297 92.1049 45.8293 91.5793 44.6721 91.164C44.4304 91.0769 44.3039 90.8106 44.391 90.5682C44.4782 90.3258 44.7431 90.2007 44.9869 90.2871C46.2038 90.7235 47.3625 91.2772 48.4298 91.9327C48.649 92.0676 48.7179 92.3543 48.583 92.5742C48.4945 92.7169 48.3413 92.7956 48.1853 92.7956ZM35.6473 90.1347C35.412 90.1347 35.2096 89.9569 35.185 89.7173C35.1583 89.4615 35.3438 89.2325 35.5996 89.2051C36.8587 89.0716 38.1396 89.0477 39.4023 89.1334C39.6587 89.151 39.8534 89.373 39.8358 89.6302C39.8182 89.8866 39.6004 90.0742 39.339 90.0637C38.1305 89.9815 36.9037 90.0047 35.6965 90.1319C35.6804 90.134 35.6635 90.1347 35.6473 90.1347ZM35.3824 85.2422C35.3459 85.2422 35.308 85.238 35.2707 85.2288C35.0213 85.1677 34.8681 84.9147 34.9299 84.6653C35.2272 83.4596 35.5883 82.244 36.0036 81.0523C36.0879 80.8099 36.3542 80.682 36.5966 80.7656C36.8397 80.85 36.9676 81.1163 36.8833 81.3587C36.4779 82.5229 36.1251 83.7104 35.8342 84.888C35.7816 85.1002 35.5918 85.2422 35.3824 85.2422ZM38.6301 76.5308C38.5598 76.5308 38.4874 76.5146 38.4207 76.4809C38.1909 76.365 38.0989 76.0846 38.2148 75.8549C38.7755 74.7454 39.3945 73.6401 40.0543 72.5693C40.1892 72.3501 40.4759 72.2805 40.6951 72.4168C40.9144 72.5517 40.9825 72.8391 40.8476 73.0576C40.2012 74.106 39.5948 75.1888 39.046 76.2743C38.9645 76.4374 38.8001 76.5308 38.6301 76.5308ZM43.6715 68.7139C43.5696 68.7139 43.4664 68.6802 43.3799 68.6113C43.179 68.4504 43.1474 68.1574 43.3083 67.9565C44.0903 66.9812 44.9222 66.0256 45.7802 65.1178C45.9565 64.9309 46.2516 64.9218 46.4385 65.0988C46.6254 65.2752 46.6339 65.5703 46.4575 65.7572C45.6171 66.6474 44.8014 67.5834 44.0355 68.5397C43.9434 68.6542 43.8078 68.7139 43.6715 68.7139ZM50.1963 62.0824C50.0621 62.0824 49.9293 62.0248 49.8365 61.9137C49.6728 61.7156 49.7002 61.4219 49.8983 61.2575C50.8652 60.4564 51.8735 59.6892 52.8944 58.9774C53.1066 58.8305 53.3961 58.8832 53.543 59.0933C53.6898 59.3048 53.6385 59.595 53.427 59.7426C52.4264 60.4403 51.4392 61.1914 50.4921 61.9763C50.4056 62.0472 50.301 62.0824 50.1963 62.0824ZM57.9415 56.9299C57.7736 56.9299 57.6112 56.8385 57.5276 56.6797C57.4089 56.4514 57.4974 56.1703 57.7251 56.0509C58.8275 55.4754 59.9714 54.9337 61.1252 54.4404C61.3634 54.3399 61.636 54.4503 61.7372 54.6856C61.8383 54.9224 61.7287 55.1965 61.4919 55.2977C60.36 55.7811 59.2379 56.313 58.1565 56.8772C58.0876 56.913 58.0139 56.9299 57.9415 56.9299ZM105.52 55.1058C105.467 55.1058 105.413 55.0974 105.361 55.0777C104.621 54.81 103.875 54.5543 103.124 54.3111C102.879 54.2325 102.745 53.9697 102.824 53.7244C102.903 53.4799 103.164 53.345 103.41 53.4244C104.171 53.6703 104.928 53.9296 105.678 54.2008C105.92 54.2879 106.046 54.5557 105.958 54.7974C105.889 54.9878 105.71 55.1058 105.52 55.1058ZM66.5622 53.4279C66.362 53.4279 66.1765 53.2979 66.116 53.097C66.0416 52.851 66.1814 52.5904 66.4273 52.5166C67.6141 52.1582 68.8367 51.8357 70.0621 51.5582C70.3115 51.5034 70.5624 51.6587 70.6193 51.9102C70.6762 52.1611 70.5188 52.4105 70.2672 52.4674C69.0636 52.74 67.8614 53.0569 66.6957 53.4082C66.6515 53.4216 66.6065 53.4279 66.5622 53.4279ZM97.8825 52.8349C97.8474 52.8349 97.8115 52.8307 97.7757 52.8222C96.5763 52.5405 95.3565 52.2896 94.1501 52.076C93.8964 52.0318 93.7271 51.7894 93.7721 51.5357C93.817 51.282 94.0566 51.1113 94.3117 51.1584C95.535 51.3748 96.7723 51.6292 97.9879 51.9144C98.2388 51.9734 98.394 52.2236 98.335 52.4744C98.2851 52.6901 98.094 52.8349 97.8825 52.8349ZM75.6706 51.5217C75.4387 51.5217 75.237 51.3488 75.2089 51.1127C75.1773 50.8577 75.3593 50.6251 75.6144 50.5935C76.8468 50.4417 78.1059 50.3279 79.3552 50.2548C79.6103 50.2464 79.8323 50.4361 79.8478 50.6925C79.8625 50.9497 79.6672 51.1696 79.41 51.1851C78.1797 51.2575 76.9409 51.3692 75.7282 51.5188C75.7085 51.5202 75.6888 51.5217 75.6706 51.5217ZM88.6912 51.3418C88.6772 51.3418 88.6631 51.3411 88.6484 51.3397C87.4174 51.2279 86.1751 51.1514 84.956 51.112C84.6988 51.1036 84.4972 50.8886 84.5056 50.6314C84.514 50.3735 84.7564 50.1712 84.9862 50.181C86.2236 50.2204 87.4841 50.2984 88.7334 50.4115C88.9899 50.4347 89.1782 50.6609 89.155 50.9181C89.1332 51.1598 88.9294 51.3418 88.6912 51.3418Z" fill="#50448C"/>
<path d="M116.19 71.6955C115.969 71.6955 115.772 71.5375 115.732 71.3112C115.514 70.0844 115.346 68.8281 115.232 67.5788C115.209 67.3223 115.398 67.0953 115.654 67.0722C115.918 67.0511 116.137 67.238 116.16 67.4937C116.271 68.717 116.436 69.946 116.65 71.1482C116.695 71.4011 116.526 71.6435 116.273 71.6885C116.244 71.6934 116.217 71.6955 116.19 71.6955ZM115.542 62.4157C115.536 62.4157 115.531 62.4157 115.526 62.415C115.269 62.4066 115.067 62.1909 115.076 61.9337C115.118 60.6957 115.212 59.433 115.356 58.1816C115.384 57.9252 115.617 57.734 115.871 57.772C116.127 57.8015 116.311 58.032 116.281 58.2877C116.141 59.5145 116.048 60.7526 116.007 61.9661C115.998 62.2176 115.791 62.4157 115.542 62.4157ZM116.773 53.1964C116.738 53.1964 116.703 53.1929 116.667 53.1844C116.417 53.1261 116.261 52.876 116.318 52.6251C116.598 51.418 116.927 50.1975 117.298 48.996C117.374 48.75 117.633 48.6102 117.88 48.6882C118.126 48.7641 118.264 49.0248 118.188 49.2707C117.825 50.4504 117.501 51.6498 117.226 52.8352C117.176 53.0509 116.984 53.1964 116.773 53.1964ZM280.881 48.84C280.657 48.84 280.459 48.6784 280.421 48.4493C280.224 47.2485 279.971 46.0357 279.668 44.8434C279.604 44.5932 279.755 44.3403 280.005 44.277C280.252 44.2124 280.508 44.3635 280.571 44.6136C280.881 45.832 281.14 47.0714 281.341 48.299C281.382 48.5526 281.21 48.7922 280.956 48.8344C280.931 48.8379 280.905 48.84 280.881 48.84ZM119.662 44.3529C119.601 44.3529 119.54 44.341 119.48 44.3157C119.243 44.2152 119.133 43.9419 119.233 43.7044C119.715 42.5668 120.245 41.4194 120.81 40.2959C120.924 40.0668 121.205 39.9733 121.435 40.0886C121.665 40.2038 121.758 40.4842 121.642 40.7139C121.087 41.8199 120.565 42.9483 120.091 44.069C120.016 44.2461 119.843 44.3529 119.662 44.3529ZM278.406 39.8771C278.22 39.8771 278.044 39.7646 277.972 39.5806C277.528 38.4479 277.031 37.3103 276.493 36.1994C276.381 35.9676 276.478 35.6893 276.709 35.5769C276.943 35.4666 277.22 35.5628 277.332 35.7933C277.88 36.926 278.387 38.0853 278.84 39.2412C278.933 39.4808 278.815 39.7506 278.575 39.8448C278.521 39.8672 278.462 39.8771 278.406 39.8771ZM123.964 36.0983C123.879 36.0983 123.794 36.0758 123.718 36.028C123.499 35.8917 123.433 35.6043 123.569 35.3858C124.226 34.3318 124.926 33.2807 125.651 32.2604C125.8 32.0517 126.091 32.0005 126.301 32.1501C126.51 32.2991 126.559 32.59 126.411 32.8001C125.698 33.8048 125.008 34.8405 124.36 35.879C124.271 36.0203 124.119 36.0983 123.964 36.0983ZM274.202 31.5754C274.047 31.5754 273.896 31.4981 273.807 31.3575C273.159 30.3268 272.462 29.2974 271.734 28.2982C271.583 28.0902 271.629 27.7987 271.837 27.6469C272.044 27.4958 272.336 27.5415 272.488 27.7495C273.229 28.7655 273.938 29.8124 274.597 30.8615C274.734 31.0793 274.669 31.3667 274.451 31.5037C274.372 31.5515 274.286 31.5754 274.202 31.5754ZM129.461 28.5842C129.354 28.5842 129.248 28.5477 129.16 28.4732C128.964 28.3067 128.94 28.013 129.106 27.8162C129.913 26.8669 130.758 25.9282 131.619 25.0267C131.797 24.8405 132.093 24.8349 132.278 25.0113C132.464 25.189 132.471 25.4841 132.294 25.6703C131.445 26.5592 130.611 27.4846 129.816 28.4198C129.725 28.528 129.593 28.5842 129.461 28.5842ZM268.597 24.1414C268.469 24.1414 268.341 24.0887 268.249 23.9854C267.434 23.0706 266.576 22.1691 265.701 21.3048C265.519 21.1242 265.517 20.8291 265.698 20.6457C265.879 20.4631 266.174 20.4603 266.357 20.6422C267.245 21.5198 268.116 22.4361 268.945 23.365C269.116 23.5568 269.099 23.8512 268.908 24.0226C268.819 24.102 268.708 24.1414 268.597 24.1414ZM135.988 21.9407C135.859 21.9407 135.731 21.8873 135.639 21.7826C135.469 21.5894 135.487 21.295 135.68 21.125C136.617 20.3 137.589 19.4927 138.57 18.7254C138.772 18.5666 139.065 18.6032 139.224 18.8055C139.382 19.0086 139.346 19.3009 139.144 19.4597C138.177 20.2157 137.219 21.0111 136.297 21.8234C136.207 21.9021 136.098 21.9407 135.988 21.9407ZM261.876 17.6975C261.772 17.6975 261.667 17.663 261.581 17.5914C260.633 16.8135 259.648 16.054 258.652 15.3317C258.443 15.1806 258.397 14.8897 258.548 14.681C258.698 14.4723 258.988 14.426 259.199 14.577C260.21 15.3099 261.21 16.0814 262.172 16.8712C262.371 17.0342 262.4 17.3279 262.236 17.5267C262.144 17.6391 262.011 17.6975 261.876 17.6975ZM143.405 16.309C143.253 16.309 143.105 16.2353 143.015 16.0989C142.874 15.8839 142.934 15.5951 143.149 15.4539C144.182 14.7759 145.254 14.1105 146.334 13.4753C146.555 13.3439 146.842 13.4191 146.972 13.6411C147.102 13.8631 147.028 14.1484 146.806 14.2791C145.739 14.9059 144.68 15.5635 143.66 16.2332C143.581 16.2844 143.493 16.309 143.405 16.309ZM254.254 12.3496C254.173 12.3496 254.091 12.3286 254.017 12.2843C253.369 11.8993 252.715 11.5269 252.054 11.1671C251.632 10.9373 251.208 10.7118 250.782 10.4912C250.553 10.3731 250.464 10.0921 250.582 9.86299C250.7 9.63533 250.98 9.5447 251.21 9.66344C251.642 9.88688 252.072 10.1145 252.5 10.3485C253.171 10.7132 253.835 11.0919 254.493 11.4826C254.714 11.614 254.787 11.8993 254.655 12.1213C254.568 12.2681 254.414 12.3496 254.254 12.3496ZM151.487 11.6835C151.315 11.6835 151.15 11.5887 151.07 11.425C150.955 11.1945 151.049 10.9149 151.28 10.801C152.382 10.2537 153.524 9.71825 154.673 9.20954C154.911 9.10695 155.184 9.21235 155.288 9.44773C155.392 9.68312 155.285 9.95855 155.049 10.0625C153.912 10.5649 152.784 11.094 151.694 11.6358C151.627 11.6681 151.556 11.6835 151.487 11.6835ZM245.938 8.16963C245.876 8.16963 245.815 8.15768 245.756 8.13309C244.637 7.6588 243.478 7.20068 242.311 6.77137C242.07 6.68283 241.946 6.41442 242.034 6.17341C242.123 5.93171 242.392 5.80875 242.632 5.89658C243.814 6.33081 244.987 6.79455 246.12 7.27446C246.356 7.37493 246.467 7.64826 246.367 7.88576C246.291 8.06353 246.119 8.16963 245.938 8.16963ZM160.042 8.00521C159.853 8.00521 159.675 7.88857 159.605 7.70026C159.517 7.45925 159.64 7.19085 159.881 7.10161C161.038 6.67511 162.228 6.26195 163.419 5.87409C163.663 5.79329 163.927 5.9289 164.007 6.17271C164.086 6.41723 163.953 6.68073 163.708 6.76013C162.528 7.14447 161.349 7.5527 160.203 7.9757C160.151 7.99677 160.096 8.00521 160.042 8.00521ZM168.924 5.20447C168.718 5.20447 168.53 5.06676 168.474 4.85807C168.408 4.60934 168.556 4.35427 168.805 4.28823C169.986 3.97414 171.209 3.67201 172.438 3.38884C172.692 3.33123 172.94 3.48792 172.997 3.73806C173.055 3.9889 172.898 4.23904 172.648 4.29666C171.428 4.57772 170.216 4.87704 169.045 5.18902C169.004 5.19956 168.964 5.20447 168.924 5.20447ZM237.162 5.05411C237.119 5.05411 237.074 5.04849 237.031 5.03514C235.863 4.69436 234.659 4.36973 233.45 4.07111C233.2 4.00928 233.048 3.75633 233.11 3.50689C233.171 3.25675 233.423 3.10497 233.674 3.16681C234.896 3.46824 236.113 3.79638 237.292 4.14067C237.54 4.21304 237.682 4.47161 237.609 4.71824C237.549 4.92201 237.364 5.05411 237.162 5.05411ZM178.019 3.18718C177.797 3.18718 177.601 3.02909 177.561 2.80424C177.515 2.55059 177.683 2.30888 177.937 2.26251C179.163 2.04118 180.394 1.83811 181.627 1.65191C181.887 1.61537 182.119 1.78963 182.157 2.04328C182.195 2.29834 182.02 2.53514 181.766 2.57378C180.54 2.75787 179.319 2.95953 178.102 3.18016C178.074 3.18508 178.046 3.18718 178.019 3.18718ZM228.098 2.90543C228.07 2.90543 228.041 2.90262 228.012 2.8977C226.821 2.67496 225.59 2.46838 224.352 2.28289C224.098 2.24494 223.923 2.00745 223.96 1.75309C223.998 1.49873 224.232 1.3294 224.491 1.36102C225.739 1.54792 226.981 1.75661 228.184 1.98145C228.437 2.02853 228.603 2.27235 228.556 2.5253C228.514 2.74874 228.319 2.90543 228.098 2.90543ZM187.241 1.85989C187.006 1.85989 186.804 1.68353 186.778 1.44463C186.75 1.18887 186.935 0.959105 187.19 0.930999C188.429 0.795389 189.671 0.675939 190.912 0.571948C191.182 0.548058 191.394 0.740584 191.415 0.997049C191.437 1.25351 191.247 1.47906 190.99 1.50014C189.756 1.60413 188.523 1.72288 187.291 1.85708C187.275 1.85919 187.258 1.85989 187.241 1.85989ZM218.873 1.5957C218.858 1.5957 218.842 1.595 218.826 1.59359C217.595 1.46993 216.361 1.36524 215.125 1.2774C214.869 1.25914 214.676 1.0371 214.694 0.779934C214.712 0.522767 214.938 0.328131 215.191 0.347805C216.436 0.435635 217.679 0.541033 218.919 0.666104C219.175 0.692102 219.362 0.920459 219.336 1.17622C219.312 1.41652 219.11 1.5957 218.873 1.5957ZM196.532 1.13336C196.285 1.13336 196.079 0.939435 196.067 0.689997C196.054 0.432829 196.252 0.214302 196.509 0.201655C197.756 0.141228 199.002 0.0941531 200.245 0.0604262C200.493 0.0562104 200.717 0.256461 200.723 0.513628C200.73 0.770796 200.527 0.985101 200.27 0.992128C199.033 1.02515 197.795 1.07223 196.555 1.13266C196.547 1.13336 196.54 1.13336 196.532 1.13336ZM209.575 0.999156C209.57 0.999156 209.565 0.999156 209.56 0.999156C208.322 0.961213 207.082 0.939431 205.845 0.931702C205.587 0.930296 205.38 0.720909 205.382 0.463039C205.383 0.206575 205.592 0 205.848 0H205.85C207.095 0.00702643 208.343 0.0288084 209.588 0.0681564C209.846 0.0758855 210.048 0.290893 210.04 0.54806C210.033 0.799606 209.826 0.999156 209.575 0.999156Z" fill="#50448C"/>
<path d="M367.056 123.927C367.023 123.927 366.99 123.923 366.957 123.916C366.704 123.861 366.546 123.613 366.601 123.361C366.69 122.957 366.773 122.551 366.852 122.144C366.901 121.891 367.151 121.73 367.399 121.775C367.652 121.825 367.816 122.071 367.767 122.322C367.687 122.736 367.601 123.148 367.511 123.559C367.463 123.779 367.271 123.927 367.056 123.927ZM368.083 117.165C368.07 117.165 368.056 117.165 368.043 117.163C367.786 117.142 367.596 116.917 367.618 116.66C367.722 115.431 367.782 114.19 367.8 112.971C367.803 112.716 368.011 112.512 368.266 112.512C368.268 112.512 368.271 112.512 368.272 112.512C368.53 112.515 368.735 112.727 368.731 112.984C368.714 114.225 368.651 115.488 368.546 116.739C368.526 116.981 368.323 117.165 368.083 117.165ZM368.037 107.86C367.8 107.86 367.597 107.679 367.574 107.438C367.456 106.215 367.29 104.984 367.082 103.78C367.038 103.526 367.208 103.285 367.462 103.241C367.711 103.197 367.956 103.367 368 103.621C368.213 104.848 368.382 106.102 368.502 107.349C368.527 107.605 368.339 107.832 368.083 107.857C368.067 107.858 368.052 107.86 368.037 107.86ZM309.369 105.029C309.361 105.029 309.353 105.029 309.346 105.028C307.94 104.956 306.666 104.72 305.56 104.326C305.317 104.24 305.192 103.973 305.277 103.73C305.363 103.487 305.629 103.361 305.873 103.448C306.894 103.812 308.079 104.03 309.393 104.097C309.651 104.11 309.848 104.329 309.835 104.586C309.821 104.835 309.615 105.029 309.369 105.029ZM314.932 104.602C314.71 104.602 314.513 104.443 314.473 104.217C314.429 103.963 314.599 103.722 314.852 103.677C316.047 103.467 317.25 103.186 318.429 102.839C318.681 102.766 318.935 102.909 319.007 103.155C319.08 103.402 318.938 103.661 318.691 103.733C317.479 104.089 316.241 104.379 315.013 104.596C314.986 104.6 314.959 104.602 314.932 104.602ZM323.774 101.749C323.601 101.749 323.434 101.652 323.354 101.485C323.243 101.252 323.341 100.974 323.573 100.863C324.671 100.338 325.759 99.7469 326.805 99.1061C327.023 98.9733 327.31 99.04 327.446 99.26C327.579 99.4792 327.511 99.7666 327.291 99.9008C326.218 100.558 325.102 101.165 323.976 101.704C323.911 101.735 323.842 101.749 323.774 101.749ZM301.552 100.836C301.382 100.836 301.219 100.743 301.137 100.582C300.585 99.4996 300.264 98.2299 300.182 96.8084C300.168 96.5513 300.364 96.3313 300.621 96.3166C300.876 96.3039 301.098 96.4979 301.113 96.755C301.186 98.0472 301.475 99.1925 301.966 100.159C302.083 100.388 301.992 100.669 301.763 100.785C301.695 100.82 301.623 100.836 301.552 100.836ZM366.266 98.726C366.065 98.726 365.88 98.596 365.82 98.3936C365.464 97.2075 365.06 96.0348 364.618 94.9071C364.524 94.6675 364.642 94.397 364.882 94.3035C365.12 94.2094 365.393 94.3274 365.486 94.567C365.937 95.7179 366.35 96.9159 366.711 98.1259C366.786 98.3725 366.646 98.6325 366.399 98.7063C366.355 98.7189 366.309 98.726 366.266 98.726ZM331.574 96.696C331.442 96.696 331.312 96.6398 331.219 96.5316C331.053 96.3356 331.077 96.0419 331.274 95.8753C332.21 95.0813 333.112 94.234 333.953 93.3571C334.13 93.1716 334.426 93.1652 334.611 93.3437C334.798 93.5222 334.803 93.8166 334.625 94.0028C333.762 94.9029 332.837 95.772 331.876 96.5871C331.788 96.6595 331.68 96.696 331.574 96.696ZM301.352 91.7241C301.311 91.7241 301.269 91.7185 301.227 91.7073C300.979 91.6384 300.834 91.3812 300.903 91.1339C301.238 89.9261 301.667 88.7252 302.179 87.5638C302.283 87.3291 302.559 87.2223 302.793 87.3256C303.028 87.4296 303.135 87.7043 303.031 87.9397C302.537 89.0597 302.123 90.2183 301.8 91.3833C301.744 91.5892 301.556 91.7241 301.352 91.7241ZM362.68 90.1453C362.516 90.1453 362.356 90.0582 362.272 89.905C361.747 88.9557 361.178 88.0177 360.579 87.1169L360.344 86.7663C360.199 86.5534 360.254 86.2632 360.467 86.1184C360.679 85.9758 360.969 86.0285 361.114 86.2421L361.357 86.6019C361.969 87.523 362.551 88.4828 363.088 89.4539C363.212 89.6794 363.131 89.9626 362.906 90.0877C362.834 90.127 362.756 90.1453 362.68 90.1453ZM337.829 89.8249C337.736 89.8249 337.643 89.7975 337.562 89.7413C337.351 89.5937 337.299 89.3035 337.447 89.092C338.144 88.0936 338.801 87.0438 339.4 85.9737C339.525 85.7488 339.81 85.6687 340.034 85.7952C340.259 85.921 340.339 86.2049 340.213 86.429C339.599 87.5258 338.925 88.6009 338.212 89.6253C338.12 89.7553 337.975 89.8249 337.829 89.8249ZM305.369 83.3704C305.276 83.3704 305.182 83.343 305.099 83.284C304.89 83.135 304.841 82.8441 304.991 82.634C305.713 81.6187 306.515 80.6308 307.375 79.6977C307.55 79.5087 307.844 79.4967 308.033 79.671C308.222 79.8452 308.234 80.1403 308.06 80.3294C307.226 81.2337 306.449 82.1907 305.749 83.1751C305.659 83.3022 305.515 83.3704 305.369 83.3704ZM357.255 82.5961C357.129 82.5961 357.004 82.5455 356.912 82.4457C356.085 81.547 355.203 80.6765 354.291 79.8586C354.1 79.6864 354.084 79.392 354.256 79.2009C354.429 79.0091 354.723 78.9936 354.914 79.1651C355.847 80.0026 356.749 80.8943 357.597 81.814C357.771 82.0031 357.76 82.2982 357.57 82.4724C357.481 82.5553 357.368 82.5961 357.255 82.5961ZM342.179 81.6096C342.123 81.6096 342.067 81.5997 342.011 81.5787C341.771 81.4866 341.652 81.2161 341.744 80.9765C342.181 79.841 342.572 78.6655 342.907 77.4816C342.977 77.2342 343.235 77.0881 343.481 77.1604C343.729 77.2307 343.873 77.4879 343.803 77.7352C343.46 78.9466 343.06 80.1495 342.613 81.311C342.543 81.4965 342.366 81.6096 342.179 81.6096ZM311.856 76.7325C311.715 76.7325 311.575 76.6686 311.484 76.547C311.328 76.3419 311.369 76.0496 311.575 75.8943C312.575 75.1389 313.632 74.4328 314.717 73.7955C314.939 73.6648 315.225 73.7393 315.355 73.9613C315.485 74.1833 315.411 74.4693 315.189 74.5993C314.135 75.2183 313.108 75.9041 312.136 76.6384C312.053 76.7016 311.954 76.7325 311.856 76.7325ZM350.192 76.5505C350.102 76.5505 350.012 76.5253 349.933 76.4726C348.909 75.7882 347.847 75.1502 346.778 74.5754C346.552 74.4532 346.466 74.1707 346.588 73.9444C346.709 73.7175 346.994 73.6332 347.218 73.7547C348.313 74.3436 349.401 74.997 350.449 75.6975C350.664 75.8409 350.721 76.1304 350.579 76.344C350.489 76.4775 350.341 76.5505 350.192 76.5505ZM344.507 72.6059C344.485 72.6059 344.464 72.6045 344.442 72.601C344.187 72.5652 344.01 72.3291 344.045 72.0747C344.215 70.8655 344.332 69.6316 344.393 68.4076C344.405 68.1512 344.596 67.9537 344.882 67.9657C345.138 67.9783 345.336 68.1975 345.323 68.454C345.261 69.7061 345.141 70.9681 344.967 72.2054C344.935 72.438 344.736 72.6059 344.507 72.6059ZM341.895 72.3586C341.843 72.3586 341.79 72.3502 341.738 72.3312C340.578 71.9173 339.393 71.5625 338.216 71.2772C337.966 71.2168 337.813 70.9645 337.874 70.7151C337.935 70.465 338.184 70.3097 338.437 70.3722C339.646 70.6652 340.861 71.0299 342.051 71.455C342.293 71.5414 342.42 71.8084 342.333 72.0501C342.265 72.2391 342.086 72.3586 341.895 72.3586ZM319.997 72.2644C319.808 72.2644 319.63 72.1485 319.56 71.9609C319.47 71.7199 319.593 71.4515 319.835 71.3615C321.021 70.9203 322.237 70.5486 323.45 70.2556C323.701 70.193 323.952 70.3497 324.013 70.5999C324.072 70.85 323.919 71.1016 323.668 71.162C322.491 71.4451 321.31 71.8063 320.159 72.2349C320.106 72.2546 320.051 72.2644 319.997 72.2644ZM332.811 70.427C332.799 70.427 332.789 70.4263 332.777 70.4256C331.553 70.3392 330.326 70.3237 329.107 70.382C328.845 70.3961 328.632 70.1951 328.62 69.9387C328.608 69.6815 328.806 69.4637 329.064 69.451C330.322 69.3927 331.583 69.4082 332.843 69.4967C333.1 69.5143 333.294 69.7377 333.275 69.9942C333.258 70.2394 333.053 70.427 332.811 70.427ZM344.748 63.3107C344.511 63.3107 344.308 63.1294 344.285 62.8877C344.171 61.6489 343.994 60.4235 343.76 59.2466C343.71 58.9943 343.874 58.7491 344.126 58.6992C344.383 58.6486 344.624 58.813 344.674 59.0653C344.915 60.2731 345.096 61.5309 345.214 62.8012C345.238 63.0577 345.05 63.2847 344.792 63.3085C344.778 63.3107 344.763 63.3107 344.748 63.3107ZM286.023 58.2242C285.908 58.2242 285.794 58.1821 285.703 58.0977C285.515 57.9214 285.507 57.6263 285.683 57.4387C286.535 56.533 287.401 55.6343 288.282 54.7489C288.464 54.5677 288.76 54.5663 288.942 54.7475C289.123 54.9295 289.124 55.2246 288.943 55.4066C288.067 56.2856 287.207 57.178 286.361 58.0774C286.271 58.175 286.147 58.2242 286.023 58.2242ZM342.66 54.2599C342.474 54.2599 342.299 54.1482 342.226 53.9641C341.77 52.8054 341.245 51.6924 340.66 50.6575C340.534 50.4333 340.613 50.1494 340.837 50.023C341.061 49.8972 341.345 49.9745 341.472 50.2C342.077 51.273 342.622 52.4253 343.093 53.624C343.187 53.8636 343.069 54.1334 342.829 54.2276C342.774 54.2494 342.716 54.2599 342.66 54.2599ZM292.666 51.6917C292.538 51.6917 292.41 51.6391 292.318 51.5365C292.147 51.3446 292.163 51.0502 292.355 50.8788C293.315 50.0209 294.277 49.203 295.213 48.4491C295.414 48.2875 295.707 48.3191 295.868 48.5193C296.03 48.7203 295.998 49.0133 295.798 49.1742C294.874 49.9183 293.925 50.7256 292.976 51.5737C292.887 51.6524 292.776 51.6917 292.666 51.6917ZM337.77 46.3959C337.646 46.3959 337.523 46.3467 337.431 46.2498C337.103 45.9034 336.763 45.5675 336.409 45.2422C335.872 44.7482 335.299 44.2775 334.706 43.8411C334.499 43.6887 334.454 43.3978 334.606 43.1898C334.76 42.9825 335.053 42.9389 335.258 43.09C335.879 43.546 336.479 44.0393 337.04 44.5557C337.41 44.8951 337.767 45.2471 338.109 45.6097C338.285 45.7966 338.278 46.0917 338.091 46.2681C338 46.3538 337.884 46.3959 337.77 46.3959ZM300.012 45.9701C299.86 45.9701 299.712 45.8964 299.622 45.7607C299.481 45.5457 299.54 45.2569 299.755 45.115C300.822 44.4103 301.905 43.7533 302.97 43.1624C303.195 43.0366 303.479 43.1181 303.604 43.3437C303.729 43.5692 303.647 43.8524 303.422 43.9767C302.376 44.5571 301.315 45.2014 300.267 45.8935C300.189 45.9455 300.1 45.9701 300.012 45.9701ZM308.247 41.6531C308.06 41.6531 307.885 41.5407 307.813 41.3566C307.72 41.117 307.838 40.8465 308.078 40.753C308.441 40.6118 308.807 40.4748 309.175 40.3441C309.988 40.0553 310.826 39.7953 311.666 39.5712C311.911 39.503 312.17 39.6527 312.236 39.9007C312.302 40.1494 312.154 40.4045 311.906 40.4705C311.09 40.6884 310.276 40.9406 309.487 41.221C309.127 41.3489 308.771 41.4817 308.417 41.6194C308.361 41.6426 308.304 41.6531 308.247 41.6531ZM330.099 41.2385C330.041 41.2385 329.984 41.228 329.926 41.2055C328.816 40.7628 327.642 40.3954 326.439 40.1129C326.189 40.0539 326.033 39.8037 326.092 39.5529C326.151 39.3035 326.401 39.1482 326.652 39.2058C327.901 39.4981 329.119 39.8803 330.272 40.3399C330.511 40.4347 330.627 40.7059 330.532 40.9448C330.459 41.1275 330.284 41.2385 330.099 41.2385ZM317.285 39.5164C317.046 39.5164 316.843 39.3337 316.821 39.0913C316.798 38.8348 316.988 38.6092 317.244 38.5861C318.507 38.4743 319.776 38.4357 321.024 38.4772C321.282 38.4856 321.483 38.7006 321.475 38.9578C321.466 39.2156 321.229 39.4313 320.994 39.4082C319.781 39.3702 318.551 39.406 317.325 39.5143C317.312 39.5164 317.299 39.5164 317.285 39.5164Z" fill="#50448C"/>
<path d="M164.788 197.928H47.5083C46.1205 197.928 44.7539 196.803 44.456 195.414L26.6798 112.604C26.3819 111.217 27.2658 110.092 28.6536 110.092H145.932C147.32 110.092 148.687 111.217 148.985 112.604L166.761 195.414C167.059 196.802 166.175 197.928 164.788 197.928Z" fill="url(#paint0_linear_1_26186)"/>
<path d="M163.558 195.106H47.8898C47.4092 195.106 46.9363 194.717 46.833 194.236L29.3731 112.902C29.2698 112.421 29.5761 112.032 30.056 112.032H145.724C146.205 112.032 146.678 112.421 146.781 112.902L164.241 194.236C164.344 194.716 164.039 195.106 163.558 195.106Z" fill="#161616"/>
<path d="M197.059 204.59H52.3804C49.1075 204.59 46.4536 201.937 46.4536 198.663C46.4536 198.257 46.7832 197.927 47.1893 197.927H202.25C202.656 197.927 202.986 198.257 202.986 198.663C202.986 201.937 200.332 204.59 197.059 204.59Z" fill="url(#paint1_linear_1_26186)"/>
<path d="M247.365 197.928H364.644C366.032 197.928 367.398 196.803 367.696 195.414L385.473 112.604C385.77 111.217 384.887 110.092 383.499 110.092H266.221C264.833 110.092 263.466 111.217 263.168 112.604L245.392 195.414C245.094 196.802 245.978 197.928 247.365 197.928Z" fill="url(#paint2_linear_1_26186)"/>
<path d="M248.595 195.106H364.263C364.744 195.106 365.217 194.717 365.32 194.236L382.78 112.902C382.883 112.421 382.577 112.032 382.097 112.032H266.428C265.947 112.032 265.474 112.421 265.371 112.902L247.911 194.236C247.809 194.716 248.114 195.106 248.595 195.106Z" fill="black"/>
<path d="M229.786 204.59H366.828C370.017 204.59 372.602 202.005 372.602 198.815V198.644C372.602 198.248 372.281 197.927 371.885 197.927H224.728C224.332 197.927 224.011 198.248 224.011 198.644V198.815C224.011 202.005 226.596 204.59 229.786 204.59Z" fill="url(#paint3_linear_1_26186)"/>
<path d="M162.345 61.4316V36.2316H174.657C177.825 36.2316 180.201 36.8316 181.785 38.0316C183.393 39.2316 184.197 40.8156 184.197 42.7836C184.197 44.1036 183.873 45.2556 183.225 46.2396C182.577 47.1996 181.689 47.9436 180.561 48.4716C179.433 48.9996 178.137 49.2636 176.673 49.2636L177.357 47.7876C178.941 47.7876 180.345 48.0516 181.569 48.5796C182.793 49.0836 183.741 49.8396 184.413 50.8476C185.109 51.8556 185.457 53.0916 185.457 54.5556C185.457 56.7156 184.605 58.4076 182.901 59.6316C181.197 60.8316 178.689 61.4316 175.377 61.4316H162.345ZM168.141 57.0396H174.945C176.457 57.0396 177.597 56.7996 178.365 56.3196C179.157 55.8156 179.553 55.0236 179.553 53.9436C179.553 52.8876 179.157 52.1076 178.365 51.6036C177.597 51.0756 176.457 50.8116 174.945 50.8116H167.709V46.5636H173.937C175.353 46.5636 176.433 46.3236 177.177 45.8436C177.945 45.3396 178.329 44.5836 178.329 43.5756C178.329 42.5916 177.945 41.8596 177.177 41.3796C176.433 40.8756 175.353 40.6236 173.937 40.6236H168.141V57.0396ZM188.072 61.4316V57.6516L197.792 48.4716C198.56 47.7756 199.124 47.1516 199.484 46.5996C199.844 46.0476 200.084 45.5436 200.204 45.0876C200.348 44.6316 200.42 44.2116 200.42 43.8276C200.42 42.8196 200.072 42.0516 199.376 41.5236C198.704 40.9716 197.708 40.6956 196.388 40.6956C195.332 40.6956 194.348 40.8996 193.436 41.3076C192.548 41.7156 191.792 42.3516 191.168 43.2156L186.92 40.4796C187.88 39.0396 189.224 37.8996 190.952 37.0596C192.68 36.2196 194.672 35.7996 196.928 35.7996C198.8 35.7996 200.432 36.1116 201.824 36.7356C203.24 37.3356 204.332 38.1876 205.1 39.2916C205.892 40.3956 206.288 41.7156 206.288 43.2516C206.288 44.0676 206.18 44.8836 205.964 45.6996C205.772 46.4916 205.364 47.3316 204.74 48.2196C204.14 49.1076 203.252 50.1036 202.076 51.2076L194.012 58.8036L192.896 56.6796H207.116V61.4316H188.072ZM211.107 61.4316V36.2316H223.419C226.587 36.2316 228.963 36.8316 230.547 38.0316C232.155 39.2316 232.959 40.8156 232.959 42.7836C232.959 44.1036 232.635 45.2556 231.987 46.2396C231.339 47.1996 230.451 47.9436 229.323 48.4716C228.195 48.9996 226.899 49.2636 225.435 49.2636L226.119 47.7876C227.703 47.7876 229.107 48.0516 230.331 48.5796C231.555 49.0836 232.503 49.8396 233.175 50.8476C233.871 51.8556 234.219 53.0916 234.219 54.5556C234.219 56.7156 233.367 58.4076 231.663 59.6316C229.959 60.8316 227.451 61.4316 224.139 61.4316H211.107ZM216.903 57.0396H223.707C225.219 57.0396 226.359 56.7996 227.127 56.3196C227.919 55.8156 228.315 55.0236 228.315 53.9436C228.315 52.8876 227.919 52.1076 227.127 51.6036C226.359 51.0756 225.219 50.8116 223.707 50.8116H216.471V46.5636H222.699C224.115 46.5636 225.195 46.3236 225.939 45.8436C226.707 45.3396 227.091 44.5836 227.091 43.5756C227.091 42.5916 226.707 41.8596 225.939 41.3796C225.195 40.8756 224.115 40.6236 222.699 40.6236H216.903V57.0396Z" fill="#4169E1"/>
<mask id="mask0_1_26186" style="mask-type:luminance" maskUnits="userSpaceOnUse" x="8" y="23" width="393" height="173">
<path d="M46.8332 195.106H365.699L400.852 32.2056L8.20752 23.3179L46.8332 195.106Z" fill="white"/>
</mask>
<g mask="url(#mask0_1_26186)">
<path d="M323.322 167.147C323.322 179.344 333.212 189.234 345.409 189.234C349.726 189.234 353.766 187.987 357.165 185.834L363.954 196.629C358.578 200.018 352.22 201.972 345.409 201.972C326.169 201.972 310.583 186.375 310.583 167.146C310.583 147.906 326.169 132.319 345.409 132.319C358.876 132.319 370.555 139.958 376.35 151.14L365.014 157.001C361.349 149.904 353.942 145.058 345.409 145.058C333.212 145.059 323.322 154.949 323.322 167.147Z" fill="#4169E1"/>
<path d="M380.236 167.147C380.236 179.566 373.734 190.46 363.954 196.631L357.165 185.835C363.369 181.928 367.486 175.017 367.486 167.147C367.486 163.493 366.592 160.038 365.014 157.003L376.35 151.142C378.834 155.932 380.236 161.374 380.236 167.147Z" fill="#7ADEFF"/>
<path d="M345.404 184.417C354.942 184.417 362.675 176.685 362.675 167.147C362.675 157.609 354.942 149.877 345.404 149.877C335.866 149.877 328.134 157.609 328.134 167.147C328.134 176.685 335.866 184.417 345.404 184.417Z" fill="#4169E1"/>
<path d="M345.404 181.669C353.424 181.669 359.925 175.167 359.925 167.148C359.925 159.128 353.424 152.627 345.404 152.627C337.385 152.627 330.884 159.128 330.884 167.148C330.884 175.167 337.385 181.669 345.404 181.669Z" fill="#7ADEFF"/>
<path d="M339.813 175.565L350.329 160.165H352.947L342.431 175.565H339.813ZM341.155 168.481C340.407 168.481 339.747 168.313 339.175 167.975C338.603 167.623 338.149 167.132 337.811 166.501C337.489 165.856 337.327 165.101 337.327 164.235C337.327 163.37 337.489 162.622 337.811 161.991C338.149 161.361 338.603 160.869 339.175 160.517C339.747 160.165 340.407 159.989 341.155 159.989C341.903 159.989 342.563 160.165 343.135 160.517C343.707 160.869 344.155 161.361 344.477 161.991C344.8 162.622 344.961 163.37 344.961 164.235C344.961 165.101 344.8 165.856 344.477 166.501C344.155 167.132 343.707 167.623 343.135 167.975C342.563 168.313 341.903 168.481 341.155 168.481ZM341.155 166.677C341.639 166.677 342.028 166.479 342.321 166.083C342.615 165.673 342.761 165.057 342.761 164.235C342.761 163.414 342.615 162.805 342.321 162.409C342.028 161.999 341.639 161.793 341.155 161.793C340.686 161.793 340.297 161.999 339.989 162.409C339.696 162.805 339.549 163.414 339.549 164.235C339.549 165.042 339.696 165.651 339.989 166.061C340.297 166.472 340.686 166.677 341.155 166.677ZM351.605 175.741C350.872 175.741 350.212 175.573 349.625 175.235C349.053 174.883 348.606 174.392 348.283 173.761C347.961 173.116 347.799 172.361 347.799 171.495C347.799 170.63 347.961 169.882 348.283 169.251C348.606 168.621 349.053 168.129 349.625 167.777C350.212 167.425 350.872 167.249 351.605 167.249C352.368 167.249 353.035 167.425 353.607 167.777C354.179 168.129 354.627 168.621 354.949 169.251C355.272 169.882 355.433 170.63 355.433 171.495C355.433 172.361 355.272 173.116 354.949 173.761C354.627 174.392 354.179 174.883 353.607 175.235C353.035 175.573 352.368 175.741 351.605 175.741ZM351.605 173.937C352.089 173.937 352.478 173.739 352.771 173.343C353.065 172.933 353.211 172.317 353.211 171.495C353.211 170.689 353.065 170.08 352.771 169.669C352.478 169.259 352.089 169.053 351.605 169.053C351.136 169.053 350.747 169.259 350.439 169.669C350.146 170.065 349.999 170.674 349.999 171.495C349.999 172.317 350.146 172.933 350.439 173.343C350.747 173.739 351.136 173.937 351.605 173.937Z" fill="#4169E1"/>
</g>
<mask id="mask1_1_26186" style="mask-type:luminance" maskUnits="userSpaceOnUse" x="8" y="23" width="393" height="173">
<path d="M46.8332 195.106H365.699L400.852 32.2056L8.20752 23.3179L46.8332 195.106Z" fill="white"/>
</mask>
<g mask="url(#mask1_1_26186)">
<path d="M113.525 198.246H73.3032L77.713 157.494H109.115L113.525 198.246Z" fill="url(#paint4_linear_1_26186)"/>
<path d="M100.118 163.639C99.7437 163.639 99.4416 163.336 99.4416 162.963V151.425C99.4416 148.102 96.7378 145.398 93.4143 145.398C90.0908 145.398 87.387 148.102 87.387 151.425V162.963C87.387 163.336 87.0849 163.639 86.7111 163.639C86.3373 163.639 86.0352 163.336 86.0352 162.963V151.425C86.0352 147.356 89.346 144.045 93.415 144.045C97.4847 144.045 100.795 147.356 100.795 151.425V162.963C100.794 163.336 100.491 163.639 100.118 163.639Z" fill="url(#paint5_linear_1_26186)"/>
<path d="M82.1654 205.752H41.9434L46.3531 165H77.755L82.1654 205.752Z" fill="#4169E1"/>
<path d="M68.7579 171.146C68.3841 171.146 68.0819 170.843 68.0819 170.47V158.933C68.0819 155.609 65.3782 152.905 62.0547 152.905C58.7312 152.905 56.0274 155.609 56.0274 158.933V170.47C56.0274 170.843 55.7253 171.146 55.3514 171.146C54.9776 171.146 54.6748 170.843 54.6748 170.47V158.933C54.6748 154.863 57.9857 151.553 62.0547 151.553C66.1244 151.553 69.4345 154.864 69.4345 158.933V170.47C69.4345 170.843 69.1317 171.146 68.7579 171.146Z" fill="#4169E1"/>
<path d="M255.215 86.2266C251.493 91.3924 239.519 110.749 235.573 113.008C231.626 115.267 203.374 134.183 203.374 134.183C203.374 134.183 205.337 138.611 206.634 139.546C211.625 138.735 237.53 126.505 242.689 123.41C247.847 120.315 268.008 93.2136 268.008 93.2136L255.215 86.2266Z" fill="url(#paint6_linear_1_26186)"/>
<path d="M262.036 157.106C266.732 157.106 303.449 155.338 303.449 155.338L296.727 215.131L277.73 216.531L275.73 197.533L267.932 216.531L248.534 213.731C248.534 213.731 256.739 169.069 262.036 157.106Z" fill="#4169E1"/>
<path d="M305.578 116.283C305.578 116.283 312.687 132.15 312.687 134.054C312.687 135.958 308.897 163.507 307.945 164.459C306.041 165.668 298.462 168.707 297.986 170.008C297.51 171.309 298.494 172.42 298.494 172.42C296.431 173.752 291.036 177.782 291.989 178.734C292.648 179.393 293.094 179.627 293.306 179.707C293.4 179.743 293.449 179.75 293.449 179.75C293.449 179.75 292.084 182.32 294.56 181.971C294.813 183.43 295.956 183.272 296.876 182.859C297.797 182.447 298.844 181.622 298.844 181.622C298.844 182.987 299.732 183.717 301.573 182.193C303.414 180.67 306.681 178.227 308.236 176.957C309.791 175.688 312.648 169.404 313.631 167.088C314.615 164.771 320.97 145.682 322.113 141.55C323.255 137.417 324.746 135.717 323.605 131.775C322.462 127.833 316.623 111.078 316.623 111.078L305.578 116.283Z" fill="url(#paint7_linear_1_26186)"/>
<path d="M299.029 172.864C298.892 172.864 298.755 172.844 298.618 172.797C298.249 172.668 297.941 172.346 297.776 171.909C297.638 171.544 297.611 171.166 297.585 170.801C297.576 170.672 297.673 170.561 297.802 170.552C297.921 170.53 298.041 170.639 298.05 170.768C298.074 171.1 298.098 171.443 298.212 171.744C298.327 172.047 298.536 172.276 298.771 172.357C299.083 172.464 299.452 172.342 299.807 172.193C300.801 171.775 301.742 171.236 302.604 170.59C302.707 170.515 302.853 170.532 302.93 170.637C303.008 170.74 302.987 170.886 302.883 170.963C301.991 171.631 301.017 172.189 299.988 172.622C299.678 172.752 299.355 172.864 299.029 172.864Z" fill="#E07E58"/>
<path d="M293.492 179.898C293.465 179.898 293.438 179.897 293.411 179.894C292.944 179.849 292.508 179.516 292.302 179.043C292.133 178.654 292.112 178.176 292.242 177.694C292.275 177.571 292.403 177.498 292.527 177.531C292.651 177.564 292.725 177.692 292.691 177.817C292.589 178.196 292.603 178.566 292.729 178.858C292.867 179.173 293.159 179.403 293.455 179.431C293.721 179.45 294.04 179.187 294.299 178.97L295.111 178.313C296.824 176.934 298.062 175.938 299.73 174.417C299.825 174.331 299.973 174.337 300.059 174.433C300.146 174.528 300.139 174.675 300.044 174.762C298.365 176.292 297.058 177.344 295.403 178.675L294.598 179.328C294.291 179.582 293.913 179.898 293.492 179.898Z" fill="#E07E58"/>
<path d="M294.311 182.145C293.927 182.145 293.572 182.006 293.337 181.749C292.851 181.216 293.005 180.414 293.31 179.841C293.371 179.728 293.513 179.687 293.625 179.745C293.739 179.806 293.782 179.947 293.722 180.061C293.502 180.473 293.359 181.079 293.681 181.435C293.924 181.7 294.35 181.721 294.667 181.624C295.033 181.513 295.354 181.266 295.705 180.979C297.502 179.508 299.237 177.901 300.914 176.347L301.245 176.676C299.548 178.249 297.807 179.861 296 181.339C295.609 181.659 295.25 181.934 294.803 182.07C294.638 182.12 294.471 182.145 294.311 182.145Z" fill="#E07E58"/>
<path d="M295.742 183.248C295.657 183.248 295.572 183.241 295.486 183.228C295.047 183.155 294.571 182.815 294.513 182.305C294.498 182.178 294.59 182.062 294.718 182.047C294.837 182.032 294.961 182.124 294.976 182.252C295.007 182.529 295.302 182.724 295.562 182.767C295.895 182.825 296.248 182.709 296.548 182.591C297.549 182.199 298.516 181.564 299.505 180.648C299.969 180.218 300.493 179.837 301.048 179.433C301.593 179.036 302.157 178.627 302.763 178.105C302.861 178.021 303.008 178.032 303.091 178.13C303.175 178.227 303.164 178.374 303.067 178.458C302.446 178.991 301.848 179.426 301.321 179.809C300.778 180.204 300.264 180.578 299.821 180.989C298.789 181.946 297.774 182.611 296.718 183.024C296.428 183.139 296.093 183.248 295.742 183.248Z" fill="#E07E58"/>
<path d="M299.83 183.088C299.744 183.088 299.659 183.076 299.574 183.052C299.062 182.906 298.835 182.386 298.681 181.895C298.643 181.772 298.712 181.642 298.835 181.603C298.958 181.566 299.088 181.633 299.127 181.755C299.244 182.127 299.403 182.519 299.702 182.604C299.93 182.668 300.194 182.545 300.448 182.404C301.744 181.682 302.902 180.708 304.022 179.764L305.68 178.369C305.779 178.287 305.926 178.301 306.009 178.398C306.091 178.496 306.079 178.643 305.98 178.726L304.323 180.12C303.186 181.078 302.011 182.068 300.674 182.812C300.419 182.953 300.13 183.088 299.83 183.088Z" fill="#E07E58"/>
<path d="M274.651 75.4443C268.574 75.9776 260.466 78.0842 253.867 84.6834C247.268 91.2826 243.149 100.787 241.949 104.919C241.949 104.919 249.37 112.546 253.503 112.546L261.866 105.214C260.666 114.546 259.843 156.919 260.376 161.586C260.376 161.586 295.862 158.006 303.327 159.339C304.26 152.273 299.861 106.814 299.861 106.814L304.794 118.013C304.794 118.013 315.859 116.013 317.725 112.147C318.658 106.415 311.926 89.9504 306.927 84.9511C301.928 79.9518 288.823 76.5116 288.823 76.5116C288.088 77.248 285.181 80.2181 279.764 80.2181C277.183 80.2174 275.065 77.1005 274.651 75.4443Z" fill="#7ADEFF"/>
<path d="M261.45 118.981C261.446 118.981 261.443 118.981 261.44 118.981C261.247 118.976 261.095 118.815 261.1 118.621L261.355 109.732C261.396 108.331 261.436 106.925 261.519 105.542C261.722 102.14 262.189 98.7269 262.907 95.3956C262.948 95.2073 263.135 95.0893 263.322 95.1279C263.511 95.1687 263.631 95.3549 263.59 95.5432C262.879 98.84 262.417 102.218 262.216 105.584C262.133 106.956 262.093 108.356 262.054 109.709L261.799 118.641C261.793 118.831 261.638 118.981 261.45 118.981Z" fill="#C16810"/>
<path d="M305.307 118.337C305.18 118.337 305.058 118.269 304.996 118.149C301.915 112.224 299.231 106.024 297.019 99.7221C296.955 99.5401 297.05 99.3406 297.233 99.2766C297.414 99.2141 297.615 99.3082 297.679 99.4909C299.88 105.761 302.551 111.93 305.616 117.826C305.705 117.997 305.638 118.209 305.467 118.298C305.416 118.325 305.361 118.337 305.307 118.337Z" fill="#C16810"/>
<path d="M289.039 66.687C288.382 69.9606 289.655 77.715 289.655 77.715C283.175 86.5669 274.094 80.1426 274.094 80.1426C275.244 78.2005 275.896 68.2483 275.896 68.2483L289.039 66.687Z" fill="url(#paint8_linear_1_26186)"/>
<path d="M271.904 40.3977C266.987 40.0696 265.177 49.8911 271.794 51.0736C278.411 52.2555 279.173 40.8825 271.904 40.3977Z" fill="url(#paint9_linear_1_26186)"/>
<path d="M279.475 40.0057C268.525 39.8933 267.142 68.0383 277.733 72.6835C288.323 77.3287 294.482 56.4293 292.832 49.5286C291.181 42.6287 287.453 40.0872 279.475 40.0057Z" fill="url(#paint10_linear_1_26186)"/>
<path d="M277.901 44.8C274.997 47.645 270.549 46.6606 268.719 42.007C266.889 37.3534 274.953 31.8341 280.324 37.3154C283.334 35.4689 285.802 37.9879 286.76 38.9652C289.998 37.8248 292.956 41.1996 292.237 42.6C295.639 42.6351 295.355 59.3538 289.355 66.4484C290.041 62.2304 287.169 60.0698 287.169 60.0698C289.154 58.1249 289.565 50.4829 285.74 52.5066C284.677 53.0694 284.541 55.0754 284.541 55.0754L283.309 55.0628C283.309 55.0628 284.474 50.1471 283.504 47.4967C282.535 44.847 280.426 44.5323 277.901 44.8Z" fill="url(#paint11_linear_1_26186)"/>
<path d="M283.311 55.0625C282.675 59.8665 280.944 62.7234 279.771 62.7115C278.597 62.6995 276.393 60.2719 274.575 60.2529C272.756 60.2346 270.865 61.5641 270.854 62.6201C270.844 63.6762 269.093 72.5161 271.99 74.0324C274.887 75.548 283.052 74.844 284.594 72.1248C286.135 69.4055 283.939 58.5891 284.542 55.0751L283.311 55.0625Z" fill="url(#paint12_linear_1_26186)"/>
<path d="M274.534 62.7289C274.164 62.7423 273.173 62.7928 272.708 63.0556C271.992 63.4589 272.202 64.2417 272.73 64.7118C273.174 65.1073 274.031 65.3104 274.709 65.2563C275.863 65.1636 276.285 64.7912 276.718 63.9543C276.884 63.6325 276.952 63.0177 276.463 62.7879C276.079 62.608 275.346 62.7001 274.534 62.7289Z" fill="#656565"/>
<path d="M195.847 132.363C194.853 131.37 193.747 131.47 192.273 132.162C190.799 132.855 189.601 133.252 188.373 133.252C187.145 133.252 183.865 131.532 183.865 131.532L181.783 136.348C181.783 136.348 190.978 142.326 192.229 143.174C193.48 144.023 195.222 146.19 196.182 146.39C197.142 146.591 203.463 143.911 203.352 141.164C203.062 140.293 200.862 138.227 199.935 137.3C199.008 136.373 198.17 135.648 197.612 135.312C197.053 134.977 195.847 132.363 195.847 132.363Z" fill="url(#paint13_linear_1_26186)"/>
<path d="M196.114 131.537C194.562 131.64 192.384 133.436 192.384 134.531C192.384 135.625 192.295 137.747 193.501 137.747C194.706 137.747 194.774 135.692 195.31 135.157C195.846 134.621 198.258 135.447 199.219 136.742C200.179 138.038 203.351 141.165 203.351 141.165C203.351 141.165 209.062 139.049 210.97 138.175C210.97 137.885 206.866 131.849 206.866 131.849C202.601 133.734 198.147 131.404 196.114 131.537Z" fill="url(#paint14_linear_1_26186)"/>
<path d="M187.939 140.13C187.053 140.371 186.308 141.961 187.381 142.252C188.453 142.542 189.592 141.359 189.078 140.621C188.565 139.884 188.431 139.996 187.939 140.13Z" fill="url(#paint15_linear_1_26186)"/>
<path d="M189.531 141.5C188.493 141.682 188.409 143.544 189.531 144.298C190.654 145.052 193.558 146.815 194.49 146.402C195.422 145.99 196.182 145.638 195.696 144.867C195.21 144.096 191.441 141.165 189.531 141.5Z" fill="url(#paint16_linear_1_26186)"/>
<path d="M202.405 142.978C202.369 142.978 202.334 142.969 202.301 142.948C200.38 141.758 198.659 140.165 197.322 138.343C197.258 138.256 197.277 138.133 197.364 138.069C197.452 138.005 197.575 138.024 197.638 138.111C198.945 139.893 200.629 141.451 202.508 142.615C202.6 142.672 202.628 142.793 202.571 142.885C202.535 142.945 202.471 142.978 202.405 142.978Z" fill="#E07E58"/>
<path d="M200.771 144.324C200.737 144.324 200.703 144.316 200.671 144.297C198.959 143.289 197.424 141.939 196.233 140.393C196.167 140.307 196.183 140.184 196.269 140.118C196.355 140.052 196.478 140.068 196.544 140.154C197.705 141.66 199.201 142.976 200.871 143.959C200.964 144.014 200.995 144.134 200.94 144.227C200.904 144.29 200.838 144.324 200.771 144.324Z" fill="#E07E58"/>
<path d="M198.972 145.468C198.94 145.468 198.908 145.46 198.877 145.443C197.428 144.639 196.129 143.562 195.12 142.33C195.051 142.246 195.063 142.123 195.147 142.054C195.231 141.985 195.354 141.998 195.423 142.081C196.401 143.276 197.661 144.32 199.067 145.1C199.162 145.153 199.196 145.273 199.144 145.367C199.108 145.431 199.041 145.468 198.972 145.468Z" fill="#E07E58"/>
<path d="M194.201 145.872C194.181 145.872 194.161 145.869 194.141 145.863C194.038 145.83 193.981 145.719 194.014 145.616C194.143 145.213 194.211 144.794 194.216 144.371C194.218 144.216 194.212 144.036 194.151 143.885C194.096 143.75 193.995 143.648 193.887 143.619C193.764 143.587 193.601 143.643 193.474 143.763C193.35 143.88 193.26 144.037 193.165 144.204L193.138 144.253C193.025 144.448 192.888 144.67 192.679 144.822C192.637 144.851 192.528 144.92 192.401 144.898C192.329 144.886 192.267 144.847 192.226 144.788C192.156 144.688 192.178 144.575 192.186 144.538C192.231 144.306 192.328 144.098 192.421 143.897C192.472 143.785 192.521 143.679 192.561 143.572C192.606 143.453 192.733 143.048 192.534 142.803C192.423 142.666 192.213 142.601 192.011 142.64C191.82 142.677 191.63 142.8 191.476 142.988C191.319 143.179 191.212 143.417 191.127 143.623L191.11 143.666C191.032 143.862 190.945 144.084 190.759 144.122C190.673 144.14 190.586 144.112 190.519 144.046L190.495 144.022L190.481 143.991C190.441 143.909 190.452 143.819 190.495 143.516C190.535 143.234 190.59 142.847 190.556 142.605C190.494 142.17 190.289 141.809 189.995 141.615C189.904 141.555 189.879 141.434 189.939 141.343C189.999 141.253 190.12 141.228 190.21 141.287C190.599 141.543 190.867 142.003 190.945 142.55C190.966 142.706 190.961 142.897 190.944 143.087C191.009 142.968 191.084 142.848 191.174 142.738C191.386 142.48 191.657 142.308 191.937 142.254C192.282 142.186 192.637 142.305 192.84 142.555C193.066 142.833 193.099 143.253 192.93 143.707C192.885 143.829 192.83 143.946 192.778 144.06C192.756 144.107 192.735 144.152 192.715 144.197C192.745 144.151 192.772 144.104 192.8 144.057L192.827 144.009C192.932 143.824 193.041 143.634 193.208 143.476C193.439 143.259 193.731 143.171 193.99 143.239C194.219 143.299 194.416 143.486 194.518 143.738C194.605 143.953 194.614 144.18 194.612 144.375C194.606 144.837 194.532 145.295 194.39 145.735C194.36 145.819 194.284 145.872 194.201 145.872Z" fill="#E07E58"/>
<path d="M203.177 141.199C203.125 141.199 203.073 141.178 203.034 141.137L199.782 137.662C199.308 137.155 198.817 136.631 198.27 136.196C197.667 135.716 197.058 135.403 196.462 135.263C196.178 135.197 195.656 135.129 195.335 135.419C195.125 135.608 195.043 135.906 194.955 136.222C194.924 136.337 194.891 136.456 194.851 136.571C194.659 137.127 194.286 137.616 193.801 137.948C193.712 138.009 193.591 137.987 193.529 137.897C193.468 137.808 193.49 137.686 193.579 137.625C193.995 137.34 194.315 136.92 194.48 136.443C194.516 136.34 194.545 136.232 194.577 136.118C194.675 135.762 194.777 135.394 195.072 135.128C195.408 134.825 195.933 134.738 196.551 134.882C197.204 135.034 197.864 135.374 198.513 135.889C199.083 136.341 199.584 136.877 200.068 137.394L203.32 140.87C203.394 140.949 203.39 141.073 203.311 141.146C203.274 141.182 203.225 141.199 203.177 141.199Z" fill="#E07E58"/>
<path d="M84.9347 65.5031C84.3522 69.4773 84.7464 73.7894 82.6743 77.2302C81.1566 79.7506 78.4233 81.5683 77.6462 84.4063C76.7237 87.7762 78.9025 91.1945 79.0599 94.6846C79.3066 100.162 74.582 105.172 75.5748 110.564C76.685 116.594 84.2419 119.527 85.9789 125.408C86.7665 128.073 86.2571 131.103 87.5963 133.537C88.6475 135.448 90.6416 136.62 92.1263 138.218C94.0297 140.268 95.0549 142.974 96.7047 145.233C98.3545 147.492 101.123 149.391 103.812 148.62C106.89 147.738 108.047 144.052 108.616 140.901C113.709 112.669 110.396 83.3516 102.123 55.8832C100.455 50.3443 96.0112 47.1487 91.4342 51.4966C87.6968 55.0478 85.683 60.3942 84.9347 65.5031Z" fill="url(#paint17_linear_1_26186)"/>
<path d="M124.665 46.6635C126.071 47.1961 127.511 47.8833 128.358 49.1263C129.797 51.2391 129.099 54.2998 130.564 56.3937C131.126 57.1947 131.949 57.7667 132.652 58.4475C135.068 60.7887 135.941 64.5907 134.789 67.7512C134.534 68.4482 134.191 69.1157 134.018 69.8367C133.521 71.9038 134.475 74.009 135.346 75.949C136.216 77.8882 137.035 80.0966 136.282 82.0851C135.795 83.3681 134.713 84.3582 134.235 85.644C133.717 87.0359 133.91 88.7469 132.905 89.8409C132.51 90.2716 131.975 90.5435 131.447 90.7958C130.046 91.464 128.579 92.0612 127.033 92.1912C125.901 92.2868 124.765 92.1287 123.64 91.9713C121.927 91.7317 120.214 91.4914 118.501 91.2518C117.86 91.1619 117.197 91.0649 116.648 90.7213C115.812 90.1978 115.4 89.212 115.099 88.2719C112.458 80.0369 114.414 71.0831 113.58 62.4751C113.291 59.4938 112.665 56.5398 112.629 53.5452C112.599 51.1372 112.956 46.5398 115.26 45.0488C116.354 44.3406 118.094 44.9069 119.259 45.1324C121.1 45.4866 122.911 45.9995 124.665 46.6635Z" fill="url(#paint18_linear_1_26186)"/>
<path d="M108.455 70.0723C111.309 76.1979 111.644 87.2751 111.644 87.2751C111.644 87.2751 123.896 89.7083 123.896 89.2052C123.896 88.7014 122.05 81.4846 121.63 76.3658C121.252 75.9885 108.455 70.0723 108.455 70.0723Z" fill="url(#paint19_linear_1_26186)"/>
<path d="M113.29 91.0634C107.347 89.3363 103.056 93.9196 102.222 108.082C101.389 122.245 100.437 134.026 101.508 137.597C102.579 141.167 111.863 167.826 111.863 167.826L118.408 165.565C118.408 165.565 111.802 138.55 111.802 133.67C111.802 128.791 115.124 111.534 116.195 105.702C117.266 99.8703 117.456 92.274 113.29 91.0634Z" fill="#4169E1"/>
<path d="M110.964 84.6069C113.44 85.9462 123.592 86.1246 123.592 86.1246C127.452 93.801 133.999 96.776 136.736 103.798C140.838 114.321 130.22 139.145 132.273 148.249H106.626C109.482 139.382 100.913 108.977 103.055 99.1868C105.198 89.3976 110.964 84.6069 110.964 84.6069Z" fill="#4169E1"/>
<path d="M107.995 146.463C102.053 151.132 98.4168 158.955 98.5335 175.205C98.5637 179.462 99.0675 198.28 99.4757 204.839C101.44 236.437 101.39 271.694 101.39 271.694C104.96 272.766 111.208 271.694 111.208 271.694L124.257 190.194L145.841 271.278C149.947 271.278 155.124 269.374 155.124 269.374C155.124 269.374 149.412 218.942 147.269 207.16C145.127 195.379 147.448 166.458 132.274 148.249C127.631 148.249 107.995 146.463 107.995 146.463Z" fill="#7ADEFF"/>
<path d="M119.368 219.373C119.349 219.373 119.328 219.371 119.308 219.367C119.122 219.334 118.999 219.156 119.032 218.97C119.35 217.2 119.663 215.473 119.971 213.781C122.726 198.6 124.902 186.609 125.284 172.582C125.289 172.393 125.426 172.236 125.635 172.249C125.824 172.254 125.974 172.411 125.968 172.6C125.586 186.68 123.405 198.694 120.644 213.904C120.338 215.595 120.024 217.323 119.706 219.092C119.675 219.258 119.531 219.373 119.368 219.373Z" fill="#C16810"/>
<path d="M134.164 130.091C134.132 130.091 134.1 130.087 134.068 130.077C133.886 130.023 133.782 129.833 133.836 129.652C134.942 125.895 136.086 122.011 136.697 118.077C137.374 113.706 137.284 109.749 136.429 106.317C135.484 102.521 133.546 99.0299 130.824 96.2187C130.693 96.083 130.696 95.8666 130.831 95.7352C130.966 95.6038 131.184 95.6067 131.315 95.743C134.121 98.64 136.119 102.24 137.093 106.151C137.97 109.672 138.064 113.72 137.372 118.182C136.756 122.16 135.604 126.067 134.491 129.844C134.448 129.994 134.311 130.091 134.164 130.091Z" fill="#4169E1"/>
<path d="M120.688 97.2028C130.351 103.167 148.833 118.814 151.881 119.957C155.689 121.385 184.478 131.351 184.478 131.351C184.478 131.351 183.091 136.109 182.079 137.121C177.557 137.121 152.089 132.155 147.09 130.162C143.356 128.674 120.045 116.822 110.889 110.503C104.409 106.03 105.019 97.4923 108.924 94.9691C112.752 92.4951 115.373 93.9222 120.688 97.2028Z" fill="#4169E1"/>
<path d="M120.987 49.1781C131.616 58.5767 129.848 72.99 128.596 76.3254C127.646 78.8543 126.469 79.6117 122.441 78.3807C118.413 77.1496 104.427 71.2474 102.19 65.8771C99.9517 60.5061 98.3855 54.0172 103.308 49.0938C108.232 44.1711 115.081 43.9561 120.987 49.1781Z" fill="url(#paint20_linear_1_26186)"/>
<path d="M122.869 44.7029C118.901 42.4629 113.019 41.5038 108.455 41.6563C104.041 41.8031 102.9 43.337 101.929 44.0368C100.325 45.1934 99.6493 47.3406 98.01 48.4473C97.0312 49.1078 95.8381 49.3123 94.6893 49.6172C93.6396 51.527 92.7816 53.5429 92.1514 55.6374C90.9527 59.6221 90.5339 63.7944 90.9245 67.9379C91.311 72.0364 92.7029 76.0696 94.4898 79.7564C97.4324 85.8265 99.4216 92.5297 103.276 98.0468C104.071 95.6002 107.35 91.9929 108.933 89.9658C109.627 89.0776 110.394 88.2351 110.936 87.2465C113.166 83.1796 111.035 78.2436 110.234 73.675C110.012 72.4081 109.9 71.0836 110.268 69.8512C110.934 67.6231 113.056 66.0246 113.582 63.7593C113.9 62.3877 113.638 60.7843 114.552 59.7128C115.888 58.1445 118.406 60.0873 120.451 59.8357C122.344 59.6032 127.057 58.5492 127.625 55.8637C128.571 51.3836 126.151 46.5551 122.869 44.7029Z" fill="url(#paint21_linear_1_26186)"/>
<path d="M129.123 70.4688C128.942 71.6416 128.761 72.6646 127.412 72.8887C126.065 73.1136 123.939 71.5664 123.602 70.4688C124.691 69.6952 128.787 70.1442 129.123 70.4688Z" fill="black"/>
</g>
<path d="M52.1408 126.314C61.1007 126.314 68.3641 119.051 68.3641 110.091C68.3641 101.131 61.1007 93.8677 52.1408 93.8677C43.1809 93.8677 35.9175 101.131 35.9175 110.091C35.9175 119.051 43.1809 126.314 52.1408 126.314Z" fill="#4169E1"/>
<path d="M52.1406 123.732C59.6744 123.732 65.7817 117.625 65.7817 110.091C65.7817 102.557 59.6744 96.4497 52.1406 96.4497C44.6068 96.4497 38.4995 102.557 38.4995 110.091C38.4995 117.625 44.6068 123.732 52.1406 123.732Z" fill="#7ADEFF"/>
<path d="M51.2202 118.288V99.4877H53.2202V118.288H51.2202ZM51.9402 116.128C50.8202 116.128 49.7468 115.981 48.7202 115.688C47.6935 115.381 46.8668 114.988 46.2402 114.508L47.3402 112.068C47.9402 112.494 48.6468 112.848 49.4602 113.128C50.2868 113.394 51.1202 113.528 51.9602 113.528C52.6002 113.528 53.1135 113.468 53.5002 113.348C53.9002 113.214 54.1935 113.034 54.3802 112.808C54.5668 112.581 54.6602 112.321 54.6602 112.028C54.6602 111.654 54.5135 111.361 54.2202 111.148C53.9268 110.921 53.5402 110.741 53.0602 110.608C52.5802 110.461 52.0468 110.328 51.4602 110.208C50.8868 110.074 50.3068 109.914 49.7202 109.728C49.1468 109.541 48.6202 109.301 48.1402 109.008C47.6602 108.714 47.2668 108.328 46.9602 107.848C46.6668 107.368 46.5202 106.754 46.5202 106.008C46.5202 105.208 46.7335 104.481 47.1602 103.828C47.6002 103.161 48.2535 102.634 49.1202 102.248C50.0002 101.848 51.1002 101.648 52.4202 101.648C53.3002 101.648 54.1668 101.754 55.0202 101.968C55.8735 102.168 56.6268 102.474 57.2802 102.888L56.2802 105.348C55.6268 104.974 54.9735 104.701 54.3202 104.528C53.6668 104.341 53.0268 104.248 52.4002 104.248C51.7735 104.248 51.2602 104.321 50.8602 104.468C50.4602 104.614 50.1735 104.808 50.0002 105.048C49.8268 105.274 49.7402 105.541 49.7402 105.848C49.7402 106.208 49.8868 106.501 50.1802 106.728C50.4735 106.941 50.8602 107.114 51.3402 107.248C51.8202 107.381 52.3468 107.514 52.9202 107.648C53.5068 107.781 54.0868 107.934 54.6602 108.108C55.2468 108.281 55.7802 108.514 56.2602 108.808C56.7402 109.101 57.1268 109.488 57.4202 109.968C57.7268 110.448 57.8802 111.054 57.8802 111.788C57.8802 112.574 57.6602 113.294 57.2202 113.948C56.7802 114.601 56.1202 115.128 55.2402 115.528C54.3735 115.928 53.2735 116.128 51.9402 116.128Z" fill="#4169E1"/>
<path d="M335.354 83.7082C344.458 83.7082 351.838 76.3277 351.838 67.2235C351.838 58.1192 344.458 50.7388 335.354 50.7388C326.249 50.7388 318.869 58.1192 318.869 67.2235C318.869 76.3277 326.249 83.7082 335.354 83.7082Z" fill="#4169E1"/>
<path d="M335.354 81.0849C343.009 81.0849 349.215 74.8791 349.215 67.2238C349.215 59.5686 343.009 53.3628 335.354 53.3628C327.698 53.3628 321.493 59.5686 321.493 67.2238C321.493 74.8791 327.698 81.0849 335.354 81.0849Z" fill="#7ADEFF"/>
<path d="M327.475 69.5237V67.8437H338.255V69.5237H327.475ZM327.475 66.7637V65.0837H338.255V66.7637H327.475ZM336.995 74.5437C335.901 74.5437 334.888 74.3704 333.955 74.0237C333.035 73.6637 332.235 73.157 331.555 72.5037C330.875 71.8504 330.348 71.0837 329.975 70.2037C329.601 69.3237 329.415 68.357 329.415 67.3037C329.415 66.2504 329.601 65.2837 329.975 64.4037C330.348 63.5237 330.875 62.757 331.555 62.1037C332.235 61.4504 333.035 60.9504 333.955 60.6037C334.888 60.2437 335.901 60.0637 336.995 60.0637C338.208 60.0637 339.308 60.277 340.295 60.7037C341.281 61.117 342.101 61.7304 342.755 62.5437L340.695 64.4637C340.215 63.917 339.681 63.5104 339.095 63.2437C338.508 62.9637 337.861 62.8237 337.155 62.8237C336.501 62.8237 335.901 62.9304 335.355 63.1437C334.808 63.357 334.335 63.6637 333.935 64.0637C333.535 64.4637 333.221 64.937 332.995 65.4837C332.781 66.0304 332.675 66.637 332.675 67.3037C332.675 67.9704 332.781 68.577 332.995 69.1237C333.221 69.6704 333.535 70.1437 333.935 70.5437C334.335 70.9437 334.808 71.2504 335.355 71.4637C335.901 71.677 336.501 71.7837 337.155 71.7837C337.861 71.7837 338.508 71.6504 339.095 71.3837C339.681 71.1037 340.215 70.6837 340.695 70.1237L342.755 72.0437C342.101 72.857 341.281 73.477 340.295 73.9037C339.308 74.3304 338.208 74.5437 336.995 74.5437Z" fill="#4169E1"/>
<defs>
<linearGradient id="paint0_linear_1_26186" x1="105.544" y1="92.6419" x2="66.9742" y2="208.514" gradientUnits="userSpaceOnUse">
<stop stop-color="#263681"/>
<stop offset="0.9959" stop-color="#1A1248"/>
</linearGradient>
<linearGradient id="paint1_linear_1_26186" x1="124.72" y1="198.833" x2="124.72" y2="204.454" gradientUnits="userSpaceOnUse">
<stop stop-color="#263681"/>
<stop offset="0.9959" stop-color="#1A1248"/>
</linearGradient>
<linearGradient id="paint2_linear_1_26186" x1="306.608" y1="92.6419" x2="345.179" y2="208.514" gradientUnits="userSpaceOnUse">
<stop stop-color="#263681"/>
<stop offset="0.9959" stop-color="#1A1248"/>
</linearGradient>
<linearGradient id="paint3_linear_1_26186" x1="298.307" y1="198.833" x2="298.307" y2="204.454" gradientUnits="userSpaceOnUse">
<stop stop-color="#263681"/>
<stop offset="0.9959" stop-color="#1A1248"/>
</linearGradient>
<linearGradient id="paint4_linear_1_26186" x1="92.383" y1="159.064" x2="93.4184" y2="198.409" gradientUnits="userSpaceOnUse">
<stop stop-color="#263681"/>
<stop offset="0.9959" stop-color="#1A1248"/>
</linearGradient>
<linearGradient id="paint5_linear_1_26186" x1="93.0692" y1="144.051" x2="93.5892" y2="163.811" gradientUnits="userSpaceOnUse">
<stop stop-color="#26357F"/>
<stop offset="0.9959" stop-color="#6237C0"/>
</linearGradient>
<linearGradient id="paint6_linear_1_26186" x1="226.852" y1="104.003" x2="237.931" y2="117.159" gradientUnits="userSpaceOnUse">
<stop stop-color="#FFC085"/>
<stop offset="1" stop-color="#FA976E"/>
</linearGradient>
<linearGradient id="paint7_linear_1_26186" x1="291.876" y1="147.113" x2="324.012" y2="147.113" gradientUnits="userSpaceOnUse">
<stop stop-color="#FFC085"/>
<stop offset="1" stop-color="#FA976E"/>
</linearGradient>
<linearGradient id="paint8_linear_1_26186" x1="283.407" y1="67.0276" x2="281.79" y2="79.585" gradientUnits="userSpaceOnUse">
<stop stop-color="#FFC085"/>
<stop offset="1" stop-color="#FA976E"/>
</linearGradient>
<linearGradient id="paint9_linear_1_26186" x1="268.065" y1="47.7211" x2="273.11" y2="45.3996" gradientUnits="userSpaceOnUse">
<stop stop-color="#263681"/>
<stop offset="0.9959" stop-color="#1A1248"/>
</linearGradient>
<linearGradient id="paint10_linear_1_26186" x1="281.625" y1="42.0902" x2="281.97" y2="67.4333" gradientUnits="userSpaceOnUse">
<stop stop-color="#FFC085"/>
<stop offset="1" stop-color="#FA976E"/>
</linearGradient>
<linearGradient id="paint11_linear_1_26186" x1="280.272" y1="35.3621" x2="285.372" y2="74.4768" gradientUnits="userSpaceOnUse">
<stop stop-color="#263681"/>
<stop offset="0.9959" stop-color="#1A1248"/>
</linearGradient>
<linearGradient id="paint12_linear_1_26186" x1="273.995" y1="36.1797" x2="279.094" y2="75.2952" gradientUnits="userSpaceOnUse">
<stop stop-color="#263681"/>
<stop offset="0.9959" stop-color="#1A1248"/>
</linearGradient>
<linearGradient id="paint13_linear_1_26186" x1="187.741" y1="128.098" x2="193.081" y2="139.884" gradientUnits="userSpaceOnUse">
<stop stop-color="#FFC085"/>
<stop offset="1" stop-color="#FA976E"/>
</linearGradient>
<linearGradient id="paint14_linear_1_26186" x1="195.961" y1="130.017" x2="207.04" y2="143.173" gradientUnits="userSpaceOnUse">
<stop stop-color="#FFC085"/>
<stop offset="1" stop-color="#FA976E"/>
</linearGradient>
<linearGradient id="paint15_linear_1_26186" x1="189.344" y1="141.065" x2="187.149" y2="141.236" gradientUnits="userSpaceOnUse">
<stop stop-color="#FFC085"/>
<stop offset="1" stop-color="#FA976E"/>
</linearGradient>
<linearGradient id="paint16_linear_1_26186" x1="196.104" y1="143.648" x2="189.771" y2="144.14" gradientUnits="userSpaceOnUse">
<stop stop-color="#FFC085"/>
<stop offset="1" stop-color="#FA976E"/>
</linearGradient>
<linearGradient id="paint17_linear_1_26186" x1="116.29" y1="46.9033" x2="91.8329" y2="116.78" gradientUnits="userSpaceOnUse">
<stop stop-color="#263681"/>
<stop offset="0.9959" stop-color="#1A1248"/>
</linearGradient>
<linearGradient id="paint18_linear_1_26186" x1="136.578" y1="68.4613" x2="112.627" y2="68.4613" gradientUnits="userSpaceOnUse">
<stop stop-color="#263681"/>
<stop offset="0.9959" stop-color="#1A1248"/>
</linearGradient>
<linearGradient id="paint19_linear_1_26186" x1="115.71" y1="85.7446" x2="116.549" y2="74.7517" gradientUnits="userSpaceOnUse">
<stop stop-color="#FFC085"/>
<stop offset="1" stop-color="#FA976E"/>
</linearGradient>
<linearGradient id="paint20_linear_1_26186" x1="122.907" y1="54.0692" x2="108.147" y2="72.8405" gradientUnits="userSpaceOnUse">
<stop stop-color="#FFC085"/>
<stop offset="1" stop-color="#FA976E"/>
</linearGradient>
<linearGradient id="paint21_linear_1_26186" x1="113.691" y1="44.8717" x2="88.7416" y2="116.157" gradientUnits="userSpaceOnUse">
<stop stop-color="#263681"/>
<stop offset="0.9959" stop-color="#1A1248"/>
</linearGradient>
</defs>
</svg>
