<svg width="276" height="207" viewBox="0 0 276 207" fill="none" xmlns="http://www.w3.org/2000/svg">
<g clip-path="url(#clip0_1_27165)">
<path d="M276 181.693H0V181.832H276V181.693Z" fill="#EBEBEB"/>
<path d="M248.345 190.625H230.062V190.764H248.345V190.625Z" fill="#EBEBEB"/>
<path d="M182.833 192.132H178.035V192.271H182.833V192.132Z" fill="#EBEBEB"/>
<path d="M229.509 185.472H218.915V185.611H229.509V185.472Z" fill="#EBEBEB"/>
<path d="M52.7999 186.404H28.9574V186.543H52.7999V186.404Z" fill="#EBEBEB"/>
<path d="M61.2108 186.404H57.715V186.543H61.2108V186.404Z" fill="#EBEBEB"/>
<path d="M124.281 188.748H72.572V188.887H124.281V188.748Z" fill="#EBEBEB"/>
<path d="M130.832 156.943H24.241C22.5039 156.943 21.0902 155.522 21.0902 153.775V3.14134C21.0902 1.39488 22.5039 -0.0263672 24.241 -0.0263672H130.832C132.568 -0.0263672 133.982 1.39488 133.982 3.14134V153.775C133.982 155.522 132.568 156.943 130.832 156.943ZM24.241 0.112927C22.5795 0.112927 21.2282 1.47147 21.2282 3.1419V153.776C21.2282 155.446 22.5795 156.805 24.241 156.805H130.832C132.493 156.805 133.844 155.446 133.844 153.776V3.14134C133.844 1.47147 132.493 0.112373 130.832 0.112373L24.241 0.112927Z" fill="#EBEBEB"/>
<path d="M250.227 156.943H143.637C141.9 156.943 140.487 155.522 140.487 153.775V3.14134C140.487 1.39488 141.9 -0.0263672 143.637 -0.0263672H250.227C251.965 -0.0263672 253.378 1.39488 253.378 3.14134V153.775C253.379 155.522 251.965 156.943 250.227 156.943ZM143.637 0.112927C141.976 0.112927 140.625 1.47147 140.625 3.1419V153.776C140.625 155.446 141.976 156.805 143.637 156.805H250.227C251.889 156.805 253.24 155.446 253.24 153.776V3.14134C253.24 1.47147 251.889 0.112373 250.227 0.112373L143.637 0.112927Z" fill="#EBEBEB"/>
<path d="M80.873 179.657H91.1429V125.68H80.873V179.657Z" fill="#F0F0F0"/>
<path d="M44.4044 181.685H89.171V179.656H44.4044V181.685Z" fill="#F0F0F0"/>
<path d="M80.8735 125.68H42.4327V179.656H80.8735V125.68Z" fill="#F5F5F5"/>
<path d="M79.1694 143.407V159.692H44.1356V143.407H79.1694ZM79.4172 143.158H43.8883V159.941H79.4172V143.158Z" fill="#E0E0E0"/>
<path d="M63.1636 151.564C63.1636 152.403 62.4869 153.083 61.6528 153.083C60.8182 153.083 60.142 152.403 60.142 151.564C60.142 150.725 60.8182 150.045 61.6528 150.045C62.4874 150.045 63.1636 150.725 63.1636 151.564Z" fill="#E0E0E0"/>
<path d="M79.4179 127.459H43.8884V139.838H79.4179V127.459Z" fill="#F0F0F0"/>
<path d="M79.4179 163.26H43.8884V175.64H79.4179V163.26Z" fill="#F0F0F0"/>
<path d="M51.3835 127.459H43.8884V139.838H51.3835V127.459Z" fill="#E0E0E0"/>
<path d="M51.3835 163.26H43.8884V175.64H51.3835V163.26Z" fill="#E0E0E0"/>
<path d="M126.895 180.527C130.314 180.527 133.111 177.714 133.111 174.278V120.708C133.111 117.271 130.313 114.459 126.895 114.459H93.0616V180.528H126.895V180.527Z" fill="#3D3D3D"/>
<path d="M93.0617 114.458C89.6426 114.458 86.8456 117.271 86.8456 120.708V172.874C86.8456 177.1 90.2536 180.527 94.4582 180.527H99.2783V120.708C99.2783 117.271 96.4807 114.458 93.0617 114.458Z" fill="#3D3D3D"/>
<path d="M229.01 138.026L231.203 110.707C231.6 105.765 227.903 101.721 222.987 101.721H143.971C139.055 101.721 134.709 105.765 134.312 110.707L132.119 138.026C131.851 141.364 134.349 144.095 137.668 144.095H222.486C225.806 144.095 228.742 141.364 229.01 138.026Z" fill="#E0E0E0"/>
<path d="M217.965 138.026L220.158 110.707C220.555 105.765 216.858 101.721 211.942 101.721H132.926C128.01 101.721 123.664 105.765 123.267 110.707L121.074 138.026C120.806 141.364 123.303 144.095 126.623 144.095H211.441C214.762 144.095 217.697 141.364 217.965 138.026Z" fill="#F0F0F0"/>
<path d="M110.043 118.407C110.043 118.407 108.418 117.179 109.004 116.523C109.591 115.868 112.253 117.115 112.253 117.115C112.253 117.115 127.267 115.215 136.102 115.554C136.161 114.358 137.338 113.894 138.287 114.11C139.236 114.326 138.311 116.275 138.311 116.275C138.311 116.275 144.502 132.145 144.305 140.158C145.295 141.016 146.278 141.62 145.268 142.029C144.258 142.438 143.354 141.68 143.354 141.68C143.354 141.68 123.421 144.611 115.311 143.133C114.751 144.216 113.593 144.005 112.925 143.671C112.257 143.338 113.374 141.762 113.374 141.762C113.374 141.762 108.385 127.891 110.043 118.407Z" fill="white"/>
<path d="M232.988 180.527C236.407 180.527 239.204 177.714 239.204 174.278V120.708C239.204 117.271 236.406 114.459 232.988 114.459H203.584V180.528H232.988V180.527Z" fill="#3D3D3D"/>
<path d="M205.031 150.193V144.793C205.031 142.841 203.442 141.243 201.5 141.243H107.285C105.343 141.243 103.754 142.84 103.754 144.793V150.193C103.754 152.145 105.343 153.743 107.285 153.743H201.5C203.442 153.743 205.031 152.145 205.031 150.193Z" fill="#EBEBEB"/>
<path d="M205.031 178.632V155.638C205.031 154.596 204.183 153.743 203.146 153.743H110.025C108.988 153.743 108.14 154.596 108.14 155.638V178.632C108.14 179.674 108.988 180.527 110.025 180.527H203.146C204.183 180.527 205.031 179.674 205.031 178.632Z" fill="#656565"/>
<path d="M203.584 114.458C200.165 114.458 197.368 117.271 197.368 120.708V180.526H209.8V120.708C209.8 117.271 207.002 114.458 203.584 114.458Z" fill="#3D3D3D"/>
<path d="M76.8761 88.9038L206.226 88.9038V16.506L76.8761 16.506V88.9038Z" fill="#E0E0E0"/>
<path d="M69.7735 88.9038L205.574 88.9038V16.506L69.7735 16.506V88.9038Z" fill="#3D3D3D"/>
<path d="M203.355 86.6733V18.7368L71.992 18.7368V86.6733L203.355 86.6733Z" fill="#3D3D3D"/>
<path d="M94.0663 30.1523H136.416C161.194 30.1523 181.28 50.3462 181.28 75.2567H138.93C114.152 75.2567 94.0663 55.0628 94.0663 30.1523Z" fill="#161616"/>
<path d="M181.557 79.4674H138.931C114.04 79.4674 93.7908 59.1093 93.7908 34.0856V33.8081H136.417C161.307 33.8081 181.557 54.1663 181.557 79.1899V79.4674ZM94.3433 34.3631C94.4918 58.9544 114.436 78.9125 138.93 78.9125H181.003C180.855 54.3211 160.911 34.3631 136.417 34.3631H94.3433Z" fill="white"/>
<path d="M181.557 71.6017H138.931C114.04 71.6017 93.7908 51.2436 93.7908 26.2199V25.9424H136.417C161.307 25.9424 181.557 46.3005 181.557 71.3242V71.6017ZM94.3433 26.4973C94.4918 51.0887 114.436 71.0467 138.93 71.0467H181.003C180.855 46.4554 160.911 26.4973 136.417 26.4973H94.3433Z" fill="white"/>
<path d="M138 206.757C197.109 206.757 245.027 203.943 245.027 200.473C245.027 197.002 197.109 194.189 138 194.189C78.8906 194.189 30.9731 197.002 30.9731 200.473C30.9731 203.943 78.8906 206.757 138 206.757Z" fill="#3D3D3D"/>
<path d="M238.691 163.76H64.5625C62.689 163.76 61.1561 162.219 61.1561 160.336V46.6493C61.1561 44.7657 62.689 43.2246 64.5625 43.2246H238.691C240.564 43.2246 242.097 44.7657 242.097 46.6493V160.335C242.097 162.219 240.564 163.76 238.691 163.76Z" fill="#263238"/>
<path d="M176.01 196.655H135.355L128.333 125.108H168.988L176.01 196.655Z" fill="#263238"/>
<path d="M174.921 196.655H134.266L127.244 125.108H167.899L174.921 196.655Z" fill="#407BFF"/>
<path d="M183.961 199.062H131.917L132.488 196.655H182.071C183.326 196.655 184.252 197.834 183.961 199.062Z" fill="#263238"/>
<path d="M175.137 199.062H123.093C123.428 197.65 124.683 196.655 126.126 196.655H175.708L175.137 199.062Z" fill="#407BFF"/>
<path d="M179.471 196.655H174.264C173.008 196.655 172.082 197.834 172.373 199.062H180.043" fill="#263238"/>
<path opacity="0.2" d="M167.898 125.107H127.243L131.375 167.19H172.03L167.898 125.107Z" fill="black"/>
<path d="M237.692 163.76H63.5634C61.6899 163.76 60.157 162.219 60.157 160.336V46.6493C60.157 44.7657 61.6899 43.2246 63.5634 43.2246H237.692C239.565 43.2246 241.098 44.7657 241.098 46.6493V160.335C241.098 162.219 239.565 163.76 237.692 163.76Z" fill="#407BFF"/>
<path opacity="0.2" d="M150.628 158.737C152.397 158.737 153.83 157.295 153.83 155.517C153.83 153.738 152.397 152.297 150.628 152.297C148.859 152.297 147.425 153.738 147.425 155.517C147.425 157.295 148.859 158.737 150.628 158.737Z" fill="black"/>
<path opacity="0.9" d="M238.078 146.477H63.0543C62.2561 146.477 61.6086 145.827 61.6086 145.024V51.7625C61.6086 50.96 62.2556 50.3091 63.0543 50.3091H238.078C238.876 50.3091 239.524 50.9595 239.524 51.7625V145.024C239.523 145.827 238.876 146.477 238.078 146.477Z" fill="#0B0B0B"/>
<path d="M155.231 126.515C150.961 126.079 146.869 124.807 143.25 122.831C139.627 120.86 136.477 118.198 133.995 115.1C131.515 111.997 129.71 108.466 128.667 104.81C127.934 102.251 127.586 99.637 127.579 97.0542H133.359L122.124 77.4946L110.89 97.0542H116.923C117.594 100.964 118.844 104.732 120.624 108.163C122.895 112.559 126 116.408 129.646 119.471C133.298 122.533 137.488 124.807 141.874 126.167C146.26 127.534 150.832 127.975 155.231 127.554C155.473 127.53 155.675 127.336 155.699 127.084C155.726 126.797 155.516 126.543 155.231 126.515Z" fill="#407BFF"/>
<path d="M184.333 99.7002C183.662 95.7905 182.412 92.0229 180.632 88.5916C178.361 84.1957 175.256 80.3465 171.61 77.2832C167.958 74.222 163.768 71.9478 159.382 70.5876C154.996 69.2207 150.424 68.779 146.025 69.2002C145.783 69.2252 145.581 69.4188 145.557 69.6708C145.53 69.9577 145.739 70.213 146.025 70.2402C150.294 70.6769 154.386 71.9483 158.006 73.924C161.629 75.8947 164.779 78.5579 167.261 81.6557C169.74 84.7585 171.546 88.2891 172.588 91.9452C173.322 94.5041 173.67 97.118 173.676 99.7008H167.897L179.132 119.261L190.366 99.7008L184.333 99.7002Z" fill="#407BFF"/>
<g opacity="0.3">
<path d="M98.4217 86.8356L122.881 50.2915H92.1565L68.1666 86.1197L67.1509 87.6459L61.6696 95.8371V141.743L67.1509 133.552L98.4217 86.8356Z" fill="white"/>
<path d="M151.904 50.2915L120.771 96.8027L89.296 143.824L87.5302 146.46H102.583L120.771 119.301L166.957 50.2915H151.904Z" fill="white"/>
</g>
<path d="M88.9675 199.586H41.7649C38.4678 199.586 35.7708 196.874 35.7708 193.559V85.0771C35.7708 81.7623 38.4684 79.0508 41.7649 79.0508H88.9681C92.2652 79.0508 94.9623 81.7629 94.9623 85.0771V193.559C94.9623 196.874 92.2646 199.586 88.9675 199.586Z" fill="#263238"/>
<path d="M94.5869 117.107H93.7859C93.1671 117.107 92.6604 116.597 92.6604 115.975V101.363C92.6604 100.741 93.1666 100.232 93.7859 100.232H94.5869C95.2057 100.232 95.7124 100.741 95.7124 101.363V115.975C95.7124 116.598 95.2057 117.107 94.5869 117.107Z" fill="#263238"/>
<path d="M35.8905 108.471H34.9665C34.3814 108.471 33.9022 107.99 33.9022 107.401V101.302C33.9022 100.714 34.3808 100.232 34.9665 100.232H35.8905C36.4756 100.232 36.9548 100.713 36.9548 101.302V107.401C36.9542 107.99 36.4756 108.471 35.8905 108.471Z" fill="#263238"/>
<path d="M35.8905 119.363H34.9665C34.3814 119.363 33.9022 118.882 33.9022 118.293V112.194C33.9022 111.606 34.3808 111.125 34.9665 111.125H35.8905C36.4756 111.125 36.9548 111.606 36.9548 112.194V118.293C36.9542 118.882 36.4756 119.363 35.8905 119.363Z" fill="#263238"/>
<path d="M87.9685 199.586H40.7653C37.4682 199.586 34.7711 196.874 34.7711 193.559V85.0771C34.7711 81.7623 37.4687 79.0508 40.7653 79.0508H87.9685C91.2656 79.0508 93.9632 81.7629 93.9632 85.0771V193.559C93.9626 196.874 91.265 199.586 87.9685 199.586Z" fill="#407BFF"/>
<path opacity="0.9" d="M91.7006 192.721H37.0333C36.2351 192.721 35.5876 192.071 35.5876 191.268V87.5736C35.5876 86.7711 36.2346 86.1201 37.0333 86.1201H91.7006C92.4988 86.1201 93.1463 86.7705 93.1463 87.5736V191.268C93.1463 192.07 92.4988 192.721 91.7006 192.721Z" fill="#0B0B0B"/>
<path d="M66.6904 151.996C64.5348 151.776 62.4687 151.134 60.6416 150.136C58.8128 149.141 57.2219 147.797 55.9689 146.233C54.7169 144.667 53.805 142.884 53.279 141.038C52.9086 139.746 52.7325 138.427 52.7297 137.123H55.6476L49.9753 127.247L44.3035 137.123H47.3494C47.6883 139.097 48.3193 140.998 49.2179 142.732C50.3639 144.951 51.9321 146.894 53.773 148.441C55.6167 149.987 57.7325 151.135 59.9466 151.821C62.1612 152.512 64.4691 152.734 66.6904 152.522C66.8124 152.509 66.9145 152.412 66.9266 152.284C66.9404 152.139 66.835 152.01 66.6904 151.996Z" fill="#407BFF"/>
<path d="M81.3836 138.458C81.0447 136.484 80.4137 134.582 79.5151 132.849C78.3686 130.63 76.8009 128.687 74.96 127.14C73.1163 125.594 71.0005 124.446 68.7864 123.76C66.5724 123.07 64.2639 122.847 62.0426 123.059C61.9206 123.072 61.8185 123.17 61.8064 123.297C61.7926 123.442 61.8986 123.57 62.0426 123.584C64.1982 123.805 66.2643 124.447 68.092 125.444C69.9208 126.439 71.5117 127.784 72.7647 129.348C74.0166 130.914 74.928 132.697 75.4546 134.543C75.8244 135.834 76.0011 137.154 76.0038 138.458H73.0859L78.7583 148.334L84.4301 138.458H81.3836V138.458Z" fill="#407BFF"/>
<g opacity="0.3">
<path d="M92.9404 86.836C92.692 86.4087 92.2284 86.1201 91.6984 86.1201H62.6908L61.6696 87.6463L35.5876 126.61V172.521L61.6696 133.552L92.9404 86.836Z" fill="white"/>
<path d="M61.6696 143.825L35.5876 182.789V191.268C35.5876 192.073 36.2335 192.722 37.0339 192.722H43.9946L74.9618 146.461L93.1447 119.301V96.8032L61.6696 143.825Z" fill="white"/>
</g>
<path opacity="0.2" d="M58.6754 81.8364H70.0576C70.4645 81.8364 70.7968 82.1705 70.7968 82.5795C70.7968 82.988 70.4645 83.3226 70.0576 83.3226H58.6754C58.2691 83.3226 57.9363 82.988 57.9363 82.5795C57.9363 82.1711 58.2691 81.8364 58.6754 81.8364Z" fill="black"/>
<path d="M194.019 13.6438C193.982 13.641 193.945 13.6399 193.908 13.6377C193.802 13.6311 193.697 13.6233 193.591 13.6205C193.513 13.6183 193.435 13.6172 193.357 13.6172H190.366C190.551 13.6172 190.734 13.6255 190.917 13.6372C190.954 13.6394 190.991 13.6399 191.029 13.6433C191.23 13.6588 191.43 13.6805 191.627 13.7104H194.618C194.583 13.7054 194.548 13.6999 194.514 13.6954C194.35 13.6732 194.185 13.6566 194.019 13.6438Z" fill="#263238"/>
<path d="M223.45 25.4632C223.467 25.2656 223.477 25.0653 223.477 24.8627C223.477 24.8161 223.476 24.7701 223.475 24.7234C223.472 24.563 223.461 24.4043 223.447 24.2467C223.443 24.2112 223.438 24.1762 223.435 24.1407C223.426 24.0591 223.418 23.977 223.406 23.8965C223.397 23.8338 223.382 23.7733 223.371 23.7117C223.358 23.6357 223.344 23.5602 223.329 23.4848C223.302 23.3605 223.271 23.2378 223.238 23.1163C223.219 23.0486 223.202 22.9803 223.181 22.9137C223.174 22.8904 223.169 22.8665 223.162 22.8432C223.115 22.6967 223.062 22.5535 223.005 22.412C222.993 22.3815 222.979 22.3515 222.966 22.321C222.905 22.1762 222.84 22.0341 222.769 21.8954C222.751 21.8598 222.734 21.8238 222.715 21.7888C222.631 21.6306 222.542 21.4769 222.447 21.3276C222.428 21.2982 222.407 21.2699 222.388 21.2405C222.303 21.1123 222.214 20.9874 222.12 20.8659C222.097 20.8354 222.074 20.8049 222.051 20.7749C221.94 20.6367 221.825 20.5035 221.705 20.3753C221.679 20.3487 221.653 20.3232 221.627 20.2965C221.574 20.2421 221.522 20.1861 221.467 20.1339C221.428 20.0956 221.383 20.0612 221.343 20.024C221.281 19.968 221.219 19.913 221.155 19.8592C221.07 19.7876 220.982 19.7194 220.893 19.6522C220.828 19.6028 220.762 19.5529 220.695 19.5057C220.667 19.4863 220.64 19.4635 220.612 19.4441C220.499 19.3681 220.383 19.2954 220.265 19.2266C220.261 19.2238 220.256 19.2221 220.252 19.2193C220.14 19.1544 220.027 19.0928 219.911 19.0345C219.884 19.0212 219.855 19.0118 219.828 18.9985C219.69 18.9319 219.549 18.873 219.407 18.8164C219.355 18.7959 219.306 18.7693 219.253 18.7498C219.238 18.7443 219.222 18.741 219.207 18.736C219.068 18.6866 218.926 18.6461 218.784 18.6067C218.726 18.5906 218.67 18.5684 218.611 18.5539C218.604 18.5523 218.596 18.5517 218.59 18.5501C218.392 18.5012 218.19 18.4629 217.985 18.4335C217.975 18.4319 217.965 18.4291 217.955 18.428H217.954C217.745 18.3991 217.534 18.3808 217.32 18.373C217.311 18.2964 217.301 18.2204 217.29 18.1444C217.278 18.0634 217.259 17.9851 217.245 17.9046C217.23 17.8186 217.215 17.7326 217.196 17.6471C217.169 17.5239 217.136 17.4035 217.103 17.2831C217.081 17.2048 217.062 17.1255 217.037 17.0478C217.031 17.0289 217.028 17.0089 217.021 16.9901C216.971 16.8325 216.913 16.6782 216.852 16.5256C216.838 16.4906 216.822 16.4562 216.807 16.4212C216.747 16.2775 216.682 16.1371 216.612 15.9984C216.59 15.9545 216.569 15.9101 216.546 15.8663C216.459 15.7014 216.367 15.5394 216.269 15.3829C216.259 15.3679 216.248 15.3535 216.239 15.3385C216.147 15.1959 216.05 15.0577 215.948 14.9228C215.918 14.8823 215.888 14.8424 215.856 14.803C215.753 14.6709 215.646 14.5421 215.534 14.4184C215.521 14.4045 215.51 14.3895 215.496 14.3757C215.395 14.2652 215.29 14.1576 215.182 14.0538C215.162 14.0349 215.14 14.0183 215.119 13.9994C215.052 13.9361 214.981 13.8762 214.911 13.8157C214.827 13.7436 214.744 13.6714 214.657 13.6037C214.583 13.546 214.507 13.4922 214.431 13.4372C214.372 13.3945 214.316 13.3484 214.255 13.3074C214.217 13.2818 214.176 13.2585 214.138 13.2341C214.095 13.2064 214.051 13.1792 214.007 13.152C213.87 13.0676 213.73 12.9883 213.587 12.9133C213.563 12.9011 213.541 12.8878 213.517 12.8756C213.51 12.8717 213.502 12.8673 213.495 12.8634C213.463 12.8473 213.428 12.8362 213.395 12.8201C213.221 12.7363 213.043 12.6586 212.861 12.5892C212.836 12.5798 212.812 12.5665 212.787 12.557C212.732 12.5371 212.673 12.5237 212.618 12.5054C212.484 12.4605 212.35 12.4178 212.212 12.3811C212.172 12.37 212.134 12.3545 212.093 12.3445C212.043 12.3323 211.991 12.3267 211.94 12.3151C211.809 12.2857 211.676 12.2601 211.542 12.2385C211.489 12.2302 211.437 12.2152 211.384 12.208C211.344 12.2024 211.302 12.203 211.261 12.198C211.114 12.1802 210.965 12.1697 210.815 12.1614C210.753 12.158 210.692 12.148 210.629 12.1464C210.569 12.1447 210.508 12.1442 210.447 12.1442H207.949C207.928 12.1075 207.906 12.0715 207.884 12.0354C207.852 11.9843 207.819 11.9349 207.787 11.8844C207.713 11.7701 207.636 11.6575 207.557 11.5476C207.518 11.4943 207.479 11.441 207.439 11.3889C207.354 11.2784 207.267 11.1713 207.176 11.0659C207.14 11.0237 207.106 10.981 207.069 10.9399C206.941 10.7973 206.809 10.6585 206.671 10.5265C206.668 10.5237 206.665 10.5203 206.662 10.5176C206.645 10.5015 206.626 10.487 206.609 10.471C206.489 10.3589 206.366 10.2506 206.24 10.1469C206.191 10.1075 206.142 10.0697 206.092 10.0314C205.988 9.94985 205.881 9.87104 205.772 9.79501C205.741 9.77393 205.713 9.75006 205.683 9.72897C205.652 9.70844 205.62 9.69068 205.59 9.6707C205.528 9.63075 205.466 9.5919 205.403 9.55305C205.327 9.50699 205.252 9.46259 205.174 9.41875C205.11 9.38268 205.045 9.34716 204.979 9.31275C204.943 9.29388 204.908 9.2728 204.871 9.25448C204.848 9.24283 204.822 9.23451 204.799 9.22285C204.582 9.11741 204.362 9.01973 204.135 8.93649C204.13 8.93427 204.125 8.93149 204.119 8.92927C204.1 8.92206 204.08 8.91818 204.062 8.91152C203.869 8.8427 203.672 8.78332 203.472 8.73116C203.442 8.72283 203.413 8.71118 203.382 8.70341C203.359 8.69786 203.336 8.69564 203.313 8.69009C203.095 8.63792 202.875 8.59408 202.65 8.56245C202.643 8.56134 202.636 8.55967 202.63 8.55856C202.485 8.53858 202.339 8.52415 202.192 8.5125C202.153 8.50972 202.113 8.50862 202.073 8.50584C201.992 8.50085 201.91 8.49474 201.829 8.49252C201.764 8.49086 201.699 8.48975 201.634 8.48975H198.643C198.791 8.48975 198.937 8.49696 199.083 8.50528C199.122 8.5075 199.163 8.50862 199.202 8.51194C199.356 8.5236 199.508 8.54025 199.659 8.56189C199.884 8.59353 200.105 8.63792 200.323 8.68953C200.376 8.7023 200.429 8.71673 200.482 8.7306C200.682 8.78277 200.879 8.8427 201.071 8.91096C201.096 8.91984 201.121 8.9265 201.145 8.93538C201.372 9.01918 201.593 9.11685 201.808 9.22174C201.869 9.25115 201.93 9.28057 201.989 9.31164C202.055 9.34605 202.12 9.38101 202.184 9.41764C202.262 9.46093 202.337 9.50588 202.413 9.55194C202.476 9.59023 202.538 9.62908 202.6 9.66959C202.661 9.70955 202.721 9.75117 202.782 9.79335C202.891 9.86938 202.998 9.94874 203.103 10.0303C203.152 10.0686 203.202 10.1058 203.25 10.1452C203.377 10.2495 203.5 10.3577 203.62 10.4704C203.64 10.4893 203.661 10.5059 203.681 10.5248C203.819 10.6574 203.951 10.7956 204.079 10.9382C204.116 10.9793 204.15 11.0226 204.186 11.0642C204.276 11.1696 204.364 11.2768 204.449 11.3872C204.488 11.4394 204.528 11.4926 204.567 11.5459C204.646 11.6558 204.722 11.7685 204.796 11.8828C204.829 11.9327 204.862 11.9827 204.893 12.0337C204.994 12.1985 205.091 12.3667 205.179 12.5398H208.17C208.106 12.4144 208.037 12.2923 207.966 12.1708C208.068 12.1786 208.17 12.1836 208.271 12.1958C208.366 12.2069 208.459 12.2213 208.552 12.2363C208.686 12.2579 208.818 12.2835 208.95 12.3129C209.041 12.3334 209.132 12.3545 209.222 12.3789C209.359 12.4161 209.494 12.4583 209.628 12.5032C209.709 12.5304 209.791 12.5565 209.871 12.587C210.053 12.6564 210.231 12.7341 210.405 12.8179C210.445 12.8373 210.487 12.8528 210.527 12.8728C210.55 12.885 210.573 12.8983 210.596 12.9106C210.739 12.9849 210.879 13.0648 211.016 13.1492C211.06 13.1764 211.103 13.2036 211.147 13.2313C211.247 13.2957 211.343 13.3651 211.44 13.4344C211.516 13.4888 211.592 13.5432 211.665 13.6009C211.752 13.6686 211.835 13.7408 211.919 13.8129C211.989 13.8734 212.061 13.9333 212.129 13.9966C212.258 14.1176 212.385 14.2425 212.506 14.3729C212.518 14.3868 212.53 14.4017 212.543 14.4156C212.655 14.5394 212.762 14.6681 212.865 14.8002C212.896 14.8396 212.927 14.8801 212.957 14.9201C213.059 15.0549 213.156 15.1937 213.247 15.3357C213.257 15.3507 213.268 15.3651 213.277 15.3801C213.376 15.5366 213.468 15.6987 213.554 15.8635C213.577 15.9068 213.599 15.9512 213.621 15.9956C213.69 16.1338 213.755 16.2747 213.815 16.4185C213.83 16.4534 213.846 16.4873 213.861 16.5228C213.929 16.6937 213.99 16.8674 214.046 17.0445C214.07 17.1216 214.09 17.201 214.111 17.2798C214.145 17.4002 214.178 17.5212 214.205 17.6438C214.223 17.7287 214.238 17.8153 214.254 17.9013C214.282 18.0561 214.311 18.2115 214.329 18.3697C214.544 18.3775 214.755 18.3958 214.963 18.4246C214.974 18.4257 214.983 18.4291 214.994 18.4302C215.199 18.459 215.4 18.4979 215.598 18.5467C215.665 18.5628 215.728 18.5856 215.794 18.6039C215.936 18.6438 216.078 18.6838 216.216 18.7332C216.284 18.7576 216.349 18.787 216.416 18.8137C216.558 18.8703 216.7 18.9291 216.837 18.9957C216.98 19.0656 217.123 19.1367 217.261 19.2166C217.265 19.2193 217.269 19.221 217.274 19.2238C217.422 19.3104 217.564 19.4053 217.704 19.5029C217.772 19.5501 217.837 19.5995 217.902 19.6489C217.991 19.716 218.079 19.7848 218.164 19.8564C218.227 19.9097 218.289 19.9652 218.351 20.0213C218.448 20.1095 218.544 20.1994 218.636 20.2937C218.661 20.3198 218.688 20.3454 218.713 20.3725C218.834 20.5007 218.949 20.6339 219.059 20.7721C219.083 20.8021 219.106 20.8332 219.129 20.8631C219.222 20.9847 219.312 21.1095 219.397 21.2377C219.416 21.2666 219.436 21.2954 219.455 21.3249C219.551 21.4747 219.64 21.6284 219.724 21.786C219.742 21.821 219.759 21.8571 219.778 21.8926C219.848 22.0319 219.914 22.1734 219.975 22.3182C219.987 22.3488 220.001 22.3787 220.014 22.4092C220.08 22.573 220.138 22.7406 220.19 22.9109C220.211 22.9775 220.228 23.0458 220.246 23.1135C220.28 23.235 220.311 23.3577 220.337 23.482C220.353 23.5569 220.367 23.6329 220.38 23.709C220.405 23.8505 220.428 23.9931 220.443 24.1385C220.447 24.174 220.452 24.209 220.455 24.2445C220.474 24.4471 220.485 24.6524 220.485 24.86C220.485 25.0736 220.474 25.2839 220.454 25.4921C220.439 25.643 220.415 25.7912 220.39 25.9388C220.379 26.0104 220.372 26.0842 220.358 26.1547C220.315 26.3722 220.261 26.5859 220.198 26.7945C220.195 26.8018 220.192 26.8084 220.19 26.8156C220.126 27.0226 220.051 27.2252 219.968 27.4233C219.947 27.4749 219.92 27.5232 219.897 27.5737C219.821 27.7413 219.74 27.9056 219.651 28.0648C219.585 28.1842 219.515 28.3007 219.442 28.415C219.42 28.4489 219.401 28.4844 219.378 28.5177C219.273 28.6747 219.161 28.8268 219.043 28.9739C219.026 28.995 219.008 29.0149 218.991 29.036C218.872 29.1809 218.748 29.3218 218.616 29.4556C218.615 29.4567 218.614 29.4578 218.613 29.4589C218.481 29.5932 218.342 29.7197 218.199 29.8418C218.178 29.8601 218.158 29.879 218.136 29.8968C217.998 30.0116 217.855 30.1193 217.708 30.2225C217.681 30.242 217.653 30.2608 217.625 30.2797C217.476 30.3807 217.323 30.4756 217.166 30.5638C217.142 30.5771 217.118 30.5894 217.094 30.6021C216.928 30.692 216.759 30.7769 216.584 30.8519C216.583 30.8524 216.583 30.8524 216.582 30.853C216.407 30.9279 216.228 30.9934 216.046 31.0522C216.019 31.0611 215.993 31.0705 215.966 31.0788C215.792 31.1332 215.614 31.1793 215.433 31.2187C215.4 31.2259 215.366 31.2331 215.332 31.2398C215.15 31.2758 214.966 31.3053 214.779 31.3258C214.751 31.3286 214.722 31.3308 214.694 31.3336C214.497 31.3519 214.297 31.3641 214.096 31.3641H217.087C217.289 31.3641 217.487 31.3519 217.684 31.3336C217.713 31.3308 217.742 31.3291 217.77 31.3258C217.957 31.3058 218.141 31.2758 218.323 31.2398C218.357 31.2331 218.39 31.2259 218.424 31.2187C218.605 31.1793 218.782 31.1332 218.957 31.0788C218.984 31.0705 219.01 31.0611 219.037 31.0522C219.219 30.9928 219.398 30.9279 219.573 30.853L219.575 30.8519C219.749 30.7764 219.919 30.692 220.085 30.6016C220.109 30.5888 220.133 30.5766 220.157 30.5633C220.314 30.475 220.467 30.3801 220.616 30.2791C220.644 30.2603 220.672 30.2414 220.699 30.222C220.846 30.1193 220.989 30.0111 221.127 29.8962C221.149 29.8785 221.169 29.8596 221.191 29.8413C221.334 29.7192 221.473 29.5926 221.604 29.4583C221.605 29.4572 221.606 29.4561 221.608 29.455C221.739 29.3213 221.863 29.1803 221.982 29.0355C221.999 29.0144 222.018 28.9944 222.034 28.9733C222.046 28.9583 222.059 28.9445 222.071 28.93C222.176 28.7968 222.275 28.6587 222.369 28.5171C222.392 28.4838 222.412 28.4489 222.433 28.4145C222.491 28.3251 222.549 28.2369 222.602 28.1448C222.617 28.1187 222.628 28.0904 222.643 28.0643C222.731 27.905 222.812 27.7407 222.888 27.5731C222.907 27.5321 222.931 27.4938 222.948 27.4522C222.953 27.4427 222.955 27.4322 222.959 27.4228C223.043 27.2252 223.117 27.0226 223.181 26.8151C223.183 26.8079 223.186 26.8018 223.188 26.7951L223.189 26.794C223.253 26.5848 223.306 26.3717 223.349 26.1541C223.35 26.1491 223.352 26.1441 223.353 26.1391C223.366 26.0731 223.371 26.0043 223.382 25.9377C223.406 25.7895 223.431 25.6419 223.445 25.4909C223.446 25.4837 223.448 25.4737 223.45 25.4632Z" fill="#263238"/>
<path d="M198.643 8.49072C201.488 8.49072 203.952 10.1378 205.179 12.5425C205.893 12.29 206.658 12.1446 207.457 12.1446C211.006 12.1446 213.929 14.8678 214.33 18.3723C217.75 18.4972 220.486 21.3514 220.486 24.8631C220.486 28.4548 217.624 31.3678 214.095 31.3678H190.366C185.549 31.3678 181.647 27.3921 181.647 22.4929C181.647 17.5904 185.549 13.618 190.366 13.618C190.794 13.618 191.216 13.6491 191.627 13.7112C192.572 10.6839 195.356 8.49072 198.643 8.49072Z" fill="#407BFF"/>
<g opacity="0.1">
<path d="M198.643 8.49219C195.358 8.49219 192.571 10.6843 191.627 13.7088C191.4 13.6755 191.169 13.6533 190.931 13.6367L186.14 30.2577C187.387 30.9625 188.828 31.3676 190.368 31.3676H194.359L200.851 8.84181C200.155 8.61428 199.415 8.49219 198.643 8.49219Z" fill="white"/>
<path d="M207.458 12.1438C206.658 12.1438 205.89 12.2881 205.178 12.5434C204.488 11.1837 203.401 10.0683 202.076 9.35791L195.734 31.3676H202.567L208.098 12.1771C207.889 12.1549 207.673 12.1438 207.458 12.1438Z" fill="white"/>
</g>
<path d="M178.848 24.2099C178.702 24.2099 178.56 24.1505 178.458 24.0473C178.355 23.9441 178.296 23.8009 178.296 23.655C178.296 23.509 178.355 23.3658 178.458 23.262C178.661 23.0562 179.032 23.0556 179.238 23.262C179.341 23.3658 179.4 23.509 179.4 23.655C179.4 23.8009 179.341 23.9441 179.238 24.0473C179.136 24.1505 178.993 24.2099 178.848 24.2099Z" fill="#407BFF"/>
<path d="M46.2454 73.702C46.2454 73.3956 46.4921 73.147 46.7974 73.147C47.1021 73.147 47.3494 73.3956 47.3494 73.702C47.3494 74.0088 47.1021 74.2569 46.7974 74.2569C46.4921 74.2569 46.2454 74.0088 46.2454 73.702ZM46.2454 71.471C46.2454 71.1641 46.4921 70.916 46.7974 70.916C47.1021 70.916 47.3494 71.1641 47.3494 71.471C47.3494 71.7768 47.1021 72.026 46.7974 72.026C46.4921 72.026 46.2454 71.7768 46.2454 71.471ZM46.2454 69.2395C46.2454 68.9332 46.4921 68.6846 46.7974 68.6846C47.1021 68.6846 47.3494 68.9332 47.3494 69.2395C47.3494 69.5459 47.1021 69.7945 46.7974 69.7945C46.4921 69.7945 46.2454 69.5459 46.2454 69.2395ZM46.2454 67.008C46.2454 66.7017 46.4921 66.4531 46.7974 66.4531C47.1021 66.4531 47.3494 66.7017 47.3494 67.008C47.3494 67.3149 47.1021 67.563 46.7974 67.563C46.4921 67.563 46.2454 67.3149 46.2454 67.008ZM46.2454 64.7771C46.2454 64.4702 46.4921 64.2221 46.7974 64.2221C47.1021 64.2221 47.3494 64.4702 47.3494 64.7771C47.3494 65.084 47.1021 65.332 46.7974 65.332C46.4921 65.332 46.2454 65.084 46.2454 64.7771ZM46.2454 62.5461C46.2454 62.2393 46.4921 61.9912 46.7974 61.9912C47.1021 61.9912 47.3494 62.2393 47.3494 62.5461C47.3494 62.8519 47.1021 63.1011 46.7974 63.1011C46.4921 63.1011 46.2454 62.8519 46.2454 62.5461ZM46.2454 60.3141C46.2454 60.0083 46.4921 59.7597 46.7974 59.7597C47.1021 59.7597 47.3494 60.0083 47.3494 60.3141C47.3494 60.621 47.1021 60.8691 46.7974 60.8691C46.4921 60.8691 46.2454 60.621 46.2454 60.3141ZM46.2454 58.0832C46.2454 57.7768 46.4921 57.5282 46.7974 57.5282C47.1021 57.5282 47.3494 57.7768 47.3494 58.0832C47.3494 58.3901 47.1021 58.6381 46.7974 58.6381C46.4921 58.6381 46.2454 58.3901 46.2454 58.0832ZM46.2454 55.8522C46.2454 55.5453 46.4921 55.2973 46.7974 55.2973C47.1021 55.2973 47.3494 55.5453 47.3494 55.8522C47.3494 56.1586 47.1021 56.4072 46.7974 56.4072C46.4921 56.4072 46.2454 56.1586 46.2454 55.8522ZM46.2454 53.6213C46.2454 53.3144 46.4921 53.0663 46.7974 53.0663C47.1021 53.0663 47.3494 53.3144 47.3494 53.6213C47.3494 53.9271 47.1021 54.1757 46.7974 54.1757C46.4921 54.1757 46.2454 53.9271 46.2454 53.6213ZM46.2454 51.3892C46.2454 51.0835 46.4921 50.8343 46.7974 50.8343C47.1021 50.8343 47.3494 51.0835 47.3494 51.3892C47.3494 51.6961 47.1021 51.9448 46.7974 51.9448C46.4921 51.9448 46.2454 51.6961 46.2454 51.3892ZM46.2454 49.1583C46.2454 48.8514 46.4921 48.6033 46.7974 48.6033C47.1021 48.6033 47.3494 48.8514 47.3494 49.1583C47.3494 49.4652 47.1021 49.7133 46.7974 49.7133C46.4921 49.7133 46.2454 49.4652 46.2454 49.1583ZM46.2454 46.9274C46.2454 46.6205 46.4921 46.3724 46.7974 46.3724C47.1021 46.3724 47.3494 46.6205 47.3494 46.9274C47.3494 47.2331 47.1021 47.4823 46.7974 47.4823C46.4921 47.4823 46.2454 47.2331 46.2454 46.9274ZM46.2454 44.6959C46.2454 44.3895 46.4921 44.1409 46.7974 44.1409C47.1021 44.1409 47.3494 44.3895 47.3494 44.6959C47.3494 45.0022 47.1021 45.2508 46.7974 45.2508C46.4921 45.2508 46.2454 45.0022 46.2454 44.6959ZM46.2454 42.4644C46.2454 42.1586 46.4921 41.9094 46.7974 41.9094C47.1021 41.9094 47.3494 42.1586 47.3494 42.4644C47.3494 42.7713 47.1021 43.0193 46.7974 43.0193C46.4921 43.0193 46.2454 42.7713 46.2454 42.4644ZM46.2454 40.2334C46.2454 39.9265 46.4921 39.6785 46.7974 39.6785C47.1021 39.6785 47.3494 39.9265 47.3494 40.2334C47.3494 40.5403 47.1021 40.7884 46.7974 40.7884C46.4921 40.7884 46.2454 40.5403 46.2454 40.2334ZM46.2454 38.0025C46.2454 37.6956 46.4921 37.4475 46.7974 37.4475C47.1021 37.4475 47.3494 37.6956 47.3494 38.0025C47.3494 38.3083 47.1021 38.5575 46.7974 38.5575C46.4921 38.5575 46.2454 38.3083 46.2454 38.0025ZM46.2454 35.771C46.2454 35.4647 46.4921 35.216 46.7974 35.216C47.1021 35.216 47.3494 35.4647 47.3494 35.771C47.3494 36.0773 47.1021 36.326 46.7974 36.326C46.4921 36.326 46.2454 36.0773 46.2454 35.771ZM46.7896 34.0945C46.4844 34.0895 46.2415 33.8375 46.2465 33.5306C46.2514 33.2243 46.502 32.9796 46.8073 32.9846C47.1126 32.9895 47.3554 33.2421 47.3505 33.5484C47.3455 33.852 47.0993 34.0945 46.7985 34.0945C46.7957 34.0945 46.7924 34.0945 46.7896 34.0945ZM46.9475 31.8713C46.6511 31.7992 46.4689 31.4995 46.5412 31.2015C46.6124 30.9035 46.9111 30.7209 47.2075 30.7925C47.5039 30.8646 47.6855 31.1648 47.6143 31.4623C47.5525 31.7159 47.3267 31.8868 47.0778 31.8868C47.0347 31.8868 46.9911 31.8818 46.9475 31.8713ZM47.59 29.7369C47.3168 29.601 47.2053 29.268 47.3411 28.9933C47.4763 28.7186 47.8081 28.607 48.0808 28.743C48.354 28.8795 48.465 29.213 48.3297 29.4872C48.2331 29.6825 48.0377 29.7952 47.8346 29.7952C47.7523 29.7952 47.6684 29.7763 47.59 29.7369ZM48.6852 27.7996C48.4489 27.6064 48.4131 27.2568 48.6052 27.0193C48.7973 26.7812 49.1456 26.7451 49.3818 26.9388C49.6181 27.1319 49.6545 27.481 49.4619 27.7191C49.3526 27.8545 49.1936 27.9239 49.033 27.9239C48.911 27.9239 48.7873 27.8834 48.6852 27.7996ZM50.1778 26.1508C49.989 25.9099 50.0299 25.5609 50.2694 25.3711C50.509 25.1813 50.8557 25.2223 51.0444 25.4632C51.2332 25.704 51.1924 26.0531 50.9534 26.2429C50.8518 26.3228 50.7309 26.3617 50.6111 26.3617C50.4483 26.3617 50.2866 26.2895 50.1778 26.1508ZM51.9933 24.8699C51.862 24.593 51.9784 24.2617 52.2539 24.1296C52.5282 23.9981 52.8583 24.1146 52.9897 24.3916C53.1205 24.6679 53.0046 24.9992 52.7292 25.1313C52.6524 25.1679 52.5713 25.1857 52.4918 25.1857C52.2853 25.1857 52.0877 25.0692 51.9933 24.8699ZM54.0451 24.0231C53.9783 23.7239 54.1649 23.427 54.4624 23.3593C54.7594 23.2922 55.0553 23.4798 55.1221 23.7789C55.1894 24.078 55.0028 24.3749 54.7053 24.4426C54.6645 24.4515 54.6236 24.4559 54.5833 24.4559C54.3311 24.4559 54.1036 24.2811 54.0451 24.0231ZM176.077 23.6546C176.077 23.3482 176.324 23.0996 176.628 23.0996C176.933 23.0996 177.18 23.3482 177.18 23.6546C177.18 23.9609 176.933 24.2095 176.628 24.2095C176.324 24.2095 176.077 23.9609 176.077 23.6546ZM173.857 23.6546C173.857 23.3482 174.104 23.0996 174.409 23.0996C174.714 23.0996 174.961 23.3482 174.961 23.6546C174.961 23.9609 174.714 24.2095 174.409 24.2095C174.104 24.2095 173.857 23.9609 173.857 23.6546ZM171.638 23.6546C171.638 23.3482 171.884 23.0996 172.19 23.0996C172.495 23.0996 172.742 23.3482 172.742 23.6546C172.742 23.9609 172.495 24.2095 172.19 24.2095C171.884 24.2095 171.638 23.9609 171.638 23.6546ZM169.419 23.6546C169.419 23.3482 169.665 23.0996 169.971 23.0996C170.275 23.0996 170.523 23.3482 170.523 23.6546C170.523 23.9609 170.275 24.2095 169.971 24.2095C169.665 24.2095 169.419 23.9609 169.419 23.6546ZM167.199 23.6546C167.199 23.3482 167.446 23.0996 167.751 23.0996C168.056 23.0996 168.303 23.3482 168.303 23.6546C168.303 23.9609 168.056 24.2095 167.751 24.2095C167.446 24.2095 167.199 23.9609 167.199 23.6546ZM164.979 23.6546C164.979 23.3482 165.227 23.0996 165.531 23.0996C165.837 23.0996 166.083 23.3482 166.083 23.6546C166.083 23.9609 165.837 24.2095 165.531 24.2095C165.227 24.2095 164.979 23.9609 164.979 23.6546ZM162.76 23.6546C162.76 23.3482 163.007 23.0996 163.312 23.0996C163.617 23.0996 163.864 23.3482 163.864 23.6546C163.864 23.9609 163.617 24.2095 163.312 24.2095C163.007 24.2095 162.76 23.9609 162.76 23.6546ZM160.541 23.6546C160.541 23.3482 160.788 23.0996 161.093 23.0996C161.398 23.0996 161.645 23.3482 161.645 23.6546C161.645 23.9609 161.398 24.2095 161.093 24.2095C160.788 24.2095 160.541 23.9609 160.541 23.6546ZM158.322 23.6546C158.322 23.3482 158.569 23.0996 158.874 23.0996C159.178 23.0996 159.426 23.3482 159.426 23.6546C159.426 23.9609 159.178 24.2095 158.874 24.2095C158.569 24.2095 158.322 23.9609 158.322 23.6546ZM156.102 23.6546C156.102 23.3482 156.349 23.0996 156.654 23.0996C156.959 23.0996 157.206 23.3482 157.206 23.6546C157.206 23.9609 156.959 24.2095 156.654 24.2095C156.349 24.2095 156.102 23.9609 156.102 23.6546ZM153.883 23.6546C153.883 23.3482 154.13 23.0996 154.435 23.0996C154.74 23.0996 154.987 23.3482 154.987 23.6546C154.987 23.9609 154.74 24.2095 154.435 24.2095C154.13 24.2095 153.883 23.9609 153.883 23.6546ZM151.664 23.6546C151.664 23.3482 151.911 23.0996 152.216 23.0996C152.52 23.0996 152.768 23.3482 152.768 23.6546C152.768 23.9609 152.52 24.2095 152.216 24.2095C151.911 24.2095 151.664 23.9609 151.664 23.6546ZM149.444 23.6546C149.444 23.3482 149.692 23.0996 149.996 23.0996C150.301 23.0996 150.549 23.3482 150.549 23.6546C150.549 23.9609 150.301 24.2095 149.996 24.2095C149.692 24.2095 149.444 23.9609 149.444 23.6546ZM147.225 23.6546C147.225 23.3482 147.472 23.0996 147.777 23.0996C148.082 23.0996 148.329 23.3482 148.329 23.6546C148.329 23.9609 148.082 24.2095 147.777 24.2095C147.472 24.2095 147.225 23.9609 147.225 23.6546ZM145.006 23.6546C145.006 23.3482 145.253 23.0996 145.558 23.0996C145.863 23.0996 146.11 23.3482 146.11 23.6546C146.11 23.9609 145.863 24.2095 145.558 24.2095C145.253 24.2095 145.006 23.9609 145.006 23.6546ZM142.787 23.6546C142.787 23.3482 143.034 23.0996 143.338 23.0996C143.643 23.0996 143.89 23.3482 143.89 23.6546C143.89 23.9609 143.643 24.2095 143.338 24.2095C143.034 24.2095 142.787 23.9609 142.787 23.6546ZM140.567 23.6546C140.567 23.3482 140.815 23.0996 141.119 23.0996C141.424 23.0996 141.671 23.3482 141.671 23.6546C141.671 23.9609 141.424 24.2095 141.119 24.2095C140.815 24.2095 140.567 23.9609 140.567 23.6546ZM138.348 23.6546C138.348 23.3482 138.594 23.0996 138.9 23.0996C139.205 23.0996 139.452 23.3482 139.452 23.6546C139.452 23.9609 139.205 24.2095 138.9 24.2095C138.594 24.2095 138.348 23.9609 138.348 23.6546ZM136.129 23.6546C136.129 23.3482 136.375 23.0996 136.681 23.0996C136.985 23.0996 137.233 23.3482 137.233 23.6546C137.233 23.9609 136.985 24.2095 136.681 24.2095C136.375 24.2095 136.129 23.9609 136.129 23.6546ZM133.909 23.6546C133.909 23.3482 134.156 23.0996 134.461 23.0996C134.766 23.0996 135.013 23.3482 135.013 23.6546C135.013 23.9609 134.766 24.2095 134.461 24.2095C134.156 24.2095 133.909 23.9609 133.909 23.6546ZM131.689 23.6546C131.689 23.3482 131.937 23.0996 132.241 23.0996C132.547 23.0996 132.793 23.3482 132.793 23.6546C132.793 23.9609 132.547 24.2095 132.241 24.2095C131.937 24.2095 131.689 23.9609 131.689 23.6546ZM129.47 23.6546C129.47 23.3482 129.717 23.0996 130.022 23.0996C130.327 23.0996 130.574 23.3482 130.574 23.6546C130.574 23.9609 130.327 24.2095 130.022 24.2095C129.717 24.2095 129.47 23.9609 129.47 23.6546ZM127.251 23.6546C127.251 23.3482 127.498 23.0996 127.803 23.0996C128.108 23.0996 128.355 23.3482 128.355 23.6546C128.355 23.9609 128.108 24.2095 127.803 24.2095C127.498 24.2095 127.251 23.9609 127.251 23.6546ZM125.032 23.6546C125.032 23.3482 125.279 23.0996 125.584 23.0996C125.888 23.0996 126.136 23.3482 126.136 23.6546C126.136 23.9609 125.888 24.2095 125.584 24.2095C125.279 24.2095 125.032 23.9609 125.032 23.6546ZM122.812 23.6546C122.812 23.3482 123.059 23.0996 123.364 23.0996C123.669 23.0996 123.917 23.3482 123.917 23.6546C123.917 23.9609 123.669 24.2095 123.364 24.2095C123.059 24.2095 122.812 23.9609 122.812 23.6546ZM120.593 23.6546C120.593 23.3482 120.84 23.0996 121.145 23.0996C121.45 23.0996 121.697 23.3482 121.697 23.6546C121.697 23.9609 121.45 24.2095 121.145 24.2095C120.84 24.2095 120.593 23.9609 120.593 23.6546ZM118.374 23.6546C118.374 23.3482 118.621 23.0996 118.926 23.0996C119.23 23.0996 119.478 23.3482 119.478 23.6546C119.478 23.9609 119.23 24.2095 118.926 24.2095C118.621 24.2095 118.374 23.9609 118.374 23.6546ZM116.154 23.6546C116.154 23.3482 116.402 23.0996 116.706 23.0996C117.011 23.0996 117.259 23.3482 117.259 23.6546C117.259 23.9609 117.011 24.2095 116.706 24.2095C116.402 24.2095 116.154 23.9609 116.154 23.6546ZM113.935 23.6546C113.935 23.3482 114.182 23.0996 114.487 23.0996C114.792 23.0996 115.039 23.3482 115.039 23.6546C115.039 23.9609 114.792 24.2095 114.487 24.2095C114.182 24.2095 113.935 23.9609 113.935 23.6546ZM111.716 23.6546C111.716 23.3482 111.963 23.0996 112.268 23.0996C112.573 23.0996 112.82 23.3482 112.82 23.6546C112.82 23.9609 112.573 24.2095 112.268 24.2095C111.963 24.2095 111.716 23.9609 111.716 23.6546ZM109.497 23.6546C109.497 23.3482 109.744 23.0996 110.048 23.0996C110.353 23.0996 110.6 23.3482 110.6 23.6546C110.6 23.9609 110.353 24.2095 110.048 24.2095C109.744 24.2095 109.497 23.9609 109.497 23.6546ZM107.277 23.6546C107.277 23.3482 107.525 23.0996 107.829 23.0996C108.134 23.0996 108.381 23.3482 108.381 23.6546C108.381 23.9609 108.134 24.2095 107.829 24.2095C107.525 24.2095 107.277 23.9609 107.277 23.6546ZM105.058 23.6546C105.058 23.3482 105.304 23.0996 105.61 23.0996C105.915 23.0996 106.162 23.3482 106.162 23.6546C106.162 23.9609 105.915 24.2095 105.61 24.2095C105.304 24.2095 105.058 23.9609 105.058 23.6546ZM102.839 23.6546C102.839 23.3482 103.085 23.0996 103.391 23.0996C103.695 23.0996 103.943 23.3482 103.943 23.6546C103.943 23.9609 103.695 24.2095 103.391 24.2095C103.085 24.2095 102.839 23.9609 102.839 23.6546ZM100.619 23.6546C100.619 23.3482 100.866 23.0996 101.171 23.0996C101.476 23.0996 101.723 23.3482 101.723 23.6546C101.723 23.9609 101.476 24.2095 101.171 24.2095C100.866 24.2095 100.619 23.9609 100.619 23.6546ZM98.4 23.6546C98.4 23.3482 98.6467 23.0996 98.952 23.0996C99.2567 23.0996 99.504 23.3482 99.504 23.6546C99.504 23.9609 99.2567 24.2095 98.952 24.2095C98.6467 24.2095 98.4 23.9609 98.4 23.6546ZM96.1804 23.6546C96.1804 23.3482 96.4271 23.0996 96.7324 23.0996C97.0371 23.0996 97.2844 23.3482 97.2844 23.6546C97.2844 23.9609 97.0371 24.2095 96.7324 24.2095C96.4271 24.2095 96.1804 23.9609 96.1804 23.6546ZM93.9608 23.6546C93.9608 23.3482 94.2081 23.0996 94.5128 23.0996C94.818 23.0996 95.0648 23.3482 95.0648 23.6546C95.0648 23.9609 94.818 24.2095 94.5128 24.2095C94.2081 24.2095 93.9608 23.9609 93.9608 23.6546ZM91.7418 23.6546C91.7418 23.3482 91.9885 23.0996 92.2938 23.0996C92.5985 23.0996 92.8458 23.3482 92.8458 23.6546C92.8458 23.9609 92.5985 24.2095 92.2938 24.2095C91.9885 24.2095 91.7418 23.9609 91.7418 23.6546ZM89.5222 23.6546C89.5222 23.3482 89.7695 23.0996 90.0742 23.0996C90.3789 23.0996 90.6267 23.3482 90.6267 23.6546C90.6267 23.9609 90.3789 24.2095 90.0742 24.2095C89.7695 24.2095 89.5222 23.9609 89.5222 23.6546ZM87.3031 23.6546C87.3031 23.3482 87.5499 23.0996 87.8551 23.0996C88.1598 23.0996 88.4066 23.3482 88.4066 23.6546C88.4066 23.9609 88.1598 24.2095 87.8551 24.2095C87.5499 24.2095 87.3031 23.9609 87.3031 23.6546ZM85.0835 23.6546C85.0835 23.3482 85.3308 23.0996 85.6355 23.0996C85.9408 23.0996 86.1875 23.3482 86.1875 23.6546C86.1875 23.9609 85.9408 24.2095 85.6355 24.2095C85.3308 24.2095 85.0835 23.9609 85.0835 23.6546ZM82.8645 23.6546C82.8645 23.3482 83.1112 23.0996 83.4165 23.0996C83.7212 23.0996 83.9685 23.3482 83.9685 23.6546C83.9685 23.9609 83.7212 24.2095 83.4165 24.2095C83.1112 24.2095 82.8645 23.9609 82.8645 23.6546ZM80.6449 23.6546C80.6449 23.3482 80.8922 23.0996 81.1974 23.0996C81.5016 23.0996 81.7494 23.3482 81.7494 23.6546C81.7494 23.9609 81.5016 24.2095 81.1974 24.2095C80.8922 24.2095 80.6449 23.9609 80.6449 23.6546ZM78.4259 23.6546C78.4259 23.3482 78.6726 23.0996 78.9773 23.0996C79.2826 23.0996 79.5293 23.3482 79.5293 23.6546C79.5293 23.9609 79.2826 24.2095 78.9773 24.2095C78.6726 24.2095 78.4259 23.9609 78.4259 23.6546ZM76.2063 23.6546C76.2063 23.3482 76.4536 23.0996 76.7583 23.0996C77.063 23.0996 77.3103 23.3482 77.3103 23.6546C77.3103 23.9609 77.063 24.2095 76.7583 24.2095C76.4536 24.2095 76.2063 23.9609 76.2063 23.6546ZM73.9867 23.6546C73.9867 23.3482 74.234 23.0996 74.5392 23.0996C74.8439 23.0996 75.0912 23.3482 75.0912 23.6546C75.0912 23.9609 74.8439 24.2095 74.5392 24.2095C74.234 24.2095 73.9867 23.9609 73.9867 23.6546ZM71.7676 23.6546C71.7676 23.3482 72.0144 23.0996 72.3196 23.0996C72.6243 23.0996 72.8716 23.3482 72.8716 23.6546C72.8716 23.9609 72.6243 24.2095 72.3196 24.2095C72.0144 24.2095 71.7676 23.9609 71.7676 23.6546ZM69.5486 23.6546C69.5486 23.3482 69.7953 23.0996 70.1 23.0996C70.4053 23.0996 70.652 23.3482 70.652 23.6546C70.652 23.9609 70.4053 24.2095 70.1 24.2095C69.7953 24.2095 69.5486 23.9609 69.5486 23.6546ZM67.329 23.6546C67.329 23.3482 67.5763 23.0996 67.881 23.0996C68.1857 23.0996 68.433 23.3482 68.433 23.6546C68.433 23.9609 68.1857 24.2095 67.881 24.2095C67.5763 24.2095 67.329 23.9609 67.329 23.6546ZM65.11 23.6546C65.11 23.3482 65.3567 23.0996 65.662 23.0996C65.9667 23.0996 66.214 23.3482 66.214 23.6546C66.214 23.9609 65.9667 24.2095 65.662 24.2095C65.3567 24.2095 65.11 23.9609 65.11 23.6546ZM62.8904 23.6546C62.8904 23.3482 63.1377 23.0996 63.4424 23.0996C63.7471 23.0996 63.9944 23.3482 63.9944 23.6546C63.9944 23.9609 63.7471 24.2095 63.4424 24.2095C63.1377 24.2095 62.8904 23.9609 62.8904 23.6546ZM60.6708 23.6546C60.6708 23.3482 60.9181 23.0996 61.2228 23.0996C61.528 23.0996 61.7748 23.3482 61.7748 23.6546C61.7748 23.9609 61.528 24.2095 61.2228 24.2095C60.9181 24.2095 60.6708 23.9609 60.6708 23.6546ZM58.4517 23.6546C58.4517 23.3482 58.6985 23.0996 59.0037 23.0996C59.309 23.0996 59.5557 23.3482 59.5557 23.6546C59.5557 23.9609 59.309 24.2095 59.0037 24.2095C58.6985 24.2095 58.4517 23.9609 58.4517 23.6546ZM56.2321 23.6551C56.2321 23.3488 56.4783 23.0996 56.7836 23.0996C57.0889 23.0996 57.3361 23.3477 57.3367 23.654C57.3367 23.9604 57.0894 24.209 56.7852 24.2095C56.48 24.2095 56.2327 23.9615 56.2321 23.6551Z" fill="#407BFF"/>
<path d="M46.7974 76.4995C46.6516 76.4995 46.5092 76.4401 46.4065 76.3369C46.3039 76.2336 46.2454 76.0905 46.2454 75.9439C46.2454 75.798 46.3039 75.6548 46.4065 75.5516C46.6119 75.3457 46.9823 75.3452 47.1876 75.5516C47.2903 75.6548 47.3494 75.798 47.3494 75.9439C47.3494 76.0905 47.2903 76.2336 47.1876 76.3369C47.085 76.4401 46.9425 76.4995 46.7974 76.4995Z" fill="#407BFF"/>
<path d="M201.802 40.9819C201.657 40.9819 201.515 40.9225 201.412 40.8193C201.309 40.7161 201.25 40.5729 201.25 40.4264C201.25 40.2804 201.309 40.1372 201.412 40.034C201.617 39.8276 201.988 39.8281 202.192 40.034C202.295 40.1378 202.354 40.281 202.354 40.4264C202.354 40.5723 202.295 40.7155 202.192 40.8193C202.089 40.9225 201.947 40.9819 201.802 40.9819Z" fill="#407BFF"/>
<path d="M201.25 38.3098C201.25 38.0029 201.498 37.7543 201.802 37.7543C202.107 37.7543 202.354 38.0029 202.354 38.3098C202.354 38.6162 202.107 38.8648 201.802 38.8648C201.498 38.8648 201.25 38.6162 201.25 38.3098ZM201.25 36.1927C201.25 35.8858 201.498 35.6377 201.802 35.6377C202.107 35.6377 202.354 35.8858 202.354 36.1927C202.354 36.499 202.107 36.7476 201.802 36.7476C201.498 36.7476 201.25 36.499 201.25 36.1927Z" fill="#407BFF"/>
<path d="M201.802 34.6298C201.657 34.6298 201.514 34.571 201.412 34.4678C201.31 34.3646 201.25 34.2214 201.25 34.0754C201.25 33.9289 201.31 33.7857 201.412 33.6831C201.618 33.4761 201.987 33.4761 202.193 33.6831C202.295 33.7863 202.354 33.9289 202.354 34.0754C202.354 34.2208 202.295 34.364 202.193 34.4678C202.09 34.571 201.948 34.6298 201.802 34.6298Z" fill="#407BFF"/>
<path d="M195.778 86.6021L193.742 87.5139L194.879 90.7376L196.786 89.6571L195.778 86.6021Z" fill="#FFC3BD"/>
<path d="M196.941 97.0753L205.267 96.179C205.685 96.1341 205.95 95.7578 205.857 95.3432L202.827 81.7717C202.735 81.3571 202.317 81.0547 201.9 81.0996L193.575 81.9959C193.157 82.0409 192.891 82.4171 192.984 82.8317L196.014 96.4032C196.107 96.8178 196.524 97.1202 196.941 97.0753Z" fill="#263238"/>
<path d="M197.068 97.0611L205.394 96.1648C205.812 96.1199 206.077 95.7436 205.984 95.3291L202.954 81.7575C202.862 81.343 202.444 81.0405 202.027 81.0855L193.702 81.9817C193.284 82.0267 193.018 82.403 193.111 82.8175L196.141 96.3891C196.233 96.8036 196.651 97.1061 197.068 97.0611Z" fill="#407BFF"/>
<path opacity="0.9" d="M196.404 96.2531L205.675 95.2553C205.776 95.2442 205.84 95.1543 205.817 95.0539L202.921 82.0811C202.898 81.9807 202.798 81.908 202.697 81.9191L193.426 82.9175C193.325 82.9286 193.261 83.0185 193.284 83.1189L196.18 96.0916C196.202 96.1915 196.303 96.2642 196.404 96.2531Z" fill="white"/>
<path d="M200.196 90.6279C199.917 90.6295 199.638 90.5774 199.378 90.4775C199.119 90.3781 198.88 90.2316 198.677 90.0529C198.475 89.8742 198.309 89.6633 198.191 89.4397C198.108 89.2832 198.049 89.1206 198.012 88.9574L198.382 88.9175L197.388 87.7593L196.945 89.0718L197.331 89.0301C197.43 89.2727 197.563 89.5019 197.724 89.7061C197.931 89.968 198.184 90.19 198.461 90.3582C198.737 90.5263 199.038 90.6412 199.337 90.6967C199.637 90.7527 199.936 90.7494 200.211 90.6922C200.226 90.6889 200.236 90.6756 200.234 90.6595C200.231 90.6423 200.215 90.6279 200.196 90.6279Z" fill="#407BFF"/>
<path d="M201.679 88.7337C201.581 88.4912 201.447 88.262 201.286 88.0577C201.079 87.7958 200.826 87.5738 200.549 87.4057C200.273 87.2375 199.973 87.1226 199.673 87.0671C199.373 87.0111 199.074 87.0144 198.799 87.0716C198.784 87.0749 198.774 87.0882 198.776 87.1043C198.778 87.1226 198.795 87.1371 198.814 87.1371C199.093 87.1354 199.373 87.1876 199.632 87.2875C199.891 87.3868 200.13 87.5333 200.333 87.712C200.535 87.8907 200.701 88.1016 200.819 88.3252C200.902 88.4817 200.961 88.6443 200.998 88.8075L200.628 88.8474L201.622 90.0057L202.065 88.6926L201.679 88.7337Z" fill="#407BFF"/>
<g opacity="0.3">
<path d="M195.579 82.6843L194.768 89.7767V89.7823L196.181 96.0921C196.203 96.192 196.302 96.2642 196.402 96.2531L197.451 96.1421L199.029 82.3125L195.579 82.6843Z" fill="white"/>
<path d="M199.929 82.2181L198.35 96.0421L200.188 95.8423L201.988 81.9961L199.929 82.2181Z" fill="white"/>
</g>
<path opacity="0.2" d="M198.663 81.8048L197.221 81.9602C197.17 81.9658 197.137 82.0124 197.148 82.0635C197.16 82.1145 197.211 82.1517 197.263 82.1461L198.705 81.9908C198.756 81.9852 198.789 81.9386 198.777 81.8875C198.766 81.8365 198.714 81.7987 198.663 81.8048Z" fill="black"/>
<path d="M225.116 86.0493C226.333 88.0733 227.428 90.0939 228.482 92.1816C229.524 94.2699 230.497 96.4015 231.36 98.6314C231.563 99.2024 231.779 99.7546 231.963 100.346L232.105 100.783L232.176 101.002L232.228 101.174L232.289 101.412C232.362 101.764 232.426 102.211 232.313 102.795C232.214 103.376 231.822 104.043 231.377 104.405C230.935 104.781 230.528 104.933 230.202 105.034C229.874 105.128 229.612 105.159 229.363 105.182C228.885 105.215 228.495 105.187 228.131 105.146C227.409 105.063 226.788 104.907 226.182 104.739C223.79 104.043 221.696 103.078 219.609 101.937L220.509 99.6087C222.682 100.071 224.917 100.572 226.979 100.832C227.488 100.891 227.992 100.927 228.404 100.921C228.608 100.917 228.789 100.894 228.877 100.867C228.91 100.853 228.93 100.837 228.873 100.845C228.816 100.856 228.672 100.885 228.445 101.072C228.215 101.247 227.973 101.653 227.924 101.952C227.863 102.254 227.897 102.412 227.905 102.485C227.905 102.498 227.905 102.507 227.907 102.518L227.91 102.532L227.892 102.486L227.817 102.301L227.666 101.932C227.477 101.442 227.239 100.944 227.025 100.451C226.119 98.4638 225.095 96.4792 224.039 94.5064C222.986 92.5379 221.888 90.5462 220.802 88.6227L225.116 86.0493Z" fill="#FFC3BD"/>
<path d="M220.812 99.4634L218.53 98.5811L217.966 102.383C217.966 102.383 219.774 102.867 221.028 101.864L220.812 99.4634Z" fill="#FFC3BD"/>
<path d="M215.27 97.5586L215.423 100.97L217.966 102.383L218.53 98.5808L215.27 97.5586Z" fill="#FFC3BD"/>
<path d="M208.039 73.7938C208.105 74.0541 208.021 74.3 207.852 74.3427C207.683 74.386 207.492 74.2101 207.427 73.9498C207.361 73.6895 207.445 73.4437 207.614 73.4009C207.783 73.3582 207.973 73.5336 208.039 73.7938Z" fill="#263238"/>
<path d="M208.044 74.2935C208.044 74.2935 207.835 75.9439 207.37 76.8335C207.937 77.1459 208.665 76.7514 208.665 76.7514L208.044 74.2935Z" fill="#ED847E"/>
<path d="M208.621 72.1071C208.656 72.0904 208.684 72.061 208.699 72.0227C208.731 71.9417 208.691 71.8501 208.611 71.8185C207.804 71.4989 207.21 71.9129 207.184 71.9312C207.114 71.9817 207.097 72.0799 207.147 72.1509C207.198 72.2214 207.296 72.2375 207.365 72.1887C207.385 72.1748 207.852 71.8568 208.496 72.1121C208.538 72.1287 208.583 72.126 208.621 72.1071Z" fill="#263238"/>
<path d="M215.996 75.1973C216.673 77.6696 216.378 81.1509 218.39 82.7752C218.39 82.7752 218.212 85.2443 213.713 85.2443C208.767 85.2443 210.866 82.7758 210.866 82.7758C213.438 82.1276 212.975 80.1142 212.135 78.2229L215.996 75.1973Z" fill="#FFC3BD"/>
<path d="M218.569 83.3212C218.926 82.8456 219.319 82.3012 218.506 82.1308C217.611 81.9432 212.712 81.7518 211.023 82.1042C209.334 82.4566 209.813 83.4211 209.813 83.4211L218.569 83.3212Z" fill="#263238"/>
<path d="M232.916 195.617C232.584 195.689 232.252 195.708 232.092 195.572C232.026 195.515 231.958 195.404 232.016 195.205C232.047 195.101 232.115 195.023 232.218 194.973C232.665 194.759 233.691 195.18 233.735 195.198C233.764 195.209 233.783 195.237 233.783 195.268C233.784 195.299 233.767 195.328 233.739 195.341C233.582 195.418 233.249 195.545 232.916 195.617ZM232.377 195.086C232.343 195.093 232.313 195.103 232.285 195.116C232.223 195.146 232.184 195.19 232.166 195.25C232.124 195.392 232.176 195.437 232.193 195.451C232.371 195.603 233.032 195.463 233.497 195.276C233.182 195.164 232.671 195.021 232.377 195.086Z" fill="#407BFF"/>
<path d="M233.722 195.348C233.709 195.351 233.696 195.35 233.683 195.346C233.309 195.236 232.508 194.665 232.499 194.287C232.497 194.219 232.521 194.095 232.699 194.032C232.815 193.992 232.932 194.001 233.047 194.06C233.489 194.287 233.768 195.208 233.78 195.248C233.788 195.276 233.781 195.306 233.76 195.326C233.75 195.337 233.736 195.344 233.722 195.348ZM232.785 194.171C232.773 194.173 232.762 194.177 232.751 194.181C232.654 194.215 232.655 194.262 232.656 194.283C232.661 194.506 233.19 194.954 233.577 195.136C233.481 194.87 233.259 194.345 232.976 194.2C232.911 194.167 232.849 194.158 232.785 194.171Z" fill="#407BFF"/>
<path d="M209.089 197.247C208.664 197.247 208.254 197.188 208.116 196.996C208.068 196.929 208.03 196.814 208.123 196.651C208.175 196.56 208.258 196.498 208.371 196.467C208.922 196.317 210.079 196.979 210.127 197.008C210.155 197.024 210.171 197.056 210.165 197.089C210.16 197.121 210.135 197.147 210.103 197.153C209.892 197.196 209.485 197.247 209.089 197.247ZM208.564 196.601C208.509 196.601 208.458 196.607 208.412 196.62C208.34 196.64 208.289 196.676 208.259 196.73C208.203 196.828 208.223 196.877 208.244 196.904C208.398 197.119 209.234 197.124 209.849 197.037C209.543 196.878 208.951 196.601 208.564 196.601Z" fill="#407BFF"/>
<path d="M210.088 197.155C210.077 197.155 210.067 197.152 210.056 197.147C209.657 196.967 208.866 196.248 208.927 195.872C208.941 195.783 209.003 195.673 209.219 195.651C209.379 195.635 209.525 195.681 209.653 195.786C210.074 196.134 210.163 197.03 210.167 197.068C210.17 197.096 210.157 197.123 210.134 197.14C210.121 197.15 210.104 197.155 210.088 197.155ZM209.281 195.806C209.265 195.806 209.249 195.807 209.234 195.808C209.093 195.823 209.084 195.878 209.081 195.897C209.045 196.123 209.582 196.688 209.99 196.934C209.947 196.672 209.83 196.136 209.553 195.908C209.47 195.84 209.38 195.806 209.281 195.806Z" fill="#407BFF"/>
<path d="M213.727 197.076H210.418L210.089 189.372H213.398L213.727 197.076Z" fill="#FFC3BD"/>
<path d="M237.41 194.464L234.176 195.168L230.929 187.992L234.163 187.288L237.41 194.464Z" fill="#FFC3BD"/>
<path d="M233.865 194.842L237.499 194.052C237.631 194.023 237.765 194.09 237.822 194.214L239.083 196.965C239.214 197.25 239.04 197.584 238.734 197.646C237.461 197.9 236.829 197.96 235.231 198.308C234.247 198.521 232.028 199.065 230.671 199.36C229.343 199.649 228.846 198.345 229.375 198.102C231.749 197.011 232.74 196.051 233.383 195.156C233.499 194.995 233.672 194.885 233.865 194.842Z" fill="#263238"/>
<path d="M210.44 196.69H214.054C214.189 196.69 214.306 196.785 214.336 196.917L214.989 199.874C215.057 200.181 214.825 200.471 214.513 200.466C213.209 200.444 211.326 200.367 209.688 200.367C207.772 200.367 206.117 200.472 203.871 200.472C202.512 200.472 202.135 199.091 202.704 198.966C205.293 198.397 207.406 198.336 209.643 196.95C209.886 196.799 210.154 196.69 210.44 196.69Z" fill="#263238"/>
<path d="M209.416 87.3385C208.752 88.9301 208.03 90.3825 207.266 91.8736C206.492 93.3482 205.668 94.8038 204.747 96.2273C203.827 97.653 202.83 99.0531 201.615 100.393C201 101.061 200.34 101.724 199.526 102.334C198.711 102.929 197.74 103.547 196.352 103.794L195.638 103.921L195.023 103.625C194.545 103.396 194.118 103.058 193.799 102.696C193.477 102.334 193.254 101.954 193.094 101.599C192.778 100.885 192.668 100.257 192.601 99.6769C192.48 98.5198 192.589 97.5154 192.728 96.5431C192.883 95.5752 193.101 94.6518 193.367 93.7511C193.648 92.8476 193.935 91.9868 194.322 91.0989L196.718 91.761C196.652 92.5923 196.567 93.4725 196.535 94.3188C196.491 95.1684 196.466 96.0097 196.492 96.8155C196.508 97.6152 196.593 98.4016 196.747 99.0043C196.822 99.2995 196.931 99.5459 197.01 99.6292C197.101 99.7258 197.062 99.5792 196.893 99.4794L195.564 99.3106C195.761 99.2568 196.209 99.0215 196.653 98.6319C197.102 98.2462 197.572 97.7562 198.019 97.2173C198.914 96.128 199.751 94.8693 200.54 93.5696C201.324 92.2621 202.071 90.9047 202.783 89.5223C203.499 88.1543 204.182 86.7058 204.808 85.3462L209.416 87.3385Z" fill="#FFC3BD"/>
<path d="M223.815 83.527C226.916 84.2418 232.124 99.7235 232.124 99.7235L227.056 101.417C227.056 101.417 221.885 93.7161 220.13 90.0028C218.292 86.112 220.644 82.7961 223.815 83.527Z" fill="#407BFF"/>
<path opacity="0.3" d="M223.815 83.527C226.916 84.2418 232.124 99.7235 232.124 99.7235L227.056 101.417C227.056 101.417 221.885 93.7161 220.13 90.0028C218.292 86.112 220.644 82.7961 223.815 83.527Z" fill="white"/>
<path opacity="0.3" d="M222.427 88.8553C221.603 87.863 221.056 89.1927 221.216 92.0735C221.719 92.9664 222.291 93.9359 222.88 94.8999C223.522 92.033 223.32 90.135 222.427 88.8553Z" fill="black"/>
<path d="M226.696 100.449C227.671 100.072 229.852 99.293 231.813 99.0455C232.103 99.0089 232.386 99.177 232.492 99.4506C232.819 100.295 233.094 101.784 232.819 102.288C232.482 102.905 227.873 103.798 227.244 103.434C226.81 103.182 226.466 101.953 226.295 101.218C226.22 100.896 226.389 100.568 226.696 100.449Z" fill="#263238"/>
<path d="M205.277 83.6983C205.277 83.6983 201.755 87.6979 205.081 112.453C210.414 112.453 220.185 112.453 222.779 112.453C222.901 109.722 221.194 96.3969 223.814 83.5268C223.814 83.5268 220.781 82.9147 217.89 82.7749C215.628 82.6655 212.354 82.5928 210.366 82.7754C207.745 83.0152 205.277 83.6983 205.277 83.6983Z" fill="#407BFF"/>
<path opacity="0.3" d="M205.277 83.6983C205.277 83.6983 201.755 87.6979 205.081 112.453C210.414 112.453 220.185 112.453 222.779 112.453C222.901 109.722 221.194 96.3969 223.814 83.5268C223.814 83.5268 220.781 82.9147 217.89 82.7749C215.628 82.6655 212.354 82.5928 210.366 82.7754C207.745 83.0152 205.277 83.6983 205.277 83.6983Z" fill="white"/>
<path opacity="0.3" d="M207.415 92.2396C207.117 90.2417 205.24 90.6857 203.728 91.4072C203.606 93.8157 203.617 96.9457 203.888 100.98C205.152 100.392 207.84 95.1087 207.415 92.2396Z" fill="black"/>
<path d="M209.342 86.1063C211.388 90.2047 201.78 101.553 201.78 101.553L198.352 95.8952C198.352 95.8952 201.455 90.9084 202.724 86.9959C204.291 82.1633 207.784 82.9863 209.342 86.1063Z" fill="#407BFF"/>
<path opacity="0.3" d="M209.342 86.1063C211.388 90.2047 201.78 101.553 201.78 101.553L198.352 95.8952C198.352 95.8952 201.455 90.9084 202.724 86.9959C204.291 82.1633 207.784 82.9863 209.342 86.1063Z" fill="white"/>
<path d="M198.734 95.376C199.587 96.3583 202.044 99.2363 202.771 100.636C202.841 100.772 202.828 100.936 202.739 101.059C202.237 101.753 200.829 102.913 200.143 102.906C199.38 102.898 195.911 98.9416 195.958 98.2057C195.995 97.6353 197.465 96.047 198.124 95.361C198.294 95.1845 198.573 95.1912 198.734 95.376Z" fill="#263238"/>
<path d="M196.517 92.5605L196.69 91.9595C196.953 91.0443 196.663 90.0587 195.947 89.4349L193.742 87.5137C193.742 87.5137 192.711 91.7686 194.635 93.2275L196.517 92.5605Z" fill="#FFC3BD"/>
<path d="M194.913 89.2947L195.428 88.8863L195.375 87.7148L195.734 86.9595L196.15 87.9073L196.685 89.136C196.781 89.3575 196.828 89.5972 196.821 89.8386L196.785 91.2044L194.913 89.2947Z" fill="#FFC3BD"/>
<path opacity="0.2" d="M210.089 189.374L210.259 193.345H213.569L213.4 189.374H210.089Z" fill="black"/>
<path opacity="0.2" d="M234.165 187.29L230.929 187.994L232.605 191.693L235.84 190.989L234.165 187.29Z" fill="black"/>
<path d="M216.528 71.0387C217.14 74.2824 217.661 76.1498 216.471 78.1993C214.681 81.2816 210.389 80.8204 208.826 77.8258C207.419 75.1304 206.655 70.2784 209.443 68.2128C212.191 66.1778 215.916 67.7949 216.528 71.0387Z" fill="#FFC3BD"/>
<path d="M210.222 73.6251C209.203 72.6012 207.162 72.261 206.841 69.9718C206.519 67.6826 207.921 66.2719 210.222 65.6015C212.522 64.9311 217.26 64.4682 217.029 66.8268C218.731 66.8268 219.399 68.5611 218.524 70.5495C217.65 72.5379 216.699 75.7522 217.186 77.5098C216.225 78.9433 212.475 78.8722 211.923 76.9537C211.371 75.0352 210.819 74.2261 210.222 73.6251Z" fill="#263238"/>
<path d="M207.733 65.0591C207.733 65.0591 205.767 65.755 205.422 68.4604C205.077 71.1659 207.139 71.5432 208.243 71.0116L208.404 67.7051C206.978 67.8206 207.733 65.0591 207.733 65.0591Z" fill="#263238"/>
<path d="M210.637 64.805C210.637 64.805 208.557 64.6762 207.19 67.0331C205.824 69.39 207.578 70.5455 208.801 70.4878L210.23 67.5054C208.872 67.0531 210.637 64.805 210.637 64.805Z" fill="#263238"/>
<path d="M216.573 67.1173C216.573 67.1173 217.988 65.5046 219.081 66.4042C218.551 66.4353 217.183 66.7144 216.573 67.1173Z" fill="#263238"/>
<path d="M211.559 73.6163C211.726 74.4648 211.545 75.3517 211.214 75.9877C210.716 76.9438 209.863 76.6536 209.495 75.7446C209.163 74.926 209.023 73.4426 209.766 72.7922C210.498 72.1512 211.368 72.6462 211.559 73.6163Z" fill="#FFC3BD"/>
<path d="M211.359 112.453C211.359 112.453 215.114 137.877 217.176 147.402C219.434 157.832 230.935 191.27 230.935 191.27L236.859 189.98C236.859 189.98 228.391 158.675 227.103 148.347C225.705 137.139 222.779 112.453 222.779 112.453H211.359Z" fill="#263238"/>
<path d="M229.517 189.282C229.492 189.287 230.621 191.435 230.621 191.435L237.285 189.985L236.723 187.971L229.517 189.282Z" fill="#407BFF"/>
<path opacity="0.3" d="M213.733 121.512C218.075 122.368 217.615 138.648 217.093 147.021C215.841 141.102 214.007 129.713 212.755 121.63C213.043 121.485 213.368 121.439 213.733 121.512Z" fill="black"/>
<path d="M205.081 112.453C205.081 112.453 204.625 137.326 204.985 147.472C205.359 158.024 209.025 192.576 209.025 192.576H214.631C214.631 192.576 214.837 158.641 215.086 148.277C215.358 136.98 216.715 112.453 216.715 112.453H205.081Z" fill="#263238"/>
<path opacity="0.2" d="M210.193 188.528C210.195 188.528 210.197 188.528 210.199 188.528C210.23 188.524 210.252 188.497 210.249 188.465C209.261 178.907 206.932 155.778 206.637 147.47C206.336 138.98 206.609 119.987 206.7 114.368C206.701 114.337 206.676 114.311 206.645 114.31H206.644C206.613 114.31 206.588 114.335 206.588 114.366C206.496 119.985 206.223 138.981 206.524 147.474C206.819 155.785 209.149 178.917 210.136 188.477C210.14 188.506 210.165 188.528 210.193 188.528Z" fill="white"/>
<path d="M207.947 190.331C207.921 190.331 208.263 192.671 208.263 192.671H215.082L215.266 190.582L207.947 190.331Z" fill="#407BFF"/>
</g>
<defs>
<clipPath id="clip0_1_27165">
<rect width="276" height="207" fill="white"/>
</clipPath>
</defs>
</svg>
