<svg width="25" height="36" viewBox="0 0 25 36" fill="none" xmlns="http://www.w3.org/2000/svg">
<path d="M25 12.6C25 10.9453 24.6767 9.30689 24.0485 7.77819C23.4203 6.24949 22.4996 4.86047 21.3388 3.69045C20.1781 2.52044 18.8001 1.59233 17.2835 0.959118C15.767 0.325909 14.1415 0 12.5 0C10.8585 0 9.23303 0.325909 7.71646 0.959118C6.19989 1.59233 4.8219 2.52044 3.66116 3.69045C2.50043 4.86047 1.57969 6.24949 0.951506 7.77819C0.323322 9.30689 -2.44606e-08 10.9453 0 12.6C0 15.0966 0.730357 17.4186 1.97321 19.377H1.95893L12.5 36L23.0411 19.377H23.0286C24.3159 17.3549 25.0002 15.0027 25 12.6ZM12.5 18C11.0792 18 9.71659 17.4311 8.71193 16.4184C7.70727 15.4057 7.14286 14.0322 7.14286 12.6C7.14286 11.1678 7.70727 9.79432 8.71193 8.78162C9.71659 7.76893 11.0792 7.2 12.5 7.2C13.9208 7.2 15.2834 7.76893 16.2881 8.78162C17.2927 9.79432 17.8571 11.1678 17.8571 12.6C17.8571 14.0322 17.2927 15.4057 16.2881 16.4184C15.2834 17.4311 13.9208 18 12.5 18Z" fill="#FF4A4A"/>
</svg>
