<svg width="446" height="250" viewBox="0 0 446 250" fill="none" xmlns="http://www.w3.org/2000/svg">
<path d="M19.4154 248.893C19.4154 248.893 -11.7188 224.579 9.99081 166.456C22.7895 132.193 65.9642 137.454 63.7798 75.9114C61.5956 14.3692 101.391 -12.4588 172.73 15.4737C190.803 22.5511 212.045 15.9023 234.766 9.25362C276.764 -3.03481 323.814 -15.3248 365.228 59.0815C389.843 103.303 432.917 97.5738 444.384 178.444C447.519 200.549 442.818 223.692 419.591 248.893H19.4154Z" fill="#222222"/>
<path d="M226.368 76.1185C226.925 76.5565 227.466 77.0634 227.976 77.6454C228.946 78.7561 229.84 80.8805 229.938 82.3542C229.949 82.5122 229.955 82.6687 229.963 82.8235C230.262 92.3242 219.206 96.814 212.786 89.624C211.949 88.6822 211.182 87.0474 210.873 85.6348C210.805 85.3062 210.755 84.9902 210.741 84.7055C210.66 83.3648 210.799 82.1196 211.125 80.9854C212.983 74.5181 220.763 71.7694 226.368 76.1185ZM207.437 102.224L211.162 99.4641C211.475 99.2373 211.888 99.2044 212.231 99.3781C212.67 99.6034 213.121 99.8099 213.584 100.001C214.444 100.356 215.311 100.641 216.184 100.847C216.592 100.944 216.899 101.274 216.96 101.687L217.695 106.476C217.769 106.987 218.229 107.357 218.753 107.321L223.172 107.03C223.673 106.995 224.064 106.593 224.089 106.094L224.277 101.637C224.286 101.204 224.588 100.83 225.02 100.713C226.837 100.213 228.574 99.425 230.16 98.3769C230.544 98.1234 231.061 98.1672 231.399 98.4754L233.403 100.307C233.787 100.652 234.372 100.662 234.764 100.321L238.056 97.4038C238.123 97.3444 238.183 97.2818 238.229 97.2083C238.463 96.8672 238.458 96.3995 238.2 96.0584L236.141 93.2738L235.637 92.5964C236.055 91.8861 236.432 91.1337 236.753 90.353C237.186 89.3002 237.515 88.2254 237.735 87.1569C237.821 86.7502 238.143 86.4342 238.556 86.3732L242.414 85.785C242.941 85.702 243.32 85.2343 243.281 84.7039L243.059 81.3248L242.992 80.3565C242.959 79.8277 242.53 79.4053 242.003 79.385L238.278 79.2238C237.846 79.2113 237.471 78.925 237.355 78.5167C236.987 77.298 236.493 76.1201 235.877 75.014C235.831 74.9123 235.78 74.8247 235.725 74.7324C235.705 74.7011 235.69 74.6683 235.676 74.6354C235.506 74.2647 235.581 73.8313 235.859 73.5294L238.825 70.2707C238.861 70.2363 238.89 70.1941 238.916 70.155C239.171 69.7779 239.142 69.2633 238.838 68.9128L235.934 65.6276C235.584 65.2318 234.991 65.1676 234.561 65.4837L230.677 68.3637C230.351 68.6125 229.907 68.6265 229.558 68.4122C228.787 67.946 227.967 67.533 227.102 67.1763C226.643 66.987 226.182 66.8197 225.717 66.6726C225.342 66.549 225.063 66.2283 225.006 65.8372L224.297 61.2347C224.222 60.7279 223.767 60.3586 223.249 60.3931L218.878 60.6872C218.349 60.7216 217.928 61.144 217.905 61.6821L217.755 65.2083C217.734 65.6808 217.398 66.0734 216.936 66.1689C215.123 66.5208 213.379 67.1591 211.76 68.0461C211.381 68.262 210.901 68.2073 210.575 67.9085L207.639 65.2333C207.246 64.8735 206.644 64.872 206.244 65.2224L202.969 68.1134C202.575 68.4591 202.516 69.0536 202.827 69.4651L202.946 69.6293L205.339 72.863C205.596 73.2103 205.608 73.6686 205.377 74.0331L205.375 74.0378C204.82 74.9092 204.332 75.84 203.924 76.8319C203.706 77.3606 203.52 77.891 203.353 78.4291C203.243 78.8046 202.927 79.0799 202.541 79.1394L198.625 79.737C198.088 79.8167 197.704 80.2986 197.741 80.8336L198.032 85.1874C198.04 85.3125 198.074 85.4298 198.118 85.5347C198.273 85.8773 198.616 86.1229 199.007 86.1416L201.982 86.2621C202.347 86.2809 202.675 86.4936 202.841 86.8081C202.883 86.891 202.916 86.9802 202.938 87.0772C203.403 89.4019 204.327 91.6045 205.657 93.5694C205.888 93.8995 205.884 94.336 205.674 94.6708C205.644 94.7177 205.608 94.7631 205.569 94.8069L203.165 97.4445C202.816 97.8262 202.811 98.4097 203.152 98.8008L203.22 98.8775L206.046 102.083C206.406 102.483 207.005 102.543 207.437 102.224Z" fill="#656565"/>
<path d="M254.721 38.1587C255.108 38.5592 255.471 39.0129 255.804 39.5213C256.434 40.4913 256.893 42.2403 256.807 43.3964C256.799 43.5199 256.786 43.642 256.775 43.764C255.959 51.1777 246.874 53.4445 242.68 47.1509C242.134 46.3265 241.719 44.9733 241.635 43.8407C241.618 43.5778 241.615 43.3275 241.635 43.1038C241.719 42.0525 241.965 41.1014 242.344 40.2566C244.501 35.4382 250.848 34.1617 254.721 38.1587ZM237.134 56.3496L240.333 54.6163C240.601 54.4739 240.925 54.4943 241.173 54.6679C241.488 54.89 241.816 55.1013 242.154 55.2999C242.783 55.6707 243.426 55.9883 244.08 56.2448C244.388 56.3653 244.59 56.6547 244.59 56.9832L244.634 60.7847C244.634 61.1899 244.951 61.5278 245.361 61.5576L248.828 61.8188C249.221 61.8485 249.568 61.5779 249.643 61.1931L250.281 57.7514C250.336 57.415 250.611 57.1584 250.96 57.1146C252.428 56.9285 253.864 56.5076 255.212 55.8678C255.538 55.7145 255.935 55.8052 256.164 56.0821L257.517 57.7263C257.778 58.0361 258.232 58.1096 258.574 57.8875L261.453 55.9836C261.512 55.946 261.565 55.9038 261.609 55.8506C261.828 55.6112 261.877 55.2483 261.714 54.9542L260.422 52.5638L260.104 51.9818C260.508 51.4765 260.883 50.9337 261.22 50.3627C261.672 49.593 262.044 48.7936 262.335 47.9879C262.446 47.6813 262.731 47.4716 263.058 47.4701L266.121 47.4388C266.539 47.4325 266.886 47.1103 266.914 46.6941L267.114 44.044L267.169 43.2853C267.202 42.8707 266.916 42.4953 266.507 42.4217L263.632 41.8851C263.297 41.8273 263.038 41.5644 262.994 41.2328C262.842 40.2456 262.587 39.2773 262.232 38.3496C262.207 38.2651 262.176 38.1916 262.144 38.1134C262.132 38.0883 262.124 38.0602 262.118 38.0336C262.027 37.7269 262.132 37.3969 262.381 37.1935L265.046 34.9892C265.078 34.9673 265.104 34.9376 265.129 34.9094C265.369 34.6451 265.403 34.2415 265.204 33.9364L263.311 31.0641C263.083 30.7168 262.631 30.6026 262.262 30.7998L258.926 32.6098C258.645 32.7662 258.299 32.7287 258.05 32.5237C257.503 32.0763 256.913 31.6649 256.279 31.2925C255.945 31.0954 255.603 30.914 255.259 30.7481C254.981 30.6105 254.801 30.3304 254.799 30.0207L254.757 26.3662C254.754 25.9642 254.44 25.6278 254.034 25.5965L250.607 25.3431C250.192 25.3118 249.818 25.5934 249.74 26.008L249.235 28.7316C249.166 29.0961 248.862 29.3636 248.493 29.3871C247.046 29.4606 245.619 29.7641 244.265 30.2741C243.947 30.4008 243.579 30.3038 243.359 30.0363L241.374 27.635C241.108 27.3111 240.642 27.2439 240.291 27.4707L237.428 29.3558C237.082 29.5811 236.971 30.0363 237.169 30.3914L237.242 30.5322L238.745 33.3075C238.907 33.6063 238.866 33.9645 238.645 34.2211L238.644 34.2242C238.115 34.8406 237.635 35.5102 237.208 36.2345C236.979 36.6225 236.777 37.0136 236.588 37.4125C236.46 37.6925 236.185 37.8709 235.878 37.8756L232.769 37.9069C232.344 37.91 231.992 38.2416 231.962 38.6609L231.707 42.076C231.701 42.173 231.713 42.2684 231.737 42.356C231.818 42.6392 232.058 42.8676 232.36 42.9255L234.658 43.3463C234.939 43.4011 235.171 43.6029 235.265 43.8657C235.288 43.9345 235.305 44.008 235.31 44.0847C235.415 45.9432 235.89 47.7564 236.707 49.4287C236.849 49.7103 236.798 50.0498 236.599 50.286C236.569 50.3204 236.536 50.3517 236.502 50.3814L234.343 52.1649C234.03 52.423 233.961 52.8751 234.184 53.2177L234.227 53.285L236.069 56.0853C236.305 56.4373 236.763 56.5499 237.134 56.3496Z" fill="#656565"/>
<path d="M402.187 176.069C402.663 176.565 403.112 177.125 403.521 177.754C404.301 178.951 404.867 181.11 404.76 182.537C404.751 182.69 404.735 182.84 404.721 182.992C403.714 192.145 392.497 194.944 387.319 187.172C386.643 186.155 386.132 184.484 386.027 183.086C386.006 182.762 386.002 182.452 386.027 182.177C386.132 180.878 386.435 179.705 386.903 178.66C389.567 172.711 397.403 171.134 402.187 176.069ZM380.472 198.53L384.42 196.389C384.75 196.214 385.151 196.239 385.457 196.454C385.847 196.729 386.25 196.99 386.668 197.236C387.446 197.693 388.239 198.085 389.048 198.401C389.426 198.55 389.676 198.908 389.678 199.312L389.73 204.007C389.731 204.507 390.122 204.925 390.629 204.962L394.909 205.285C395.394 205.321 395.823 204.987 395.915 204.512L396.704 200.263C396.771 199.847 397.112 199.531 397.542 199.476C399.354 199.246 401.128 198.725 402.791 197.937C403.193 197.746 403.684 197.858 403.966 198.201L405.638 200.23C405.959 200.613 406.519 200.704 406.943 200.43L410.497 198.081C410.571 198.032 410.636 197.979 410.691 197.915C410.962 197.619 411.02 197.172 410.819 196.809L409.224 193.857L408.833 193.139C409.33 192.514 409.793 191.843 410.208 191.138C410.768 190.188 411.228 189.203 411.586 188.208C411.724 187.827 412.076 187.568 412.479 187.568L416.26 187.529C416.778 187.521 417.205 187.124 417.24 186.609L417.487 183.338L417.556 182.401C417.595 181.889 417.243 181.424 416.739 181.334L413.188 180.672C412.775 180.6 412.454 180.275 412.4 179.866C412.212 178.648 411.899 177.451 411.458 176.306C411.428 176.202 411.39 176.112 411.351 176.015C411.336 175.982 411.326 175.949 411.319 175.916C411.206 175.536 411.336 175.131 411.644 174.879L414.934 172.157C414.973 172.129 415.006 172.093 415.037 172.058C415.331 171.731 415.375 171.234 415.129 170.857L412.792 167.31C412.511 166.882 411.951 166.741 411.495 166.985L407.378 169.219C407.03 169.413 406.603 169.366 406.297 169.112C405.621 168.56 404.89 168.052 404.11 167.592C403.695 167.348 403.276 167.124 402.85 166.919C402.506 166.75 402.284 166.404 402.281 166.021L402.229 161.509C402.226 161.014 401.838 160.597 401.338 160.56L397.104 160.247C396.593 160.206 396.133 160.555 396.036 161.068L395.41 164.43C395.327 164.881 394.952 165.211 394.496 165.239C392.708 165.331 390.947 165.705 389.274 166.336C388.882 166.491 388.428 166.372 388.157 166.042L385.706 163.075C385.376 162.677 384.8 162.594 384.368 162.874L380.833 165.201C380.407 165.48 380.27 166.042 380.512 166.48L380.604 166.653L382.46 170.081C382.659 170.448 382.608 170.891 382.336 171.209L382.333 171.213C381.682 171.972 381.088 172.8 380.561 173.695C380.279 174.172 380.029 174.657 379.796 175.15C379.638 175.495 379.298 175.716 378.92 175.721L375.081 175.76C374.556 175.763 374.122 176.173 374.084 176.69L373.77 180.907C373.762 181.027 373.777 181.144 373.806 181.252C373.907 181.601 374.201 181.883 374.575 181.955L377.413 182.476C377.76 182.544 378.047 182.792 378.162 183.115C378.192 183.202 378.211 183.292 378.219 183.388C378.347 185.681 378.935 187.92 379.943 189.986C380.12 190.334 380.055 190.751 379.808 191.044C379.774 191.086 379.733 191.125 379.689 191.161L377.024 193.364C376.637 193.681 376.553 194.24 376.826 194.664L376.881 194.747L379.156 198.206C379.447 198.639 380.013 198.778 380.472 198.53Z" fill="#656565"/>
<path d="M415.449 145.585C415.704 145.849 415.945 146.149 416.164 146.486C416.581 147.126 416.883 148.28 416.827 149.045C416.821 149.127 416.813 149.206 416.805 149.288C416.267 154.184 410.266 155.683 407.495 151.525C407.134 150.98 406.86 150.086 406.804 149.338C406.794 149.164 406.791 148.998 406.804 148.851C406.86 148.157 407.023 147.529 407.273 146.971C408.698 143.787 412.891 142.944 415.449 145.585ZM403.831 157.601L405.945 156.456C406.122 156.362 406.336 156.376 406.499 156.49C406.708 156.637 406.924 156.776 407.148 156.908C407.564 157.152 407.988 157.363 408.42 157.532C408.623 157.612 408.756 157.803 408.758 158.019L408.786 160.53C408.786 160.799 408.995 161.022 409.266 161.041L411.556 161.215C411.816 161.233 412.046 161.055 412.095 160.8L412.517 158.527C412.553 158.305 412.734 158.136 412.964 158.106C413.934 157.984 414.882 157.706 415.774 157.283C415.988 157.182 416.251 157.241 416.401 157.424L417.296 158.51C417.468 158.715 417.767 158.763 417.994 158.616L419.896 157.36C419.935 157.333 419.97 157.307 420 157.271C420.143 157.113 420.175 156.873 420.068 156.679L419.214 155.099L419.006 154.716C419.272 154.383 419.519 154.023 419.741 153.646C420.04 153.138 420.287 152.61 420.478 152.079C420.552 151.875 420.739 151.736 420.957 151.736L422.98 151.716C423.255 151.711 423.485 151.498 423.502 151.223L423.635 149.472L423.671 148.972C423.693 148.698 423.504 148.449 423.235 148.401L421.336 148.047C421.115 148.008 420.943 147.834 420.913 147.615C420.813 146.963 420.646 146.323 420.409 145.71C420.394 145.655 420.373 145.607 420.353 145.555C420.344 145.538 420.339 145.521 420.334 145.502C420.275 145.298 420.345 145.083 420.51 144.948L422.269 143.492C422.29 143.476 422.307 143.457 422.324 143.438C422.482 143.263 422.504 142.997 422.374 142.795L421.124 140.898C420.973 140.669 420.674 140.594 420.43 140.724L418.227 141.919C418.041 142.023 417.812 141.998 417.648 141.861C417.287 141.567 416.896 141.295 416.478 141.05C416.257 140.918 416.032 140.799 415.805 140.69C415.621 140.599 415.502 140.413 415.5 140.209L415.472 137.796C415.471 137.53 415.264 137.307 414.997 137.287L412.731 137.12C412.458 137.098 412.21 137.284 412.159 137.558L411.824 139.357C411.78 139.599 411.578 139.776 411.336 139.79C410.378 139.839 409.437 140.039 408.542 140.377C408.332 140.46 408.09 140.396 407.944 140.219L406.632 138.632C406.456 138.42 406.148 138.374 405.917 138.525L404.025 139.77C403.799 139.918 403.725 140.219 403.855 140.453L403.903 140.547L404.895 142.381C405.002 142.576 404.975 142.814 404.829 142.983L404.828 142.986C404.481 143.393 404.161 143.834 403.88 144.314C403.73 144.569 403.595 144.828 403.47 145.092C403.387 145.277 403.204 145.395 403.002 145.397L400.948 145.419C400.668 145.42 400.435 145.639 400.415 145.916L400.247 148.172C400.243 148.236 400.252 148.299 400.266 148.357C400.321 148.545 400.479 148.695 400.678 148.732L402.197 149.012C402.381 149.048 402.534 149.181 402.597 149.353C402.613 149.4 402.624 149.449 402.627 149.499C402.696 150.727 403.01 151.924 403.55 153.03C403.644 153.216 403.609 153.44 403.478 153.596C403.459 153.618 403.437 153.638 403.414 153.659L401.987 154.837C401.78 155.007 401.735 155.306 401.882 155.531L401.912 155.577L403.129 157.427C403.284 157.659 403.587 157.732 403.831 157.601Z" fill="#656565"/>
<path d="M64.9182 144.854C65.1973 145.145 65.4609 145.474 65.7012 145.841C66.1585 146.545 66.4908 147.811 66.4285 148.648C66.4224 148.737 66.4138 148.826 66.4052 148.914C65.8143 154.283 59.2349 155.926 56.197 151.367C55.8009 150.771 55.5005 149.79 55.4393 148.97C55.4278 148.779 55.4246 148.598 55.4397 148.437C55.5007 147.675 55.679 146.987 55.9528 146.373C57.5158 142.885 62.112 141.96 64.9182 144.854ZM52.1805 158.03L54.4968 156.773C54.6906 156.672 54.9254 156.686 55.105 156.811C55.3338 156.972 55.5706 157.125 55.8159 157.269C56.2719 157.538 56.7369 157.768 57.2112 157.955C57.4333 158.041 57.5801 158.252 57.5807 158.488L57.6118 161.241C57.6123 161.536 57.8418 161.78 58.1392 161.801L60.6494 161.991C60.934 162.013 61.1857 161.817 61.2395 161.539L61.7021 159.045C61.742 158.803 61.9416 158.616 62.1937 158.583C63.257 158.449 64.2972 158.144 65.2732 157.681C65.509 157.57 65.797 157.635 65.9623 157.836L66.9429 159.026C67.1313 159.251 67.4601 159.305 67.7081 159.144L69.7931 157.765C69.8361 157.737 69.8744 157.706 69.9067 157.668C70.0653 157.495 70.1 157.232 69.9819 157.019L69.0461 155.287L68.8171 154.866C69.1088 154.5 69.3804 154.108 69.6238 153.693C69.9519 153.136 70.2221 152.557 70.432 151.974C70.5129 151.752 70.7191 151.6 70.9562 151.598L73.1741 151.577C73.4773 151.572 73.7277 151.339 73.7482 151.037L73.8936 149.117L73.9336 148.568C73.9566 148.268 73.7498 147.996 73.4544 147.942L71.3714 147.554C71.1296 147.512 70.9415 147.321 70.9088 147.082C70.7992 146.367 70.6152 145.665 70.3571 144.992C70.3392 144.932 70.317 144.879 70.2939 144.821C70.2848 144.803 70.2798 144.784 70.2746 144.764C70.2086 144.541 70.2856 144.304 70.4656 144.157L72.3953 142.559C72.4183 142.544 72.4379 142.522 72.456 142.501C72.6289 142.311 72.6539 142.018 72.5106 141.797L71.1397 139.717C70.9739 139.465 70.6459 139.382 70.3783 139.524L67.963 140.835C67.7594 140.949 67.5087 140.921 67.3295 140.773C66.9327 140.45 66.5047 140.152 66.0463 139.881C65.8035 139.739 65.5573 139.607 65.3078 139.487C65.1058 139.388 64.9753 139.185 64.9739 138.96L64.9433 136.314C64.9411 136.023 64.7142 135.779 64.4208 135.757L61.9373 135.573C61.6374 135.549 61.3669 135.754 61.3103 136.054L60.9437 138.027C60.8947 138.292 60.6742 138.486 60.4074 138.501C59.3588 138.554 58.3258 138.775 57.3445 139.144C57.114 139.235 56.8481 139.166 56.6887 138.972L55.2508 137.232C55.0581 136.999 54.7199 136.949 54.4664 137.114L52.3927 138.479C52.1431 138.642 52.0627 138.972 52.2049 139.229L52.2586 139.33L53.3468 141.342C53.4635 141.556 53.4341 141.816 53.2745 142.002L53.273 142.005C52.8909 142.451 52.5421 142.936 52.2329 143.462C52.0682 143.742 51.9213 144.025 51.7843 144.315C51.692 144.518 51.4923 144.646 51.2705 144.649L49.019 144.673C48.7108 144.674 48.4561 144.915 48.4341 145.219L48.2498 147.692C48.245 147.762 48.2545 147.831 48.2708 147.894C48.3302 148.099 48.5032 148.265 48.7221 148.307L50.3866 148.612C50.5902 148.653 50.758 148.798 50.8262 148.987C50.8434 149.037 50.8552 149.091 50.8591 149.147C50.9348 150.492 51.2794 151.806 51.8706 153.017C51.9739 153.222 51.9366 153.466 51.7922 153.638C51.7711 153.663 51.7477 153.685 51.7217 153.707L50.1582 154.998C49.9315 155.186 49.8821 155.513 50.0429 155.761L50.0745 155.81L51.4088 157.839C51.5796 158.092 51.9116 158.175 52.1805 158.03Z" fill="#656565"/>
<path d="M294.043 78.5254C294.913 79.231 295.753 80.046 296.543 80.9784C298.044 82.7572 299.398 86.1347 299.515 88.4641C299.529 88.7144 299.537 88.96 299.543 89.2072C299.767 104.215 282.192 111.012 272.244 99.4901C270.946 97.982 269.779 95.3819 269.327 93.1433C269.23 92.6223 269.159 92.1217 269.144 91.6727C269.05 89.5529 269.305 87.5912 269.848 85.8077C272.953 75.6469 285.307 71.5106 294.043 78.5254ZM263.468 119.245L269.421 114.986C269.921 114.635 270.574 114.594 271.112 114.879C271.797 115.245 272.504 115.585 273.23 115.898C274.578 116.48 275.941 116.954 277.313 117.302C277.954 117.467 278.432 117.994 278.516 118.648L279.552 126.229C279.655 127.038 280.371 127.635 281.199 127.591L288.186 127.247C288.977 127.207 289.605 126.581 289.656 125.794L290.072 118.762C290.097 118.077 290.584 117.495 291.267 117.32C294.152 116.581 296.915 115.381 299.446 113.767C300.058 113.379 300.875 113.462 301.4 113.958L304.515 116.902C305.111 117.456 306.037 117.489 306.664 116.96L311.938 112.44C312.047 112.348 312.141 112.251 312.218 112.135C312.595 111.602 312.6 110.865 312.201 110.319L309.024 105.868L308.246 104.784C308.925 103.676 309.538 102.497 310.067 101.272C310.779 99.6215 311.323 97.935 311.702 96.2533C311.847 95.6119 312.364 95.1207 313.017 95.0377L319.125 94.2102C319.959 94.0913 320.569 93.3623 320.522 92.5253L320.259 87.1829L320.181 85.6529C320.14 84.8175 319.477 84.1401 318.643 84.0932L312.767 83.7412C312.085 83.7083 311.502 83.2468 311.328 82.5991C310.779 80.6655 310.029 78.7929 309.086 77.0299C309.016 76.8687 308.936 76.7295 308.853 76.5809C308.822 76.5324 308.801 76.4808 308.779 76.4276C308.521 75.8378 308.651 75.1541 309.097 74.6848L313.867 69.6177C313.925 69.5645 313.97 69.4972 314.014 69.4378C314.424 68.8496 314.393 68.0361 313.922 67.476L309.424 62.2118C308.88 61.5766 307.947 61.4609 307.259 61.9474L301.051 66.395C300.529 66.7783 299.828 66.7892 299.282 66.4404C298.077 65.6848 296.795 65.0105 295.437 64.4239C294.719 64.1141 293.994 63.8372 293.265 63.5916C292.674 63.3898 292.244 62.8735 292.162 62.2556L291.164 54.9686C291.059 54.1661 290.349 53.5731 289.531 53.6123L282.621 53.9627C281.786 54.0034 281.111 54.6604 281.058 55.5068L280.728 61.0714C280.684 61.8176 280.143 62.4277 279.414 62.5654C276.54 63.0754 273.768 64.0359 271.19 65.3954C270.586 65.7255 269.829 65.6253 269.322 65.1466L264.759 60.8445C264.145 60.2673 263.197 60.25 262.554 60.7898L257.307 65.2687C256.675 65.8052 256.567 66.7423 257.049 67.4025L257.232 67.6638L260.926 72.8326C261.322 73.3864 261.331 74.1122 260.956 74.6801L260.951 74.6879C260.051 76.049 259.257 77.507 258.587 79.062C258.229 79.8896 257.922 80.7234 257.644 81.5698C257.459 82.1596 256.954 82.5851 256.342 82.6695L250.142 83.5096C249.294 83.6207 248.675 84.3716 248.719 85.218L249.063 92.0998C249.075 92.2953 249.124 92.4831 249.191 92.6505C249.426 93.1964 249.959 93.5922 250.577 93.6313L255.274 93.9004C255.848 93.9395 256.361 94.2821 256.614 94.7827C256.678 94.9157 256.73 95.0597 256.76 95.2114C257.432 98.894 258.836 102.397 260.885 105.535C261.24 106.062 261.221 106.749 260.882 107.273C260.834 107.348 260.776 107.418 260.711 107.487L256.846 111.586C256.286 112.181 256.262 113.1 256.791 113.729L256.896 113.853L261.275 118.987C261.833 119.629 262.777 119.74 263.468 119.245Z" fill="#656565"/>
<path d="M78.7071 106.612C80.5703 97.1603 96.4256 98.9641 96.4256 98.9641C96.4256 98.9641 108.19 114.453 111.309 114.622C114.428 114.793 103.836 99.4162 103.836 99.4162C109.786 98.4181 125.566 104.693 125.566 104.693C125.566 104.693 125.925 123.697 128.99 123.095C132.055 122.493 127.814 106.282 127.814 106.282C133.733 107.617 139.617 114.001 139.617 114.001C147.151 124.542 133.225 133.674 133.225 133.674C133.225 133.674 133.492 140.257 138.078 147.509C138.078 147.509 139.091 148.837 140.188 151.137L138.606 151.247C138.448 150.832 138.278 150.433 138.092 150.05L138.089 150.044L138.081 150.028C137.956 149.79 137.776 149.454 137.552 149.044L137.55 149.042L137.549 149.041C137.001 148.129 136.626 147.453 136.383 146.965L136.382 146.96C134.728 144.094 132.372 140.374 130.925 139.659C130.925 139.659 131.083 139.401 131.213 138.911C131.122 139.149 131.027 139.399 130.925 139.659C128.626 145.646 115.167 147.559 107.522 146.541C99.8777 145.522 103.014 143.166 106.831 139.432C110.647 135.698 119.214 136.012 121.631 134.484C124.049 132.956 120.282 131.86 115.285 132.599C110.288 133.336 108.127 138.536 100.065 139.878C92.0033 141.219 84.7513 126.385 84.7513 126.385C90.4771 127.732 100.309 123.937 100.56 121.977C100.726 120.686 94.3243 120.781 89.265 120.878C86.6482 120.927 84.3904 120.977 83.5862 120.835C81.2267 120.417 76.8442 116.063 78.7071 106.612Z" fill="#DFEBFD"/>
<path d="M206.413 142.567L198.026 242.281C198.026 242.281 197.148 248.326 201.644 248.337C209.036 248.354 238.439 248.337 238.439 248.337C238.439 248.337 232.874 247.079 232.942 244.247C233.022 240.91 242.744 141.624 242.744 141.624L206.413 142.567Z" fill="#759BE0"/>
<path d="M240.825 246.527C239.37 246.532 211.287 246.619 204.088 246.527C200.951 246.488 200.401 243.738 200.376 241.957C200.361 241.105 200.469 240.473 200.469 240.473L200.688 237.882L201.244 231.276L201.735 225.44L202.365 217.941L202.897 211.611L208.856 140.757L245.188 139.814C245.188 139.814 241.092 181.365 238.197 211.611C237.873 214.981 237.565 218.213 237.281 221.229C237.189 222.191 237.1 223.133 237.014 224.05C236.745 226.911 236.499 229.539 236.286 231.859C236.174 233.082 236.069 234.218 235.975 235.26C235.606 239.339 235.39 241.943 235.387 242.439C235.385 242.727 235.41 242.996 235.457 243.246C236.053 246.424 240.279 246.527 240.825 246.527Z" fill="#AEC3FF"/>
<path d="M118.18 88.3062L138.608 170.359L141.404 181.596L150.918 219.815H327.674L292.607 88.3062H118.18Z" fill="#AEC3FF"/>
<path d="M118.18 88.3062L115.349 89.2511L147.154 222.668L150.918 219.815L118.18 88.3062Z" fill="#759BE0"/>
<path d="M147.154 222.668H322.823L327.674 219.815H150.918L147.154 222.668Z" fill="#759BE0"/>
<path d="M208.844 248.374H246.879V246.567H208.844V248.374Z" fill="#AEC3FF"/>
<path d="M237.014 224.05C237.056 223.596 237.1 223.134 237.144 222.668H237.209L237.014 224.05Z" fill="#99B6E8"/>
<path d="M201.244 231.276L201.735 225.441L201.968 222.669H237.144C237.1 223.135 237.056 223.596 237.014 224.05L201.244 231.276Z" fill="#86A7E9"/>
<path d="M240.825 246.527C239.37 246.532 211.287 246.619 204.088 246.527C200.951 246.488 200.4 243.738 200.375 241.957L235.975 235.26C235.606 239.339 235.39 241.943 235.387 242.439C235.385 242.727 235.41 242.996 235.457 243.246C236.053 246.424 240.279 246.527 240.825 246.527Z" fill="#94B0ED"/>
<path d="M228.564 193.192L150.918 219.815L141.404 181.596L228.564 193.192Z" fill="#94B0ED"/>
<path d="M118.18 88.3062H292.607L320.694 193.998H144.501L118.18 88.3062Z" fill="#D2E0FF"/>
<path d="M312.246 188.339H150.266L125.209 92.0603L286.913 93.1695L312.246 188.339Z" fill="#C0D1FF"/>
<path d="M245.113 149.678V188.336H183.844V149.678H245.113Z" fill="#3D3D3D"/>
<path d="M275.747 149.679V188.336H214.479V149.679H275.747Z" fill="#7ADEFF"/>
<path d="M214.479 155.389L201.564 168.303H183.88V149.678H214.479V155.389Z" fill="#0B0B0B"/>
<path d="M183.844 149.677L170.07 162.97H200.723L214.479 149.677H183.844Z" fill="#7ADEFF"/>
<path d="M275.747 151.048L214.479 149.679V155.376L225.871 167.867H275.747V155.433L275.431 155.062H275.747V151.048Z" fill="#3D3D3D"/>
<path d="M214.479 149.677L226.601 162.97H287.059L275.747 149.677H214.479Z" fill="#7ADEFF"/>
<path d="M107.717 144.786C107.717 144.786 108.143 140.144 102.956 140.144C102.956 140.144 104.527 140.569 105.34 141.422C105.34 141.422 102.032 139.481 98.4317 142.464C94.8314 145.449 97.0685 152.935 95.9735 154.355C94.8788 155.777 90.6151 156.06 91.1362 160.656C91.6573 165.251 104.668 171.007 103.832 174.808C103.832 174.808 108.931 167.313 105.285 163.893C105.285 163.893 107.062 165.567 107.243 167.557C107.243 167.557 107.725 163.673 105.253 162.429C103.066 161.329 101.274 157.309 101.464 156.591C101.653 155.871 107.717 144.786 107.717 144.786Z" fill="#2C3A64"/>
<path d="M102.61 167.077C102.61 167.077 106.485 183.108 110.289 186.313C112.576 188.239 119.374 192.66 119.374 192.66L116.547 193.686C116.547 193.686 107.117 190.503 105.006 188.02C102.894 185.537 97.1143 173.1 97.1143 173.1L102.61 167.077Z" fill="#FFB27D"/>
<path d="M124.916 198.52L124.005 196.264C123.028 193.846 120.681 192.262 118.073 192.262H101.274V202.922V248.432H170.768V202.922H131.443C128.573 202.922 125.99 201.181 124.916 198.52Z" fill="#0B0B0B"/>
<path d="M111.756 226.419V222.371L125.957 216.151V220.287L116.04 224.365L125.957 228.444V232.639L111.756 226.419Z" fill="white"/>
<path d="M140.715 211.309H144.501L131.502 238.48H127.717L140.715 211.309Z" fill="white"/>
<path d="M160.286 222.371V226.419L146.084 232.639V228.503L156.003 224.425L146.084 220.346V216.151L160.286 222.371Z" fill="white"/>
<path d="M66.1889 195.241C66.223 195.303 66.2593 195.366 66.2956 195.43C67.1436 196.904 69.089 200.514 71.2316 204.467C72.245 206.342 73.3061 208.294 74.3128 210.131C76.0475 213.3 77.6253 216.124 78.546 217.615C79.4824 219.132 80.1717 220.198 80.4506 220.625L80.4528 220.626C80.5367 220.758 80.5548 220.912 80.5436 221.066C80.4459 222.403 80.4732 223.733 80.6047 225.041C81.8971 237.899 90.5673 244.79 90.5673 244.79L93.1453 245.17C93.1453 245.17 89.4973 231.655 88.4225 224.013C88.2411 222.719 88.1618 221.67 88.2253 220.984C88.4157 218.993 88.0619 216.071 87.3932 212.715C86.2028 206.753 84.0194 199.433 82.1216 193.574C82.0014 193.201 78.3759 180.086 78.3759 180.086C75.3331 182.746 64.2345 183.844 64.2345 183.844C64.2345 183.844 62.3526 188.418 66.1889 195.241Z" fill="#2F539B"/>
<path d="M98.5562 248.432H87.7969C87.7969 248.432 87.5389 246.793 88.101 245.549C88.6395 244.356 89.407 244.316 88.1989 242.445C88.8826 243.149 91.0804 243.44 92.6359 243.232C92.8264 243.54 93.8647 245.613 94.5013 246.07C95.2045 246.575 98.3397 246.396 98.5562 248.432Z" fill="#233862"/>
<path d="M66.189 195.241C66.2231 195.304 66.2594 195.366 66.2957 195.43C67.1437 196.904 71.7296 205.374 73.8722 209.325C71.3895 199.111 73.1163 188.897 73.1163 188.897L66.189 195.241Z" fill="#233862"/>
<path d="M106.249 144.133C106.319 143.85 100.104 146.943 99.7884 147.292C96.8734 150.525 97.7046 154.745 99.3726 154.785C100.442 154.812 100.235 156.591 100.235 156.591L112.152 151.548C112.152 151.548 110.718 143.182 106.249 144.133Z" fill="#2C3A64"/>
<path d="M102.244 164.669C102.244 164.669 104.058 168.29 103.831 171.232C103.831 171.232 101.645 174.683 95.9731 175.557C95.9731 175.557 100.849 164.666 102.244 164.669Z" fill="#7ADEFF"/>
<path d="M74.5768 184.646L74.6131 182.632C70.6038 183.139 60.7889 177.842 60.7889 177.842C60.7889 177.842 56.5944 180.631 56.0201 188.599C55.7399 192.488 53.9668 208.933 53.7708 213.844C53.6993 215.624 53.6755 216.894 53.6674 217.401L53.668 217.406C53.6655 217.561 53.5928 217.698 53.4975 217.82C52.6679 218.875 51.9483 219.992 51.325 221.151C45.2071 232.534 48.4064 248.001 48.4064 248.001L49.8271 247.64C49.8271 247.64 55.0001 231.606 58.3811 224.669C58.9549 223.493 59.4762 222.579 59.9122 222.049C61.1834 220.505 62.524 217.883 63.8453 214.728C66.3427 208.761 74.5768 184.646 74.5768 184.646Z" fill="#2F539B"/>
<path d="M56.9624 248.432H46.2031C46.2031 248.432 45.9452 246.793 46.5071 245.549C47.0457 244.356 47.8891 243.813 47.6871 242.367C48.3708 243.071 49.4851 243.86 51.0406 243.652C51.2312 243.96 52.2709 245.613 52.9076 246.07C53.6106 246.575 56.746 246.396 56.9624 248.432Z" fill="#233862"/>
<path d="M95.2468 177.869C93.8016 178.114 95.4827 179.264 93.495 179.48C90.6659 179.788 87.7449 180 86.2147 180.61C85.6567 180.833 85.2834 181.107 85.1669 181.459C84.5036 183.454 80.3031 186.881 80.3031 186.881C61.568 186.027 60.3613 177.678 60.3613 177.678C72.5207 165.868 82.865 159.432 91.4143 158.634C93.495 158.44 96.2997 158.702 97.6155 159.287C100.606 160.618 102.244 164.67 102.244 164.67C102.244 164.67 100.738 176.932 95.2468 177.869Z" fill="#7ADEFF"/>
<path d="M93.4953 179.479C90.6662 179.788 87.7452 179.999 86.215 180.609C85.5897 171.266 89.9992 164.237 89.9992 164.237C89.9992 164.237 92.8756 175.944 93.4953 179.479Z" fill="#3D3D3D"/>
<path d="M95.9356 162.656C95.9356 162.656 88.8212 162.266 87.557 166.734C86.2928 171.201 89.9286 189.03 90.7122 190.87C92.1388 194.221 99.0835 203.782 99.0835 203.782L101.637 203.005C101.637 203.005 97.0068 188.397 95.973 186.951C94.3501 184.683 98.0653 164.599 95.9356 162.656Z" fill="#FFB27D"/>
<path d="M101.638 203.005C101.638 203.005 101.769 204.138 102.248 204.721C102.726 205.306 104.119 206.722 104.143 207.55C104.143 207.55 104.073 207.917 103.774 207.85C103.476 207.783 102.439 206.757 101.907 206.83C101.907 206.83 102.191 208.49 102.472 208.958C102.754 209.425 102.53 211.408 102.361 211.811C102.192 212.215 100.116 209.644 99.2627 208.498C98.4093 207.35 99.2491 202.694 99.2491 202.694L101.638 203.005Z" fill="#FFB27D"/>
<path d="M86.1543 172.708C86.1729 172.813 92.8869 173.942 97.0862 171.811C97.0862 171.811 100.595 160.821 95.5811 161.347C90.5676 161.873 87.5989 163.451 87.4726 165.853C87.3464 168.252 86.1543 172.708 86.1543 172.708Z" fill="#7ADEFF"/>
<path d="M97.4555 160.057C97.99 161.733 99.773 166.506 102.244 164.669C102.16 164.312 102.679 163.277 103.292 162.224C104.074 160.88 105.006 159.505 105.006 159.505L100.979 155.977L100.739 155.768C99.6855 157.606 98.6499 158.491 97.7432 159.167C97.4674 159.374 97.3508 159.729 97.4555 160.057Z" fill="#FFB27D"/>
<path d="M105.005 159.507C105.005 159.507 104.074 160.878 103.292 162.224C100.789 160.681 100.786 157.582 100.979 155.977L105.005 159.507Z" fill="#7ADEFF"/>
<path d="M105.117 161.274C105.117 161.274 99.04 157.894 101.204 154.141C103.368 150.389 104.041 147.426 108.013 149.425C111.985 151.426 111.906 153.29 111.488 154.718C111.071 156.145 106.754 162.058 105.117 161.274Z" fill="#FFB27D"/>
<path d="M112.515 152.53C112.236 150.864 111.39 150.704 110.8 150.815C108.556 147.104 104.889 148.553 104.889 148.553C102.931 151.011 100.099 151.43 100.099 151.43C100.099 151.43 100.804 152.741 103.71 153.554C104.598 153.802 105.605 153.651 106.576 153.324C104.56 154.449 102.452 154.879 102.452 154.879C106.281 155.23 109.925 151.729 110.302 151.355C110.479 151.898 110.789 153.033 110.603 153.863C110.351 154.992 109.35 157.035 109.961 157.3C109.961 157.3 112.932 155.028 112.515 152.53Z" fill="#2C3A64"/>
<path d="M120.486 192.668C120.486 192.668 118.791 193.939 120.069 194.772C121.347 195.602 123.629 195.828 123.638 195.282C123.669 193.451 122.756 192.148 120.486 192.668Z" fill="#FFB27D"/>
<path d="M437.016 249.408H1.21403C0.956838 249.408 0.746582 249.197 0.746582 248.94V248.842C0.746582 248.585 0.956838 248.374 1.21403 248.374H437.016C437.272 248.374 437.483 248.585 437.483 248.842V248.94C437.483 249.197 437.272 249.408 437.016 249.408Z" fill="#2E3552"/>
<path d="M146.915 122.849C146.791 122.339 146.446 121.955 146.073 121.955C145.699 121.956 145.546 122.33 145.673 122.851C145.798 123.366 146.137 123.746 146.514 123.744C146.892 123.744 147.04 123.367 146.915 122.849ZM145.033 122.853C144.834 122.037 145.191 121.399 145.947 121.398C146.696 121.396 147.356 122.025 147.555 122.848C147.752 123.663 147.4 124.301 146.641 124.303C145.882 124.304 145.232 123.675 145.033 122.853Z" fill="#7ADEFF"/>
<path d="M134.126 101.745L133.66 101.866L133.408 101.36L134.165 101.118H134.592L135.276 103.946L134.659 103.948L134.126 101.745Z" fill="#94B0ED"/>
<path d="M138.222 102.537C138.098 102.027 137.754 101.643 137.38 101.643C137.008 101.644 136.854 102.018 136.981 102.539C137.105 103.052 137.444 103.434 137.823 103.432C138.2 103.432 138.347 103.055 138.222 102.537ZM136.34 102.541C136.143 101.725 136.499 101.087 137.253 101.086C138.004 101.084 138.664 101.713 138.863 102.536C139.06 103.351 138.708 103.989 137.949 103.991C137.191 103.992 136.538 103.363 136.34 102.541Z" fill="#94B0ED"/>
<path d="M186.047 101.65L185.581 101.772L185.329 101.267L186.086 101.025L186.512 101.023L187.197 103.853H186.581L186.047 101.65Z" fill="#94B0ED"/>
<path d="M190.143 102.442C190.019 101.933 189.673 101.548 189.301 101.548C188.927 101.55 188.775 101.922 188.9 102.445C189.026 102.958 189.365 103.338 189.742 103.338C190.119 103.338 190.268 102.959 190.143 102.442ZM188.261 102.445C188.063 101.631 188.42 100.991 189.174 100.991C189.925 100.99 190.584 101.619 190.782 102.442C190.981 103.255 190.628 103.895 189.869 103.896C189.11 103.896 188.459 103.268 188.261 102.445Z" fill="#94B0ED"/>
<path d="M193.915 102.436C193.791 101.927 193.447 101.543 193.073 101.543C192.701 101.543 192.547 101.916 192.674 102.439C192.798 102.952 193.137 103.332 193.516 103.332C193.893 103.332 194.04 102.954 193.915 102.436ZM192.033 102.439C191.835 101.625 192.192 100.986 192.946 100.986C193.697 100.984 194.357 101.613 194.556 102.436C194.753 103.249 194.401 103.889 193.642 103.889C192.884 103.891 192.231 103.262 192.033 102.439Z" fill="#94B0ED"/>
<path d="M213.21 102.442C213.086 101.933 212.74 101.548 212.368 101.548C211.994 101.55 211.841 101.922 211.968 102.445C212.093 102.958 212.432 103.338 212.809 103.338C213.186 103.338 213.335 102.959 213.21 102.442ZM211.326 102.445C211.129 101.631 211.486 100.991 212.241 100.991C212.991 100.99 213.651 101.619 213.85 102.442C214.047 103.255 213.695 103.895 212.936 103.896C212.177 103.896 211.526 103.268 211.326 102.445Z" fill="#94B0ED"/>
<path d="M216.982 102.436C216.858 101.927 216.514 101.543 216.14 101.543C215.768 101.543 215.614 101.916 215.741 102.439C215.865 102.952 216.204 103.332 216.581 103.332C216.96 103.332 217.107 102.954 216.982 102.436ZM215.1 102.439C214.903 101.625 215.259 100.986 216.013 100.986C216.764 100.984 217.423 101.613 217.623 102.436C217.82 103.249 217.467 103.889 216.708 103.889C215.951 103.891 215.298 103.262 215.1 102.439Z" fill="#94B0ED"/>
<path d="M220.755 102.429C220.632 101.921 220.286 101.536 219.914 101.536C219.54 101.536 219.386 101.91 219.513 102.432C219.638 102.945 219.978 103.326 220.355 103.326C220.732 103.324 220.88 102.947 220.755 102.429ZM218.872 102.432C218.675 101.619 219.031 100.979 219.787 100.977C220.536 100.977 221.196 101.606 221.395 102.429C221.592 103.243 221.24 103.883 220.481 103.883C219.723 103.884 219.072 103.255 218.872 102.432Z" fill="#94B0ED"/>
<path d="M246.982 102.365C246.859 101.857 246.513 101.472 246.141 101.472C245.767 101.472 245.613 101.846 245.74 102.368C245.865 102.882 246.205 103.262 246.582 103.262C246.959 103.26 247.107 102.883 246.982 102.365ZM245.1 102.368C244.903 101.555 245.258 100.915 246.014 100.913C246.763 100.913 247.423 101.542 247.622 102.365C247.819 103.179 247.467 103.819 246.708 103.819C245.95 103.82 245.299 103.191 245.1 102.368Z" fill="#94B0ED"/>
<path d="M250.593 102.359C250.469 101.851 250.124 101.466 249.751 101.466C249.377 101.467 249.224 101.84 249.351 102.362C249.476 102.875 249.815 103.255 250.192 103.255C250.569 103.255 250.718 102.877 250.593 102.359ZM248.709 102.362C248.512 101.549 248.869 100.909 249.624 100.909C250.374 100.907 251.034 101.536 251.233 102.359C251.43 103.173 251.078 103.812 250.319 103.814C249.56 103.814 248.91 103.185 248.709 102.362Z" fill="#94B0ED"/>
<path d="M254.519 102.353C254.396 101.843 254.05 101.46 253.678 101.46C253.304 101.46 253.151 101.833 253.277 102.354C253.402 102.869 253.742 103.249 254.119 103.249C254.496 103.248 254.645 102.871 254.519 102.353ZM252.637 102.356C252.439 101.542 252.796 100.903 253.551 100.901C254.3 100.901 254.961 101.53 255.159 102.351C255.356 103.166 255.004 103.806 254.246 103.806C253.487 103.808 252.836 103.179 252.637 102.356Z" fill="#94B0ED"/>
<path d="M260.932 102.342C260.809 101.833 260.464 101.448 260.09 101.448C259.718 101.448 259.565 101.822 259.692 102.345C259.815 102.858 260.156 103.238 260.533 103.238C260.91 103.236 261.057 102.859 260.932 102.342ZM259.05 102.345C258.853 101.531 259.21 100.891 259.964 100.89C260.715 100.89 261.375 101.519 261.574 102.342C261.771 103.155 261.419 103.795 260.66 103.795C259.901 103.796 259.249 103.168 259.05 102.345Z" fill="#94B0ED"/>
<path d="M263.113 101.539L262.647 101.661L262.395 101.156L263.152 100.913H263.577L264.263 103.742H263.646L263.113 101.539Z" fill="#94B0ED"/>
<path d="M267.208 102.332C267.085 101.822 266.739 101.437 266.366 101.437C265.993 101.439 265.839 101.811 265.966 102.334C266.091 102.847 266.431 103.227 266.808 103.227C267.185 103.227 267.333 102.849 267.208 102.332ZM265.326 102.335C265.129 101.52 265.484 100.881 266.24 100.881C266.989 100.879 267.649 101.508 267.848 102.331C268.045 103.144 267.693 103.784 266.934 103.786C266.176 103.786 265.525 103.157 265.326 102.335Z" fill="#94B0ED"/>
<path d="M273.494 102.315C273.371 101.805 273.027 101.42 272.653 101.42C272.28 101.422 272.127 101.796 272.254 102.317C272.377 102.83 272.717 103.212 273.095 103.21C273.472 103.21 273.62 102.833 273.494 102.315ZM271.612 102.318C271.415 101.503 271.772 100.865 272.526 100.863C273.277 100.862 273.937 101.491 274.136 102.314C274.333 103.129 273.981 103.767 273.222 103.769C272.463 103.77 271.811 103.141 271.612 102.318Z" fill="#94B0ED"/>
<path d="M164.699 108.609C164.576 108.099 164.231 107.714 163.858 107.715C163.485 107.715 163.332 108.089 163.459 108.61C163.582 109.125 163.922 109.505 164.299 109.505C164.677 109.504 164.824 109.126 164.699 108.609ZM162.817 108.612C162.62 107.797 162.977 107.158 163.731 107.157C164.482 107.155 165.14 107.786 165.341 108.607C165.538 109.422 165.184 110.06 164.427 110.062C163.668 110.064 163.016 109.435 162.817 108.612Z" fill="#94B0ED"/>
<path d="M168.472 108.603C168.349 108.093 168.003 107.708 167.631 107.709C167.257 107.709 167.104 108.083 167.23 108.604C167.355 109.119 167.695 109.499 168.072 109.499C168.449 109.497 168.598 109.12 168.472 108.603ZM166.589 108.606C166.392 107.791 166.748 107.152 167.504 107.151C168.253 107.149 168.914 107.78 169.112 108.601C169.309 109.416 168.957 110.054 168.199 110.056C167.44 110.057 166.789 109.429 166.589 108.606Z" fill="#94B0ED"/>
<path d="M262.414 108.455C262.29 107.947 261.944 107.562 261.572 107.562C261.198 107.564 261.045 107.936 261.171 108.458C261.297 108.972 261.636 109.352 262.013 109.352C262.39 109.352 262.539 108.973 262.414 108.455ZM260.53 108.46C260.333 107.645 260.69 107.005 261.445 107.005C262.195 107.003 262.855 107.632 263.053 108.455C263.251 109.269 262.899 109.909 262.14 109.91C261.381 109.91 260.73 109.281 260.53 108.46Z" fill="#94B0ED"/>
<path d="M264.593 107.654L264.127 107.775L263.875 107.269L264.632 107.027H265.057L265.743 109.855L265.126 109.857L264.593 107.654Z" fill="#94B0ED"/>
<path d="M268.688 108.446C268.565 107.936 268.221 107.551 267.847 107.553C267.474 107.553 267.321 107.927 267.448 108.448C267.571 108.961 267.911 109.343 268.288 109.341C268.667 109.341 268.814 108.964 268.688 108.446ZM266.806 108.449C266.609 107.634 266.966 106.996 267.72 106.995C268.471 106.993 269.13 107.622 269.33 108.445C269.527 109.26 269.173 109.898 268.415 109.9C267.657 109.901 267.005 109.271 266.806 108.449Z" fill="#94B0ED"/>
<path d="M282.521 108.416C282.397 107.906 282.051 107.521 281.679 107.521C281.305 107.523 281.152 107.897 281.279 108.418C281.404 108.931 281.743 109.312 282.12 109.311C282.497 109.311 282.646 108.934 282.521 108.416ZM280.639 108.419C280.44 107.604 280.797 106.966 281.552 106.964C282.302 106.963 282.962 107.592 283.161 108.414C283.358 109.23 283.006 109.868 282.247 109.869C281.488 109.871 280.837 109.242 280.639 108.419Z" fill="#94B0ED"/>
<path d="M284.7 107.614L284.234 107.734L283.982 107.229L284.739 106.988L285.165 106.987L285.85 109.815L285.233 109.817L284.7 107.614Z" fill="#94B0ED"/>
<path d="M161.525 141.618C161.401 141.11 161.057 140.725 160.683 140.725C160.311 140.725 160.158 141.099 160.284 141.621C160.408 142.134 160.749 142.514 161.126 142.514C161.503 142.513 161.65 142.136 161.525 141.618ZM159.643 141.621C159.446 140.808 159.802 140.168 160.556 140.166C161.307 140.166 161.968 140.795 162.166 141.618C162.363 142.431 162.011 143.071 161.253 143.071C160.494 143.073 159.842 142.444 159.643 141.621Z" fill="#94B0ED"/>
<path d="M165.298 141.612C165.175 141.102 164.831 140.718 164.457 140.718C164.083 140.718 163.931 141.092 164.056 141.615C164.181 142.128 164.521 142.508 164.898 142.508C165.275 142.506 165.423 142.129 165.298 141.612ZM163.416 141.615C163.219 140.801 163.576 140.161 164.33 140.16C165.081 140.16 165.739 140.789 165.94 141.612C166.137 142.425 165.783 143.065 165.025 143.065C164.266 143.067 163.615 142.438 163.416 141.615Z" fill="#94B0ED"/>
<path d="M167.477 140.809L167.011 140.931L166.759 140.426L167.516 140.184H167.942L168.627 143.012H168.011L167.477 140.809Z" fill="#94B0ED"/>
<path d="M175.346 141.594C175.223 141.086 174.879 140.701 174.505 140.701C174.131 140.702 173.979 141.075 174.104 141.597C174.229 142.11 174.569 142.491 174.946 142.491C175.323 142.491 175.472 142.112 175.346 141.594ZM173.464 141.597C173.267 140.784 173.624 140.144 174.378 140.144C175.129 140.142 175.788 140.771 175.988 141.594C176.185 142.408 175.831 143.048 175.073 143.049C174.314 143.049 173.663 142.42 173.464 141.597Z" fill="#94B0ED"/>
<path d="M179.118 141.588C178.996 141.08 178.65 140.695 178.278 140.695C177.904 140.695 177.751 141.069 177.878 141.592C178.001 142.105 178.342 142.485 178.719 142.485C179.096 142.485 179.243 142.106 179.118 141.588ZM177.236 141.592C177.039 140.778 177.396 140.138 178.15 140.138C178.901 140.137 179.561 140.766 179.76 141.588C179.957 142.402 179.605 143.042 178.846 143.042C178.087 143.043 177.435 142.414 177.236 141.592Z" fill="#94B0ED"/>
<path d="M182.892 141.582C182.768 141.073 182.424 140.689 182.05 140.689C181.676 140.689 181.524 141.062 181.649 141.585C181.775 142.098 182.114 142.478 182.491 142.478C182.868 142.478 183.017 142.1 182.892 141.582ZM181.01 141.585C180.812 140.771 181.169 140.132 181.923 140.132C182.674 140.13 183.333 140.759 183.533 141.582C183.73 142.395 183.377 143.035 182.618 143.035C181.859 143.037 181.208 142.408 181.01 141.585Z" fill="#94B0ED"/>
<path d="M229.989 141.618C229.866 141.11 229.52 140.725 229.148 140.725C228.774 140.725 228.621 141.099 228.747 141.621C228.872 142.134 229.212 142.514 229.589 142.514C229.966 142.513 230.115 142.136 229.989 141.618ZM228.107 141.621C227.909 140.808 228.265 140.168 229.021 140.166C229.77 140.166 230.431 140.795 230.629 141.618C230.826 142.431 230.474 143.071 229.716 143.071C228.957 143.073 228.306 142.444 228.107 141.621Z" fill="#94B0ED"/>
<path d="M233.761 141.612C233.638 141.102 233.294 140.718 232.92 140.718C232.547 140.718 232.394 141.092 232.521 141.615C232.644 142.128 232.984 142.508 233.363 142.508C233.74 142.506 233.887 142.129 233.761 141.612ZM231.879 141.615C231.682 140.801 232.039 140.161 232.793 140.16C233.544 140.16 234.204 140.789 234.403 141.612C234.6 142.425 234.248 143.065 233.489 143.065C232.731 143.067 232.078 142.438 231.879 141.615Z" fill="#94B0ED"/>
<path d="M235.942 140.809L235.476 140.931L235.224 140.426L235.98 140.184H236.407L237.092 143.012H236.474L235.942 140.809Z" fill="#94B0ED"/>
<path d="M255.281 141.618C255.158 141.11 254.813 140.725 254.44 140.725C254.067 140.725 253.914 141.099 254.041 141.621C254.164 142.134 254.504 142.514 254.882 142.514C255.259 142.513 255.406 142.136 255.281 141.618ZM253.399 141.621C253.202 140.808 253.559 140.168 254.313 140.166C255.064 140.166 255.724 140.795 255.923 141.618C256.12 142.431 255.768 143.071 255.009 143.071C254.25 143.073 253.598 142.444 253.399 141.621Z" fill="#94B0ED"/>
<path d="M259.055 141.612C258.931 141.102 258.585 140.718 258.213 140.718C257.839 140.718 257.686 141.092 257.812 141.615C257.938 142.128 258.277 142.508 258.654 142.508C259.031 142.506 259.18 142.129 259.055 141.612ZM257.173 141.615C256.974 140.801 257.331 140.161 258.086 140.16C258.836 140.16 259.496 140.789 259.694 141.612C259.892 142.425 259.54 143.065 258.781 143.065C258.022 143.067 257.371 142.438 257.173 141.615Z" fill="#94B0ED"/>
<path d="M261.234 140.809L260.768 140.931L260.516 140.426L261.273 140.184H261.699L262.384 143.012H261.767L261.234 140.809Z" fill="#94B0ED"/>
<path d="M243.81 141.594C243.686 141.086 243.342 140.701 242.968 140.701C242.596 140.702 242.442 141.075 242.569 141.597C242.693 142.11 243.032 142.491 243.411 142.491C243.788 142.491 243.935 142.112 243.81 141.594ZM241.928 141.597C241.73 140.784 242.087 140.144 242.841 140.144C243.592 140.142 244.252 140.771 244.451 141.594C244.648 142.408 244.296 143.048 243.537 143.049C242.779 143.049 242.126 142.42 241.928 141.597Z" fill="#94B0ED"/>
<path d="M247.583 141.588C247.459 141.08 247.114 140.695 246.741 140.695C246.367 140.695 246.214 141.069 246.341 141.592C246.466 142.105 246.805 142.485 247.182 142.485C247.56 142.485 247.708 142.106 247.583 141.588ZM245.701 141.592C245.502 140.778 245.859 140.138 246.615 140.138C247.364 140.137 248.024 140.766 248.223 141.588C248.421 142.402 248.068 143.042 247.309 143.042C246.55 143.043 245.9 142.414 245.701 141.592Z" fill="#94B0ED"/>
<path d="M251.355 141.582C251.231 141.073 250.887 140.689 250.513 140.689C250.141 140.689 249.987 141.062 250.114 141.585C250.238 142.098 250.577 142.478 250.956 142.478C251.333 142.478 251.48 142.1 251.355 141.582ZM249.473 141.585C249.276 140.771 249.632 140.132 250.386 140.132C251.137 140.13 251.797 140.759 251.996 141.582C252.193 142.395 251.841 143.035 251.082 143.035C250.324 143.037 249.671 142.408 249.473 141.585Z" fill="#94B0ED"/>
<path d="M195.793 141.52C195.67 141.01 195.326 140.625 194.952 140.625C194.579 140.627 194.426 141 194.553 141.521C194.676 142.035 195.016 142.416 195.395 142.415C195.772 142.415 195.919 142.036 195.793 141.52ZM193.911 141.523C193.714 140.708 194.071 140.07 194.825 140.068C195.576 140.066 196.236 140.695 196.435 141.518C196.632 142.333 196.28 142.972 195.521 142.973C194.762 142.975 194.11 142.344 193.911 141.523Z" fill="#94B0ED"/>
<path d="M197.974 140.717L197.508 140.837L197.256 140.332L198.013 140.09H198.439L199.124 142.918L198.508 142.92L197.974 140.717Z" fill="#94B0ED"/>
<path d="M202.069 141.509C201.946 140.999 201.6 140.614 201.228 140.615C200.854 140.615 200.702 140.989 200.827 141.51C200.952 142.025 201.292 142.405 201.669 142.405C202.046 142.403 202.195 142.026 202.069 141.509ZM200.187 141.512C199.99 140.697 200.345 140.058 201.101 140.057C201.852 140.055 202.511 140.684 202.709 141.507C202.908 142.322 202.554 142.96 201.796 142.962C201.037 142.963 200.386 142.335 200.187 141.512Z" fill="#94B0ED"/>
<path d="M276.687 141.429C276.564 140.919 276.219 140.534 275.846 140.536C275.473 140.536 275.32 140.91 275.447 141.431C275.57 141.944 275.911 142.326 276.288 142.324C276.665 142.324 276.812 141.947 276.687 141.429ZM274.805 141.432C274.608 140.617 274.965 139.979 275.719 139.977C276.47 139.976 277.13 140.605 277.329 141.428C277.526 142.243 277.174 142.881 276.415 142.883C275.656 142.884 275.004 142.255 274.805 141.432Z" fill="#94B0ED"/>
<path d="M278.868 140.627L278.402 140.748L278.15 140.243L278.907 140.002L279.333 140L280.018 142.829L279.401 142.83L278.868 140.627Z" fill="#94B0ED"/>
<path d="M282.964 141.418C282.84 140.909 282.495 140.524 282.122 140.525C281.748 140.525 281.595 140.899 281.722 141.42C281.847 141.935 282.186 142.315 282.563 142.315C282.94 142.313 283.089 141.936 282.964 141.418ZM281.082 141.422C280.885 140.607 281.24 139.968 281.996 139.967C282.745 139.967 283.405 140.596 283.604 141.417C283.801 142.232 283.449 142.87 282.69 142.872C281.931 142.873 281.281 142.244 281.082 141.422Z" fill="#94B0ED"/>
<path d="M137.327 114.962L136.861 115.082L136.609 114.577L137.366 114.335H137.792L138.477 117.163L137.86 117.165L137.327 114.962Z" fill="#94B0ED"/>
<path d="M141.422 115.753C141.299 115.243 140.955 114.858 140.581 114.86C140.208 114.86 140.055 115.234 140.18 115.755C140.305 116.269 140.645 116.65 141.022 116.65C141.399 116.648 141.547 116.271 141.422 115.753ZM139.54 115.756C139.343 114.941 139.7 114.303 140.454 114.301C141.205 114.3 141.863 114.929 142.064 115.752C142.261 116.567 141.907 117.205 141.149 117.207C140.39 117.208 139.739 116.579 139.54 115.756Z" fill="#94B0ED"/>
<path d="M162.789 115.717C162.665 115.207 162.32 114.822 161.947 114.824C161.573 114.824 161.42 115.198 161.547 115.719C161.672 116.233 162.011 116.613 162.388 116.612C162.765 116.612 162.914 116.235 162.789 115.717ZM160.905 115.72C160.708 114.905 161.065 114.267 161.821 114.265C162.57 114.264 163.23 114.893 163.429 115.716C163.626 116.531 163.274 117.169 162.515 117.17C161.756 117.172 161.106 116.543 160.905 115.72Z" fill="#94B0ED"/>
<path d="M166.561 115.711C166.437 115.201 166.093 114.816 165.719 114.818C165.347 114.818 165.193 115.192 165.32 115.713C165.444 116.227 165.783 116.608 166.16 116.608C166.539 116.606 166.686 116.229 166.561 115.711ZM164.679 115.714C164.482 114.899 164.838 114.261 165.592 114.259C166.343 114.258 167.002 114.887 167.202 115.71C167.399 116.525 167.046 117.163 166.287 117.165C165.53 117.166 164.877 116.537 164.679 115.714Z" fill="#94B0ED"/>
<path d="M170.334 115.705C170.211 115.195 169.865 114.81 169.493 114.811C169.119 114.811 168.965 115.185 169.092 115.706C169.217 116.219 169.557 116.601 169.934 116.599C170.311 116.599 170.459 116.222 170.334 115.705ZM168.451 115.708C168.254 114.893 168.61 114.254 169.366 114.253C170.115 114.251 170.775 114.88 170.974 115.703C171.171 116.518 170.819 117.156 170.061 117.158C169.302 117.16 168.651 116.531 168.451 115.708Z" fill="#94B0ED"/>
<path d="M172.513 114.902L172.047 115.023L171.795 114.517L172.553 114.277L172.978 114.275L173.663 117.103L173.047 117.105L172.513 114.902Z" fill="#94B0ED"/>
<path d="M175.037 114.898L174.571 115.02L174.319 114.515L175.076 114.272L175.502 114.271L176.187 117.099L175.57 117.101L175.037 114.898Z" fill="#94B0ED"/>
<path d="M179.132 115.69C179.009 115.181 178.665 114.796 178.291 114.796C177.918 114.796 177.765 115.17 177.89 115.693C178.015 116.206 178.355 116.586 178.732 116.586C179.109 116.585 179.257 116.208 179.132 115.69ZM177.25 115.693C177.053 114.879 177.41 114.24 178.164 114.238C178.915 114.238 179.573 114.867 179.774 115.69C179.971 116.503 179.617 117.143 178.859 117.143C178.101 117.145 177.449 116.516 177.25 115.693Z" fill="#94B0ED"/>
<path d="M276.695 115.531C276.571 115.021 276.227 114.636 275.853 114.638C275.481 114.638 275.328 115.012 275.453 115.533C275.578 116.048 275.918 116.428 276.295 116.426C276.672 116.426 276.82 116.049 276.695 115.531ZM274.813 115.534C274.616 114.719 274.973 114.081 275.727 114.08C276.478 114.078 277.136 114.707 277.336 115.53C277.534 116.345 277.18 116.983 276.421 116.985C275.663 116.986 275.012 116.357 274.813 115.534Z" fill="#7ADEFF"/>
<path d="M280.467 115.525C280.345 115.015 279.999 114.63 279.627 114.631C279.253 114.631 279.099 115.005 279.226 115.526C279.35 116.039 279.691 116.421 280.068 116.42C280.445 116.42 280.592 116.043 280.467 115.525ZM278.585 115.528C278.388 114.713 278.744 114.074 279.498 114.073C280.249 114.071 280.91 114.7 281.108 115.523C281.305 116.338 280.953 116.976 280.195 116.978C279.436 116.98 278.785 116.351 278.585 115.528Z" fill="#7ADEFF"/>
<path d="M284.24 115.519C284.116 115.009 283.772 114.624 283.398 114.624C283.026 114.625 282.873 114.999 282.998 115.52C283.123 116.033 283.462 116.415 283.839 116.413C284.216 116.413 284.365 116.036 284.24 115.519ZM282.358 115.522C282.161 114.707 282.518 114.068 283.272 114.067C284.023 114.065 284.681 114.694 284.881 115.517C285.078 116.332 284.725 116.97 283.966 116.972C283.209 116.973 282.557 116.345 282.358 115.522Z" fill="#94B0ED"/>
<path d="M286.419 114.717L285.955 114.837L285.701 114.332L286.459 114.089H286.886L287.569 116.918L286.953 116.919L286.419 114.717Z" fill="#94B0ED"/>
<path d="M139.046 122.064L138.58 122.185L138.328 121.68L139.085 121.437H139.511L140.196 124.266L139.579 124.267L139.046 122.064Z" fill="#94B0ED"/>
<path d="M143.142 122.856C143.018 122.346 142.674 121.961 142.3 121.963C141.928 121.963 141.774 122.337 141.901 122.858C142.025 123.372 142.364 123.752 142.741 123.751C143.12 123.751 143.267 123.374 143.142 122.856ZM141.26 122.859C141.062 122.044 141.419 121.406 142.173 121.404C142.924 121.403 143.584 122.032 143.783 122.854C143.98 123.669 143.627 124.308 142.869 124.309C142.111 124.311 141.458 123.682 141.26 122.859Z" fill="#94B0ED"/>
<path d="M160.735 122.826C160.611 122.316 160.267 121.931 159.893 121.933C159.521 121.933 159.367 122.307 159.494 122.828C159.618 123.342 159.957 123.723 160.336 123.723C160.713 123.721 160.86 123.344 160.735 122.826ZM158.853 122.829C158.655 122.014 159.012 121.376 159.766 121.374C160.517 121.373 161.177 122.002 161.376 122.825C161.573 123.64 161.221 124.278 160.462 124.28C159.704 124.281 159.051 123.652 158.853 122.829Z" fill="#94B0ED"/>
<path d="M164.508 122.82C164.385 122.31 164.039 121.925 163.667 121.926C163.293 121.926 163.141 122.3 163.266 122.821C163.391 123.336 163.731 123.716 164.108 123.716C164.485 123.714 164.633 123.337 164.508 122.82ZM162.626 122.823C162.429 122.008 162.784 121.369 163.54 121.368C164.291 121.366 164.949 121.995 165.148 122.818C165.347 123.633 164.993 124.271 164.234 124.273C163.476 124.275 162.825 123.646 162.626 122.823Z" fill="#94B0ED"/>
<path d="M150.2 136.569C150.076 136.059 149.732 135.675 149.358 135.675C148.986 135.676 148.833 136.048 148.958 136.571C149.083 137.084 149.422 137.466 149.799 137.464C150.176 137.464 150.325 137.086 150.2 136.569ZM148.318 136.572C148.121 135.757 148.478 135.119 149.232 135.118C149.982 135.116 150.641 135.745 150.841 136.568C151.038 137.381 150.685 138.021 149.926 138.023C149.167 138.023 148.517 137.394 148.318 136.572Z" fill="#7ADEFF"/>
<path d="M152.379 135.767L151.915 135.888L151.661 135.382L152.419 135.14H152.846L153.529 137.968L152.913 137.97L152.379 135.767Z" fill="#7ADEFF"/>
<path d="M140.612 128.68L140.146 128.802L139.894 128.297L140.651 128.054H141.077L141.762 130.883H141.146L140.612 128.68Z" fill="#94B0ED"/>
<path d="M144.708 129.473C144.584 128.963 144.24 128.579 143.866 128.579C143.494 128.58 143.34 128.954 143.467 129.475C143.591 129.988 143.93 130.37 144.307 130.368C144.686 130.368 144.833 129.99 144.708 129.473ZM142.826 129.477C142.629 128.661 142.985 128.023 143.739 128.022C144.49 128.02 145.149 128.649 145.349 129.472C145.546 130.287 145.193 130.925 144.436 130.927C143.677 130.928 143.024 130.298 142.826 129.477Z" fill="#94B0ED"/>
<path d="M148.481 129.467C148.357 128.957 148.012 128.572 147.639 128.572C147.265 128.574 147.112 128.946 147.239 129.468C147.364 129.982 147.704 130.363 148.081 130.362C148.458 130.362 148.606 129.983 148.481 129.467ZM146.597 129.47C146.4 128.655 146.757 128.017 147.513 128.015C148.262 128.013 148.922 128.642 149.121 129.465C149.318 130.28 148.966 130.919 148.207 130.92C147.449 130.92 146.798 130.291 146.597 129.47Z" fill="#94B0ED"/>
<path d="M150.66 128.664L150.194 128.785L149.942 128.279L150.699 128.037H151.125L151.81 130.865L151.194 130.867L150.66 128.664Z" fill="#94B0ED"/>
<path d="M154.756 129.456C154.632 128.946 154.288 128.561 153.914 128.563C153.542 128.563 153.388 128.936 153.515 129.457C153.639 129.971 153.978 130.352 154.357 130.351C154.734 130.351 154.881 129.974 154.756 129.456ZM152.874 129.459C152.676 128.644 153.033 128.006 153.787 128.004C154.538 128.003 155.198 128.631 155.397 129.454C155.594 130.269 155.242 130.908 154.483 130.909C153.725 130.911 153.072 130.282 152.874 129.459Z" fill="#94B0ED"/>
<path d="M158.529 129.449C158.406 128.939 158.06 128.554 157.687 128.554C157.314 128.556 157.16 128.93 157.287 129.451C157.412 129.964 157.752 130.346 158.129 130.344C158.506 130.344 158.654 129.967 158.529 129.449ZM156.646 129.452C156.448 128.637 156.805 127.999 157.561 127.997C158.31 127.996 158.97 128.625 159.169 129.448C159.366 130.263 159.014 130.901 158.255 130.903C157.497 130.904 156.846 130.275 156.646 129.452Z" fill="#94B0ED"/>
<path d="M162.301 129.443C162.177 128.933 161.833 128.548 161.459 128.548C161.087 128.55 160.933 128.924 161.06 129.445C161.184 129.958 161.523 130.34 161.902 130.338C162.279 130.338 162.426 129.961 162.301 129.443ZM160.419 129.446C160.222 128.631 160.578 127.993 161.332 127.991C162.083 127.99 162.743 128.619 162.942 129.442C163.139 130.257 162.787 130.895 162.029 130.896C161.27 130.898 160.617 130.269 160.419 129.446Z" fill="#94B0ED"/>
<path d="M166.074 129.437C165.95 128.927 165.605 128.542 165.232 128.542C164.859 128.544 164.707 128.917 164.832 129.438C164.957 129.951 165.297 130.333 165.674 130.332C166.051 130.332 166.199 129.953 166.074 129.437ZM164.192 129.44C163.995 128.625 164.35 127.987 165.106 127.985C165.855 127.983 166.515 128.612 166.714 129.435C166.913 130.25 166.559 130.889 165.8 130.89C165.042 130.892 164.391 130.261 164.192 129.44Z" fill="#94B0ED"/>
<path d="M169.846 129.431C169.723 128.921 169.378 128.536 169.005 128.536C168.632 128.537 168.479 128.91 168.606 129.432C168.729 129.945 169.069 130.327 169.447 130.326C169.824 130.326 169.971 129.947 169.846 129.431ZM167.964 129.434C167.767 128.619 168.124 127.98 168.878 127.979C169.629 127.977 170.289 128.606 170.488 129.429C170.685 130.243 170.333 130.882 169.574 130.884C168.815 130.886 168.163 130.255 167.964 129.434Z" fill="#94B0ED"/>
<path d="M173.619 129.425C173.496 128.915 173.15 128.53 172.778 128.53C172.404 128.531 172.252 128.904 172.377 129.426C172.502 129.939 172.842 130.321 173.219 130.319C173.596 130.319 173.745 129.941 173.619 129.425ZM171.737 129.428C171.54 128.613 171.897 127.974 172.651 127.973C173.402 127.971 174.061 128.6 174.259 129.423C174.458 130.237 174.104 130.876 173.346 130.878C172.587 130.878 171.936 130.249 171.737 129.428Z" fill="#94B0ED"/>
<path d="M175.799 128.623L175.332 128.743L175.081 128.238L175.838 127.995H176.263L176.948 130.824L176.332 130.825L175.799 128.623Z" fill="#94B0ED"/>
<path d="M178.322 128.618L177.856 128.738L177.604 128.233L178.361 127.992L178.786 127.991L179.472 130.819L178.855 130.821L178.322 128.618Z" fill="#94B0ED"/>
<path d="M182.418 129.409C182.294 128.899 181.95 128.514 181.576 128.516C181.204 128.516 181.051 128.89 181.177 129.411C181.301 129.925 181.64 130.305 182.019 130.305C182.396 130.304 182.543 129.927 182.418 129.409ZM180.536 129.412C180.339 128.597 180.696 127.959 181.45 127.957C182.2 127.956 182.861 128.586 183.059 129.407C183.256 130.222 182.904 130.861 182.146 130.862C181.387 130.864 180.735 130.235 180.536 129.412Z" fill="#94B0ED"/>
<path d="M142.331 135.782L141.867 135.904L141.613 135.399L142.37 135.156H142.798L143.481 137.985H142.865L142.331 135.782Z" fill="#94B0ED"/>
<path d="M146.427 136.576C146.303 136.066 145.959 135.681 145.587 135.681C145.213 135.683 145.06 136.057 145.186 136.578C145.31 137.091 145.651 137.472 146.028 137.471C146.405 137.471 146.552 137.092 146.427 136.576ZM144.545 136.579C144.348 135.764 144.705 135.126 145.459 135.124C146.21 135.123 146.87 135.752 147.068 136.574C147.266 137.389 146.914 138.028 146.155 138.029C145.396 138.031 144.745 137.4 144.545 136.579Z" fill="#94B0ED"/>
<path d="M156.475 136.559C156.353 136.049 156.007 135.664 155.635 135.664C155.261 135.666 155.108 136.039 155.234 136.56C155.358 137.074 155.699 137.455 156.076 137.454C156.453 137.454 156.602 137.077 156.475 136.559ZM154.593 136.562C154.396 135.747 154.753 135.109 155.507 135.107C156.258 135.106 156.918 135.734 157.116 136.557C157.314 137.372 156.962 138.011 156.203 138.012C155.444 138.014 154.793 137.385 154.593 136.562Z" fill="#94B0ED"/>
<path d="M160.249 136.552C160.125 136.042 159.781 135.657 159.407 135.657C159.035 135.659 158.881 136.033 159.006 136.554C159.132 137.067 159.471 137.449 159.848 137.447C160.225 137.447 160.374 137.07 160.249 136.552ZM158.367 136.555C158.169 135.74 158.526 135.102 159.28 135.101C160.031 135.099 160.69 135.728 160.89 136.551C161.087 137.366 160.733 138.004 159.975 138.006C159.216 138.007 158.565 137.377 158.367 136.555Z" fill="#94B0ED"/>
<path d="M153.536 152.317C153.414 151.807 153.068 151.422 152.696 151.423C152.322 151.423 152.168 151.797 152.295 152.318C152.419 152.833 152.76 153.213 153.137 153.213C153.514 153.212 153.662 152.835 153.536 152.317ZM151.654 152.32C151.457 151.505 151.813 150.866 152.567 150.865C153.318 150.863 153.978 151.492 154.177 152.315C154.374 153.13 154.022 153.768 153.263 153.77C152.505 153.772 151.854 153.143 151.654 152.32Z" fill="#94B0ED"/>
<path d="M155.716 151.514L155.25 151.635L154.998 151.13L155.755 150.889L156.181 150.887L156.866 153.715L156.25 153.717L155.716 151.514Z" fill="#94B0ED"/>
<path d="M145.668 151.531L145.202 151.652L144.95 151.147L145.707 150.904H146.133L146.818 153.733L146.201 153.734L145.668 151.531Z" fill="#94B0ED"/>
<path d="M149.764 152.323C149.64 151.813 149.296 151.428 148.922 151.429C148.548 151.429 148.396 151.803 148.521 152.324C148.647 152.839 148.986 153.219 149.363 153.219C149.74 153.217 149.889 152.84 149.764 152.323ZM147.882 152.326C147.685 151.511 148.041 150.872 148.795 150.871C149.546 150.869 150.205 151.5 150.405 152.321C150.602 153.136 150.249 153.774 149.49 153.776C148.731 153.777 148.08 153.149 147.882 152.326Z" fill="#94B0ED"/>
<path d="M159.812 152.305C159.688 151.795 159.344 151.411 158.97 151.412C158.596 151.412 158.444 151.786 158.57 152.307C158.695 152.822 159.034 153.202 159.411 153.202C159.788 153.2 159.937 152.823 159.812 152.305ZM157.93 152.309C157.733 151.494 158.089 150.855 158.843 150.854C159.594 150.854 160.253 151.483 160.453 152.304C160.65 153.119 160.297 153.757 159.538 153.759C158.779 153.76 158.128 153.131 157.93 152.309Z" fill="#7ADEFF"/>
<path d="M163.584 152.299C163.462 151.789 163.116 151.405 162.744 151.406C162.37 151.406 162.216 151.78 162.343 152.301C162.467 152.816 162.808 153.196 163.185 153.196C163.562 153.194 163.71 152.817 163.584 152.299ZM161.702 152.302C161.505 151.487 161.861 150.849 162.615 150.848C163.366 150.848 164.026 151.476 164.225 152.298C164.422 153.113 164.07 153.751 163.312 153.753C162.553 153.754 161.902 153.125 161.702 152.302Z" fill="#7ADEFF"/>
<path d="M148.875 157.382C148.751 156.872 148.406 156.488 148.033 156.489C147.659 156.489 147.506 156.863 147.633 157.384C147.758 157.899 148.097 158.279 148.474 158.279C148.851 158.277 149 157.9 148.875 157.382ZM146.993 157.385C146.794 156.57 147.151 155.932 147.907 155.931C148.656 155.929 149.316 156.558 149.515 157.381C149.712 158.196 149.36 158.834 148.601 158.836C147.842 158.837 147.192 158.208 146.993 157.385Z" fill="#94B0ED"/>
<path d="M151.054 156.58L150.588 156.702L150.336 156.195L151.094 155.954L151.519 155.952L152.204 158.781L151.588 158.782L151.054 156.58Z" fill="#94B0ED"/>
<path d="M155.15 157.371C155.026 156.861 154.682 156.478 154.308 156.478C153.936 156.478 153.783 156.852 153.909 157.374C154.033 157.887 154.372 158.268 154.751 158.268C155.128 158.266 155.275 157.889 155.15 157.371ZM153.268 157.374C153.071 156.561 153.427 155.921 154.181 155.919C154.932 155.919 155.593 156.548 155.791 157.371C155.988 158.185 155.636 158.824 154.878 158.824C154.119 158.826 153.467 158.197 153.268 157.374Z" fill="#94B0ED"/>
<path d="M158.924 157.365C158.8 156.855 158.454 156.47 158.082 156.472C157.708 156.472 157.555 156.846 157.681 157.367C157.807 157.882 158.146 158.262 158.523 158.262C158.9 158.26 159.049 157.883 158.924 157.365ZM157.042 157.368C156.843 156.553 157.2 155.915 157.955 155.913C158.704 155.912 159.365 156.542 159.563 157.364C159.76 158.179 159.408 158.817 158.65 158.819C157.891 158.82 157.24 158.191 157.042 157.368Z" fill="#94B0ED"/>
<path d="M164.02 136.546C163.898 136.036 163.552 135.651 163.18 135.651C162.806 135.653 162.653 136.027 162.78 136.548C162.903 137.061 163.244 137.443 163.621 137.441C163.998 137.441 164.147 137.062 164.02 136.546ZM162.138 136.549C161.941 135.734 162.298 135.096 163.053 135.094C163.803 135.093 164.463 135.722 164.662 136.545C164.859 137.36 164.507 137.998 163.748 138C162.989 138.001 162.338 137.371 162.138 136.549Z" fill="#94B0ED"/>
<path d="M167.794 136.54C167.67 136.03 167.326 135.645 166.952 135.645C166.58 135.647 166.426 136.019 166.553 136.541C166.677 137.055 167.016 137.436 167.393 137.435C167.77 137.435 167.919 137.056 167.794 136.54ZM165.912 136.543C165.715 135.728 166.071 135.09 166.825 135.088C167.576 135.086 168.235 135.715 168.435 136.538C168.632 137.353 168.279 137.992 167.52 137.993C166.763 137.993 166.11 137.364 165.912 136.543Z" fill="#94B0ED"/>
<path d="M158.327 170.641C158.204 170.131 157.859 169.746 157.485 169.748C157.113 169.748 156.96 170.122 157.087 170.642C157.21 171.157 157.55 171.537 157.927 171.537C158.305 171.536 158.452 171.159 158.327 170.641ZM156.445 170.644C156.248 169.829 156.605 169.191 157.359 169.189C158.11 169.188 158.768 169.816 158.969 170.639C159.166 171.454 158.812 172.093 158.055 172.094C157.296 172.096 156.644 171.467 156.445 170.644Z" fill="#7ADEFF"/>
<path d="M160.508 169.838L160.042 169.958L159.79 169.453L160.546 169.212L160.973 169.211L161.658 172.039L161.04 172.041L160.508 169.838Z" fill="#7ADEFF"/>
<path d="M148.739 162.753L148.275 162.873L148.021 162.368L148.778 162.126H149.205L149.889 164.954L149.273 164.956L148.739 162.753Z" fill="#94B0ED"/>
<path d="M152.834 163.544C152.711 163.034 152.367 162.65 151.993 162.651C151.62 162.651 151.467 163.025 151.594 163.546C151.717 164.061 152.057 164.441 152.436 164.441C152.813 164.439 152.96 164.062 152.834 163.544ZM150.952 163.548C150.755 162.733 151.112 162.094 151.866 162.093C152.617 162.091 153.277 162.722 153.476 163.543C153.673 164.358 153.321 164.996 152.562 164.998C151.803 164.999 151.151 164.37 150.952 163.548Z" fill="#94B0ED"/>
<path d="M156.608 163.538C156.484 163.028 156.14 162.643 155.766 162.645C155.392 162.645 155.241 163.018 155.366 163.539C155.491 164.054 155.83 164.434 156.207 164.434C156.584 164.433 156.733 164.056 156.608 163.538ZM154.726 163.541C154.529 162.726 154.885 162.088 155.64 162.086C156.39 162.085 157.049 162.713 157.249 163.536C157.446 164.351 157.093 164.99 156.334 164.991C155.575 164.993 154.925 164.364 154.726 163.541Z" fill="#94B0ED"/>
<path d="M158.787 162.736L158.322 162.856L158.069 162.351L158.826 162.11L159.253 162.108L159.937 164.937L159.32 164.938L158.787 162.736Z" fill="#94B0ED"/>
<path d="M150.46 169.855L149.994 169.976L149.742 169.471L150.497 169.228H150.924L151.61 172.057L150.992 172.058L150.46 169.855Z" fill="#94B0ED"/>
<path d="M154.556 170.647C154.432 170.137 154.086 169.752 153.714 169.754C153.34 169.754 153.187 170.128 153.314 170.649C153.439 171.163 153.778 171.543 154.155 171.543C154.532 171.542 154.681 171.165 154.556 170.647ZM152.672 170.65C152.475 169.835 152.832 169.197 153.587 169.195C154.337 169.194 154.997 169.823 155.196 170.645C155.393 171.46 155.041 172.099 154.282 172.1C153.523 172.102 152.872 171.473 152.672 170.65Z" fill="#94B0ED"/>
<path d="M164.604 170.63C164.48 170.12 164.134 169.735 163.762 169.736C163.388 169.736 163.235 170.11 163.361 170.631C163.487 171.146 163.826 171.526 164.203 171.526C164.58 171.525 164.729 171.147 164.604 170.63ZM162.72 170.633C162.523 169.818 162.88 169.179 163.635 169.178C164.385 169.178 165.045 169.807 165.243 170.628C165.441 171.443 165.089 172.081 164.33 172.083C163.571 172.085 162.92 171.456 162.72 170.633Z" fill="#94B0ED"/>
<path d="M168.375 170.624C168.252 170.114 167.908 169.729 167.534 169.731C167.161 169.731 167.008 170.104 167.135 170.625C167.258 171.14 167.598 171.52 167.975 171.52C168.354 171.519 168.501 171.142 168.375 170.624ZM166.493 170.627C166.296 169.812 166.653 169.174 167.407 169.172C168.158 169.17 168.817 169.801 169.017 170.622C169.214 171.437 168.86 172.076 168.103 172.077C167.345 172.079 166.692 171.45 166.493 170.627Z" fill="#94B0ED"/>
<path d="M159.782 175.654C159.659 175.146 159.315 174.761 158.941 174.761C158.568 174.761 158.415 175.135 158.542 175.657C158.665 176.171 159.005 176.551 159.382 176.551C159.761 176.549 159.908 176.172 159.782 175.654ZM157.9 175.657C157.703 174.844 158.06 174.204 158.814 174.203C159.565 174.203 160.224 174.831 160.424 175.654C160.621 176.468 160.267 177.108 159.509 177.108C158.751 177.109 158.099 176.48 157.9 175.657Z" fill="#7ADEFF"/>
<path d="M161.961 174.852L161.497 174.975L161.243 174.469L162.001 174.227H162.428L163.111 177.055H162.495L161.961 174.852Z" fill="#7ADEFF"/>
<path d="M156.009 175.661C155.887 175.152 155.541 174.767 155.169 174.767C154.795 174.767 154.641 175.141 154.768 175.664C154.892 176.177 155.233 176.557 155.61 176.557C155.987 176.556 156.135 176.178 156.009 175.661ZM154.127 175.664C153.93 174.85 154.286 174.21 155.04 174.209C155.791 174.209 156.451 174.838 156.65 175.661C156.847 176.474 156.495 177.114 155.737 177.114C154.978 177.116 154.327 176.487 154.127 175.664Z" fill="#94B0ED"/>
<path d="M166.059 175.643C165.935 175.135 165.589 174.75 165.217 174.75C164.843 174.752 164.69 175.124 164.817 175.647C164.942 176.16 165.281 176.541 165.658 176.54C166.035 176.54 166.184 176.161 166.059 175.643ZM164.175 175.648C163.978 174.833 164.335 174.195 165.09 174.193C165.84 174.192 166.5 174.821 166.698 175.643C166.896 176.457 166.544 177.097 165.785 177.098C165.026 177.098 164.375 176.469 164.175 175.648Z" fill="#94B0ED"/>
<path d="M169.83 175.637C169.706 175.129 169.362 174.744 168.988 174.744C168.616 174.745 168.463 175.118 168.588 175.64C168.713 176.153 169.053 176.533 169.43 176.533C169.808 176.533 169.955 176.155 169.83 175.637ZM167.948 175.64C167.751 174.827 168.108 174.187 168.862 174.187C169.613 174.185 170.271 174.814 170.471 175.637C170.669 176.45 170.315 177.09 169.556 177.09C168.799 177.092 168.147 176.463 167.948 175.64Z" fill="#94B0ED"/>
<path d="M172.149 170.617C172.025 170.107 171.68 169.722 171.307 169.724C170.933 169.724 170.78 170.098 170.907 170.619C171.032 171.133 171.371 171.514 171.748 171.514C172.125 171.512 172.274 171.135 172.149 170.617ZM170.267 170.62C170.068 169.805 170.425 169.167 171.181 169.165C171.93 169.164 172.59 169.794 172.789 170.616C172.986 171.431 172.634 172.069 171.875 172.071C171.116 172.072 170.466 171.443 170.267 170.62Z" fill="#94B0ED"/>
<path d="M175.921 170.611C175.797 170.101 175.453 169.716 175.079 169.718C174.707 169.718 174.554 170.091 174.68 170.612C174.804 171.127 175.143 171.507 175.522 171.507C175.899 171.506 176.046 171.129 175.921 170.611ZM174.039 170.614C173.842 169.799 174.198 169.161 174.952 169.159C175.703 169.158 176.364 169.786 176.562 170.609C176.759 171.424 176.407 172.063 175.649 172.064C174.89 172.066 174.238 171.437 174.039 170.614Z" fill="#94B0ED"/>
<path d="M274.319 121.842L273.852 121.963L273.601 121.457L274.358 121.215H274.783L275.468 124.043L274.852 124.045L274.319 121.842Z" fill="#94B0ED"/>
<path d="M278.414 122.634C278.291 122.124 277.947 121.739 277.573 121.741C277.2 121.741 277.047 122.115 277.174 122.636C277.297 123.149 277.637 123.531 278.014 123.529C278.392 123.529 278.539 123.152 278.414 122.634ZM276.532 122.637C276.335 121.822 276.692 121.184 277.446 121.183C278.197 121.181 278.857 121.81 279.056 122.633C279.253 123.448 278.899 124.086 278.142 124.088C277.383 124.089 276.731 123.46 276.532 122.637Z" fill="#94B0ED"/>
<path d="M282.188 122.627C282.064 122.117 281.718 121.732 281.346 121.734C280.972 121.734 280.819 122.108 280.945 122.629C281.071 123.142 281.41 123.524 281.787 123.522C282.164 123.522 282.313 123.145 282.188 122.627ZM280.304 122.63C280.107 121.815 280.464 121.177 281.219 121.175C281.969 121.174 282.629 121.803 282.827 122.626C283.025 123.441 282.673 124.079 281.914 124.081C281.155 124.082 280.504 123.453 280.304 122.63Z" fill="#94B0ED"/>
<path d="M285.959 122.621C285.836 122.111 285.492 121.726 285.118 121.726C284.745 121.728 284.592 122.102 284.719 122.623C284.842 123.136 285.182 123.518 285.561 123.516C285.938 123.516 286.085 123.137 285.959 122.621ZM284.077 122.624C283.88 121.809 284.237 121.171 284.991 121.169C285.742 121.168 286.402 121.797 286.601 122.62C286.798 123.435 286.446 124.073 285.687 124.074C284.928 124.076 284.276 123.446 284.077 122.624Z" fill="#94B0ED"/>
<path d="M288.14 121.819L287.674 121.939L287.422 121.434L288.179 121.191H288.605L289.29 124.02L288.674 124.021L288.14 121.819Z" fill="#94B0ED"/>
<path d="M272.14 129.417C272.016 128.909 271.67 128.524 271.298 128.524C270.924 128.525 270.771 128.898 270.897 129.42C271.023 129.933 271.362 130.315 271.739 130.314C272.116 130.314 272.265 129.935 272.14 129.417ZM270.258 129.422C270.059 128.607 270.416 127.969 271.171 127.967C271.921 127.965 272.581 128.594 272.779 129.417C272.977 130.231 272.625 130.871 271.866 130.872C271.107 130.872 270.456 130.243 270.258 129.422Z" fill="#94B0ED"/>
<path d="M274.319 128.614L273.852 128.736L273.601 128.231L274.358 127.989H274.783L275.468 130.817L274.852 130.819L274.319 128.614Z" fill="#94B0ED"/>
<path d="M278.414 129.407C278.291 128.898 277.947 128.513 277.573 128.513C277.2 128.514 277.047 128.888 277.174 129.409C277.297 129.922 277.637 130.304 278.014 130.302C278.392 130.302 278.539 129.924 278.414 129.407ZM276.532 129.411C276.335 128.596 276.692 127.957 277.446 127.956C278.197 127.954 278.857 128.583 279.056 129.406C279.253 130.221 278.899 130.859 278.142 130.861C277.383 130.862 276.731 130.232 276.532 129.411Z" fill="#7ADEFF"/>
<path d="M282.188 129.401C282.064 128.891 281.718 128.507 281.346 128.507C280.972 128.508 280.819 128.88 280.945 129.403C281.071 129.916 281.41 130.298 281.787 130.296C282.164 130.296 282.313 129.918 282.188 129.401ZM280.304 129.405C280.107 128.589 280.464 127.951 281.219 127.95C281.969 127.948 282.629 128.577 282.827 129.4C283.025 130.215 282.673 130.853 281.914 130.855C281.155 130.856 280.504 130.226 280.304 129.405Z" fill="#7ADEFF"/>
<path d="M285.959 129.395C285.836 128.885 285.492 128.5 285.118 128.5C284.745 128.502 284.592 128.874 284.719 129.397C284.842 129.91 285.182 130.291 285.561 130.29C285.938 130.29 286.085 129.911 285.959 129.395ZM284.077 129.398C283.88 128.583 284.237 127.945 284.991 127.943C285.742 127.942 286.402 128.571 286.601 129.393C286.798 130.209 286.446 130.847 285.687 130.848C284.928 130.85 284.276 130.219 284.077 129.398Z" fill="#7ADEFF"/>
<path d="M288.14 128.592L287.674 128.713L287.422 128.207L288.179 127.965H288.605L289.29 130.793L288.674 130.795L288.14 128.592Z" fill="#7ADEFF"/>
<path d="M287.372 167.731L286.907 167.851L286.654 167.346L287.411 167.104H287.838L288.522 169.932L287.905 169.934L287.372 167.731Z" fill="#94B0ED"/>
<path d="M291.468 168.522C291.346 168.012 291 167.628 290.628 167.629C290.254 167.629 290.1 168.003 290.227 168.524C290.351 169.039 290.692 169.419 291.069 169.419C291.446 169.417 291.594 169.04 291.468 168.522ZM289.586 168.526C289.389 167.711 289.745 167.072 290.499 167.071C291.25 167.069 291.91 167.698 292.109 168.521C292.306 169.336 291.954 169.974 291.196 169.976C290.437 169.977 289.786 169.349 289.586 168.526Z" fill="#94B0ED"/>
<path d="M295.241 168.516C295.118 168.006 294.773 167.621 294.4 167.623C294.027 167.623 293.874 167.997 293.999 168.517C294.124 169.031 294.464 169.412 294.841 169.411C295.218 169.411 295.366 169.034 295.241 168.516ZM293.359 168.519C293.162 167.704 293.519 167.066 294.273 167.064C295.024 167.063 295.682 167.691 295.883 168.514C296.08 169.329 295.726 169.968 294.967 169.969C294.209 169.971 293.558 169.342 293.359 168.519Z" fill="#94B0ED"/>
<path d="M283.666 172.335L283.2 172.456L282.948 171.95L283.705 171.709L284.131 171.708L284.816 174.536L284.2 174.538L283.666 172.335Z" fill="#94B0ED"/>
<path d="M287.762 173.126C287.638 172.616 287.294 172.231 286.92 172.233C286.548 172.233 286.394 172.607 286.521 173.128C286.645 173.643 286.984 174.023 287.361 174.023C287.74 174.021 287.887 173.644 287.762 173.126ZM285.88 173.129C285.683 172.314 286.039 171.676 286.793 171.674C287.544 171.673 288.203 172.303 288.403 173.125C288.6 173.94 288.247 174.578 287.488 174.58C286.731 174.581 286.078 173.952 285.88 173.129Z" fill="#94B0ED"/>
<path d="M291.535 173.12C291.411 172.61 291.065 172.225 290.693 172.226C290.319 172.226 290.166 172.6 290.293 173.121C290.418 173.636 290.757 174.016 291.134 174.016C291.511 174.015 291.66 173.637 291.535 173.12ZM289.651 173.123C289.454 172.308 289.811 171.669 290.566 171.668C291.316 171.666 291.976 172.297 292.175 173.118C292.372 173.933 292.02 174.571 291.261 174.573C290.502 174.575 289.851 173.946 289.651 173.123Z" fill="#94B0ED"/>
<path d="M299.013 168.51C298.891 168 298.545 167.615 298.173 167.615C297.799 167.617 297.645 167.991 297.772 168.512C297.897 169.025 298.237 169.406 298.614 169.405C298.991 169.405 299.139 169.028 299.013 168.51ZM297.131 168.513C296.934 167.698 297.29 167.06 298.046 167.058C298.795 167.057 299.455 167.686 299.654 168.508C299.851 169.324 299.499 169.962 298.74 169.963C297.982 169.965 297.331 169.336 297.131 168.513Z" fill="#94B0ED"/>
<path d="M301.194 167.707L300.727 167.828L300.476 167.322L301.233 167.08H301.658L302.343 169.908L301.727 169.91L301.194 167.707Z" fill="#94B0ED"/>
<path d="M352.065 135.85C353.467 135.718 356.689 136.095 358.794 138.968C360.898 141.84 359.441 145.227 364.702 147.836C369.963 150.446 369.208 153.737 368.155 157.866C367.104 161.994 362.692 166.984 357.431 166.74C352.17 166.498 343.173 155.666 343.497 152.033C343.821 148.402 345.383 147.968 344.144 145.566C342.201 141.804 345.803 136.444 352.065 135.85Z" fill="#163560"/>
<path d="M354.118 153.078C354.144 153.04 354.158 153.019 354.155 153.017C353.573 152.809 353.523 151.958 354.063 148.416L353.783 148.429L349.086 148.654C349.086 148.654 348.977 150.104 348.778 151.457C348.739 151.726 348.697 151.992 348.65 152.241C345.116 155.761 352.724 157.352 354.118 153.078Z" fill="#FFB27D"/>
<path d="M344.518 248.374H354.665C354.665 248.374 354.909 246.828 354.379 245.655C353.87 244.529 353.08 243.834 353.008 242.972C352.364 243.635 351.571 244.063 350.103 243.865C349.923 244.156 348.942 245.716 348.343 246.148C347.68 246.623 344.723 246.454 344.518 248.374Z" fill="#143D7A"/>
<path d="M356.428 206.897C355.483 209.23 354.756 211.349 354.984 213.219L354.986 213.23C355.013 213.436 355.05 213.638 355.1 213.84C358.429 227.153 353.709 244.49 353.709 244.49C353.709 244.49 352.463 244.779 351.56 244.859C349.96 245.001 349.726 244.526 349.726 244.526C349.726 244.526 348.139 230.388 342.998 203.361C342.256 199.458 341.964 197.298 341.696 193.828C341.615 192.789 341.538 191.633 341.452 190.278C341.219 186.636 341.771 180.505 344.504 178.896C345.748 178.16 347.441 178.362 349.717 180.155C349.897 180.297 350.068 180.466 350.268 180.61C364.249 190.674 359.318 199.779 356.428 206.897Z" fill="#2F539B"/>
<path d="M354.984 213.219C354.828 212.671 349.798 195.101 349.714 193.767C349.531 190.896 356.178 198.823 356.428 206.897C355.483 209.23 354.756 211.349 354.984 213.219Z" fill="#233862"/>
<path d="M390.565 227.02L386.341 217.793C386.341 217.793 384.835 218.216 383.988 219.186C383.176 220.117 382.588 219.951 380.738 218.666C381.434 219.743 381.528 220.376 381.959 221.794C382.299 221.834 384.234 223.707 386.216 224.223C387.006 224.428 388.733 227.634 390.565 227.02Z" fill="#143D7A"/>
<path d="M346.288 182.945C346.288 182.945 355.38 214.554 358.712 216.589C362.043 218.623 378.516 222.67 383.38 223.641C383.38 223.641 383.553 222.326 383.298 220.998C383.242 220.702 382.74 219.641 382.74 219.641C382.74 219.641 374.09 210.987 365.638 209.774C363.868 209.521 366.348 181.881 354.341 180.799C343.375 179.808 346.288 182.945 346.288 182.945Z" fill="#2F539B"/>
<path d="M332.809 133.201C332.809 133.201 333.012 132.189 333.242 131.415C333.342 131.074 332.637 128.826 332.148 128.549C331.66 128.273 330.388 129.786 330.748 130.949C330.933 131.545 331.236 133.488 331.236 133.488L332.809 133.201Z" fill="#FFB27D"/>
<path d="M374.794 135.081C374.855 135.209 374.943 135.439 375.019 135.655C375.021 135.595 375.021 135.537 375.023 135.481C375.026 135.051 376.631 132.714 377.289 132.567C377.95 132.421 378.88 134.611 378.056 135.821C377.634 136.443 376.355 138.66 376.355 138.66L374.94 137.804C374.94 137.804 374.93 137.208 374.549 136.725C374.356 136.481 374.35 135.334 374.281 134.835C374.281 134.835 374.564 134.608 374.794 135.081Z" fill="#FFB27D"/>
<path d="M349.086 148.655C349.086 148.655 348.977 150.105 348.778 151.458C351.342 151.766 353.038 149.639 353.783 148.429L349.086 148.655Z" fill="#151515"/>
<path d="M354.664 147.836C354.664 147.836 356.46 145.756 357.101 143.844C357.558 142.48 357.617 137.177 352.283 137.148C352.283 137.148 350.745 137.072 349.176 137.823C347.927 138.42 346.045 139.83 347.2 144.637L347.447 146.239L354.664 147.836Z" fill="#163560"/>
<path d="M347.837 149.798C347.837 149.798 354.382 150.882 354.995 146.795C355.607 142.708 356.865 140.096 352.711 139.231C348.558 138.366 347.51 139.803 346.975 141.117C346.438 142.431 346.149 149.41 347.837 149.798Z" fill="#FFB27D"/>
<path d="M349.082 138.66C349.082 138.66 350.821 143.749 353.473 144.868C356.125 145.988 357.431 145.426 357.431 145.426C357.431 145.426 355.565 143.431 355.563 140.434C355.563 140.434 350.776 136.579 349.082 138.66Z" fill="#163560"/>
<path d="M350.125 139.141C350.125 139.141 348.919 139.459 347.847 140.754C347.143 141.603 346.896 142.785 346.58 143.952C346.58 143.952 345.712 140.491 347.506 138.874C349.41 137.157 350.125 139.141 350.125 139.141Z" fill="#163560"/>
<path d="M376.617 138.678C376.617 138.678 375.179 150.419 372.147 153.225C370.043 155.173 362.597 158.316 360.818 161.212C360.605 161.557 360.346 162.537 360.142 163.99C359.54 168.247 359.391 176.559 362.163 184.905C362.292 185.291 362.426 185.677 362.569 186.064C362.946 187.095 362.437 188.237 361.403 188.604C360.1 189.069 358.184 189.651 355.918 190.039C355.488 190.114 355.042 190.18 354.59 190.238C348.343 191.031 344.116 189.565 341.968 188.481C340.955 187.969 340.341 186.904 340.404 185.77C340.532 183.453 341.693 181.161 342.216 175.59C342.611 171.363 339.727 165.403 339.882 163.153C339.943 162.265 340.382 158.316 339.935 157.704C336.964 153.624 331.967 149.716 331.199 145.992C330.314 141.696 330.886 133.126 330.886 133.126C331.132 133.04 331.8 132.775 332.274 132.775C333.115 132.774 333.708 133.55 333.708 133.55C333.708 133.55 335.938 141.899 336.05 142.461C336.643 145.455 342.339 149.795 344.063 150.664C345.953 151.62 347.463 152.132 348.652 152.243C348.652 152.243 347.247 154.669 349.324 155.006C351.826 155.411 353.758 152.535 353.758 152.535C353.758 152.535 355.277 152.963 358.013 152.559C360.283 152.226 368.363 149.494 369.53 147.421C370.381 145.913 374.866 137.553 374.866 137.553C374.866 137.553 375.282 137.311 375.952 137.66C376.614 138.004 376.617 138.678 376.617 138.678Z" fill="#AEC3FF"/>
<path d="M349.737 147.578C349.737 147.578 349.457 148.143 349.08 148.154C348.705 148.163 347.747 148.072 347.681 147.975C347.617 147.878 347.458 147.287 347.458 147.287C347.458 147.287 349.041 147.224 349.737 147.578Z" fill="white"/>
<path d="M362.163 184.905C362.163 184.905 356.544 183.941 356.172 179.942C355.774 175.681 360.137 163.982 360.137 163.982L360.142 163.99C359.54 168.247 359.391 176.559 362.163 184.905Z" fill="#94B0ED"/>
<path d="M348.468 86.4993L347.883 84.3514C347.255 82.0486 345.291 80.3575 342.921 80.0774L327.651 78.2737L326.506 87.9636L321.62 129.333L384.791 136.793L389.677 95.4258L353.93 91.2035C351.32 90.8953 349.16 89.0337 348.468 86.4993Z" fill="#4169E1"/>
<path d="M333.511 110.449L333.946 106.768L347.524 102.638L347.079 106.398L337.626 109.041L346.203 113.814L345.753 117.628L333.511 110.449Z" fill="white"/>
<path d="M361.458 99.8219L364.899 100.229L350.166 123.531L346.726 123.124L361.458 99.8219Z" fill="white"/>
<path d="M378.059 111.979L377.624 115.658L364.048 119.788L364.493 116.027L373.945 113.385L365.369 108.614L365.819 104.799L378.059 111.979Z" fill="white"/>
<path d="M374.439 136.411C374.439 136.411 374.253 134.784 374.09 134.481C373.929 134.177 374.333 134.09 374.677 134.784C375.023 135.48 375.709 135.271 376.054 135.959C376.398 136.646 376.094 136.829 375.669 136.788C375.245 136.748 374.439 136.411 374.439 136.411Z" fill="#FFB27D"/>
<path d="M332.923 132.674C332.923 132.674 333.849 131.671 333.844 131.224C333.84 130.775 334.492 129.665 334.311 129.464C334.127 129.26 333.805 129.584 333.633 129.888C333.459 130.191 332.752 130.172 332.59 131.001C332.429 131.831 332.923 132.674 332.923 132.674Z" fill="#FFB27D"/>
<path d="M186.263 127.53L210.25 138.036V128.687L197.752 123.548L210.25 118.409V109.148L186.263 119.654V127.53Z" fill="#2C3A64"/>
<path d="M232.303 102.673L211.577 145.999H220.337L241.064 102.673H232.303Z" fill="#2C3A64"/>
<path d="M242.669 109.148V118.497L255.167 123.636L242.669 128.775V138.036L266.656 127.53V119.654L242.669 109.148Z" fill="#2C3A64"/>
<path d="M211.577 145.999V143.524H220.337V145.999H211.577Z" fill="#2C3A64"/>
<path d="M241.064 100.198V102.673H236.972V100.2L241.064 100.198Z" fill="#2C3A64"/>
<path d="M186.263 125.057L210.25 135.563V126.215L197.752 121.076L210.25 115.935V106.674L186.263 117.18V125.057Z" fill="#2B478B"/>
<path d="M232.303 100.199L211.577 143.525H220.337L241.064 100.199H232.303Z" fill="#2B478B"/>
<path d="M242.669 106.674V116.022L255.167 121.163L242.669 126.302V135.563L266.656 125.057V117.18L242.669 106.674Z" fill="#2B478B"/>
<path d="M320.791 193.997H319.33L307.373 148.373L292.003 89.7234H120.35L146.352 193.997L144.496 194.016L118.18 88.3076L293.21 88.1558L293.364 88.7393L308.729 147.705L320.791 193.997Z" fill="#94B0ED"/>
<path d="M321.055 195.014L319.646 195.203L307.373 148.373L308.729 147.705L321.055 195.014Z" fill="#AEC3FF"/>
<path d="M144.878 114.288C144.559 114.655 144.517 115.065 144.676 115.505L144.679 115.511C144.972 116.322 145.942 117.226 147.068 118.13C147.21 118.247 147.339 118.352 147.451 118.451C147.48 118.476 147.509 118.501 147.537 118.527C147.559 118.548 147.581 118.568 147.603 118.587C148.653 119.555 148.257 119.776 150.144 121.741C152.295 123.978 153.775 124.018 154.196 123.814C154.552 123.64 153.828 122.454 153.027 121.12C152.988 121.055 152.949 120.99 152.91 120.926C152.803 120.749 152.697 120.567 152.59 120.389C151.65 118.784 151.891 118.031 152.115 115.643C152.295 113.701 155.134 104.797 155.134 104.797L151.014 104.086C151.014 104.086 149.773 111.176 148.406 112.27C147.674 112.852 146.855 112.858 146.153 113.29C146.103 113.319 146.054 113.351 146.006 113.382C145.607 113.646 145.2 113.92 144.878 114.288Z" fill="#FFB27D"/>
<path d="M144.878 114.288C144.559 114.655 144.517 115.065 144.676 115.505L144.679 115.511C145.038 116.32 145.982 117.221 147.071 118.122C147.214 118.24 147.339 118.349 147.451 118.451C147.48 118.476 147.509 118.501 147.537 118.527C147.559 118.548 147.581 118.568 147.603 118.587C148.653 119.555 148.257 119.776 150.144 121.741C152.295 123.978 153.775 124.018 154.196 123.814C154.552 123.64 153.828 122.454 153.027 121.12C152.608 120.966 150.663 120.176 149.193 118.296C147.897 116.642 147.034 114.519 146.153 113.29C146.103 113.319 146.054 113.351 146.006 113.382C145.607 113.646 145.2 113.92 144.878 114.288Z" fill="#233862"/>
<path d="M178.109 111.714C178.364 112.986 180.177 112.775 182.203 112.279C184.229 111.784 183.747 112.373 186.631 112.053C189.514 111.734 190.388 110.66 190.476 110.231C190.554 109.849 189.13 109.716 187.602 109.539C187.41 109.518 187.217 109.494 187.023 109.471C185.298 109.255 184.035 108.141 182.468 107.226C180.983 106.361 178.768 102.831 178.768 102.831L174.813 103.146C174.813 103.146 176.889 106.296 177.691 107.667C178.164 108.472 178.139 109.538 178.079 110.361C178.048 110.808 178.02 111.267 178.109 111.714Z" fill="#FFB27D"/>
<path d="M182.203 112.279C184.229 111.784 183.747 112.373 186.631 112.053C189.514 111.734 190.388 110.66 190.476 110.231C190.554 109.849 189.131 109.716 187.602 109.539L187.588 109.569C187.588 109.569 185.858 110.796 183.458 110.852C181.503 110.9 179.43 110.339 178.08 110.361C178.048 110.808 178.02 111.267 178.109 111.714C178.364 112.986 180.177 112.775 182.203 112.279Z" fill="#233862"/>
<path d="M162.956 86.43L159.259 96.3765L154.433 109.364C154.433 109.364 153.124 109.491 151.871 109.13C150.716 108.796 149.391 107.923 149.391 107.923C149.391 107.923 150.73 93.9783 153.23 85.9732C153.872 83.9191 154.59 82.2562 155.381 81.3206C159.256 76.7416 162.956 86.43 162.956 86.43Z" fill="#2C3A64"/>
<path d="M159.199 70.6336C156.777 69.8514 149.87 70.8542 142.932 72.2137L141.479 69.817L126.492 68.6468C126.492 68.6468 121.547 79.6133 124.255 86.6015C124.653 87.6278 125.443 88.2864 126.791 88.3083H127.01C127.01 88.3083 135.93 88.3036 138.825 88.3036C146.278 88.3036 154.598 83.1802 155.674 82.9643C157.437 82.6123 158.141 86.1353 159.903 89.8352C161.664 93.535 176.462 106.219 176.462 106.219C176.462 106.219 178.737 106.241 179.677 105.889C180.687 105.511 181.057 105.018 181.057 105.018C181.057 105.018 164.66 72.3952 159.199 70.6336Z" fill="#2F539B"/>
<path d="M136.513 24.1948C134.414 23.6551 131.538 24.1932 131.063 24.2402C125.36 24.8018 123.444 31.1627 124.307 36.0968C125.104 40.6524 122.793 41.9117 120.116 45.5099C114.748 52.7218 118.257 58.8042 122.493 60.3717C125.034 61.3119 128.562 58.9387 128.562 58.9387C128.626 58.9653 139.65 51.7174 144.168 47.6312C151.694 44.687 141.865 25.5715 136.513 24.1948Z" fill="#2B478B"/>
<path d="M137.355 45.0578C137.505 45.585 135.012 46.5549 133.108 46.1982C131.316 45.865 129.308 43.7671 129.722 43.57C130.408 43.2446 130.869 42.4342 130.494 38.0555L130.835 38.093L136.567 38.7485C136.567 38.7485 136.584 40.5335 136.717 42.2058C136.828 43.6091 137.111 44.1973 137.355 45.0578Z" fill="#FFB27D"/>
<path d="M136.566 38.7481C136.566 38.7481 136.584 40.5331 136.717 42.2054C133.553 42.3744 131.65 39.6335 130.834 38.0926L136.566 38.7481Z" fill="#151515"/>
<path d="M137.749 40.2439C137.749 40.2439 130.293 40.9792 129.906 36.3298C129.52 31.6788 128.297 28.6423 133.041 27.9759C137.786 27.3094 138.859 29.0068 139.366 30.5274C139.873 32.048 139.679 39.9326 137.749 40.2439Z" fill="#FFB27D"/>
<path d="M136.951 27.2426C136.951 27.2426 136.011 32.923 131.765 34.2715C128.667 35.2555 127.264 34.6063 127.264 34.6063C127.264 34.6063 128.756 32.6289 129.286 29.8802C129.442 29.0699 130.018 28.4019 130.802 28.1453C133.003 27.421 135.67 25.4404 136.951 27.2426Z" fill="#2B478B"/>
<path d="M135.545 28.4535C135.545 28.4535 136.951 28.7664 138.197 30.5796C138.877 31.5714 139.664 34.0682 139.529 35.1758C139.529 35.1758 140.836 29.9163 138.932 27.9607C136.914 25.8863 135.545 28.4535 135.545 28.4535Z" fill="#2B478B"/>
<path d="M123.929 60.3344C124.062 60.8992 124.176 61.4186 124.269 61.8989C124.42 62.6717 124.525 63.3381 124.598 63.9263C124.826 65.7614 124.757 66.8471 124.911 68.036C124.997 68.7009 125.153 69.3986 125.469 70.2731C125.778 71.1257 133.881 71.8845 138.491 71.5794C139.954 71.484 141.069 71.2775 141.465 70.9364C143.109 69.5081 142.946 72.6495 143.172 57.6186C143.281 50.2863 136.95 43.7564 136.95 43.7564C136.95 43.7564 136.445 46.8884 130.167 43.1619C129.944 43.0305 127.471 46.6913 125.092 51.1999C122.47 56.1794 123.189 57.2338 123.929 60.3344Z" fill="#7ADEFF"/>
<path d="M159.259 96.3765L154.433 109.364C154.433 109.364 153.124 109.491 151.871 109.13C150.716 108.796 149.391 107.923 149.391 107.923C149.391 107.923 150.73 93.9783 153.23 85.9732L159.259 96.3765Z" fill="#2B478B"/>
<path d="M136.951 43.7561C136.951 43.7561 143.411 44.8512 144.168 47.6311C144.927 50.4126 150.167 65.9675 150.167 65.9675C150.167 65.9675 146.108 67.3536 144.59 65.8361C143.073 64.3186 139.312 51.7611 139.312 51.7611L136.951 43.7561Z" fill="#7ADEFF"/>
<path d="M163.283 62.3933L164.813 61.7863C164.813 61.7863 165.733 61.583 166.231 61.7394C166.728 61.8958 167.972 61.8786 167.978 62.0836C167.984 62.2869 166.561 62.9221 166.561 62.9221L166.516 62.9049C167.057 64.1298 169.762 64.8291 169.893 65.2781C170.051 65.8225 168.792 66.1041 168.107 66.2746C167.421 66.4451 165.741 66.4279 164.912 65.555C164.308 64.9152 163.283 64.0375 163.283 64.0375V62.3933Z" fill="#FFB27D"/>
<path d="M136.028 37.5018C136.028 37.5018 136.341 38.2668 137.167 38.2668C137.992 38.2668 138.215 38.1432 138.372 37.968C138.528 37.7944 138.683 37.4565 138.683 37.4565C138.683 37.4565 137.314 37.1874 136.028 37.5018Z" fill="white"/>
<path d="M148.367 60.5926L164.006 61.7862C164.006 61.7862 164.333 63.3037 163.324 65.023C163.324 65.023 149.216 67.7811 145.533 66.3731C141.852 64.9636 142.267 58.3211 142.267 58.3211L148.367 60.5926Z" fill="#7ADEFF"/>
<path d="M124.598 63.9257C124.826 65.7607 124.757 66.8464 124.911 68.0353C130.777 68.0541 138.617 63.5064 138.617 63.5064L124.598 63.9257Z" fill="#3D3D3D"/>
<path d="M138.617 59.6603C138.617 59.6603 129.481 59.3881 127.941 54.1942C126.249 48.4889 124.354 56.5409 124.354 56.5409L125.362 61.6799H135.387L138.617 59.6603Z" fill="#3D3D3D"/>
<path d="M154.546 45.5682L154.053 44.3448C153.523 43.0338 152.251 42.1765 150.837 42.1765H141.729V47.9555V72.6309H179.408V47.9555H158.086C156.53 47.9555 155.13 47.0106 154.546 45.5682Z" fill="black"/>
<path d="M147.412 60.6955V58.4991L155.112 55.1262V57.3696L149.734 59.5816L155.112 61.7921V64.0684L147.412 60.6955Z" fill="white"/>
<path d="M163.113 52.5032H165.165L158.118 67.2336H156.067L163.113 52.5032Z" fill="white"/>
<path d="M173.724 58.4991V60.6955L166.024 64.0684V61.825L171.401 59.6129L166.024 57.4024V55.1262L173.724 58.4991Z" fill="white"/>
<path d="M138.617 60.8642L139.278 59.8254C139.278 59.8254 139.802 59.6549 140.535 59.1402C141.408 58.527 141.293 57.6087 141.729 57.7072L141.734 59.7238L141.687 59.7316C143.559 60.2306 145.75 59.6878 145.793 60.154C145.914 61.4368 144.922 62.0141 144.09 62.4161C143.455 62.7227 142.732 63.1842 141.582 62.826C140.742 62.5647 139.42 62.2988 139.42 62.2988L138.617 60.8642Z" fill="#FFB27D"/>
<path d="M130.166 43.1615C130.166 43.1615 124.235 43.5495 122.752 45.8633C121.269 48.177 119.43 59.921 120.201 63.9556C120.972 67.9887 139.966 63.1844 139.966 63.1844L139.36 59.6848C139.36 59.6848 128.399 59.7474 127.774 58.3206C126.944 56.4214 130.166 43.1615 130.166 43.1615Z" fill="#7ADEFF"/>
<path d="M158.797 47.9422C158.747 48.0955 159.688 49.649 161.035 49.3799C161.875 49.2109 162.967 47.4025 162.008 47.0036C160.408 46.3387 158.933 47.5308 158.797 47.9422Z" fill="#FFB27D"/>
</svg>
