<svg width="303" height="176" viewBox="0 0 303 176" fill="none" xmlns="http://www.w3.org/2000/svg">
<path d="M279.031 94.8388C259.462 75.7832 225.743 76.8271 202.584 89.8254C172.362 106.787 135.672 102.772 103.554 89.6543C81.0987 80.4828 54.9568 77.9883 34.7799 103.23C20.008 121.71 12.0565 146.441 21.3893 167.861C21.9315 169.105 22.5742 170.306 23.2933 171.471H285.38C298.177 145.159 297.659 112.979 279.031 94.8388Z" fill="#3D3D3D"/>
<path d="M21.1055 167.972C15.0117 152.464 12.5406 138.386 13.7609 126.129C14.8383 115.307 18.7362 106.103 25.3467 98.7734C31.6553 91.7781 40.244 86.7882 50.1843 84.3429C59.3313 82.0927 69.1215 82.1732 77.7512 84.5696C90.7663 88.1835 99.4258 96.4071 101.51 107.132L100.911 107.248C98.8734 96.7585 90.3723 88.7065 77.588 85.1567C69.0575 82.788 59.377 82.7091 50.3298 84.9345C40.5084 87.3505 32.0259 92.277 25.7993 99.1813C19.2777 106.413 15.4315 115.499 14.3672 126.189C13.1566 138.349 15.6145 152.332 21.6727 167.749L21.1055 167.972Z" fill="#3D3D3D"/>
<path d="M291.461 162.972L290.855 162.908C291.803 153.939 291.46 145.261 289.834 137.117C288.301 129.434 285.625 122.202 281.882 115.622C274.822 103.211 264.166 93.3845 251.067 87.2037C244.657 84.1791 237.844 82.1235 230.819 81.0943C223.715 80.0535 216.547 80.0861 209.514 81.1912C194.542 83.5443 180.841 90.677 169.89 101.818L169.456 101.391C180.498 90.156 194.318 82.9629 209.42 80.5892C216.512 79.4745 223.742 79.4415 230.908 80.4914C237.992 81.5295 244.862 83.6024 251.327 86.6527C264.541 92.8873 275.29 102.8 282.412 115.32C286.188 121.958 288.886 129.251 290.432 136.998C292.07 145.202 292.416 153.941 291.461 162.972Z" fill="#3D3D3D"/>
<path d="M192.324 32.8081H188.135V28.6203H186.356V32.8081H182.167V34.5871H186.356V38.7753H188.135V34.5871H192.324V32.8081Z" fill="#3D3D3D"/>
<path d="M141.066 40.7119H137.61V37.2567H136.142V40.7119H132.686V42.1796H136.142V45.6351H137.61V42.1796H141.066V40.7119Z" fill="#3D3D3D"/>
<path d="M154.62 3.79774H151.604V0.78241H150.323V3.79774H147.307V5.07858H150.323V8.09403H151.604V5.07858H154.62V3.79774Z" fill="#3D3D3D"/>
<path d="M172.074 57.9645C176.955 53.0854 176.955 45.1749 172.074 40.2958C167.194 35.4167 159.281 35.4167 154.401 40.2958C149.52 45.1749 149.52 53.0854 154.401 57.9645C159.281 62.8436 167.194 62.8436 172.074 57.9645Z" fill="#3D3D3D"/>
<path d="M164.665 55.3289V57.2452H162.229V55.4153C160.502 55.3121 158.827 54.8452 157.791 54.2069L159.103 51.2367C160.243 51.9101 161.762 52.3418 163.093 52.3418C164.25 52.3418 164.665 52.1 164.665 51.6852C164.665 50.166 157.98 51.392 157.98 46.8851C157.98 44.9335 159.397 43.2935 162.229 42.8963V41.0144H164.665V42.8619C165.942 42.9828 167.186 43.3111 168.171 43.8637L166.945 46.8162C165.752 46.2117 164.63 45.9185 163.576 45.9185C162.384 45.9185 162.004 46.2637 162.004 46.6777C162.004 48.1287 168.689 46.9195 168.689 51.3745C168.688 53.2396 167.341 54.8628 164.665 55.3289Z" fill="#B5B5B5"/>
<path d="M148.943 25.0008C149.764 21.525 147.611 18.042 144.134 17.2212C140.658 16.4005 137.174 18.5529 136.353 22.0287C135.532 25.5045 137.685 28.9875 141.161 29.8083C144.638 30.629 148.122 28.4767 148.943 25.0008Z" fill="#3D3D3D"/>
<path d="M143.381 26.7131V27.7051H142.12V26.7579C141.226 26.7044 140.359 26.4629 139.823 26.1325L140.502 24.5951C141.092 24.9436 141.878 25.1671 142.567 25.1671C143.166 25.1671 143.381 25.042 143.381 24.8273C143.381 24.0409 139.921 24.6755 139.921 22.3427C139.921 21.3325 140.654 20.4837 142.12 20.278V19.3039H143.381V20.2602C144.042 20.3228 144.686 20.4927 145.196 20.7787L144.561 22.307C143.944 21.9941 143.363 21.8423 142.818 21.8423C142.2 21.8423 142.004 22.021 142.004 22.2352C142.004 22.9863 145.464 22.3604 145.464 24.6663C145.464 25.6316 144.766 26.4719 143.381 26.7131Z" fill="#B5B5B5"/>
<path d="M169.47 27.9265C173.882 27.9265 177.46 24.3503 177.46 19.9389C177.46 15.5274 173.882 11.9512 169.47 11.9512C165.057 11.9512 161.48 15.5274 161.48 19.9389C161.48 24.3503 165.057 27.9265 169.47 27.9265Z" fill="#3D3D3D"/>
<path d="M170.381 23.9014V25.1266H168.824V23.9567C167.72 23.8907 166.649 23.5922 165.986 23.1842L166.825 21.2852C167.554 21.7157 168.526 21.9917 169.376 21.9917C170.116 21.9917 170.381 21.8371 170.381 21.5719C170.381 20.6007 166.108 21.3845 166.108 18.5031C166.108 17.2554 167.013 16.2069 168.824 15.9529V14.7497H170.381V15.9309C171.198 16.0082 171.993 16.2181 172.623 16.5714L171.839 18.459C171.076 18.0725 170.359 17.885 169.685 17.885C168.923 17.885 168.68 18.1057 168.68 18.3704C168.68 19.2981 172.954 18.5251 172.954 21.3732C172.954 22.5657 172.092 23.6034 170.381 23.9014Z" fill="#B5B5B5"/>
<path d="M16.2344 170.538C15.2563 171.696 1.26634 135.611 7.50548 134.678C13.6933 133.752 18.4226 167.948 16.2344 170.538Z" fill="#3D3D3D"/>
<path d="M16.8186 170.173C16.8186 170.173 5.54711 141.91 0.911954 147.727C-2.87028 152.474 12.4908 170.317 16.8186 170.173Z" fill="#F5F5F5"/>
<path d="M16.1005 170.295C16.1005 170.295 14.7201 143.049 18.4735 143.01C26.1769 142.932 19.7061 169.067 16.1005 170.295Z" fill="#F5F5F5"/>
<path d="M18.8647 169.661C18.8647 169.661 15.4964 169.418 14.3608 168.365C11.4726 165.688 5.03136 160.981 3.52289 163.765C1.42153 167.644 7.37479 174.929 18.8647 169.661Z" fill="#648EF9"/>
<path d="M13.3809 171.234C13.3809 171.234 16.0453 170.03 16.4958 169.073C18.1386 165.587 22.4357 159.168 25.2625 159.992C29.7524 161.3 26.3071 172.964 13.3809 171.234Z" fill="#648EF9"/>
<path d="M290.652 170.882C291.843 171.802 299.311 138.335 292.718 138.163C286.179 137.993 287.986 168.823 290.652 170.882Z" fill="#3D3D3D"/>
<path d="M290.553 171.386C290.553 171.386 295.872 144.348 301.571 149.002C306.221 152.8 295.048 171.061 290.553 171.386Z" fill="#F5F5F5"/>
<path d="M290.946 171.471C290.946 171.471 286.572 146.314 282.687 146.673C274.714 147.41 285.051 171.639 290.946 171.471Z" fill="#648EF9"/>
<path d="M59.1392 113.284H47.2427V171.472H59.1392V113.284Z" fill="#3D3D3D"/>
<path d="M100.232 113.284H59.1392V171.472H100.232V113.284Z" fill="#B5B5B5"/>
<path d="M59.4111 113.284H58.8677V171.472H59.4111V113.284Z" fill="#F5F5F5"/>
<path d="M142.303 69.2026H130.407V171.284H142.303V69.2026Z" fill="#3D3D3D"/>
<path d="M183.398 69.1999H142.305V171.282H183.398V69.1999Z" fill="#62626D"/>
<path d="M142.575 69.2026H142.032V171.284H142.575V69.2026Z" fill="#3D3D3D"/>
<path d="M220.592 134.646H208.695V171.589H220.592V134.646Z" fill="#3D3D3D"/>
<path d="M261.685 134.646H220.592V171.589H261.685V134.646Z" fill="#B5B5B5"/>
<path d="M219.76 158.409L221.585 171.47H205.351L212.844 165.324L212.747 158.793L219.76 158.409Z" fill="#161616"/>
<path d="M208.834 121.448C208.834 121.448 191.585 121.448 211.488 162.237H219.117L208.834 121.448Z" fill="#161616"/>
<path d="M225.322 158.409L227.147 171.47H210.913L218.406 165.324L218.31 158.793L225.322 158.409Z" fill="black"/>
<path d="M245.432 118.132C245.432 118.132 254.009 141.24 221.944 134.608L227.734 162.331L215.849 162.229C215.849 162.229 196.782 128.854 208.834 121.448L245.432 118.132Z" fill="black"/>
<path d="M217.759 158.788C215.35 158.788 213.793 158.752 213.762 158.751C213.635 158.748 213.536 158.643 213.539 158.517C213.542 158.391 213.648 158.294 213.773 158.294C213.835 158.296 220.092 158.443 227.013 158.142C227.14 158.135 227.246 158.234 227.251 158.36C227.257 158.487 227.159 158.593 227.033 158.599C223.536 158.751 220.208 158.788 217.759 158.788Z" fill="#3D3D3D"/>
<path d="M220.065 154.99C216.448 154.99 212.663 154.804 212.384 154.791C212.258 154.784 212.161 154.677 212.167 154.551C212.174 154.425 212.283 154.327 212.407 154.334C212.437 154.336 215.488 154.487 218.722 154.524C224.091 154.587 225.812 154.303 226.311 154.053C226.424 153.997 226.561 154.043 226.618 154.156C226.674 154.269 226.628 154.406 226.515 154.462C225.692 154.873 222.932 154.99 220.065 154.99Z" fill="#3D3D3D"/>
<path d="M221.029 167.941C220.974 167.941 220.919 167.922 220.875 167.882L218.251 165.493C218.158 165.408 218.151 165.263 218.236 165.17C218.321 165.077 218.466 165.07 218.559 165.155L221.183 167.544C221.277 167.629 221.283 167.773 221.198 167.867C221.153 167.916 221.091 167.941 221.029 167.941Z" fill="#3D3D3D"/>
<path d="M229.289 91.2712C229.289 91.2712 215.123 88.7501 212.446 119.901L246.87 118.243C246.87 118.243 252.177 96.9087 235.592 91.4923L229.289 91.2712Z" fill="#648EF9"/>
<path d="M224.54 120.473H208.507V123.052H224.54V120.473Z" fill="#3D3D3D"/>
<path d="M225.751 116.474C225.751 116.474 217.679 114.982 214.915 116.391C212.508 117.619 213.063 118.851 213.975 118.63L213.907 118.954C213.772 119.595 214.267 120.196 214.922 120.187C215.408 120.181 215.89 120.24 216.36 120.365C218.612 120.961 225.634 122.749 227.299 122.333L228.543 120.564L225.751 116.474Z" fill="#E28B6D"/>
<path d="M227.299 122.333C227.299 122.333 242.557 126.422 246.87 118.243L239.683 113.158C239.683 113.158 234.486 116.806 225.751 116.474L227.299 122.333Z" fill="#648EF9"/>
<path d="M218.299 123.053H199.785L194.312 104.731H212.825L218.299 123.053Z" fill="black"/>
<path d="M225.75 116.779C225.602 116.779 225.472 116.671 225.449 116.519C225.424 116.353 225.539 116.198 225.706 116.173C225.838 116.154 238.97 114.192 242.055 113.097C242.214 113.041 242.388 113.124 242.444 113.283C242.501 113.441 242.418 113.615 242.259 113.672C239.118 114.786 226.338 116.695 225.795 116.776C225.78 116.778 225.765 116.779 225.75 116.779Z" fill="#648EF9"/>
<path d="M219.404 115.873C219.247 115.873 219.113 115.752 219.1 115.593C219.098 115.561 218.841 112.352 218.901 108.244C218.957 104.445 219.304 99.0737 220.639 95.0605C220.692 94.9007 220.864 94.8142 221.024 94.8675C221.184 94.9206 221.27 95.093 221.217 95.2525C218.706 102.804 219.697 115.417 219.708 115.543C219.721 115.711 219.597 115.858 219.429 115.871C219.42 115.872 219.412 115.873 219.404 115.873Z" fill="#648EF9"/>
<path d="M229.483 96.5495C228.382 96.5495 227.596 96.2015 227.581 96.1946C227.428 96.1246 227.361 95.9439 227.431 95.7908C227.501 95.638 227.682 95.5707 227.834 95.6403C227.94 95.6878 230.352 96.7399 232.528 94.7049C232.651 94.5901 232.844 94.5964 232.959 94.7193C233.074 94.8421 233.067 95.035 232.944 95.1499C231.759 96.2584 230.489 96.5495 229.483 96.5495Z" fill="#648EF9"/>
<path d="M239.009 114.4C238.996 114.4 238.983 114.399 238.969 114.397C238.802 114.375 238.685 114.222 238.707 114.056C239.597 107.232 236.035 100.598 235.999 100.532C235.918 100.384 235.973 100.199 236.12 100.118C236.268 100.038 236.453 100.093 236.534 100.24C236.571 100.308 240.227 107.11 239.311 114.134C239.291 114.288 239.16 114.4 239.009 114.4Z" fill="#648EF9"/>
<path d="M232.766 90.7615C232.766 91.959 231.982 93.0594 230.784 93.418C229.294 93.8618 227.744 93.0046 227.318 91.5275C227.3 91.4788 227.288 91.4302 227.275 91.3755L226.497 87.9652L226.455 87.7768L229.647 84.6219L231.702 85.6492L232.699 90.1536C232.742 90.3542 232.766 90.5608 232.766 90.7615Z" fill="#E28B6D"/>
<path d="M229.27 87.9648C229.27 87.9648 229.039 89.5149 227.318 91.527C227.3 91.4783 227.288 91.4297 227.275 91.3751L226.497 87.9648H229.27Z" fill="black"/>
<path d="M221.325 80.1379C221.325 80.1379 220.793 93.8914 229.268 87.9645L231.282 84.2411L228.166 79.1501L221.325 80.1379Z" fill="#E28B6D"/>
<path d="M221.462 80.5074C221.462 80.5074 222.286 82.055 227.607 81.5991C227.607 81.5991 228.141 87.1039 231.434 88.1676L233.968 87.661C235.133 76.111 230.472 73.1729 224.797 75.6046C218.564 73.173 215.979 79.8302 221.436 82.843C221.419 81.9726 221.375 81.3762 221.462 80.5074Z" fill="black"/>
<path d="M231.435 88.1674C231.435 88.1674 229.965 98.6028 233.918 97.8937C237.87 97.1845 238.731 91.4095 233.968 87.6609L231.435 88.1674Z" fill="black"/>
<path d="M232.796 88.6166C233.97 88.2784 234.847 87.7456 234.755 87.4264C234.663 87.1072 233.637 87.1226 232.462 87.4608C231.288 87.7989 230.411 88.3318 230.503 88.651C230.595 88.9701 231.621 88.9547 232.796 88.6166Z" fill="#648EF9"/>
<path d="M222.091 83.8024C222.091 83.9875 222.241 84.1376 222.427 84.1376C222.612 84.1376 222.762 83.9875 222.762 83.8024C222.762 83.6173 222.612 83.4673 222.427 83.4673C222.241 83.4673 222.091 83.6173 222.091 83.8024Z" fill="black"/>
<path d="M224.534 83.8199C224.746 83.8199 224.918 83.6479 224.918 83.4359C224.918 83.2238 224.746 83.0518 224.534 83.0518C224.321 83.0518 224.149 83.2238 224.149 83.4359C224.149 83.6479 224.321 83.8199 224.534 83.8199Z" fill="black"/>
<path d="M223.276 85.8543C223.202 85.8543 223.136 85.8473 223.088 85.8402C222.906 85.8133 222.757 85.7276 222.669 85.599C222.594 85.4873 222.569 85.3572 222.598 85.2225C222.681 84.8344 223.194 84.5033 223.296 84.4408C223.368 84.3968 223.462 84.4194 223.506 84.4912C223.55 84.5628 223.527 84.6566 223.456 84.7006C223.215 84.8479 222.937 85.0942 222.896 85.2866C222.884 85.3407 222.892 85.3843 222.922 85.4277C222.96 85.4843 223.037 85.5248 223.132 85.5388C223.273 85.5597 223.401 85.5508 223.484 85.5151C223.561 85.4818 223.651 85.5175 223.684 85.5945C223.718 85.6717 223.682 85.7613 223.605 85.7947C223.498 85.8407 223.38 85.8543 223.276 85.8543Z" fill="black"/>
<path d="M223.731 87.1359C223.572 87.1359 223.404 87.11 223.226 87.0482C223.147 87.0205 223.105 86.9336 223.133 86.8541C223.16 86.7748 223.247 86.7325 223.327 86.7606C224.189 87.0609 224.794 86.3181 224.819 86.2862C224.871 86.2207 224.967 86.2095 225.033 86.2617C225.099 86.3139 225.11 86.4094 225.058 86.4753C225.052 86.4832 224.525 87.1359 223.731 87.1359Z" fill="black"/>
<path d="M223.897 82.5391C224.098 82.7998 224.321 82.6753 224.938 82.6547C225.08 82.6499 225.848 82.6791 225.813 82.4958C225.788 82.3655 225.327 82.1221 224.813 82.0976C224.529 82.084 224.288 82.122 224.046 82.2065C223.987 82.2273 223.929 82.2528 223.889 82.2939C223.821 82.3623 223.827 82.4485 223.897 82.5391Z" fill="black"/>
<path d="M222.948 82.585C222.872 82.8586 222.66 82.8042 222.17 82.9343C222.058 82.9641 221.467 83.1732 221.438 83.0062C221.417 82.8874 221.7 82.5667 222.095 82.4224C222.313 82.3425 222.513 82.3177 222.728 82.3331C222.781 82.3368 222.834 82.345 222.878 82.3709C222.953 82.4139 222.974 82.4901 222.948 82.585Z" fill="black"/>
<path opacity="0.4" d="M226.748 85.8232C227.257 85.8232 227.67 85.4106 227.67 84.9015C227.67 84.3924 227.257 83.9797 226.748 83.9797C226.239 83.9797 225.826 84.3924 225.826 84.9015C225.826 85.4106 226.239 85.8232 226.748 85.8232Z" fill="black"/>
<path d="M258.59 48.1311C250.838 48.1311 244.553 54.4137 244.553 62.1638C244.553 64.635 245.197 66.9539 246.319 68.9707L243.377 76.1272L250.275 73.4511C252.604 75.1687 255.474 76.1963 258.59 76.1963C266.342 76.1963 272.626 69.9137 272.626 62.1638C272.626 54.4137 266.342 48.1311 258.59 48.1311Z" fill="#3D3D3D"/>
<path d="M242.826 76.6684L245.982 68.99C244.848 66.8997 244.249 64.543 244.249 62.1641C244.249 54.2585 250.682 47.8268 258.59 47.8268C266.498 47.8268 272.931 54.2584 272.931 62.1641C272.931 70.0697 266.498 76.5013 258.59 76.5013C255.576 76.5013 252.689 75.5664 250.231 73.7956L242.826 76.6684ZM250.321 73.1069L250.456 73.2063C252.839 74.9634 255.651 75.8922 258.59 75.8922C266.162 75.8922 272.321 69.7338 272.321 62.1642C272.321 54.5945 266.161 48.4362 258.59 48.4362C251.018 48.4362 244.858 54.5946 244.858 62.1642C244.858 64.4888 245.456 66.7913 246.586 68.823L246.657 68.9511L243.929 75.5867L250.321 73.1069Z" fill="#3D3D3D"/>
<path d="M252.118 59.6605C252.118 57.6786 253.328 56.4188 255.042 56.4188C256.755 56.4188 257.948 57.6615 257.948 59.6605C257.948 61.6596 256.755 62.9028 255.042 62.9028C253.328 62.9028 252.118 61.6431 252.118 59.6605ZM256.268 59.6605C256.268 58.4008 255.781 57.7962 255.042 57.7962C254.318 57.7962 253.815 58.4178 253.815 59.6605C253.815 60.9038 254.318 61.5255 255.042 61.5255C255.781 61.5255 256.268 60.9209 256.268 59.6605ZM262.048 56.5528H264.047L256.016 68.3117H254.016L262.048 56.5528ZM260.115 65.2042C260.115 63.2223 261.326 61.9619 263.022 61.9619C264.737 61.9619 265.946 63.2223 265.946 65.2042C265.946 67.1861 264.737 68.4465 263.022 68.4465C261.326 68.4465 260.115 67.1861 260.115 65.2042ZM264.25 65.2042C264.25 63.9608 263.761 63.3392 263.022 63.3392C262.3 63.3392 261.797 63.9445 261.797 65.2042C261.797 66.4639 262.3 67.0685 263.022 67.0685C263.761 67.0685 264.25 66.4474 264.25 65.2042Z" fill="#B5B5B5"/>
<path d="M93.7368 154.551L95.4251 171.554L112.001 171.372L104.468 163.642L102.748 154.224L93.7368 154.551Z" fill="black"/>
<path d="M107.587 167.856C106.213 167.856 105.224 167.478 104.642 166.73C103.66 165.468 104.226 163.649 104.25 163.573C104.289 163.453 104.417 163.386 104.537 163.425C104.658 163.463 104.724 163.591 104.686 163.712C104.681 163.728 104.169 165.382 105.004 166.451C105.557 167.16 106.586 167.474 108.064 167.384C108.189 167.376 108.299 167.472 108.306 167.598C108.314 167.724 108.218 167.832 108.092 167.84C107.918 167.85 107.75 167.856 107.587 167.856Z" fill="#3D3D3D"/>
<path d="M66.5944 154.27L63.973 163.006L56.7642 176L71.728 170.977L75.0048 154.489L66.5944 154.27Z" fill="black"/>
<path d="M60.8449 169.16C60.7356 169.16 60.639 169.082 60.62 168.97C60.5987 168.846 60.6822 168.728 60.8067 168.707C63.0104 168.329 64.3299 167.584 64.728 166.491C65.2918 164.945 63.8134 163.172 63.7984 163.154C63.7169 163.058 63.729 162.914 63.8253 162.832C63.9217 162.75 64.0659 162.762 64.1474 162.859C64.2157 162.94 65.811 164.855 65.1574 166.648C64.699 167.905 63.2611 168.75 60.8838 169.157C60.8708 169.159 60.8578 169.16 60.8449 169.16Z" fill="#3D3D3D"/>
<path d="M103.577 94.7242L105.781 155.792C105.856 157.851 104.255 159.584 102.196 159.674L94.5605 160.005C92.5023 160.095 90.7572 158.508 90.6516 156.451L87.2925 90.9915L103.577 94.7242Z" fill="black"/>
<path d="M96.6367 91.3062L96.0821 93.2377L95.0156 96.9301L77.3413 158.194C76.9329 159.602 75.6043 160.54 74.1417 160.449L64.6829 159.858C62.7265 159.736 61.3675 157.859 61.8489 155.964L75.6775 101.908L77.4937 94.7973L91.2674 92.287L96.6367 91.3062Z" fill="black"/>
<g opacity="0.8">
<path d="M99.2285 94.5537C99.2665 95.026 103.006 142.002 100.86 159.436L101.314 159.492C103.465 142.012 99.7221 94.9898 99.6839 94.5165L99.2285 94.5537Z" fill="#3D3D3D"/>
<path d="M82.3899 94.1949C81.646 96.5708 64.1781 152.46 64.9893 159.49L65.4437 159.438C64.643 152.503 82.6441 94.9122 82.8262 94.3317L82.3899 94.1949Z" fill="#3D3D3D"/>
</g>
<path opacity="0.6" d="M103.578 94.724L95.0154 96.9297L75.6772 101.908L77.4935 94.7972L91.2672 92.2869L96.082 93.2373L103.578 94.724Z" fill="#648EF9"/>
<path d="M87.6111 122.727C87.5847 122.727 87.5578 122.723 87.5311 122.716C87.3687 122.672 87.2727 122.504 87.3169 122.342L90.6975 109.898L95.5098 106.484C95.6469 106.387 95.8373 106.419 95.9347 106.556C96.0321 106.693 95.9997 106.884 95.8625 106.981L91.2284 110.269L87.905 122.502C87.8681 122.637 87.7453 122.727 87.6111 122.727Z" fill="#3D3D3D"/>
<path d="M89.626 62.3058L97.3268 77.6224C99.8734 75.6376 102.58 74.1273 104.267 73.2674C98.7332 62.3302 89.626 62.3058 89.626 62.3058Z" fill="#648EF9"/>
<path d="M117.275 68.1424C117.275 68.1424 118.012 65.6036 117.357 64.9483C116.701 64.2932 114.571 68.3061 114.571 68.3061L106.625 77.069C105.837 75.6739 105.048 74.4119 104.267 73.2679C102.58 74.1279 99.8732 75.6381 97.3267 77.6228L101.622 86.1666C102.683 88.2766 105.051 89.3857 107.352 88.8501C108.67 88.5432 109.813 87.7262 110.53 86.5782L119.077 72.8923C119.706 70.9296 118.887 69.4137 117.275 68.1424Z" fill="#F9B384"/>
<path d="M77.6155 87.692C77.2255 89.1665 77.0243 90.0621 77.0243 90.0621L77.2193 94.9243C77.2193 94.9243 68.9458 95.0796 66.508 92.0713C64.8685 90.0479 65.0585 86.7141 67.8793 80.5708C68.6119 78.9755 69.1013 77.864 69.79 76.6516C72.0389 76.81 75.1166 77.1816 78.2797 78.0042L73.9485 86.8288L77.6155 87.692Z" fill="#F9B384"/>
<path d="M89.6259 62.3059C89.6259 62.3059 77.5545 61.6447 69.791 76.6486C72.5338 76.8485 76.494 77.3543 80.3501 78.6146C82.5824 72.1507 85.8072 64.8677 89.6259 62.3059Z" fill="#648EF9"/>
<path d="M103.578 94.7237L77.2195 94.9248C77.0428 92.0246 77.4206 86.9064 77.9143 81.9955C77.9448 81.7152 77.9692 81.441 77.9996 81.1608C78.219 79.0283 78.4566 76.9567 78.6761 75.1653C78.7432 74.5865 78.8102 74.0381 78.8711 73.5263C79.1942 70.9794 79.4257 69.2917 79.4257 69.2917L89.6281 62.3091C94.4245 63.8262 101.324 72.8376 101.324 72.8376L103.578 94.7237Z" fill="#648EF9"/>
<path d="M118.395 65.2635L114.967 72.8112L115.833 73.2461L119.845 65.9915L118.395 65.2635Z" fill="#648EF9"/>
<path d="M120.758 64.3383L119.176 63.5435C119.152 63.9266 119.065 64.2731 118.912 64.5816L120.098 65.1771C120.254 64.8752 120.475 64.5956 120.758 64.3383Z" fill="black"/>
<path d="M118.913 64.5813C118.787 64.8355 118.617 65.0644 118.396 65.263L119.845 65.991C119.879 65.7022 119.966 65.4317 120.098 65.177L118.913 64.5813Z" fill="#648EF9"/>
<path d="M123.933 64.4693C126.679 63.5098 128.128 60.5062 127.168 57.7606C126.208 55.015 123.204 53.5671 120.458 54.5266C117.711 55.4861 116.263 58.4897 117.223 61.2353C118.182 63.9809 121.187 65.4288 123.933 64.4693Z" fill="#648EF9"/>
<path d="M125.29 62.2173C126.785 60.5075 126.61 57.9099 124.9 56.4155C123.19 54.921 120.591 55.0955 119.096 56.8053C117.601 58.515 117.776 61.1126 119.486 62.6071C121.197 64.1015 123.795 63.927 125.29 62.2173Z" fill="#3D3D3D"/>
<path d="M124.533 61.2385C124.497 61.2385 124.459 61.2318 124.423 61.2177C124.266 61.1568 124.188 60.9802 124.249 60.8234C124.806 59.392 124.457 58.0031 123.401 57.4458C123.252 57.3673 123.195 57.1829 123.274 57.0342C123.352 56.8855 123.536 56.8285 123.685 56.9071C125.024 57.6136 125.49 59.3148 124.818 61.0441C124.771 61.1646 124.655 61.2385 124.533 61.2385Z" fill="#3D3D3D"/>
<path d="M119.334 69.6233C118.741 70.0773 118.034 70.3038 117.723 69.9662C117.423 69.6404 117.985 68.7129 118.174 68.4458C118.441 68.0678 119.608 66.9803 120.096 67.5908C120.591 68.2087 120.044 69.0793 119.334 69.6233Z" fill="#E28B6D"/>
<path d="M119.812 71.1384C119.219 71.5924 118.512 71.819 118.201 71.4813C117.901 71.1556 118.464 70.228 118.652 69.961C118.919 69.5831 120.086 68.4955 120.574 69.1059C121.069 69.7239 120.522 70.5945 119.812 71.1384Z" fill="#E28B6D"/>
<path d="M119.953 72.7278C119.423 73.1334 118.791 73.3358 118.514 73.0342C118.246 72.7431 118.748 71.9145 118.917 71.6759C119.155 71.3382 120.198 70.3666 120.634 70.9121C121.076 71.4641 120.587 72.2419 119.953 72.7278Z" fill="#E28B6D"/>
<path d="M74.6978 94.8517C74.6978 94.8517 81.3294 95.5186 81.4491 94.8135C81.5686 94.1083 80.0009 93.7531 80.0009 93.7531C80.0009 93.7531 83.2766 93.8948 83.1761 93.2977C83.0757 92.7007 81.6608 92.2904 81.6608 92.2904C81.6608 92.2904 83.958 92.3535 83.7189 91.6915C83.4797 91.0294 81.5491 90.5462 81.5491 90.5462C81.5491 90.5462 84.6019 89.9912 83.4395 89.4033C82.2771 88.8154 75.9367 87.3623 75.9367 87.3623L74.6978 94.8517Z" fill="#F9B384"/>
<path d="M77.4533 87.9718C77.4291 87.9718 77.4045 87.969 77.38 87.9629L71.3108 86.465C71.1474 86.4247 71.0477 86.2596 71.088 86.0963C71.1284 85.9329 71.2933 85.8327 71.4569 85.8735L77.5261 87.3714C77.6895 87.4117 77.7892 87.5769 77.7489 87.7402C77.7147 87.8791 77.5903 87.9718 77.4533 87.9718Z" fill="#E28B6D"/>
<path d="M104.675 79.3904C104.601 79.3904 104.527 79.3637 104.469 79.3099C104.345 79.1959 104.337 79.0031 104.451 78.8793L109.784 73.0911C109.898 72.9674 110.091 72.9595 110.215 73.0734C110.338 73.1874 110.346 73.3802 110.232 73.5039L104.899 79.2921C104.839 79.3573 104.757 79.3904 104.675 79.3904Z" fill="#E28B6D"/>
<path d="M88.8251 69.3858C86.9737 69.3858 85.6721 68.2094 85.6511 68.1899C85.5278 68.0754 85.5206 67.8826 85.6351 67.7594C85.7496 67.6362 85.942 67.6289 86.0653 67.743C86.1875 67.8557 89.0921 70.4554 92.3402 66.9965C92.4555 66.8738 92.6481 66.8679 92.7709 66.983C92.8936 67.0982 92.8998 67.2909 92.7845 67.4136C91.3687 68.9212 89.9884 69.3858 88.8251 69.3858Z" fill="#F5F5F5"/>
<path d="M78.3585 77.8544C78.2372 78.9189 78.1157 80.0292 77.9993 81.1606C77.9688 81.4409 77.9444 81.7151 77.9141 81.9954C80.0591 79.1042 79.9959 75.4315 79.9925 75.2883C79.1116 76.4959 78.5522 77.492 78.3585 77.8544Z" fill="black"/>
<path d="M92.4705 55.5098V63.1773C92.4705 64.9968 91.0024 66.4645 89.1899 66.4645C87.3699 66.4645 85.9019 64.9968 85.9019 63.1773V55.5098H92.4705Z" fill="#F9B384"/>
<path d="M92.4705 57.5762V62.8027C89.482 61.2901 88.2612 58.5571 88.2612 58.5571L92.4705 57.5762Z" fill="black"/>
<path d="M94.3918 50.4597C94.3918 50.4597 97.0601 62.8145 88.2595 58.5558L85.2168 54.3907L87.2296 48.3069L91.8171 48.026L94.3918 50.4597Z" fill="#F9B384"/>
<path d="M94.3919 50.4595C94.3919 50.4595 88.166 45.4521 85.9191 54.2034L83.953 53.829C83.953 53.829 82.2906 47.1209 88.2597 45.8732C93.4088 44.7969 94.3919 50.4595 94.3919 50.4595Z" fill="black"/>
<path d="M86.6152 55.953C87.2341 55.3342 87.1357 54.2327 86.3955 53.4927C85.6553 52.7527 84.5535 52.6543 83.9346 53.273C83.3157 53.8918 83.414 54.9933 84.1543 55.7333C84.8945 56.4733 85.9963 56.5717 86.6152 55.953Z" fill="#F9B384"/>
<path d="M85.9731 55.2477C85.9177 55.2477 85.8643 55.2174 85.8373 55.1648C85.8323 55.1552 85.3393 54.2119 84.5606 54.295C84.4757 54.3026 84.4019 54.2433 84.393 54.1596C84.384 54.076 84.4447 54.0009 84.5283 53.992C85.5164 53.8873 86.0849 54.9798 86.1087 55.0264C86.1469 55.1012 86.117 55.1928 86.0422 55.2311C86.0201 55.2422 85.9964 55.2477 85.9731 55.2477Z" fill="black"/>
<path d="M93.7492 53.8054C93.9679 53.7149 94.0717 53.4643 93.9811 53.2457C93.8906 53.0271 93.6399 52.9233 93.4213 53.0139C93.2026 53.1044 93.0988 53.355 93.1894 53.5736C93.2799 53.7922 93.5306 53.896 93.7492 53.8054Z" fill="black"/>
<path d="M90.8772 53.8762C91.1139 53.8762 91.3057 53.6844 91.3057 53.4478C91.3057 53.2112 91.1139 53.0194 90.8772 53.0194C90.6406 53.0194 90.4487 53.2112 90.4487 53.4478C90.4487 53.6844 90.6406 53.8762 90.8772 53.8762Z" fill="black"/>
<path d="M92.8179 55.9077C92.7047 55.9077 92.5747 55.893 92.4586 55.8428C92.3814 55.8094 92.3458 55.7199 92.3793 55.6426C92.4125 55.5654 92.5021 55.5294 92.5796 55.5632C92.675 55.6044 92.8215 55.6144 92.9813 55.5909C93.0926 55.5744 93.1827 55.5266 93.2283 55.4594C93.2638 55.4072 93.2737 55.3529 93.26 55.2885C93.2126 55.0687 92.8989 54.7897 92.6273 54.6234C92.5556 54.5795 92.533 54.4857 92.5771 54.4139C92.621 54.3422 92.7147 54.3195 92.7866 54.3637C92.8993 54.4326 93.4662 54.7986 93.5579 55.2244C93.5892 55.3698 93.5624 55.5102 93.4805 55.6307C93.3856 55.77 93.2243 55.863 93.0259 55.8923C92.9729 55.9001 92.8998 55.9077 92.8179 55.9077Z" fill="black"/>
<path d="M92.0564 57.1885C91.1781 57.1885 90.5964 56.4671 90.5894 56.4582C90.5373 56.3922 90.5486 56.2964 90.6146 56.2442C90.6805 56.1921 90.7763 56.2033 90.8285 56.2692C90.8577 56.306 91.5394 57.1426 92.5126 56.8039C92.592 56.7758 92.6789 56.818 92.7066 56.8976C92.7344 56.9769 92.6924 57.0638 92.6129 57.0915C92.4172 57.16 92.2308 57.1885 92.0564 57.1885Z" fill="black"/>
<path d="M91.6971 52.1708C91.5998 52.4291 91.321 52.3727 90.6816 52.4852C90.5353 52.511 89.7633 52.6964 89.7237 52.5371C89.6956 52.4237 90.0648 52.1253 90.5801 51.9968C90.8647 51.9259 91.126 51.9069 91.4076 51.9263C91.4767 51.931 91.546 51.94 91.6044 51.9657C91.7017 52.0082 91.731 52.081 91.6971 52.1708Z" fill="black"/>
<path d="M92.8869 52.1546C92.9696 52.4126 93.2215 52.3561 93.795 52.4683C93.9262 52.4939 94.6175 52.6789 94.6563 52.5195C94.6837 52.4063 94.3569 52.1083 93.8956 51.9803C93.6408 51.9096 93.4059 51.8907 93.1521 51.9102C93.0899 51.9149 93.0272 51.9241 92.9741 51.9496C92.8857 51.9921 92.8582 52.065 92.8869 52.1546Z" fill="black"/>
<path opacity="0.4" d="M89.6918 54.9597C89.8223 54.407 89.48 53.8532 88.9272 53.7227C88.3744 53.5922 87.8205 53.9345 87.69 54.4871C87.5594 55.0398 87.9017 55.5936 88.4545 55.724C89.0073 55.8545 89.5613 55.5123 89.6918 54.9597Z" fill="black"/>
<path d="M42.7729 38.5415C50.9917 38.5415 57.6543 45.2023 57.6543 53.4188C57.6543 56.0389 56.9715 58.4973 55.7821 60.6355L58.901 68.2228L51.5878 65.3856C49.1185 67.2065 46.0767 68.2962 42.7729 68.2962C34.5542 68.2962 27.8916 61.6354 27.8916 53.4188C27.8916 45.2023 34.5542 38.5415 42.7729 38.5415Z" fill="#3D3D3D"/>
<path d="M59.4528 68.7635L51.6329 65.7297C49.0276 67.6084 45.9678 68.6006 42.773 68.6006C34.3993 68.6006 27.5869 61.7901 27.5869 53.4186C27.5869 45.0473 34.3993 38.2368 42.773 38.2368C51.1466 38.2368 57.9589 45.0473 57.9589 53.4186C57.9589 55.9406 57.3233 58.439 56.1193 60.6544L59.4528 68.7635ZM42.773 38.846C34.7354 38.846 28.1963 45.3832 28.1963 53.4186C28.1963 61.454 34.7353 67.9913 42.773 67.9913C45.8923 67.9913 48.8779 67.0054 51.4068 65.1402L51.5417 65.0408L58.3493 67.6818L55.4445 60.6153L55.5158 60.4872C56.7155 58.3306 57.3496 55.8862 57.3496 53.4185C57.3496 45.3832 50.8105 38.846 42.773 38.846Z" fill="#3D3D3D"/>
<path d="M40.8027 58.8951C40.8027 57.8508 41.6221 57.0716 42.7703 57.0716C43.9176 57.0716 44.7378 57.8507 44.7378 58.8951C44.7378 59.9195 43.9177 60.7603 42.7703 60.7603C41.6221 60.7603 40.8027 59.9195 40.8027 58.8951Z" fill="#B5B5B5"/>
<path d="M40.8638 46.253H44.6763L44.0404 55.6168H41.4997L40.8638 46.253Z" fill="#B5B5B5"/>
<path d="M219.214 38.4925C214.988 36.6846 209.919 37.8918 207.005 41.712C203.563 46.2241 204.431 52.6715 208.945 56.1126C212.37 58.7245 216.91 58.8513 220.405 56.7887L215.177 47.9426L219.214 38.4925Z" fill="#3D3D3D"/>
<path d="M219.087 49.1611L224.316 58.0072C225.425 57.3524 226.43 56.479 227.259 55.3917C229.711 52.1774 229.974 47.9821 228.292 44.5901L219.087 49.1611Z" fill="#B5B5B5"/>
<path d="M227.937 42.0511C227.257 40.6813 226.263 39.4421 224.964 38.4522C224.272 37.9246 223.534 37.4994 222.769 37.1721L218.732 46.6222L227.937 42.0511Z" fill="#3D3D3D"/>
<path d="M110.105 32.6445H83.4326V18.741H84.042V32.0353H110.105V32.6445Z" fill="#3D3D3D"/>
<path d="M86.3504 30.4346L85.833 30.1128L88.2913 26.163L89.9801 28.9256L93.5304 21.3538L97.1594 28.2067L106.992 18.8342L107.412 19.275L96.9974 29.2026L93.5636 22.7181L90.051 30.2095L88.2866 27.3235L86.3504 30.4346Z" fill="#3D3D3D"/>
</svg>
