<svg width="643" height="429" viewBox="0 0 643 429" fill="none" xmlns="http://www.w3.org/2000/svg">
<path d="M37.7817 116.268H143.358C143.358 116.268 135.816 98.1686 116.21 101.185C121.488 86.1032 101.127 79.316 89.0617 82.3326C76.9956 85.3491 80.012 97.4144 80.012 97.4144C80.012 97.4144 70.4669 86.3643 52.864 96.6603C45.7466 100.824 46.0769 112.12 37.7817 116.268Z" fill="#383838"/>
<path d="M505.674 198.524H611.251C611.251 198.524 603.709 180.425 584.103 183.442C589.381 168.36 569.02 161.573 556.955 164.589C544.889 167.606 547.905 179.671 547.905 179.671C547.905 179.671 538.36 168.621 520.757 178.917C513.639 183.08 513.97 194.376 505.674 198.524Z" fill="#383838"/>
<path d="M490.206 66.281H384.63C384.63 66.281 392.171 48.1826 411.778 51.1991C406.499 36.1164 426.86 29.3292 438.926 32.3457C450.991 35.3623 447.976 47.4285 447.976 47.4285C447.976 47.4285 457.521 36.3784 475.124 46.6743C482.241 50.8371 481.91 62.1337 490.206 66.281Z" fill="#383838"/>
<path d="M563.965 397.484H87.4568C84.4769 397.484 82.0614 395.069 82.0614 392.089C82.0614 389.109 84.4769 386.694 87.4568 386.694H308.468C308.17 387.012 307.843 387.304 307.487 387.567C304.153 390.027 302.988 390.598 301.413 390.967C299.837 391.336 299.78 392.168 301.647 392.772C302.992 393.208 304.773 393.612 306.122 393.612C306.646 393.612 307.104 393.551 307.447 393.408C308.646 392.907 312.319 389.503 313.145 389.503C313.164 389.503 313.181 389.505 313.198 389.508C313.902 389.676 314.055 392.668 313.753 393.601C314.266 393.812 314.589 393.865 314.783 393.865C314.985 393.865 315.05 393.808 315.05 393.808C316.105 390.974 316.064 388.717 315.804 386.694H563.965C566.944 386.694 569.36 389.109 569.36 392.089C569.36 395.069 566.944 397.484 563.965 397.484Z" fill="#3D3D3D"/>
<path d="M487.32 359.957H478.141C475.768 359.957 473.86 358.049 473.86 355.677V347.333C468.249 346.191 462.91 343.981 458.134 340.823L452.237 346.72C451.398 347.558 450.302 347.978 449.207 347.978C448.112 347.978 447.016 347.558 446.177 346.72L440.051 340.594H474.245C481.498 340.594 487.674 336.144 490.204 329.814C489.723 336.53 489.293 342.022 489.115 342.91C488.895 344.01 488.289 351.686 487.678 359.942C487.56 359.951 487.44 359.957 487.32 359.957ZM516.254 347.978C515.158 347.978 514.063 347.558 513.224 346.72L507.327 340.823C504.948 342.396 502.43 343.734 499.808 344.821C502.388 337.387 509.621 318.904 509.621 318.904C509.621 318.904 515.251 339.924 517.407 347.82C517.03 347.925 516.642 347.978 516.254 347.978ZM525.758 315.211C525.666 314.313 525.574 313.432 525.479 312.58C526.928 311.588 528.375 309.816 528.781 308.46C529.312 306.693 530.372 303.333 530.372 303.333L527.013 301.034L524.278 304.126C524.227 303.872 524.176 303.629 524.125 303.399C518.431 302.866 512.737 302.458 507.764 302.155C507.157 292.026 500.538 283.517 491.427 280.148V250.466C491.54 250.851 491.6 251.258 491.6 251.679V259.926C497.236 261.07 502.599 263.291 507.392 266.469L513.224 260.637C514.063 259.798 515.158 259.378 516.254 259.378C517.349 259.378 518.445 259.798 519.284 260.637L525.772 267.125C527.449 268.802 527.449 271.507 525.772 273.185L519.94 279.016C523.115 283.81 525.335 289.172 526.477 294.808H534.729C537.101 294.808 539.009 296.716 539.009 299.089V308.268C539.009 310.64 537.101 312.548 534.729 312.548H526.385C526.203 313.443 525.993 314.331 525.758 315.211Z" fill="#3D3D3D"/>
<path d="M532.293 255.928H527.193C525.875 255.928 524.814 254.868 524.814 253.55V248.913C521.697 248.279 518.73 247.051 516.076 245.296L512.799 248.573C512.333 249.039 511.725 249.271 511.116 249.271C510.506 249.271 509.898 249.039 509.432 248.573L505.827 244.968C504.895 244.035 504.895 242.532 505.827 241.6L509.103 238.323C507.347 235.67 506.118 232.703 505.483 229.585H500.85C499.532 229.585 498.471 228.525 498.471 227.206V222.106C498.471 220.788 499.532 219.727 500.85 219.727H505.483C506.118 216.61 507.347 213.643 509.103 210.989L505.827 207.712C504.895 206.78 504.895 205.277 505.827 204.345L509.432 200.74C509.898 200.274 510.506 200.04 511.116 200.04C511.725 200.04 512.333 200.274 512.799 200.74L516.076 204.016C518.73 202.262 521.697 201.033 524.814 200.399V198.524H534.671V200.345C537.803 200.98 540.783 202.215 543.446 203.981L546.687 200.74C547.153 200.274 547.762 200.04 548.371 200.04C548.979 200.04 549.588 200.274 550.054 200.74L553.659 204.345C554.591 205.277 554.591 206.78 553.659 207.712L550.419 210.953C552.183 213.617 553.417 216.596 554.051 219.727H558.636C559.954 219.727 561.015 220.788 561.015 222.106V227.206C561.015 228.525 559.954 229.585 558.636 229.585H554C553.366 232.703 552.138 235.67 550.383 238.323L553.66 241.6C554.592 242.532 554.592 244.035 553.66 244.968L550.054 248.573C549.588 249.039 548.979 249.271 548.371 249.271C547.762 249.271 547.153 249.039 546.687 248.573L543.41 245.296C540.757 247.051 537.79 248.279 534.671 248.913V253.55C534.671 254.868 533.612 255.928 532.293 255.928ZM529.743 210.721C522.047 210.722 515.809 216.96 515.808 224.656C515.809 232.353 522.047 238.591 529.743 238.592C537.44 238.591 543.678 232.353 543.679 224.656C543.678 216.96 537.44 210.722 529.743 210.721Z" fill="#3D3D3D"/>
<path d="M534.671 198.524H524.815V195.763C524.815 194.445 525.875 193.385 527.193 193.385H532.293C533.612 193.385 534.671 194.445 534.671 195.763V198.524Z" fill="#F5F5F5"/>
<path d="M552.239 292.938H549.259C548.489 292.938 547.87 292.319 547.87 291.548V288.84C546.048 288.47 544.315 287.752 542.765 286.727L540.851 288.641C540.579 288.914 540.223 289.05 539.867 289.05C539.511 289.05 539.156 288.914 538.884 288.641L536.777 286.536C536.233 285.99 536.233 285.113 536.777 284.569L538.692 282.655C537.666 281.104 536.947 279.371 536.577 277.549H533.87C533.1 277.549 532.481 276.93 532.481 276.16V273.18C532.481 272.41 533.1 271.791 533.87 271.791H536.577C536.947 269.97 537.666 268.236 538.692 266.686L536.777 264.772C536.233 264.228 536.233 263.349 536.777 262.805L538.884 260.699C539.156 260.427 539.511 260.291 539.867 260.291C540.223 260.291 540.579 260.427 540.851 260.699L542.765 262.613C544.315 261.588 546.048 260.87 547.87 260.5V257.791C547.87 257.022 548.489 256.402 549.259 256.402H552.238C553.009 256.402 553.628 257.022 553.628 257.791V260.468C555.458 260.839 557.198 261.56 558.754 262.592L560.647 260.699C560.92 260.427 561.275 260.291 561.631 260.291C561.986 260.291 562.342 260.427 562.615 260.699L564.72 262.805C565.265 263.349 565.265 264.228 564.72 264.772L562.828 266.665C563.858 268.221 564.578 269.962 564.949 271.791H567.627C568.398 271.791 569.017 272.41 569.017 273.18V276.16C569.017 276.93 568.398 277.549 567.627 277.549H564.919C564.548 279.371 563.831 281.104 562.806 282.655L564.72 284.569C565.265 285.113 565.265 285.99 564.72 286.536L562.615 288.641C562.342 288.914 561.986 289.05 561.631 289.05C561.275 289.05 560.92 288.914 560.647 288.641L558.733 286.727C557.182 287.752 555.45 288.47 553.628 288.84V291.548C553.628 292.319 553.009 292.938 552.239 292.938ZM550.749 266.529C546.253 266.529 542.608 270.174 542.608 274.67C542.608 279.166 546.253 282.81 550.749 282.811C555.245 282.81 558.889 279.166 558.89 274.67C558.889 270.174 555.245 266.529 550.749 266.529Z" fill="#3D3D3D"/>
<path d="M264.133 326.123H329.247V392.443H264.133V326.123Z" fill="black"/>
<path d="M212.584 383.399H380.795C383.292 383.399 385.316 385.423 385.316 387.921C385.316 390.418 383.292 392.443 380.795 392.443H212.584C210.087 392.443 208.063 390.418 208.063 387.921C208.063 385.423 210.087 383.399 212.584 383.399Z" fill="#656565"/>
<path d="M123.444 65.6689H469.936C481.805 65.6689 491.427 75.2913 491.427 87.1614V319.101C491.427 330.971 481.805 340.593 469.936 340.593H123.444C111.574 340.593 101.951 330.971 101.951 319.101V87.1614C101.951 75.2913 111.574 65.6689 123.444 65.6689Z" fill="#383838"/>
<path d="M101.952 310.986V323.41C101.952 332.93 109.615 340.594 119.135 340.594H474.245C483.764 340.594 491.427 332.93 491.427 323.41V310.986H101.952Z" fill="#656565"/>
<path d="M118.915 293.932H474.464V84.185H118.915V293.932Z" fill="black"/>
<path d="M296.69 316.954C301.222 316.954 304.896 320.628 304.896 325.16C304.896 329.693 301.222 333.367 296.69 333.367C292.157 333.367 288.483 329.693 288.483 325.16C288.483 320.628 292.157 316.954 296.69 316.954Z" fill="#3D3D3D"/>
<path d="M118.916 98.9492H474.464V84.1849H118.916V98.9492Z" fill="#232323"/>
<path d="M137.121 91.5671C137.121 92.6242 136.264 93.4819 135.206 93.4819C134.149 93.4819 133.292 92.6242 133.292 91.5671C133.292 90.5099 134.149 89.6522 135.206 89.6522C136.264 89.6522 137.121 90.5099 137.121 91.5671Z" fill="white"/>
<path d="M145.347 91.5671C145.347 92.6242 144.49 93.4819 143.433 93.4819C142.376 93.4819 141.518 92.6242 141.518 91.5671C141.518 90.5099 142.376 89.6522 143.433 89.6522C144.49 89.6522 145.347 90.5099 145.347 91.5671Z" fill="white"/>
<path d="M153.573 91.5671C153.573 92.6242 152.717 93.4819 151.659 93.4819C150.602 93.4819 149.745 92.6242 149.745 91.5671C149.745 90.5099 150.602 89.6522 151.659 89.6522C152.717 89.6522 153.573 90.5099 153.573 91.5671Z" fill="white"/>
<path d="M287.096 140.821C281.658 141.02 276.932 142.812 272.853 145.465C265.393 150.316 259.987 157.911 255.56 163.748C253.41 166.583 251.403 168.301 249.338 169.217C247.273 170.133 245.099 170.293 242.444 169.838C237.134 168.929 230.052 165.431 219.726 160.977C209.294 156.477 201.259 155.504 192.974 157.953C185.161 160.263 177.101 165.596 166.38 173.48V176.217C177.766 167.796 185.963 162.335 193.601 160.078C201.371 157.781 208.683 158.625 218.849 163.011C229.12 167.441 236.173 171.012 242.07 172.022C245.019 172.526 247.718 172.357 250.235 171.241C252.75 170.126 255.035 168.107 257.327 165.086C261.785 159.21 267.082 151.861 274.061 147.323C280.966 142.831 289.423 140.969 300.87 145.897V143.524C296.784 141.869 292.979 141.002 289.47 140.834C288.663 140.796 287.872 140.791 287.096 140.821Z" fill="#4169E1"/>
<path d="M300.87 120.148C299.633 121.272 298.516 122.682 297.484 124.248C295.305 127.555 293.451 131.619 291.686 135.427C289.92 139.235 288.226 142.795 286.551 144.966C285.714 146.052 284.891 146.765 284.184 147.062C283.475 147.36 282.885 147.36 282.014 146.886C273.045 141.994 257.319 134.707 245.721 137.08C236.509 138.964 230.615 144.552 225.766 150.218C220.917 155.884 217.002 161.602 211.912 164.242C206.686 166.951 203.149 166.647 199.084 165.098C195.019 163.55 190.522 160.601 184.146 158.133C176.346 155.113 170.138 156.521 166.38 158.124V160.473C169.498 158.904 175.384 157.117 183.347 160.2C189.491 162.578 193.879 165.486 198.295 167.169C202.712 168.851 207.251 169.152 212.931 166.208C218.745 163.193 222.706 157.2 227.449 151.658C232.192 146.117 237.609 141 246.166 139.25C256.456 137.145 272.151 144.03 280.953 148.831C282.304 149.567 283.783 149.632 285.04 149.104C286.298 148.577 287.339 147.574 288.306 146.319C290.241 143.808 291.928 140.174 293.697 136.359C295.466 132.544 297.298 128.556 299.334 125.466C299.836 124.704 300.348 124.004 300.87 123.374V120.148Z" fill="#4169E1"/>
<path d="M166.38 193.496H300.87V191.073H166.38V193.496Z" fill="#656565"/>
<path d="M186.883 204.73H196.22C197.306 204.73 198.185 205.61 198.185 206.695V216.033C198.185 217.118 197.306 217.998 196.22 217.998H186.883C185.798 217.998 184.918 217.118 184.918 216.033V206.695C184.918 205.61 185.798 204.73 186.883 204.73Z" fill="#4169E1"/>
<path d="M186.761 206.153C186.504 206.153 186.34 206.317 186.34 206.573V216.155C186.34 216.411 186.505 216.576 186.761 216.576H196.343C196.6 216.576 196.763 216.412 196.763 216.155V206.573C196.763 206.316 196.6 206.153 196.343 206.153H186.761Z" fill="#F6F5F4"/>
<path d="M168.791 204.73H178.129C179.214 204.73 180.093 205.61 180.093 206.695V216.033C180.093 217.118 179.214 217.998 178.129 217.998H168.791C167.706 217.998 166.827 217.118 166.827 216.033V206.695C166.827 205.61 167.706 204.73 168.791 204.73Z" fill="#4169E1"/>
<path d="M168.92 211.627L171.914 214.527C172.247 214.85 172.775 214.85 173.109 214.527L178 209.789C178.341 209.46 178.349 208.915 178.02 208.576C177.689 208.235 177.146 208.225 176.805 208.556L172.512 212.715L170.115 210.394C169.774 210.064 169.23 210.073 168.9 210.413C168.57 210.754 168.579 211.298 168.92 211.627Z" fill="white"/>
<path d="M178.129 223.102H168.791C167.706 223.102 166.827 223.981 166.827 225.066V234.404C166.827 235.489 167.706 236.368 168.791 236.368H178.129C179.214 236.368 180.093 235.489 180.093 234.404V225.066C180.093 223.981 179.214 223.102 178.129 223.102Z" fill="#4169E1"/>
<path d="M178.25 224.524C178.509 224.524 178.672 224.687 178.672 224.945V234.525C178.672 234.783 178.507 234.947 178.25 234.947H168.67C168.412 234.947 168.249 234.784 168.249 234.525V224.945C168.249 224.686 168.411 224.524 168.67 224.524H178.25Z" fill="#F6F5F4"/>
<path d="M186.883 223.102H196.22C197.306 223.102 198.185 223.981 198.185 225.066V234.404C198.185 235.489 197.306 236.368 196.22 236.368H186.883C185.798 236.368 184.918 235.489 184.918 234.404V225.066C184.918 223.981 185.798 223.102 186.883 223.102Z" fill="#7ADEFF"/>
<path d="M187.011 229.999L190.006 232.899C190.339 233.222 190.868 233.222 191.201 232.899L196.093 228.16C196.433 227.83 196.442 227.287 196.111 226.946C195.782 226.606 195.238 226.597 194.898 226.927L190.603 231.087L188.206 228.765C187.866 228.435 187.322 228.443 186.992 228.784C186.662 229.125 186.671 229.668 187.011 229.999Z" fill="white"/>
<path d="M178.129 241.472H168.791C167.706 241.472 166.827 242.352 166.827 243.437V252.774C166.827 253.86 167.706 254.74 168.791 254.74H178.129C179.214 254.74 180.093 253.86 180.093 252.774V243.437C180.093 242.352 179.214 241.472 178.129 241.472Z" fill="#4169E1"/>
<path d="M178.25 242.895C178.509 242.895 178.672 243.059 178.672 243.316V252.897C178.672 253.154 178.507 253.318 178.25 253.318H168.67C168.412 253.318 168.249 253.154 168.249 252.897V243.316C168.249 243.057 168.411 242.895 168.67 242.895H178.25Z" fill="#F6F5F4"/>
<path d="M186.883 241.472H196.22C197.306 241.472 198.185 242.352 198.185 243.437V252.774C198.185 253.86 197.306 254.74 196.22 254.74H186.883C185.798 254.74 184.918 253.86 184.918 252.774V243.437C184.918 242.352 185.798 241.472 186.883 241.472Z" fill="#4169E1"/>
<path d="M187.011 248.369L190.006 251.269C190.339 251.592 190.868 251.592 191.201 251.269L196.093 246.531C196.433 246.201 196.442 245.658 196.111 245.317C195.782 244.977 195.238 244.968 194.898 245.298L190.603 249.457L188.206 247.136C187.866 246.806 187.322 246.815 186.992 247.156C186.662 247.496 186.671 248.04 187.011 248.369Z" fill="white"/>
<path d="M186.883 259.844H196.22C197.306 259.844 198.185 260.723 198.185 261.808V271.146C198.185 272.231 197.306 273.11 196.22 273.11H186.883C185.798 273.11 184.918 272.231 184.918 271.146V261.808C184.918 260.723 185.798 259.844 186.883 259.844Z" fill="#4169E1"/>
<path d="M186.761 261.266C186.504 261.266 186.34 261.429 186.34 261.687V271.267C186.34 271.525 186.505 271.689 186.761 271.689H196.343C196.6 271.689 196.763 271.526 196.763 271.267V261.687C196.763 261.428 196.6 261.266 196.343 261.266H186.761Z" fill="#F6F5F4"/>
<path d="M168.791 259.844H178.129C179.214 259.844 180.093 260.723 180.093 261.808V271.146C180.093 272.231 179.214 273.11 178.129 273.11H168.791C167.706 273.11 166.827 272.231 166.827 271.146V261.808C166.827 260.723 167.706 259.844 168.791 259.844Z" fill="#4169E1"/>
<path d="M168.92 266.741L171.914 269.641C172.247 269.963 172.775 269.963 173.109 269.641L178 264.902C178.341 264.572 178.349 264.029 178.02 263.688C177.689 263.347 177.146 263.339 176.805 263.668L172.512 267.829L170.115 265.507C169.774 265.177 169.23 265.185 168.9 265.526C168.57 265.867 168.579 266.41 168.92 266.741Z" fill="white"/>
<path d="M204.574 212.18H300.87V214.604H204.574V212.18Z" fill="#4169E1"/>
<path d="M204.574 230.606H300.87V233.03H204.574V230.606Z" fill="#4169E1"/>
<path d="M204.574 249.033H300.87V251.457H204.574V249.033Z" fill="#4169E1"/>
<path d="M204.574 267.461H300.87V269.884H204.574V267.461Z" fill="#4169E1"/>
<path d="M201.806 124.575H166.38V121.624H201.806V124.575Z" fill="black"/>
<path d="M216.423 131.865H166.38V128.914H216.423V131.865Z" fill="black"/>
<path d="M502.765 135.349H528.873L500.78 208.131H474.672L502.765 135.349Z" fill="#4169E1"/>
<path d="M462.673 162.008H436.565L474.672 208.131H500.78L462.673 162.008Z" fill="#232323"/>
<path d="M436.565 162.007H462.673L428.312 251.032H402.204L436.565 162.007Z" fill="#4169E1"/>
<path d="M390.204 204.908H364.097L402.204 251.032H428.311L390.204 204.908Z" fill="#232323"/>
<path d="M364.097 204.908H390.204L355.843 293.932H329.735L364.097 204.908Z" fill="#4169E1"/>
<path d="M446.224 65.6689H442.899C443.851 61.8358 444.162 59.0033 444.162 59.0033H436.758C436.758 59.0033 436.717 61.7861 436.11 65.6689H403.518C402.911 61.7861 402.87 59.0033 402.87 59.0033H395.466C395.466 59.0033 395.777 61.8358 396.729 65.6689H392.282C391.614 62.7902 391.264 59.9586 391.264 57.394H447.243C447.243 59.9586 446.892 62.7902 446.224 65.6689Z" fill="#F5F5F5"/>
<path d="M436.343 84.1851H433.424C436.796 81.8097 439.735 77.7206 441.824 73.0579C442.194 72.2328 442.526 71.3879 442.838 70.5387C442.49 70.299 442.113 70.0559 441.705 69.8154C442.185 68.3662 442.578 66.9606 442.899 65.6689H446.224C444.614 72.6077 441.163 79.8152 436.343 84.1851ZM405.082 84.1851H402.163C397.343 79.8152 393.892 72.6077 392.282 65.6689H396.729C397.389 68.3302 398.359 71.4735 399.747 74.4866C398.786 74.1348 397.772 73.6708 396.691 73.0767C398.78 77.7317 401.715 81.8131 405.082 84.1851ZM405.952 75.2801C404.704 71.9254 403.96 68.504 403.518 65.6689H436.11C436.017 66.2638 435.911 66.8827 435.79 67.523C434.643 67.2774 433.395 67.1122 432.047 67.0608C431.756 67.0505 431.461 67.0445 431.16 67.0445C429.239 67.0445 427.124 67.2774 424.815 67.8312C416.213 69.8959 411.661 74.5534 405.952 75.2801Z" fill="#3D3D3D"/>
<path d="M447.243 140.505H391.264C391.264 130.505 396.598 116.432 405.258 111.432C407.421 110.183 409.709 109.245 412.06 108.62C416.875 106.117 417.1 98.9493 417.1 98.9493H418.523C418.525 98.9861 418.525 99.0058 418.525 99.0058C418.525 116.942 410.761 124.678 403.832 129.396C404.989 123.264 407.533 115.302 413.122 110.832C401.72 111.709 397.409 127.274 396.028 134.389C394.3 135.681 393.21 136.985 393.21 138.676H445.296C445.296 137.651 444.767 136.735 443.86 135.827C442.821 129.672 438.757 111.775 426.506 110.832C432.358 115.514 434.873 124.024 435.951 130.253C428.603 125.213 419.597 117.138 419.578 98.9493H421.809C421.809 98.9493 422.059 106.967 427.722 109.006C427.915 109.066 428.11 109.123 428.302 109.188L428.315 109.192C428.556 109.256 428.763 109.336 428.942 109.427C430.416 109.971 431.861 110.631 433.248 111.432C441.908 116.432 447.243 130.505 447.243 140.505ZM436.343 84.185H433.424H436.343H436.343ZM405.083 84.185H402.163H402.162H405.082C405.082 84.185 405.082 84.185 405.083 84.185Z" fill="#F5F5F5"/>
<path d="M421.809 98.9492H419.578C419.578 98.9304 419.578 98.9116 419.578 98.8927C419.578 98.8927 419.541 90.807 425.602 87.656C425.721 87.5935 425.846 87.5447 425.977 87.5105C428.173 86.9267 430.311 86.051 432.334 84.8826C432.701 84.6703 433.065 84.4375 433.424 84.1849H436.343C435.366 85.0709 434.334 85.8396 433.248 86.4662C431.861 87.2674 430.417 87.9265 428.943 88.4709C428.763 88.5617 428.556 88.6413 428.315 88.7063L428.302 88.7098C428.11 88.7757 427.915 88.8313 427.722 88.8929C422.059 90.9311 421.809 98.9492 421.809 98.9492ZM418.523 98.9492H417.1C417.1 98.9492 416.875 91.7811 412.061 89.2781C409.709 88.6533 407.421 87.7151 405.258 86.4662C404.173 85.8396 403.14 85.0709 402.163 84.1849H405.083C405.441 84.4375 405.805 84.6703 406.172 84.8826C407.46 85.6264 408.809 86.2428 410.198 86.7555L410.39 86.8402C410.448 86.8694 410.533 86.9044 410.665 86.9395L410.705 86.9524C410.662 86.9395 410.618 86.9284 410.574 86.919C410.646 86.9344 410.74 86.9627 410.783 86.9764C410.787 86.9772 410.791 86.9789 410.795 86.9798C410.93 87.026 411.111 87.0782 411.338 87.151L411.404 87.1724C414.946 88.447 416.729 91.5517 417.596 94.0957C418.384 96.4078 418.507 98.5751 418.523 98.9492ZM410.808 86.984C410.808 86.984 410.799 86.9806 410.783 86.9764C410.773 86.9729 410.763 86.9695 410.753 86.9661L410.77 86.9712C410.797 86.9806 410.808 86.984 410.808 86.984ZM410.753 86.9661L410.705 86.9524C410.722 86.9567 410.737 86.9609 410.753 86.9661Z" fill="#4169E1"/>
<path d="M390.246 53.6225H448.259C449.639 53.6225 450.756 54.4665 450.756 55.5083C450.756 56.55 449.639 57.394 448.259 57.394H390.246C388.867 57.394 387.75 56.55 387.75 55.5083C387.75 54.4665 388.867 53.6225 390.246 53.6225Z" fill="#4169E1"/>
<path d="M390.247 140.505H448.26C449.639 140.505 450.757 141.349 450.757 142.39C450.757 143.432 449.639 144.276 448.26 144.276H390.247C388.868 144.276 387.75 143.432 387.75 142.39C387.75 141.349 388.868 140.505 390.247 140.505Z" fill="#4169E1"/>
<path d="M432.047 67.0608C436.978 67.2474 440.553 68.9619 442.838 70.5387C442.526 71.3878 442.194 72.2327 441.825 73.0579C439.513 78.217 436.161 82.6733 432.334 84.8827C430.311 86.0511 428.173 86.9268 425.977 87.5106C425.846 87.5448 425.721 87.5936 425.602 87.6561C419.541 90.807 419.578 98.8928 419.578 98.8928C419.578 129.679 445.296 131.534 445.296 138.676H393.21C393.21 130.527 418.525 131.39 418.525 99.0058C418.525 99.0058 418.463 96.639 417.596 94.0958C416.729 91.5518 414.946 88.4471 411.404 87.1725L411.338 87.1511C411.111 87.0783 410.93 87.0261 410.795 86.9799C410.719 86.9542 410.641 86.9328 410.563 86.9174C410.689 86.9422 410.894 87.0124 410.77 86.9713L410.665 86.9396C410.533 86.9045 410.448 86.8694 410.39 86.8403L410.198 86.7556C408.809 86.2428 407.46 85.6265 406.172 84.8827C402.35 82.6759 399.001 78.2273 396.691 73.0767C408.298 79.4565 412.204 70.858 424.815 67.8312C427.485 67.1909 429.894 66.9794 432.047 67.0608Z" fill="#4169E1"/>
<path d="M403.518 65.6689H396.729C395.777 61.8358 395.466 59.0033 395.466 59.0033H402.87C402.87 59.0033 402.912 61.7861 403.518 65.6689Z" fill="#F5F5F5"/>
<path d="M404.445 75.3767C402.999 75.3759 401.458 75.1105 399.747 74.4865C398.359 71.4734 397.389 68.3301 396.729 65.6688H403.518C403.96 68.5039 404.704 71.9253 405.952 75.28C405.459 75.3425 404.958 75.3767 404.445 75.3767Z" fill="#CAB4C1"/>
<path d="M413.122 86.0562C406.608 85.5554 402.408 80.2602 399.747 74.4865C401.458 75.1105 402.999 75.3758 404.445 75.3767C404.958 75.3767 405.459 75.3425 405.952 75.28C407.471 79.3648 409.739 83.3503 413.122 86.0562Z" fill="#7ADEFF"/>
<path d="M396.029 134.389C397.409 127.274 401.72 111.709 413.122 110.832C407.533 115.302 404.989 123.264 403.832 129.396C400.847 131.429 398.016 132.903 396.029 134.389Z" fill="#F5F5F5"/>
<path d="M402.87 137.885H395.466C395.466 137.885 395.617 136.514 396.028 134.388C398.016 132.902 400.847 131.429 403.832 129.396C402.925 134.202 402.87 137.885 402.87 137.885Z" fill="#7ADEFF"/>
<path d="M442.899 65.6689H436.11C436.717 61.7861 436.758 59.0033 436.758 59.0033H444.162C444.162 59.0033 443.851 61.8358 442.899 65.6689Z" fill="#B5B5B5"/>
<path d="M441.705 69.8154C440.167 68.9081 438.199 68.0384 435.791 67.5231C435.911 66.8828 436.017 66.2639 436.11 65.669H442.899C442.578 66.9607 442.185 68.3662 441.705 69.8154Z" fill="#656565"/>
<path d="M426.506 86.0562C432.085 81.5938 434.63 73.6519 435.791 67.5229C438.199 68.0382 440.167 68.9079 441.705 69.8152C439.308 77.0724 434.768 85.421 426.506 86.0562Z" fill="#4169E1"/>
<path d="M443.86 135.827C442.188 134.153 439.236 132.507 435.951 130.253C434.873 124.024 432.358 115.514 426.506 110.832C438.757 111.775 442.821 129.672 443.86 135.827Z" fill="#656565"/>
<path d="M444.162 137.885H436.758C436.758 137.885 436.709 134.633 435.951 130.253C439.236 132.507 442.188 134.153 443.86 135.827C444.077 137.112 444.162 137.885 444.162 137.885Z" fill="#4169E1"/>
<path d="M500.843 235.078C500.843 235.078 500.268 239.233 500.357 240.117C500.445 241.002 500.003 241.532 499.826 242.593C499.649 243.654 499.693 245.334 499.87 248.606C500.047 251.876 500.135 253.026 501.019 253.733C501.904 254.441 504.821 253.468 504.821 253.468L504.556 255.236H511.718L511.629 253.291C511.629 253.291 512.601 252.053 512.955 251.081C513.309 250.109 514.988 243.124 515.342 241.267C515.696 239.41 515.961 236.935 514.635 234.725C513.309 232.514 509.861 231.453 507.12 231.541C504.379 231.63 501.55 231.541 500.842 235.078H500.843Z" fill="#F4B58E"/>
<path d="M465.655 228.712C465.655 228.712 464.24 226.414 464.594 225.529C464.948 224.645 464.948 223.761 464.594 222.17C464.24 220.578 461.941 219.34 461.941 219.34C461.941 219.34 459.642 213.152 458.759 213.505C457.874 213.859 459.819 218.28 459.466 219.164C459.112 220.048 457.167 221.285 456.813 222.877C456.459 224.469 457.521 226.767 458.228 226.944C458.935 227.121 459.996 230.127 459.996 230.127L465.655 228.712Z" fill="#F4B58E"/>
<path d="M527.013 301.034L522.946 305.631C522.946 305.631 521.532 307.753 521.532 309.875C521.532 311.997 522.415 313.765 524.184 313.235C525.952 312.704 528.25 310.229 528.781 308.46C529.312 306.693 530.373 303.333 530.373 303.333L527.013 301.034Z" fill="#F4B58E"/>
<path d="M486.99 381.421C486.99 381.421 486.49 383.296 484.739 384.172C482.989 385.047 477.737 387.422 477.112 388.423C476.487 389.423 476.611 390.423 476.611 390.423C476.611 390.423 479.613 391.549 483.864 391.173C488.115 390.798 489.866 390.423 490.866 390.673C491.866 390.923 494.617 391.048 494.617 390.548C494.617 390.048 494.992 384.547 493.241 382.046C489.49 381.421 486.99 381.421 486.99 381.421Z" fill="#241F31"/>
<path d="M492.116 301.398C492.116 301.398 489.615 340.41 489.115 342.91C488.615 345.41 486.115 381.921 486.115 381.921C486.115 381.921 489.616 384.922 494.117 382.42C500.618 362.416 497.618 351.913 499.118 346.911C500.618 341.909 509.621 318.904 509.621 318.904C509.621 318.904 517.123 346.911 518.123 350.412C519.124 353.913 523.125 382.921 523.125 382.921H529.626C529.626 382.921 531.127 369.417 531.627 362.916C532.127 356.413 528.626 350.912 528.126 345.41C527.626 339.909 526.125 312.401 524.125 303.399C508.121 301.898 492.116 301.398 492.116 301.398Z" fill="#3E73B2"/>
<mask id="mask0_1_9269" style="mask-type:luminance" maskUnits="userSpaceOnUse" x="486" y="301" width="46" height="83">
<path d="M492.116 301.398C492.116 301.398 489.615 340.41 489.115 342.91C488.615 345.41 486.115 381.921 486.115 381.921C486.115 381.921 489.616 384.922 494.117 382.42C500.618 362.416 497.618 351.913 499.118 346.911C500.618 341.909 509.621 318.904 509.621 318.904C509.621 318.904 517.123 346.911 518.123 350.412C519.124 353.913 523.125 382.921 523.125 382.921H529.626C529.626 382.921 531.127 369.417 531.627 362.916C532.127 356.413 528.626 350.912 528.126 345.41C527.626 339.909 526.125 312.401 524.125 303.399C508.121 301.898 492.116 301.398 492.116 301.398Z" fill="white"/>
</mask>
<g mask="url(#mask0_1_9269)">
<path d="M503.426 316.648C499.856 316.648 496.281 316.485 492.712 316.17C492.261 316.131 491.728 316.118 491.149 316.111C491.687 308.091 492.116 301.398 492.116 301.398C492.116 301.398 508.121 301.898 524.125 303.399C524.684 305.915 525.204 309.877 525.675 314.401C524.795 314.611 523.911 314.787 523.042 314.942C516.55 316.099 509.995 316.648 503.426 316.648Z" fill="#4169E1"/>
</g>
<path d="M523.5 381.421C523.5 381.421 523 383.296 521.249 384.172C519.499 385.047 514.247 387.422 513.622 388.423C512.997 389.423 513.122 390.423 513.122 390.423C513.122 390.423 516.123 391.549 520.374 391.173C524.625 390.798 526.376 390.423 527.376 390.673C528.376 390.923 531.127 391.048 531.127 390.548C531.127 390.048 531.502 384.547 529.751 382.046C526 381.421 523.5 381.421 523.5 381.421Z" fill="#241F31"/>
<path d="M502.876 256.209C502.876 256.209 503.141 254.617 503.849 254.352C504.556 254.086 510.568 254.086 512.159 254.529C513.752 254.971 513.84 257.093 513.84 257.093L502.876 256.209Z" fill="#3E73B2"/>
<path d="M493.617 255.386C493.617 255.386 509.621 255.386 521.124 257.386C526.126 258.387 527.126 261.387 529.126 263.889C531.127 266.389 539.129 283.393 540.129 287.395C541.13 291.396 531.127 305.9 531.127 305.9C531.127 305.9 527.126 305.9 526.126 300.899C529.126 294.396 530.127 287.395 530.127 287.395L523.125 274.892L526.626 310.401C526.626 310.401 501.119 314.402 489.616 309.401C491.116 293.397 490.616 274.391 490.616 274.391C490.616 274.391 470.61 261.387 468.11 256.386C465.609 251.385 458.607 229.879 458.607 229.879C458.607 229.879 463.108 225.878 466.109 227.878C469.11 234.88 475.112 246.883 477.112 249.884C479.113 252.886 493.617 255.386 493.617 255.386Z" fill="#99C1F1"/>
<path d="M500.357 235.697C500.224 236.006 499.738 236.935 500.533 237.376C501.329 237.819 502.788 237.995 503.009 238.482C503.23 238.969 502.965 241.532 503.097 242.417C503.23 243.3 503.584 243.477 503.893 242.858C504.202 242.239 503.76 241.4 505.043 241.488C506.324 241.577 506.855 242.328 506.457 244.052C506.059 245.776 505.882 246.483 504.777 248.207C505.043 249.49 506.855 251.435 506.855 251.435C506.855 251.435 511.099 252.76 512.513 252.053C514.635 246.837 516.448 241.532 516.315 239.233C516.183 236.935 515.785 234.813 513.84 233.266C511.895 231.718 507.739 230.879 504.556 231.409C501.374 231.939 500.888 233.133 500.357 235.697Z" fill="black"/>
<path d="M147.729 243.805C146.91 247.201 150.811 248.778 151.373 251.589C151.792 253.684 150.839 256.514 148.723 257.219C147.914 257.489 146.864 256.656 146.074 256.558C145.535 256.49 143.018 256.649 142.596 256.227C142.255 255.886 142.63 253.655 142.596 253.245C142.305 249.751 143.086 243.805 147.729 243.805Z" fill="#3D3846"/>
<path d="M183.814 245.334C183.814 245.334 185.4 242.969 185.842 240.996C186.283 239.023 187.193 237.752 188.3 236.311C189.408 234.869 189.108 233.935 189.82 234.358C190.531 234.781 190.219 235.968 189.553 236.96C188.886 237.951 189.859 238.356 190.921 237.022C191.985 235.689 193.903 233.824 195.948 233.788C197.993 233.751 198.182 235.733 197.272 237.003C196.363 238.274 193.553 241.67 192.202 243.391C190.85 245.111 186.798 247.729 186.798 247.729L183.814 245.334Z" fill="#F4B58E"/>
<path d="M147.794 254.439L165.428 257.474C165.428 257.474 172.727 252.519 175.283 251.527C177.838 250.534 184.338 243.918 184.338 243.918C184.835 245.026 186.214 246.503 188.347 247.247C188.347 247.247 182.973 255.687 177.886 259.832C172.798 263.976 174.015 264.107 171.559 265.302C169.102 266.497 152.289 268.106 152.289 268.106L147.794 254.439Z" fill="#7ADEFF"/>
<path d="M155.561 334.824C153.421 343.691 150.814 373.009 150.521 377.231C150.309 380.293 151.181 383.014 153.21 384.736C156.319 387.376 157.425 388.015 158.946 388.484C160.469 388.952 160.469 389.772 158.596 390.24C156.723 390.708 154.028 391.06 152.857 390.475C151.686 389.889 148.174 386.142 147.472 386.259C146.769 386.376 146.417 389.304 146.651 390.24C145.597 390.592 145.363 390.357 145.363 390.357C143.734 384.854 145.962 381.736 146.026 378.142C146.445 364.302 140.07 354.743 142.985 347.477C145.596 343.768 142.13 340.199 142.715 333.858C144.716 335.368 149.692 332.197 155.561 334.824Z" fill="#F1A271"/>
<path d="M145.083 383.43C147.898 383.821 150.865 386.909 153.21 388.132C154.801 388.962 156.428 388.443 157.497 387.879C157.986 388.129 158.453 388.331 158.947 388.484C160.469 388.952 160.469 389.772 158.596 390.24C156.723 390.708 154.028 391.06 152.857 390.475C151.686 389.889 148.174 386.142 147.472 386.259C146.769 386.376 146.417 389.304 146.651 390.24C145.597 390.592 145.363 390.357 145.363 390.357C144.533 387.553 144.707 385.374 145.083 383.43Z" fill="black"/>
<path d="M141.033 337.868C138.893 346.736 131.38 373.477 131.086 377.699C130.874 380.762 131.746 383.482 133.776 385.204C136.885 387.844 137.99 388.484 139.512 388.952C141.035 389.42 141.035 390.24 139.161 390.708C137.288 391.177 134.593 391.529 133.422 390.944C132.251 390.358 128.74 386.61 128.037 386.727C127.334 386.844 126.982 389.772 127.216 390.708C126.162 391.06 125.929 390.825 125.929 390.825C124.299 385.323 126.527 382.204 126.591 378.61C128.011 355.018 122.886 358.962 127.051 347.945C129.663 344.236 128.304 341.136 128.89 334.795C130.891 336.304 135.163 335.241 141.033 337.868Z" fill="#F4B58E"/>
<path d="M125.648 383.898C128.463 384.29 131.43 387.377 133.776 388.601C135.366 389.43 136.993 388.911 138.063 388.347C138.551 388.597 139.018 388.799 139.513 388.952C141.035 389.42 141.035 390.24 139.161 390.708C137.288 391.177 134.593 391.529 133.422 390.944C132.251 390.358 128.74 386.61 128.037 386.727C127.334 386.844 126.983 389.772 127.216 390.708C126.162 391.06 125.929 390.825 125.929 390.825C125.098 388.022 125.272 385.842 125.648 383.898Z" fill="black"/>
<path d="M148.917 234.502C148.917 234.502 150.439 238.613 151.387 241.435C152.335 244.256 153.007 246.545 150.941 247.195C148.875 247.845 146.318 249.216 146.318 249.216L145.654 254.936L138.28 254.987L140.001 249.944C140.001 249.944 136.961 239.481 137.578 236.618C138.195 233.756 141.196 232.342 144.416 232.027C147.636 231.713 148.487 233.536 148.917 234.502Z" fill="#F4B58E"/>
<path d="M153.758 287.613C153.758 287.613 155.866 295.342 156.803 301.9C157.74 308.458 155.902 335.626 155.902 335.626C155.902 335.626 139.484 342.216 128.007 336.595C126.133 315.985 126.355 311.269 127.995 303.071C129.635 294.874 134.085 285.74 134.085 285.74L153.758 287.613Z" fill="#4169E1"/>
<mask id="mask1_1_9269" style="mask-type:luminance" maskUnits="userSpaceOnUse" x="126" y="285" width="32" height="54">
<path d="M153.758 287.613C153.758 287.613 155.866 295.342 156.803 301.9C157.74 308.458 155.902 335.626 155.902 335.626C155.902 335.626 139.484 342.216 128.007 336.595C126.133 315.985 126.355 311.269 127.995 303.071C129.635 294.874 134.085 285.74 134.085 285.74L153.758 287.613Z" fill="white"/>
</mask>
<g mask="url(#mask1_1_9269)">
<path d="M147.229 297.829C141.056 297.829 134.799 296.494 130.206 295.211C131.162 292.459 132.179 289.997 132.931 288.273C134.051 289.665 137.612 290.646 141.504 291.12C141.508 291.12 141.511 291.12 141.514 291.121C141.517 291.121 141.52 291.122 141.523 291.122C143.259 291.333 145.061 291.442 146.74 291.442C149.764 291.442 152.39 291.088 153.529 290.329C153.662 290.239 153.782 290.142 153.889 290.038C153.89 290.037 153.892 290.036 153.894 290.034C153.895 290.032 153.897 290.031 153.899 290.028C153.902 290.026 153.906 290.022 153.909 290.019C153.91 290.018 153.911 290.017 153.912 290.015C153.915 290.013 153.918 290.01 153.921 290.007C153.922 290.006 153.923 290.005 153.923 290.004C153.927 290.001 153.931 289.996 153.935 289.993C154.064 289.859 154.173 289.714 154.264 289.559C154.692 291.259 155.327 293.896 155.9 296.744C153.161 297.519 150.204 297.829 147.229 297.829Z" fill="#4169E1"/>
</g>
<path d="M142.2 252.137C137.337 251.943 134.746 255.259 133.939 263.727C133.133 272.195 136.934 274.938 132.653 286.868C131.149 291.061 149.9 292.748 153.529 290.328C157.158 287.909 150.302 280.074 155.975 272.3C160.586 265.984 150.295 252.46 142.2 252.137Z" fill="#7ADEFF"/>
<path d="M146.724 230.433C146.724 230.433 145.671 229.73 144.382 230.549C143.094 231.369 143.797 232.892 143.797 232.892L146.724 230.433Z" fill="#F5C211"/>
<path d="M139.766 249.274C139.766 249.274 136.482 245.138 134.154 242.641C131.243 239.517 130.758 230.379 140.449 228.644C143.103 228.168 149.479 229.332 149.322 232.906C149.226 235.111 149.019 236.211 146.79 236.112C144.561 236.013 142.48 236.485 142.539 238.699C142.596 240.913 142.968 243.095 142.968 243.095C142.968 243.095 141.749 240.361 140.52 242.383C139.291 244.406 142.049 246.673 139.766 249.274Z" fill="#3D3846"/>
<path d="M133.746 232.792C133.746 232.792 132.255 234.779 131.924 238.754C131.593 242.729 131.924 245.213 129.937 249.353C127.949 253.493 132.089 256.143 135.567 256.309C139.045 256.475 142.688 255.15 142.192 252.003C141.695 248.856 140.536 247.2 140.039 244.551C139.542 241.9 139.045 236.601 139.045 236.601L133.746 232.792Z" fill="#3D3846"/>
<path d="M146.74 291.442C145.061 291.442 143.259 291.333 141.523 291.122C143.259 291.333 145.06 291.442 146.739 291.442C149.763 291.442 152.39 291.087 153.529 290.328C153.663 290.239 153.782 290.142 153.889 290.039C153.782 290.142 153.662 290.239 153.529 290.329C152.39 291.088 149.764 291.442 146.74 291.442ZM141.514 291.121C141.511 291.121 141.508 291.121 141.504 291.12C141.507 291.121 141.511 291.121 141.514 291.121Z" fill="#4169E1"/>
<path d="M154.643 288.109C154.678 287.387 154.566 286.556 154.406 285.637C154.406 285.637 154.406 285.637 154.407 285.637C154.567 286.555 154.678 287.387 154.643 288.109Z" fill="#D9D9D9"/>
<path d="M146.739 291.442C145.06 291.442 143.259 291.333 141.523 291.122C141.52 291.122 141.517 291.121 141.514 291.121C141.511 291.121 141.507 291.121 141.504 291.12C136.772 290.544 132.527 289.218 132.567 287.313C132.57 287.168 132.598 287.019 132.653 286.868C132.955 286.025 133.218 285.227 133.444 284.47C133.445 284.465 133.447 284.461 133.448 284.456C133.449 284.453 133.45 284.451 133.45 284.448C136.314 274.857 133.417 271.785 133.888 264.507C136.832 260.868 139.584 257.511 139.584 257.511C139.584 257.511 142.334 259.263 142.459 262.514C142.585 265.765 136.833 276.891 136.958 278.267C137.083 279.642 138.959 283.643 141.71 284.893C143.084 285.518 147.201 285.674 150.997 285.674C152.198 285.674 153.367 285.658 154.406 285.637C154.566 286.556 154.678 287.388 154.642 288.109C154.642 288.111 154.642 288.113 154.642 288.114C154.642 288.116 154.642 288.119 154.642 288.121C154.642 288.126 154.642 288.131 154.641 288.136C154.641 288.137 154.641 288.137 154.641 288.137C154.6 288.885 154.401 289.512 153.935 289.993C153.93 289.997 153.927 290.001 153.923 290.004C153.923 290.005 153.922 290.006 153.921 290.007C153.917 290.01 153.915 290.013 153.912 290.015C153.911 290.017 153.91 290.018 153.909 290.019C153.905 290.022 153.902 290.026 153.899 290.028C153.897 290.031 153.895 290.033 153.893 290.034C153.892 290.036 153.89 290.037 153.889 290.039C153.782 290.142 153.663 290.239 153.529 290.328C152.39 291.087 149.763 291.442 146.739 291.442Z" fill="#383838"/>
<path d="M154.749 266.833C154.572 268.602 150.859 296.364 150.859 296.364L167.657 293.181L171.193 264.181L154.749 266.833Z" fill="#47464C"/>
<path d="M155.249 267.083C155.072 268.851 151.359 296.613 151.359 296.613L168.157 293.431L171.694 264.431L155.249 267.083Z" fill="#5E5C64"/>
<path d="M145.265 283.15C145.265 283.15 148.706 283.683 149.869 282.14C151.032 280.598 152.272 279.897 154.613 279.813C156.954 279.729 159.953 279.714 159.161 282.461C158.37 285.208 157.095 286.239 154.025 286.912C150.956 287.585 149.85 288.098 148.532 287.957C147.214 287.818 143.605 287.803 143.605 287.803L145.265 283.15Z" fill="#F4B58E"/>
<path d="M133.796 256.285C138.582 255.127 140.935 258.184 141.755 261.436C142.576 264.687 134.347 279.326 134.347 279.326L147.129 282.849C147.129 282.849 148.436 285.361 147.204 287.562C137.155 289.659 127.134 286.408 125.057 285.526C122.982 284.645 125.836 259.103 133.796 256.285Z" fill="#7ADEFF"/>
<path d="M493.004 140.163H538.04L523.873 109.404L493.004 140.163Z" fill="#4169E1"/>
<path d="M359.31 172.38C363.736 169.825 368.779 170.275 370.574 173.385C372.37 176.494 370.237 181.087 365.812 183.642C361.386 186.197 356.344 185.747 354.548 182.637C352.753 179.527 354.885 174.936 359.31 172.38Z" fill="#5E5C64"/>
<path d="M346.266 168.24C345.945 168.437 345.704 168.613 345.575 168.759C344.544 169.932 343.074 172.225 346.168 174.626C349.262 177.027 351.134 184.032 354.4 184.312C357.667 184.591 363.937 180.393 363.937 180.393C363.937 180.393 370.708 177.062 372.099 174.093C373.49 171.124 368.358 166.001 367.826 162.122C367.294 158.242 364.573 158.368 363.042 158.675C361.511 158.981 354.747 164.474 354.747 164.474C354.747 164.474 348.514 166.858 346.266 168.24Z" fill="#7ADEFF"/>
<mask id="mask2_1_9269" style="mask-type:luminance" maskUnits="userSpaceOnUse" x="344" y="158" width="29" height="27">
<path d="M346.266 168.24C345.945 168.437 345.704 168.613 345.575 168.759C344.544 169.932 343.074 172.225 346.168 174.626C349.262 177.027 351.134 184.032 354.4 184.312C357.667 184.591 363.937 180.393 363.937 180.393C363.937 180.393 370.708 177.062 372.099 174.093C373.49 171.124 368.358 166.001 367.826 162.122C367.294 158.242 364.573 158.368 363.042 158.675C361.511 158.981 354.747 164.474 354.747 164.474C354.747 164.474 348.514 166.858 346.266 168.24Z" fill="white"/>
</mask>
<g mask="url(#mask2_1_9269)">
<path d="M354.725 184.325C354.614 184.325 354.506 184.321 354.4 184.312C352.277 184.13 350.744 181.107 349.08 178.353C349.703 178.319 350.335 178.316 350.964 178.316C351.04 178.316 351.117 178.316 351.193 178.316C351.271 178.316 351.349 178.316 351.427 178.316C352.528 178.316 353.61 178.306 354.608 178.133C357.981 177.55 361.441 175.304 364.105 172.982C364.491 172.645 364.861 172.307 365.212 171.971C366.691 170.555 368.153 169.146 368.797 167.207C368.963 166.708 369.049 166.167 369.119 165.614C370.462 168.199 372.334 170.887 372.338 172.946C372.338 173.355 372.265 173.74 372.099 174.093C371.898 174.523 371.583 174.961 371.193 175.395C368.888 177.957 363.937 180.393 363.937 180.393C363.937 180.393 359.351 183.464 355.98 184.178C355.535 184.272 355.113 184.325 354.725 184.325Z" fill="#4169E1"/>
</g>
<path d="M359.917 126.801C363.189 132.467 363.853 138.923 362.284 144.78C361.499 147.71 365.638 159.983 363.782 162.438C361.926 164.894 359.559 167.027 356.726 168.663C353.893 170.299 350.862 171.282 347.807 171.661C344.752 172.041 336.192 162.32 333.264 161.535C327.406 159.966 322.148 156.162 318.876 150.495C312.333 139.162 316.217 124.671 327.549 118.128C338.883 111.585 353.374 115.467 359.917 126.801Z" fill="#7ADEFF"/>
<path d="M334.582 150.86C334.181 151.104 334.054 151.628 334.299 152.028C335.325 153.709 336.612 155.659 338.601 156.764C343.786 159.642 345.228 159.994 348.319 165.348C349.077 166.661 349.894 168.559 351.16 169.868C351.199 169.908 351.552 170.398 351.836 170.791C352.401 170.616 352.962 170.427 353.519 170.208C353.145 169.683 352.774 169.09 352.383 168.686C351.461 167.732 350.621 165.938 349.79 164.499C346.59 158.957 344.557 158.125 339.426 155.277C337.926 154.444 336.744 152.769 335.751 151.143C335.506 150.742 334.983 150.615 334.582 150.86ZM351.72 139.127C351.314 139.362 351.174 139.881 351.409 140.288C352.535 142.239 354.007 144.696 354.486 146.612C354.855 148.085 354.553 149.521 354.441 151.265C354.143 155.884 355.018 158.915 357.455 163.137C358.204 164.434 359.012 165.604 359.449 166.824C359.923 166.455 360.381 166.072 360.82 165.672C360.281 164.416 359.53 163.334 358.926 162.288C356.569 158.206 355.854 155.749 356.136 151.374C356.238 149.792 356.616 148.119 356.135 146.201C355.547 143.851 353.989 141.355 352.882 139.437C352.647 139.031 352.128 138.892 351.721 139.126L351.719 139.127H351.72Z" fill="#4169E1"/>
<path d="M336.862 150.525L338.439 145.122L342.127 145.851L342.945 142.317L346.591 143.682L347.073 138.504L351.75 139.887L349.011 140.447L347.588 145.761L343.634 144.573L342.363 149.798L338.339 147.425L336.862 150.525Z" fill="white"/>
<path d="M320.603 140.268C319.579 140.267 318.523 139.42 318.183 137.624C317.487 133.942 319.677 128.186 322.751 123.962C324.068 122.339 325.378 121.711 326.455 121.711C328.697 121.711 329.933 124.428 328.136 126.569C325.474 129.74 323.125 134.158 322.855 137.58C322.716 139.334 321.677 140.268 320.603 140.268Z" fill="#7ADEFF"/>
<path d="M322.738 149.923C322.244 149.923 321.662 149.71 321.021 149.257C318.953 147.797 318.875 145.188 320.665 143.337C321.107 142.997 321.527 142.848 321.913 142.848C323.383 142.848 324.393 145.005 324.454 147.071C324.508 148.871 323.838 149.923 322.738 149.923Z" fill="#7ADEFF"/>
<path d="M302.672 283.019H277.915L267.162 259.387L268.413 259.137L278.666 281.518H302.922L302.672 283.019Z" fill="#77767B"/>
<path d="M287.168 267.514C287.168 267.514 286.418 268.639 286.293 269.64C286.168 270.64 287.168 271.14 288.168 271.265C289.168 271.39 291.544 271.515 291.544 271.015C291.544 270.515 291.294 268.389 291.294 268.389C291.294 268.389 288.293 267.139 287.168 267.514Z" fill="#EF8F6A"/>
<path d="M309.596 316.914C311.947 325.898 317.409 337.827 317.409 337.827C316.582 336.548 331.672 373.179 332.856 377.516C333.678 380.525 333.328 383.41 331.641 385.525C329.057 388.763 328.08 389.616 326.654 390.38C325.228 391.144 325.388 391.962 327.347 392.063C329.307 392.164 332.061 391.989 333.114 391.177C334.167 390.364 336.936 385.941 337.66 385.921C338.384 385.9 339.306 388.751 339.255 389.73C340.375 389.875 340.562 389.595 340.562 389.595C341.112 383.791 338.282 381.117 337.516 377.546C331.493 354.304 338.185 352.72 332.179 337.886C330.654 334.117 325.433 319.149 325.457 313.24C325.48 307.333 307.246 307.928 309.596 316.914Z" fill="#F1A474"/>
<path d="M339.489 382.635C336.758 383.575 334.403 387.231 332.304 388.91C330.881 390.048 329.157 389.847 327.982 389.495C327.543 389.84 327.116 390.132 326.654 390.38C325.228 391.144 325.388 391.962 327.347 392.063C329.307 392.164 332.061 391.989 333.114 391.177C334.167 390.364 336.936 385.941 337.66 385.921C338.384 385.9 339.306 388.751 339.255 389.73C340.375 389.875 340.562 389.595 340.562 389.595C340.842 386.638 340.243 384.499 339.489 382.635Z" fill="black"/>
<path d="M326.375 298.699C321.97 294.845 313.002 294.156 308.821 298.252C306.264 300.757 308.051 309.504 308.004 317.538C307.956 325.574 306.085 337.812 306.085 337.812C306.324 342.728 310.712 375.65 310.733 380.146C310.748 383.265 309.663 385.962 307.487 387.567C304.153 390.027 302.988 390.598 301.413 390.967C299.837 391.336 299.78 392.168 301.647 392.772C303.513 393.377 306.22 393.92 307.447 393.408C308.675 392.896 312.494 389.341 313.198 389.508C313.902 389.676 314.055 392.668 313.753 393.601C314.797 394.03 315.05 393.808 315.05 393.808C317.084 388.345 315.042 385.029 315.226 381.382C315.424 357.372 322.299 357.574 320.337 341.691C319.838 337.656 327.142 316.839 328.484 311.907C329.826 306.974 329.73 301.636 326.375 298.699Z" fill="#F4B58E"/>
<path d="M315.815 386.807C312.935 387.009 309.714 389.932 307.252 391.009C305.582 391.74 303.969 391.1 302.924 390.455C302.411 390.675 301.924 390.847 301.413 390.967C299.837 391.337 299.78 392.168 301.647 392.772C303.513 393.377 306.22 393.92 307.447 393.408C308.675 392.896 312.494 389.341 313.198 389.508C313.902 389.676 314.055 392.668 313.753 393.601C314.797 394.03 315.05 393.808 315.05 393.808C316.087 391.025 316.061 388.804 315.815 386.807Z" fill="black"/>
<path d="M308.015 276.246L297.959 269.834L295.714 273.02C295.714 273.02 306.178 285.66 308.6 285.111C311.023 284.56 308.015 276.246 308.015 276.246Z" fill="#F4B58E"/>
<path d="M328.427 286.837L307.811 287.45C307.811 287.45 306.492 311.644 306.819 316.725C307.146 321.807 305.575 340.652 305.575 340.652C305.575 340.652 325.307 342.275 333.708 337.79C330.194 325.071 328.442 316.182 330.534 310.254C332.626 304.326 335.215 296.071 328.427 286.837Z" fill="#3E73B2"/>
<mask id="mask3_1_9269" style="mask-type:luminance" maskUnits="userSpaceOnUse" x="305" y="286" width="29" height="55">
<path d="M328.427 286.837L307.811 287.45C307.811 287.45 306.492 311.644 306.819 316.725C307.146 321.807 305.575 340.652 305.575 340.652C305.575 340.652 325.307 342.275 333.708 337.79C330.194 325.071 328.442 316.182 330.534 310.254C332.626 304.326 335.215 296.071 328.427 286.837Z" fill="white"/>
</mask>
<g mask="url(#mask3_1_9269)">
<path d="M306.885 308.274C307.159 299.407 307.811 287.45 307.811 287.45L328.427 286.837C330.431 289.563 331.619 292.206 332.242 294.727C331.386 296.192 330.14 297.529 328.778 298.653C322.597 303.753 314.877 307.086 306.885 308.274Z" fill="#4169E1"/>
</g>
<mask id="mask4_1_9269" style="mask-type:luminance" maskUnits="userSpaceOnUse" x="305" y="286" width="29" height="55">
<path d="M328.427 286.837L307.811 287.45C307.811 287.45 306.492 311.644 306.819 316.725C307.146 321.807 305.575 340.652 305.575 340.652C305.575 340.652 325.307 342.275 333.708 337.79C330.194 325.071 328.442 316.182 330.534 310.254C332.626 304.326 335.215 296.071 328.427 286.837Z" fill="white"/>
</mask>
<g mask="url(#mask4_1_9269)">
<path d="M328.427 286.837C328.426 286.836 328.427 286.838 328.427 286.837V286.837Z" fill="#4169E1"/>
</g>
<path d="M305.952 241.009C305.952 241.009 306.72 245.396 307.332 248.357C307.944 251.319 308.526 253.671 310.672 253.184C312.818 252.697 315.763 252.591 315.763 252.591L317.355 256.599L324.813 255.892C324.813 255.892 322.508 252.611 321.681 249.997C320.854 247.383 318.992 239.259 316.985 237.062C314.978 234.867 311.622 235.161 308.635 236.534C305.649 237.906 305.835 239.941 305.952 241.009Z" fill="#F4B58E"/>
<path d="M321.176 254.054C326.118 254.194 327.139 256.925 327.369 265.564C327.599 274.203 328.038 283.075 331.389 291.787C333.013 296.01 310.848 298.495 307.338 295.791C308.601 287.782 311.027 281.806 305.816 273.535C303.557 269.949 307.859 266.525 311.634 262.33C314.936 258.66 317.337 253.944 321.176 254.054Z" fill="#99C1F1"/>
<path d="M318.096 231.741C318.096 231.741 319.213 231.102 320.462 232.022C321.711 232.942 320.892 234.437 320.892 234.437L318.096 231.741Z" fill="#F5C211"/>
<path d="M321.852 250.349C321.852 250.349 322.309 243.978 323.072 240.596C324.029 236.365 319.778 228.098 310.385 231.534C307.813 232.476 302.789 236.777 304.78 239.817C307.243 243.577 315.571 245.506 315.571 245.506C315.571 245.506 315.992 241.687 318.106 242.833C319.523 243.6 319.829 247.005 318.454 248.018C319.173 249.491 320.895 250.6 321.852 250.349Z" fill="black"/>
<path d="M312.471 275.597L312.205 282.972C312.205 282.972 308.595 283.44 305.919 284.212C303.242 284.982 293.748 284.332 293.748 284.332L292.976 287.293C292.976 287.293 302.765 291.433 307.927 291.775C314.579 292.217 317.505 292.636 319.092 290.359C320.679 288.083 320.828 275.453 320.828 275.453L312.471 275.597Z" fill="#F4B58E"/>
<path d="M318.189 258.101C314.134 260.209 312.383 262.95 311.992 268.648C311.603 274.345 311.424 276.956 311.424 276.956C311.424 276.956 319.273 280.355 322.646 276.77C322.776 267.24 324.27 256.848 318.189 258.101Z" fill="#B2D0F4"/>
<path d="M318.552 231.879C318.552 231.879 320.177 228.003 322.553 229.504C324.928 231.004 325.929 233.38 324.803 235.255C323.678 237.131 320.302 236.381 320.302 236.381L318.552 231.879Z" fill="black"/>
<path d="M295.045 284.644C295.045 284.644 291.919 283.268 290.669 282.768C289.419 282.268 285.292 281.768 284.667 282.019C284.042 282.268 284.542 282.893 284.542 282.893C284.542 282.893 281.541 282.893 279.916 283.018C278.291 283.143 279.166 284.394 280.791 285.144C282.417 285.895 285.918 287.52 287.668 287.77C289.419 288.02 294.545 287.77 294.545 287.77L295.045 284.644Z" fill="#F4B58E"/>
<path d="M287.918 267.139C287.918 267.139 285.292 266.639 284.667 267.014C284.042 267.389 282.917 269.14 282.792 269.64C282.667 270.14 282.917 271.016 283.542 270.39C284.167 269.765 284.667 268.264 285.542 268.014C286.418 267.764 288.918 268.139 288.918 268.139L287.918 267.139Z" fill="#EF8F6A"/>
<path d="M299.046 270.515C299.046 270.515 295.17 267.764 294.17 267.264C293.17 266.764 289.418 266.889 288.793 266.514C288.168 266.139 285.792 264.513 284.917 264.638C284.042 264.763 281.329 265.052 281.562 265.683C281.966 266.773 284.417 266.014 285.042 266.139C285.667 266.264 287.918 267.889 288.668 268.639C289.418 269.39 290.794 269.14 290.919 270.14C291.043 271.14 289.418 272.891 289.043 273.766C288.668 274.642 288.168 275.391 288.668 275.766C289.168 276.141 289.293 275.766 289.919 274.767C290.544 273.766 291.669 273.141 292.919 272.891C294.17 272.64 296.796 273.266 296.796 273.266L299.046 270.515Z" fill="#F4B58E"/>
<path d="M95.8953 125.971C127.227 125.971 152.627 151.37 152.627 182.701C152.627 214.033 127.227 239.433 95.8953 239.433C64.564 239.433 39.1646 214.033 39.1646 182.701C39.1646 151.37 64.564 125.971 95.8953 125.971Z" fill="black"/>
<path d="M95.8952 232.029C68.6523 232.029 46.5671 209.944 46.5671 182.701C46.5671 155.458 68.6523 133.373 95.8952 133.373C123.138 133.373 145.224 155.458 145.224 182.701C145.224 209.944 123.138 232.029 95.8952 232.029ZM95.8952 136.464C70.3589 136.464 49.6581 157.165 49.6581 182.701C49.6581 208.237 70.3589 228.939 95.8952 228.939C121.431 228.939 142.133 208.237 142.133 182.701C142.133 157.165 121.431 136.464 95.8952 136.464Z" fill="#4169E1"/>
<path d="M95.8952 136.464C121.431 136.464 142.133 157.165 142.133 182.701C142.133 208.237 121.431 228.939 95.8952 228.939C70.3589 228.939 49.6581 208.237 49.6581 182.701C49.6581 157.165 70.3589 136.464 95.8952 136.464Z" fill="#F5F5F5"/>
<path d="M95.8952 153.19C94.4186 153.19 93.2287 154.535 93.2287 156.205V178.929C93.2287 179.692 93.4787 180.385 93.8895 180.915C93.4076 181.387 93.1123 182.011 93.1123 182.701C93.1123 184.178 94.4571 185.368 96.1271 185.368H116.605C118.275 185.368 119.619 184.178 119.619 182.701C119.619 181.224 118.275 180.035 116.605 180.035H98.375C98.4948 179.692 98.5616 179.32 98.5616 178.929V156.205C98.5616 154.535 97.3726 153.19 95.8952 153.19Z" fill="black"/>
<path d="M95.8952 175.745C99.7369 175.745 102.851 178.86 102.851 182.701C102.851 186.543 99.7369 189.658 95.8952 189.658C92.0535 189.658 88.9385 186.543 88.9385 182.701C88.9385 178.86 92.0535 175.745 95.8952 175.745Z" fill="#4169E1"/>
<path d="M116.605 185.368H102.727L107.845 180.035H116.605C118.275 180.035 119.619 181.224 119.619 182.701C119.619 184.178 118.275 185.368 116.605 185.368Z" fill="#383838"/>
<path d="M93.2288 176.274V166.765L98.5616 161.169V173.477L96.2821 175.756C96.1546 175.749 96.0253 175.745 95.8952 175.745C94.9502 175.745 94.0497 175.934 93.2288 176.274Z" fill="#383838"/>
<path d="M99.689 188.532L101.879 186.252C101.332 187.169 100.582 187.951 99.689 188.532ZM88.9496 183.089C88.9419 182.961 88.9385 182.831 88.9385 182.701C88.9385 179.804 90.7095 177.32 93.2287 176.274C94.0497 175.934 94.9502 175.745 95.8952 175.745C96.0253 175.745 96.1545 175.749 96.2821 175.756L88.9496 183.089Z" fill="black"/>
<path d="M95.8952 219.757C94.2654 219.757 92.9437 221.077 92.9437 222.707V222.708C92.9437 224.338 94.2654 225.66 95.8952 225.659C97.5251 225.659 98.8459 224.338 98.8467 222.708C98.8467 221.078 97.5259 219.757 95.8952 219.757ZM123.42 208.14C122.92 208.273 122.464 208.537 122.097 208.903C120.944 210.056 120.944 211.924 122.097 213.077H122.097C123.25 214.229 125.117 214.229 126.27 213.077C127.422 211.925 127.423 210.056 126.27 208.904V208.903C125.524 208.158 124.437 207.867 123.418 208.14H123.42ZM66.842 208.14C66.3415 208.273 65.8851 208.537 65.5189 208.903C64.3663 210.056 64.366 211.924 65.5183 213.077H65.5189C66.6711 214.23 68.5396 214.23 69.6922 213.077C70.8448 211.925 70.8452 210.056 69.6925 208.904L69.6922 208.903C68.9465 208.158 67.8605 207.867 66.842 208.14ZM135.902 179.75C134.272 179.75 132.951 181.071 132.951 182.701V182.702C132.951 184.332 134.272 185.653 135.902 185.653C137.532 185.653 138.853 184.331 138.853 182.702C138.853 181.072 137.532 179.751 135.902 179.75ZM55.8879 179.75C54.2582 179.751 52.937 181.072 52.9374 182.702C52.9377 184.331 54.2585 185.653 55.8879 185.653C57.518 185.653 58.8394 184.332 58.8401 182.702C58.8401 181.072 57.5189 179.751 55.8892 179.75H55.8879ZM123.42 151.562C122.92 151.695 122.463 151.959 122.097 152.325C120.944 153.477 120.944 155.346 122.097 156.499H122.097C123.25 157.652 125.118 157.652 126.27 156.5L126.271 156.499C127.423 155.347 127.423 153.479 126.271 152.326C125.526 151.58 124.439 151.289 123.42 151.562ZM68.3698 151.562C67.351 151.289 66.2642 151.58 65.5189 152.326C64.3666 153.479 64.3666 155.347 65.5189 156.499C66.6711 157.652 68.5399 157.652 69.6925 156.5L69.6929 156.499C70.8458 155.347 70.8458 153.478 69.6936 152.326L69.6929 152.325C69.3268 151.959 68.8704 151.695 68.3698 151.562ZM95.8952 139.744C94.2654 139.744 92.9437 141.064 92.9437 142.694C92.9437 144.324 94.2645 145.646 95.8944 145.647H95.8952C97.5259 145.646 98.8467 144.324 98.8467 142.694C98.8459 141.064 97.5251 139.744 95.8952 139.744Z" fill="black"/>
<path d="M194.488 49.9886C194.488 49.9886 212.141 43.5968 217.736 39.3125C227.009 32.2112 233.83 33.0321 239.734 42.0706C244.259 25.4805 256.825 27.2858 261.226 28.4961C267.525 30.2287 270.165 35.9613 267.636 41.6931C267.636 41.6931 272.915 32.6443 284.98 37.5457C298.283 42.9497 292.898 50.3652 314.014 52.251C260.471 52.251 194.487 49.9886 194.487 49.9886H194.488Z" fill="#383838"/>
</svg>
