<svg width="17" height="15" viewBox="0 0 17 15" fill="none" xmlns="http://www.w3.org/2000/svg">
<path d="M13.8115 4.99177L8.50116 9.55927L3.19079 4.99177C3.09591 4.91 2.96854 4.86422 2.83591 4.86422C2.70329 4.86422 2.57592 4.91 2.48104 4.99177C2.4351 5.03148 2.3986 5.07889 2.37369 5.13121C2.34877 5.18353 2.33594 5.23971 2.33594 5.29646C2.33594 5.35321 2.34877 5.40938 2.37369 5.4617C2.3986 5.51402 2.4351 5.56143 2.48104 5.60114L8.13035 10.4611C8.22956 10.5465 8.36262 10.5942 8.50116 10.5942C8.63971 10.5942 8.77277 10.5465 8.87198 10.4611L14.5213 5.60208C14.5676 5.56233 14.6043 5.51481 14.6294 5.46232C14.6545 5.40983 14.6675 5.35343 14.6675 5.29646C14.6675 5.23948 14.6545 5.18308 14.6294 5.13059C14.6043 5.0781 14.5676 5.03058 14.5213 4.99083C14.4264 4.90906 14.299 4.86328 14.1664 4.86328C14.0338 4.86328 13.9064 4.90906 13.8115 4.99083V4.99177Z" fill="white"/>
</svg>
