<svg width="24" height="24" viewBox="0 0 24 24" fill="none" xmlns="http://www.w3.org/2000/svg">
<path d="M16.4651 24C16.0074 24 15.6279 23.6205 15.6279 23.1628V21.7161C14.8175 21.7574 13.8954 21.7652 12.8372 21.7674V23.1628C12.8372 23.6205 12.4577 24 12 24C11.5423 24 11.1628 23.6205 11.1628 23.1628V21.7674C10.2323 21.7719 9.30181 21.7547 8.37209 21.7161V23.1628C8.37209 23.6205 7.99256 24 7.53488 24C7.07721 24 6.69767 23.6205 6.69767 23.1628V21.5553C5.45079 21.3567 4.53767 20.9693 3.78419 20.2158C3.0307 19.4623 2.64335 18.5503 2.44353 17.3023H0.837209C0.379535 17.3023 0 16.9228 0 16.4651C0 16.0074 0.379535 15.6279 0.837209 15.6279H2.28279C2.24451 14.6982 2.22776 13.7677 2.23256 12.8372H0.837209C0.379535 12.8372 0 12.4577 0 12C0 11.5423 0.379535 11.1628 0.837209 11.1628H2.23256C2.23479 10.1034 2.24372 9.18251 2.28279 8.37209H0.837209C0.379535 8.37209 0 7.99256 0 7.53488C0 7.07721 0.379535 6.69767 0.837209 6.69767H2.44353C2.64335 5.44967 3.0307 4.53767 3.78419 3.78419C4.53767 3.0307 5.45079 2.64335 6.69767 2.44465V0.837209C6.69767 0.379535 7.07721 0 7.53488 0C7.99256 0 8.37209 0.379535 8.37209 0.837209V2.28391C9.30181 2.24525 10.2323 2.22813 11.1628 2.23256V0.837209C11.1628 0.379535 11.5423 0 12 0C12.4577 0 12.8372 0.379535 12.8372 0.837209V2.23256C13.8954 2.23479 14.8175 2.24372 15.6279 2.28391V0.837209C15.6279 0.379535 16.0074 0 16.4651 0C16.9228 0 17.3023 0.379535 17.3023 0.837209V2.44465C18.5492 2.64335 19.4623 3.0307 20.2158 3.78419C20.9693 4.53767 21.3578 5.44967 21.5565 6.69767H23.1628C23.6205 6.69767 24 7.07721 24 7.53488C24 7.99256 23.6205 8.37209 23.1628 8.37209H21.7172C21.7574 9.18251 21.7652 10.1034 21.7674 11.1628H23.1628C23.6205 11.1628 24 11.5423 24 12C24 12.4577 23.6205 12.8372 23.1628 12.8372H21.7674C21.7722 13.7677 21.7555 14.6982 21.7172 15.6279H23.1628C23.6205 15.6279 24 16.0074 24 16.4651C24 16.9228 23.6205 17.3023 23.1628 17.3023H21.5565C21.3578 18.5503 20.9693 19.4623 20.2158 20.2158C19.4623 20.9693 18.5492 21.3567 17.3023 21.5553V23.1628C17.3023 23.6205 16.9228 24 16.4651 24ZM12 20.093C15.974 20.093 17.9721 20.093 19.0326 19.0326C20.093 17.9721 20.093 15.974 20.093 12C20.093 8.02605 20.093 6.02791 19.0326 4.96744C17.9721 3.90698 15.974 3.90698 12 3.90698C8.02605 3.90698 6.02791 3.90698 4.96744 4.96744C3.90698 6.02791 3.90698 8.02605 3.90698 12C3.90698 15.974 3.90698 17.9721 4.96744 19.0326C6.02791 20.093 8.02605 20.093 12 20.093ZM10.6404 16.9116C10.8525 17.4921 11.3883 17.8605 12.0022 17.8605C12.6162 17.8605 13.152 17.4921 13.3641 16.9116L14.2571 14.5005C14.2906 14.3888 14.3799 14.3107 14.4915 14.266L16.9027 13.373C17.4832 13.1609 17.8515 12.6251 17.8515 12.0112C17.8515 11.3972 17.4832 10.8614 16.9027 10.6493L14.4915 9.75628C14.4373 9.73748 14.388 9.70662 14.3474 9.66602C14.3068 9.62541 14.2759 9.57612 14.2571 9.52186L13.3641 7.1107C13.152 6.53023 12.6162 6.16186 12.0022 6.16186C11.3883 6.16186 10.8525 6.53023 10.6404 7.1107L9.74735 9.52186C9.71386 9.63349 9.62456 9.71163 9.51293 9.75628L7.10177 10.6493C6.5213 10.8614 6.15293 11.3972 6.15293 12.0112C6.15293 12.6251 6.5213 13.1609 7.10177 13.373L9.51293 14.266C9.62456 14.2995 9.7027 14.3888 9.74735 14.5005L10.6404 16.9116ZM10.0934 12.6921L8.22921 12L10.0934 11.3079C10.6627 11.0958 11.1092 10.6493 11.3213 10.08L12.0134 8.21581L12.7055 10.08C12.9176 10.6493 13.3641 11.0958 13.9334 11.3079L15.7976 12L13.9334 12.6921C13.3641 12.9042 12.9176 13.3507 12.7055 13.92L12.0134 15.7842L11.3213 13.92C11.1092 13.3507 10.6627 12.9042 10.0934 12.6921Z" fill="#7ADEFF"/>
</svg>
