<svg width="24" height="24" viewBox="0 0 24 24" fill="none" xmlns="http://www.w3.org/2000/svg">
<path d="M11 4.5H5.5C5.10218 4.5 4.72064 4.65804 4.43934 4.93934C4.15804 5.22064 4 5.60218 4 6V16.5H20V11" stroke="#7ADEFF" stroke-width="2" stroke-linecap="round" stroke-linejoin="round"/>
<path d="M2 16.5H22V17.5C22 18.2956 21.6839 19.0587 21.1213 19.6213C20.5587 20.1839 19.7956 20.5 19 20.5H5C4.20435 20.5 3.44129 20.1839 2.87868 19.6213C2.31607 19.0587 2 18.2956 2 17.5V16.5Z" stroke="#7ADEFF" stroke-width="2" stroke-linejoin="round"/>
<path d="M16.5 3.5L14.5 5.5L16.5 7.5M19.5 3.5L21.5 5.5L19.5 7.5" stroke="#7ADEFF" stroke-width="2" stroke-linecap="round" stroke-linejoin="round"/>
</svg>
