<svg width="24" height="24" viewBox="0 0 24 24" fill="none" xmlns="http://www.w3.org/2000/svg">
<g clip-path="url(#clip0_35_113954)">
<path d="M12 9H11C10.7348 9 10.4804 9.10536 10.2929 9.29289C10.1054 9.48043 10 9.73478 10 10V10.375C10 10.5914 10.0702 10.8019 10.2 10.975C10.3298 11.1481 10.5123 11.2744 10.72 11.335L13.28 12.082C13.4877 12.1426 13.6702 12.2689 13.8 12.442C13.9298 12.6151 14 12.8256 14 13.042V14C14 14.2652 13.8946 14.5196 13.7071 14.7071C13.5196 14.8946 13.2652 15 13 15H12M12 9H13C13.2652 9 13.5196 9.10536 13.7071 9.29289C13.8946 9.48043 14 9.73478 14 10V10.5M12 9V7.5M12 15H11C10.7348 15 10.4804 14.8946 10.2929 14.7071C10.1054 14.5196 10 14.2652 10 14V13.5M12 15V16.5M1 3H13C15.1217 3 17.1566 3.84285 18.6569 5.34315C20.1571 6.84344 21 8.87827 21 11M1 3C1.41 3 1.99 2.753 2.41 2.497C2.96882 2.15094 3.46235 1.7092 3.868 1.192C4.186 0.792 4.5 0.318 4.5 0M1 3C1.41 3 1.99 3.247 2.41 3.503C2.96882 3.84906 3.46235 4.29081 3.868 4.808C4.186 5.208 4.5 5.682 4.5 6M23 21H11C8.87827 21 6.84344 20.1571 5.34315 18.6569C3.84285 17.1566 3 15.1217 3 13M23 21C22.59 21 22.01 21.247 21.59 21.503C21.0312 21.8491 20.5376 22.2908 20.132 22.808C19.814 23.208 19.5 23.682 19.5 24M23 21C22.59 21 22.01 20.753 21.59 20.497C21.0312 20.1509 20.5376 19.7092 20.132 19.192C19.814 18.792 19.5 18.318 19.5 18M18 12C18 10.4087 17.3679 8.88258 16.2426 7.75736C15.1174 6.63214 13.5913 6 12 6C10.4087 6 8.88258 6.63214 7.75736 7.75736C6.63214 8.88258 6 10.4087 6 12C6 13.5913 6.63214 15.1174 7.75736 16.2426C8.88258 17.3679 10.4087 18 12 18C13.5913 18 15.1174 17.3679 16.2426 16.2426C17.3679 15.1174 18 13.5913 18 12Z" stroke="#7ADEFF" stroke-width="1.4"/>
</g>
<defs>
<clipPath id="clip0_35_113954">
<rect width="24" height="24" fill="white"/>
</clipPath>
</defs>
</svg>
