<svg width="18" height="18" viewBox="0 0 18 18" fill="none" xmlns="http://www.w3.org/2000/svg">
<g clip-path="url(#clip0_35_113956)">
<path d="M9 0C13.9653 0 18 4.0347 18 9C18 13.9653 13.9653 18 9 18C4.04928 18 0.0257397 13.9883 0.00215912 9.0432C0.000747681 9.02884 2.67029e-05 9.01443 0 9C6.29425e-05 8.98473 0.000904083 8.96947 0.00251961 8.95428C0.0025177 8.95356 0.0025177 8.95284 0.00251961 8.95212C0.0286198 4.00932 4.0509 0 9 0ZM9.45 0.9486V4.83048C10.5359 4.79808 11.5639 4.64976 12.4931 4.41144C12.3284 3.9627 12.1414 3.54654 11.9349 3.17142C11.2419 1.91322 10.3678 1.1403 9.45 0.94842V0.9486ZM8.55 0.9486C7.632 1.1403 6.75792 1.9134 6.0651 3.1716C5.85864 3.54654 5.67162 3.9627 5.50692 4.41144C6.43608 4.64976 7.46406 4.79826 8.55 4.83048V0.9486ZM11.7742 1.386C12.1259 1.77408 12.4443 2.2302 12.7235 2.73708C12.9622 3.17088 13.1744 3.64608 13.3587 4.15386C13.8962 3.97026 14.3901 3.75552 14.8286 3.51396C14.8586 3.49758 14.8867 3.48048 14.9161 3.46374C14.0467 2.53382 12.9702 1.82204 11.7742 1.38618V1.386ZM6.22584 1.386C5.02974 1.82191 3.95331 2.53375 3.08394 3.46374C3.11328 3.48048 3.14154 3.49758 3.17142 3.51414C3.6099 3.75534 4.104 3.97062 4.64166 4.15422C4.82562 3.64626 5.03766 3.17088 5.27652 2.73708C5.5557 2.2302 5.87412 1.77408 6.22584 1.386ZM15.5007 4.1643C15.4224 4.2111 15.3441 4.2579 15.2627 4.3029C14.7695 4.57452 14.2232 4.8123 13.635 5.01264C13.9363 6.0894 14.117 7.2855 14.1518 8.55H17.087C17.0019 6.96374 16.45 5.43799 15.5007 4.1643ZM2.4993 4.1643C1.55 5.43799 0.998121 6.96374 0.912958 8.55H3.85128C3.88602 7.28586 4.06602 6.08976 4.36644 5.013C3.77766 4.81266 3.231 4.5747 2.73726 4.30272C2.65608 4.25808 2.5776 4.21092 2.4993 4.16412V4.1643ZM12.7697 5.27094C11.75 5.53662 10.6301 5.69592 9.45 5.72832V8.55H13.2511C13.2161 7.37154 13.0448 6.2604 12.7697 5.27094ZM5.23026 5.27094C4.95522 6.2604 4.78386 7.37154 4.74894 8.55H8.55V5.72796C7.3701 5.69556 6.24978 5.53644 5.23026 5.27094ZM17.0869 9.45H14.1518C14.117 10.7145 13.9363 11.9104 13.635 12.987C14.2231 13.1877 14.7694 13.4257 15.2627 13.6973C15.3439 13.7419 15.4224 13.7891 15.5007 13.8359C16.45 12.5621 17.0019 11.0363 17.087 9.45H17.0869ZM13.2511 9.45H9.45V12.2688C10.6304 12.3012 11.7504 12.4614 12.7701 12.7276C13.045 11.7385 13.2161 10.6279 13.2511 9.45ZM8.55 9.45H4.74894C4.78386 10.6279 4.95504 11.7385 5.2299 12.7276C6.2496 12.4614 7.36956 12.3014 8.55 12.2688V9.45ZM3.8511 9.45H0.912958C0.998121 11.0363 1.55 12.562 2.4993 13.8357C2.5776 13.7889 2.6559 13.7421 2.73726 13.6971C3.23082 13.4253 3.77766 13.1873 4.36608 12.9866C4.06548 11.9101 3.88566 10.7141 3.8511 9.45ZM9.45 13.1695V17.0514C10.368 16.8597 11.2421 16.0866 11.9349 14.8284C12.1414 14.4535 12.3284 14.0373 12.4931 13.5886C11.5639 13.3502 10.5359 13.2017 9.45 13.1695ZM8.55 13.1695C7.46406 13.2019 6.43608 13.3502 5.50692 13.5886C5.67162 14.0373 5.85864 14.4535 6.0651 14.8286C6.7581 16.0868 7.63218 16.8597 8.55 17.0516V13.1693V13.1695ZM4.64166 13.8456C4.104 14.0292 3.6099 14.2443 3.17142 14.4859C3.14136 14.5022 3.11328 14.5193 3.08394 14.5361C3.95331 15.4661 5.02974 16.1779 6.22584 16.6138C5.87412 16.2257 5.5557 15.7696 5.27652 15.2627C5.03784 14.8289 4.8258 14.3537 4.64166 13.8456ZM13.3587 13.846C13.1744 14.3537 12.9622 14.8289 12.7233 15.2627C12.4443 15.7696 12.1259 16.2257 11.7742 16.6138C12.9703 16.1779 14.0467 15.4661 14.9161 14.5361C14.8867 14.5193 14.8585 14.5022 14.8286 14.4857C14.3901 14.2445 13.8962 14.0296 13.3587 13.846Z" fill="white"/>
</g>
<defs>
<clipPath id="clip0_35_113956">
<rect width="18" height="18" fill="white" transform="matrix(-1 0 0 1 18 0)"/>
</clipPath>
</defs>
</svg>
