<svg width="24" height="24" viewBox="0 0 24 24" fill="none" xmlns="http://www.w3.org/2000/svg">
<g clip-path="url(#clip0_35_113944)">
<path d="M1.10205 1.10229V22.8977H22.8975" stroke="#7ADEFF" stroke-width="2" stroke-linecap="round" stroke-linejoin="round"/>
<path d="M1.10205 16.1555L5.44605 11.5166M10.5083 11.1704L13.2941 13.7658M16.9643 12.9909L18.9718 7.47264M7.85291 6.60692C8.66038 6.60692 9.43478 6.92769 10.0057 7.49866C10.5767 8.06963 10.8975 8.84402 10.8975 9.6515C10.8975 10.459 10.5767 11.2334 10.0057 11.8043C9.43478 12.3753 8.66038 12.6961 7.85291 12.6961C7.04544 12.6961 6.27104 12.3753 5.70007 11.8043C5.1291 11.2334 4.80834 10.459 4.80834 9.6515C4.80834 8.84402 5.1291 8.06963 5.70007 7.49866C6.27104 6.92769 7.04544 6.60692 7.85291 6.60692ZM19.8529 1.51892C20.2587 1.50929 20.6623 1.5809 21.04 1.72953C21.4177 1.87816 21.7619 2.10082 22.0523 2.38441C22.3427 2.668 22.5735 3.00679 22.731 3.38086C22.8886 3.75494 22.9697 4.15674 22.9697 4.56264C22.9697 4.96854 22.8886 5.37034 22.731 5.74441C22.5735 6.11848 22.3427 6.45728 22.0523 6.74087C21.7619 7.02445 21.4177 7.24711 21.04 7.39574C20.6623 7.54438 20.2587 7.61598 19.8529 7.60635C19.0582 7.58749 18.3023 7.25853 17.7469 6.68978C17.1915 6.12103 16.8806 5.3576 16.8806 4.56264C16.8806 3.76768 17.1915 3.00425 17.7469 2.43549C18.3023 1.86674 19.0582 1.53779 19.8529 1.51892ZM15.6203 12.6961C16.0202 12.6961 16.4161 12.7748 16.7854 12.9278C17.1548 13.0808 17.4905 13.3051 17.7732 13.5878C18.0559 13.8705 18.2802 14.2061 18.4332 14.5755C18.5862 14.9449 18.6649 15.3408 18.6649 15.7406C18.6649 16.1405 18.5862 16.5364 18.4332 16.9057C18.2802 17.2751 18.0559 17.6108 17.7732 17.8935C17.4905 18.1762 17.1548 18.4005 16.7854 18.5535C16.4161 18.7065 16.0202 18.7852 15.6203 18.7852C14.8129 18.7852 14.0385 18.4644 13.4675 17.8935C12.8965 17.3225 12.5758 16.5481 12.5758 15.7406C12.5758 14.9332 12.8965 14.1588 13.4675 13.5878C14.0385 13.0168 14.8129 12.6961 15.6203 12.6961Z" stroke="#7ADEFF" stroke-width="2" stroke-linecap="round" stroke-linejoin="round"/>
</g>
<defs>
<clipPath id="clip0_35_113944">
<rect width="24" height="24" fill="white"/>
</clipPath>
</defs>
</svg>
