<svg width="24" height="24" viewBox="0 0 24 24" fill="none" xmlns="http://www.w3.org/2000/svg">
<path d="M9.49976 9.16995C9.58512 9.1207 9.65995 9.05513 9.71996 8.97696C9.77998 8.8988 9.82401 8.80958 9.84955 8.7144C9.87508 8.61922 9.88162 8.51994 9.86879 8.42224C9.85596 8.32453 9.82401 8.23031 9.77476 8.14495C9.72552 8.05959 9.65994 7.98476 9.58178 7.92475C9.50362 7.86473 9.4144 7.8207 9.31922 7.79516C9.22404 7.76963 9.12476 7.76309 9.02705 7.77592C8.92935 7.78875 8.83512 7.8207 8.74976 7.86995C7.25659 8.7319 6.16699 10.1517 5.72065 11.817C5.27432 13.4824 5.50781 15.2568 6.36976 16.7499C7.23172 18.2431 8.65153 19.3327 10.3168 19.7791C11.9822 20.2254 13.7566 19.9919 15.2498 19.1299C15.4222 19.0305 15.548 18.8666 15.5995 18.6744C15.6511 18.4822 15.6242 18.2773 15.5248 18.1049C15.4253 17.9326 15.2614 17.8067 15.0692 17.7552C14.877 17.7036 14.6722 17.7305 14.4998 17.8299C13.9309 18.1634 13.3017 18.3811 12.6484 18.4704C11.9951 18.5598 11.3305 18.519 10.693 18.3504C10.0555 18.1819 9.45767 17.8889 8.93387 17.4884C8.41006 17.0878 7.97065 16.5876 7.64094 16.0166C7.31124 15.4455 7.09774 14.8149 7.01275 14.161C6.92776 13.5071 6.97294 12.8429 7.14571 12.2065C7.31848 11.5701 7.61542 10.9742 8.01943 10.4531C8.42343 9.93194 8.92654 9.49586 9.49976 9.16995Z" fill="#7ADEFF"/>
<path d="M12.75 8.52002C12.75 8.32111 12.671 8.13034 12.5303 7.98969C12.3897 7.84904 12.1989 7.77002 12 7.77002C11.8011 7.77002 11.6103 7.84904 11.4697 7.98969C11.329 8.13034 11.25 8.32111 11.25 8.52002V13.5C11.2499 13.6318 11.2845 13.7612 11.3504 13.8753C11.4162 13.9894 11.5109 14.0842 11.625 14.15L15.552 16.417C15.6374 16.4663 15.7316 16.4982 15.8293 16.511C15.927 16.5239 16.0263 16.5173 16.1215 16.4918C16.2166 16.4663 16.3059 16.4222 16.384 16.3622C16.4622 16.3022 16.5278 16.2274 16.577 16.142C16.6262 16.0567 16.6582 15.9624 16.671 15.8647C16.6839 15.767 16.6773 15.6677 16.6518 15.5726C16.6262 15.4774 16.5822 15.3882 16.5222 15.31C16.4622 15.2318 16.3874 15.1663 16.302 15.117L12.75 13.067V8.52002Z" fill="#7ADEFF"/>
<path fill-rule="evenodd" clip-rule="evenodd" d="M10.5 1.75C10.3011 1.75 10.1103 1.82902 9.96967 1.96967C9.82902 2.11032 9.75 2.30109 9.75 2.5C9.75 2.69891 9.82902 2.88968 9.96967 3.03033C10.1103 3.17098 10.3011 3.25 10.5 3.25H11.25V4.782C9.29727 4.95 7.45749 5.76873 6.02554 7.10698C4.59359 8.44522 3.6524 10.2255 3.35283 12.1624C3.05326 14.0993 3.41265 16.0807 4.3734 17.789C5.33416 19.4973 6.84063 20.8336 8.65137 21.5837C10.4621 22.3337 12.4722 22.4542 14.3596 21.9256C16.2469 21.3971 17.9021 20.2503 19.06 18.6689C20.2178 17.0875 20.8112 15.1632 20.745 13.2043C20.6788 11.2455 19.9569 9.36563 18.695 7.866L19.53 7.031C19.6667 6.88961 19.7424 6.7002 19.7408 6.50355C19.7391 6.3069 19.6604 6.11875 19.5214 5.97963C19.3824 5.84051 19.1943 5.76154 18.9977 5.75974C18.801 5.75794 18.6115 5.83345 18.47 5.97L17.634 6.805C16.2552 5.6404 14.5484 4.93342 12.75 4.782V3.25H13.5C13.6989 3.25 13.8897 3.17098 14.0303 3.03033C14.171 2.88968 14.25 2.69891 14.25 2.5C14.25 2.30109 14.171 2.11032 14.0303 1.96967C13.8897 1.82902 13.6989 1.75 13.5 1.75H10.5ZM4.75 13.5C4.75 12.5479 4.93753 11.6052 5.30187 10.7255C5.66622 9.84593 6.20025 9.0467 6.87348 8.37348C7.5467 7.70025 8.34593 7.16622 9.22554 6.80187C10.1052 6.43753 11.0479 6.25 12 6.25C12.9521 6.25 13.8948 6.43753 14.7745 6.80187C15.6541 7.16622 16.4533 7.70025 17.1265 8.37348C17.7997 9.0467 18.3338 9.84593 18.6981 10.7255C19.0625 11.6052 19.25 12.5479 19.25 13.5C19.25 15.4228 18.4862 17.2669 17.1265 18.6265C15.7669 19.9862 13.9228 20.75 12 20.75C10.0772 20.75 8.23311 19.9862 6.87348 18.6265C5.51384 17.2669 4.75 15.4228 4.75 13.5Z" fill="#7ADEFF"/>
</svg>
